<svg width="424" height="349" viewBox="0 0 424 349" fill="none" xmlns="http://www.w3.org/2000/svg">
<path d="M212.109 331.12C298.832 288.399 356.436 240.489 385.784 191.274C410.634 149.6 413.729 108.966 398.126 75.5382C383.958 45.1859 355.174 23.5136 322.018 17.9294C286.629 11.969 250.613 24.707 222.06 56.2528L212.109 67.2478L202.157 56.2528C173.604 24.707 137.589 11.969 102.199 17.9294C69.0435 23.5136 40.2592 45.1859 26.0916 75.5382C10.4882 108.966 13.5828 149.6 38.4337 191.274C67.7816 240.489 125.385 288.399 212.109 331.12Z" fill="white"/>
<path d="M210.994 69.2076C211.278 69.5237 211.684 69.7041 212.109 69.7041C212.534 69.7041 212.939 69.5237 213.224 69.2076L223.129 58.2015C251.246 26.9603 286.595 14.4436 321.256 20.3146C353.775 25.8228 382.008 47.2036 395.899 77.1344C411.179 110.055 408.225 150.204 383.685 191.591C354.756 240.38 297.928 288.054 212.109 330.67C126.29 288.054 69.4614 240.38 40.5326 191.591C15.9924 150.204 13.0389 110.055 28.3183 77.1344C42.2101 47.2036 70.4425 25.8228 102.961 20.3146C137.623 14.4436 172.971 26.9603 201.088 58.2015L210.994 69.2076ZM205.378 345.924C209.619 348.025 214.599 348.025 218.84 345.924C306.467 302.513 366.706 252.89 398.016 200.085C424.721 155.047 429.082 109.058 411.012 70.1237C394.789 35.1718 361.917 10.3086 324.039 3.89268C283.703 -2.93949 243.403 11.6505 212.109 45.5638C180.815 11.6505 140.514 -2.93949 100.179 3.89268C62.3005 10.3086 29.4283 35.1718 13.2061 70.1237C-4.86454 109.058 -0.503555 155.047 26.2016 200.085C57.5118 252.89 117.75 302.513 205.378 345.924Z" fill="#BF0020" stroke="#BF0020" stroke-width="3" stroke-linecap="round" stroke-linejoin="round"/>
</svg>
