<svg width="372" height="291" viewBox="0 0 372 291" fill="none" xmlns="http://www.w3.org/2000/svg">
<mask id="mask0_89:1269" style="mask-type:alpha" maskUnits="userSpaceOnUse" x="0" y="0" width="372" height="291">
<path d="M334.503 147.638C334.503 226.64 271.682 290.684 194.188 290.684C116.695 290.684 53.874 226.64 53.874 147.638C-96.2618 -5.41957 106.937 0.024006 184.431 0.0240056C484.519 0.024004 334.503 68.6364 334.503 147.638Z" fill="#C4C4C4"/>
</mask>
<g mask="url(#mask0_89:1269)">
<path d="M307.779 170.649C307.779 235.353 256.35 287.658 193.09 287.658C129.829 287.658 78.4001 235.353 78.4001 170.649C78.4001 105.945 129.829 53.6396 193.09 53.6396C256.35 53.6396 307.779 105.945 307.779 170.649Z" fill="white"/>
<path d="M307.779 170.649C307.779 235.353 256.35 287.658 193.09 287.658C129.829 287.658 78.4001 235.353 78.4001 170.649C78.4001 105.945 129.829 53.6396 193.09 53.6396C256.35 53.6396 307.779 105.945 307.779 170.649Z" stroke="#5C00C7" stroke-width="8.96325"/>
<path d="M307.779 170.649C307.779 235.353 256.35 287.658 193.09 287.658C129.829 287.658 78.4001 235.353 78.4001 170.649C78.4001 105.945 129.829 53.6396 193.09 53.6396C256.35 53.6396 307.779 105.945 307.779 170.649Z" stroke="url(#paint0_linear_89:1269)" stroke-opacity="0.25" stroke-width="8.96325"/>
<path d="M307.779 170.649C307.779 235.353 256.35 287.658 193.09 287.658C129.829 287.658 78.4001 235.353 78.4001 170.649C78.4001 105.945 129.829 53.6396 193.09 53.6396C256.35 53.6396 307.779 105.945 307.779 170.649Z" stroke="url(#paint1_linear_89:1269)" stroke-opacity="0.15" stroke-width="8.96325"/>
<path d="M201.975 95.8621C199.133 90.8587 191.715 89.4102 187.273 92.9911C185.848 94.1395 184.675 95.7217 182.959 96.3171C178.675 97.8012 179.664 92.5342 175.188 93.195C167.534 94.3251 171.782 108.141 160.394 110.731C156.184 111.689 148.95 106.489 144.681 107.116C138.574 108.015 137.704 118.833 131.561 119.441C129.29 119.666 127.174 118.28 124.914 117.949C122.654 117.618 119.725 119.432 120.524 121.621C121.798 127.586 121.62 127.586 123.324 133.184C126.594 143.922 129.453 155.012 138.385 161.563C147.317 168.115 156.873 172.091 167.426 175.224C177.029 178.075 188.134 180.222 198.09 179.283C211.037 178.059 222.747 170.385 231.599 160.634C240.45 150.883 246.834 139.108 253.131 127.462C250.572 129.91 246.328 127.802 244.057 125.075C241.784 122.345 239.862 118.812 236.464 117.943C233.571 117.204 230.433 118.699 227.579 117.814C221.961 116.073 221.035 106.577 215.22 105.746C212.974 105.425 209.89 106.735 207.696 106.146C203.719 105.08 204.038 99.4968 201.975 95.8621Z" fill="#428DFC"/>
<path d="M201.975 95.8621C199.133 90.8587 191.715 89.4102 187.273 92.9911C185.848 94.1395 184.675 95.7217 182.959 96.3171C178.675 97.8012 179.664 92.5342 175.188 93.195C167.534 94.3251 171.782 108.141 160.394 110.731C156.184 111.689 148.95 106.489 144.681 107.116C138.574 108.015 137.704 118.833 131.561 119.441C129.29 119.666 127.174 118.28 124.914 117.949C122.654 117.618 119.725 119.432 120.524 121.621C121.798 127.586 121.62 127.586 123.324 133.184C126.594 143.922 129.453 155.012 138.385 161.563C147.317 168.115 156.873 172.091 167.426 175.224C177.029 178.075 188.134 180.222 198.09 179.283C211.037 178.059 222.747 170.385 231.599 160.634C240.45 150.883 246.834 139.108 253.131 127.462C250.572 129.91 246.328 127.802 244.057 125.075C241.784 122.345 239.862 118.812 236.464 117.943C233.571 117.204 230.433 118.699 227.579 117.814C221.961 116.073 221.035 106.577 215.22 105.746C212.974 105.425 209.89 106.735 207.696 106.146C203.719 105.08 204.038 99.4968 201.975 95.8621Z" fill="#428DFC"/>
<path d="M201.975 95.8621C199.133 90.8587 191.715 89.4102 187.273 92.9911C185.848 94.1395 184.675 95.7217 182.959 96.3171C178.675 97.8012 179.664 92.5342 175.188 93.195C167.534 94.3251 171.782 108.141 160.394 110.731C156.184 111.689 148.95 106.489 144.681 107.116C138.574 108.015 137.704 118.833 131.561 119.441C129.29 119.666 127.174 118.28 124.914 117.949C122.654 117.618 119.725 119.432 120.524 121.621C121.798 127.586 121.62 127.586 123.324 133.184C126.594 143.922 129.453 155.012 138.385 161.563C147.317 168.115 156.873 172.091 167.426 175.224C177.029 178.075 188.134 180.222 198.09 179.283C211.037 178.059 222.747 170.385 231.599 160.634C240.45 150.883 246.834 139.108 253.131 127.462C250.572 129.91 246.328 127.802 244.057 125.075C241.784 122.345 239.862 118.812 236.464 117.943C233.571 117.204 230.433 118.699 227.579 117.814C221.961 116.073 221.035 106.577 215.22 105.746C212.974 105.425 209.89 106.735 207.696 106.146C203.719 105.08 204.038 99.4968 201.975 95.8621Z" fill="url(#paint2_linear_89:1269)" fill-opacity="0.5"/>
<path d="M77.0495 28.3955C75.0635 20.3037 71.8369 19.9806 66.0234 14.0288C65.0842 13.068 64.0685 11.5569 63.0169 12.387C61.9899 15.3494 69.232 20.3913 69.8632 27.3125C60.3903 21.7051 46.2878 18.988 37.7579 19.5699C34.7514 19.7747 39.9622 22.238 46.7791 23.2642C53.0017 24.2001 56.8028 26.7527 62.3867 29.7036C62.7165 30.6808 58.9872 29.0457 58.0065 28.8053C48.7037 26.519 42.1683 24.7002 32.2609 23.9336C29.3385 24.2895 34.3763 29.3795 37.0559 30.4471C43.7169 33.0988 51.1886 35.0859 57.8478 37.7377C56.0998 41.0175 34.9569 31.085 38.4083 35.4767C44.5459 42.5403 57.4868 45.4082 66.7093 44.9523C68.2295 44.8782 69.7441 44.9109 71.2313 45.2457C75.3592 46.1719 78.6463 55.6429 79.6355 59.3065C86.5857 85.0294 92.009 95.7354 97.8112 111.847C99.5157 109.418 109 99.827 111.711 98.7123C106.472 84.1849 80.6767 40.9261 78.8532 36.194C78.4639 35.1821 76.6829 27.3741 77.0495 28.3955Z" fill="url(#paint3_linear_89:1269)"/>
<path d="M299.635 28.0349C301.621 19.9431 304.848 19.62 310.662 13.6682C311.601 12.7074 312.616 11.1964 313.668 12.0264C314.695 14.9888 307.453 20.0307 306.822 26.9519C316.295 21.3445 330.397 18.6274 338.927 19.2093C341.934 19.4141 336.723 21.8774 329.906 22.9036C323.683 23.8395 319.882 26.3921 314.298 29.343C313.968 30.3202 317.698 28.6851 318.678 28.4447C327.981 26.1584 334.517 24.3396 344.424 23.5731C347.346 23.9289 342.309 29.0189 339.629 30.0865C332.968 32.7382 325.496 34.7254 318.837 37.3771C320.585 40.6569 338.126 29.5738 334.674 33.9655C328.537 41.0291 319.198 45.0476 309.976 44.5917C308.455 44.5176 306.941 44.5503 305.454 44.8851C301.326 45.8113 298.039 55.2823 297.049 58.9459C290.099 84.6688 284.676 95.3748 278.874 111.486C277.169 109.058 267.685 99.4664 264.974 98.3517C270.213 83.8243 296.008 40.5655 297.832 35.8334C298.221 34.8215 300.002 27.0135 299.635 28.0349Z" fill="url(#paint4_linear_89:1269)"/>
<path d="M199.497 169.453C198.774 169.103 198.052 168.753 197.33 168.402C198.089 155.456 198.075 142.167 198.984 129.379C193.777 132.84 184.751 134.452 178.599 133.607C180.417 145.86 181.286 158.447 179.71 170.733C186.253 169.752 192.886 169.282 199.497 169.453Z" fill="#B07171"/>
<path d="M186.603 143.032C190.293 142.72 193.661 140.671 196.391 138.111C202.199 132.664 205.607 124.631 205.53 116.568C205.505 113.96 205.127 111.34 204.245 108.893C201.146 100.306 191.251 94.9617 182.578 97.1902C179.187 98.0607 176.042 99.9574 173.715 102.627C169.014 108.018 168.063 115.903 168.963 123.072C169.58 127.994 171.022 132.937 174.022 136.838C177.021 140.737 181.772 143.442 186.603 143.032Z" fill="#CC8A82"/>
<path d="M174.761 126.974C177.266 130.601 181.918 131.275 186.255 131.126C190.379 130.986 193.232 129.203 196.492 126.271C194.837 129.738 194.969 130.472 192.636 133.186C190.169 136.058 187.76 137.599 183.318 136.752C182.451 136.587 180.309 135.245 179.629 134.672C176.63 132.15 176.366 130.592 174.761 126.974Z" fill="white"/>
<path d="M173.229 147.032C173.123 147.032 173.013 146.987 172.935 146.9C171.72 145.558 172.806 143.753 173.679 142.305L173.924 141.894C175.234 139.669 175.244 136.671 173.948 134.436C173.798 134.177 173.631 133.92 173.463 133.66C172.799 132.638 172.112 131.579 172.301 130.315C172.457 129.26 173.184 128.43 173.888 127.626C174.685 126.714 175.373 125.928 175.06 125.03C174.88 124.514 174.254 124.133 173.65 123.765C172.805 123.25 171.846 122.666 172.024 121.56C172.259 120.09 173.516 119.286 174.731 118.511C175.231 118.193 175.701 117.892 176.101 117.551C176.986 116.791 176.1 114.934 175.807 114.383C175.628 114.045 175.424 113.715 175.223 113.386C174.74 112.6 174.241 111.787 174.031 110.839C173.603 108.911 174.504 106.703 176.324 105.212C177.867 103.95 180.172 103.154 182.21 102.507C182.425 102.44 182.646 102.562 182.712 102.777C182.778 102.994 182.659 103.222 182.448 103.29C181.025 103.741 178.379 104.582 176.825 105.853C175.623 106.837 174.375 108.684 174.813 110.655C174.992 111.467 175.436 112.185 175.901 112.947C176.113 113.292 176.324 113.637 176.512 113.99C176.98 114.873 177.932 117.051 176.615 118.179C176.173 118.558 175.656 118.887 175.155 119.208C174.042 119.918 172.99 120.589 172.815 121.694C172.731 122.22 173.232 122.555 174.059 123.059C174.753 123.48 175.538 123.96 175.815 124.754C176.289 126.111 175.372 127.159 174.486 128.173C173.861 128.887 173.216 129.624 173.095 130.439C172.953 131.389 173.526 132.272 174.133 133.207C174.307 133.478 174.483 133.749 174.64 134.018C176.082 136.505 176.07 139.841 174.613 142.317L174.364 142.735C173.435 144.277 172.782 145.521 173.525 146.342C173.676 146.509 173.666 146.768 173.503 146.922C173.425 146.996 173.327 147.032 173.229 147.032Z" fill="#428DFC"/>
<path d="M250.666 123.079C247.739 123.079 244.975 120.229 244.057 119.179C241.926 116.739 239.522 113.981 236.572 114.422C235.803 114.536 235.083 114.867 234.32 115.216C233.483 115.6 232.618 115.998 231.663 116.095C228.352 116.428 225.922 113.1 224.771 111.083C224.615 110.811 224.461 110.534 224.305 110.255C223.052 108.014 221.755 105.697 219.533 104.811C217.317 103.93 214.862 104.748 212.486 105.542C211.781 105.777 211.054 106.02 210.341 106.215C207.993 106.859 205.314 106.526 203.672 105.386C202.664 104.685 202.059 103.701 201.926 102.538C201.901 102.313 202.059 102.109 202.277 102.083C202.503 102.053 202.696 102.219 202.722 102.443C202.828 103.375 203.299 104.137 204.12 104.708C205.558 105.705 208.029 106.001 210.132 105.424C210.826 105.235 211.543 104.995 212.237 104.764C214.748 103.927 217.341 103.06 219.825 104.049C222.311 105.039 223.678 107.484 225 109.85C225.155 110.126 225.309 110.4 225.463 110.671C226.519 112.519 228.724 115.572 231.584 115.28C232.407 115.197 233.178 114.843 233.992 114.468C234.773 114.111 235.579 113.741 236.457 113.611C239.822 113.115 242.499 116.167 244.645 118.622C245.697 119.825 249.333 123.572 252.429 121.784C252.618 121.672 252.864 121.741 252.976 121.939C253.085 122.136 253.017 122.386 252.824 122.499C252.109 122.907 251.383 123.079 250.666 123.079Z" fill="#428DFC"/>
<path d="M268.133 89.4905C255.289 115.869 242.135 137.89 220.749 163.841C213.804 158.49 209.077 159.492 197.742 159.706C197.238 163.736 194.168 167.064 190.142 167.033C183.078 166.98 180.619 160.419 180.619 160.419C172.849 160.832 165.644 159.327 157.836 162.418C154.884 151.157 121.522 111.356 109.918 93.0742C104.392 97.3793 97.7143 100.121 90.8142 100.917C102.876 131.369 135.685 200.496 137.731 206.94C138.854 221.89 138.48 264.054 139.978 282.07C145.077 295.096 153.462 307.369 176.314 309.357C201.731 311.569 223.211 305.26 235.141 284.18C236.933 264.958 238.322 224.193 238.574 220.436C238.949 214.828 239.479 208.611 240.664 205.889C257.169 167.983 270.836 139.335 284.501 100.261C279.442 96.9811 273.19 92.7741 268.133 89.4905Z" fill="#9500CB"/>
<path d="M268.133 89.4905C255.289 115.869 242.135 137.89 220.749 163.841C213.804 158.49 209.077 159.492 197.742 159.706C197.238 163.736 194.168 167.064 190.142 167.033C183.078 166.98 180.619 160.419 180.619 160.419C172.849 160.832 165.644 159.327 157.836 162.418C154.884 151.157 121.522 111.356 109.918 93.0742C104.392 97.3793 97.7143 100.121 90.8142 100.917C102.876 131.369 135.685 200.496 137.731 206.94C138.854 221.89 138.48 264.054 139.978 282.07C145.077 295.096 153.462 307.369 176.314 309.357C201.731 311.569 223.211 305.26 235.141 284.18C236.933 264.958 238.322 224.193 238.574 220.436C238.949 214.828 239.479 208.611 240.664 205.889C257.169 167.983 270.836 139.335 284.501 100.261C279.442 96.9811 273.19 92.7741 268.133 89.4905Z" fill="url(#paint5_linear_89:1269)" fill-opacity="0.45"/>
<g clip-path="url(#clip0_89:1269)">
<path d="M202.655 175.008L210.88 187.726L226.01 188.484L226.774 203.61L239.5 211.829L232.596 225.314L239.507 238.792L226.788 247.018L226.031 262.147L210.904 262.911L202.686 275.637L189.2 268.734L175.722 275.644L167.497 262.926L152.368 262.169L151.603 247.042L138.877 238.823L145.781 225.338L138.87 211.86L151.589 203.634L152.346 188.505L167.473 187.741L175.691 175.015L189.177 181.918L202.655 175.008Z" fill="#5C00C7"/>
<path d="M202.655 175.008L210.88 187.726L226.01 188.484L226.774 203.61L239.5 211.829L232.596 225.314L239.507 238.792L226.788 247.018L226.031 262.147L210.904 262.911L202.686 275.637L189.2 268.734L175.722 275.644L167.497 262.926L152.368 262.169L151.603 247.042L138.877 238.823L145.781 225.338L138.87 211.86L151.589 203.634L152.346 188.505L167.473 187.741L175.691 175.015L189.177 181.918L202.655 175.008Z" fill="url(#paint6_linear_89:1269)" fill-opacity="0.25"/>
<path d="M202.655 175.008L210.88 187.726L226.01 188.484L226.774 203.61L239.5 211.829L232.596 225.314L239.507 238.792L226.788 247.018L226.031 262.147L210.904 262.911L202.686 275.637L189.2 268.734L175.722 275.644L167.497 262.926L152.368 262.169L151.603 247.042L138.877 238.823L145.781 225.338L138.87 211.86L151.589 203.634L152.346 188.505L167.473 187.741L175.691 175.015L189.177 181.918L202.655 175.008Z" fill="url(#paint7_linear_89:1269)" fill-opacity="0.15"/>
<path d="M189.188 248.389C200.967 242.6 208.791 236.108 212.777 229.439C216.152 223.792 216.572 218.286 214.453 213.757C212.529 209.644 208.619 206.708 204.116 205.951C199.31 205.143 194.418 206.869 190.54 211.144L189.188 212.634L187.837 211.144C183.959 206.869 179.067 205.143 174.261 205.951C169.757 206.708 165.848 209.644 163.924 213.757C161.805 218.286 162.225 223.792 165.6 229.439C169.586 236.108 177.41 242.6 189.188 248.389Z" stroke="white" stroke-width="2.44032"/>
<path d="M187.875 232.12L184.809 233.793C184.496 233.964 184.108 233.839 183.943 233.514C183.878 233.384 183.855 233.236 183.879 233.092L184.465 229.547C184.602 228.717 184.337 227.871 183.756 227.283L181.275 224.773C181.021 224.516 181.016 224.095 181.263 223.832C181.362 223.728 181.49 223.66 181.63 223.638L185.058 223.121C185.861 223 186.555 222.477 186.914 221.722L188.447 218.498C188.604 218.168 188.988 218.033 189.306 218.195C189.432 218.26 189.535 218.366 189.597 218.498L191.13 221.722C191.489 222.477 192.183 223 192.986 223.121L196.414 223.638C196.765 223.691 197.007 224.029 196.956 224.392C196.936 224.537 196.871 224.671 196.77 224.773L194.288 227.283C193.708 227.871 193.443 228.717 193.58 229.547L194.165 233.092C194.225 233.454 193.991 233.797 193.642 233.859C193.503 233.884 193.36 233.861 193.235 233.793L190.17 232.12C189.451 231.728 188.593 231.728 187.875 232.12Z" fill="white"/>
</g>
<path d="M340.774 232.763C340.834 232.992 341.015 233.138 341.239 233.076C341.463 233.015 341.606 232.828 341.545 232.599C341.485 232.37 341.304 232.224 341.08 232.286C340.856 232.346 340.714 232.534 340.774 232.763ZM355.683 269.396C355.54 269.582 355.601 269.811 355.782 269.957C355.965 270.102 356.188 270.041 356.331 269.854C356.474 269.668 356.413 269.439 356.232 269.293C356.069 269.043 355.826 269.209 355.683 269.396ZM360.786 260.723C360.643 260.909 360.704 261.138 360.885 261.285C361.068 261.43 361.291 261.368 361.434 261.182C361.577 260.995 361.516 260.766 361.335 260.62C361.253 260.496 360.929 260.537 360.786 260.723ZM343.454 251.707C343.636 251.852 343.839 251.895 344.062 251.833C344.205 251.646 344.247 251.439 344.186 251.21C344.004 251.065 343.802 251.022 343.679 251.104C343.334 251.249 343.293 251.457 343.454 251.707ZM351.514 245.706C351.697 245.851 351.899 245.894 352.123 245.832C352.266 245.645 352.307 245.439 352.247 245.21C352.064 245.064 351.862 245.021 351.739 245.103C351.394 245.248 351.332 245.56 351.514 245.706ZM375.471 271.893C375.43 272.1 375.591 272.351 375.795 272.394C375.998 272.436 376.242 272.27 376.283 272.063C376.325 271.856 376.162 271.605 375.96 271.563C375.757 271.52 375.512 271.685 375.471 271.893ZM377.046 261.837C377.005 262.043 377.166 262.294 377.37 262.337C377.573 262.379 377.817 262.214 377.858 262.006C377.9 261.799 377.737 261.548 377.535 261.506C377.332 261.464 377.087 261.63 377.046 261.837ZM337.999 243.54C338.08 243.665 338.364 243.832 338.506 243.647C338.629 243.564 338.792 243.273 338.609 243.127C338.528 243.002 338.243 242.835 338.102 243.021C337.879 243.083 337.837 243.291 337.999 243.54ZM345.587 238.847C345.668 238.972 345.952 239.14 346.094 238.954C346.217 238.871 346.358 238.685 346.197 238.435C346.116 238.31 345.934 238.164 345.689 238.328C345.548 238.514 345.505 238.722 345.587 238.847ZM367.652 266.046C367.61 266.252 367.671 266.482 367.874 266.525C368.077 266.567 368.198 266.483 368.342 266.298C368.383 266.091 368.323 265.861 368.12 265.819C367.918 265.776 367.694 265.839 367.652 266.046ZM369.812 257.302C369.77 257.508 369.831 257.738 370.034 257.781C370.237 257.824 370.358 257.739 370.502 257.554C370.543 257.347 370.483 257.117 370.28 257.075C370.076 257.033 369.854 257.095 369.812 257.302ZM352.709 253.526C352.566 253.712 352.626 253.941 352.808 254.087C352.989 254.233 353.214 254.171 353.357 253.984C353.499 253.798 353.439 253.569 353.258 253.423C353.075 253.276 352.85 253.339 352.709 253.526ZM333.484 251.902C333.342 252.089 333.402 252.317 333.583 252.464C333.766 252.609 333.99 252.547 334.132 252.361C334.275 252.174 334.215 251.945 334.033 251.799C333.852 251.654 333.628 251.715 333.484 251.902ZM339.583 243.547C339.44 243.733 339.501 243.962 339.682 244.108C339.864 244.255 340.089 244.192 340.231 244.005C340.374 243.819 340.313 243.59 340.132 243.444C339.949 243.298 339.725 243.36 339.583 243.547ZM345.599 235.064C345.456 235.251 345.517 235.48 345.698 235.626C345.88 235.771 346.104 235.71 346.247 235.523C346.39 235.337 346.329 235.108 346.148 234.961C345.944 234.919 345.72 234.981 345.599 235.064ZM375.054 262.828C375.114 263.057 375.296 263.203 375.52 263.142C375.744 263.08 375.886 262.894 375.826 262.665C375.765 262.436 375.584 262.29 375.36 262.351C375.157 262.31 374.994 262.6 375.054 262.828ZM340.14 221.598C339.896 221.764 339.853 221.972 340.016 222.22L340.14 221.598ZM353.673 256.647C353.632 256.853 353.793 257.104 353.996 257.147C354.2 257.189 354.444 257.024 354.485 256.816C354.526 256.609 354.365 256.359 354.162 256.316C353.958 256.273 353.713 256.439 353.673 256.647ZM346.688 256.706C346.647 256.913 346.808 257.163 347.011 257.206C347.214 257.249 347.459 257.083 347.5 256.876C347.541 256.669 347.481 256.439 347.177 256.375C346.974 256.333 346.729 256.499 346.688 256.706ZM349.521 246.697C349.479 246.903 349.641 247.154 349.844 247.197C350.047 247.239 350.27 247.178 350.332 246.866C350.374 246.659 350.211 246.408 350.03 246.262C349.807 246.323 349.562 246.489 349.521 246.697ZM336.934 233.476C336.791 233.663 336.852 233.892 337.033 234.038C337.215 234.183 337.439 234.122 337.683 233.957C337.826 233.771 337.765 233.542 337.604 233.292C337.299 233.228 337.077 233.29 336.934 233.476ZM340.937 232.471C340.895 232.678 340.978 232.803 341.058 232.929C341.261 232.971 341.382 232.888 341.506 232.806C341.547 232.599 341.465 232.474 341.385 232.348C341.181 232.305 340.958 232.366 340.937 232.471Z" fill="white"/>
<path d="M185.721 96.1554C187.363 95.8091 190.206 96.4237 191.795 96.9691C192.678 97.273 196.81 98.8591 197.57 99.4111C201.333 102.146 202.867 104.62 205.236 108.671C206.554 110.925 206.636 113.441 207.228 115.997C207.88 118.82 207.451 122.003 206.324 124.667C206.095 122.906 205.855 121.117 205.15 119.493C204.096 117.065 202.074 115.195 199.848 113.822C197.623 112.45 195.173 111.516 192.788 110.461C190.781 109.576 188.812 108.6 186.888 107.541C184.863 106.427 182.705 104.975 182.184 102.686C181.351 103.15 180.435 103.437 179.566 103.826C177.69 104.665 176.054 105.963 174.438 107.249C171.194 109.832 171.385 108.773 167.899 115.183C167.477 115.96 167.937 107.369 169.08 106.205C169.586 105.692 174.299 100.672 174.769 100.124C176.084 98.5888 183.38 96.6498 185.721 96.1554Z" fill="#428DFC"/>
<path d="M77.8389 36.1552C77.923 35.1386 77.528 34.1662 77.2096 33.2005C76.8704 32.1704 76.6663 30.2689 76.5019 29.1945C75.7877 24.5182 74.0133 21.0383 70.3993 18.6386C67.3891 16.6399 63.0155 10.1765 62.1462 11.9058C61.327 14.2161 63.4491 16.3321 64.7766 18.3798C66.1041 20.4276 68.5323 25.6166 68.5796 26.1639C68.6476 26.9468 68.2073 27.6633 67.8634 28.3655C65.5041 33.1755 68.3717 40.0208 70.4437 40.999C73.5153 42.4494 74.3515 40.6796 76.8043 38.2953C77.4184 37.698 77.768 37.019 77.8389 36.1552Z" fill="#CC8F87"/>
</g>
<defs>
<linearGradient id="paint0_linear_89:1269" x1="333.051" y1="-5.51285" x2="34.8703" y2="57.5973" gradientUnits="userSpaceOnUse">
<stop stop-color="#4300D3"/>
<stop offset="1" stop-color="#4300D3" stop-opacity="0"/>
</linearGradient>
<linearGradient id="paint1_linear_89:1269" x1="63.5235" y1="49.1579" x2="338.823" y2="114.619" gradientUnits="userSpaceOnUse">
<stop stop-color="#FF0F13"/>
<stop offset="1" stop-color="#BF0020" stop-opacity="0"/>
</linearGradient>
<linearGradient id="paint2_linear_89:1269" x1="186.76" y1="91.0066" x2="186.76" y2="179.506" gradientUnits="userSpaceOnUse">
<stop stop-color="#C6006B" stop-opacity="0"/>
<stop offset="1" stop-color="#C6006B"/>
</linearGradient>
<linearGradient id="paint3_linear_89:1269" x1="31.3772" y1="61.9972" x2="111.711" y2="61.9972" gradientUnits="userSpaceOnUse">
<stop stop-color="#DC978E"/>
<stop offset="1" stop-color="#BE8780"/>
</linearGradient>
<linearGradient id="paint4_linear_89:1269" x1="338.417" y1="25.7888" x2="271.648" y2="91.9871" gradientUnits="userSpaceOnUse">
<stop stop-color="#DC978E"/>
<stop offset="1" stop-color="#BE8780"/>
</linearGradient>
<linearGradient id="paint5_linear_89:1269" x1="301.396" y1="39.9266" x2="57.0231" y2="86.2887" gradientUnits="userSpaceOnUse">
<stop stop-color="#4300D3"/>
<stop offset="1" stop-color="#4300D3" stop-opacity="0"/>
</linearGradient>
<linearGradient id="paint6_linear_89:1269" x1="248.285" y1="152.365" x2="122.595" y2="179.485" gradientUnits="userSpaceOnUse">
<stop stop-color="#4300D3"/>
<stop offset="1" stop-color="#4300D3" stop-opacity="0"/>
</linearGradient>
<linearGradient id="paint7_linear_89:1269" x1="134.481" y1="175.008" x2="250.479" y2="203.127" gradientUnits="userSpaceOnUse">
<stop stop-color="#FF0F13"/>
<stop offset="1" stop-color="#BF0020" stop-opacity="0"/>
</linearGradient>
<clipPath id="clip0_89:1269">
<rect width="102.034" height="102.034" fill="white" transform="translate(138.171 174.309)"/>
</clipPath>
</defs>
</svg>
