<svg width="256" height="362" viewBox="0 0 256 362" fill="none" xmlns="http://www.w3.org/2000/svg">
<g clip-path="url(#clip0_89:1096)">
<path d="M35.0925 110.361L0.998779 109.297L1.08401 105.316L1.14794 102.825L1.25448 97.9082L1.33972 94.4385L1.48888 88.6911L1.5528 85.3065L1.65935 80.6234L1.74458 77.4943L1.85112 72.7048L1.87243 71.4489L2.06421 63.5303L31.3635 64.0624L31.9176 70.8955L32.1733 74.0672L32.5142 78.4309L32.7912 81.9219L33.0469 84.9021L33.4518 90.0108L33.814 94.4598L34.1976 99.2067L34.432 102.08L34.6237 104.635L35.0925 110.361Z" fill="#FD8860"/>
<path opacity="0.62" d="M9.52222 66.7028V61.445L24.971 61.147L26.0364 67.0008L9.52222 66.7028Z" fill="#FFAD80"/>
<path d="M32.1732 74.0678C22.0729 73.5356 11.994 72.8119 1.85107 72.7055V71.4495C11.8482 70.7115 21.8786 70.5268 31.8961 70.8961L32.1732 74.0678Z" fill="#FFE7D4"/>
<path d="M32.7913 81.9226C22.3976 82.0864 12.0032 81.6529 1.65942 80.6241V77.4949C11.924 76.9343 22.2177 77.2476 32.429 78.4316L32.7913 81.9226Z" fill="#FFE7D4"/>
<path d="M33.4944 90.0112C22.8231 90.2242 12.1488 89.7834 1.53149 88.6914V85.3068C12.0012 84.3191 22.534 84.1838 33.0257 84.9024L33.4944 90.0112Z" fill="#FFE7D4"/>
<path d="M34.1974 99.2073C29.2325 99.2073 24.225 98.9518 19.2814 98.8028C13.2674 98.8459 7.25575 98.5474 1.27563 97.9088V94.4391C7.9009 93.9956 14.5466 93.9458 21.1778 94.2901C25.4395 94.2901 29.5734 94.2901 33.7499 94.4603L34.1974 99.2073Z" fill="#FFE7D4"/>
<path d="M34.6238 104.635C23.4909 105.926 12.2602 106.154 1.08398 105.316V102.826C12.1285 101.503 23.2753 101.254 34.368 102.081L34.6238 104.635Z" fill="#FFE7D4"/>
<path d="M49.6889 90.2878L48.4104 30.1957L137.374 26.3428L140.57 91.565L49.6889 90.2878Z" fill="#FFE7D4"/>
<path d="M56.7208 50.0134L56.4011 40.7324H66.9702L67.6095 49.6941L56.7208 50.0134Z" fill="#334682"/>
<path d="M56.7208 64.4035L56.4011 55.1226H66.9702L67.6095 64.0842L56.7208 64.4035Z" fill="#1F2D59"/>
<path d="M56.7208 78.7719L56.4011 69.5122H66.9702L67.6095 78.4526L56.7208 78.7719Z" fill="#101830"/>
<path d="M75.9198 50.0134L75.6215 40.7324H86.1692L86.8085 49.6941L75.9198 50.0134Z" fill="#FFAD80"/>
<path d="M75.9198 64.4035L75.6215 55.1226H86.1692L86.8085 64.0842L75.9198 64.4035Z" fill="#FD8860"/>
<path d="M75.9198 78.7719L75.6215 69.5122H86.1692L86.8085 78.4526L75.9198 78.7719Z" fill="#F46440"/>
<path d="M132.686 83.4549L126.485 83.2633H123.8L119.794 83.1356H118.004L99.1887 82.5396C99.1887 81.6668 96.2268 36.2837 96.2268 36.2837H107.883H113.615L131.194 36.4114L131.727 53.0788L132.643 81.5178L132.686 83.4549Z" fill="#FFAD80"/>
<path d="M132.622 81.4965C131.722 81.9931 130.772 82.3927 129.788 82.6886C128.716 83.019 127.606 83.2121 126.485 83.2633C125.593 83.3589 124.693 83.3589 123.8 83.2633C122.448 83.1024 121.127 82.7437 119.879 82.199C119.411 81.9861 118.963 81.7519 118.494 81.4965L119.752 81.2623L121.733 80.9218C121.01 80.8341 120.296 80.6772 119.602 80.4534C118.978 80.2939 118.372 80.0728 117.791 79.7936C115.787 78.9681 113.941 77.8013 112.336 76.3451C112.215 76.2628 112.107 76.1623 112.017 76.0471C109.025 73.46 107.097 69.8583 106.604 65.936C106.501 64.7177 106.624 63.491 106.966 62.3172C107.896 59.4699 109.846 57.0664 112.443 55.5694C113.328 55.0167 114.263 54.5464 115.234 54.1645C115.927 53.8631 116.639 53.6072 117.365 53.3981C118.477 53.045 119.609 52.7536 120.753 52.5254C124.151 51.5838 127.755 51.6952 131.088 52.8447C131.274 52.9199 131.452 53.0126 131.62 53.1214L132.622 81.4965Z" fill="#F46440"/>
<path d="M113.593 36.2626L115.191 53.2919H114.467C111.664 53.3159 108.864 53.1166 106.093 52.6959C105.157 52.6666 104.239 52.4366 103.401 52.0216C102.563 51.6065 101.824 51.0161 101.234 50.2905C99.7213 47.9702 101.042 44.7772 102.598 42.4783C104.138 40.1516 105.939 38.0089 107.968 36.0923L113.593 36.2626Z" fill="#243466"/>
<path d="M116.087 63.5735L117.429 77.8994C116.435 77.1885 115.29 76.7151 114.084 76.5157C113.506 76.4177 112.922 76.3608 112.336 76.3454C111.153 76.3353 109.972 76.2499 108.799 76.09C107.889 75.9726 107.033 75.5945 106.333 75.0015C105.634 74.4084 105.121 73.6258 104.857 72.748C104.719 71.7621 104.807 70.7578 105.113 69.8104C105.438 68.4593 105.939 67.1568 106.604 65.9363C107.271 64.5369 108.443 63.4417 109.886 62.871C111.976 62.4612 114.142 62.7066 116.087 63.5735Z" fill="#243466"/>
<path d="M117.685 79.709L117.493 77.8145C118.246 78.3708 118.853 79.1012 119.261 79.9431C119.366 80.1077 119.445 80.2871 119.496 80.4753C119.587 80.7393 119.658 81.0097 119.709 81.2842C119.783 81.5913 119.826 81.9051 119.837 82.2208C119.868 82.5322 119.868 82.846 119.837 83.1574H118.047L117.685 79.709Z" fill="#243466"/>
<path d="M125.313 60.3375C125.049 61.2312 124.547 62.0362 123.86 62.6662C123.173 63.2962 122.327 63.7275 121.413 63.9137C119.652 64.2295 117.838 64.0828 116.15 63.4879L115.277 54.1005V53.3342C116.022 53.3342 116.79 53.3342 117.535 53.3342C118.993 53.3247 120.439 53.592 121.797 54.1218C122.992 54.6194 123.986 55.5009 124.623 56.6267C125.26 57.7525 125.503 59.0584 125.313 60.3375Z" fill="#243466"/>
<path d="M121.477 71.7686C121.84 71.7686 122.031 71.3429 122.266 71.0662L122.543 70.7043L122.671 70.534C122.671 70.534 122.671 70.534 122.798 70.3637C122.807 70.293 122.807 70.2216 122.798 70.1509L122.926 69.9806L123.182 69.5974L123.438 69.2143L123.629 68.7247C123.647 68.6634 123.645 68.5985 123.625 68.5382C123.605 68.4778 123.567 68.4248 123.517 68.386C123.467 68.3471 123.406 68.3241 123.342 68.32C123.279 68.3159 123.216 68.3308 123.161 68.3628L122.777 68.6395C122.653 68.7496 122.539 68.8707 122.436 69.0014L122.138 69.342L121.989 69.5123C121.906 69.5773 121.827 69.6485 121.754 69.7251L121.626 69.8954L121.286 70.3424L121.009 70.7043C120.876 70.8755 120.802 71.0841 120.795 71.3003C120.796 71.3752 120.814 71.4488 120.848 71.5157C120.881 71.5826 120.93 71.6408 120.989 71.6861C121.049 71.7313 121.118 71.7622 121.192 71.7766C121.265 71.7909 121.341 71.7882 121.413 71.7686H121.477Z" fill="#101830"/>
<path d="M126.613 71.0235C126.805 70.8106 127.039 70.619 127.231 70.4062L127.849 69.7676L128.147 69.4483C128.27 69.3428 128.377 69.2211 128.467 69.0864V68.9374L128.616 68.7671C128.713 68.6479 128.799 68.5196 128.872 68.384C128.901 68.3438 128.917 68.2954 128.917 68.2456C128.917 68.1958 128.901 68.1474 128.872 68.1072C128.834 68.0825 128.789 68.0693 128.744 68.0693C128.699 68.0693 128.654 68.0825 128.616 68.1072C128.546 68.0923 128.473 68.0923 128.403 68.1072L128.233 68.235C128.128 68.3249 128.013 68.4034 127.892 68.4691C127.743 68.5568 127.607 68.6642 127.487 68.7884L127.167 69.1077L126.549 69.725C126.336 69.9379 126.144 70.1933 125.953 70.4062C125.904 70.4428 125.863 70.4894 125.834 70.543C125.805 70.5965 125.787 70.6557 125.783 70.7166C125.779 70.7774 125.788 70.8385 125.809 70.8956C125.83 70.9528 125.864 71.0047 125.907 71.0478C125.95 71.0909 126.002 71.1243 126.059 71.1456C126.116 71.167 126.177 71.1758 126.238 71.1714C126.299 71.1671 126.359 71.1498 126.412 71.1206C126.466 71.0914 126.512 71.051 126.549 71.0022L126.613 71.0235Z" fill="#101830"/>
<path d="M122.628 76.0682C122.71 76.124 122.806 76.1539 122.905 76.1539C123.004 76.1539 123.101 76.124 123.182 76.0682L123.331 75.9617L123.48 75.7701L123.63 75.5786V75.4508L123.757 75.238C123.799 75.148 123.821 75.0499 123.821 74.9506C123.821 74.8513 123.799 74.7532 123.757 74.6632C123.678 74.5337 123.55 74.4409 123.403 74.405C123.255 74.3691 123.099 74.393 122.969 74.4717C122.895 74.5166 122.831 74.5742 122.777 74.6419L122.607 74.8761L122.458 75.1102V75.2167C122.383 75.3359 122.326 75.4648 122.287 75.5999C122.266 75.6467 122.255 75.6975 122.255 75.7489C122.255 75.8002 122.266 75.851 122.287 75.8979C122.308 75.9858 122.352 76.0667 122.415 76.132H122.522L122.628 76.0682Z" fill="#101830"/>
<path d="M126.123 78.6229L126.592 78.2823L126.741 78.1333C126.844 78.0181 126.918 77.8792 126.954 77.7288L127.082 77.516L127.21 77.2818C127.231 77.2314 127.243 77.177 127.243 77.1222C127.243 77.0673 127.231 77.0129 127.21 76.9625C127.18 76.8794 127.129 76.8059 127.061 76.7496C126.985 76.6892 126.891 76.6562 126.794 76.6562C126.697 76.6562 126.603 76.6892 126.528 76.7496L126.144 77.0902H126.272H126.038C125.957 77.1425 125.885 77.2072 125.825 77.2818L125.59 77.4734H125.441C125.317 77.5516 125.226 77.6729 125.186 77.814C125.132 77.9581 125.132 78.1169 125.186 78.261C125.27 78.3793 125.389 78.4686 125.526 78.5164C125.664 78.5688 125.815 78.5688 125.953 78.5164L126.123 78.6229Z" fill="#101830"/>
<path d="M129.212 74.3234C129.271 74.2908 129.328 74.2553 129.383 74.217L129.532 74.068L129.809 73.77L130.086 73.4507L130.256 73.2591C130.33 73.1438 130.374 73.0122 130.384 72.8759C130.382 72.805 130.363 72.7356 130.33 72.6729C130.297 72.6102 130.25 72.5559 130.193 72.514C130.063 72.4608 129.917 72.4608 129.788 72.514C129.675 72.5379 129.566 72.5811 129.468 72.6418C129.4 72.7029 129.342 72.7748 129.298 72.8546C129.195 72.9434 129.102 73.0433 129.021 73.1526L128.765 73.4719C128.683 73.5471 128.611 73.633 128.552 73.7274C128.548 73.7841 128.548 73.841 128.552 73.8977C128.484 73.9865 128.448 74.0949 128.448 74.2063C128.448 74.3178 128.484 74.4262 128.552 74.515L128.765 74.6427C128.826 74.6685 128.891 74.6817 128.957 74.6817C129.023 74.6817 129.088 74.6685 129.148 74.6427L129.212 74.3234Z" fill="#101830"/>
<path d="M118.579 75.9837L118.686 75.8347L118.963 75.4941C119.078 75.3348 119.206 75.1853 119.346 75.0471L119.56 74.8555C119.614 74.7927 119.658 74.7206 119.687 74.6426C119.714 74.5897 119.727 74.5315 119.727 74.4724C119.727 74.4133 119.714 74.355 119.687 74.3021C119.659 74.2483 119.616 74.2036 119.563 74.1735C119.51 74.1433 119.45 74.1288 119.389 74.1318C119.263 74.0974 119.131 74.0974 119.005 74.1318L118.728 74.3446C118.728 74.4511 118.494 74.5575 118.388 74.6852C118.264 74.8291 118.157 74.9862 118.068 75.1535C117.984 75.3256 117.913 75.5034 117.855 75.6857C117.837 75.7703 117.848 75.8583 117.887 75.9356C117.926 76.0129 117.99 76.0749 118.068 76.1114C118.148 76.1441 118.237 76.147 118.319 76.1196C118.401 76.0923 118.471 76.0366 118.515 75.9624L118.579 75.9837Z" fill="#101830"/>
<path d="M121.477 81.8588C121.754 81.6246 122.053 81.3692 122.308 81.1137L122.692 80.7093C122.747 80.642 122.797 80.5708 122.841 80.4964V80.39C122.851 80.3194 122.851 80.2478 122.841 80.1771C122.884 80.0602 122.884 79.9322 122.841 79.8153C122.801 79.7701 122.752 79.7336 122.697 79.708C122.642 79.6824 122.582 79.6682 122.522 79.6662C122.409 79.649 122.294 79.649 122.181 79.6662H122.031H121.882L121.733 79.794L121.563 79.9217L121.179 80.241L120.476 80.9009C120.419 80.9564 120.374 81.0226 120.343 81.0957C120.313 81.1688 120.297 81.2473 120.297 81.3266C120.297 81.4059 120.313 81.4844 120.343 81.5575C120.374 81.6306 120.419 81.6969 120.476 81.7523C120.594 81.8631 120.751 81.9247 120.913 81.9247C121.075 81.9247 121.231 81.8631 121.35 81.7523L121.477 81.8588Z" fill="#101830"/>
<path d="M113.615 81.454C113.802 81.342 113.968 81.1979 114.105 81.0283L114.467 80.6025L114.829 80.2194L115.021 80.0065C115.118 79.9062 115.184 79.7808 115.213 79.6447V79.4744C115.215 79.4069 115.204 79.3396 115.178 79.2771C115.152 79.2146 115.113 79.1585 115.064 79.1125C115.021 79.0661 114.968 79.0304 114.908 79.0082C114.849 78.986 114.786 78.978 114.723 78.9848C114.555 78.9894 114.394 79.0579 114.275 79.1763L114.062 79.3466L113.657 79.7298C113.504 79.8829 113.362 80.0465 113.231 80.2194L113.061 80.4323V80.56C113.049 80.6376 113.049 80.7165 113.061 80.7941C113.042 80.8671 113.039 80.9432 113.052 81.0175C113.065 81.0917 113.093 81.1624 113.136 81.2247C113.178 81.2871 113.233 81.3398 113.297 81.3793C113.361 81.4189 113.433 81.4443 113.508 81.454C113.621 81.4744 113.736 81.4744 113.849 81.454H113.615Z" fill="#101830"/>
<path d="M197.038 142.589C191.204 140.367 185.233 138.525 179.16 137.076C175.9 153.382 154.634 168.389 122.479 159.385C119.73 158.107 117.749 165.983 117.749 165.983C117.749 165.983 164.628 189.718 189.409 158.32C193.129 153.713 196.191 148.612 198.508 143.164C198.018 142.973 197.571 142.76 197.038 142.589Z" fill="#5E2F26"/>
<path d="M193.309 95.7803C183.976 96.8873 180.971 135.735 172.832 149.678C173.002 148.933 192.009 157.299 190.859 159.278C190.859 159.278 204.24 147.464 205.775 137.587C205.625 137.587 196.505 95.7165 193.309 95.7803Z" fill="#1F2D59"/>
<path d="M195.887 85.5415C196.164 86.3291 194.289 104.955 194.289 104.955L212.146 101.23L208.14 77.8145" fill="#6D392F"/>
<path d="M191.647 105.231L198.53 95.2904C198.53 95.2904 208.822 90.8628 212.551 92.7999C216.28 94.737 204.027 122.431 204.027 122.431L193.906 127.05L189.836 116.045L191.647 105.231Z" fill="#FD8860"/>
<path d="M70.2305 314.756C70.2305 314.756 62.3677 322.248 62.8152 322.248C63.2626 322.248 74.4284 323.632 74.4284 323.632L81.9076 319.055L80.3734 313.095" fill="#6D392F"/>
<path d="M194.801 215.581L141.849 247.128C136.266 250.449 129.959 255.047 130.193 261.539C130.527 264.039 131.2 266.481 132.196 268.798C135.094 277.674 133.262 287.466 129.788 296.13C126.315 304.794 121.265 312.733 117.429 321.248C114.66 327.404 112.518 333.822 111.037 340.406C110.913 341.554 110.445 342.637 109.694 343.514C108.642 344.306 107.345 344.705 106.029 344.642C102.641 344.855 87.4693 346.877 90.9639 344.961C101.618 340.704 104.047 309.924 105.241 292C106.434 274.077 105.688 256.452 108.117 238.784C109.012 232.398 110.504 225.586 115.064 220.946C118.058 218.163 121.569 215.993 125.399 214.56C134.438 210.638 143.753 207.386 153.27 204.832" fill="#5E2F26"/>
<path d="M48.1336 332.466C53.0772 328.209 58.6175 324.675 63.6463 320.503L64.3494 319.886C67.3066 320.718 70.4218 320.821 73.4278 320.187C76.4338 319.553 79.2412 318.201 81.6094 316.246C82.1848 318.374 82.7388 320.333 83.3141 322.397C83.4524 322.779 83.4963 323.188 83.442 323.589C83.2659 324.048 82.9536 324.442 82.547 324.718C72.141 333.279 59.0788 337.96 45.5979 337.958C44.8094 336.042 46.5141 333.914 48.1336 332.466Z" fill="#243466"/>
<path d="M98.4004 334.063C97.548 333.424 102.939 318.63 105.07 279.25C106.298 256.164 108.724 233.158 112.336 210.324L149.903 207.939L176.795 235.335L162.688 234.803C162.688 234.803 135.52 252.109 132.579 257.154C129.639 262.199 137.906 273.651 140.037 288.552C142.168 303.453 145.642 336.447 145.642 336.447C145.642 336.447 121.84 351.348 98.4004 334.063Z" fill="#E35430"/>
<path d="M121.414 332.828C131.429 258.751 108.629 230.546 117.493 224.948C133.73 228.886 149.136 231.525 165.288 235.591L168.847 236.421C186.363 240.189 206.094 239.508 220.265 228.566C235.415 216.816 240.678 195.721 238.569 176.627L234.307 167.687L234.009 167.069C224.33 165.921 214.572 165.579 204.837 166.048C201.833 166.175 198.828 166.409 195.845 166.707C195.083 166.72 194.342 166.957 193.714 167.389C193.24 167.858 192.901 168.446 192.734 169.092L186.64 185.206C176.766 184.365 166.841 184.301 156.957 185.014C139.945 186.188 123.164 189.609 107.052 195.189C104.193 196.002 101.507 197.329 99.1252 199.106C95.0765 202.405 93.308 207.62 91.9655 212.665C85.3599 237.23 78.8181 308.881 70.3372 314.841C70.1668 315.586 119.134 334.787 121.414 332.828Z" fill="#F46440"/>
<path d="M71.8501 353.625C78.5836 349.623 86.0203 346.536 92.349 342.023C95.2707 343.277 98.4173 343.923 101.597 343.923C104.777 343.923 107.923 343.277 110.845 342.023C110.845 346.281 110.845 350.538 110.845 354.923C97.392 355.25 83.9392 355.633 70.4863 356.073C69.9749 355.2 70.9978 354.157 71.8501 353.625Z" fill="#243466"/>
<path d="M219.007 243.53C199.446 269.968 191.626 302.92 176.923 331.976C172.752 340.329 167.898 348.325 162.412 355.881C160.813 358.01 164.542 360.138 166.034 358.01C185.468 331.316 194.119 299.088 207.991 269.521C211.954 261.007 216.237 252.747 221.01 244.722C221.799 243.424 219.881 242.381 219.007 243.551V243.53Z" fill="#6199BA"/>
<path d="M158.001 244.978C161.559 254.642 166.716 263.817 171.233 273.076C175.751 282.336 180.226 291.809 184.551 301.238C188.877 310.668 193.075 320.141 197.081 329.677C199.126 334.517 201.144 339.356 203.132 344.195C204.155 346.707 205.157 349.219 206.158 351.73C206.779 354.003 207.843 356.13 209.291 357.989C209.523 358.205 209.813 358.349 210.126 358.406C210.439 358.462 210.761 358.428 211.055 358.307C211.348 358.186 211.601 357.983 211.783 357.723C211.965 357.463 212.069 357.156 212.082 356.839C211.868 354.328 211.143 351.887 209.951 349.666C208.95 347.154 207.927 344.642 206.904 342.13C205.029 337.575 203.111 333.041 201.193 328.507C197.145 318.97 192.961 309.498 188.643 300.089C184.324 290.68 179.856 281.307 175.239 271.969C170.594 262.582 166.119 252.811 160.046 244.148C159.407 243.232 157.638 243.743 158.086 244.978H158.001Z" fill="#6199BA"/>
<path d="M158.384 238.976L223.631 239.678L224.1 250.151L158.043 254.408L158.384 238.976Z" fill="#101830"/>
<path d="M201.683 175.988C199.552 175.285 197.422 174.54 195.291 173.71C194.382 173.451 193.573 172.924 192.968 172.199C192.613 171.579 192.402 170.888 192.35 170.177L189.282 149.103C187.151 134.373 185.148 118.578 191.732 105.231C191.367 107.609 191.579 110.04 192.35 112.32C192.769 113.444 193.532 114.409 194.53 115.078C195.528 115.746 196.711 116.084 197.912 116.045C200.81 115.662 202.408 112.575 203.516 109.872L210.292 93.6087L211.975 92.4805C240.465 96.7378 243.81 159.533 238.334 172.901C226.559 176.932 213.968 177.992 201.683 175.988Z" fill="#243466"/>
<path d="M214.724 99.7602C215.823 98.9263 217.121 98.395 218.49 98.2194C219.858 98.0439 221.249 98.2302 222.523 98.7597C225.032 99.9489 227.152 101.824 228.639 104.167C232.185 109.81 234.508 116.133 235.457 122.728C238.228 137.354 238.674 152.325 236.778 167.09C236.331 170.581 235.585 174.37 232.943 176.69C231.176 178.093 229.049 178.971 226.806 179.223C219.135 180.522 211.357 178.542 203.835 176.605C195.951 174.561 188.074 172.504 180.204 170.432C177.117 169.885 174.237 168.509 171.872 166.451C169.742 164.174 169.23 160.065 171.681 158.128C183.505 159.388 195.402 159.829 207.287 159.448C207.971 159.535 208.666 159.444 209.304 159.185C209.943 158.925 210.503 158.505 210.932 157.966C211.36 157.427 211.643 156.786 211.751 156.106C211.859 155.426 211.789 154.729 211.549 154.084C211.293 142.333 211.059 130.668 210.782 118.833C210.697 111.872 210.356 103.187 214.724 99.7602Z" fill="#6D392F"/>
<path d="M192.968 43.2654C198.764 45.394 205.178 44.8619 211.272 45.2238C214.362 45.4153 217.537 45.6921 220.69 45.9262C221.204 47.1465 221.617 48.4066 221.926 49.694C224.057 58.8472 221.415 68.5965 216.599 76.6641C209.972 85.1788 204.624 89.0316 195.44 89.7767C175.239 89.3297 176.475 67.8514 176.113 54.079C175.75 40.3065 179.565 42.2862 179.565 42.2862C183.977 43.1499 188.477 43.4787 192.968 43.2654Z" fill="#6D392F"/>
<path d="M177.221 59.8693L177.86 59.6777L178.308 59.4436C178.521 59.4436 178.159 59.4436 178.308 59.4436H178.457C178.685 59.3644 178.921 59.3074 179.16 59.2733H181.057L181.675 59.4862C181.904 59.6288 182.156 59.7297 182.42 59.7842C182.522 59.7842 182.62 59.7438 182.692 59.672C182.764 59.6001 182.804 59.5026 182.804 59.401C182.804 58.8263 182.079 58.358 181.611 58.06C181.063 57.6854 180.42 57.4716 179.757 57.4427C179.138 57.3923 178.516 57.4947 177.946 57.7407C177.59 57.8585 177.258 58.0387 176.965 58.2728C176.723 58.5273 176.529 58.8229 176.39 59.1456C176.22 59.5713 176.752 60.0396 177.157 59.8906L177.221 59.8693Z" fill="#101830"/>
<path d="M191.327 59.4864C192.813 58.8758 194.376 58.4746 195.973 58.2943C196.649 58.2812 197.321 58.3968 197.954 58.6349C198.256 58.7627 198.548 58.9121 198.828 59.0819C199.152 59.3269 199.511 59.5208 199.894 59.6567C200.057 59.6945 200.228 59.6898 200.389 59.6429C200.55 59.596 200.696 59.5085 200.814 59.3889C200.932 59.2692 201.017 59.1214 201.061 58.9596C201.105 58.7977 201.106 58.6273 201.065 58.4646C200.895 57.4854 199.659 56.8681 198.935 56.5276C198.066 56.1863 197.14 56.013 196.207 56.0167C194.155 56.0559 192.195 56.8785 190.731 58.3156C190.618 58.4262 190.547 58.5713 190.527 58.7275C190.507 58.8838 190.54 59.0422 190.621 59.1772C190.703 59.3123 190.827 59.4162 190.974 59.4723C191.122 59.5283 191.283 59.5333 191.434 59.4864H191.327Z" fill="#101830"/>
<path d="M184.785 79.2401C185.949 80.004 187.325 80.3786 188.715 80.3097C190.106 80.2409 191.438 79.7321 192.52 78.8569C191.853 80.7195 190.733 82.3872 189.26 83.7103C188.89 83.988 188.454 84.1654 187.995 84.2251C187.535 84.2847 187.068 84.2247 186.639 84.0509C186.35 83.9283 186.088 83.7471 185.872 83.5187C185.473 82.9908 185.195 82.3813 185.058 81.7336C184.922 81.0859 184.931 80.4162 185.084 79.7723" fill="white"/>
<path d="M183.677 58.4644C183.848 59.7416 184.423 60.9549 184.615 62.2321C184.774 63.5685 184.774 64.9189 184.615 66.2553C184.402 68.3839 184.146 71.5982 182.356 73.1947C182.259 73.298 182.186 73.4215 182.142 73.5563C182.099 73.6911 182.086 73.8339 182.104 73.9744C182.122 74.1149 182.172 74.2496 182.248 74.3688C182.325 74.4879 182.428 74.5886 182.548 74.6635C184.788 75.8649 187.216 76.6782 189.729 77.0689C190.901 77.2392 191.135 75.3021 190.006 74.9402C187.773 74.4945 185.589 73.8315 183.485 72.9606L183.677 74.4293C185.808 72.4497 186 69.1503 186.213 66.4681C186.337 64.9857 186.302 63.4941 186.106 62.0192C186.053 60.4676 185.5 58.9746 184.53 57.7619C184.444 57.6844 184.336 57.6357 184.221 57.6227C184.105 57.6096 183.989 57.6329 183.888 57.6893C183.787 57.7457 183.706 57.8323 183.657 57.9369C183.608 58.0416 183.592 58.159 183.613 58.2728L183.677 58.4644Z" fill="#57261D"/>
<path d="M194.182 69.4484C194.419 69.4652 194.656 69.4135 194.864 69.2994C195.087 69.2382 195.288 69.1123 195.439 68.9375C195.605 68.7741 195.736 68.5785 195.823 68.3628C195.928 68.1437 195.979 67.9029 195.972 67.6603V67.192C195.888 66.8928 195.726 66.6212 195.503 66.4044L195.141 66.1277C194.867 65.9762 194.559 65.8957 194.246 65.8935C194.009 65.879 193.773 65.9306 193.564 66.0425C193.341 66.1037 193.141 66.2296 192.989 66.4044C192.823 66.5678 192.693 66.7634 192.605 66.9791C192.503 67.1915 192.452 67.4247 192.456 67.6603V68.1499C192.54 68.4491 192.702 68.7207 192.925 68.9375L193.287 69.2142C193.561 69.3657 193.869 69.4462 194.182 69.4484Z" fill="#101830"/>
<path d="M180.204 68.9162C180.426 68.9201 180.646 68.8689 180.844 68.7672C181.048 68.6942 181.232 68.5757 181.384 68.4208C181.535 68.2659 181.649 68.0786 181.717 67.8731C181.832 67.6807 181.884 67.4577 181.866 67.2345V66.7875C181.801 66.5085 181.653 66.256 181.44 66.0638L181.099 65.787C180.846 65.6427 180.559 65.5692 180.268 65.5742C180.04 65.5526 179.811 65.5969 179.608 65.7019C179.402 65.7743 179.218 65.899 179.075 66.0638C178.911 66.2035 178.792 66.3887 178.734 66.5959C178.629 66.7922 178.578 67.0123 178.585 67.2345V67.6816C178.663 67.9615 178.809 68.2175 179.011 68.4266L179.352 68.682C179.609 68.8365 179.904 68.9175 180.204 68.9162Z" fill="#101830"/>
<path d="M150.692 154.446C150.692 155.255 154.677 167.75 140.57 169.624C126.464 171.497 129.383 154.723 129.383 154.723L150.692 154.446Z" fill="#101830"/>
<path d="M149.264 157.234C150.415 157.402 151.575 157.495 152.737 157.511C153.889 157.633 155.025 157.876 156.125 158.235C156.789 158.407 157.384 158.778 157.83 159.299C158.025 159.647 158.141 160.033 158.171 160.43C158.2 160.827 158.142 161.226 158.001 161.598C157.447 163.471 155.593 164.004 153.867 164.323C152.726 164.507 151.568 164.564 150.415 164.493C149.2 164.493 147.964 164.025 146.75 164.025C146.486 164.034 146.231 164.127 146.024 164.291C145.817 164.455 145.668 164.681 145.599 164.936C145.53 165.191 145.544 165.461 145.64 165.707C145.736 165.953 145.908 166.162 146.132 166.303C147.263 166.79 148.479 167.051 149.711 167.069C150.853 167.175 152.001 167.175 153.142 167.069C155.28 167.006 157.341 166.26 159.023 164.94C159.786 164.235 160.354 163.346 160.671 162.357C160.988 161.369 161.045 160.316 160.835 159.299C160.557 158.391 160.034 157.577 159.323 156.947C158.613 156.316 157.742 155.892 156.807 155.723C155.523 155.37 154.198 155.183 152.865 155.17C151.563 155.056 150.255 155.315 149.094 155.915C148.976 155.985 148.882 156.089 148.823 156.212C148.763 156.335 148.741 156.473 148.76 156.609C148.778 156.745 148.835 156.872 148.925 156.976C149.014 157.079 149.132 157.154 149.264 157.192V157.234Z" fill="#101830"/>
<path d="M173.3 159.81C171.549 157 169.395 154.461 166.907 152.275C164.807 152.855 162.672 153.303 160.515 153.616C159.531 153.79 158.522 153.764 157.549 153.541C156.575 153.318 155.656 152.902 154.847 152.317C154.71 153.331 154.942 154.359 155.502 155.215C156.061 156.071 156.91 156.697 157.894 156.979C158.765 157.231 159.674 157.325 160.579 157.256C158.505 157.649 156.456 158.16 154.442 158.789C154.139 158.869 153.861 159.022 153.632 159.236C153.142 159.768 153.632 160.704 154.165 161.066C154.844 161.328 155.584 161.388 156.296 161.237C155.933 161.982 154.868 162.194 154.506 162.961C154.353 163.37 154.368 163.823 154.548 164.222C154.727 164.62 155.057 164.932 155.465 165.089C156.269 165.351 157.128 165.403 157.958 165.238C157.7 165.665 157.536 166.141 157.476 166.635C157.417 167.129 157.463 167.63 157.612 168.105C157.761 168.581 158.01 169.018 158.341 169.39C158.673 169.762 159.08 170.059 159.535 170.262C161.443 170.985 163.542 171.031 165.48 170.39C168.977 169.557 172.361 168.306 175.559 166.665L173.3 159.81Z" fill="#6D392F"/>
<path d="M210.803 103.763C210.803 104.997 209.482 150.466 209.482 150.466L239.314 152.318C239.314 152.318 238.249 101.911 220.669 97.2703C206.818 96.0357 210.803 103.763 210.803 103.763Z" fill="#243466"/>
<path d="M193.223 93.779L210.803 90.3306L212.678 93.779V113.469L204.688 124.389L192.968 125.454L187.108 120.919L189.771 105.763L193.223 93.779Z" fill="#243466"/>
<path d="M202.941 45.4799C204.091 44.3729 206.201 45.4799 206.542 47.0338C206.612 47.8316 206.512 48.6353 206.247 49.3914C205.983 50.1475 205.56 50.8386 205.007 51.4188C203.899 52.5715 203.017 53.9218 202.408 55.3994C202.366 55.5887 202.366 55.7849 202.408 55.9742C202.408 56.3147 202.834 56.5063 203.154 56.6766L208.225 59.4226C208.463 59.5128 208.66 59.6869 208.779 59.9122C208.821 60.1964 208.752 60.4857 208.587 60.7211C207.551 62.6534 206.954 64.7903 206.84 66.9793C206.802 67.221 206.813 67.4677 206.872 67.7052C206.93 67.9427 207.035 68.1663 207.181 68.363C207.82 69.0229 209.013 68.363 209.312 67.5328C209.61 66.7026 209.695 65.7022 210.143 64.872C210.498 64.3139 211.023 63.8845 211.64 63.6469C212.258 63.4093 212.936 63.3761 213.573 63.5522C214.21 63.746 214.795 64.0799 215.286 64.5293C215.776 64.9787 216.159 65.5323 216.408 66.1492C216.777 66.989 216.94 67.9048 216.884 68.8204C216.828 69.7361 216.555 70.6252 216.086 71.414C215.617 72.2028 214.967 72.8685 214.189 73.356C213.411 73.8434 212.528 74.1385 211.613 74.2168C211.287 74.201 210.963 74.2746 210.676 74.4297C210.415 74.661 210.229 74.9649 210.143 75.3024C208.961 78.8601 208.661 82.6512 209.269 86.3502C211.123 82.0928 216.429 80.4964 220.286 77.8355C222.847 75.97 224.865 73.4562 226.131 70.5528C227.397 67.6494 227.865 64.4614 227.488 61.3171C227.296 60.4764 227.296 59.6034 227.488 58.7627C227.761 58.1374 228.18 57.5867 228.71 57.1569C229.24 56.7272 229.866 56.4311 230.535 56.2935C231.868 56.0041 233.143 55.4932 234.307 54.7821C234.922 54.2783 235.384 53.6125 235.64 52.8601C235.896 52.1078 235.936 51.2988 235.756 50.5248C235.545 49.7632 235.127 49.0751 234.547 48.5375C233.968 47.9999 233.25 47.634 232.474 47.4808C231.904 47.4702 231.343 47.332 230.833 47.0763C229.683 46.2887 230.407 44.4581 231.43 43.5215C232.453 42.5849 233.838 41.6908 233.838 40.2859C233.838 38.4978 231.494 37.6889 229.704 37.9231C228.319 38.1147 226.721 38.583 225.677 37.6464C224.633 36.7098 225.037 34.4747 224.462 32.8994C224.286 32.4826 224.024 32.1076 223.693 31.7989C223.362 31.4903 222.969 31.2549 222.541 31.1082C222.112 30.9615 221.658 30.9069 221.207 30.9478C220.756 30.9886 220.318 31.1242 219.923 31.3455C219.664 31.5366 219.385 31.7006 219.092 31.8351C217.878 32.3247 216.727 31.0901 215.896 30.0896C213.893 27.7268 210.59 25.8323 207.756 27.1095C206.123 28.0727 204.719 29.3803 203.644 30.9411C203.086 31.7007 202.337 32.2984 201.472 32.6725C200.606 33.0466 199.657 33.1838 198.721 33.0697" fill="#101830"/>
<path d="M115.745 164.387C115.101 164.803 114.561 165.362 114.168 166.02C113.775 166.678 113.54 167.419 113.48 168.183C113.42 168.947 113.538 169.715 113.823 170.426C114.109 171.137 114.556 171.773 115.128 172.284C116.598 172.05 115.532 168.751 116.363 167.516C117.45 165.238 121.712 167.197 125.292 165.92C126.229 165.6 123.949 160.023 123.949 160.023L112.677 155.106C112.32 154.909 111.906 154.841 111.505 154.914C111.227 155.047 110.992 155.253 110.823 155.51C109.055 157.741 107.553 160.17 106.348 162.748" fill="#5E2F26"/>
<path d="M112.145 160.449C111.032 162.116 110.367 164.041 110.214 166.039C110.061 168.037 110.425 170.041 111.271 171.858C111.655 172.689 112.976 173.434 113.274 172.561C113.274 172.561 112.464 164.962 116.108 165.153C119.752 165.345 115.533 161.513 115.533 161.513L112.145 160.449Z" fill="#5E2F26"/>
<path d="M107.478 162.066C106.636 163.773 106.487 165.738 107.063 167.552C107.639 169.365 108.895 170.886 110.568 171.794C110.568 171.794 111.846 172.603 111.761 170.858C112.221 167.963 112.934 165.114 113.892 162.343L112.976 160.023H109.929L107.478 162.066Z" fill="#5E2F26"/>
<path d="M109.524 162.662C104.921 163.897 104.239 169.878 103.131 169.325C102.023 168.771 103.003 163.684 104.559 161.342C105.879 158.805 107.967 156.749 110.525 155.467C111.207 155.233 112.315 156.468 112.443 156.83C111.594 158.834 110.619 160.782 109.524 162.662Z" fill="#5E2F26"/>
<path d="M203.069 45.288C202.557 47.1399 199.361 47.1825 197.315 46.3949C195.27 45.6072 193.053 44.2662 190.923 45.0538C189.346 45.586 188.302 47.1825 186.661 47.1825C185.02 47.1825 183.571 45.0538 181.653 44.5216C180.673 44.3615 179.672 44.3615 178.692 44.5216C176.251 44.7419 173.799 44.257 171.627 43.1249C169.455 41.9928 167.654 40.261 166.439 38.1356C165.885 37.0879 165.608 35.9163 165.634 34.7317C165.66 33.5471 165.989 32.3888 166.588 31.3665C167.328 30.261 168.356 29.379 169.562 28.8161C170.768 28.2532 172.105 28.031 173.428 28.1735C174.536 28.3012 175.772 28.6631 176.646 28.1735C177.967 27.3007 176.859 25.5765 176.177 24.278C174.195 20.489 177.711 15.7634 182.57 14.7629C184.912 14.3808 187.314 14.5982 189.55 15.3948C191.786 16.1915 193.783 17.5413 195.355 19.3183C196.266 20.5878 197.317 21.7516 198.487 22.788C199.151 23.321 199.943 23.6704 200.785 23.8012C201.626 23.932 202.487 23.8395 203.282 23.533C205.072 22.5964 205.157 20.4464 206.244 18.9138C208.012 16.4446 212.466 16.1466 215.364 17.6792C216.687 18.4555 217.845 19.4849 218.77 20.7085C219.695 21.9322 220.369 23.326 220.755 24.8102C221.109 25.7614 221.247 26.7793 221.16 27.7903C220.755 30.3022 217.942 32.3244 218.091 34.8575C218.496 36.6208 219.584 38.1518 221.117 39.1148C222.676 40.1267 223.952 41.5186 224.825 43.1593C224.978 43.5842 225.034 44.0382 224.989 44.4877C224.944 44.9372 224.799 45.3709 224.564 45.7569C224.328 46.1429 224.01 46.4713 223.631 46.718C223.252 46.9647 222.823 47.1234 222.374 47.1825" fill="#101830"/>
<path d="M211.677 26.1941C207.838 25.155 204.322 23.1717 201.449 20.4255C198.849 17.4453 198.124 12.4217 200.959 9.78213C203.793 7.14259 207.799 7.65347 211.08 9.10096C211.896 9.59995 212.857 9.80989 213.808 9.69699C215.427 9.27125 215.747 7.20645 216.365 5.67381C217.187 4.09587 218.456 2.79438 220.013 1.93141C221.57 1.06843 223.347 0.682074 225.122 0.820447C228.673 1.18417 232.115 2.25543 235.244 3.97088C237.838 4.97465 240.196 6.50389 242.169 8.46236C243.129 9.4694 243.755 10.7463 243.965 12.1205C244.174 13.4947 243.957 14.9001 243.341 16.1468C242.809 16.9983 242.02 17.9775 242.531 18.829C242.803 19.1651 243.166 19.4162 243.576 19.5527C247.101 20.7329 250.259 22.8089 252.738 25.5768C253.972 27.3777 254.841 29.4026 255.295 31.5371C256.168 34.5564 256.212 37.7545 255.423 40.7968C255.004 42.301 254.191 43.6663 253.067 44.7515C251.943 45.8367 250.55 46.6025 249.031 46.9699C246.772 47.3317 243.831 46.8634 242.766 48.8644C242.523 49.4847 242.372 50.1374 242.318 50.8015C241.677 53.1249 240.218 55.1396 238.211 56.4765C236.203 57.8135 233.781 58.3833 231.387 58.0815C229.015 57.6827 226.783 56.6937 224.894 55.2056C223.006 53.7174 221.524 51.7782 220.584 49.5668" fill="#101830"/>
<path d="M204.219 23.4481C204.219 23.4481 212.742 19.9997 221.01 31.1752C229.278 42.3507 227.616 58.6775 227.616 58.6775C227.616 58.6775 239.378 35.9647 224.462 25.0446C209.546 14.1246 204.219 23.4481 204.219 23.4481Z" fill="#F46440"/>
<path d="M11.2269 358.67C14.9132 347.898 17.172 336.531 19.9635 325.505C22.7549 314.478 25.461 303.644 28.3164 292.745C33.9987 270.777 40.1497 248.916 46.7696 227.161C50.456 214.878 54.0572 202.575 58.0206 190.356H53.3753C59.2707 233.994 65.3153 277.603 71.509 321.184C73.2563 333.615 75.0106 346.039 76.7721 358.457C77.3048 362.161 82.9517 360.585 82.419 356.903C76.1968 313.372 70.0599 269.798 63.5821 226.288L58.0206 189.164C57.637 186.674 54.0146 187.035 53.3753 189.164C39.8657 232.887 26.9526 276.822 16.554 321.418C13.6986 333.594 10.3319 346.004 8.92548 358.435C8.77632 359.819 10.822 359.925 11.2269 358.755V358.67Z" fill="#89BDDB"/>
<path d="M174.728 360.075C178.478 338.512 181.59 316.863 185.382 295.3C189.175 273.736 193.394 252.237 197.954 230.801C200.568 218.568 203.303 206.357 206.158 194.167H202.174C212.316 237.109 222.481 280.044 232.666 322.972C235.607 335.219 238.562 347.452 241.531 359.67C242.383 363.247 247.923 361.799 247.049 358.159C236.58 315.288 226.032 272.452 215.406 229.652C212.359 217.454 209.184 205.279 206.158 193.081C206.005 192.677 205.732 192.33 205.376 192.084C205.02 191.839 204.598 191.708 204.166 191.708C203.733 191.708 203.311 191.839 202.956 192.084C202.6 192.33 202.327 192.677 202.174 193.081C192.059 236.052 183.536 279.335 176.603 322.93C174.664 335.127 172.853 347.303 171.532 359.564C171.552 359.94 171.703 360.298 171.958 360.575C172.214 360.852 172.558 361.031 172.932 361.082C173.306 361.132 173.686 361.051 174.006 360.851C174.326 360.652 174.566 360.347 174.685 359.99L174.728 360.075Z" fill="#89BDDB"/>
<path d="M20.5814 181.097L230.428 179.521L231.728 195.997L20.1765 188.547L20.5814 181.097Z" fill="#101830"/>
<path d="M136.841 180.182L129.98 180.267L108.671 180.522L46.2795 181.246L44.6814 176.989L107.691 176.052L135.52 175.647L136.82 180.075L136.841 180.182Z" fill="#2D4180"/>
<path d="M44.8093 177.116L24.5662 126.561H87.9592L107.67 176.584L44.8093 177.116Z" fill="#243466"/>
<path d="M129.979 180.267L136.82 180.075L135.52 175.647L107.691 176.052L108.671 180.522L129.979 180.267Z" fill="#425799"/>
<path opacity="0.62" d="M80.3733 30.8771V25.598L95.822 25.3213L96.8875 31.1751L80.3733 30.8771Z" fill="#FFAD80"/>
</g>
<defs>
<clipPath id="clip0_89:1096">
<rect width="255" height="361" fill="white" transform="translate(0.998779 0.713867)"/>
</clipPath>
</defs>
</svg>
