<svg width="516" height="315" viewBox="0 0 516 315" fill="none" xmlns="http://www.w3.org/2000/svg">
<rect y="5" width="516" height="310" rx="7.73389" fill="#F0ECF3"/>
<path d="M263.879 284.195C328.175 284.195 380.298 232.073 380.298 167.776C380.298 103.48 328.175 51.3571 263.879 51.3571C199.583 51.3571 147.46 103.48 147.46 167.776C147.46 232.073 199.583 284.195 263.879 284.195Z" fill="#F2E7FF"/>
<path d="M235.38 116.414C246.522 116.414 256.559 121.121 263.633 128.645C270.706 121.12 280.744 116.414 291.886 116.414C313.304 116.414 330.666 133.776 330.666 155.194C330.666 188.5 284.256 224.616 263.633 231.601C241.326 223.593 196.6 186.796 196.6 155.194C196.6 133.776 213.961 116.414 235.38 116.414Z" fill="#E94A47"/>
<path d="M263.675 227.73C233.779 213.053 213.922 196.591 203.805 179.682C195.238 165.363 194.171 151.402 199.55 139.917C204.434 129.488 214.357 122.042 225.787 120.123C237.986 118.076 250.402 122.452 260.245 133.291L263.675 137.068L267.106 133.291C276.949 122.452 289.365 118.076 301.564 120.123C312.994 122.042 322.917 129.488 327.801 139.917C333.18 151.402 332.113 165.363 323.546 179.682C313.429 196.591 293.572 213.053 263.675 227.73Z" fill="white" stroke="#BF0020" stroke-width="8.32754" stroke-linecap="round" stroke-linejoin="round"/>
<path d="M203.589 219.275L208.916 216.815L206.456 211.488L201.13 213.947L203.589 219.275Z" fill="#1D72D8"/>
<path d="M266.717 186.483L274.85 190.725C275.682 191.158 276.71 190.841 277.147 190.017C277.321 189.689 277.381 189.313 277.318 188.947L275.764 179.959C275.4 177.855 276.103 175.709 277.644 174.219L284.227 167.854C284.9 167.203 284.913 166.136 284.258 165.469C283.997 165.204 283.655 165.031 283.285 164.978L274.19 163.666C272.059 163.359 270.217 162.032 269.265 160.118L265.197 151.942C264.782 151.107 263.762 150.764 262.92 151.176C262.585 151.34 262.313 151.609 262.147 151.942L258.08 160.118C257.128 162.032 255.286 163.359 253.155 163.666L244.06 164.978C243.131 165.111 242.487 165.967 242.622 166.889C242.676 167.256 242.85 167.595 243.118 167.854L249.701 174.219C251.242 175.709 251.945 177.855 251.581 179.959L250.027 188.947C249.868 189.865 250.49 190.737 251.416 190.894C251.784 190.957 252.164 190.897 252.495 190.725L260.628 186.483C262.534 185.489 264.811 185.489 266.717 186.483Z" fill="#0027DC"/>
<path d="M211.827 20.8113L213.784 19.908L214.686 21.8652L212.73 22.7685L211.827 20.8113Z" fill="#C300A7"/>
<path d="M413.189 97.8747L414.092 99.8309L412.135 100.733L411.232 98.7769L413.189 97.8747Z" fill="#C300A7"/>
<path d="M229.427 292.023L231.384 291.12L232.286 293.077L230.33 293.98L229.427 292.023Z" fill="#C300A7"/>
<path d="M141.977 115.474L142.88 117.431L140.923 118.333L140.019 116.377L141.977 115.474Z" fill="#C300A7"/>
<path d="M256.26 0.903234L258.216 0L259.118 1.95721L257.162 2.86045L256.26 0.903234Z" fill="#A1C3FC"/>
<path d="M433.097 142.307L434 144.263L432.043 145.165L431.14 143.209L433.097 142.307Z" fill="#A1C3FC"/>
<path d="M293.479 294.043L295.436 293.14L296.338 295.097L294.382 296L293.479 294.043Z" fill="#A1C3FC"/>
<path d="M139.957 179.526L140.86 181.483L138.903 182.385L138 180.429L139.957 179.526Z" fill="#A1C3FC"/>
<path d="M197.69 87.2259L199.646 86.3226L200.548 88.2798L198.592 89.1831L197.69 87.2259Z" fill="#A1C3FC"/>
<path d="M346.774 83.7369L347.677 85.6931L345.72 86.5953L344.817 84.6391L346.774 83.7369Z" fill="#A1C3FC"/>
<path d="M361.571 79.1477L363.527 78.2444L364.429 80.2017L362.473 81.1049L361.571 79.1477Z" fill="#A1C3FC"/>
<path d="M354.852 247.618L355.756 249.574L353.798 250.476L352.895 248.52L354.852 247.618Z" fill="#A1C3FC"/>
<path d="M318.265 40.8943L321.227 39.5277L322.593 42.489L319.631 43.8556L318.265 40.8943Z" fill="#A1C3FC"/>
<path d="M393.106 204.313L394.472 207.275L391.511 208.641L390.144 205.679L393.106 204.313Z" fill="#A1C3FC"/>
<path d="M260.876 73.8999L262.833 72.9966L263.735 74.9539L261.779 75.8571L260.876 73.8999Z" fill="#A1C3FC"/>
<path d="M360.1 146.923L361.003 148.88L359.046 149.782L358.143 147.826L360.1 146.923Z" fill="#A1C3FC"/>
<path d="M207.916 268.612L213.243 266.152L210.784 260.825L205.458 263.284L207.916 268.612Z" fill="#C300A7"/>
<path d="M165.388 93.9635L167.847 99.2903L173.175 96.8315L170.716 91.5047L165.388 93.9635Z" fill="#C300A7"/>
<path d="M240.186 97.6411C237.753 99.4923 235.262 101.164 232.713 102.657C230.822 100.082 229.118 97.579 227.696 95.1842C230.116 93.4053 232.607 91.7332 235.17 90.1678C236.931 92.4859 238.597 94.9892 240.186 97.6411Z" fill="#A1C3FC"/>
<path d="M336.359 126.233C334.508 123.801 332.836 121.309 331.343 118.76C333.917 116.869 336.421 115.165 338.816 113.744C340.595 116.163 342.267 118.654 343.832 121.217C341.514 122.979 339.011 124.644 336.359 126.233Z" fill="#A1C3FC"/>
<path d="M252.38 256.738C250.81 257.649 249.219 258.449 247.607 259.141C246.683 257.484 245.864 255.883 245.204 254.367C246.761 253.498 248.352 252.697 249.977 251.964C250.844 253.46 251.64 255.058 252.38 256.738Z" fill="#23286B"/>
<path d="M177.262 138.428C176.351 136.858 175.551 135.266 174.859 133.654C176.516 132.731 178.117 131.911 179.633 131.251C180.502 132.808 181.303 134.399 182.036 136.025C180.54 136.891 178.942 137.688 177.262 138.428Z" fill="#23286B"/>
<path d="M313.496 236.054C311.256 237.515 308.976 238.816 306.656 239.958C305.169 237.591 303.841 235.298 302.752 233.118C304.977 231.719 307.257 230.418 309.592 229.214C310.983 231.349 312.278 233.639 313.496 236.054Z" fill="#23286B"/>
<path d="M148.946 167.543C147.485 165.303 146.184 163.023 145.042 160.703C147.409 159.217 149.702 157.888 151.882 156.8C153.281 159.024 154.582 161.304 155.786 163.64C153.651 165.03 151.361 166.325 148.946 167.543Z" fill="#23286B"/>
<path d="M291.568 54.2845C289.328 55.7458 287.048 57.0464 284.728 58.1883C283.242 55.8213 281.913 53.5284 280.825 51.3483C283.049 49.9493 285.329 48.6481 287.665 47.4445C289.055 49.5792 290.35 51.8695 291.568 54.2845Z" fill="#23286B"/>
<path d="M379.715 177.616C378.254 175.375 376.954 173.095 375.812 170.776C378.179 169.289 380.472 167.96 382.652 166.872C384.051 169.096 385.352 171.376 386.555 173.712C384.421 175.102 382.131 176.397 379.715 177.616Z" fill="#23286B"/>
<path d="M303.576 94.6382C300.088 97.4652 296.505 100.031 292.83 102.338C289.938 98.6429 287.324 95.0442 285.13 91.5923C288.602 88.8721 292.184 86.3055 295.876 83.8923C298.566 87.2163 301.124 90.8165 303.576 94.6382Z" fill="#C300A7"/>
<path d="M340.362 209.623C337.535 206.135 334.969 202.552 332.662 198.877C336.357 195.986 339.956 193.371 343.408 191.177C346.128 194.649 348.694 198.231 351.108 201.923C347.784 204.613 344.183 207.171 340.362 209.623Z" fill="#C300A7"/>
<path d="M299.703 257.857C298.551 259.002 297.355 260.055 296.117 261.02C294.942 259.795 293.87 258.595 292.954 257.433C294.105 256.328 295.3 255.274 296.541 254.271C297.63 255.369 298.682 256.571 299.703 257.857Z" fill="#C300A7"/>
<path d="M176.143 185.751C174.998 184.598 173.945 183.403 172.98 182.164C174.205 180.989 175.405 179.917 176.567 179.002C177.672 180.152 178.726 181.348 179.729 182.588C178.631 183.677 177.429 184.729 176.143 185.751Z" fill="#C300A7"/>
<path d="M219.492 69.5948C218.34 70.7392 217.144 71.793 215.906 72.7572C214.73 71.5327 213.658 70.3329 212.743 69.1706C213.894 68.0652 215.089 67.0111 216.33 66.0082C217.419 67.1064 218.471 68.3088 219.492 69.5948Z" fill="#C300A7"/>
<path d="M364.405 105.539C363.261 104.387 362.207 103.191 361.243 101.953C362.467 100.778 363.667 99.7057 364.829 98.7904C365.935 99.9409 366.989 101.136 367.992 102.377C366.894 103.466 365.691 104.518 364.405 105.539Z" fill="#C300A7"/>
<path d="M277.107 33.011C274.898 35.2603 272.603 37.3349 270.222 39.2366C267.911 36.8886 265.801 34.5859 263.996 32.3521C266.203 30.1785 268.497 28.1034 270.881 26.1265C273.022 28.2315 275.092 30.5397 277.107 33.011Z" fill="#A1C3FC"/>
<path d="M400.989 163.154C398.74 160.945 396.665 158.65 394.763 156.269C397.112 153.959 399.414 151.849 401.648 150.044C403.822 152.25 405.897 154.545 407.874 156.928C405.769 159.069 403.46 161.14 400.989 163.154Z" fill="#A1C3FC"/>
<path d="M322.472 265.324C321.889 267.446 321.194 269.49 320.388 271.458C318.181 270.811 316.112 270.123 314.253 269.374C314.861 267.299 315.556 265.254 316.338 263.239C318.358 263.796 320.405 264.501 322.472 265.324Z" fill="#A1C3FC"/>
<path d="M168.676 208.52C166.554 207.936 164.51 207.241 162.542 206.435C163.189 204.228 163.877 202.16 164.626 200.3C166.701 200.908 168.746 201.603 170.761 202.385C170.204 204.406 169.499 206.452 168.676 208.52Z" fill="#A1C3FC"/>
<path opacity="0.86" d="M128.198 179.724C128.249 179.677 128.252 179.598 128.204 179.547C128.204 179.547 128.204 179.547 128.203 179.546C128.155 179.499 128.078 179.499 128.031 179.548C128.03 179.549 128.029 179.55 128.028 179.551C127.977 179.598 127.975 179.677 128.022 179.728C128.023 179.728 128.023 179.728 128.023 179.729C128.073 179.773 128.149 179.771 128.198 179.724ZM126.079 177.58C126.13 177.533 126.132 177.453 126.085 177.402C126.085 177.402 126.085 177.402 126.084 177.401C126.035 177.351 125.955 177.349 125.904 177.398C125.853 177.445 125.851 177.525 125.898 177.576C125.898 177.576 125.898 177.576 125.899 177.576C125.95 177.625 126.028 177.626 126.079 177.58ZM123.957 175.429C124.007 175.387 124.014 175.313 123.971 175.263C123.97 175.261 123.968 175.259 123.966 175.257C123.917 175.207 123.837 175.205 123.786 175.253C123.735 175.301 123.733 175.381 123.78 175.431C123.78 175.431 123.781 175.432 123.781 175.432C123.824 175.479 123.899 175.482 123.946 175.439C123.95 175.436 123.954 175.433 123.957 175.429ZM121.839 173.284C121.89 173.237 121.892 173.157 121.845 173.107C121.844 173.106 121.844 173.106 121.844 173.106C121.792 173.059 121.71 173.062 121.663 173.115C121.621 173.162 121.62 173.232 121.659 173.281C121.708 173.331 121.789 173.333 121.839 173.284ZM119.721 171.14C119.772 171.092 119.774 171.013 119.727 170.962C119.727 170.962 119.727 170.962 119.726 170.962C119.677 170.911 119.597 170.91 119.546 170.958C119.495 171.005 119.492 171.085 119.54 171.135C119.54 171.136 119.54 171.136 119.541 171.136C119.59 171.187 119.671 171.189 119.721 171.14ZM133.277 167.903C133.278 167.836 133.224 167.78 133.157 167.778C133.156 167.779 133.155 167.778 133.155 167.778C133.086 167.778 133.03 167.832 133.029 167.901C133.027 167.968 133.081 168.024 133.149 168.026C133.149 168.025 133.15 168.026 133.15 168.025C133.218 168.025 133.275 167.971 133.277 167.903ZM130.243 167.891C130.242 167.82 130.187 167.763 130.117 167.759C130.047 167.761 129.994 167.818 129.995 167.888C129.989 167.951 130.037 168.007 130.101 168.012C130.106 168.013 130.111 168.013 130.117 168.012C130.185 168.014 130.241 167.959 130.243 167.891ZM127.205 167.871C127.207 167.804 127.153 167.748 127.086 167.747C127.085 167.747 127.084 167.747 127.084 167.747C127.013 167.743 126.954 167.796 126.95 167.867C126.946 167.937 127 167.997 127.07 168.001C127.074 168.001 127.079 168.001 127.083 168.001C127.153 167.998 127.206 167.941 127.205 167.871ZM124.172 167.859C124.173 167.792 124.119 167.736 124.052 167.734C124.051 167.734 124.05 167.734 124.05 167.734C123.979 167.735 123.921 167.79 123.916 167.861C123.914 167.929 123.968 167.985 124.035 167.986C124.036 167.986 124.037 167.986 124.037 167.986C124.109 167.985 124.167 167.931 124.172 167.859ZM128.494 156.211C128.545 156.164 128.547 156.084 128.499 156.034C128.499 156.034 128.499 156.033 128.499 156.033C128.455 155.986 128.381 155.983 128.334 156.026C128.33 156.029 128.327 156.033 128.322 156.037C128.272 156.083 128.269 156.159 128.313 156.209C128.363 156.259 128.443 156.26 128.494 156.211ZM121.904 181.932C121.966 181.902 121.996 181.83 121.974 181.765C121.946 181.703 121.873 181.675 121.812 181.703L121.811 181.704C121.746 181.727 121.713 181.799 121.736 181.864C121.765 181.928 121.838 181.958 121.904 181.932ZM120.778 179.136C120.797 179.126 120.813 179.114 120.826 179.098C120.851 179.06 120.86 179.012 120.849 178.968C120.821 178.906 120.748 178.878 120.686 178.907L120.685 178.907C120.622 178.927 120.587 178.995 120.607 179.058C120.608 179.061 120.609 179.065 120.61 179.067C120.63 179.108 120.668 179.136 120.714 179.143C120.736 179.147 120.758 179.144 120.778 179.136ZM119.653 176.338C119.715 176.31 119.744 176.237 119.716 176.174C119.696 176.112 119.628 176.077 119.566 176.097C119.563 176.098 119.559 176.099 119.556 176.1C119.491 176.129 119.46 176.202 119.485 176.268C119.515 176.332 119.587 176.361 119.653 176.338ZM130.352 173.787C130.38 173.731 130.358 173.662 130.302 173.633C130.298 173.631 130.293 173.629 130.29 173.628C130.231 173.6 130.161 173.624 130.133 173.683C130.131 173.686 130.13 173.689 130.129 173.692C130.1 173.748 130.123 173.817 130.179 173.846C130.183 173.848 130.187 173.85 130.191 173.851C130.249 173.879 130.319 173.855 130.348 173.797C130.35 173.794 130.351 173.791 130.352 173.787ZM127.565 172.617C127.587 172.57 127.571 172.512 127.527 172.483L127.523 172.476C127.52 172.468 127.512 172.461 127.503 172.458C127.466 172.442 127.424 172.444 127.39 172.466C127.366 172.48 127.348 172.501 127.335 172.526C127.309 172.588 127.337 172.658 127.398 172.685C127.461 172.714 127.536 172.686 127.564 172.622C127.564 172.62 127.565 172.619 127.565 172.617ZM124.778 171.446C124.801 171.384 124.77 171.315 124.709 171.291L124.708 171.291C124.651 171.262 124.58 171.285 124.553 171.342C124.551 171.346 124.549 171.35 124.548 171.354C124.519 171.41 124.542 171.479 124.598 171.508C124.602 171.509 124.606 171.511 124.61 171.513C124.673 171.541 124.748 171.513 124.776 171.449C124.777 171.449 124.778 171.447 124.778 171.446ZM121.983 170.28C122.012 170.224 121.989 170.155 121.933 170.126C121.929 170.124 121.925 170.122 121.921 170.121C121.858 170.092 121.783 170.121 121.755 170.184C121.755 170.186 121.754 170.188 121.753 170.188C121.727 170.25 121.755 170.321 121.816 170.348C121.88 170.376 121.954 170.347 121.982 170.283C121.982 170.281 121.983 170.28 121.983 170.28ZM130.532 162.291C130.595 162.261 130.625 162.189 130.603 162.124C130.575 162.058 130.499 162.027 130.434 162.055C130.369 162.083 130.338 162.157 130.365 162.222C130.395 162.284 130.467 162.314 130.532 162.291ZM127.714 163.434C127.776 163.406 127.806 163.333 127.777 163.271C127.757 163.208 127.689 163.173 127.627 163.193C127.624 163.194 127.62 163.195 127.617 163.197C127.553 163.225 127.521 163.299 127.546 163.364C127.577 163.427 127.648 163.457 127.714 163.434ZM125.088 195.615C125.083 195.608 125.087 195.596 125.082 195.589C125.049 195.465 124.922 195.392 124.798 195.425C124.793 195.426 124.789 195.428 124.783 195.43C124.66 195.473 124.593 195.607 124.633 195.732C124.638 195.754 124.646 195.775 124.659 195.795C124.805 195.739 124.947 195.677 125.088 195.615ZM123.163 190.446C123.2 190.436 123.232 190.414 123.254 190.383C123.317 190.326 123.339 190.236 123.309 190.156L123.313 190.144C123.269 190.021 123.134 189.955 123.01 189.997C122.886 190.036 122.817 190.167 122.855 190.291C122.902 190.415 123.036 190.482 123.163 190.446ZM121.386 185.007C121.51 184.964 121.577 184.83 121.537 184.705C121.497 184.583 121.367 184.515 121.244 184.553C121.243 184.553 121.242 184.553 121.242 184.554C121.118 184.597 121.051 184.731 121.091 184.856C121.126 184.976 121.252 185.046 121.372 185.012C121.377 185.01 121.381 185.009 121.386 185.007ZM140.156 182.844C140.217 182.731 140.174 182.59 140.061 182.529C140.058 182.528 140.054 182.526 140.051 182.525C139.935 182.467 139.795 182.514 139.736 182.629C139.676 182.742 139.719 182.883 139.832 182.943C139.835 182.945 139.838 182.947 139.842 182.948C139.958 183.005 140.099 182.959 140.156 182.844ZM135.035 180.279C135.095 180.165 135.051 180.023 134.937 179.963C134.934 179.962 134.932 179.961 134.929 179.959C134.813 179.899 134.669 179.946 134.61 180.062C134.609 180.064 134.608 180.066 134.607 180.067C134.549 180.179 134.593 180.318 134.705 180.377C134.707 180.377 134.709 180.379 134.709 180.379C134.828 180.438 134.97 180.393 135.035 180.279ZM129.909 177.708C129.967 177.591 129.919 177.448 129.803 177.388C129.684 177.332 129.542 177.379 129.481 177.496C129.424 177.614 129.471 177.756 129.587 177.816C129.704 177.877 129.847 177.83 129.906 177.713C129.908 177.711 129.909 177.709 129.909 177.708ZM124.787 175.144C124.826 175.057 124.81 174.955 124.745 174.885C124.731 174.858 124.708 174.837 124.681 174.825C124.639 174.804 124.59 174.797 124.543 174.807L124.539 174.8C124.407 174.821 124.318 174.945 124.339 175.076C124.35 175.152 124.398 175.217 124.466 175.252C124.585 175.308 124.727 175.26 124.787 175.144ZM119.655 172.576C119.717 172.464 119.676 172.322 119.563 172.26C119.562 172.26 119.561 172.259 119.56 172.259C119.441 172.2 119.298 172.245 119.234 172.36C119.174 172.474 119.219 172.615 119.332 172.676C119.335 172.677 119.337 172.678 119.34 172.679C119.45 172.74 119.588 172.698 119.649 172.587C119.651 172.584 119.653 172.58 119.655 172.576ZM147.072 161.467C147.196 161.424 147.263 161.29 147.223 161.165C147.188 161.045 147.062 160.975 146.942 161.009C146.937 161.01 146.932 161.012 146.927 161.014C146.804 161.057 146.737 161.191 146.777 161.316C146.816 161.438 146.946 161.507 147.07 161.468C147.071 161.467 147.071 161.467 147.072 161.467ZM141.602 163.276C141.726 163.235 141.794 163.102 141.753 162.977C141.712 162.853 141.579 162.785 141.454 162.825C141.452 162.826 141.451 162.826 141.45 162.826C141.326 162.866 141.256 162.997 141.295 163.121C141.342 163.246 141.476 163.314 141.602 163.276ZM136.121 165.083C136.245 165.043 136.314 164.912 136.274 164.788C136.273 164.786 136.273 164.784 136.272 164.781C136.238 164.661 136.112 164.591 135.991 164.625C135.987 164.626 135.982 164.628 135.977 164.63C135.853 164.676 135.784 164.809 135.819 164.936C135.862 165.059 135.997 165.124 136.121 165.083ZM130.651 166.893C130.775 166.852 130.843 166.718 130.802 166.593C130.761 166.469 130.627 166.402 130.503 166.442C130.501 166.442 130.5 166.443 130.499 166.443C130.375 166.483 130.305 166.616 130.346 166.742C130.386 166.866 130.519 166.936 130.644 166.896C130.647 166.894 130.649 166.894 130.651 166.893ZM125.17 168.698C125.293 168.661 125.363 168.531 125.326 168.408C125.289 168.284 125.16 168.214 125.036 168.251C125.032 168.252 125.027 168.254 125.022 168.255C124.899 168.293 124.828 168.423 124.866 168.547C124.866 168.548 124.867 168.549 124.866 168.55C124.911 168.674 125.046 168.74 125.17 168.698ZM131.943 189.026C132.042 188.941 132.053 188.791 131.967 188.692C131.881 188.593 131.732 188.582 131.633 188.667C131.631 188.668 131.63 188.669 131.629 188.671C131.53 188.757 131.52 188.907 131.605 189.005C131.691 189.104 131.841 189.114 131.94 189.029C131.941 189.028 131.942 189.028 131.943 189.026ZM128.204 184.694C128.304 184.611 128.32 184.462 128.239 184.361C128.15 184.264 128.001 184.255 127.901 184.341C127.803 184.424 127.791 184.57 127.873 184.669C127.956 184.767 128.102 184.78 128.2 184.697C128.202 184.696 128.203 184.695 128.204 184.694ZM124.477 180.365C124.574 180.277 124.581 180.128 124.493 180.031C124.406 179.934 124.256 179.927 124.159 180.014C124.064 180.101 124.056 180.248 124.14 180.345C124.228 180.443 124.378 180.451 124.477 180.365ZM120.749 176.036C120.847 175.949 120.857 175.799 120.772 175.7C120.685 175.599 120.533 175.586 120.431 175.673C120.333 175.76 120.323 175.909 120.408 176.009C120.497 176.107 120.647 176.118 120.749 176.036ZM145.941 173.671C145.954 173.545 145.862 173.429 145.734 173.416C145.73 173.416 145.727 173.416 145.724 173.416C145.592 173.407 145.479 173.507 145.47 173.639C145.469 173.64 145.47 173.64 145.47 173.642C145.457 173.769 145.55 173.884 145.679 173.896C145.681 173.896 145.683 173.897 145.686 173.896C145.818 173.902 145.931 173.803 145.941 173.671ZM140.202 173.261C140.215 173.135 140.123 173.02 139.995 173.007C139.992 173.007 139.988 173.007 139.986 173.007C139.855 172.998 139.741 173.098 139.731 173.23C139.731 173.23 139.731 173.232 139.731 173.232C139.719 173.36 139.812 173.475 139.94 173.487C139.943 173.487 139.945 173.488 139.947 173.487C140.079 173.492 140.191 173.393 140.202 173.261ZM134.472 172.848C134.477 172.717 134.378 172.606 134.248 172.597C134.117 172.589 134.005 172.685 133.99 172.815C133.983 172.947 134.079 173.063 134.211 173.077C134.344 173.08 134.458 172.981 134.472 172.848ZM128.726 172.442C128.739 172.315 128.647 172.2 128.519 172.187C128.515 172.187 128.512 172.187 128.509 172.187C128.379 172.18 128.266 172.275 128.251 172.405C128.245 172.535 128.345 172.647 128.475 172.656C128.599 172.669 128.712 172.579 128.725 172.454C128.726 172.451 128.726 172.447 128.726 172.442ZM122.996 172.029C123.001 171.898 122.902 171.787 122.772 171.778C122.646 171.768 122.536 171.862 122.526 171.988C122.526 171.992 122.526 171.995 122.526 171.999C122.512 172.12 122.598 172.231 122.72 172.246C122.726 172.247 122.732 172.247 122.738 172.247C122.87 172.258 122.985 172.162 122.997 172.031C122.995 172.029 122.996 172.029 122.996 172.029ZM139.257 152.97C139.355 152.883 139.365 152.734 139.28 152.634C139.196 152.536 139.049 152.525 138.952 152.609C138.951 152.609 138.951 152.61 138.95 152.61C138.85 152.685 138.829 152.828 138.904 152.927C138.908 152.933 138.912 152.938 138.917 152.943C139.005 153.038 139.153 153.049 139.257 152.97ZM134.871 156.72C134.968 156.632 134.981 156.484 134.9 156.38C134.812 156.283 134.662 156.274 134.563 156.36C134.465 156.445 134.454 156.595 134.539 156.694C134.624 156.793 134.771 156.804 134.871 156.72ZM130.493 160.467C130.591 160.389 130.605 160.246 130.527 160.148C130.525 160.145 130.522 160.142 130.519 160.139C130.437 160.038 130.288 160.022 130.186 160.104C130.184 160.107 130.181 160.109 130.178 160.111C130.079 160.197 130.068 160.347 130.154 160.446C130.24 160.545 130.389 160.555 130.489 160.47C130.49 160.469 130.491 160.468 130.493 160.467ZM126.111 164.225C126.208 164.138 126.219 163.988 126.134 163.889C126.054 163.791 125.909 163.779 125.812 163.858C125.81 163.861 125.807 163.863 125.805 163.865C125.705 163.948 125.689 164.096 125.77 164.197C125.858 164.297 126.009 164.309 126.111 164.225ZM130.594 193.1C130.538 193.086 130.479 193.095 130.431 193.126C130.403 193.147 130.383 193.177 130.371 193.209C130.437 193.171 130.515 193.135 130.594 193.1ZM127.736 189.303C127.829 189.24 127.853 189.113 127.79 189.019C127.788 189.016 127.786 189.014 127.784 189.012C127.715 188.919 127.584 188.899 127.491 188.967C127.399 189.035 127.379 189.164 127.444 189.258C127.509 189.351 127.637 189.374 127.73 189.309C127.732 189.306 127.734 189.305 127.736 189.303ZM124.792 185.135C124.884 185.076 124.911 184.953 124.852 184.86C124.848 184.854 124.844 184.849 124.84 184.843C124.773 184.748 124.643 184.726 124.547 184.793C124.453 184.859 124.431 184.99 124.497 185.086C124.564 185.181 124.695 185.203 124.79 185.137C124.791 185.137 124.792 185.136 124.792 185.135ZM121.849 180.968C121.941 180.909 121.968 180.786 121.909 180.693C121.905 180.688 121.901 180.682 121.897 180.677C121.829 180.582 121.697 180.559 121.601 180.623C121.517 180.7 121.499 180.825 121.556 180.922C121.617 181.014 121.741 181.04 121.833 180.98C121.839 180.976 121.844 180.972 121.849 180.968ZM145.342 179.265C145.362 179.151 145.286 179.042 145.172 179.022C145.059 179 144.95 179.073 144.928 179.184C144.927 179.187 144.927 179.19 144.927 179.193C144.904 179.303 144.976 179.412 145.085 179.434C145.089 179.435 145.093 179.435 145.097 179.436C145.211 179.454 145.32 179.379 145.342 179.265ZM140.284 178.412C140.304 178.298 140.228 178.19 140.113 178.169C139.994 178.148 139.882 178.227 139.861 178.345C139.845 178.46 139.924 178.566 140.038 178.585C140.152 178.607 140.261 178.532 140.283 178.419C140.284 178.416 140.284 178.414 140.284 178.412ZM135.143 177.686C135.188 177.659 135.219 177.612 135.227 177.56C135.247 177.446 135.17 177.338 135.056 177.317C134.937 177.296 134.825 177.375 134.804 177.493C134.79 177.563 134.813 177.634 134.864 177.683L134.868 177.69C134.896 177.719 134.935 177.736 134.974 177.736C135.034 177.749 135.097 177.731 135.143 177.686ZM130.168 176.707C130.183 176.594 130.109 176.488 129.998 176.464C129.881 176.447 129.771 176.524 129.745 176.64C129.725 176.754 129.801 176.863 129.916 176.883C130.034 176.904 130.147 176.825 130.168 176.707ZM125.111 175.855C125.127 175.739 125.047 175.634 124.933 175.615C124.818 175.598 124.71 175.673 124.686 175.788C124.669 175.905 124.745 176.014 124.862 176.038C124.98 176.051 125.089 175.971 125.111 175.855ZM120.053 175.002C120.069 174.887 119.989 174.781 119.875 174.763C119.76 174.746 119.652 174.821 119.629 174.935C119.611 175.052 119.687 175.162 119.804 175.186C119.922 175.199 120.031 175.119 120.053 175.002ZM140.587 158.422C140.683 158.351 140.704 158.217 140.639 158.119C140.574 158.026 140.446 158.003 140.353 158.069C140.35 158.071 140.348 158.072 140.346 158.074C140.25 158.139 140.224 158.27 140.289 158.366C140.29 158.367 140.29 158.369 140.291 158.369C140.361 158.462 140.49 158.485 140.587 158.422ZM136.381 161.375C136.474 161.308 136.496 161.178 136.429 161.084C136.365 160.991 136.237 160.968 136.144 161.033C136.141 161.035 136.139 161.036 136.137 161.038C136.041 161.103 136.015 161.234 136.08 161.33C136.081 161.332 136.081 161.333 136.082 161.334C136.154 161.427 136.287 161.445 136.381 161.375ZM132.165 164.345C132.261 164.28 132.287 164.149 132.222 164.052C132.221 164.051 132.221 164.05 132.22 164.049C132.159 163.957 132.035 163.931 131.943 163.991C131.938 163.995 131.932 163.999 131.927 164.003C131.831 164.067 131.805 164.198 131.87 164.295C131.871 164.297 131.871 164.298 131.872 164.298C131.942 164.39 132.071 164.41 132.165 164.345ZM127.963 167.306C128.057 167.236 128.077 167.103 128.007 167.009C127.938 166.916 127.808 166.895 127.714 166.961C127.621 167.03 127.597 167.159 127.658 167.257C127.731 167.352 127.864 167.373 127.963 167.306ZM123.746 170.275C123.843 170.21 123.867 170.078 123.801 169.981C123.735 169.884 123.603 169.859 123.507 169.925C123.505 169.926 123.505 169.927 123.504 169.927C123.407 169.992 123.381 170.124 123.447 170.221C123.513 170.318 123.644 170.344 123.741 170.278C123.743 170.277 123.744 170.276 123.746 170.275ZM119.536 173.24C119.633 173.174 119.658 173.043 119.593 172.945C119.527 172.849 119.395 172.823 119.298 172.888C119.297 172.89 119.296 172.89 119.295 172.891C119.2 172.958 119.175 173.09 119.24 173.187C119.31 173.28 119.439 173.303 119.536 173.24ZM134.744 185.909C134.806 185.814 134.779 185.686 134.684 185.624C134.681 185.622 134.677 185.619 134.674 185.618C134.58 185.557 134.455 185.584 134.393 185.677C134.391 185.681 134.389 185.683 134.388 185.686C134.323 185.781 134.347 185.912 134.443 185.976C134.446 185.978 134.448 185.98 134.451 185.981C134.552 186.04 134.68 186.008 134.744 185.909ZM130.411 183.191C130.474 183.095 130.448 182.966 130.352 182.903C130.252 182.84 130.119 182.868 130.055 182.968C129.995 183.068 130.022 183.197 130.118 183.264C130.218 183.325 130.349 183.293 130.411 183.191ZM126.082 180.482C126.146 180.382 126.119 180.251 126.02 180.186L126.019 180.186C125.918 180.126 125.789 180.155 125.721 180.251C125.66 180.349 125.69 180.479 125.789 180.54C125.79 180.541 125.79 180.541 125.792 180.542C125.886 180.606 126.013 180.583 126.077 180.489C126.079 180.486 126.08 180.483 126.082 180.482ZM121.757 177.758C121.817 177.658 121.785 177.529 121.687 177.467C121.588 177.404 121.459 177.434 121.396 177.533C121.395 177.534 121.394 177.537 121.393 177.539C121.331 177.634 121.357 177.762 121.453 177.824C121.456 177.826 121.459 177.829 121.463 177.83C121.562 177.892 121.692 177.862 121.753 177.764C121.753 177.763 121.754 177.761 121.757 177.758ZM142.532 169.451C142.646 169.422 142.715 169.308 142.69 169.194C142.665 169.081 142.554 169.01 142.441 169.036C142.441 169.036 142.441 169.036 142.44 169.036C142.326 169.064 142.253 169.175 142.271 169.291C142.3 169.406 142.416 169.477 142.532 169.451ZM137.512 170.589C137.623 170.568 137.697 170.461 137.676 170.35C137.675 170.346 137.674 170.342 137.673 170.339C137.649 170.226 137.538 170.155 137.425 170.181C137.424 170.181 137.424 170.181 137.424 170.182C137.31 170.209 137.236 170.32 137.255 170.436C137.285 170.548 137.399 170.617 137.512 170.589ZM132.497 171.734C132.609 171.71 132.681 171.598 132.658 171.484C132.633 171.372 132.522 171.3 132.41 171.326C132.409 171.326 132.409 171.326 132.409 171.326C132.298 171.347 132.224 171.454 132.245 171.565C132.246 171.568 132.247 171.573 132.247 171.576C132.268 171.685 132.373 171.758 132.483 171.737C132.487 171.737 132.491 171.736 132.497 171.734ZM127.481 172.88C127.593 172.856 127.665 172.744 127.642 172.63C127.63 172.565 127.587 172.509 127.526 172.482L127.522 172.475C127.479 172.459 127.433 172.455 127.388 172.465C127.275 172.494 127.206 172.608 127.231 172.723C127.255 172.835 127.367 172.906 127.479 172.881C127.48 172.88 127.48 172.88 127.481 172.88ZM122.465 174.025C122.581 173.997 122.654 173.881 122.629 173.764C122.6 173.65 122.486 173.582 122.373 173.61C122.345 173.618 122.32 173.63 122.295 173.645C122.286 173.69 122.259 173.73 122.221 173.756C122.208 173.791 122.206 173.83 122.216 173.867C122.24 173.98 122.351 174.051 122.463 174.025C122.464 174.026 122.465 174.025 122.465 174.025ZM131.535 153.307C131.597 153.216 131.574 153.093 131.482 153.031C131.478 153.028 131.474 153.026 131.47 153.023C131.371 152.959 131.239 152.985 131.175 153.084C131.174 153.085 131.172 153.087 131.172 153.088C131.113 153.189 131.145 153.317 131.242 153.38C131.341 153.442 131.471 153.412 131.533 153.314C131.533 153.311 131.535 153.31 131.535 153.307ZM128.77 157.644C128.835 157.548 128.81 157.417 128.714 157.352C128.618 157.287 128.487 157.312 128.422 157.408C128.419 157.413 128.416 157.416 128.414 157.42C128.351 157.518 128.379 157.648 128.476 157.711C128.574 157.775 128.704 157.747 128.768 157.649C128.768 157.648 128.769 157.646 128.77 157.644ZM120.479 170.643C120.542 170.546 120.515 170.417 120.42 170.354C120.32 170.291 120.187 170.32 120.122 170.419C120.062 170.519 120.089 170.648 120.186 170.715C120.286 170.776 120.417 170.743 120.479 170.643ZM124.549 193.132C124.615 193.106 124.647 193.032 124.62 192.967C124.62 192.966 124.62 192.965 124.619 192.964C124.585 192.904 124.511 192.88 124.448 192.906C124.386 192.934 124.357 193.006 124.385 193.068C124.412 193.131 124.485 193.16 124.547 193.132C124.547 193.133 124.548 193.132 124.549 193.132ZM123.323 190.383C123.385 190.355 123.414 190.282 123.386 190.219C123.374 190.186 123.345 190.162 123.31 190.156C123.281 190.145 123.25 190.146 123.222 190.158C123.16 190.187 123.131 190.259 123.159 190.322C123.174 190.362 123.212 190.386 123.254 190.385C123.276 190.397 123.302 190.396 123.323 190.383ZM122.097 187.634C122.159 187.606 122.188 187.534 122.16 187.471C122.132 187.409 122.06 187.38 121.998 187.408C121.997 187.408 121.996 187.409 121.996 187.409C121.932 187.437 121.901 187.511 121.926 187.576C121.961 187.636 122.034 187.661 122.097 187.634ZM133.409 183.791C133.431 183.726 133.399 183.654 133.335 183.628C133.269 183.606 133.198 183.639 133.171 183.704C133.149 183.769 133.182 183.84 133.246 183.866C133.311 183.887 133.382 183.855 133.409 183.791ZM130.586 182.728C130.608 182.663 130.576 182.593 130.512 182.566C130.446 182.544 130.375 182.577 130.349 182.641C130.326 182.706 130.359 182.778 130.423 182.804C130.489 182.825 130.559 182.792 130.586 182.728ZM127.752 181.663C127.775 181.601 127.744 181.532 127.682 181.508L127.682 181.508C127.622 181.481 127.552 181.506 127.524 181.566C127.522 181.571 127.52 181.577 127.518 181.584C127.496 181.649 127.53 181.719 127.595 181.741C127.659 181.763 127.73 181.73 127.752 181.665C127.751 181.664 127.752 181.664 127.752 181.663ZM124.929 180.601C124.953 180.539 124.922 180.47 124.86 180.446L124.859 180.446C124.795 180.418 124.721 180.447 124.693 180.51C124.693 180.511 124.692 180.512 124.692 180.514C124.67 180.579 124.702 180.649 124.766 180.676C124.831 180.698 124.903 180.665 124.929 180.601ZM122.099 179.544C122.121 179.478 122.088 179.407 122.024 179.381C121.958 179.359 121.885 179.395 121.865 179.462C121.844 179.525 121.874 179.592 121.935 179.619C122 179.639 122.072 179.607 122.099 179.544ZM133.025 171.165C133.087 171.136 133.114 171.064 133.086 171.001C133.057 170.939 132.984 170.912 132.922 170.94C132.86 170.969 132.833 171.041 132.861 171.103C132.889 171.166 132.963 171.193 133.025 171.165ZM130.259 172.415C130.321 172.383 130.347 172.307 130.318 172.244C130.289 172.182 130.217 172.154 130.154 172.183L130.153 172.183C130.092 172.208 130.062 172.277 130.086 172.338C130.087 172.341 130.089 172.344 130.09 172.346C130.115 172.412 130.19 172.443 130.254 172.417C130.256 172.417 130.258 172.416 130.259 172.415ZM127.487 173.658C127.55 173.63 127.578 173.558 127.551 173.496C127.523 173.433 127.451 173.404 127.389 173.432C127.388 173.432 127.387 173.432 127.387 173.433C127.325 173.457 127.295 173.526 127.319 173.588C127.321 173.591 127.322 173.594 127.323 173.596C127.351 173.658 127.424 173.686 127.486 173.658C127.487 173.658 127.487 173.658 127.487 173.658ZM124.717 174.901L124.746 174.885C124.785 174.847 124.798 174.79 124.779 174.738C124.75 174.676 124.678 174.648 124.615 174.676L124.615 174.677C124.568 174.699 124.537 174.747 124.537 174.8L124.541 174.807C124.541 174.818 124.544 174.83 124.551 174.84C124.576 174.901 124.645 174.931 124.706 174.906C124.711 174.904 124.714 174.903 124.717 174.901ZM121.95 176.151C122.012 176.123 122.041 176.051 122.013 175.988C121.984 175.925 121.911 175.897 121.848 175.926C121.786 175.955 121.759 176.027 121.786 176.09C121.814 176.152 121.887 176.18 121.949 176.152C121.95 176.152 121.95 176.152 121.95 176.151ZM120.585 170.894C120.606 170.829 120.574 170.758 120.51 170.732C120.444 170.71 120.373 170.742 120.347 170.807C120.323 170.869 120.354 170.938 120.416 170.962L120.417 170.962C120.481 170.99 120.555 170.961 120.583 170.898C120.583 170.896 120.584 170.895 120.585 170.894ZM119.495 173.713C119.517 173.648 119.485 173.577 119.42 173.55C119.355 173.528 119.284 173.561 119.257 173.626C119.235 173.691 119.268 173.762 119.331 173.788C119.398 173.811 119.468 173.778 119.495 173.713ZM128.599 188.393C128.644 188.343 128.643 188.267 128.597 188.219C128.543 188.174 128.464 188.177 128.414 188.227C128.367 188.273 128.366 188.35 128.413 188.398C128.414 188.399 128.415 188.4 128.416 188.401C128.471 188.446 128.55 188.442 128.599 188.393ZM126.402 186.333C126.449 186.284 126.449 186.206 126.4 186.159C126.355 186.111 126.278 186.11 126.231 186.156C126.228 186.158 126.227 186.16 126.225 186.162C126.178 186.204 126.172 186.277 126.215 186.325C126.218 186.329 126.222 186.333 126.227 186.337C126.275 186.384 126.353 186.384 126.4 186.336C126.4 186.335 126.402 186.334 126.402 186.333ZM124.205 184.274C124.252 184.229 124.255 184.155 124.21 184.107C124.208 184.105 124.205 184.102 124.203 184.1C124.159 184.053 124.085 184.05 124.038 184.093C124.034 184.097 124.031 184.1 124.026 184.104C123.979 184.151 123.978 184.228 124.025 184.275C124.026 184.277 124.027 184.278 124.029 184.278C124.08 184.324 124.157 184.323 124.205 184.274ZM122.015 182.21C122.059 182.157 122.056 182.079 122.009 182.028C121.954 181.987 121.878 181.99 121.826 182.036C121.781 182.089 121.783 182.168 121.833 182.218C121.886 182.263 121.965 182.26 122.015 182.21ZM132.894 177.532C132.888 177.465 132.832 177.414 132.765 177.411C132.696 177.412 132.642 177.467 132.642 177.535C132.642 177.537 132.642 177.538 132.642 177.54C132.641 177.605 132.693 177.66 132.758 177.661C132.762 177.662 132.767 177.661 132.772 177.661C132.841 177.659 132.895 177.602 132.894 177.532ZM129.863 177.627C129.857 177.56 129.801 177.508 129.734 177.506C129.665 177.511 129.612 177.566 129.611 177.635C129.608 177.7 129.658 177.756 129.723 177.76C129.727 177.76 129.73 177.76 129.733 177.76C129.804 177.76 129.862 177.704 129.862 177.633C129.863 177.632 129.863 177.63 129.863 177.627ZM126.828 177.732C126.83 177.668 126.778 177.613 126.712 177.611C126.708 177.611 126.704 177.612 126.699 177.612C126.629 177.615 126.576 177.672 126.577 177.741C126.583 177.808 126.638 177.86 126.706 177.862C126.775 177.861 126.829 177.807 126.828 177.738C126.828 177.737 126.828 177.735 126.828 177.732ZM123.801 177.834C123.803 177.769 123.751 177.714 123.686 177.713C123.681 177.713 123.677 177.713 123.672 177.714C123.603 177.717 123.549 177.773 123.55 177.843C123.556 177.91 123.612 177.961 123.679 177.964C123.748 177.961 123.802 177.904 123.801 177.834ZM120.775 177.936C120.772 177.866 120.713 177.813 120.644 177.816C120.575 177.819 120.522 177.876 120.524 177.945C120.526 178.015 120.584 178.068 120.654 178.066C120.719 178.058 120.771 178.003 120.775 177.936ZM128.239 167.067C128.286 167.021 128.287 166.944 128.241 166.896C128.239 166.895 128.238 166.894 128.237 166.893C128.189 166.846 128.111 166.846 128.064 166.895C128.063 166.896 128.062 166.897 128.062 166.898C128.015 166.94 128.009 167.012 128.052 167.06C128.056 167.064 128.059 167.068 128.064 167.072C128.112 167.12 128.19 167.12 128.237 167.07C128.238 167.069 128.238 167.068 128.239 167.067ZM126.153 169.272C126.2 169.22 126.197 169.139 126.146 169.09C126.095 169.047 126.019 169.051 125.975 169.102C125.928 169.144 125.923 169.216 125.965 169.264C125.969 169.268 125.973 169.272 125.978 169.276C126.026 169.324 126.103 169.324 126.15 169.274C126.152 169.273 126.152 169.273 126.153 169.272ZM124.066 171.477C124.112 171.424 124.109 171.345 124.06 171.295C124.006 171.25 123.927 171.253 123.877 171.303C123.832 171.358 123.84 171.439 123.895 171.484C123.945 171.526 124.02 171.523 124.066 171.477ZM121.976 173.675C122.023 173.628 122.024 173.551 121.978 173.504C121.976 173.502 121.975 173.501 121.974 173.5C121.939 173.471 121.893 173.461 121.85 173.474C121.827 173.477 121.805 173.489 121.79 173.508C121.745 173.558 121.746 173.633 121.792 173.682C121.814 173.701 121.841 173.713 121.87 173.714L121.877 173.71C121.916 173.719 121.954 173.705 121.976 173.675ZM119.89 175.879C119.933 175.829 119.931 175.754 119.887 175.705C119.836 175.656 119.754 175.659 119.706 175.711C119.706 175.712 119.705 175.712 119.705 175.713C119.657 175.759 119.657 175.837 119.703 175.884C119.704 175.886 119.705 175.887 119.707 175.888C119.761 175.931 119.841 175.928 119.89 175.879ZM119.912 172.817C119.926 172.738 119.874 172.664 119.796 172.649C119.717 172.637 119.643 172.688 119.628 172.767C119.614 172.845 119.666 172.92 119.744 172.935C119.823 172.947 119.897 172.896 119.912 172.817ZM127.035 194.106C127.097 194.061 127.113 193.973 127.069 193.91C127.023 193.846 126.935 193.828 126.868 193.87C126.804 193.918 126.79 194.008 126.837 194.073C126.837 194.073 126.838 194.074 126.838 194.074C126.881 194.137 126.966 194.154 127.028 194.111C127.031 194.108 127.033 194.107 127.035 194.106ZM125.084 191.279C125.146 191.234 125.162 191.146 125.118 191.083C125.072 191.019 124.984 191.001 124.917 191.044C124.853 191.091 124.839 191.181 124.886 191.246C124.886 191.247 124.887 191.247 124.887 191.247C124.927 191.309 125.008 191.328 125.07 191.289C125.074 191.285 125.079 191.282 125.084 191.279ZM123.132 188.451C123.195 188.406 123.211 188.319 123.167 188.256C123.12 188.194 123.034 188.177 122.966 188.216C122.902 188.264 122.888 188.354 122.935 188.419C122.935 188.419 122.935 188.42 122.936 188.42C122.975 188.483 123.057 188.501 123.119 188.462C123.123 188.458 123.128 188.455 123.132 188.451ZM137.005 184.639C137.02 184.566 136.972 184.494 136.9 184.48C136.897 184.48 136.896 184.479 136.894 184.479C136.818 184.463 136.743 184.512 136.727 184.588C136.726 184.591 136.726 184.593 136.725 184.596C136.711 184.669 136.758 184.741 136.831 184.754C136.834 184.755 136.835 184.756 136.837 184.755C136.916 184.768 136.99 184.717 137.005 184.639ZM133.61 184.035C133.623 183.956 133.572 183.882 133.493 183.867C133.414 183.855 133.34 183.906 133.324 183.985C133.31 184.058 133.357 184.13 133.43 184.143C133.433 184.144 133.434 184.145 133.436 184.144C133.511 184.164 133.588 184.119 133.607 184.043C133.609 184.042 133.609 184.039 133.61 184.035ZM130.21 183.424C130.22 183.356 130.181 183.289 130.117 183.263C130.106 183.26 130.102 183.253 130.093 183.257C130.015 183.245 129.94 183.296 129.925 183.375C129.911 183.453 129.963 183.527 130.042 183.542C130.121 183.554 130.195 183.503 130.21 183.424ZM126.811 182.814C126.824 182.735 126.772 182.661 126.694 182.646C126.616 182.634 126.541 182.685 126.526 182.764C126.516 182.812 126.533 182.862 126.571 182.893C126.58 182.908 126.591 182.911 126.596 182.918L126.643 182.93C126.721 182.944 126.795 182.892 126.811 182.814ZM123.411 182.203C123.426 182.131 123.379 182.06 123.307 182.045C123.304 182.044 123.302 182.043 123.3 182.044C123.225 182.024 123.148 182.069 123.129 182.145C123.128 182.148 123.128 182.151 123.127 182.154C123.114 182.232 123.165 182.306 123.244 182.321C123.322 182.333 123.395 182.282 123.411 182.203ZM133.959 170.565C134.022 170.528 134.042 170.446 134.004 170.384C134 170.379 133.997 170.375 133.994 170.37C133.948 170.307 133.861 170.292 133.797 170.337C133.735 170.383 133.717 170.469 133.755 170.537C133.804 170.601 133.895 170.613 133.959 170.565C133.959 170.566 133.959 170.565 133.959 170.565ZM131.108 172.538C131.172 172.491 131.186 172.401 131.14 172.337C131.139 172.336 131.139 172.335 131.138 172.335C131.092 172.273 131.005 172.257 130.942 172.303C130.88 172.349 130.862 172.435 130.9 172.503C130.951 172.566 131.04 172.582 131.108 172.538ZM128.241 174.501C128.306 174.466 128.33 174.385 128.295 174.32C128.292 174.313 128.287 174.307 128.284 174.301C128.237 174.239 128.15 174.224 128.087 174.269C128.025 174.316 128.007 174.401 128.045 174.469C128.091 174.531 128.178 174.546 128.241 174.501ZM125.386 176.467C125.451 176.432 125.475 176.35 125.44 176.286C125.437 176.279 125.432 176.273 125.429 176.267C125.383 176.205 125.295 176.189 125.232 176.235C125.167 176.28 125.149 176.368 125.19 176.435C125.235 176.497 125.322 176.512 125.386 176.467ZM122.531 178.433C122.596 178.398 122.62 178.316 122.585 178.252C122.581 178.245 122.577 178.239 122.573 178.233C122.529 178.165 122.439 178.146 122.372 178.188C122.304 178.232 122.284 178.323 122.327 178.39C122.371 178.458 122.461 178.478 122.529 178.435C122.53 178.434 122.531 178.434 122.531 178.433ZM132.569 190.687C132.615 190.624 132.6 190.535 132.537 190.489C132.534 190.488 132.532 190.486 132.53 190.484C132.462 190.447 132.376 190.467 132.331 190.531C132.289 190.597 132.308 190.685 132.375 190.728C132.439 190.768 132.525 190.751 132.569 190.687ZM129.677 188.824C129.718 188.759 129.7 188.675 129.636 188.634C129.571 188.588 129.483 188.603 129.436 188.667C129.39 188.732 129.406 188.821 129.47 188.867C129.473 188.868 129.475 188.87 129.478 188.872C129.546 188.911 129.634 188.89 129.677 188.824ZM126.778 186.966C126.821 186.908 126.807 186.825 126.748 186.783C126.744 186.78 126.74 186.777 126.736 186.775C126.675 186.73 126.59 186.744 126.545 186.804C126.544 186.806 126.543 186.809 126.541 186.811C126.499 186.878 126.515 186.967 126.579 187.013C126.647 187.051 126.733 187.03 126.778 186.966ZM123.887 185.104C123.928 185.039 123.909 184.954 123.845 184.914C123.78 184.868 123.691 184.884 123.644 184.949C123.643 184.95 123.642 184.952 123.641 184.953C123.599 185.021 123.62 185.109 123.688 185.151C123.756 185.194 123.844 185.173 123.886 185.105C123.886 185.104 123.886 185.104 123.887 185.104ZM120.987 183.245C121.03 183.187 121.016 183.104 120.957 183.062C120.954 183.059 120.95 183.056 120.946 183.054C120.884 183.009 120.8 183.023 120.755 183.083C120.753 183.085 120.752 183.088 120.75 183.09C120.705 183.157 120.722 183.247 120.788 183.292C120.857 183.329 120.943 183.31 120.987 183.245ZM135.143 177.686C135.147 177.666 135.149 177.646 135.147 177.626C135.132 177.55 135.058 177.502 134.982 177.518C134.98 177.518 134.978 177.519 134.976 177.519C134.903 177.536 134.854 177.606 134.863 177.682L134.868 177.689C134.882 177.764 134.956 177.813 135.032 177.796C135.034 177.796 135.036 177.796 135.038 177.795C135.092 177.786 135.134 177.742 135.143 177.686ZM131.646 178.529C131.722 178.515 131.773 178.443 131.76 178.367L131.759 178.366C131.743 178.289 131.67 178.238 131.593 178.248C131.515 178.269 131.466 178.344 131.477 178.423C131.494 178.499 131.57 178.546 131.646 178.529ZM128.267 179.265C128.343 179.25 128.392 179.175 128.376 179.099C128.375 179.098 128.375 179.097 128.375 179.096C128.36 179.02 128.286 178.972 128.21 178.988C128.208 178.988 128.207 178.989 128.205 178.989C128.129 179.004 128.079 179.079 128.096 179.156C128.097 179.157 128.097 179.158 128.097 179.159C128.113 179.234 128.185 179.283 128.261 179.267C128.263 179.266 128.265 179.265 128.267 179.265ZM124.88 180.005C124.956 179.987 125.004 179.911 124.989 179.834C124.98 179.761 124.913 179.71 124.841 179.72C124.836 179.72 124.831 179.721 124.825 179.723C124.749 179.736 124.699 179.808 124.712 179.885L124.712 179.885C124.725 179.964 124.799 180.017 124.877 180.005C124.878 180.005 124.879 180.005 124.88 180.005ZM121.537 180.719C121.547 180.682 121.57 180.649 121.6 180.624C121.605 180.604 121.606 180.583 121.604 180.563C121.588 180.488 121.515 180.439 121.44 180.455C121.438 180.455 121.436 180.456 121.434 180.456C121.358 180.471 121.309 180.546 121.325 180.622C121.325 180.623 121.325 180.624 121.326 180.626C121.341 180.701 121.414 180.75 121.49 180.733C121.492 180.733 121.494 180.733 121.496 180.732C121.51 180.732 121.525 180.727 121.537 180.719ZM127.75 166.853C127.792 166.787 127.774 166.699 127.708 166.656C127.641 166.613 127.554 166.632 127.511 166.698C127.466 166.757 127.478 166.842 127.536 166.886C127.539 166.888 127.542 166.891 127.545 166.893C127.613 166.936 127.704 166.919 127.75 166.853ZM125.856 169.747C125.898 169.688 125.885 169.606 125.826 169.564C125.822 169.561 125.818 169.558 125.814 169.557C125.753 169.512 125.668 169.525 125.623 169.586C125.622 169.588 125.62 169.59 125.619 169.592C125.572 169.656 125.588 169.745 125.651 169.791C125.714 169.837 125.803 169.822 125.849 169.759C125.851 169.755 125.854 169.75 125.856 169.747ZM123.966 172.649C124.009 172.586 123.992 172.5 123.929 172.457C123.926 172.455 123.924 172.453 123.92 172.451C123.851 172.411 123.763 172.434 123.722 172.504C123.684 172.57 123.703 172.654 123.767 172.697C123.835 172.734 123.921 172.712 123.966 172.649ZM122.076 175.551C122.118 175.484 122.098 175.396 122.032 175.353C122.031 175.353 122.03 175.353 122.03 175.352C121.963 175.311 121.875 175.333 121.834 175.401C121.796 175.464 121.812 175.546 121.873 175.59C121.94 175.631 122.027 175.613 122.076 175.551ZM120.182 178.445C120.225 178.382 120.208 178.295 120.145 178.252C120.142 178.251 120.14 178.248 120.136 178.247C120.071 178.206 119.986 178.226 119.944 178.29C119.9 178.357 119.917 178.446 119.982 178.492C120.051 178.53 120.137 178.51 120.182 178.445ZM131.392 192.471C131.462 192.36 131.428 192.213 131.316 192.143C131.314 192.142 131.311 192.14 131.308 192.138C131.193 192.067 131.042 192.102 130.97 192.216C130.899 192.33 130.933 192.481 131.047 192.554C131.166 192.621 131.317 192.586 131.392 192.471ZM126.356 189.389C126.428 189.277 126.396 189.128 126.285 189.056C126.283 189.054 126.281 189.054 126.279 189.052C126.165 188.98 126.013 189.015 125.941 189.13C125.87 189.244 125.904 189.395 126.018 189.467C126.133 189.536 126.282 189.501 126.356 189.389ZM121.261 186.36C121.286 186.344 121.307 186.321 121.322 186.296C121.347 186.258 121.36 186.213 121.356 186.168C121.36 186.084 121.317 186.003 121.245 185.959C121.13 185.89 120.982 185.928 120.912 186.043C120.911 186.044 120.911 186.044 120.91 186.046C120.838 186.156 120.868 186.304 120.977 186.376C120.981 186.378 120.983 186.381 120.986 186.382C121.073 186.437 121.186 186.428 121.261 186.36ZM150.44 177.29C150.57 177.254 150.65 177.122 150.621 176.99C150.59 176.859 150.459 176.777 150.329 176.807C150.197 176.841 150.117 176.975 150.147 177.108C150.178 177.239 150.309 177.32 150.44 177.29C150.439 177.29 150.44 177.29 150.44 177.29ZM144.659 178.663C144.791 178.635 144.874 178.505 144.845 178.373C144.845 178.372 144.845 178.37 144.845 178.37C144.817 178.24 144.688 178.158 144.559 178.186C144.556 178.187 144.555 178.187 144.552 178.188C144.421 178.216 144.338 178.346 144.366 178.477C144.394 178.609 144.524 178.692 144.656 178.664C144.656 178.664 144.658 178.664 144.659 178.663ZM138.882 180.045C139.013 180.011 139.093 179.877 139.063 179.744C139.029 179.613 138.895 179.536 138.765 179.57C138.634 179.604 138.557 179.738 138.591 179.869C138.624 179.997 138.753 180.074 138.882 180.045ZM133.102 181.419C133.233 181.388 133.316 181.258 133.287 181.126C133.255 180.994 133.122 180.913 132.991 180.944C132.861 180.976 132.78 181.106 132.809 181.236C132.837 181.366 132.965 181.448 133.094 181.42C133.098 181.42 133.099 181.419 133.102 181.419ZM127.325 182.8C127.456 182.765 127.536 182.632 127.506 182.499C127.479 182.374 127.356 182.294 127.231 182.321C127.227 182.322 127.223 182.323 127.217 182.324C127.089 182.347 127.004 182.467 127.027 182.595C127.028 182.602 127.029 182.61 127.032 182.617C127.062 182.748 127.194 182.83 127.325 182.8ZM121.544 184.174C121.675 184.143 121.758 184.013 121.729 183.881C121.698 183.75 121.567 183.668 121.437 183.699C121.307 183.725 121.223 183.851 121.249 183.981C121.249 183.984 121.25 183.988 121.251 183.991C121.277 184.119 121.401 184.202 121.529 184.177C121.535 184.176 121.54 184.175 121.544 184.174ZM136.084 157.063C136.153 156.945 136.118 156.794 136.003 156.719C135.889 156.65 135.74 156.687 135.671 156.802C135.67 156.803 135.669 156.804 135.669 156.806C135.596 156.916 135.627 157.063 135.736 157.136C135.739 157.138 135.742 157.14 135.745 157.142C135.862 157.21 136.01 157.175 136.084 157.063ZM132.944 162.096C133.015 161.982 132.981 161.831 132.866 161.759C132.752 161.687 132.602 161.722 132.53 161.836C132.529 161.837 132.529 161.838 132.528 161.839C132.456 161.949 132.485 162.097 132.595 162.169C132.599 162.171 132.602 162.173 132.604 162.175C132.72 162.244 132.87 162.209 132.944 162.096ZM129.803 167.129C129.873 167.015 129.839 166.865 129.726 166.793C129.608 166.725 129.456 166.761 129.38 166.876C129.31 166.988 129.345 167.134 129.456 167.203C129.458 167.205 129.461 167.206 129.464 167.208C129.577 167.28 129.727 167.247 129.8 167.134C129.801 167.133 129.802 167.131 129.803 167.129ZM126.661 172.163C126.732 172.048 126.698 171.898 126.585 171.826C126.465 171.759 126.316 171.796 126.239 171.909C126.172 172.027 126.212 172.178 126.33 172.246C126.445 172.312 126.592 172.276 126.661 172.163ZM123.525 177.204C123.594 177.092 123.56 176.945 123.448 176.875C123.446 176.874 123.443 176.872 123.44 176.871C123.325 176.799 123.174 176.834 123.102 176.949C123.031 177.064 123.064 177.214 123.178 177.286C123.298 177.354 123.449 177.318 123.525 177.204ZM125.68 194.557C125.786 194.484 125.813 194.339 125.74 194.232C125.738 194.229 125.736 194.226 125.734 194.224C125.658 194.115 125.508 194.088 125.398 194.164C125.397 194.165 125.395 194.165 125.395 194.166C125.287 194.248 125.263 194.399 125.339 194.512C125.419 194.62 125.571 194.641 125.677 194.562C125.677 194.56 125.679 194.559 125.68 194.557ZM122.228 189.786C122.338 189.71 122.366 189.559 122.29 189.449C122.289 189.446 122.286 189.443 122.284 189.44C122.21 189.334 122.063 189.309 121.957 189.384C121.954 189.386 121.952 189.388 121.95 189.39C121.84 189.465 121.813 189.616 121.889 189.726C121.965 189.836 122.115 189.864 122.225 189.788C122.226 189.788 122.227 189.786 122.228 189.786ZM136.598 187.717C136.618 187.583 136.528 187.458 136.395 187.435C136.261 187.416 136.135 187.506 136.109 187.64C136.088 187.774 136.178 187.899 136.312 187.922C136.448 187.941 136.572 187.852 136.598 187.717ZM130.743 186.799C130.771 186.67 130.688 186.542 130.558 186.514C130.555 186.514 130.552 186.513 130.548 186.512C130.413 186.494 130.287 186.584 130.261 186.717C130.237 186.848 130.324 186.975 130.457 186.999C130.46 187 130.462 187 130.465 187C130.597 187.02 130.721 186.931 130.743 186.799ZM124.891 185.869C124.915 185.737 124.827 185.612 124.695 185.587C124.693 185.587 124.691 185.586 124.688 185.586C124.563 185.568 124.446 185.654 124.425 185.778C124.418 185.782 124.418 185.782 124.414 185.794C124.392 185.916 124.469 186.034 124.59 186.063L124.614 186.069C124.742 186.093 124.866 186.008 124.89 185.879C124.89 185.877 124.891 185.872 124.891 185.869ZM143.268 167.705C143.373 167.623 143.397 167.473 143.324 167.359C143.242 167.254 143.089 167.233 142.982 167.313C142.872 167.387 142.844 167.536 142.918 167.646C142.92 167.648 142.92 167.649 142.921 167.65C143.003 167.763 143.157 167.787 143.268 167.705ZM138.435 171.178C138.546 171.099 138.571 170.945 138.492 170.834C138.492 170.833 138.492 170.833 138.491 170.833C138.413 170.726 138.263 170.703 138.156 170.782C138.047 170.857 138.019 171.008 138.095 171.118C138.171 171.228 138.321 171.256 138.432 171.179C138.432 171.18 138.434 171.179 138.435 171.178ZM133.61 174.646C133.719 174.572 133.747 174.422 133.673 174.313C133.672 174.311 133.671 174.31 133.67 174.308C133.589 174.198 133.434 174.174 133.324 174.255C133.215 174.332 133.188 174.483 133.263 174.593C133.344 174.703 133.5 174.727 133.61 174.646ZM128.785 178.115C128.892 178.035 128.914 177.883 128.834 177.776C128.755 177.67 128.607 177.647 128.499 177.724C128.39 177.8 128.363 177.951 128.439 178.061C128.519 178.172 128.674 178.195 128.785 178.115ZM123.957 181.594C124.068 181.515 124.093 181.361 124.013 181.249C124.013 181.249 124.013 181.249 124.012 181.248C123.93 181.141 123.777 181.118 123.666 181.195C123.559 181.273 123.535 181.424 123.613 181.531C123.614 181.533 123.616 181.534 123.617 181.536C123.696 181.644 123.846 181.671 123.957 181.594ZM121.281 173.07C121.302 172.94 121.215 172.817 121.084 172.795C121.083 172.795 121.082 172.795 121.082 172.795C120.947 172.776 120.821 172.866 120.796 172.999C120.774 173.132 120.864 173.259 120.997 173.281C121.131 173.304 121.257 173.214 121.279 173.081C121.28 173.077 121.281 173.074 121.281 173.07ZM120.304 178.912C120.325 178.778 120.234 178.653 120.101 178.63C119.966 178.611 119.841 178.702 119.814 178.834C119.793 178.967 119.884 179.09 120.016 179.112C120.019 179.112 120.022 179.113 120.025 179.113C120.158 179.133 120.282 179.043 120.304 178.912ZM124.001 195.54C124.113 195.47 124.147 195.323 124.076 195.21C124.075 195.208 124.074 195.207 124.073 195.205C124.005 195.094 123.86 195.06 123.749 195.127C123.745 195.129 123.741 195.132 123.737 195.135C123.625 195.206 123.59 195.353 123.661 195.466C123.663 195.468 123.663 195.469 123.664 195.47C123.739 195.582 123.888 195.613 124.001 195.54ZM133.724 190.946C133.753 190.814 133.67 190.684 133.539 190.655C133.407 190.626 133.278 190.709 133.248 190.84C133.247 190.844 133.247 190.847 133.246 190.85C133.215 190.974 133.29 191.1 133.414 191.131C133.419 191.132 133.424 191.134 133.43 191.134C133.562 191.164 133.695 191.079 133.724 190.946C133.723 190.947 133.724 190.946 133.724 190.946ZM127.943 189.779C127.967 189.646 127.88 189.519 127.747 189.492C127.616 189.468 127.491 189.554 127.465 189.685C127.433 189.809 127.509 189.935 127.632 189.966C127.637 189.967 127.643 189.969 127.649 189.969C127.782 189.999 127.914 189.914 127.943 189.781C127.942 189.781 127.942 189.78 127.943 189.779ZM122.162 188.613C122.185 188.481 122.094 188.354 121.961 188.332C121.833 188.31 121.711 188.393 121.683 188.519C121.653 188.648 121.733 188.778 121.862 188.809C121.865 188.81 121.867 188.81 121.871 188.811C122.005 188.832 122.132 188.745 122.162 188.613ZM146.38 170.29C146.488 170.212 146.513 170.062 146.435 169.953C146.357 169.845 146.207 169.82 146.098 169.897C145.994 169.973 145.966 170.117 146.037 170.225C146.114 170.337 146.267 170.367 146.38 170.29ZM141.432 173.546C141.545 173.47 141.576 173.317 141.501 173.204C141.424 173.096 141.278 173.066 141.166 173.135C141.053 173.212 141.02 173.364 141.09 173.481C141.168 173.591 141.318 173.619 141.432 173.546ZM136.484 176.803C136.597 176.729 136.628 176.576 136.554 176.463C136.48 176.35 136.33 176.319 136.216 176.391C136.105 176.464 136.072 176.613 136.143 176.725C136.219 176.838 136.368 176.872 136.484 176.803ZM131.532 180.051C131.643 179.984 131.679 179.841 131.613 179.729C131.611 179.725 131.608 179.721 131.604 179.716C131.53 179.606 131.381 179.575 131.269 179.647C131.157 179.719 131.124 179.868 131.196 179.981C131.267 180.093 131.417 180.125 131.529 180.055C131.529 180.053 131.53 180.052 131.532 180.051ZM126.583 183.307C126.695 183.237 126.729 183.089 126.658 182.977C126.657 182.975 126.656 182.974 126.655 182.972C126.641 182.949 126.619 182.93 126.595 182.918C126.591 182.911 126.579 182.908 126.571 182.893C126.493 182.846 126.395 182.85 126.32 182.902C126.208 182.974 126.175 183.123 126.246 183.236C126.318 183.348 126.467 183.381 126.58 183.311C126.58 183.309 126.582 183.308 126.583 183.307ZM121.635 186.563C121.679 186.536 121.711 186.493 121.724 186.443C121.739 186.434 121.738 186.415 121.736 186.397C121.75 186.339 121.74 186.278 121.707 186.228C121.635 186.116 121.487 186.084 121.376 186.156C121.374 186.157 121.373 186.157 121.372 186.159L121.357 186.168C121.294 186.212 121.259 186.283 121.261 186.36C121.26 186.408 121.273 186.454 121.299 186.494C121.371 186.606 121.519 186.637 121.63 186.566C121.633 186.565 121.634 186.564 121.635 186.563ZM123.527 167.851C123.55 167.719 123.464 167.591 123.331 167.565C123.2 167.541 123.074 167.626 123.048 167.758C123.017 167.882 123.093 168.008 123.216 168.038C123.221 168.04 123.227 168.041 123.232 168.041C123.365 168.071 123.497 167.986 123.526 167.853C123.526 167.853 123.526 167.852 123.527 167.851ZM122.221 173.757C122.259 173.731 122.285 173.691 122.295 173.646C122.302 173.642 122.306 173.63 122.308 173.618C122.339 173.489 122.258 173.359 122.129 173.328C122.126 173.327 122.123 173.327 122.12 173.326C122.007 173.306 121.894 173.367 121.85 173.473C121.838 173.486 121.831 173.504 121.831 173.523C121.817 173.59 121.832 173.659 121.872 173.715L121.879 173.711C121.908 173.762 121.958 173.797 122.014 173.808C122.088 173.825 122.164 173.806 122.221 173.757ZM121.09 179.385C121.122 179.262 121.046 179.136 120.923 179.105C120.918 179.104 120.912 179.102 120.906 179.102C120.88 179.095 120.852 179.094 120.826 179.1C120.785 179.103 120.746 179.118 120.714 179.145C120.662 179.179 120.626 179.231 120.611 179.292C120.588 179.425 120.675 179.552 120.807 179.578C120.938 179.601 121.065 179.516 121.09 179.385ZM123.732 191.651C123.805 191.538 123.773 191.387 123.66 191.313C123.549 191.241 123.402 191.27 123.327 191.377C123.249 191.485 123.272 191.637 123.38 191.716C123.382 191.718 123.385 191.72 123.388 191.722C123.503 191.796 123.655 191.764 123.732 191.651ZM142.11 183.989C142.243 183.96 142.327 183.829 142.298 183.696C142.27 183.567 142.147 183.484 142.018 183.506C141.884 183.53 141.796 183.659 141.821 183.792C141.845 183.925 141.973 184.014 142.107 183.989C142.109 183.989 142.11 183.989 142.11 183.989ZM136.297 185.118C136.43 185.094 136.519 184.967 136.495 184.834C136.495 184.832 136.494 184.83 136.494 184.828C136.467 184.698 136.339 184.616 136.208 184.642C136.076 184.671 135.99 184.798 136.011 184.933C136.037 185.062 136.163 185.146 136.292 185.121C136.294 185.118 136.295 185.118 136.297 185.118ZM130.495 186.25C130.626 186.223 130.711 186.096 130.684 185.964C130.663 185.832 130.54 185.744 130.409 185.764C130.406 185.765 130.404 185.765 130.401 185.765C130.268 185.793 130.181 185.921 130.204 186.056C130.232 186.188 130.361 186.275 130.495 186.25ZM124.685 187.386C124.818 187.358 124.905 187.23 124.882 187.095C124.855 186.962 124.726 186.876 124.592 186.902C124.461 186.928 124.376 187.056 124.403 187.188C124.428 187.32 124.553 187.408 124.685 187.386ZM135.877 163.895C135.952 163.782 135.921 163.629 135.809 163.554C135.697 163.481 135.547 163.511 135.473 163.621C135.395 163.725 135.415 163.872 135.52 163.952C135.524 163.954 135.527 163.957 135.53 163.959C135.643 164.038 135.796 164.011 135.875 163.899C135.876 163.898 135.876 163.897 135.877 163.895ZM132.541 168.778C132.615 168.666 132.585 168.515 132.473 168.439C132.362 168.364 132.211 168.394 132.136 168.504C132.058 168.608 132.078 168.756 132.183 168.835C132.187 168.837 132.19 168.84 132.193 168.843C132.306 168.921 132.459 168.894 132.538 168.783C132.539 168.78 132.54 168.779 132.541 168.778ZM129.205 173.66C129.279 173.548 129.249 173.396 129.137 173.321C129.026 173.247 128.875 173.276 128.8 173.386C128.723 173.495 128.748 173.647 128.857 173.724C128.97 173.802 129.123 173.776 129.202 173.664C129.202 173.663 129.203 173.662 129.205 173.66ZM125.867 178.542C125.94 178.429 125.909 178.278 125.798 178.201C125.687 178.128 125.537 178.158 125.463 178.268C125.385 178.379 125.412 178.532 125.522 178.609C125.633 178.686 125.785 178.66 125.862 178.549C125.865 178.548 125.866 178.545 125.867 178.542ZM122.53 183.426C122.603 183.312 122.573 183.161 122.462 183.084C122.35 183.011 122.2 183.041 122.126 183.152C122.052 183.261 122.08 183.41 122.188 183.484C122.189 183.484 122.189 183.485 122.19 183.485C122.303 183.557 122.45 183.531 122.53 183.426ZM119.598 171.387C119.597 171.284 119.514 171.202 119.412 171.202C119.31 171.204 119.227 171.286 119.225 171.389C119.227 171.492 119.309 171.573 119.411 171.574C119.513 171.571 119.595 171.49 119.598 171.387ZM119.607 175.817C119.602 175.72 119.523 175.642 119.425 175.639C119.323 175.636 119.24 175.718 119.237 175.819C119.237 175.821 119.237 175.824 119.237 175.826C119.237 175.924 119.316 176.004 119.414 176.004C119.416 176.004 119.418 176.004 119.419 176.004C119.522 176.005 119.605 175.923 119.606 175.819C119.607 175.819 119.608 175.818 119.607 175.817ZM124.358 195.92C124.35 195.902 124.337 195.885 124.321 195.873C124.252 195.803 124.139 195.802 124.069 195.871C124.067 195.872 124.066 195.874 124.065 195.875C124.014 195.92 123.997 195.992 124.023 196.055C124.134 196.009 124.246 195.964 124.358 195.92ZM130.784 191.231C130.782 191.129 130.7 191.046 130.598 191.046C130.495 191.048 130.413 191.13 130.41 191.233C130.411 191.331 130.49 191.411 130.588 191.411C130.59 191.411 130.592 191.411 130.592 191.412C130.693 191.411 130.778 191.332 130.784 191.231ZM126.323 191.273C126.322 191.175 126.243 191.095 126.145 191.095C126.144 191.095 126.142 191.095 126.141 191.095C126.037 191.094 125.954 191.176 125.953 191.279C125.953 191.28 125.953 191.281 125.953 191.282C125.96 191.384 126.047 191.461 126.149 191.455C126.247 191.45 126.322 191.371 126.323 191.273ZM136.871 174.047C136.943 173.977 136.943 173.862 136.873 173.791C136.871 173.789 136.869 173.788 136.868 173.785C136.796 173.717 136.683 173.718 136.612 173.787C136.54 173.852 136.536 173.963 136.601 174.034C136.606 174.039 136.61 174.044 136.616 174.048C136.688 174.117 136.801 174.116 136.871 174.047ZM133.734 177.213C133.804 177.139 133.802 177.023 133.731 176.951C133.655 176.882 133.54 176.885 133.468 176.956C133.397 177.026 133.396 177.141 133.466 177.212C133.468 177.214 133.471 177.216 133.472 177.218C133.546 177.287 133.662 177.284 133.734 177.213ZM130.589 180.382C130.658 180.308 130.657 180.192 130.586 180.12C130.51 180.051 130.395 180.054 130.323 180.125C130.254 180.199 130.255 180.315 130.326 180.387C130.401 180.456 130.517 180.454 130.589 180.382ZM127.445 183.551C127.516 183.484 127.517 183.373 127.451 183.302C127.449 183.3 127.447 183.299 127.445 183.297C127.376 183.223 127.259 183.221 127.186 183.291L127.185 183.291C127.112 183.364 127.11 183.482 127.181 183.557C127.254 183.629 127.37 183.627 127.441 183.555C127.441 183.553 127.443 183.552 127.445 183.551ZM124.299 186.72C124.37 186.658 124.376 186.55 124.314 186.48C124.309 186.475 124.305 186.47 124.3 186.465C124.236 186.395 124.127 186.39 124.056 186.454C124.052 186.459 124.048 186.462 124.043 186.467C123.973 186.529 123.967 186.637 124.029 186.707C124.034 186.712 124.038 186.717 124.043 186.721C124.112 186.792 124.225 186.793 124.295 186.723C124.297 186.722 124.299 186.721 124.299 186.72ZM127.478 194.582C127.414 194.571 127.349 194.597 127.31 194.649C127.367 194.631 127.424 194.608 127.478 194.582ZM123.505 193.169C123.545 193.079 123.505 192.975 123.416 192.935C123.413 192.934 123.411 192.933 123.408 192.932C123.315 192.893 123.21 192.936 123.171 193.028C123.171 193.029 123.17 193.03 123.17 193.031C123.128 193.115 123.163 193.217 123.246 193.258C123.253 193.262 123.259 193.264 123.267 193.267C123.354 193.309 123.458 193.271 123.499 193.184C123.502 193.18 123.504 193.174 123.505 193.169ZM139.989 182.911C140.081 182.87 140.124 182.764 140.086 182.669C140.042 182.58 139.937 182.539 139.845 182.575C139.751 182.614 139.708 182.722 139.747 182.816C139.748 182.816 139.748 182.816 139.748 182.817C139.784 182.908 139.886 182.953 139.977 182.916C139.981 182.915 139.985 182.913 139.989 182.911ZM135.874 184.659C135.967 184.617 136.012 184.51 135.978 184.413C135.938 184.321 135.831 184.278 135.739 184.318C135.738 184.318 135.737 184.319 135.736 184.319C135.645 184.353 135.599 184.456 135.633 184.548C135.634 184.55 135.634 184.551 135.635 184.553C135.67 184.648 135.776 184.696 135.87 184.661C135.871 184.66 135.873 184.66 135.874 184.659ZM131.762 186.396C131.853 186.36 131.899 186.257 131.863 186.166C131.862 186.162 131.86 186.158 131.859 186.154C131.825 186.063 131.724 186.018 131.634 186.052C131.631 186.053 131.627 186.054 131.624 186.055C131.531 186.098 131.486 186.204 131.52 186.301C131.56 186.393 131.667 186.436 131.759 186.396C131.761 186.396 131.761 186.396 131.762 186.396ZM127.654 188.139C127.747 188.099 127.791 187.992 127.751 187.899C127.751 187.898 127.751 187.898 127.751 187.898C127.715 187.807 127.612 187.762 127.522 187.798C127.518 187.8 127.513 187.801 127.509 187.804C127.416 187.84 127.372 187.946 127.408 188.038C127.45 188.131 127.557 188.175 127.654 188.139ZM123.542 189.875C123.616 189.85 123.663 189.778 123.658 189.7L123.653 189.693C123.652 189.672 123.647 189.651 123.638 189.634C123.603 189.542 123.5 189.498 123.409 189.534C123.405 189.536 123.401 189.537 123.397 189.54C123.304 189.578 123.26 189.685 123.298 189.778C123.299 189.779 123.299 189.78 123.3 189.78C123.32 189.83 123.364 189.867 123.416 189.878C123.457 189.891 123.502 189.89 123.542 189.875ZM128.104 170.839C128.144 170.749 128.104 170.645 128.014 170.605C128.012 170.603 128.009 170.603 128.006 170.602C127.914 170.56 127.806 170.601 127.765 170.694C127.763 170.698 127.762 170.701 127.76 170.705C127.724 170.795 127.767 170.897 127.857 170.934C127.86 170.935 127.862 170.936 127.865 170.937C127.958 170.977 128.063 170.934 128.102 170.842C128.103 170.841 128.103 170.84 128.104 170.839ZM126.414 174.954C126.45 174.858 126.402 174.75 126.306 174.715C126.305 174.715 126.305 174.715 126.305 174.714C126.211 174.679 126.107 174.722 126.066 174.814C126.031 174.909 126.075 175.015 126.168 175.057C126.264 175.091 126.37 175.046 126.414 174.954ZM124.712 179.066C124.751 178.976 124.712 178.872 124.622 178.832C124.619 178.831 124.617 178.83 124.614 178.829C124.52 178.793 124.416 178.837 124.375 178.928C124.334 179.021 124.376 179.127 124.468 179.168C124.56 179.209 124.666 179.168 124.707 179.076C124.709 179.074 124.71 179.069 124.712 179.066ZM123.021 183.181C123.057 183.089 123.015 182.985 122.923 182.945C122.827 182.907 122.718 182.953 122.678 183.049C122.64 183.143 122.686 183.25 122.78 183.288C122.874 183.326 122.981 183.279 123.019 183.186C123.02 183.184 123.02 183.182 123.021 183.181ZM123.538 195.525C123.547 195.471 123.513 195.418 123.459 195.405C123.403 195.397 123.351 195.435 123.343 195.491C123.336 195.542 123.367 195.592 123.417 195.605C123.472 195.614 123.525 195.579 123.538 195.525ZM131.296 187.672C131.344 187.643 131.362 187.582 131.334 187.533C131.306 187.484 131.242 187.467 131.194 187.497C131.145 187.526 131.128 187.589 131.158 187.638C131.16 187.64 131.16 187.641 131.162 187.643C131.192 187.685 131.251 187.698 131.296 187.672ZM129.235 188.963C129.28 188.935 129.294 188.875 129.267 188.83C129.266 188.829 129.265 188.829 129.265 188.828C129.241 188.783 129.186 188.768 129.142 188.792C129.138 188.794 129.134 188.796 129.13 188.799C129.082 188.824 129.063 188.883 129.088 188.931C129.089 188.934 129.09 188.936 129.092 188.938C129.127 188.98 129.188 188.991 129.235 188.963ZM127.165 190.259C127.213 190.234 127.232 190.175 127.207 190.126C127.207 190.124 127.205 190.122 127.204 190.12C127.17 190.075 127.107 190.064 127.061 190.095C127.015 190.122 127 190.183 127.029 190.229C127.056 190.275 127.116 190.289 127.163 190.261C127.163 190.261 127.165 190.259 127.165 190.259ZM125.103 191.551C125.148 191.524 125.162 191.464 125.135 191.419C125.134 191.418 125.133 191.417 125.133 191.416C125.102 191.372 125.044 191.36 124.997 191.387C124.952 191.415 124.938 191.475 124.966 191.521C124.994 191.566 125.055 191.58 125.1 191.552C125.102 191.551 125.102 191.551 125.103 191.551ZM123.038 192.854C123.086 192.822 123.1 192.758 123.071 192.707C123.04 192.663 122.982 192.651 122.936 192.678C122.888 192.706 122.871 192.767 122.899 192.816C122.927 192.867 122.989 192.882 123.038 192.854ZM123.022 181.735C123.036 181.685 123.007 181.633 122.958 181.619C122.957 181.619 122.956 181.618 122.954 181.618C122.9 181.606 122.845 181.637 122.828 181.69C122.818 181.746 122.853 181.798 122.907 181.811C122.96 181.822 123.01 181.788 123.022 181.735C123.022 181.735 123.022 181.735 123.022 181.735ZM122.474 184.094C122.485 184.043 122.453 183.993 122.402 183.982C122.401 183.982 122.4 183.982 122.398 183.981C122.345 183.969 122.29 184 122.273 184.054C122.262 184.109 122.297 184.162 122.352 184.175C122.405 184.187 122.459 184.155 122.472 184.102C122.474 184.099 122.474 184.097 122.474 184.094ZM121.919 186.458C121.93 186.407 121.899 186.356 121.847 186.345C121.846 186.345 121.845 186.345 121.844 186.345C121.8 186.333 121.754 186.355 121.736 186.397C121.729 186.402 121.721 186.406 121.725 186.413C121.722 186.425 121.726 186.432 121.723 186.444C121.72 186.489 121.753 186.53 121.797 186.538C121.85 186.55 121.904 186.518 121.916 186.465C121.918 186.462 121.919 186.46 121.919 186.458ZM129.421 193.271C129.474 193.261 129.51 193.21 129.502 193.156C129.49 193.1 129.439 193.063 129.382 193.069C129.329 193.079 129.293 193.13 129.301 193.184C129.314 193.238 129.364 193.276 129.421 193.271ZM127.018 193.685C127.072 193.675 127.108 193.624 127.1 193.57C127.094 193.515 127.045 193.476 126.992 193.48C126.988 193.481 126.984 193.481 126.98 193.482C126.927 193.492 126.891 193.543 126.899 193.597C126.911 193.652 126.962 193.69 127.018 193.685ZM124.623 194.095C124.677 194.085 124.713 194.034 124.704 193.98C124.691 193.925 124.641 193.888 124.585 193.892C124.531 193.903 124.495 193.953 124.503 194.008C124.507 194.061 124.553 194.101 124.606 194.098C124.612 194.097 124.618 194.096 124.623 194.095ZM127.035 184.941C127.066 184.898 127.059 184.838 127.016 184.805L127.015 184.805C126.968 184.773 126.904 184.783 126.871 184.83C126.839 184.871 126.846 184.931 126.888 184.964C126.889 184.965 126.89 184.966 126.891 184.966C126.938 184.998 127.003 184.987 127.035 184.941ZM125.62 186.923C125.653 186.878 125.643 186.814 125.597 186.782C125.597 186.782 125.596 186.781 125.596 186.781C125.548 186.752 125.487 186.763 125.452 186.806C125.423 186.852 125.433 186.914 125.475 186.949C125.523 186.981 125.586 186.969 125.62 186.923ZM124.204 188.906C124.237 188.861 124.227 188.797 124.182 188.765C124.181 188.764 124.181 188.764 124.18 188.763C124.134 188.731 124.069 188.742 124.036 188.788C124.006 188.835 124.017 188.897 124.06 188.932C124.108 188.959 124.168 188.949 124.204 188.906ZM122.783 190.881C122.816 190.836 122.807 190.772 122.761 190.74C122.76 190.74 122.76 190.739 122.759 190.739C122.713 190.709 122.651 190.722 122.622 190.769C122.621 190.769 122.621 190.77 122.62 190.77C122.59 190.808 122.597 190.862 122.634 190.893C122.638 190.896 122.642 190.899 122.646 190.901C122.685 190.934 122.743 190.929 122.775 190.891C122.778 190.888 122.781 190.885 122.783 190.881ZM133.877 183.559C133.928 183.484 133.909 183.383 133.834 183.331C133.834 183.33 133.833 183.33 133.833 183.329C133.757 183.28 133.655 183.301 133.606 183.376C133.559 183.448 133.575 183.544 133.642 183.596C133.714 183.651 133.816 183.638 133.871 183.566C133.873 183.564 133.875 183.561 133.877 183.559ZM131.508 186.825C131.562 186.76 131.553 186.663 131.489 186.609C131.485 186.606 131.481 186.603 131.476 186.6C131.405 186.545 131.302 186.559 131.248 186.631C131.246 186.633 131.244 186.636 131.242 186.638C131.188 186.712 131.205 186.816 131.279 186.871C131.352 186.923 131.453 186.905 131.505 186.832C131.505 186.83 131.507 186.828 131.508 186.825ZM129.152 190.096C129.204 190.021 129.188 189.919 129.116 189.863C129.04 189.809 128.935 189.826 128.882 189.902C128.828 189.976 128.845 190.08 128.918 190.134C128.992 190.185 129.096 190.168 129.152 190.096ZM126.789 193.358C126.838 193.282 126.822 193.183 126.753 193.125C126.677 193.075 126.576 193.092 126.519 193.163C126.464 193.234 126.478 193.336 126.549 193.391C126.551 193.393 126.554 193.394 126.555 193.396C126.631 193.449 126.735 193.432 126.789 193.358ZM125.604 182.056C125.625 181.967 125.57 181.879 125.482 181.857C125.393 181.835 125.305 181.89 125.283 181.978C125.259 182.064 125.309 182.151 125.394 182.175C125.395 182.175 125.396 182.176 125.398 182.176C125.487 182.199 125.577 182.145 125.604 182.056ZM124.589 186.064C124.669 186.019 124.696 185.918 124.65 185.839C124.627 185.798 124.588 185.77 124.542 185.76C124.501 185.754 124.461 185.761 124.424 185.779C124.417 185.783 124.417 185.783 124.413 185.795C124.376 185.814 124.349 185.847 124.338 185.887C124.319 185.976 124.375 186.065 124.464 186.087C124.508 186.093 124.552 186.084 124.589 186.064ZM123.736 189.871C123.752 189.803 123.719 189.733 123.658 189.701L123.654 189.694C123.645 189.68 123.622 189.674 123.611 189.671C123.522 189.649 123.432 189.704 123.41 189.792C123.41 189.795 123.409 189.796 123.409 189.798C123.397 189.883 123.449 189.964 123.531 189.991C123.619 190.011 123.71 189.959 123.736 189.871ZM122.8 193.773C122.82 193.684 122.764 193.595 122.674 193.573C122.584 193.555 122.495 193.61 122.472 193.7C122.452 193.789 122.509 193.878 122.598 193.9C122.688 193.918 122.777 193.863 122.8 193.773Z" fill="white"/>
</svg>
