<svg width="266" height="218" viewBox="0 0 266 218" fill="none" xmlns="http://www.w3.org/2000/svg">
<path d="M131.869 205.812C185.415 179.436 220.98 149.855 239.1 119.468C254.444 93.7375 256.355 68.6489 246.721 48.0095C237.973 29.2692 220.201 15.8882 199.73 12.4403C177.879 8.76021 155.643 16.625 138.013 36.1022L131.869 42.8908L125.724 36.1022C108.095 16.625 85.8584 8.76021 64.0079 12.4403C43.5367 15.8882 25.7645 29.2692 17.017 48.0095C7.38305 68.6489 9.29376 93.7375 24.6374 119.468C42.7576 149.855 78.3234 179.436 131.869 205.812Z" fill="white"/>
<path d="M130.754 44.4848C131.039 44.8009 131.444 44.9814 131.869 44.9814C132.294 44.9814 132.7 44.8009 132.984 44.4848L139.1 37.6893C156.344 18.529 177.979 10.8905 199.164 14.4789C219.057 17.8485 236.329 30.9297 244.826 49.2368C254.163 69.3555 252.388 93.9436 237.311 119.371C219.558 149.313 184.663 178.639 131.869 204.894C79.0746 178.639 44.1805 149.313 26.4269 119.371C11.3498 93.9436 9.57467 69.3555 18.9124 49.2368C27.4093 30.9297 44.6809 17.8485 64.5744 14.4789C85.7595 10.8905 107.394 18.529 124.638 37.6893L130.754 44.4848ZM127.458 215.467C130.238 216.844 133.501 216.844 136.28 215.467C190.433 188.64 227.736 157.938 247.147 125.201C263.71 97.2674 266.451 68.6716 255.197 44.425C245.101 22.6717 224.645 7.20055 201.074 3.20795C176.138 -1.01575 151.247 7.91799 131.869 28.6593C112.491 7.91799 87.6002 -1.01575 62.6645 3.20795C39.0931 7.20055 18.637 22.6717 8.54067 44.425C-2.71292 68.6716 0.0284908 97.2674 16.5914 125.201C36.0026 157.938 73.3055 188.64 127.458 215.467Z" fill="#BF0020" stroke="#BF0020" stroke-width="3" stroke-linecap="round" stroke-linejoin="round"/>
<path fill-rule="evenodd" clip-rule="evenodd" d="M205.115 4.82755C179.921 0.670314 154.601 9.68801 134.945 30.9646L134.272 31.6932L133.598 30.9646C113.942 9.68801 88.6221 0.670314 63.4278 4.82755C40.0471 8.68554 19.6503 23.6597 9.56046 44.8373C-1.67206 68.4133 0.977142 96.3878 17.749 123.943C37.4231 156.266 75.3887 186.81 130.943 213.621C133.046 214.636 135.497 214.636 137.6 213.621C193.154 186.81 231.12 156.266 250.794 123.943C267.566 96.3878 270.215 68.4133 258.983 44.8373C248.893 23.6597 228.496 8.68554 205.115 4.82755ZM146.202 41.3971C162.706 23.5329 182.997 16.7458 202.622 19.9841C221.231 23.0547 237.288 34.9706 245.141 51.4527C253.669 69.3529 252.399 91.7953 237.699 115.947C220.566 144.096 186.653 172.398 134.272 198.161C81.89 172.398 47.9775 144.096 30.8444 115.947C16.1439 91.7953 14.8738 69.3529 23.4022 51.4527C31.2549 34.9706 47.3118 23.0547 65.9209 19.9841C85.5457 16.7458 105.837 23.5329 122.341 41.3971L128.643 48.2181C130.094 49.7891 132.135 50.6823 134.272 50.6823C136.409 50.6823 138.449 49.7891 139.9 48.2181L146.202 41.3971Z" fill="#BF0020"/>
</svg>
