<svg width="307" height="219" viewBox="0 0 307 219" fill="none" xmlns="http://www.w3.org/2000/svg">
<mask id="mask0" mask-type="alpha" maskUnits="userSpaceOnUse" x="0" y="0" width="307" height="236">
<path d="M276.055 119.515C276.055 183.468 224.211 235.312 160.258 235.312C96.3047 235.312 44.4605 183.468 44.4605 119.515C-79.4418 -4.3872 88.2521 0.0194331 152.205 0.0194328C399.859 0.0194315 276.055 55.5619 276.055 119.515Z" fill="#C4C4C4"/>
</mask>
<g mask="url(#mask0)">
<circle cx="160.258" cy="136.963" r="94.4301" stroke="#5C00C7" stroke-width="7.83617"/>
<circle cx="160.258" cy="136.963" r="94.4301" stroke="url(#paint0_linear)" stroke-opacity="0.25" stroke-width="7.83617"/>
<circle cx="160.258" cy="136.963" r="94.4301" stroke="url(#paint1_linear)" stroke-opacity="0.15" stroke-width="7.83617"/>
<path d="M167.59 76.4222C165.245 72.3719 159.123 71.1994 155.457 74.0981C154.282 75.0278 153.313 76.3086 151.897 76.7905C148.362 77.9919 149.177 73.7283 145.484 74.2632C139.167 75.178 142.673 86.3619 133.275 88.4587C129.8 89.2342 123.83 85.025 120.308 85.5327C115.267 86.2599 114.549 95.0176 109.48 95.5097C107.606 95.6919 105.859 94.5699 103.994 94.3021C102.13 94.0343 99.7116 95.5027 100.371 97.274C101.423 102.103 101.276 102.103 102.682 106.634C105.381 115.328 107.741 124.305 115.111 129.608C122.483 134.912 130.369 138.131 139.078 140.666C147.003 142.974 156.168 144.713 164.384 143.952C175.069 142.962 184.733 136.749 192.038 128.856C199.343 120.962 204.611 111.431 209.807 102.002C207.696 103.984 204.193 102.278 202.319 100.07C200.444 97.8603 198.857 95.0005 196.053 94.2967C193.665 93.6987 191.076 94.9086 188.72 94.1923C184.084 92.783 183.32 85.0959 178.521 84.4232C176.667 84.1631 174.122 85.2244 172.311 84.7471C169.03 83.8844 169.293 79.3646 167.59 76.4222Z" fill="#428DFC"/>
<path d="M167.59 76.4222C165.245 72.3719 159.123 71.1994 155.457 74.0981C154.282 75.0278 153.313 76.3086 151.897 76.7905C148.362 77.9919 149.177 73.7283 145.484 74.2632C139.167 75.178 142.673 86.3619 133.275 88.4587C129.8 89.2342 123.83 85.025 120.308 85.5327C115.267 86.2599 114.549 95.0176 109.48 95.5097C107.606 95.6919 105.859 94.5699 103.994 94.3021C102.13 94.0343 99.7116 95.5027 100.371 97.274C101.423 102.103 101.276 102.103 102.682 106.634C105.381 115.328 107.741 124.305 115.111 129.608C122.483 134.912 130.369 138.131 139.078 140.666C147.003 142.974 156.168 144.713 164.384 143.952C175.069 142.962 184.733 136.749 192.038 128.856C199.343 120.962 204.611 111.431 209.807 102.002C207.696 103.984 204.193 102.278 202.319 100.07C200.444 97.8603 198.857 95.0005 196.053 94.2967C193.665 93.6987 191.076 94.9086 188.72 94.1923C184.084 92.783 183.32 85.0959 178.521 84.4232C176.667 84.1631 174.122 85.2244 172.311 84.7471C169.03 83.8844 169.293 79.3646 167.59 76.4222Z" fill="#428DFC"/>
<path d="M167.59 76.4222C165.245 72.3719 159.123 71.1994 155.457 74.0981C154.282 75.0278 153.313 76.3086 151.897 76.7905C148.362 77.9919 149.177 73.7283 145.484 74.2632C139.167 75.178 142.673 86.3619 133.275 88.4587C129.8 89.2342 123.83 85.025 120.308 85.5327C115.267 86.2599 114.549 95.0176 109.48 95.5097C107.606 95.6919 105.859 94.5699 103.994 94.3021C102.13 94.0343 99.7116 95.5027 100.371 97.274C101.423 102.103 101.276 102.103 102.682 106.634C105.381 115.328 107.741 124.305 115.111 129.608C122.483 134.912 130.369 138.131 139.078 140.666C147.003 142.974 156.168 144.713 164.384 143.952C175.069 142.962 184.733 136.749 192.038 128.856C199.343 120.962 204.611 111.431 209.807 102.002C207.696 103.984 204.193 102.278 202.319 100.07C200.444 97.8603 198.857 95.0005 196.053 94.2967C193.665 93.6987 191.076 94.9086 188.72 94.1923C184.084 92.783 183.32 85.0959 178.521 84.4232C176.667 84.1631 174.122 85.2244 172.311 84.7471C169.03 83.8844 169.293 79.3646 167.59 76.4222Z" fill="url(#paint2_linear)" fill-opacity="0.5"/>
<path d="M64.4937 21.8073C62.8547 15.2569 60.1919 14.9953 55.3942 10.1773C54.6191 9.39946 53.7809 8.17627 52.913 8.84821C52.0655 11.2463 58.0422 15.3278 58.563 20.9306C50.7454 16.3913 39.107 14.1918 32.0675 14.6628C29.5864 14.8287 33.8867 16.8227 39.5125 17.6534C44.6478 18.411 47.7847 20.4774 52.393 22.8662C52.6651 23.6573 49.5875 22.3336 48.7781 22.139C41.1008 20.2882 35.7073 18.8159 27.531 18.1954C25.1193 18.4834 29.2769 22.6038 31.4882 23.4681C36.9853 25.6147 43.1515 27.2233 48.6471 29.3699C47.2046 32.0249 29.756 23.9845 32.6043 27.5396C37.6695 33.2576 48.3492 35.5793 55.9603 35.2102C57.2149 35.1502 58.4648 35.1767 59.6921 35.4477C63.0988 36.1975 65.8115 43.8644 66.6279 46.8301C72.3636 67.6531 76.8393 76.3197 81.6277 89.3621C83.0343 87.3961 90.8613 79.6319 93.0984 78.7295C88.7748 66.9695 67.4871 31.951 65.9822 28.1202C65.661 27.3011 64.1912 20.9804 64.4937 21.8073Z" fill="url(#paint3_linear)"/>
<path d="M248.187 21.5151C249.826 14.9647 252.489 14.7031 257.287 9.8851C258.062 9.10727 258.9 7.88408 259.768 8.55602C260.615 10.9541 254.639 15.0356 254.118 20.6384C261.935 16.0991 273.574 13.8996 280.613 14.3706C283.094 14.5365 278.794 16.5305 273.168 17.3613C268.033 18.1188 264.896 20.1853 260.288 22.574C260.016 23.3651 263.093 22.0414 263.903 21.8468C271.58 19.9961 276.973 18.5237 285.15 17.9032C287.562 18.1912 283.404 22.3116 281.193 23.1759C275.695 25.3225 269.529 26.9311 264.034 29.0777C265.476 31.7327 279.952 22.7609 277.104 26.316C272.038 32.0341 264.332 35.2871 256.721 34.918C255.466 34.8581 254.216 34.8845 252.989 35.1555C249.582 35.9053 246.869 43.5722 246.053 46.5379C240.317 67.3609 235.841 76.0275 231.053 89.0699C229.646 87.104 221.819 79.3397 219.582 78.4373C223.906 66.6773 245.194 31.6588 246.699 27.828C247.02 27.0089 248.49 20.6882 248.187 21.5151Z" fill="url(#paint4_linear)"/>
<path d="M165.546 135.995C164.949 135.712 164.354 135.428 163.757 135.144C164.384 124.664 164.372 113.907 165.122 103.555C160.825 106.356 153.376 107.661 148.3 106.977C149.8 116.896 150.516 127.086 149.216 137.031C154.616 136.237 160.09 135.857 165.546 135.995Z" fill="#B07171"/>
<path d="M154.905 114.607C157.951 114.354 160.73 112.696 162.983 110.623C167.776 106.214 170.589 99.7109 170.525 93.1838C170.504 91.0723 170.193 88.9513 169.464 86.9706C166.907 80.0192 158.741 75.6933 151.583 77.4973C148.785 78.2019 146.19 79.7373 144.269 81.8987C140.389 86.2628 139.605 92.6458 140.347 98.4488C140.856 102.434 142.047 106.435 144.523 109.593C146.998 112.749 150.918 114.939 154.905 114.607Z" fill="#CC8A82"/>
<path d="M145.132 101.608C147.199 104.544 151.039 105.09 154.618 104.969C158.021 104.856 160.375 103.412 163.066 101.039C161.7 103.846 161.809 104.44 159.884 106.636C157.848 108.962 155.86 110.209 152.194 109.523C151.479 109.389 149.711 108.303 149.15 107.839C146.675 105.798 146.457 104.537 145.132 101.608Z" fill="white"/>
<path d="M143.868 117.845C143.78 117.845 143.689 117.809 143.624 117.738C142.622 116.652 143.518 115.191 144.239 114.018L144.441 113.686C145.522 111.884 145.53 109.458 144.461 107.648C144.337 107.439 144.199 107.23 144.06 107.02C143.513 106.193 142.945 105.335 143.101 104.312C143.23 103.458 143.83 102.786 144.411 102.135C145.069 101.397 145.637 100.761 145.378 100.034C145.23 99.6164 144.713 99.3081 144.215 99.0099C143.518 98.5933 142.726 98.1207 142.873 97.2253C143.067 96.0348 144.104 95.3839 145.107 94.7571C145.519 94.4994 145.907 94.2557 146.237 93.9793C146.968 93.3642 146.236 91.8615 145.995 91.4154C145.847 91.1413 145.679 90.8742 145.513 90.608C145.114 89.9718 144.703 89.3139 144.529 88.5462C144.176 86.9859 144.919 85.1982 146.421 83.9914C147.695 82.9699 149.597 82.3252 151.279 81.8012C151.457 81.7475 151.639 81.8456 151.693 82.02C151.748 82.1959 151.649 82.3805 151.476 82.435C150.301 82.8001 148.117 83.4814 146.835 84.5099C145.843 85.3064 144.813 86.8021 145.174 88.3975C145.323 89.0547 145.688 89.6363 146.073 90.2529C146.247 90.5317 146.421 90.8112 146.576 91.0969C146.963 91.8117 147.748 93.5752 146.661 94.4878C146.297 94.7945 145.87 95.0616 145.457 95.3209C144.538 95.8955 143.67 96.4389 143.525 97.3335C143.456 97.7594 143.87 98.0304 144.552 98.4384C145.125 98.7794 145.773 99.1679 146.002 99.8103C146.392 100.909 145.636 101.758 144.905 102.578C144.389 103.157 143.857 103.753 143.757 104.413C143.64 105.182 144.112 105.897 144.613 106.653C144.757 106.873 144.902 107.092 145.032 107.31C146.222 109.323 146.212 112.023 145.009 114.028L144.804 114.366C144.038 115.614 143.499 116.622 144.112 117.286C144.236 117.422 144.228 117.631 144.094 117.756C144.029 117.816 143.948 117.845 143.868 117.845Z" fill="#428DFC"/>
<path d="M207.773 98.4541C205.359 98.4541 203.077 96.1471 202.32 95.2976C200.561 93.3223 198.577 91.0893 196.142 91.4466C195.508 91.5385 194.914 91.8064 194.284 92.089C193.593 92.3997 192.88 92.722 192.091 92.8006C189.358 93.07 187.354 90.3761 186.403 88.7433C186.274 88.523 186.147 88.2987 186.019 88.0729C184.985 86.2588 183.914 84.3831 182.081 83.666C180.252 82.9528 178.226 83.6154 176.265 84.2578C175.683 84.4485 175.083 84.6448 174.495 84.8028C172.557 85.3245 170.346 85.0543 168.991 84.1317C168.159 83.564 167.66 82.7675 167.55 81.8262C167.53 81.644 167.66 81.4789 167.84 81.4579C168.026 81.4338 168.185 81.5677 168.207 81.7491C168.294 82.5036 168.684 83.1202 169.361 83.5827C170.548 84.3902 172.587 84.6292 174.323 84.1628C174.895 84.0094 175.487 83.8148 176.06 83.6279C178.132 82.9505 180.272 82.249 182.322 83.0494C184.373 83.8506 185.502 85.8298 186.593 87.7452C186.72 87.9686 186.848 88.1905 186.975 88.4101C187.846 89.9058 189.666 92.3771 192.026 92.1412C192.705 92.0734 193.341 91.7869 194.013 91.484C194.657 91.1944 195.323 90.8954 196.048 90.7903C198.824 90.3885 201.034 92.859 202.805 94.846C203.673 95.8201 206.674 98.8535 209.228 97.4061C209.384 97.315 209.588 97.371 209.68 97.5314C209.77 97.6911 209.714 97.8935 209.554 97.9846C208.965 98.3155 208.365 98.4541 207.773 98.4541Z" fill="#428DFC"/>
<path d="M222.189 71.2647C211.589 92.6187 200.734 110.445 183.084 131.452C177.353 127.12 173.452 127.932 164.098 128.105C163.681 131.368 161.148 134.062 157.826 134.037C151.995 133.993 149.967 128.682 149.967 128.682C143.554 129.016 137.608 127.798 131.164 130.3C128.728 121.184 101.196 88.9647 91.6188 74.1658C87.0589 77.6508 81.5477 79.8699 75.8533 80.5145C85.8074 105.166 112.884 161.125 114.572 166.342C115.499 178.444 115.19 212.576 116.427 227.16C120.634 237.705 127.555 247.64 146.413 249.249C167.39 251.04 185.116 245.933 194.961 228.868C196.441 213.308 197.587 180.308 197.795 177.267C198.104 172.727 198.542 167.694 199.52 165.491C213.141 134.805 224.42 111.614 235.697 79.9835C231.522 77.3285 226.362 73.9229 222.189 71.2647Z" fill="#9500CB"/>
<path d="M222.189 71.2647C211.589 92.6187 200.734 110.445 183.084 131.452C177.353 127.12 173.452 127.932 164.098 128.105C163.681 131.368 161.148 134.062 157.826 134.037C151.995 133.993 149.967 128.682 149.967 128.682C143.554 129.016 137.608 127.798 131.164 130.3C128.728 121.184 101.196 88.9647 91.6188 74.1658C87.0589 77.6508 81.5477 79.8699 75.8533 80.5145C85.8074 105.166 112.884 161.125 114.572 166.342C115.499 178.444 115.19 212.576 116.427 227.16C120.634 237.705 127.555 247.64 146.413 249.249C167.39 251.04 185.116 245.933 194.961 228.868C196.441 213.308 197.587 180.308 197.795 177.267C198.104 172.727 198.542 167.694 199.52 165.491C213.141 134.805 224.42 111.614 235.697 79.9835C231.522 77.3285 226.362 73.9229 222.189 71.2647Z" fill="url(#paint5_linear)" fill-opacity="0.45"/>
<path d="M282.137 187.245C282.187 187.43 282.337 187.548 282.522 187.498C282.707 187.449 282.824 187.297 282.774 187.112C282.725 186.927 282.575 186.809 282.39 186.858C282.205 186.907 282.088 187.059 282.137 187.245ZM294.442 216.899C294.324 217.05 294.374 217.236 294.524 217.354C294.674 217.471 294.859 217.422 294.977 217.271C295.094 217.12 295.044 216.934 294.895 216.816C294.761 216.613 294.559 216.748 294.442 216.899ZM298.653 209.879C298.535 210.03 298.585 210.215 298.735 210.333C298.885 210.451 299.07 210.401 299.188 210.25C299.306 210.099 299.256 209.914 299.106 209.795C299.038 209.695 298.771 209.728 298.653 209.879ZM284.35 202.58C284.5 202.697 284.667 202.733 284.852 202.682C284.969 202.531 285.004 202.363 284.954 202.178C284.803 202.061 284.636 202.026 284.535 202.092C284.25 202.209 284.217 202.377 284.35 202.58ZM291.001 197.722C291.152 197.84 291.319 197.875 291.504 197.824C291.621 197.673 291.656 197.506 291.606 197.32C291.455 197.203 291.288 197.168 291.187 197.234C290.902 197.352 290.851 197.604 291.001 197.722ZM310.772 218.921C310.738 219.089 310.872 219.292 311.039 219.326C311.207 219.36 311.409 219.226 311.442 219.058C311.477 218.891 311.342 218.688 311.176 218.653C311.008 218.619 310.806 218.752 310.772 218.921ZM312.072 210.78C312.038 210.948 312.171 211.151 312.339 211.185C312.507 211.219 312.709 211.085 312.742 210.917C312.776 210.75 312.642 210.547 312.475 210.512C312.308 210.479 312.106 210.613 312.072 210.78ZM279.847 195.969C279.914 196.07 280.149 196.205 280.266 196.055C280.367 195.988 280.502 195.752 280.351 195.635C280.284 195.534 280.049 195.398 279.932 195.548C279.748 195.599 279.714 195.767 279.847 195.969ZM286.109 192.17C286.176 192.271 286.411 192.407 286.528 192.256C286.629 192.189 286.746 192.038 286.613 191.836C286.546 191.735 286.396 191.617 286.194 191.75C286.077 191.901 286.042 192.069 286.109 192.17ZM304.319 214.187C304.285 214.355 304.335 214.541 304.503 214.575C304.67 214.609 304.77 214.542 304.889 214.391C304.923 214.224 304.873 214.038 304.705 214.004C304.538 213.969 304.354 214.02 304.319 214.187ZM306.102 207.109C306.068 207.276 306.117 207.463 306.285 207.497C306.453 207.532 306.553 207.463 306.671 207.313C306.705 207.146 306.655 206.96 306.488 206.925C306.32 206.892 306.136 206.942 306.102 207.109ZM291.987 204.052C291.869 204.203 291.919 204.389 292.069 204.507C292.219 204.625 292.404 204.575 292.522 204.424C292.64 204.273 292.59 204.087 292.44 203.969C292.29 203.851 292.104 203.901 291.987 204.052ZM276.122 202.738C276.004 202.889 276.054 203.074 276.204 203.193C276.354 203.31 276.539 203.26 276.657 203.109C276.774 202.958 276.724 202.773 276.575 202.655C276.425 202.537 276.24 202.587 276.122 202.738ZM281.155 195.974C281.037 196.125 281.087 196.311 281.237 196.429C281.387 196.547 281.572 196.497 281.69 196.346C281.808 196.195 281.758 196.009 281.608 195.891C281.457 195.773 281.272 195.823 281.155 195.974ZM286.12 189.108C286.002 189.259 286.052 189.444 286.201 189.562C286.352 189.68 286.537 189.63 286.654 189.479C286.772 189.328 286.722 189.143 286.573 189.024C286.404 188.99 286.219 189.04 286.12 189.108ZM310.428 211.583C310.478 211.768 310.627 211.887 310.812 211.837C310.997 211.787 311.115 211.636 311.065 211.451C311.015 211.265 310.865 211.147 310.68 211.197C310.513 211.163 310.379 211.398 310.428 211.583ZM281.614 178.206C281.413 178.341 281.378 178.509 281.512 178.71L281.614 178.206ZM292.783 206.579C292.749 206.746 292.882 206.949 293.05 206.984C293.217 207.018 293.419 206.884 293.453 206.716C293.487 206.548 293.354 206.346 293.186 206.311C293.018 206.277 292.816 206.411 292.783 206.579ZM287.019 206.627C286.984 206.795 287.118 206.997 287.285 207.032C287.453 207.066 287.655 206.932 287.688 206.764C287.723 206.597 287.673 206.411 287.422 206.359C287.254 206.325 287.052 206.459 287.019 206.627ZM289.356 198.524C289.322 198.692 289.455 198.895 289.623 198.929C289.791 198.963 289.975 198.913 290.026 198.661C290.06 198.494 289.926 198.291 289.776 198.172C289.592 198.222 289.391 198.356 289.356 198.524ZM278.969 187.822C278.851 187.973 278.901 188.159 279.05 188.277C279.201 188.395 279.386 188.345 279.587 188.212C279.705 188.061 279.655 187.875 279.521 187.673C279.27 187.621 279.087 187.671 278.969 187.822ZM282.272 187.009C282.238 187.176 282.306 187.277 282.372 187.379C282.54 187.413 282.64 187.346 282.742 187.28C282.776 187.112 282.708 187.011 282.642 186.909C282.473 186.874 282.289 186.924 282.272 187.009Z" fill="white"/>
<path d="M154.177 76.6596C155.532 76.3793 157.879 76.8769 159.19 77.3183C159.919 77.5644 163.328 78.8483 163.955 79.2952C167.061 81.5088 168.327 83.5121 170.282 86.7908C171.37 88.6159 171.438 90.6527 171.926 92.7215C172.465 95.0067 172.11 97.5838 171.18 99.7398C170.991 98.3142 170.793 96.866 170.211 95.5517C169.342 93.5865 167.672 92.0721 165.836 90.961C164 89.85 161.978 89.0939 160.009 88.2406C158.353 87.5235 156.728 86.734 155.14 85.8767C153.469 84.9743 151.689 83.7994 151.258 81.9463C150.57 82.3216 149.815 82.5544 149.097 82.869C147.55 83.5479 146.199 84.5991 144.866 85.64C142.188 87.7306 142.346 86.8734 139.469 92.0628C139.121 92.6919 139.5 85.7374 140.444 84.7953C140.861 84.3795 144.751 80.316 145.139 79.8721C146.224 78.6295 152.245 77.0598 154.177 76.6596Z" fill="#428DFC"/>
<path d="M65.145 28.0886C65.2144 27.2656 64.8885 26.4784 64.6257 25.6967C64.3458 24.8628 64.1774 23.3235 64.0417 22.4538C63.4522 18.6682 61.9879 15.8512 59.0054 13.9086C56.5211 12.2907 52.9117 7.05846 52.1943 8.45839C51.5183 10.3286 53.2696 12.0415 54.3651 13.6992C55.4607 15.3568 57.4646 19.5574 57.5036 20.0004C57.5597 20.6342 57.1964 21.2143 56.9125 21.7826C54.9655 25.6764 57.332 31.2178 59.042 32.0096C61.5769 33.1837 62.267 31.7511 64.2912 29.821C64.798 29.3374 65.0865 28.7877 65.145 28.0886Z" fill="#CC8F87"/>
</g>
<defs>
<linearGradient id="paint0_linear" x1="275.764" y1="-5.64159" x2="30.099" y2="47.3657" gradientUnits="userSpaceOnUse">
<stop stop-color="#4300D3"/>
<stop offset="1" stop-color="#4300D3" stop-opacity="0"/>
</linearGradient>
<linearGradient id="paint1_linear" x1="53.3315" y1="38.6151" x2="280.051" y2="93.5744" gradientUnits="userSpaceOnUse">
<stop stop-color="#FF0F13"/>
<stop offset="1" stop-color="#BF0020" stop-opacity="0"/>
</linearGradient>
<linearGradient id="paint2_linear" x1="155.034" y1="72.4916" x2="155.034" y2="144.133" gradientUnits="userSpaceOnUse">
<stop stop-color="#C6006B" stop-opacity="0"/>
<stop offset="1" stop-color="#C6006B"/>
</linearGradient>
<linearGradient id="paint3_linear" x1="26.8018" y1="49.0082" x2="93.0984" y2="49.0082" gradientUnits="userSpaceOnUse">
<stop stop-color="#DC978E"/>
<stop offset="1" stop-color="#BE8780"/>
</linearGradient>
<linearGradient id="paint4_linear" x1="280.192" y1="19.6968" x2="226.143" y2="74.3271" gradientUnits="userSpaceOnUse">
<stop stop-color="#DC978E"/>
<stop offset="1" stop-color="#BE8780"/>
</linearGradient>
<linearGradient id="paint5_linear" x1="249.64" y1="31.1422" x2="48.2415" y2="70.095" gradientUnits="userSpaceOnUse">
<stop stop-color="#4300D3"/>
<stop offset="1" stop-color="#4300D3" stop-opacity="0"/>
</linearGradient>
</defs>
</svg>
