<svg width="40" height="40" viewBox="0 0 40 40" fill="none" xmlns="http://www.w3.org/2000/svg">
<path d="M20 40C31.0457 40 40 31.0457 40 20C40 8.9543 31.0457 0 20 0C8.9543 0 0 8.9543 0 20C0 31.0457 8.9543 40 20 40Z" fill="#6E26DB" fill-opacity="0.1"/>
<path d="M20 40C31.0457 40 40 31.0457 40 20C40 8.9543 31.0457 0 20 0C8.9543 0 0 8.9543 0 20C0 31.0457 8.9543 40 20 40Z" fill="url(#paint0_linear)" fill-opacity="0.05"/>
<path d="M20 40C31.0457 40 40 31.0457 40 20C40 8.9543 31.0457 0 20 0C8.9543 0 0 8.9543 0 20C0 31.0457 8.9543 40 20 40Z" fill="url(#paint1_linear)" fill-opacity="0.05"/>
<path fill-rule="evenodd" clip-rule="evenodd" d="M21.4785 27.5247C21.8273 27.5247 22.11 27.8074 22.11 28.1562C22.11 28.5051 21.8273 28.7878 21.4785 28.7878H10.8421C10.4933 28.7878 10.2105 28.5051 10.2105 28.1562C10.2105 23.7987 13.4289 19.6685 17.9186 19.6685C18.2675 19.6685 18.5502 19.9513 18.5502 20.3001C18.5502 20.6489 18.2675 20.9317 17.9186 20.9317C14.4163 20.9317 11.7874 24.0498 11.4998 27.5247L21.4785 27.5247ZM20.2081 18.4495C17.9061 18.4495 16.0383 16.5939 16.0383 14.3029C16.0383 12.0118 17.9061 10.1562 20.2081 10.1562C22.5101 10.1562 24.378 12.0118 24.378 14.3029C24.378 16.5939 22.5101 18.4495 20.2081 18.4495ZM20.2081 17.1863C21.8144 17.1863 23.1148 15.8944 23.1148 14.3029C23.1148 12.7113 21.8144 11.4194 20.2081 11.4194C18.6019 11.4194 17.3014 12.7113 17.3014 14.3029C17.3014 15.8944 18.6019 17.1863 20.2081 17.1863ZM26.336 19.686C27.2627 19.586 28.1874 19.8952 28.8606 20.5314L28.866 20.5366C29.4564 21.1078 29.7895 21.889 29.7895 22.705C29.7895 23.521 29.4564 24.3022 28.8669 24.8726L25.0192 28.6093C24.7742 28.8473 24.3844 28.8473 24.1393 28.6094L20.2926 24.8747C19.7018 24.3034 19.3684 23.5219 19.3684 22.7056C19.3684 21.8892 19.7018 21.1077 20.2978 20.5314C20.9711 19.8952 21.8958 19.586 22.8225 19.686C23.4816 19.7572 24.0942 20.0303 24.5792 20.4574C25.0642 20.0303 25.6769 19.7572 26.336 19.686V19.686ZM26.4716 20.9419C25.9125 21.0022 25.411 21.3024 25.1027 21.7592C24.8523 22.1302 24.3061 22.1302 24.0557 21.7592C23.7474 21.3024 23.2459 21.0022 22.6869 20.9419C22.1269 20.8814 21.5691 21.068 21.1706 21.4445C20.8253 21.7785 20.6316 22.2325 20.6316 22.7056C20.6316 23.1786 20.8253 23.6327 21.1715 23.9675L24.5792 27.2759L27.9877 23.9656C28.3328 23.6317 28.5263 23.1778 28.5263 22.705C28.5263 22.2334 28.3338 21.7806 27.9903 21.4469C27.5868 21.0671 27.0303 20.8816 26.4716 20.9419V20.9419Z" fill="#117CB6"/>
<path fill-rule="evenodd" clip-rule="evenodd" d="M21.4785 27.5247C21.8273 27.5247 22.11 27.8074 22.11 28.1562C22.11 28.5051 21.8273 28.7878 21.4785 28.7878H10.8421C10.4933 28.7878 10.2105 28.5051 10.2105 28.1562C10.2105 23.7987 13.4289 19.6685 17.9186 19.6685C18.2675 19.6685 18.5502 19.9513 18.5502 20.3001C18.5502 20.6489 18.2675 20.9317 17.9186 20.9317C14.4163 20.9317 11.7874 24.0498 11.4998 27.5247L21.4785 27.5247ZM20.2081 18.4495C17.9061 18.4495 16.0383 16.5939 16.0383 14.3029C16.0383 12.0118 17.9061 10.1562 20.2081 10.1562C22.5101 10.1562 24.378 12.0118 24.378 14.3029C24.378 16.5939 22.5101 18.4495 20.2081 18.4495ZM20.2081 17.1863C21.8144 17.1863 23.1148 15.8944 23.1148 14.3029C23.1148 12.7113 21.8144 11.4194 20.2081 11.4194C18.6019 11.4194 17.3014 12.7113 17.3014 14.3029C17.3014 15.8944 18.6019 17.1863 20.2081 17.1863ZM26.336 19.686C27.2627 19.586 28.1874 19.8952 28.8606 20.5314L28.866 20.5366C29.4564 21.1078 29.7895 21.889 29.7895 22.705C29.7895 23.521 29.4564 24.3022 28.8669 24.8726L25.0192 28.6093C24.7742 28.8473 24.3844 28.8473 24.1393 28.6094L20.2926 24.8747C19.7018 24.3034 19.3684 23.5219 19.3684 22.7056C19.3684 21.8892 19.7018 21.1077 20.2978 20.5314C20.9711 19.8952 21.8958 19.586 22.8225 19.686C23.4816 19.7572 24.0942 20.0303 24.5792 20.4574C25.0642 20.0303 25.6769 19.7572 26.336 19.686V19.686ZM26.4716 20.9419C25.9125 21.0022 25.411 21.3024 25.1027 21.7592C24.8523 22.1302 24.3061 22.1302 24.0557 21.7592C23.7474 21.3024 23.2459 21.0022 22.6869 20.9419C22.1269 20.8814 21.5691 21.068 21.1706 21.4445C20.8253 21.7785 20.6316 22.2325 20.6316 22.7056C20.6316 23.1786 20.8253 23.6327 21.1715 23.9675L24.5792 27.2759L27.9877 23.9656C28.3328 23.6317 28.5263 23.1778 28.5263 22.705C28.5263 22.2334 28.3338 21.7806 27.9903 21.4469C27.5868 21.0671 27.0303 20.8816 26.4716 20.9419V20.9419Z" fill="#6E26DB"/>
<path fill-rule="evenodd" clip-rule="evenodd" d="M21.4785 27.5247C21.8273 27.5247 22.11 27.8074 22.11 28.1562C22.11 28.5051 21.8273 28.7878 21.4785 28.7878H10.8421C10.4933 28.7878 10.2105 28.5051 10.2105 28.1562C10.2105 23.7987 13.4289 19.6685 17.9186 19.6685C18.2675 19.6685 18.5502 19.9513 18.5502 20.3001C18.5502 20.6489 18.2675 20.9317 17.9186 20.9317C14.4163 20.9317 11.7874 24.0498 11.4998 27.5247L21.4785 27.5247ZM20.2081 18.4495C17.9061 18.4495 16.0383 16.5939 16.0383 14.3029C16.0383 12.0118 17.9061 10.1562 20.2081 10.1562C22.5101 10.1562 24.378 12.0118 24.378 14.3029C24.378 16.5939 22.5101 18.4495 20.2081 18.4495ZM20.2081 17.1863C21.8144 17.1863 23.1148 15.8944 23.1148 14.3029C23.1148 12.7113 21.8144 11.4194 20.2081 11.4194C18.6019 11.4194 17.3014 12.7113 17.3014 14.3029C17.3014 15.8944 18.6019 17.1863 20.2081 17.1863ZM26.336 19.686C27.2627 19.586 28.1874 19.8952 28.8606 20.5314L28.866 20.5366C29.4564 21.1078 29.7895 21.889 29.7895 22.705C29.7895 23.521 29.4564 24.3022 28.8669 24.8726L25.0192 28.6093C24.7742 28.8473 24.3844 28.8473 24.1393 28.6094L20.2926 24.8747C19.7018 24.3034 19.3684 23.5219 19.3684 22.7056C19.3684 21.8892 19.7018 21.1077 20.2978 20.5314C20.9711 19.8952 21.8958 19.586 22.8225 19.686C23.4816 19.7572 24.0942 20.0303 24.5792 20.4574C25.0642 20.0303 25.6769 19.7572 26.336 19.686V19.686ZM26.4716 20.9419C25.9125 21.0022 25.411 21.3024 25.1027 21.7592C24.8523 22.1302 24.3061 22.1302 24.0557 21.7592C23.7474 21.3024 23.2459 21.0022 22.6869 20.9419C22.1269 20.8814 21.5691 21.068 21.1706 21.4445C20.8253 21.7785 20.6316 22.2325 20.6316 22.7056C20.6316 23.1786 20.8253 23.6327 21.1715 23.9675L24.5792 27.2759L27.9877 23.9656C28.3328 23.6317 28.5263 23.1778 28.5263 22.705C28.5263 22.2334 28.3338 21.7806 27.9903 21.4469C27.5868 21.0671 27.0303 20.8816 26.4716 20.9419V20.9419Z" fill="url(#paint2_linear)" fill-opacity="0.25"/>
<path fill-rule="evenodd" clip-rule="evenodd" d="M21.4785 27.5247C21.8273 27.5247 22.11 27.8074 22.11 28.1562C22.11 28.5051 21.8273 28.7878 21.4785 28.7878H10.8421C10.4933 28.7878 10.2105 28.5051 10.2105 28.1562C10.2105 23.7987 13.4289 19.6685 17.9186 19.6685C18.2675 19.6685 18.5502 19.9513 18.5502 20.3001C18.5502 20.6489 18.2675 20.9317 17.9186 20.9317C14.4163 20.9317 11.7874 24.0498 11.4998 27.5247L21.4785 27.5247ZM20.2081 18.4495C17.9061 18.4495 16.0383 16.5939 16.0383 14.3029C16.0383 12.0118 17.9061 10.1562 20.2081 10.1562C22.5101 10.1562 24.378 12.0118 24.378 14.3029C24.378 16.5939 22.5101 18.4495 20.2081 18.4495ZM20.2081 17.1863C21.8144 17.1863 23.1148 15.8944 23.1148 14.3029C23.1148 12.7113 21.8144 11.4194 20.2081 11.4194C18.6019 11.4194 17.3014 12.7113 17.3014 14.3029C17.3014 15.8944 18.6019 17.1863 20.2081 17.1863ZM26.336 19.686C27.2627 19.586 28.1874 19.8952 28.8606 20.5314L28.866 20.5366C29.4564 21.1078 29.7895 21.889 29.7895 22.705C29.7895 23.521 29.4564 24.3022 28.8669 24.8726L25.0192 28.6093C24.7742 28.8473 24.3844 28.8473 24.1393 28.6094L20.2926 24.8747C19.7018 24.3034 19.3684 23.5219 19.3684 22.7056C19.3684 21.8892 19.7018 21.1077 20.2978 20.5314C20.9711 19.8952 21.8958 19.586 22.8225 19.686C23.4816 19.7572 24.0942 20.0303 24.5792 20.4574C25.0642 20.0303 25.6769 19.7572 26.336 19.686V19.686ZM26.4716 20.9419C25.9125 21.0022 25.411 21.3024 25.1027 21.7592C24.8523 22.1302 24.3061 22.1302 24.0557 21.7592C23.7474 21.3024 23.2459 21.0022 22.6869 20.9419C22.1269 20.8814 21.5691 21.068 21.1706 21.4445C20.8253 21.7785 20.6316 22.2325 20.6316 22.7056C20.6316 23.1786 20.8253 23.6327 21.1715 23.9675L24.5792 27.2759L27.9877 23.9656C28.3328 23.6317 28.5263 23.1778 28.5263 22.705C28.5263 22.2334 28.3338 21.7806 27.9903 21.4469C27.5868 21.0671 27.0303 20.8816 26.4716 20.9419V20.9419Z" fill="url(#paint3_linear)" fill-opacity="0.25"/>
<defs>
<linearGradient id="paint0_linear" x1="41.3333" y1="4.25701e-06" x2="-4.38795" y2="9.13284" gradientUnits="userSpaceOnUse">
<stop stop-color="#117CB6"/>
<stop offset="1" stop-color="#117CB6" stop-opacity="0"/>
</linearGradient>
<linearGradient id="paint1_linear" x1="6.22222" y1="-31" x2="57.453" y2="-9.65384" gradientUnits="userSpaceOnUse">
<stop stop-color="#FF5B7E"/>
<stop offset="1" stop-color="#FF5B7E" stop-opacity="0"/>
</linearGradient>
<linearGradient id="paint2_linear" x1="30.4421" y1="10.1563" x2="8.15191" y2="14.8351" gradientUnits="userSpaceOnUse">
<stop stop-color="#117CB6"/>
<stop offset="1" stop-color="#117CB6" stop-opacity="0"/>
</linearGradient>
<linearGradient id="paint3_linear" x1="13.2561" y1="-4.28322" x2="37.9513" y2="6.52963" gradientUnits="userSpaceOnUse">
<stop stop-color="#FF5B7E"/>
<stop offset="1" stop-color="#FF5B7E" stop-opacity="0"/>
</linearGradient>
</defs>
</svg>
