<svg width="319" height="116" viewBox="0 0 319 116" fill="none" xmlns="http://www.w3.org/2000/svg">
<path d="M-4 5.87449C45.6841 -4.62794 158.758 15.0693 222.017 50.5618" stroke="white" stroke-opacity="0.5" stroke-width="6" stroke-linecap="round" stroke-dasharray="10 20"/>
<path fill-rule="evenodd" clip-rule="evenodd" d="M266.15 112.793C282.092 112.793 295.015 99.8696 295.015 83.9281C295.015 67.9866 282.092 55.0634 266.15 55.0634C250.209 55.0634 237.286 67.9866 237.286 83.9281C237.286 99.8696 250.209 112.793 266.15 112.793Z" stroke="white" stroke-width="5.5625" stroke-linecap="round" stroke-linejoin="round"/>
<path d="M262.221 67.8922V83.9281L275.049 93.5497" stroke="white" stroke-width="5.5625" stroke-linecap="round" stroke-linejoin="round"/>
<path d="M294.844 80.7808C304.584 77.6237 311.146 68.5089 311.051 58.2706C310.904 49.8167 307.45 41.7571 301.429 35.8203C301.062 38.824 299.485 41.5481 297.065 43.3637C294.644 45.1794 291.587 45.9299 288.601 45.4419C280.191 38.3719 277.563 26.5435 282.186 16.5772C262.139 16.5772 249.31 28.4053 246.907 45.4419C240.773 46.0824 235.181 41.8885 234.078 35.8203C217.983 49.5043 221.878 74.4904 237.452 80.7936" stroke="white" stroke-width="5.5625" stroke-linecap="round" stroke-linejoin="round"/>
</svg>
