<svg fill="none" height="39" viewBox="0 0 48 39" width="48" xmlns="http://www.w3.org/2000/svg"><path d="m24 36.463c9.5339-4.6117 15.8665-9.7836 19.0928-15.0965 2.732-4.4987 3.0722-8.8852 1.3569-12.49379-1.5575-3.27656-4.7219-5.61611-8.3669-6.21893-3.8905-.64344-7.8498.73165-10.9888 4.13706l-1.094 1.18691-1.094-1.18691c-3.139-3.40541-7.0983-4.7805-10.9888-4.13706-3.64497.60282-6.80935 2.94237-8.36686 6.21893-1.71535 3.60859-1.37515 7.99509 1.35682 12.49379 3.22634 5.3129 9.55894 10.4848 19.09284 15.0965z" fill="#fff" stroke="#919191" stroke-linecap="round" stroke-linejoin="round" stroke-width="3.57505"/><path d="m24.0288 23.5024-2.5937 1.3328c-.2651.1362-.593.0366-.7324-.2223-.0555-.1032-.0747-.2213-.0546-.3362l.4956-2.8241c.116-.6609-.1082-1.3352-.5995-1.8033l-2.0995-2.0001c-.2144-.2043-.2188-.5397-.0097-.7492.0833-.0834.1923-.1376.3103-.1544l2.9005-.4119c.6794-.0965 1.2667-.5135 1.5705-1.115l1.2971-2.5687c.1325-.2624.4577-.3702.7262-.2407.1071.0516.1937.1362.2465.2407l1.2971 2.5687c.3037.6015.891 1.0185 1.5704 1.115l2.9006.4119c.2963.0421.5017.311.4586.6005-.0172.1153-.0727.2218-.1581.3031l-2.0994 2.0001c-.4914.4681-.7156 1.1424-.5996 1.8033l.4956 2.8241c.0506.2884-.1477.5623-.4429.6117-.1175.0197-.2385.001-.344-.0532l-2.5938-1.3328c-.6078-.3123-1.334-.3123-1.9418 0z" fill="#919191"/></svg>