<svg width="12" height="11" viewBox="0 0 12 11" fill="none" xmlns="http://www.w3.org/2000/svg">
<path d="M6.57177 5.29817C6.6783 5.29807 6.78043 5.25546 6.85571 5.17971L10.6381 1.37838V3.34366C10.6381 3.45076 10.6804 3.55347 10.7558 3.62921C10.8311 3.70494 10.9333 3.74748 11.0399 3.74748C11.1464 3.74748 11.2486 3.70494 11.324 3.62921C11.3994 3.55347 11.4417 3.45076 11.4417 3.34366V0.403824C11.4417 0.296723 11.3994 0.194009 11.324 0.118277C11.2486 0.0425455 11.1464 0 11.0399 0H8.11471C8.00815 0 7.90594 0.0425455 7.83059 0.118277C7.75524 0.194009 7.7129 0.296723 7.7129 0.403824C7.7129 0.510924 7.75524 0.613638 7.83059 0.68937C7.90594 0.765102 8.00815 0.807647 8.11471 0.807647H10.0702L6.26103 4.60897C6.20491 4.66545 6.1667 4.73737 6.15123 4.81566C6.13575 4.89394 6.14371 4.97508 6.17409 5.04883C6.20447 5.12258 6.25592 5.18562 6.32193 5.23C6.38794 5.27437 6.46556 5.29809 6.54498 5.29817H6.57177Z" fill="#5C00C7"/>
<path d="M6.57177 5.29817C6.6783 5.29807 6.78043 5.25546 6.85571 5.17971L10.6381 1.37838V3.34366C10.6381 3.45076 10.6804 3.55347 10.7558 3.62921C10.8311 3.70494 10.9333 3.74748 11.0399 3.74748C11.1464 3.74748 11.2486 3.70494 11.324 3.62921C11.3994 3.55347 11.4417 3.45076 11.4417 3.34366V0.403824C11.4417 0.296723 11.3994 0.194009 11.324 0.118277C11.2486 0.0425455 11.1464 0 11.0399 0H8.11471C8.00815 0 7.90594 0.0425455 7.83059 0.118277C7.75524 0.194009 7.7129 0.296723 7.7129 0.403824C7.7129 0.510924 7.75524 0.613638 7.83059 0.68937C7.90594 0.765102 8.00815 0.807647 8.11471 0.807647H10.0702L6.26103 4.60897C6.20491 4.66545 6.1667 4.73737 6.15123 4.81566C6.13575 4.89394 6.14371 4.97508 6.17409 5.04883C6.20447 5.12258 6.25592 5.18562 6.32193 5.23C6.38794 5.27437 6.46556 5.29809 6.54498 5.29817H6.57177Z" fill="url(#paint0_linear)" fill-opacity="0.25"/>
<path d="M6.57177 5.29817C6.6783 5.29807 6.78043 5.25546 6.85571 5.17971L10.6381 1.37838V3.34366C10.6381 3.45076 10.6804 3.55347 10.7558 3.62921C10.8311 3.70494 10.9333 3.74748 11.0399 3.74748C11.1464 3.74748 11.2486 3.70494 11.324 3.62921C11.3994 3.55347 11.4417 3.45076 11.4417 3.34366V0.403824C11.4417 0.296723 11.3994 0.194009 11.324 0.118277C11.2486 0.0425455 11.1464 0 11.0399 0H8.11471C8.00815 0 7.90594 0.0425455 7.83059 0.118277C7.75524 0.194009 7.7129 0.296723 7.7129 0.403824C7.7129 0.510924 7.75524 0.613638 7.83059 0.68937C7.90594 0.765102 8.00815 0.807647 8.11471 0.807647H10.0702L6.26103 4.60897C6.20491 4.66545 6.1667 4.73737 6.15123 4.81566C6.13575 4.89394 6.14371 4.97508 6.17409 5.04883C6.20447 5.12258 6.25592 5.18562 6.32193 5.23C6.38794 5.27437 6.46556 5.29809 6.54498 5.29817H6.57177Z" fill="url(#paint1_linear)" fill-opacity="0.15"/>
<path d="M11.0814 5.68324C10.9744 5.68324 10.8718 5.72577 10.7962 5.80146C10.7205 5.87716 10.678 5.97983 10.678 6.08688V9.42363C10.678 9.49357 10.6502 9.56064 10.6008 9.6101C10.5514 9.65956 10.4843 9.68734 10.4144 9.68734H2.06605C1.99615 9.68734 1.92911 9.65956 1.87968 9.6101C1.83025 9.56064 1.80248 9.49357 1.80248 9.42363V1.07099C1.80248 1.00105 1.83025 0.933973 1.87968 0.884517C1.92911 0.835062 1.99615 0.807278 2.06605 0.807278H5.22358C5.33058 0.807278 5.4332 0.764752 5.50885 0.689055C5.58451 0.613358 5.62702 0.510691 5.62702 0.403639C5.62702 0.296587 5.58451 0.19392 5.50885 0.118223C5.4332 0.0425261 5.33058 0 5.22358 0H2.06605C1.78073 0 1.50709 0.113403 1.30533 0.315262C1.10358 0.51712 0.990234 0.7909 0.990234 1.07637V9.42363C0.990234 9.7091 1.10358 9.98288 1.30533 10.1847C1.50709 10.3866 1.78073 10.5 2.06605 10.5H10.4144C10.6997 10.5 10.9734 10.3866 11.1751 10.1847C11.3769 9.98288 11.4902 9.7091 11.4902 9.42363V6.08688C11.4902 6.03342 11.4796 5.98048 11.459 5.93116C11.4384 5.88183 11.4082 5.8371 11.3702 5.79954C11.3321 5.76199 11.287 5.73237 11.2375 5.71241C11.1879 5.69244 11.1349 5.68253 11.0814 5.68324V5.68324Z" fill="#5C00C7"/>
<path d="M11.0814 5.68324C10.9744 5.68324 10.8718 5.72577 10.7962 5.80146C10.7205 5.87716 10.678 5.97983 10.678 6.08688V9.42363C10.678 9.49357 10.6502 9.56064 10.6008 9.6101C10.5514 9.65956 10.4843 9.68734 10.4144 9.68734H2.06605C1.99615 9.68734 1.92911 9.65956 1.87968 9.6101C1.83025 9.56064 1.80248 9.49357 1.80248 9.42363V1.07099C1.80248 1.00105 1.83025 0.933973 1.87968 0.884517C1.92911 0.835062 1.99615 0.807278 2.06605 0.807278H5.22358C5.33058 0.807278 5.4332 0.764752 5.50885 0.689055C5.58451 0.613358 5.62702 0.510691 5.62702 0.403639C5.62702 0.296587 5.58451 0.19392 5.50885 0.118223C5.4332 0.0425261 5.33058 0 5.22358 0H2.06605C1.78073 0 1.50709 0.113403 1.30533 0.315262C1.10358 0.51712 0.990234 0.7909 0.990234 1.07637V9.42363C0.990234 9.7091 1.10358 9.98288 1.30533 10.1847C1.50709 10.3866 1.78073 10.5 2.06605 10.5H10.4144C10.6997 10.5 10.9734 10.3866 11.1751 10.1847C11.3769 9.98288 11.4902 9.7091 11.4902 9.42363V6.08688C11.4902 6.03342 11.4796 5.98048 11.459 5.93116C11.4384 5.88183 11.4082 5.8371 11.3702 5.79954C11.3321 5.76199 11.287 5.73237 11.2375 5.71241C11.1879 5.69244 11.1349 5.68253 11.0814 5.68324V5.68324Z" fill="url(#paint2_linear)" fill-opacity="0.25"/>
<path d="M11.0814 5.68324C10.9744 5.68324 10.8718 5.72577 10.7962 5.80146C10.7205 5.87716 10.678 5.97983 10.678 6.08688V9.42363C10.678 9.49357 10.6502 9.56064 10.6008 9.6101C10.5514 9.65956 10.4843 9.68734 10.4144 9.68734H2.06605C1.99615 9.68734 1.92911 9.65956 1.87968 9.6101C1.83025 9.56064 1.80248 9.49357 1.80248 9.42363V1.07099C1.80248 1.00105 1.83025 0.933973 1.87968 0.884517C1.92911 0.835062 1.99615 0.807278 2.06605 0.807278H5.22358C5.33058 0.807278 5.4332 0.764752 5.50885 0.689055C5.58451 0.613358 5.62702 0.510691 5.62702 0.403639C5.62702 0.296587 5.58451 0.19392 5.50885 0.118223C5.4332 0.0425261 5.33058 0 5.22358 0H2.06605C1.78073 0 1.50709 0.113403 1.30533 0.315262C1.10358 0.51712 0.990234 0.7909 0.990234 1.07637V9.42363C0.990234 9.7091 1.10358 9.98288 1.30533 10.1847C1.50709 10.3866 1.78073 10.5 2.06605 10.5H10.4144C10.6997 10.5 10.9734 10.3866 11.1751 10.1847C11.3769 9.98288 11.4902 9.7091 11.4902 9.42363V6.08688C11.4902 6.03342 11.4796 5.98048 11.459 5.93116C11.4384 5.88183 11.4082 5.8371 11.3702 5.79954C11.3321 5.76199 11.287 5.73237 11.2375 5.71241C11.1879 5.69244 11.1349 5.68253 11.0814 5.68324V5.68324Z" fill="url(#paint3_linear)" fill-opacity="0.15"/>
<defs>
<linearGradient id="paint0_linear" x1="11.9038" y1="-1.19209" x2="5.28667" y2="0.235706" gradientUnits="userSpaceOnUse">
<stop stop-color="#4300D3"/>
<stop offset="1" stop-color="#4300D3" stop-opacity="0"/>
</linearGradient>
<linearGradient id="paint1_linear" x1="5.91245" y1="-2.35536e-07" x2="12.0193" y2="1.48037" gradientUnits="userSpaceOnUse">
<stop stop-color="#FF0F13"/>
<stop offset="1" stop-color="#BF0020" stop-opacity="0"/>
</linearGradient>
<linearGradient id="paint2_linear" x1="12.4061" y1="-2.3625" x2="-0.707901" y2="0.467126" gradientUnits="userSpaceOnUse">
<stop stop-color="#4300D3"/>
<stop offset="1" stop-color="#4300D3" stop-opacity="0"/>
</linearGradient>
<linearGradient id="paint3_linear" x1="0.532291" y1="-4.6679e-07" x2="12.635" y2="2.93383" gradientUnits="userSpaceOnUse">
<stop stop-color="#FF0F13"/>
<stop offset="1" stop-color="#BF0020" stop-opacity="0"/>
</linearGradient>
</defs>
</svg>
