<svg fill="none" height="17" width="147" xmlns="http://www.w3.org/2000/svg"><path d="M10.5 16.094c4.213-2.037 7.01-4.323 8.436-6.67 1.207-1.988 1.358-3.926.6-5.52-.688-1.449-2.087-2.482-3.697-2.749-1.72-.284-3.469.324-4.856 1.828l-.483.525-.483-.525C8.63 1.48 6.88.871 5.16 1.155c-1.61.267-3.009 1.3-3.697 2.748-.758 1.595-.608 3.533.6 5.52 1.425 2.348 4.223 4.634 8.436 6.671z" fill="#fff" stroke="#bf0020" stroke-linecap="round" stroke-linejoin="round" stroke-width="1.558"/><path d="M10.071 10.367l-1.146.59a.242.242 0 0 1-.323-.1.23.23 0 0 1-.025-.148l.22-1.247a.888.888 0 0 0-.266-.797l-.927-.884A.23.23 0 0 1 7.6 7.45a.242.242 0 0 1 .137-.068L9.018 7.2a.92.92 0 0 0 .694-.493l.573-1.135a.242.242 0 0 1 .43 0l.573 1.135a.92.92 0 0 0 .694.493l1.282.182a.235.235 0 0 1 .203.265.233.233 0 0 1-.07.134l-.928.884a.888.888 0 0 0-.265.797l.219 1.247a.235.235 0 0 1-.196.27.245.245 0 0 1-.152-.023l-1.146-.589a.94.94 0 0 0-.858 0z" fill="#0027dc"/><g fill="#5c00c7"><path d="M33.67 8.054h5.985c0 .615-.026 1.174-.077 1.677-.051.503-.154.97-.308 1.4a5.702 5.702 0 0 1-.877 1.616c-.37.461-.805.851-1.308 1.169-.492.308-1.036.544-1.63.708s-1.221.246-1.878.246c-.902 0-1.728-.149-2.477-.446a5.649 5.649 0 0 1-1.908-1.246 5.78 5.78 0 0 1-1.246-1.94c-.297-.758-.446-1.594-.446-2.507 0-.903.144-1.728.43-2.477a5.583 5.583 0 0 1 1.247-1.939 5.745 5.745 0 0 1 1.954-1.246c.76-.297 1.605-.446 2.539-.446 1.21 0 2.272.261 3.185.784s1.636 1.334 2.169 2.431l-2.862 1.185c-.266-.636-.615-1.092-1.046-1.37a2.57 2.57 0 0 0-1.446-.415c-.452 0-.862.088-1.231.262-.37.164-.687.405-.954.723a3.574 3.574 0 0 0-.615 1.123 4.755 4.755 0 0 0-.216 1.477c0 .493.062.95.185 1.37.133.42.328.784.584 1.092s.575.549.954.723c.38.164.82.246 1.324.246.297 0 .584-.03.861-.092a2.41 2.41 0 0 0 .739-.323c.225-.154.41-.349.554-.585s.24-.523.292-.861H33.67zm11.291.692c0 .462.087.888.262 1.277.174.39.41.729.707 1.016s.642.513 1.031.677c.4.154.82.23 1.262.23.44 0 .856-.076 1.246-.23.4-.164.749-.39 1.046-.677a3.091 3.091 0 0 0 .985-2.292 3.09 3.09 0 0 0-.985-2.293 3.08 3.08 0 0 0-1.046-.662 3.178 3.178 0 0 0-1.246-.246c-.441 0-.862.082-1.262.246-.39.154-.733.375-1.03.662s-.534.626-.708 1.015a3.09 3.09 0 0 0-.262 1.277zm-3.154 0c0-.861.159-1.661.477-2.4.318-.749.759-1.4 1.323-1.954A5.967 5.967 0 0 1 45.623 3.1c.79-.318 1.656-.477 2.6-.477.933 0 1.795.159 2.585.477.79.307 1.466.738 2.03 1.292a6.004 6.004 0 0 1 1.816 4.354c0 .862-.159 1.667-.477 2.416A5.916 5.916 0 0 1 52.84 13.1a6.126 6.126 0 0 1-2.031 1.308 7.06 7.06 0 0 1-2.585.462c-.944 0-1.81-.154-2.6-.462a6.164 6.164 0 0 1-2.016-1.307 6.03 6.03 0 0 1-1.323-1.94 6.115 6.115 0 0 1-.477-2.415zm18.152 0c0 .462.087.888.262 1.277.174.39.41.729.708 1.016a3.33 3.33 0 0 0 1.03.677c.4.154.821.23 1.262.23.441 0 .856-.076 1.246-.23.4-.164.75-.39 1.046-.677a3.091 3.091 0 0 0 .985-2.292 3.09 3.09 0 0 0-.984-2.293 3.08 3.08 0 0 0-1.047-.662 3.179 3.179 0 0 0-1.246-.246c-.441 0-.862.082-1.262.246-.39.154-.733.375-1.03.662a3.229 3.229 0 0 0-.708 1.015c-.174.39-.262.816-.262 1.277zm-3.154 0c0-.861.16-1.661.477-2.4.318-.749.76-1.4 1.323-1.954A5.967 5.967 0 0 1 60.621 3.1c.79-.318 1.656-.477 2.6-.477.934 0 1.795.159 2.585.477.79.307 1.467.738 2.03 1.292a6.006 6.006 0 0 1 1.816 4.354c0 .862-.159 1.667-.477 2.416a5.916 5.916 0 0 1-1.338 1.938 6.126 6.126 0 0 1-2.031 1.308 7.06 7.06 0 0 1-2.585.462c-.944 0-1.81-.154-2.6-.462a6.164 6.164 0 0 1-2.016-1.307 6.033 6.033 0 0 1-1.323-1.94 6.116 6.116 0 0 1-.477-2.415zm18.537 3.247h.692c.524 0 .99-.082 1.4-.246a2.91 2.91 0 0 0 1.678-1.693c.154-.4.23-.836.23-1.308 0-.461-.077-.892-.23-1.292a2.92 2.92 0 0 0-.662-1.03 2.91 2.91 0 0 0-1.03-.678 3.701 3.701 0 0 0-1.386-.246h-.692zm-3.015-9.047h4.461c.79 0 1.529.159 2.216.477A5.867 5.867 0 0 1 80.819 4.7a5.711 5.711 0 0 1 1.231 1.846 5.55 5.55 0 0 1 .447 2.2c0 .76-.15 1.493-.447 2.2a5.724 5.724 0 0 1-1.215 1.847 5.865 5.865 0 0 1-1.816 1.277 5.247 5.247 0 0 1-2.23.477h-4.463zm21.878 5.323h1c1.108 0 1.662-.482 1.662-1.446s-.554-1.446-1.662-1.446h-1zm0 6.278h-3.016V2.946h4.8c1.303 0 2.298.338 2.985 1.015.698.677 1.047 1.631 1.047 2.862s-.35 2.185-1.047 2.862c-.687.677-1.682 1.015-2.985 1.015h-1.784zm13.843-4.308l-1.354-3.862-1.354 3.862zm.8 2.292h-4.308l-.692 2.016h-3.216l4.416-11.601h3.292l4.416 11.6h-3.216zm9.012-4.4h.57c.595 0 1.051-.123 1.369-.37.318-.246.477-.6.477-1.061 0-.462-.159-.815-.477-1.062-.318-.246-.774-.369-1.369-.369h-.57zm6.632 6.416h-3.754l-2.878-4.462v4.462h-3.015V2.946h4.692c.647 0 1.211.097 1.693.292.482.185.877.441 1.185.77.318.328.554.707.707 1.138.164.43.247.892.247 1.385 0 .882-.216 1.6-.647 2.154-.42.543-1.046.913-1.877 1.108zm6.446-9.047v9.047h-3.016V5.5h-2.477V2.946h7.97V5.5zm8.139 3.477l-4.231-6.031h3.6l2.154 3.17 2.139-3.17h3.6l-4.246 6.031v5.57h-3.016z"/></g></svg>