<svg fill="none" height="17" viewBox="0 0 147 17" width="147" xmlns="http://www.w3.org/2000/svg"><path d="m10.5 16.0943c4.2127-2.0377 7.0108-4.323 8.4364-6.67052 1.2071-1.98782 1.3574-3.92603.5995-5.52053-.6882-1.44778-2.0864-2.48154-3.697-2.7479-1.719-.284307-3.4685.32329-4.8555 1.828l-.4834.52446-.4834-.52446c-1.387-1.50471-3.13645-2.112307-4.85552-1.828-1.61056.26636-3.00877 1.30012-3.69698 2.7479-.757943 1.5945-.60762 3.53271.59953 5.52053 1.42559 2.34752 4.22371 4.63282 8.43637 6.67052z" fill="#fff" stroke="#bf0020" stroke-linecap="round" stroke-linejoin="round" stroke-width="1.55798"/><path d="m10.0712 10.3673-1.14605.5889c-.11713.0601-.26201.0162-.32362-.0983-.02453-.0455-.033-.0977-.02409-.1485l.21899-1.24786c.05124-.29201-.04783-.58995-.26494-.79679l-.92767-.88376c-.09474-.09027-.09665-.23848-.00426-.33105.03677-.03684.08495-.06082.13708-.06823l1.28163-.18201c.30021-.04263.55971-.22687.69393-.49266l.5731-1.13501c.0586-.11595.2023-.16357.3209-.10637.0473.02279.0856.06018.1089.10637l.5732 1.13501c.1342.26579.3937.45003.6939.49266l1.2816.18201c.131.0186.2217.1374.2027.26535-.0076.05093-.0322.098-.0699.13393l-.9276.88376c-.2171.20684-.3162.50478-.265.79679l.219 1.24786c.0224.1274-.0652.2485-.1957.2703-.0519.0087-.1053.0004-.152-.0235l-1.1461-.5889c-.2685-.138-.5894-.138-.858 0z" fill="#0027dc"/><g fill="#5c00c7"><path d="m33.6697 8.05398h5.9851c0 .61543-.0256 1.17445-.0769 1.67705-.0513.50257-.1539.96927-.3078 1.40007-.2154.6052-.5077 1.1437-.8769 1.6156-.3693.4615-.8052.8513-1.3078 1.1693-.4924.3077-1.036.5436-1.6309.7077s-1.2206.2462-1.8771.2462c-.9026 0-1.7283-.1487-2.4771-.4462-.7385-.2975-1.3745-.7129-1.9079-1.2462-.5333-.5437-.9488-1.1899-1.2462-1.9387-.2975-.759-.4462-1.59495-.4462-2.50785 0-.90263.1436-1.72834.4308-2.47711.2975-.75904.7129-1.40524 1.2463-1.93862.5436-.53337 1.1949-.94879 1.954-1.24625.759-.29746 1.6052-.44619 2.5386-.44619 1.2104 0 2.272.26156 3.1849.78468s1.636 1.33344 2.1694 2.43096l-2.8618 1.18471c-.2667-.63595-.6154-1.09239-1.0462-1.36934-.4206-.27694-.9027-.41542-1.4463-.41542-.4513 0-.8616.08719-1.2309.26156-.3692.16412-.6872.40516-.9539.72314-.2564.30771-.4615.6821-.6154 1.12316-.1436.44106-.2154.93341-.2154 1.47704 0 .49235.0615.94879.1846 1.36933.1334.4206.3283.7847.5847 1.0924s.5744.5488.9539.7231c.3795.1641.8206.2462 1.3232.2462.2974 0 .5846-.0308.8616-.0923.2769-.0718.5231-.1795.7385-.3231.2257-.1539.4103-.3488.5539-.5847s.241-.5231.2923-.8616h-2.4771z"/><path d="m44.9611 8.74634c0 .46157.0872.88725.2616 1.27706.1743.3897.4102.7282.7077 1.0154s.6411.5129 1.0309.677c.4.1539.8205.2308 1.2616.2308.441 0 .8565-.0769 1.2462-.2308.4001-.1641.7488-.3898 1.0463-.677.3077-.2872.5487-.6257.7231-1.0154.1744-.38981.2616-.81549.2616-1.27706s-.0872-.88725-.2616-1.27702c-.1744-.38978-.4154-.72827-.7231-1.01547-.2975-.2872-.6462-.50773-1.0463-.66159-.3897-.16411-.8052-.24617-1.2462-.24617-.4411 0-.8616.08206-1.2616.24617-.3898.15386-.7334.37439-1.0309.66159s-.5334.62569-.7077 1.01547c-.1744.38977-.2616.81545-.2616 1.27702zm-3.1541 0c0-.86161.159-1.66167.477-2.40019.3179-.74877.759-1.40011 1.3231-1.954.5642-.55389 1.236-.98469 2.0156-1.29241.7898-.31797 1.6565-.47696 2.6002-.47696.9334 0 1.795.15899 2.5848.47696.7898.30772 1.4668.73852 2.0309 1.29241.5744.55389 1.0206 1.20523 1.3386 1.954.318.73852.477 1.53858.477 2.40019s-.159 1.66676-.477 2.41556c-.318.7385-.7642 1.3847-1.3386 1.9386-.5641.5539-1.2411.9898-2.0309 1.3078-.7898.3077-1.6514.4616-2.5848.4616-.9437 0-1.8104-.1539-2.6002-.4616-.7796-.318-1.4514-.7539-2.0156-1.3078-.5641-.5539-1.0052-1.2001-1.3231-1.9386-.318-.7488-.477-1.55395-.477-2.41556z"/><path d="m59.9593 8.74634c0 .46157.0872.88725.2615 1.27706.1744.3897.4103.7282.7078 1.0154.2974.2872.6411.5129 1.0308.677.4001.1539.8206.2308 1.2617.2308.441 0 .8564-.0769 1.2462-.2308.4-.1641.7488-.3898 1.0462-.677.3078-.2872.5488-.6257.7232-1.0154.1744-.38981.2615-.81549.2615-1.27706s-.0871-.88725-.2615-1.27702c-.1744-.38978-.4154-.72827-.7232-1.01547-.2974-.2872-.6462-.50773-1.0462-.66159-.3898-.16411-.8052-.24617-1.2462-.24617-.4411 0-.8616.08206-1.2617.24617-.3897.15386-.7334.37439-1.0308.66159-.2975.2872-.5334.62569-.7078 1.01547-.1743.38977-.2615.81545-.2615 1.27702zm-3.1541 0c0-.86161.159-1.66167.4769-2.40019.318-.74877.7591-1.40011 1.3232-1.954.5642-.55389 1.236-.98469 2.0156-1.29241.7898-.31797 1.6565-.47696 2.6002-.47696.9334 0 1.795.15899 2.5848.47696.7898.30772 1.4668.73852 2.0309 1.29241.5744.55389 1.0206 1.20523 1.3386 1.954.3179.73852.4769 1.53858.4769 2.40019s-.159 1.66676-.4769 2.41556c-.318.7385-.7642 1.3847-1.3386 1.9386-.5641.5539-1.2411.9898-2.0309 1.3078-.7898.3077-1.6514.4616-2.5848.4616-.9437 0-1.8104-.1539-2.6002-.4616-.7796-.318-1.4514-.7539-2.0156-1.3078-.5641-.5539-1.0052-1.2001-1.3232-1.9386-.3179-.7488-.4769-1.55395-.4769-2.41556z"/><path d="m75.3421 11.9927h.6923c.5232 0 .9899-.082 1.4002-.2461.4102-.1641.7539-.3898 1.0308-.677.2872-.2872.5026-.6257.6462-1.0155.1539-.4.2308-.83593.2308-1.30776 0-.46157-.0769-.89238-.2308-1.29241-.1538-.40003-.3744-.74365-.6616-1.03085-.2769-.2872-.6205-.51286-1.0308-.67698-.4103-.16411-.8719-.24617-1.3848-.24617h-.6923zm-3.0156-9.04681h4.4619c.7898 0 1.5283.15898 2.2155.47696.6975.31797 1.3027.74364 1.8155 1.27702.5231.52312.9334 1.13855 1.2309 1.8463.2975.69749.4462 1.43088.4462 2.20017 0 .75903-.1487 1.49246-.4462 2.20016-.2872.6975-.6924 1.3129-1.2155 1.8463-.5128.5334-1.118.9591-1.8155 1.277-.6872.318-1.4309.477-2.2309.477h-4.4619z"/><path d="m94.2047 8.26938h1.0001c1.1078 0 1.6617-.48209 1.6617-1.44627s-.5539-1.44626-1.6617-1.44626h-1.0001zm0 6.27742h-3.0156v-11.60091h4.8004c1.3027 0 2.2976.33848 2.9848 1.01546.6975.67698 1.0467 1.6309 1.0467 2.86176 0 1.23087-.3492 2.18479-1.0467 2.86176-.6872.67703-1.6821 1.01543-2.9848 1.01543h-1.7848z"/><path d="m108.048 10.2388-1.354-3.86188-1.354 3.86188zm.8 2.2925h-4.308l-.692 2.0155h-3.216l4.416-11.60091h3.292l4.416 11.60091h-3.216z"/><path d="m117.86 8.13091h.57c.595 0 1.051-.12309 1.369-.36926.318-.24618.477-.60005.477-1.06162 0-.46158-.159-.81545-.477-1.06163-.318-.24617-.774-.36926-1.369-.36926h-.57zm6.632 6.41589h-3.754l-2.878-4.4619v4.4619h-3.015v-11.60091h4.692c.647 0 1.211.09744 1.693.29233.482.18463.877.44106 1.185.76929.318.32823.554.70774.707 1.13855.164.4308.247.89238.247 1.38472 0 .88212-.216 1.60013-.647 2.15402-.42.54363-1.046.91289-1.877 1.10778z"/><path d="m130.938 5.49993v9.04687h-3.016v-9.04687h-2.477v-2.55404h7.97v2.55404z"/><path d="m139.077 8.97713-4.231-6.03124h3.6l2.154 3.16947 2.139-3.16947h3.6l-4.246 6.03124v5.56967h-3.016z"/></g></svg>