<svg width="186" height="17" viewBox="0 0 186 17" fill="none" xmlns="http://www.w3.org/2000/svg">
<path d="M10.3695 15.8881C14.5244 13.8784 17.2841 11.6245 18.6901 9.30919C19.8806 7.34867 20.0289 5.43707 19.2814 3.86446C18.6026 2.43656 17.2236 1.417 15.6352 1.1543C13.9397 0.873892 12.2143 1.47314 10.8463 2.9572L10.3695 3.47445L9.89277 2.9572C8.52484 1.47314 6.7994 0.873892 5.10394 1.1543C3.5155 1.417 2.13648 2.43656 1.45773 3.86446C0.710192 5.43707 0.858451 7.34867 2.04902 9.30919C3.45504 11.6245 6.21473 13.8784 10.3695 15.8881Z" fill="white" stroke="#BF0020" stroke-width="1.55798" stroke-linecap="round" stroke-linejoin="round"/>
<path d="M9.94668 10.2397L8.81633 10.8205C8.70081 10.8799 8.55791 10.8365 8.49716 10.7237C8.47296 10.6787 8.46461 10.6272 8.47339 10.5772L8.68937 9.34643C8.73991 9.05843 8.6422 8.76458 8.42807 8.56058L7.51315 7.68895C7.4197 7.59992 7.41782 7.45375 7.50894 7.36245C7.54521 7.32611 7.59273 7.30246 7.64414 7.29516L8.90817 7.11565C9.20425 7.0736 9.4602 6.89189 9.59257 6.62975L10.1578 5.51033C10.2156 5.39597 10.3573 5.349 10.4743 5.40542C10.521 5.4279 10.5587 5.46477 10.5817 5.51033L11.147 6.62975C11.2794 6.89189 11.5353 7.0736 11.8314 7.11565L13.0954 7.29516C13.2246 7.3135 13.3141 7.43067 13.2953 7.55686C13.2878 7.60709 13.2636 7.65351 13.2264 7.68895L12.3115 8.56058C12.0974 8.76458 11.9996 9.05843 12.0502 9.34643L12.2662 10.5772C12.2882 10.7028 12.2018 10.8222 12.0732 10.8437C12.0219 10.8523 11.9692 10.8442 11.9232 10.8205L10.7929 10.2397C10.528 10.1036 10.2115 10.1036 9.94668 10.2397Z" fill="#0027DC"/>
<path d="M33.9685 5.49981V14.5467H30.9529V5.49981H28.4758V2.94576H36.4456V5.49981H33.9685Z" fill="#5C00C7"/>
<path d="M41.5719 7.42304H45.9261V2.94576H48.9417V14.5467H45.9261V9.76168H41.5719V14.5467H38.5562V2.94576H41.5719V7.42304Z" fill="#5C00C7"/>
<path d="M58.7426 5.49981H55.1577V7.43842H58.5425V9.99247H55.1577V11.9926H58.7426V14.5467H52.142V2.94576H58.7426V5.49981Z" fill="#5C00C7"/>
<path d="M73.3307 8.05386H79.3158C79.3158 8.66929 79.2902 9.22831 79.2389 9.73091C79.1876 10.2335 79.085 10.7002 78.9312 11.131C78.7158 11.7362 78.4234 12.2747 78.0542 12.7465C77.6849 13.2081 77.249 13.5979 76.7464 13.9159C76.254 14.2236 75.7104 14.4595 75.1155 14.6236C74.5206 14.7877 73.8949 14.8698 73.2384 14.8698C72.3358 14.8698 71.5101 14.721 70.7613 14.4236C70.0228 14.1261 69.3868 13.7107 68.8534 13.1773C68.3201 12.6337 67.9047 11.9875 67.6072 11.2387C67.3097 10.4797 67.161 9.64372 67.161 8.73083C67.161 7.8282 67.3046 7.00249 67.5918 6.25372C67.8893 5.49468 68.3047 4.84848 68.8381 4.3151C69.3817 3.78173 70.033 3.36631 70.7921 3.06885C71.5511 2.77139 72.3973 2.62266 73.3307 2.62266C74.5411 2.62266 75.6027 2.88422 76.5156 3.40734C77.4285 3.93046 78.1516 4.74078 78.685 5.8383L75.8232 7.02301C75.5565 6.38706 75.2078 5.93061 74.777 5.65367C74.3564 5.37672 73.8744 5.23825 73.3307 5.23825C72.8794 5.23825 72.4691 5.32544 72.0998 5.49981C71.7306 5.66393 71.4126 5.90497 71.1459 6.22294C70.8895 6.53066 70.6844 6.90505 70.5305 7.34611C70.3869 7.78717 70.3151 8.27951 70.3151 8.82315C70.3151 9.31549 70.3766 9.77194 70.4997 10.1925C70.6331 10.613 70.828 10.9772 71.0844 11.2849C71.3408 11.5926 71.6588 11.8336 72.0383 12.008C72.4178 12.1721 72.8589 12.2542 73.3615 12.2542C73.6589 12.2542 73.9462 12.2234 74.2231 12.1619C74.5 12.0901 74.7462 11.9824 74.9616 11.8388C75.1873 11.6849 75.3719 11.49 75.5155 11.2541C75.6591 11.0182 75.7565 10.731 75.8078 10.3925H73.3307V8.05386Z" fill="#5C00C7"/>
<path d="M84.6221 8.74622C84.6221 9.20779 84.7093 9.63347 84.8837 10.0232C85.058 10.413 85.294 10.7515 85.5914 11.0387C85.8889 11.3259 86.2325 11.5516 86.6223 11.7157C87.0223 11.8695 87.4428 11.9465 87.8839 11.9465C88.325 11.9465 88.7404 11.8695 89.1301 11.7157C89.5302 11.5516 89.8789 11.3259 90.1764 11.0387C90.4841 10.7515 90.7251 10.413 90.8995 10.0232C91.0739 9.63347 91.1611 9.20779 91.1611 8.74622C91.1611 8.28464 91.0739 7.85897 90.8995 7.46919C90.7251 7.07942 90.4841 6.74093 90.1764 6.45373C89.8789 6.16653 89.5302 5.946 89.1301 5.79214C88.7404 5.62803 88.325 5.54597 87.8839 5.54597C87.4428 5.54597 87.0223 5.62803 86.6223 5.79214C86.2325 5.946 85.8889 6.16653 85.5914 6.45373C85.294 6.74093 85.058 7.07942 84.8837 7.46919C84.7093 7.85897 84.6221 8.28464 84.6221 8.74622ZM81.468 8.74622C81.468 7.88461 81.627 7.08455 81.945 6.34603C82.2629 5.59725 82.704 4.94592 83.2681 4.39203C83.8323 3.83814 84.5041 3.40734 85.2837 3.09962C86.0735 2.78165 86.9402 2.62266 87.8839 2.62266C88.8173 2.62266 89.6789 2.78165 90.4687 3.09962C91.2585 3.40734 91.9355 3.83814 92.4996 4.39203C93.0741 4.94592 93.5202 5.59725 93.8382 6.34603C94.1562 7.08455 94.3152 7.88461 94.3152 8.74622C94.3152 9.60782 94.1562 10.413 93.8382 11.1618C93.5202 11.9003 93.0741 12.5465 92.4996 13.1004C91.9355 13.6543 91.2585 14.0902 90.4687 14.4082C89.6789 14.7159 88.8173 14.8698 87.8839 14.8698C86.9402 14.8698 86.0735 14.7159 85.2837 14.4082C84.5041 14.0902 83.8323 13.6543 83.2681 13.1004C82.704 12.5465 82.2629 11.9003 81.945 11.1618C81.627 10.413 81.468 9.60782 81.468 8.74622Z" fill="#5C00C7"/>
<path d="M99.6203 8.74622C99.6203 9.20779 99.7075 9.63347 99.8818 10.0232C100.056 10.413 100.292 10.7515 100.59 11.0387C100.887 11.3259 101.231 11.5516 101.62 11.7157C102.02 11.8695 102.441 11.9465 102.882 11.9465C103.323 11.9465 103.739 11.8695 104.128 11.7157C104.528 11.5516 104.877 11.3259 105.175 11.0387C105.482 10.7515 105.723 10.413 105.898 10.0232C106.072 9.63347 106.159 9.20779 106.159 8.74622C106.159 8.28464 106.072 7.85897 105.898 7.46919C105.723 7.07942 105.482 6.74093 105.175 6.45373C104.877 6.16653 104.528 5.946 104.128 5.79214C103.739 5.62803 103.323 5.54597 102.882 5.54597C102.441 5.54597 102.02 5.62803 101.62 5.79214C101.231 5.946 100.887 6.16653 100.59 6.45373C100.292 6.74093 100.056 7.07942 99.8818 7.46919C99.7075 7.85897 99.6203 8.28464 99.6203 8.74622ZM96.4662 8.74622C96.4662 7.88461 96.6252 7.08455 96.9431 6.34603C97.2611 5.59725 97.7022 4.94592 98.2663 4.39203C98.8305 3.83814 99.5023 3.40734 100.282 3.09962C101.072 2.78165 101.938 2.62266 102.882 2.62266C103.815 2.62266 104.677 2.78165 105.467 3.09962C106.257 3.40734 106.934 3.83814 107.498 4.39203C108.072 4.94592 108.518 5.59725 108.836 6.34603C109.154 7.08455 109.313 7.88461 109.313 8.74622C109.313 9.60782 109.154 10.413 108.836 11.1618C108.518 11.9003 108.072 12.5465 107.498 13.1004C106.934 13.6543 106.257 14.0902 105.467 14.4082C104.677 14.7159 103.815 14.8698 102.882 14.8698C101.938 14.8698 101.072 14.7159 100.282 14.4082C99.5023 14.0902 98.8305 13.6543 98.2663 13.1004C97.7022 12.5465 97.2611 11.9003 96.9431 11.1618C96.6252 10.413 96.4662 9.60782 96.4662 8.74622Z" fill="#5C00C7"/>
<path d="M115.003 11.9926H115.695C116.219 11.9926 116.685 11.9106 117.096 11.7465C117.506 11.5823 117.849 11.3567 118.126 11.0695C118.414 10.7823 118.629 10.4438 118.773 10.054C118.926 9.65398 119.003 9.21805 119.003 8.74622C119.003 8.28464 118.926 7.85384 118.773 7.45381C118.619 7.05378 118.398 6.71016 118.111 6.42296C117.834 6.13576 117.49 5.9101 117.08 5.74598C116.67 5.58187 116.208 5.49981 115.695 5.49981H115.003V11.9926ZM111.987 2.94576H116.449C117.239 2.94576 117.978 3.10475 118.665 3.42272C119.362 3.7407 119.968 4.16637 120.48 4.69975C121.004 5.22287 121.414 5.8383 121.711 6.54605C122.009 7.24354 122.157 7.97693 122.157 8.74622C122.157 9.50525 122.009 10.2386 121.711 10.9464C121.424 11.6439 121.019 12.2593 120.496 12.7927C119.983 13.3261 119.378 13.7517 118.68 14.0697C117.993 14.3877 117.249 14.5467 116.449 14.5467H111.987V2.94576Z" fill="#5C00C7"/>
<path d="M133.866 8.26926H134.866C135.974 8.26926 136.527 7.78717 136.527 6.82299C136.527 5.85881 135.974 5.37672 134.866 5.37672H133.866V8.26926ZM133.866 14.5467H130.85V2.94576H135.65C136.953 2.94576 137.948 3.28425 138.635 3.96123C139.333 4.6382 139.682 5.59212 139.682 6.82299C139.682 8.05386 139.333 9.00778 138.635 9.68475C137.948 10.3617 136.953 10.7002 135.65 10.7002H133.866V14.5467Z" fill="#5C00C7"/>
<path d="M147.709 10.2386L146.355 6.3768L145.001 10.2386H147.709ZM148.509 12.5311H144.201L143.509 14.5467H140.293L144.709 2.94576H148.001L152.417 14.5467H149.201L148.509 12.5311Z" fill="#5C00C7"/>
<path d="M157.521 8.13078H158.091C158.686 8.13078 159.142 8.0077 159.46 7.76153C159.778 7.51535 159.937 7.16148 159.937 6.6999C159.937 6.23833 159.778 5.88446 159.46 5.63828C159.142 5.39211 158.686 5.26902 158.091 5.26902H157.521V8.13078ZM164.153 14.5467H160.399L157.521 10.0848V14.5467H154.506V2.94576H159.198C159.845 2.94576 160.409 3.04321 160.891 3.23809C161.373 3.42272 161.768 3.67915 162.076 4.00739C162.394 4.33562 162.63 4.71513 162.783 5.14594C162.948 5.57674 163.03 6.03831 163.03 6.53066C163.03 7.41278 162.814 8.13078 162.383 8.68467C161.963 9.22831 161.337 9.59757 160.506 9.79245L164.153 14.5467Z" fill="#5C00C7"/>
<path d="M170.599 5.49981V14.5467H167.583V5.49981H165.106V2.94576H173.076V5.49981H170.599Z" fill="#5C00C7"/>
<path d="M178.738 8.97701L174.507 2.94576H178.107L180.261 6.11524L182.4 2.94576H186L181.754 8.97701V14.5467H178.738V8.97701Z" fill="#5C00C7"/>
</svg>
