<svg width="147" height="17" viewBox="0 0 147 17" fill="none" xmlns="http://www.w3.org/2000/svg">
  <path d="M10.5 16.0943C14.7127 14.0566 17.5108 11.7713 18.9364 9.42378C20.1435 7.43596 20.2938 5.49775 19.5359 3.90325C18.8477 2.45547 17.4495 1.42171 15.8389 1.15535C14.1199 0.871043 12.3704 1.47864 10.9834 2.98335L10.5 3.50781L10.0166 2.98335C8.6296 1.47864 6.88015 0.871043 5.16108 1.15535C3.55052 1.42171 2.15231 2.45547 1.4641 3.90325C0.706157 5.49775 0.85648 7.43596 2.06363 9.42378C3.48922 11.7713 6.28734 14.0566 10.5 16.0943Z" fill="white" stroke="#BF0020" stroke-width="1.55798" stroke-linecap="round" stroke-linejoin="round"/>
  <path d="M10.0712 10.3672L8.92515 10.9561C8.80802 11.0163 8.66314 10.9723 8.60153 10.8579C8.577 10.8123 8.56853 10.7601 8.57744 10.7094L8.79643 9.46149C8.84767 9.16949 8.7486 8.87154 8.53149 8.66471L7.60382 7.78094C7.50908 7.69068 7.50717 7.54246 7.59956 7.4499C7.63633 7.41305 7.68451 7.38907 7.73664 7.38167L9.01827 7.19966C9.31848 7.15702 9.57798 6.97278 9.7122 6.70699L10.2853 5.57199C10.3439 5.45604 10.4876 5.40841 10.6062 5.46562C10.6535 5.48841 10.6918 5.52579 10.7151 5.57199L11.2883 6.70699C11.4225 6.97278 11.682 7.15702 11.9822 7.19966L13.2638 7.38167C13.3948 7.40027 13.4855 7.51906 13.4665 7.64701C13.4589 7.69794 13.4343 7.74501 13.3966 7.78094L12.469 8.66471C12.2519 8.87154 12.1528 9.16949 12.204 9.46149L12.423 10.7094C12.4454 10.8368 12.3578 10.9578 12.2273 10.9797C12.1754 10.9884 12.122 10.9801 12.0753 10.9561L10.9292 10.3672C10.6607 10.2292 10.3398 10.2292 10.0712 10.3672Z" fill="#0027DC"/>
  <path d="M33.6697 8.054H39.6548C39.6548 8.66943 39.6292 9.22845 39.5779 9.73105C39.5266 10.2337 39.424 10.7004 39.2701 11.1312C39.0547 11.7363 38.7624 12.2748 38.3932 12.7467C38.0239 13.2082 37.588 13.598 37.0854 13.916C36.593 14.2237 36.0494 14.4596 35.4545 14.6237C34.8596 14.7879 34.2339 14.8699 33.5774 14.8699C32.6748 14.8699 31.8491 14.7212 31.1003 14.4237C30.3618 14.1263 29.7258 13.7108 29.1924 13.1775C28.6591 12.6338 28.2436 11.9876 27.9462 11.2389C27.6487 10.4798 27.5 9.64387 27.5 8.73097C27.5 7.82834 27.6436 7.00263 27.9308 6.25386C28.2283 5.49482 28.6437 4.84862 29.1771 4.31524C29.7207 3.78187 30.372 3.36645 31.1311 3.06899C31.8901 2.77153 32.7363 2.6228 33.6697 2.6228C34.8801 2.6228 35.9417 2.88436 36.8546 3.40748C37.7675 3.9306 38.4906 4.74092 39.024 5.83844L36.1622 7.02315C35.8955 6.3872 35.5468 5.93075 35.116 5.65381C34.6954 5.37686 34.2133 5.23839 33.6697 5.23839C33.2184 5.23839 32.8081 5.32558 32.4388 5.49995C32.0696 5.66407 31.7516 5.90511 31.4849 6.22308C31.2285 6.5308 31.0234 6.90519 30.8695 7.34625C30.7259 7.78731 30.6541 8.27966 30.6541 8.82329C30.6541 9.31563 30.7156 9.77208 30.8387 10.1926C30.9721 10.6132 31.167 10.9773 31.4234 11.285C31.6798 11.5927 31.9978 11.8338 32.3773 12.0082C32.7568 12.1723 33.1979 12.2543 33.7005 12.2543C33.9979 12.2543 34.2851 12.2236 34.5621 12.162C34.839 12.0902 35.0852 11.9825 35.3006 11.8389C35.5263 11.6851 35.7109 11.4902 35.8545 11.2542C35.9981 11.0183 36.0955 10.7311 36.1468 10.3926H33.6697V8.054Z" fill="white"/>
  <path d="M44.9611 8.74636C44.9611 9.20793 45.0483 9.63361 45.2227 10.0234C45.397 10.4132 45.6329 10.7516 45.9304 11.0388C46.2279 11.326 46.5715 11.5517 46.9613 11.7158C47.3613 11.8697 47.7818 11.9466 48.2229 11.9466C48.6639 11.9466 49.0794 11.8697 49.4691 11.7158C49.8692 11.5517 50.2179 11.326 50.5154 11.0388C50.8231 10.7516 51.0641 10.4132 51.2385 10.0234C51.4129 9.63361 51.5001 9.20793 51.5001 8.74636C51.5001 8.28478 51.4129 7.85911 51.2385 7.46934C51.0641 7.07956 50.8231 6.74107 50.5154 6.45387C50.2179 6.16667 49.8692 5.94614 49.4691 5.79228C49.0794 5.62817 48.6639 5.54611 48.2229 5.54611C47.7818 5.54611 47.3613 5.62817 46.9613 5.79228C46.5715 5.94614 46.2279 6.16667 45.9304 6.45387C45.6329 6.74107 45.397 7.07956 45.2227 7.46934C45.0483 7.85911 44.9611 8.28478 44.9611 8.74636ZM41.807 8.74636C41.807 7.88475 41.966 7.08469 42.284 6.34617C42.6019 5.59739 43.043 4.94606 43.6071 4.39217C44.1713 3.83828 44.8431 3.40748 45.6227 3.09976C46.4125 2.78179 47.2792 2.6228 48.2229 2.6228C49.1563 2.6228 50.0179 2.78179 50.8077 3.09976C51.5975 3.40748 52.2745 3.83828 52.8386 4.39217C53.413 4.94606 53.8592 5.59739 54.1772 6.34617C54.4952 7.08469 54.6542 7.88475 54.6542 8.74636C54.6542 9.60796 54.4952 10.4132 54.1772 11.1619C53.8592 11.9005 53.413 12.5467 52.8386 13.1005C52.2745 13.6544 51.5975 14.0904 50.8077 14.4083C50.0179 14.7161 49.1563 14.8699 48.2229 14.8699C47.2792 14.8699 46.4125 14.7161 45.6227 14.4083C44.8431 14.0904 44.1713 13.6544 43.6071 13.1005C43.043 12.5467 42.6019 11.9005 42.284 11.1619C41.966 10.4132 41.807 9.60796 41.807 8.74636Z" fill="white"/>
  <path d="M59.9593 8.74636C59.9593 9.20793 60.0465 9.63361 60.2208 10.0234C60.3952 10.4132 60.6311 10.7516 60.9286 11.0388C61.226 11.326 61.5697 11.5517 61.9594 11.7158C62.3595 11.8697 62.78 11.9466 63.2211 11.9466C63.6621 11.9466 64.0775 11.8697 64.4673 11.7158C64.8673 11.5517 65.2161 11.326 65.5135 11.0388C65.8213 10.7516 66.0623 10.4132 66.2367 10.0234C66.4111 9.63361 66.4982 9.20793 66.4982 8.74636C66.4982 8.28478 66.4111 7.85911 66.2367 7.46934C66.0623 7.07956 65.8213 6.74107 65.5135 6.45387C65.2161 6.16667 64.8673 5.94614 64.4673 5.79228C64.0775 5.62817 63.6621 5.54611 63.2211 5.54611C62.78 5.54611 62.3595 5.62817 61.9594 5.79228C61.5697 5.94614 61.226 6.16667 60.9286 6.45387C60.6311 6.74107 60.3952 7.07956 60.2208 7.46934C60.0465 7.85911 59.9593 8.28478 59.9593 8.74636ZM56.8052 8.74636C56.8052 7.88475 56.9642 7.08469 57.2821 6.34617C57.6001 5.59739 58.0412 4.94606 58.6053 4.39217C59.1695 3.83828 59.8413 3.40748 60.6209 3.09976C61.4107 2.78179 62.2774 2.6228 63.2211 2.6228C64.1545 2.6228 65.0161 2.78179 65.8059 3.09976C66.5957 3.40748 67.2727 3.83828 67.8368 4.39217C68.4112 4.94606 68.8574 5.59739 69.1754 6.34617C69.4933 7.08469 69.6523 7.88475 69.6523 8.74636C69.6523 9.60796 69.4933 10.4132 69.1754 11.1619C68.8574 11.9005 68.4112 12.5467 67.8368 13.1005C67.2727 13.6544 66.5957 14.0904 65.8059 14.4083C65.0161 14.7161 64.1545 14.8699 63.2211 14.8699C62.2774 14.8699 61.4107 14.7161 60.6209 14.4083C59.8413 14.0904 59.1695 13.6544 58.6053 13.1005C58.0412 12.5467 57.6001 11.9005 57.2821 11.1619C56.9642 10.4132 56.8052 9.60796 56.8052 8.74636Z" fill="white"/>
  <path d="M75.3421 11.9928H76.0344C76.5576 11.9928 77.0243 11.9107 77.4346 11.7466C77.8448 11.5825 78.1885 11.3568 78.4654 11.0696C78.7526 10.7824 78.968 10.4439 79.1116 10.0542C79.2655 9.65412 79.3424 9.21819 79.3424 8.74636C79.3424 8.28478 79.2655 7.85398 79.1116 7.45395C78.9578 7.05392 78.7372 6.7103 78.45 6.4231C78.1731 6.1359 77.8295 5.91024 77.4192 5.74612C77.0089 5.58201 76.5473 5.49995 76.0344 5.49995H75.3421V11.9928ZM72.3265 2.94591H76.7884C77.5782 2.94591 78.3167 3.10489 79.0039 3.42287C79.7014 3.74084 80.3066 4.16651 80.8194 4.69989C81.3425 5.22301 81.7528 5.83844 82.0503 6.54619C82.3478 7.24368 82.4965 7.97707 82.4965 8.74636C82.4965 9.50539 82.3478 10.2388 82.0503 10.9465C81.7631 11.644 81.3579 12.2595 80.8348 12.7928C80.322 13.3262 79.7168 13.7519 79.0193 14.0699C78.3321 14.3878 77.5884 14.5468 76.7884 14.5468H72.3265V2.94591Z" fill="white"/>
  <path d="M94.2047 8.2694H95.2048C96.3126 8.2694 96.8665 7.78731 96.8665 6.82313C96.8665 5.85895 96.3126 5.37686 95.2048 5.37686H94.2047V8.2694ZM94.2047 14.5468H91.1891V2.94591H95.9895C97.2922 2.94591 98.2871 3.28439 98.9743 3.96137C99.6718 4.63835 100.021 5.59227 100.021 6.82313C100.021 8.054 99.6718 9.00792 98.9743 9.68489C98.2871 10.3619 97.2922 10.7004 95.9895 10.7004H94.2047V14.5468Z" fill="white"/>
  <path d="M108.048 10.2388L106.694 6.37694L105.34 10.2388H108.048ZM108.848 12.5313H104.54L103.848 14.5468H100.632L105.048 2.94591H108.34L112.756 14.5468H109.54L108.848 12.5313Z" fill="white"/>
  <path d="M117.86 8.13093H118.43C119.025 8.13093 119.481 8.00784 119.799 7.76167C120.117 7.51549 120.276 7.16162 120.276 6.70004C120.276 6.23847 120.117 5.8846 119.799 5.63842C119.481 5.39225 119.025 5.26916 118.43 5.26916H117.86V8.13093ZM124.492 14.5468H120.738L117.86 10.0849V14.5468H114.845V2.94591H119.537C120.184 2.94591 120.748 3.04335 121.23 3.23824C121.712 3.42287 122.107 3.6793 122.415 4.00753C122.733 4.33576 122.969 4.71527 123.122 5.14608C123.286 5.57688 123.369 6.03845 123.369 6.5308C123.369 7.41292 123.153 8.13093 122.722 8.68482C122.302 9.22845 121.676 9.59771 120.845 9.7926L124.492 14.5468Z" fill="white"/>
  <path d="M130.938 5.49995V14.5468H127.922V5.49995H125.445V2.94591H133.415V5.49995H130.938Z" fill="white"/>
  <path d="M139.077 8.97715L134.846 2.94591H138.446L140.6 6.11538L142.739 2.94591H146.339L142.093 8.97715V14.5468H139.077V8.97715Z" fill="white"/>
</svg>
