<svg fill="none" height="52" viewBox="0 0 51 52" width="51" xmlns="http://www.w3.org/2000/svg" xmlns:xlink="http://www.w3.org/1999/xlink"><filter id="a" color-interpolation-filters="sRGB" filterUnits="userSpaceOnUse" height="51" width="51" x="0" y="0"><feFlood flood-opacity="0" result="BackgroundImageFix"/><feBlend in="SourceGraphic" in2="BackgroundImageFix" mode="normal" result="shape"/><feColorMatrix in="SourceAlpha" result="hardAlpha" type="matrix" values="0 0 0 0 0 0 0 0 0 0 0 0 0 0 0 0 0 0 127 0"/><feOffset/><feGaussianBlur stdDeviation="6"/><feComposite in2="hardAlpha" k2="-1" k3="1" operator="arithmetic"/><feColorMatrix type="matrix" values="0 0 0 0 1 0 0 0 0 1 0 0 0 0 1 0 0 0 0.25 0"/><feBlend in2="shape" mode="normal" result="effect1_innerShadow"/></filter><filter id="b" color-interpolation-filters="sRGB" filterUnits="userSpaceOnUse" height="51" width="51" x="0" y="0"><feFlood flood-opacity="0" result="BackgroundImageFix"/><feBlend in="SourceGraphic" in2="BackgroundImageFix" mode="normal" result="shape"/><feColorMatrix in="SourceAlpha" result="hardAlpha" type="matrix" values="0 0 0 0 0 0 0 0 0 0 0 0 0 0 0 0 0 0 127 0"/><feOffset/><feGaussianBlur stdDeviation="6"/><feComposite in2="hardAlpha" k2="-1" k3="1" operator="arithmetic"/><feColorMatrix type="matrix" values="0 0 0 0 1 0 0 0 0 1 0 0 0 0 1 0 0 0 0.25 0"/><feBlend in2="shape" mode="normal" result="effect1_innerShadow"/></filter><linearGradient id="c" gradientUnits="userSpaceOnUse" x1="20.4566" x2="22.741" y1="11.2854" y2="42.473"><stop offset="0" stop-color="#fbfbfb"/><stop offset="1" stop-color="#fff"/></linearGradient><g filter="url(#a)"><circle fill="#919191" r="25.5" transform="matrix(-1 0 0 1 25.5 25.5)"/></g><path d="m19.8508 11.4869v.0001l.0001-.0002c.0248-.2288.1646-.4505.3751-.6555.2105-.2049.4917-.393.7991-.5545.6148-.32302 1.3346-.53947 1.8043-.57088l.2624-.01754c2.3062-.1551 4.537-.30512 7.0211 1.41762 1.7891 1.2408 3.3004 3.0233 4.342 4.8368 2.1096 3.6622 2.2284 7.2205 2.3592 11.138v.0001c.0475 1.4228.0966 2.893.2432 4.4327.0056.0597.0105.1173.0153.1729v.0006c.0426.4959.0721.8394.4393 1.2432-.1274.1949-.2434.3647-.3478.5176l-.0001.0001v.0001c-.3367.493-.5529.8096-.6456 1.2187-.0926.4091-.0617.9106.096 1.7735.1592.8806.3535 1.4757.627 2.0112.2735.5356.6261 1.0115 1.102 1.6536l.0016.0023c.0651.0878.1325.1787.2023.2734-.1816.1848-.2876.3719-.3301.5594s-.0216.3755.0504.5624c.1439.3738.4922.7429.9458 1.0945.9074.703 2.2367 1.3354 3.1976 1.7926l.1873.0892c-4.5243 4.096-10.525 6.5909-17.1086 6.5909-6.264 0-12.0004-2.2586-16.4394-6.0059.14467-.0832.28989-.166.43526-.2489.72854-.4156 1.46084-.8333 2.14574-1.3088.6597-.4564 1.0813-.9144 1.372-1.4429.2906-.5286.4503-1.1278.586-1.8668.1272-.696.2439-1.4275.1992-2.1153s-.2508-1.332-.7693-1.8535c.4387-1.3048.3756-2.7662.3121-4.2368v-.0001c-.0367-.85-.0735-1.7031-.0137-2.531.1692-2.3778.4607-4.7955.845-7.1565.6917-4.275 1.9286-8.4309 5.6882-10.8164z" fill="url(#c)" opacity=".7" stroke="#fff" stroke-width=".000285"/><g filter="url(#b)" opacity=".2"><circle r="23.5" stroke="#fff" stroke-width="4" transform="matrix(-1 0 0 1 25.5 25.5)"/></g></svg>