<svg fill="none" height="40" viewBox="0 0 40 40" width="40" xmlns="http://www.w3.org/2000/svg" xmlns:xlink="http://www.w3.org/1999/xlink"><linearGradient id="a"><stop offset="0" stop-color="#117cb6"/><stop offset="1" stop-color="#117cb6" stop-opacity="0"/></linearGradient><linearGradient id="b" gradientUnits="userSpaceOnUse" x1="41.3333" x2="-4.38795" xlink:href="#a" y1=".000004" y2="9.13284"/><linearGradient id="c"><stop offset="0" stop-color="#ff5b7e"/><stop offset="1" stop-color="#ff5b7e" stop-opacity="0"/></linearGradient><linearGradient id="d" gradientUnits="userSpaceOnUse" x1="6.22222" x2="57.453" xlink:href="#c" y1="-31" y2="-9.65384"/><linearGradient id="e" gradientUnits="userSpaceOnUse" x1="31.1667" x2="25.4515" xlink:href="#a" y1="14" y2="15.1416"/><linearGradient id="f" gradientUnits="userSpaceOnUse" x1="26.7778" x2="33.1816" xlink:href="#c" y1="10.125" y2="12.7933"/><linearGradient id="g" gradientUnits="userSpaceOnUse" x1="31.7" x2="9.45659" xlink:href="#a" y1="14" y2="21.7755"/><linearGradient id="h" gradientUnits="userSpaceOnUse" x1="13.2667" x2="33.8751" xlink:href="#c" y1="4.7" y2="19.727"/><g stroke-width="1.5"><rect height="38.5" rx="19.25" stroke="#6e26db" width="38.5" x=".75" y=".75"/><rect height="38.5" rx="19.25" stroke="url(#b)" stroke-opacity=".25" width="38.5" x=".75" y=".75"/><rect height="38.5" rx="19.25" stroke="url(#d)" stroke-opacity=".25" width="38.5" x=".75" y=".75"/><g stroke-linecap="round" stroke-linejoin="round"><path d="m31 19v-5h-5" stroke="#6e26db"/><path d="m31 19v-5h-5" stroke="url(#e)" stroke-opacity=".25"/><path d="m31 19v-5h-5" stroke="url(#f)" stroke-opacity=".25"/><path d="m31 14-5.05 5.7715c-.5852.6684-1.4442.9162-2.237.6455l-5.713-1.7456c-.7762-.2367-1.6039.0171-2.172.666l-5.828 6.6626" stroke="#6e26db"/><path d="m31 14-5.05 5.7715c-.5852.6684-1.4442.9162-2.237.6455l-5.713-1.7456c-.7762-.2367-1.6039.0171-2.172.666l-5.828 6.6626" stroke="url(#g)" stroke-opacity=".25"/><path d="m31 14-5.05 5.7715c-.5852.6684-1.4442.9162-2.237.6455l-5.713-1.7456c-.7762-.2367-1.6039.0171-2.172.666l-5.828 6.6626" stroke="url(#h)" stroke-opacity=".25"/></g></g></svg>