<svg width="40" height="40" viewBox="0 0 40 40" fill="none" xmlns="http://www.w3.org/2000/svg">
<rect x="0.75" y="0.75" width="38.5" height="38.5" rx="19.25" stroke="#6E26DB" stroke-width="1.5"/>
<rect x="0.75" y="0.75" width="38.5" height="38.5" rx="19.25" stroke="url(#paint0_linear)" stroke-opacity="0.25" stroke-width="1.5"/>
<rect x="0.75" y="0.75" width="38.5" height="38.5" rx="19.25" stroke="url(#paint1_linear)" stroke-opacity="0.25" stroke-width="1.5"/>
<path d="M31 19V14H26" stroke="#6E26DB" stroke-width="1.5" stroke-linecap="round" stroke-linejoin="round"/>
<path d="M31 19V14H26" stroke="url(#paint2_linear)" stroke-opacity="0.25" stroke-width="1.5" stroke-linecap="round" stroke-linejoin="round"/>
<path d="M31 19V14H26" stroke="url(#paint3_linear)" stroke-opacity="0.25" stroke-width="1.5" stroke-linecap="round" stroke-linejoin="round"/>
<path d="M31 14L25.95 19.7715C25.3648 20.4399 24.5058 20.6877 23.713 20.417L18 18.6714C17.2238 18.4347 16.3961 18.6885 15.828 19.3374L10 26" stroke="#6E26DB" stroke-width="1.5" stroke-linecap="round" stroke-linejoin="round"/>
<path d="M31 14L25.95 19.7715C25.3648 20.4399 24.5058 20.6877 23.713 20.417L18 18.6714C17.2238 18.4347 16.3961 18.6885 15.828 19.3374L10 26" stroke="url(#paint4_linear)" stroke-opacity="0.25" stroke-width="1.5" stroke-linecap="round" stroke-linejoin="round"/>
<path d="M31 14L25.95 19.7715C25.3648 20.4399 24.5058 20.6877 23.713 20.417L18 18.6714C17.2238 18.4347 16.3961 18.6885 15.828 19.3374L10 26" stroke="url(#paint5_linear)" stroke-opacity="0.25" stroke-width="1.5" stroke-linecap="round" stroke-linejoin="round"/>
<defs>
<linearGradient id="paint0_linear" x1="41.3333" y1="4.25701e-06" x2="-4.38795" y2="9.13284" gradientUnits="userSpaceOnUse">
<stop stop-color="#117CB6"/>
<stop offset="1" stop-color="#117CB6" stop-opacity="0"/>
</linearGradient>
<linearGradient id="paint1_linear" x1="6.22222" y1="-31" x2="57.453" y2="-9.65384" gradientUnits="userSpaceOnUse">
<stop stop-color="#FF5B7E"/>
<stop offset="1" stop-color="#FF5B7E" stop-opacity="0"/>
</linearGradient>
<linearGradient id="paint2_linear" x1="31.1667" y1="14" x2="25.4515" y2="15.1416" gradientUnits="userSpaceOnUse">
<stop stop-color="#117CB6"/>
<stop offset="1" stop-color="#117CB6" stop-opacity="0"/>
</linearGradient>
<linearGradient id="paint3_linear" x1="26.7778" y1="10.125" x2="33.1816" y2="12.7933" gradientUnits="userSpaceOnUse">
<stop stop-color="#FF5B7E"/>
<stop offset="1" stop-color="#FF5B7E" stop-opacity="0"/>
</linearGradient>
<linearGradient id="paint4_linear" x1="31.7" y1="14" x2="9.45659" y2="21.7755" gradientUnits="userSpaceOnUse">
<stop stop-color="#117CB6"/>
<stop offset="1" stop-color="#117CB6" stop-opacity="0"/>
</linearGradient>
<linearGradient id="paint5_linear" x1="13.2667" y1="4.7" x2="33.8751" y2="19.727" gradientUnits="userSpaceOnUse">
<stop stop-color="#FF5B7E"/>
<stop offset="1" stop-color="#FF5B7E" stop-opacity="0"/>
</linearGradient>
</defs>
</svg>
