<svg width="16" height="20" fill="none" xmlns="http://www.w3.org/2000/svg"><path d="M11.942 7.196h1.216c.671 0 1.216.533 1.216 1.19V17.9c0 .657-.545 1.189-1.216 1.189H2.216A1.203 1.203 0 0 1 1 17.899V8.387c0-.657.544-1.19 1.216-1.19h1.216" stroke="#4B00D1" stroke-width="1.672" stroke-linecap="round" stroke-linejoin="round"/><path d="M11.942 7.196h1.216c.671 0 1.216.533 1.216 1.19V17.9c0 .657-.545 1.189-1.216 1.189H2.216A1.203 1.203 0 0 1 1 17.899V8.387c0-.657.544-1.19 1.216-1.19h1.216" stroke="url(#paint0_linear)" stroke-opacity=".25" stroke-width="1.672" stroke-linecap="round" stroke-linejoin="round"/><path d="M11.942 7.196h1.216c.671 0 1.216.533 1.216 1.19V17.9c0 .657-.545 1.189-1.216 1.189H2.216A1.203 1.203 0 0 1 1 17.899V8.387c0-.657.544-1.19 1.216-1.19h1.216" stroke="url(#paint1_linear)" stroke-opacity=".25" stroke-width="1.672" stroke-linecap="round" stroke-linejoin="round"/><path d="M7.687 1.25v8.325" stroke="#4B00D1" stroke-width="1.672" stroke-linecap="round" stroke-linejoin="round"/><path d="M7.687 1.25v8.325" stroke="url(#paint2_linear)" stroke-opacity=".25" stroke-width="1.672" stroke-linecap="round" stroke-linejoin="round"/><path d="M7.687 1.25v8.325" stroke="url(#paint3_linear)" stroke-opacity=".25" stroke-width="1.672" stroke-linecap="round" stroke-linejoin="round"/><path d="M4.648 4.223l3.04-2.973 3.038 2.973" stroke="#4B00D1" stroke-width="1.672" stroke-linecap="round" stroke-linejoin="round"/><path d="M4.648 4.223l3.04-2.973 3.038 2.973" stroke="url(#paint4_linear)" stroke-opacity=".25" stroke-width="1.672" stroke-linecap="round" stroke-linejoin="round"/><path d="M4.648 4.223l3.04-2.973 3.038 2.973" stroke="url(#paint5_linear)" stroke-opacity=".25" stroke-width="1.672" stroke-linecap="round" stroke-linejoin="round"/><defs><linearGradient id="paint0_linear" x1="14.707" y1="7.196" x2="-.323" y2="10.586" gradientUnits="userSpaceOnUse"><stop stop-color="#0004D6"/><stop offset="1" stop-color="#0004D6" stop-opacity="0"/></linearGradient><linearGradient id="paint1_linear" x1=".417" y1="7.196" x2="15.609" y2="11.338" gradientUnits="userSpaceOnUse"><stop stop-color="#FF0F13"/><stop offset="1" stop-color="#BF0020" stop-opacity="0"/></linearGradient><linearGradient id="paint2_linear" x1="-nan" y1="-nan" x2="-nan" y2="-nan" gradientUnits="userSpaceOnUse"><stop stop-color="#0004D6"/><stop offset="1" stop-color="#0004D6" stop-opacity="0"/></linearGradient><linearGradient id="paint3_linear" x1="-nan" y1="-nan" x2="-nan" y2="-nan" gradientUnits="userSpaceOnUse"><stop stop-color="#FF0F13"/><stop offset="1" stop-color="#BF0020" stop-opacity="0"/></linearGradient><linearGradient id="paint4_linear" x1="10.878" y1="1.25" x2="4.732" y2="3.77" gradientUnits="userSpaceOnUse"><stop stop-color="#0004D6"/><stop offset="1" stop-color="#0004D6" stop-opacity="0"/></linearGradient><linearGradient id="paint5_linear" x1="4.382" y1="1.25" x2="10.338" y2="4.202" gradientUnits="userSpaceOnUse"><stop stop-color="#FF0F13"/><stop offset="1" stop-color="#BF0020" stop-opacity="0"/></linearGradient></defs></svg>