<svg width="306" height="348" viewBox="0 0 306 348" fill="none" xmlns="http://www.w3.org/2000/svg">
<g clip-path="url(#clip0)">
<path d="M153.138 296.917C206.303 296.917 249.402 253.818 249.402 200.652C249.402 147.487 206.303 104.388 153.138 104.388C99.9725 104.388 56.8734 147.487 56.8734 200.652C56.8734 253.818 99.9725 296.917 153.138 296.917Z" fill="#F2E7FF"/>
<path d="M183.746 212.896C182.265 216.706 183.058 221.63 181.222 225.284C183.232 223.309 186.818 219.318 189.466 218.342C189.243 216.987 188.755 210.126 187.622 210.906C186.52 211.668 185.548 212.276 183.746 212.896Z" fill="#D62929"/>
<path d="M150.969 224.162C149.372 224.423 147.774 224.683 146.177 224.944C146.076 224.665 146.336 224.325 146.633 224.348C145.751 225.751 144.871 227.154 143.989 228.557C143.849 228.781 143.704 229.017 143.681 229.28C143.662 229.493 143.724 229.703 143.787 229.907C144.325 231.683 144.864 233.458 145.402 235.233C145.65 236.048 145.907 236.883 146.427 237.558C146.934 238.216 147.933 238.681 148.577 238.156C149.144 237.692 149.038 236.812 148.869 236.1C148.401 234.135 147.847 232.189 147.208 230.272C147.654 231.254 148.1 232.236 148.546 233.218C148.801 233.779 149.075 234.365 149.572 234.729C150.069 235.094 150.86 235.138 151.243 234.657C151.96 232.656 150.889 230.497 149.85 228.641C150.684 229.128 150.991 230.152 151.388 231.031C151.786 231.91 152.568 232.827 153.52 232.665C154.185 231.287 153.635 229.635 152.886 228.3C152.137 226.964 151.171 225.679 150.969 224.162Z" fill="#F2A19C"/>
<path d="M185.124 269.182C184.279 269.042 183.398 268.885 182.717 268.368C182.119 267.914 175.131 266.102 173.184 263.984C172.72 263.478 169.485 260.729 168.381 258.18C166.857 254.66 161.912 233.702 156.705 232.223C157.3 231.19 161.142 229.783 161.738 228.75C165.337 234.585 168.932 240.31 172.942 245.872C177.16 251.723 181.631 257.449 186.989 262.282C188.328 263.49 189.72 264.639 191.06 265.844C191.68 266.401 192.31 267.002 192.582 267.788C192.855 268.574 192.638 269.592 191.894 269.966C191.401 270.212 190.815 270.127 190.271 270.037C188.555 269.753 186.84 269.467 185.124 269.182Z" fill="url(#paint0_linear)"/>
<path d="M179.08 258.723C179.21 262.933 179.341 267.142 179.471 271.352C185.612 269.319 192.006 268.047 198.46 267.572C199.431 251.724 199.365 235.813 198.263 219.973C198.156 218.431 198.021 216.83 197.253 215.487C195.357 212.173 189.94 212.143 187.487 215.068C186.146 216.668 185.608 218.77 185.107 220.796C183.916 225.619 182.726 230.441 181.535 235.264C180.616 238.987 179.694 242.724 179.274 246.536C178.829 250.579 178.954 254.659 179.08 258.723Z" fill="#D62929"/>
<path d="M190.827 285.397C193.415 283.561 192.111 275.416 190.565 272.645C189.018 269.875 176.773 251.427 168.334 236.595C165.884 242.819 167.296 239.491 163.5 245C165 248 169.28 275.494 183.159 288.546C185.355 290.612 188.369 287.14 190.827 285.397Z" fill="#DA2A2A"/>
<path d="M250.585 487.317C239.098 487.446 234.607 485.981 223.126 486.304C216.897 466.713 199.324 439.288 186.955 406.433C170.782 363.476 170.707 335.263 175.797 299.941C183.51 304.977 196.123 309.637 205.154 307.815C202.321 338.364 205.192 366.872 218.716 394.43C222.302 401.736 226.457 408.879 228.413 416.777C230.206 424.015 230.097 431.7 232.673 438.699C235.201 445.567 240.119 451.256 243.719 457.63C248.784 466.601 251.198 477.041 250.585 487.317Z" fill="#151A4F"/>
<path d="M185.7 215.067C184.968 208.261 182.332 201.824 179.724 195.493C179.473 194.883 179.221 194.273 178.97 193.663C178.888 193.462 178.803 193.249 178.834 193.034C178.884 192.69 179.204 192.461 179.492 192.266C181.747 190.736 181.76 187.267 183.287 185.012C186.715 193.834 191.3 203.738 193.887 211.729C191.065 212.593 188.322 213.711 185.7 215.067Z" fill="#F2A19C"/>
<path d="M182.571 193.188C182.961 191.098 184.162 186.599 183.254 184.749C181.822 181.834 178.98 178.413 174.892 175.846C169.887 172.702 165.747 175.862 161.551 180.017C160.703 180.855 159.912 181.759 159.276 182.767C156.8 186.694 157.073 192.159 159.929 195.824C160.455 196.499 161.049 197.096 161.687 197.636C162.67 199.814 163.904 201.746 165.088 204.169C165.687 204.808 167.14 203.213 167.927 202.379C168.321 201.96 168.687 201.618 169.037 201.31C170.469 201.744 171.931 202.1 173.363 202.429C176.507 203.149 179.019 206.729 181.411 204.571C183.048 203.092 182.166 195.355 182.571 193.188Z" fill="url(#paint1_linear)"/>
<path d="M176.871 193.288C177.516 192.565 178.191 191.714 178.1 190.75C178.034 190.064 177.167 188.577 176.84 187.97C176.007 186.42 175.41 185.535 173.264 182.817C177.311 185.188 179.566 188.092 182.749 191.534C183.595 197.951 184.068 208.814 181.887 208.938C177.828 209.133 176.146 202.818 172.111 202.332C171.879 198.835 174.536 195.905 176.871 193.288Z" fill="#23286B"/>
<path d="M174.098 202.673C174.003 202.349 174.105 202.003 174.218 201.685C174.809 200.017 175.697 198.454 176.829 197.092C177.777 197.942 177.731 198.038 178.832 198.679C177.79 201.911 177.249 203.249 176.77 205.545C176.044 204.819 175.318 204.092 174.591 203.366C174.389 203.162 174.178 202.948 174.098 202.673Z" fill="#F2A19C"/>
<path d="M121.229 237.597C120.631 237.057 119.276 237.856 119.287 238.659C119.297 239.463 119.773 240.177 120.231 240.838C123.636 245.748 127.041 250.659 130.446 255.569C130.775 256.043 131.111 256.526 131.573 256.874C132.109 257.279 132.775 257.472 133.433 257.612C137.679 258.517 142.792 257.832 145.687 261.062C146.557 262.033 147.092 263.251 147.613 264.447C150.312 270.638 153.01 276.827 155.709 283.019C157.276 280.348 158.545 277.504 159.485 274.555C159.922 273.185 160.291 271.732 160.014 270.321C159.806 269.26 159.247 268.304 158.683 267.38C156.657 264.06 154.447 260.852 152.066 257.777C151.421 256.943 150.745 256.104 149.854 255.54C148.711 254.815 147.323 254.61 145.981 254.423C142.013 253.868 138.044 253.313 134.076 252.757C133.423 252.666 132.754 252.57 132.173 252.261C131.389 251.845 130.491 249.801 129.352 247.959C126.742 243.742 125.38 241.341 121.229 237.597Z" fill="#FFBEB6"/>
<path d="M146.329 257.454L111.703 236.49L122.538 229.506L155.749 249.446L146.329 257.454Z" fill="url(#paint2_linear)"/>
<path opacity="0.25" d="M141.415 251.806L116.295 236.233L123.044 232.207L147.161 246.921L141.415 251.806Z" fill="#808080"/>
<path d="M138.724 436.234C135.647 439.782 134.549 444.801 133.108 449.436C129.453 461.188 120.489 469.851 106.559 477.688C98.2924 469.414 94.089 465.711 85.8223 457.437C115.799 432.486 140.048 395.501 156.258 358.14C163.948 340.416 175.231 323.428 176.439 303.823C186.383 306.198 195.289 309.374 205.292 306.697C205.892 339.021 186.307 373.437 163.557 399.955C161.584 402.257 159.524 404.547 158.2 407.358C156.855 410.211 156.349 413.428 155.392 416.46C153.606 422.111 150.181 427.147 145.762 430.617C143.397 432.474 140.735 433.917 138.724 436.234Z" fill="#23286B"/>
<path d="M180.594 239.522C185.908 230.693 191.223 221.864 196.538 213.035C208.84 225.034 212.27 244.287 209.758 261.266C206.789 281.327 204.865 299.891 205.661 315.643C194.086 314.204 187.118 312.802 173.5 312.5C172.004 294.898 174.552 286.723 173.5 269.5C173.317 266.5 175.783 251.562 176.408 248.623C177.106 245.341 178.864 242.397 180.594 239.522Z" fill="#DA2A2A"/>
<path d="M172.027 277.592C178.319 260.704 184.707 243.496 191 226.608C192.062 223.758 193.658 220.46 196.68 220.071C199.581 219.697 202.003 222.341 203.182 225.015C206.109 231.651 204.806 239.322 203.021 246.35C197.491 268.126 187.788 288.837 174.591 307.033C174.171 307.613 173.704 308.222 173.024 308.45C171.707 308.89 170.443 307.721 169.554 306.654C161.251 296.704 150 282.5 150 272C156.749 267.166 152.989 271.032 157.542 264.098C160.064 268.166 160.064 268.166 163.182 272.666C164.885 275.123 167.411 278.873 169.294 281.195C171.177 283.515 170.472 286.181 171.174 290.579C173.711 289.333 170.306 279.671 171.029 279.759C171.083 278.576 174.829 284.292 176.032 285.784C176.655 284.748 174.443 279.865 172.027 277.592Z" fill="#DA2A2A"/>
<path d="M148.808 261.92C149.898 261.051 155.233 262.299 154.541 261.088C153.773 259.743 150.615 255.123 149.205 254.474C146.592 253.269 142.171 250.708 139.838 249.024C137.506 247.339 133.312 244.866 131.939 245.942C131.035 246.651 131.971 248.263 132.839 249.017C133.706 249.771 139.475 253.225 140.399 253.908C145.096 257.378 145.004 257.599 148.808 261.92Z" fill="#FFBEB6"/>
<path d="M129.459 237.138C129.821 237.328 130.261 237.266 130.662 237.186C135.12 236.285 139.507 233.946 142.12 230.233C142.858 229.186 146.404 225.697 147.174 224.757C147.943 223.816 147.831 222.019 146.678 221.632C142.046 226.462 137.237 231.415 131.083 234.053C130.407 234.343 129.683 234.63 129.241 235.215C128.797 235.801 128.808 236.795 129.459 237.138Z" fill="url(#paint3_linear)"/>
<path d="M161.824 229.724C161.539 231.735 159.712 232.762 156.308 232.687C155.536 232.669 153.03 231.913 152.584 231.039C151.2 228.327 147.24 227.837 145.423 225.394C144.618 224.313 145.132 223.409 146.036 222.281C146.209 221.955 146.949 221.576 147.285 221.731C150.08 223.022 152.875 224.312 155.669 225.603C157.497 226.447 159.328 227.292 161.088 228.268C161.342 228.409 161.607 228.565 161.746 228.82C161.893 229.09 161.867 229.419 161.824 229.724Z" fill="url(#paint4_linear)"/>
<path d="M138.624 228.596C138.043 228.807 137.395 229.205 137.35 229.855C137.32 230.286 137.58 230.678 137.884 230.961C138.94 231.946 140.484 232.014 141.898 232.034C145.651 232.085 149.405 232.136 153.158 232.187C154.908 232.211 156.708 232.226 158.35 231.553C158.298 230.82 158.247 230.086 158.195 229.352C158.184 229.189 158.168 229.014 158.067 228.893C157.932 228.73 157.7 228.719 157.495 228.722C154.402 228.754 151.299 228.844 148.224 228.537C145.014 228.216 141.692 227.478 138.624 228.596Z" fill="#FFBEB6"/>
<path d="M183.961 212.786C184.432 216.706 185.874 221.727 185.131 225.877C189.226 220.873 191.104 216.194 197.008 213.547C195.173 211.238 193.809 208.558 193.023 205.717C191.175 207.38 189.328 209.044 187.48 210.708C186.452 211.633 185.334 212.602 183.961 212.786Z" fill="#E94A47"/>
<path d="M114.074 247.381C120.557 251.144 128.217 252.84 135.244 255.705C136.117 256.062 137.039 256.446 137.982 256.362C138.925 256.278 139.832 255.504 139.573 254.691C137.938 254.011 136.301 253.332 134.665 252.652C129.68 250.582 124.691 248.51 119.593 246.681C118.61 246.328 117.589 245.978 116.54 246C115.492 246.022 114.4 246.51 114.074 247.381Z" fill="#FFBEB6"/>
<path d="M193.923 322.331C193.781 322.359 193.683 322.466 193.711 322.607C193.739 322.749 193.846 322.847 193.987 322.819C194.129 322.792 194.227 322.685 194.199 322.543C194.173 322.401 194.065 322.304 193.923 322.331ZM170.933 329.993C170.827 329.896 170.684 329.923 170.587 330.03C170.49 330.137 170.517 330.279 170.624 330.376C170.732 330.473 170.874 330.446 170.971 330.339C171.131 330.249 171.041 330.09 170.933 329.993ZM175.987 333.553C175.879 333.456 175.737 333.483 175.641 333.59C175.544 333.697 175.571 333.839 175.678 333.936C175.785 334.033 175.927 334.006 176.024 333.899C176.104 333.853 176.093 333.65 175.987 333.553ZM182.26 323.163C182.163 323.269 182.128 323.394 182.156 323.536C182.263 323.633 182.388 323.668 182.531 323.64C182.627 323.534 182.662 323.409 182.618 323.329C182.545 323.109 182.42 323.074 182.26 323.163ZM185.553 328.445C185.456 328.551 185.421 328.676 185.449 328.818C185.555 328.915 185.681 328.95 185.823 328.923C185.92 328.816 185.955 328.691 185.91 328.612C185.838 328.391 185.651 328.338 185.553 328.445ZM168.52 342.2C168.395 342.165 168.236 342.255 168.201 342.379C168.166 342.504 168.256 342.664 168.381 342.698C168.506 342.733 168.665 342.644 168.7 342.519C168.735 342.394 168.645 342.235 168.52 342.2ZM174.575 343.625C174.45 343.59 174.291 343.679 174.256 343.804C174.222 343.929 174.311 344.088 174.436 344.123C174.561 344.157 174.72 344.068 174.755 343.943C174.79 343.819 174.7 343.659 174.575 343.625ZM187.481 320.128C187.402 320.173 187.286 320.342 187.394 320.439C187.439 320.518 187.609 320.634 187.705 320.526C187.785 320.481 187.9 320.312 187.792 320.215C187.766 320.073 187.641 320.038 187.481 320.128ZM189.999 325.058C189.919 325.103 189.805 325.273 189.912 325.369C189.957 325.449 190.064 325.546 190.223 325.456C190.303 325.412 190.4 325.304 190.31 325.145C190.204 325.049 190.079 325.014 189.999 325.058ZM172.435 337.592C172.31 337.557 172.168 337.584 172.133 337.709C172.098 337.833 172.143 337.914 172.251 338.01C172.376 338.045 172.517 338.018 172.552 337.893C172.586 337.768 172.559 337.627 172.435 337.592ZM177.664 339.322C177.539 339.287 177.397 339.315 177.362 339.44C177.327 339.564 177.372 339.644 177.48 339.741C177.605 339.776 177.747 339.748 177.782 339.623C177.816 339.499 177.789 339.357 177.664 339.322ZM180.736 328.842C180.629 328.746 180.487 328.773 180.39 328.88C180.293 328.986 180.32 329.129 180.427 329.226C180.534 329.322 180.677 329.295 180.773 329.188C180.871 329.081 180.843 328.939 180.736 328.842ZM182.591 316.948C182.484 316.852 182.341 316.878 182.245 316.986C182.148 317.092 182.175 317.235 182.282 317.331C182.389 317.428 182.531 317.401 182.628 317.294C182.725 317.188 182.697 317.046 182.591 316.948ZM187.407 321.113C187.3 321.017 187.158 321.044 187.061 321.151C186.964 321.257 186.991 321.4 187.098 321.497C187.205 321.593 187.348 321.566 187.444 321.459C187.541 321.352 187.514 321.21 187.407 321.113ZM192.303 325.233C192.196 325.137 192.054 325.163 191.957 325.271C191.86 325.377 191.887 325.52 191.995 325.616C192.101 325.713 192.244 325.686 192.341 325.579C192.375 325.454 192.348 325.313 192.303 325.233ZM174.061 342.341C173.919 342.368 173.821 342.475 173.849 342.616C173.877 342.758 173.984 342.856 174.125 342.828C174.267 342.801 174.365 342.694 174.337 342.552C174.373 342.428 174.204 342.313 174.061 342.341ZM200.753 322.43C200.664 322.27 200.539 322.235 200.379 322.326L200.753 322.43ZM178.791 329.305C178.666 329.27 178.507 329.359 178.472 329.484C178.438 329.608 178.527 329.768 178.652 329.803C178.777 329.838 178.936 329.748 178.971 329.623C179.006 329.499 178.916 329.339 178.791 329.305ZM179.069 324.954C178.944 324.919 178.785 325.008 178.75 325.133C178.716 325.258 178.805 325.417 178.93 325.452C179.055 325.487 179.197 325.459 179.249 325.273C179.284 325.148 179.194 324.989 179.069 324.954ZM185.04 327.161C184.914 327.126 184.755 327.215 184.721 327.34C184.686 327.464 184.713 327.606 184.9 327.658C185.025 327.693 185.185 327.604 185.282 327.496C185.254 327.355 185.164 327.195 185.04 327.161ZM193.661 319.91C193.554 319.813 193.411 319.84 193.315 319.947C193.218 320.054 193.245 320.196 193.334 320.355C193.441 320.451 193.584 320.425 193.743 320.335C193.796 320.149 193.768 320.007 193.661 319.91ZM194.093 322.447C193.968 322.412 193.888 322.456 193.808 322.501C193.773 322.625 193.818 322.705 193.863 322.785C193.988 322.82 194.067 322.775 194.147 322.731C194.183 322.605 194.155 322.464 194.093 322.447Z" fill="white"/>
<path d="M169.734 152.604L108.554 146.355C105.767 146.071 103.737 143.584 104.021 140.802L108.315 98.7348C108.6 95.952 111.09 93.9271 113.877 94.2118L175.058 100.46C177.845 100.745 179.875 103.231 179.591 106.014L175.296 148.081C175.012 150.863 172.522 152.888 169.734 152.604Z" fill="white"/>
<path d="M140.591 199.842C140.474 199.829 140.36 199.782 140.265 199.698C140.018 199.482 139.993 199.107 140.209 198.86C142.838 195.867 139.78 190.941 138.781 189.502L138.587 189.224C136.443 186.144 134.012 182.652 135.199 178.988C136.335 175.484 139.945 172.577 142.58 170.455C143.885 169.404 145.117 168.412 145.462 167.787C145.755 167.255 145.833 166.803 145.701 166.406C145.35 165.349 143.574 164.543 141.693 163.689C140.248 163.032 138.754 162.354 137.604 161.438C137.047 160.994 136.205 160.324 135.991 159.332C135.646 157.741 137.01 156.481 138.065 155.671C139.547 154.535 141.981 153.429 144.335 152.359C145.494 151.832 146.757 151.258 147.897 150.672L114.586 143.941C114.288 143.97 113.994 144.001 113.705 144.035C110.211 144.436 106.259 144.889 103.454 142.557C99.6954 139.433 100.677 133.571 101.742 129.435L110.318 96.1271C110.675 94.7385 112.063 93.8575 113.48 94.131C131.297 97.521 149.525 99.1178 167.657 98.8782C169.831 98.8495 172.806 98.8104 174.834 100.557C177.122 102.528 177.291 105.825 177.27 108.761L177.031 141.136C177.001 145.076 176.941 153.275 169.001 154.291C167.707 154.457 166.319 154.394 164.875 154.102L149.724 151.041C148.366 151.832 146.654 152.611 144.829 153.44C142.536 154.483 140.165 155.561 138.791 156.614C137.521 157.588 137.001 158.371 137.155 159.081C137.27 159.616 137.763 160.044 138.347 160.508C139.381 161.332 140.807 161.98 142.187 162.607C144.31 163.572 146.316 164.483 146.831 166.032C147.071 166.751 146.961 167.534 146.505 168.361C146.048 169.191 144.848 170.157 143.329 171.38C140.809 173.409 137.359 176.187 136.333 179.355C135.327 182.458 137.579 185.693 139.566 188.547L139.759 188.825C140.884 190.443 144.302 196.004 141.106 199.644C140.972 199.796 140.778 199.863 140.591 199.842ZM151.127 150.112L165.111 152.937C166.427 153.204 167.685 153.263 168.849 153.113C175.224 152.297 175.801 146.498 175.84 141.127L176.079 108.752C176.099 106.083 175.961 103.097 174.057 101.457C172.498 100.114 170.244 100.033 167.674 100.067C149.463 100.309 131.155 98.7049 113.258 95.2988C112.46 95.1479 111.673 95.6412 111.471 96.4238L102.895 129.731C101.911 133.555 100.976 138.951 104.216 141.644C105.913 143.054 108.238 143.264 110.599 143.135L108.305 142.671C106.569 142.321 105.416 140.62 105.737 138.881L112.168 103.965C112.227 103.642 112.537 103.424 112.861 103.488C113.184 103.548 113.398 103.857 113.339 104.181L106.908 139.097C106.704 140.203 107.436 141.283 108.54 141.506L114.65 142.741C127.364 141.539 149.012 143.617 151.66 145.836C152.435 146.485 152.775 147.198 152.672 147.953C152.567 148.725 152.004 149.432 151.127 150.112ZM119.105 143.641L149.494 149.782C150.618 149.09 151.408 148.407 151.492 147.792C151.509 147.671 151.559 147.303 150.894 146.746C148.895 145.069 131.927 143.143 119.105 143.641Z" fill="#1B236D"/>
<path d="M220.871 174.66C240.169 181.941 259.505 178.024 264.061 165.911C268.616 153.798 256.664 138.076 237.367 130.794C218.069 123.512 198.733 127.429 194.177 139.542C189.622 151.656 201.574 167.378 220.871 174.66Z" fill="white"/>
<path d="M210.927 202.832C210.751 202.728 210.647 202.523 210.683 202.31C211.173 199.322 213.395 197.036 215.544 194.824C217.944 192.354 220.211 190.02 219.91 186.952C219.68 184.61 217.896 182.664 216.18 181.07C214.018 179.061 211.657 177.186 209.374 175.373C206.505 173.094 203.538 170.738 200.913 168.077C195.282 162.367 192.355 155.955 192.671 150.021C192.767 148.229 193.171 146.461 193.842 144.767C193.734 143.42 193.807 142.047 194.104 140.663C196.245 130.664 208.587 126.507 219.15 126.876C229.266 127.23 239.352 129.908 248.319 134.622C248.563 134.759 248.666 135.062 248.535 135.311C248.404 135.56 248.095 135.655 247.845 135.524C239.014 130.882 229.08 128.243 219.117 127.895C208.966 127.54 197.121 131.452 195.102 140.879C194.978 141.462 194.895 142.044 194.853 142.623C197.548 137.72 202.509 133.671 208.574 131.803C215.481 129.676 223.463 129.963 233.693 132.707C247.894 136.516 257.777 142.869 263.068 151.587C266.442 157.147 267.919 165.184 263.615 170.605C261.945 172.709 259.519 174.332 255.983 175.713C247.44 179.048 237.655 179.158 227.685 176.032C218.658 173.201 209.795 167.763 202.728 160.719C199.211 157.214 195.389 152.362 194.182 146.988C193.913 148.003 193.747 149.036 193.692 150.078C193.286 157.693 198.497 164.176 201.64 167.362C204.221 169.979 207.163 172.315 210.008 174.575C212.307 176.401 214.684 178.288 216.875 180.324C218.731 182.049 220.664 184.173 220.927 186.856C221.274 190.394 218.734 193.007 216.278 195.535C214.238 197.634 212.13 199.805 211.69 202.478C211.645 202.755 211.382 202.943 211.104 202.897C211.039 202.886 210.98 202.864 210.927 202.832ZM194.881 144.916C195.445 150.776 199.636 156.198 203.449 159.998C216.055 172.562 237.071 181.999 255.609 174.762C258.971 173.45 261.26 171.927 262.814 169.97C266.814 164.932 265.385 157.372 262.195 152.114C257.046 143.628 247.368 137.431 233.431 133.692C223.395 131 215.593 130.71 208.878 132.778C202.33 134.794 197.131 139.447 194.881 144.916Z" fill="#1B236D"/>
<path d="M90.2643 215.656C71.5919 226.99 50.6907 226.667 43.5801 214.933C36.4695 203.199 45.8421 184.499 64.5145 173.165C83.1869 161.831 104.088 162.155 111.199 173.889C118.309 185.622 108.937 204.322 90.2643 215.656Z" fill="white"/>
<path d="M106.125 243.072C106.288 242.929 106.356 242.696 106.278 242.481C105.183 239.464 102.422 237.513 99.7521 235.627C96.7704 233.52 93.9535 231.53 93.6676 228.275C93.449 225.79 94.9273 223.417 96.4023 221.423C98.2607 218.91 100.353 216.498 102.376 214.166C104.919 211.235 107.548 208.204 109.761 204.922C114.509 197.88 116.304 190.632 114.815 184.512C114.365 182.664 113.599 180.9 112.569 179.265C112.418 177.841 112.074 176.426 111.495 175.042C107.311 165.041 93.6456 163.108 82.7188 165.545C72.2539 167.878 62.2737 172.628 53.8573 179.28C53.6302 179.47 53.5825 179.805 53.7676 180.04C53.9525 180.274 54.2928 180.313 54.5273 180.128C62.8163 173.576 72.6456 168.898 82.9522 166.6C93.4536 164.258 106.553 166.032 110.497 175.46C110.741 176.044 110.94 176.634 111.097 177.229C107.333 172.645 101.376 169.39 94.6941 168.623C87.086 167.748 78.8306 169.599 68.7139 174.444C54.67 181.171 45.6199 189.708 41.8145 199.818C39.3878 206.265 39.4197 214.924 44.9614 219.736C47.112 221.603 49.9545 222.823 53.9064 223.574C63.4546 225.389 73.6663 223.603 83.4371 218.409C92.2838 213.707 100.45 206.32 106.433 197.61C109.411 193.275 112.443 187.479 112.649 181.645C113.127 182.651 113.503 183.695 113.764 184.77C115.674 192.623 111.514 200.389 108.865 204.318C106.688 207.546 104.081 210.551 101.56 213.458C99.5226 215.806 97.4165 218.234 95.5329 220.781C93.9372 222.938 92.3398 225.527 92.59 228.372C92.9197 232.125 96.075 234.354 99.1269 236.511C101.661 238.301 104.281 240.153 105.261 242.851C105.363 243.131 105.673 243.276 105.954 243.174C106.019 243.15 106.076 243.115 106.125 243.072ZM111.516 179.623C112.074 185.837 108.77 192.299 105.542 196.999C94.8702 212.536 74.8289 226.449 54.1102 222.511C50.3538 221.798 47.6722 220.656 45.6718 218.919C40.5216 214.447 40.5319 206.294 42.8268 200.198C46.5303 190.357 55.397 182.021 69.1795 175.42C79.1038 170.666 87.1713 168.847 94.5685 169.697C101.781 170.525 108.104 174.363 111.516 179.623Z" fill="#1B236D"/>
<g opacity="0.2">
<path d="M86.9133 155.065L84.1017 156.502H87.6518L86.9133 155.065Z" fill="#5C00C7"/>
<path d="M86.9133 155.065L84.1017 156.502H87.6518L86.9133 155.065Z" fill="url(#paint5_linear)" fill-opacity="0.25"/>
<path d="M86.9133 155.065L84.1017 156.502H87.6518L86.9133 155.065Z" fill="url(#paint6_linear)" fill-opacity="0.15"/>
</g>
<g opacity="0.2">
<path d="M74.267 161.531H90.235L88.8755 158.884H79.4434L74.267 161.531Z" fill="#5C00C7"/>
<path d="M74.267 161.531H90.235L88.8755 158.884H79.4434L74.267 161.531Z" fill="url(#paint7_linear)" fill-opacity="0.25"/>
<path d="M74.267 161.531H90.235L88.8755 158.884H79.4434L74.267 161.531Z" fill="url(#paint8_linear)" fill-opacity="0.15"/>
</g>
<g opacity="0.2">
<path d="M64.4326 166.559H92.818L91.4585 163.913H69.6085L64.4326 166.559Z" fill="#5C00C7"/>
<path d="M64.4326 166.559H92.818L91.4585 163.913H69.6085L64.4326 166.559Z" fill="url(#paint9_linear)" fill-opacity="0.25"/>
<path d="M64.4326 166.559H92.818L91.4585 163.913H69.6085L64.4326 166.559Z" fill="url(#paint10_linear)" fill-opacity="0.15"/>
</g>
<g opacity="0.2">
<path d="M65.7631 171.587H95.4014L94.0416 168.94H64.4037L65.7631 171.587Z" fill="#5C00C7"/>
<path d="M65.7631 171.587H95.4014L94.0416 168.94H64.4037L65.7631 171.587Z" fill="url(#paint11_linear)" fill-opacity="0.25"/>
<path d="M65.7631 171.587H95.4014L94.0416 168.94H64.4037L65.7631 171.587Z" fill="url(#paint12_linear)" fill-opacity="0.15"/>
</g>
<g opacity="0.2">
<path d="M68.3466 176.615H97.9843L96.6249 173.969H66.9871L68.3466 176.615Z" fill="#5C00C7"/>
<path d="M68.3466 176.615H97.9843L96.6249 173.969H66.9871L68.3466 176.615Z" fill="url(#paint13_linear)" fill-opacity="0.25"/>
<path d="M68.3466 176.615H97.9843L96.6249 173.969H66.9871L68.3466 176.615Z" fill="url(#paint14_linear)" fill-opacity="0.15"/>
</g>
<g opacity="0.2">
<path d="M70.9296 181.643H92.2428L97.4187 178.997H69.5701L70.9296 181.643Z" fill="#5C00C7"/>
<path d="M70.9296 181.643H92.2428L97.4187 178.997H69.5701L70.9296 181.643Z" fill="url(#paint15_linear)" fill-opacity="0.25"/>
<path d="M70.9296 181.643H92.2428L97.4187 178.997H69.5701L70.9296 181.643Z" fill="url(#paint16_linear)" fill-opacity="0.15"/>
</g>
<path d="M73.5128 186.671H82.4084L87.5846 184.025H72.1533L73.5128 186.671Z" fill="#A1C3FC"/>
<path d="M75.3631 190.273L77.7501 189.053H74.7361L75.3631 190.273Z" fill="#A1C3FC"/>
<path d="M63.149 138.981C63.8511 138.818 64.5714 138.654 65.2861 138.746C66.3549 138.884 67.2665 139.572 68.0729 140.288C69.0624 141.168 69.9853 142.137 70.708 143.247C72.426 145.887 72.9044 149.166 72.7972 152.316C72.6899 155.467 72.0445 158.572 71.7016 161.705C71.346 164.952 71.3152 168.235 71.6105 171.487C64.3887 170.448 56.9859 170.683 49.844 172.178C54.5596 165.308 57.3358 156.716 55.6748 148.544C55.1822 146.12 54.4193 143.26 56.0862 141.436C56.9995 140.436 58.4006 140.083 59.7172 139.777C60.8613 139.512 62.0051 139.247 63.149 138.981Z" fill="#151A4F"/>
<path d="M63.5481 151.966C63.4793 151.976 63.4084 151.986 63.3487 152.026C63.1617 152.154 63.1848 152.478 63.2291 152.729C64.028 157.233 63.7057 162.01 62.3135 166.304C64.9219 164.359 68.3774 166.296 71.3854 165.524C70.5232 163.537 70.7203 161.171 70.7303 158.935C70.742 156.302 71.2945 152.762 70.7327 150.215C68.6154 150.497 65.6653 151.685 63.5481 151.966Z" fill="#F2A19C"/>
<path d="M58.4672 144.062C58.2464 146.364 58.7841 148.361 59.6617 150.5C60.6816 152.985 62.5406 155.257 65.0762 156.13C67.612 157.002 70.2308 156.672 71.4714 154.289C71.9833 153.306 72.229 151.695 72.2104 150.586C72.1594 147.544 71.4421 144.365 69.2261 142.286C67.9111 141.053 66.5423 139.308 64.7487 139.154C62.9549 139 60.4286 139.803 59.4014 141.285C58.5603 142.499 58.6085 142.591 58.4672 144.062Z" fill="#FFBEB6"/>
<path d="M68.98 151.702C68.6211 152.104 68.101 152.32 67.5841 152.468C66.7832 152.697 65.9289 152.792 65.1151 152.615C64.3012 152.438 63.5311 151.966 63.1021 151.251C63.5935 151.328 64.0958 151.337 64.5899 151.278C66.9702 150.992 68.8776 149.191 70.3751 147.314C70.2895 148.293 70.1768 148.928 69.9351 149.875C69.7948 150.425 69.3575 151.279 68.98 151.702Z" fill="white"/>
<path d="M56.1477 147.963C58.5996 143.982 62.8189 141.142 67.4221 140.375C68.1991 141.075 68.9761 141.775 69.7531 142.475C64.5583 143.19 60.2489 146.907 57.0302 151.057C56.3845 150.144 55.7154 148.965 56.2455 147.979C56.0192 149.542 56.7092 146.487 56.1477 147.963Z" fill="#C6006B"/>
<path d="M57.3707 174.599C59.3865 166.143 59.0694 164.502 59.0228 155.808C59.0123 153.874 59.8539 146.087 61.2393 143.726C63.182 140.415 64.9301 139.866 66.7511 139.227C62.4569 135.617 57.1414 139.557 55.8837 141.784C54.626 144.011 54.4501 146.668 54.2619 149.221C53.6399 157.662 52.5729 166.071 51.0669 174.4C53.1696 174.337 55.2759 174.404 57.3707 174.599Z" fill="#23286B"/>
<path d="M60.334 153.448C60.3338 153.448 60.3334 153.448 60.3332 153.448C60.2567 153.447 60.195 153.385 60.1954 153.308C60.2148 150.328 60.8335 147.523 62.2011 144.214C63.0637 142.127 64.9553 139.888 66.0701 139.28C66.1373 139.243 66.2213 139.268 66.2579 139.335C66.2945 139.403 66.2696 139.487 66.202 139.524C65.1498 140.098 63.2845 142.318 62.4567 144.32C61.1033 147.595 60.4913 150.367 60.4718 153.31C60.472 153.386 60.4103 153.448 60.334 153.448Z" fill="#23286B"/>
<path d="M59.2312 151.203C59.231 151.203 59.2306 151.203 59.2305 151.203C59.1667 151.193 59.1233 151.129 59.1336 151.062C59.5369 148.43 60.4176 146.027 61.9888 143.269C62.9799 141.531 64.8495 139.784 65.859 139.383C65.9198 139.359 65.9867 139.391 66.0085 139.455C66.0304 139.519 65.9986 139.591 65.9374 139.615C64.9846 139.993 63.1393 141.727 62.1884 143.395C60.6334 146.123 59.7625 148.499 59.3641 151.098C59.3544 151.165 59.2948 151.212 59.2312 151.203Z" fill="#23286B"/>
<path d="M61.4898 152.168C61.4837 152.168 61.4775 152.167 61.4712 152.166C61.3951 152.156 61.3421 152.086 61.3522 152.01C61.9614 147.457 63.9696 142.565 66.5932 139.242C66.641 139.183 66.728 139.172 66.7879 139.22C66.8478 139.267 66.8581 139.354 66.8106 139.415C64.2157 142.7 62.2296 147.541 61.6268 152.047C61.6179 152.117 61.5582 152.168 61.4898 152.168Z" fill="#23286B"/>
<path d="M49.4451 174.046C49.4425 174.046 49.4392 174.046 49.4366 174.046C49.3601 174.041 49.302 173.975 49.3069 173.899C49.8505 165.126 51.039 157.522 53.2807 148.472L53.3339 148.257C53.8709 146.084 54.6821 142.801 56.2445 141.342C56.3006 141.29 56.3887 141.292 56.4403 141.349C56.4923 141.405 56.4894 141.493 56.4334 141.545C54.9312 142.948 54.1315 146.183 53.6029 148.323L53.5497 148.539C51.312 157.571 50.1255 165.161 49.5833 173.916C49.5787 173.99 49.518 174.046 49.4451 174.046Z" fill="#23286B"/>
<path d="M72.6417 160.877C72.5604 162.429 72.4788 163.981 72.3972 165.533C72.3938 165.599 72.3837 165.677 72.3258 165.709C72.2896 165.729 72.2452 165.724 72.2037 165.718C70.59 165.502 69.6538 173.049 68.0261 173.027C66.3027 173.005 63.8869 165.425 62.1745 165.62C62.1787 164.683 62.1826 163.746 62.1868 162.809C62.1882 162.476 62.151 161.603 62.151 161.603C62.151 161.603 62.5809 161.19 62.8847 161.05C63.927 160.569 64.9815 162.262 66.0754 161.914C66.661 161.728 66.9791 161.008 67.5823 160.891C68.4297 160.727 68.9796 161.819 69.8039 162.076C70.3118 162.234 70.8669 162.048 71.3215 161.772C71.7761 161.497 72.1742 161.132 72.6417 160.877Z" fill="white"/>
<path d="M68.2574 171.511C69.6622 169.16 71.0671 166.809 72.4721 164.458C75.5159 165.142 78.4664 166.242 81.217 167.718C82.6586 168.491 84.0645 169.382 85.1651 170.594C86.7771 172.369 87.6252 174.706 88.2305 177.028C89.9993 183.815 89.6364 194.744 87.8523 201.527C85.6284 201.161 83.6744 200.772 81.4378 201.051C78.9226 201.364 75.8881 201.948 73.36 201.765C64.3364 201.112 58.8194 200.859 50.0771 203.194C49.6997 198.178 46.5069 189.867 46.7609 184.843C47.01 179.919 47.6547 174.759 50.5353 170.763C53.0084 167.333 62.2085 164.695 62.2085 164.695C62.2085 164.695 66.7484 169.649 68.2574 171.511Z" fill="#5C00C7"/>
<path d="M68.2574 171.511C69.6622 169.16 71.0671 166.809 72.4721 164.458C75.5159 165.142 78.4664 166.242 81.217 167.718C82.6586 168.491 84.0645 169.382 85.1651 170.594C86.7771 172.369 87.6252 174.706 88.2305 177.028C89.9993 183.815 89.6364 194.744 87.8523 201.527C85.6284 201.161 83.6744 200.772 81.4378 201.051C78.9226 201.364 75.8881 201.948 73.36 201.765C64.3364 201.112 58.8194 200.859 50.0771 203.194C49.6997 198.178 46.5069 189.867 46.7609 184.843C47.01 179.919 47.6547 174.759 50.5353 170.763C53.0084 167.333 62.2085 164.695 62.2085 164.695C62.2085 164.695 66.7484 169.649 68.2574 171.511Z" fill="url(#paint17_linear)" fill-opacity="0.25"/>
<path d="M68.2574 171.511C69.6622 169.16 71.0671 166.809 72.4721 164.458C75.5159 165.142 78.4664 166.242 81.217 167.718C82.6586 168.491 84.0645 169.382 85.1651 170.594C86.7771 172.369 87.6252 174.706 88.2305 177.028C89.9993 183.815 89.6364 194.744 87.8523 201.527C85.6284 201.161 83.6744 200.772 81.4378 201.051C78.9226 201.364 75.8881 201.948 73.36 201.765C64.3364 201.112 58.8194 200.859 50.0771 203.194C49.6997 198.178 46.5069 189.867 46.7609 184.843C47.01 179.919 47.6547 174.759 50.5353 170.763C53.0084 167.333 62.2085 164.695 62.2085 164.695C62.2085 164.695 66.7484 169.649 68.2574 171.511Z" fill="url(#paint18_linear)" fill-opacity="0.15"/>
<path d="M32.6167 156.372C34.6253 158.386 35.7401 158.495 36.426 161.233C36.2991 160.887 36.9142 163.529 37.0498 163.871C37.6796 165.472 38.6424 167.065 39.4045 169.218C41.1521 174.155 44.4801 176.726 46.2901 181.641C45.3538 182.018 43.2489 189.644 42.66 190.465C40.6555 185.014 38.0616 176.895 35.6994 168.315C35.5347 167.718 34.9947 167.152 34.4166 166.933C33.9248 166.748 33.3796 166.809 32.8544 166.834C29.6683 166.989 26.4415 165.629 24.3212 163.239C24.3212 163.239 23.5531 162.481 22.6089 161.927C21.6647 161.373 20.1384 157.507 22.8512 158.247C25.564 158.988 30.6701 158.969 33.943 160.866C33.7249 158.525 31.2233 156.819 31.5779 155.817C31.9412 155.536 32.2923 156.047 32.6167 156.372Z" fill="url(#paint19_linear)"/>
<path d="M39.7089 168.241C43.7177 174.426 44.229 176.972 48.0154 183.822C49.9766 187.371 52.8599 192.139 53.5563 196.136C53.7362 197.169 53.1843 202.902 52.3559 203.542C51.7004 204.049 49.9347 203.235 49.2587 202.757C48.5827 202.278 48.1437 201.54 47.7286 200.823C42.1653 191.206 37.2761 181.196 33.1092 170.894C35.4928 170.625 37.7999 169.698 39.7089 168.241Z" fill="#5C00C7"/>
<path d="M39.7089 168.241C43.7177 174.426 44.229 176.972 48.0154 183.822C49.9766 187.371 52.8599 192.139 53.5563 196.136C53.7362 197.169 53.1843 202.902 52.3559 203.542C51.7004 204.049 49.9347 203.235 49.2587 202.757C48.5827 202.278 48.1437 201.54 47.7286 200.823C42.1653 191.206 37.2761 181.196 33.1092 170.894C35.4928 170.625 37.7999 169.698 39.7089 168.241Z" fill="url(#paint20_linear)" fill-opacity="0.25"/>
<path d="M39.7089 168.241C43.7177 174.426 44.229 176.972 48.0154 183.822C49.9766 187.371 52.8599 192.139 53.5563 196.136C53.7362 197.169 53.1843 202.902 52.3559 203.542C51.7004 204.049 49.9347 203.235 49.2587 202.757C48.5827 202.278 48.1437 201.54 47.7286 200.823C42.1653 191.206 37.2761 181.196 33.1092 170.894C35.4928 170.625 37.7999 169.698 39.7089 168.241Z" fill="url(#paint21_linear)" fill-opacity="0.15"/>
<path d="M91.7876 201.632H44.9592V203.909H91.7876V201.632Z" fill="#EEEEEE"/>
<path d="M67.3924 145.037C67.334 145.037 67.2855 144.99 67.2836 144.932C67.2816 144.871 67.3289 144.821 67.3889 144.818C68.8342 144.768 70.1639 143.506 70.2915 142.062C70.2967 142.002 70.3522 141.959 70.4099 141.962C70.4699 141.968 70.5144 142.021 70.5088 142.081C70.3694 143.657 68.9733 144.983 67.3967 145.037C67.3952 145.037 67.3937 145.037 67.3924 145.037Z" fill="#23286B"/>
<path d="M67.3924 145.037C67.334 145.037 67.2855 144.99 67.2836 144.932C67.2816 144.871 67.3289 144.821 67.3889 144.818C68.8342 144.768 70.1639 143.506 70.2915 142.062C70.2967 142.002 70.3522 141.959 70.4099 141.962C70.4699 141.968 70.5144 142.021 70.5088 142.081C70.3694 143.657 68.9733 144.983 67.3967 145.037C67.3952 145.037 67.3937 145.037 67.3924 145.037Z" fill="#23286B"/>
<path d="M91.7876 175.089H52.1119V203.909H91.7876V175.089Z" fill="url(#paint22_linear)"/>
<path d="M75.1164 187.593H69.1769V193.548H75.1164V187.593Z" fill="white"/>
<path d="M90.9704 195.131C90.5492 195.404 84.7945 195.022 84.9592 194.547L84.5976 194.432C84.141 194.152 84.3699 193.448 84.6595 192.997C86.6497 189.897 88.5143 187.625 91.5108 185.489C90.6834 184.025 91.2402 181.238 91.8585 179.596C92.4345 178.36 92.5268 183.915 93.3579 186.415C93.6175 187.196 93.8942 187.622 93.9118 188.452C93.9648 190.941 93.0407 193.792 90.9704 195.131Z" fill="#C4C4C4"/>
<path d="M90.9704 195.131C90.5492 195.404 84.7945 195.022 84.9592 194.547L84.5976 194.432C84.141 194.152 84.3699 193.448 84.6595 192.997C86.6497 189.897 88.5143 187.625 91.5108 185.489C90.6834 184.025 91.2402 181.238 91.8585 179.596C92.4345 178.36 92.5268 183.915 93.3579 186.415C93.6175 187.196 93.8942 187.622 93.9118 188.452C93.9648 190.941 93.0407 193.792 90.9704 195.131Z" fill="url(#paint23_linear)"/>
<path d="M55.6845 186.369C55.7053 186.446 55.7683 186.495 55.8452 186.475C55.9225 186.454 55.9719 186.391 55.9512 186.313C55.9304 186.236 55.8675 186.187 55.7905 186.207C55.7128 186.228 55.6636 186.291 55.6845 186.369ZM60.835 198.763C60.7856 198.826 60.8065 198.903 60.8694 198.953C60.9324 199.002 61.0097 198.981 61.0589 198.918C61.1083 198.855 61.0874 198.778 61.0245 198.728C60.9686 198.644 60.8844 198.699 60.835 198.763ZM62.5983 195.829C62.5489 195.892 62.5697 195.969 62.6327 196.019C62.6956 196.068 62.773 196.048 62.8221 195.984C62.8715 195.921 62.8507 195.844 62.7877 195.794C62.7598 195.752 62.6477 195.766 62.5983 195.829ZM56.6106 192.778C56.6736 192.828 56.7436 192.842 56.8207 192.821C56.8701 192.758 56.8843 192.688 56.8634 192.61C56.8005 192.561 56.7305 192.546 56.6882 192.574C56.5692 192.624 56.5546 192.694 56.6106 192.778ZM59.395 190.748C59.4579 190.797 59.528 190.812 59.6051 190.791C59.6545 190.728 59.6686 190.657 59.6478 190.58C59.5848 190.53 59.5148 190.516 59.4725 190.544C59.3533 190.593 59.332 190.698 59.395 190.748ZM67.6717 199.608C67.6575 199.678 67.7134 199.763 67.7834 199.777C67.8537 199.791 67.9381 199.735 67.952 199.665C67.9662 199.595 67.9103 199.51 67.8403 199.496C67.7699 199.481 67.6861 199.537 67.6717 199.608ZM68.2158 196.206C68.2016 196.276 68.2574 196.361 68.3275 196.375C68.3977 196.389 68.4821 196.333 68.4961 196.263C68.5102 196.193 68.4544 196.108 68.3843 196.094C68.3145 196.079 68.2299 196.136 68.2158 196.206ZM54.7257 190.015C54.7537 190.057 54.852 190.114 54.901 190.051C54.9431 190.023 54.9998 189.925 54.9368 189.875C54.9089 189.833 54.8105 189.776 54.7616 189.839C54.684 189.86 54.6697 189.931 54.7257 190.015ZM57.3472 188.428C57.3751 188.47 57.4735 188.526 57.5224 188.464C57.5645 188.436 57.6139 188.372 57.5583 188.288C57.5303 188.245 57.4672 188.196 57.383 188.252C57.3332 188.315 57.319 188.385 57.3472 188.428ZM64.9701 197.63C64.956 197.7 64.9768 197.777 65.0471 197.792C65.1173 197.806 65.1594 197.778 65.2084 197.715C65.2225 197.644 65.2017 197.567 65.1315 197.553C65.0616 197.539 64.9843 197.56 64.9701 197.63ZM65.7164 194.672C65.7022 194.742 65.7231 194.819 65.7933 194.833C65.8635 194.848 65.9056 194.82 65.9546 194.757C65.9688 194.686 65.9479 194.609 65.8777 194.595C65.8079 194.581 65.7307 194.601 65.7164 194.672ZM59.8071 193.393C59.7577 193.457 59.7785 193.534 59.8415 193.584C59.9044 193.633 59.9817 193.612 60.0309 193.549C60.0803 193.486 60.0594 193.409 59.9965 193.359C59.934 193.309 59.8564 193.33 59.8071 193.393ZM53.1661 192.844C53.1167 192.907 53.1376 192.985 53.2005 193.034C53.2634 193.084 53.3408 193.063 53.3899 193C53.4393 192.937 53.4185 192.859 53.3555 192.81C53.2926 192.76 53.2155 192.781 53.1661 192.844ZM55.2728 190.017C55.2234 190.08 55.2443 190.158 55.3072 190.207C55.3702 190.257 55.4475 190.236 55.4967 190.173C55.546 190.11 55.5252 190.032 55.4623 189.983C55.3995 189.933 55.3222 189.954 55.2728 190.017ZM57.3514 187.148C57.302 187.211 57.3229 187.289 57.3858 187.338C57.4488 187.388 57.5261 187.367 57.5753 187.304C57.6246 187.241 57.6038 187.163 57.5408 187.113C57.471 187.099 57.3935 187.12 57.3514 187.148ZM67.5272 196.541C67.548 196.619 67.611 196.668 67.6879 196.647C67.7652 196.626 67.8146 196.564 67.794 196.486C67.7731 196.409 67.7102 196.359 67.6333 196.38C67.563 196.365 67.5064 196.463 67.5272 196.541ZM55.4651 182.592C55.3805 182.648 55.3663 182.718 55.4224 182.803L55.4651 182.592ZM60.1402 194.449C60.126 194.52 60.1819 194.604 60.2517 194.619C60.322 194.633 60.4064 194.577 60.4203 194.507C60.4343 194.437 60.3786 194.352 60.3088 194.338C60.239 194.323 60.1548 194.379 60.1402 194.449ZM57.7273 194.47C57.7131 194.54 57.7689 194.625 57.8388 194.639C57.909 194.653 57.9934 194.597 58.0074 194.527C58.0215 194.457 58.0007 194.379 57.8958 194.358C57.826 194.344 57.7418 194.399 57.7273 194.47ZM58.7064 191.083C58.6923 191.154 58.7481 191.238 58.818 191.253C58.8882 191.267 58.9653 191.246 58.9866 191.141C59.0007 191.07 58.9449 190.986 58.8819 190.936C58.805 190.957 58.7206 191.013 58.7064 191.083ZM54.3578 186.611C54.3084 186.674 54.3293 186.751 54.3922 186.801C54.4551 186.85 54.5325 186.829 54.6169 186.773C54.6662 186.71 54.6454 186.633 54.5893 186.548C54.4843 186.527 54.4072 186.547 54.3578 186.611ZM55.7406 186.27C55.7264 186.341 55.7541 186.383 55.7822 186.425C55.8525 186.44 55.8946 186.412 55.9369 186.384C55.951 186.313 55.9233 186.271 55.8952 186.229C55.8251 186.215 55.7478 186.235 55.7406 186.27Z" fill="white"/>
<path d="M35.5583 164.743C36.0111 164.623 36.3948 164.339 36.4394 164.174C36.5436 163.786 36.6486 163.394 36.6632 162.993C36.6774 162.604 36.6061 162.218 36.5306 161.837C36.2483 160.41 35.8344 159.049 34.7048 158.137C34.0009 157.569 33.2836 157.022 32.6623 156.364C32.4151 156.102 31.9968 155.447 31.6867 155.63C31.1451 155.948 31.9199 156.92 32.2354 157.465C32.7372 158.33 33.1664 158.77 33.6682 159.636C33.7829 159.834 33.858 160.417 33.8815 160.645C33.9019 160.843 33.7754 161.223 33.7335 161.418C33.6232 161.931 33.5826 162.46 33.6133 162.984C33.634 163.336 33.6919 163.701 33.8934 163.989C34.2913 164.559 34.8878 164.92 35.5583 164.743Z" fill="url(#paint24_linear)"/>
<g opacity="0.2">
<path d="M168.615 102.21L135.948 108.284C135.744 109.362 135.635 110.473 135.635 111.61C135.635 112.575 135.714 113.523 135.863 114.448L170.92 107.927C170.484 105.869 169.694 103.942 168.615 102.21Z" fill="#5C00C7"/>
<path d="M168.615 102.21L135.948 108.284C135.744 109.362 135.635 110.473 135.635 111.61C135.635 112.575 135.714 113.523 135.863 114.448L170.92 107.927C170.484 105.869 169.694 103.942 168.615 102.21Z" fill="url(#paint25_linear)" fill-opacity="0.25"/>
<path d="M168.615 102.21L135.948 108.284C135.744 109.362 135.635 110.473 135.635 111.61C135.635 112.575 135.714 113.523 135.863 114.448L170.92 107.927C170.484 105.869 169.694 103.942 168.615 102.21Z" fill="url(#paint26_linear)" fill-opacity="0.15"/>
</g>
<g opacity="0.2">
<path d="M153.712 93.8053L146.8 95.0896C143.026 96.6114 139.895 99.3807 137.918 102.889L164.832 97.884C161.805 95.3789 157.935 93.8622 153.712 93.8053Z" fill="#5C00C7"/>
<path d="M153.712 93.8053L146.8 95.0896C143.026 96.6114 139.895 99.3807 137.918 102.889L164.832 97.884C161.805 95.3789 157.935 93.8622 153.712 93.8053Z" fill="url(#paint27_linear)" fill-opacity="0.25"/>
<path d="M153.712 93.8053L146.8 95.0896C143.026 96.6114 139.895 99.3807 137.918 102.889L164.832 97.884C161.805 95.3789 157.935 93.8622 153.712 93.8053Z" fill="url(#paint28_linear)" fill-opacity="0.15"/>
</g>
<g opacity="0.2">
<path d="M164.935 125.247L147.676 128.456C149.494 129.08 151.44 129.421 153.467 129.421C157.836 129.423 161.835 127.851 164.935 125.247Z" fill="#5C00C7"/>
<path d="M164.935 125.247L147.676 128.456C149.494 129.08 151.44 129.421 153.467 129.421C157.836 129.423 161.835 127.851 164.935 125.247Z" fill="url(#paint29_linear)" fill-opacity="0.25"/>
<path d="M164.935 125.247L147.676 128.456C149.494 129.08 151.44 129.421 153.467 129.421C157.836 129.423 161.835 127.851 164.935 125.247Z" fill="url(#paint30_linear)" fill-opacity="0.15"/>
</g>
<g opacity="0.2">
<path d="M171.251 112.898L137.334 119.205C138.303 121.254 139.651 123.088 141.29 124.619L169.53 119.368C170.488 117.386 171.087 115.202 171.251 112.898Z" fill="#5C00C7"/>
<path d="M171.251 112.898L137.334 119.205C138.303 121.254 139.651 123.088 141.29 124.619L169.53 119.368C170.488 117.386 171.087 115.202 171.251 112.898Z" fill="url(#paint31_linear)" fill-opacity="0.25"/>
<path d="M171.251 112.898L137.334 119.205C138.303 121.254 139.651 123.088 141.29 124.619L169.53 119.368C170.488 117.386 171.087 115.202 171.251 112.898Z" fill="url(#paint32_linear)" fill-opacity="0.15"/>
</g>
<path d="M143.76 75.4661C142.977 74.1137 140.933 73.7222 139.709 74.6901C139.316 75.0005 138.993 75.4282 138.52 75.5891C137.34 75.9903 137.612 74.5666 136.379 74.7452C134.27 75.0507 135.44 78.785 132.302 79.4852C131.142 79.7441 129.149 78.3386 127.972 78.5082C126.289 78.751 126.05 81.6752 124.357 81.8395C123.731 81.9004 123.148 81.5257 122.525 81.4363C121.903 81.3469 121.095 81.8372 121.316 82.4286C121.667 84.041 121.618 84.041 122.087 85.5541C122.988 88.4568 123.776 91.4543 126.237 93.2251C128.699 94.996 131.332 96.0708 134.24 96.9175C136.886 97.6881 139.946 98.2687 142.69 98.0147C146.257 97.684 149.484 95.6096 151.923 92.9739C154.363 90.3382 156.122 87.1556 157.857 84.0075C157.152 84.6691 155.982 84.0995 155.356 83.3622C154.73 82.6244 154.2 81.6695 153.264 81.4345C152.467 81.2348 151.602 81.6388 150.816 81.3996C149.268 80.9291 149.012 78.3623 147.41 78.1377C146.791 78.0508 145.941 78.4052 145.337 78.2458C144.241 77.9578 144.329 76.4486 143.76 75.4661Z" fill="#428DFC"/>
<path d="M143.76 75.4661C142.977 74.1137 140.933 73.7222 139.709 74.6901C139.316 75.0005 138.993 75.4282 138.52 75.5891C137.34 75.9903 137.612 74.5666 136.379 74.7452C134.27 75.0507 135.44 78.785 132.302 79.4852C131.142 79.7441 129.149 78.3386 127.972 78.5082C126.289 78.751 126.05 81.6752 124.357 81.8395C123.731 81.9004 123.148 81.5257 122.525 81.4363C121.903 81.3469 121.095 81.8372 121.316 82.4286C121.667 84.041 121.618 84.041 122.087 85.5541C122.988 88.4568 123.776 91.4543 126.237 93.2251C128.699 94.996 131.332 96.0708 134.24 96.9175C136.886 97.6881 139.946 98.2687 142.69 98.0147C146.257 97.684 149.484 95.6096 151.923 92.9739C154.363 90.3382 156.122 87.1556 157.857 84.0075C157.152 84.6691 155.982 84.0995 155.356 83.3622C154.73 82.6244 154.2 81.6695 153.264 81.4345C152.467 81.2348 151.602 81.6388 150.816 81.3996C149.268 80.9291 149.012 78.3623 147.41 78.1377C146.791 78.0508 145.941 78.4052 145.337 78.2458C144.241 77.9578 144.329 76.4486 143.76 75.4661Z" fill="#428DFC"/>
<path d="M143.76 75.4661C142.977 74.1137 140.933 73.7222 139.709 74.6901C139.316 75.0005 138.993 75.4282 138.52 75.5891C137.34 75.9903 137.612 74.5666 136.379 74.7452C134.27 75.0507 135.44 78.785 132.302 79.4852C131.142 79.7441 129.149 78.3386 127.972 78.5082C126.289 78.751 126.05 81.6752 124.357 81.8395C123.731 81.9004 123.148 81.5257 122.525 81.4363C121.903 81.3469 121.095 81.8372 121.316 82.4286C121.667 84.041 121.618 84.041 122.087 85.5541C122.988 88.4568 123.776 91.4543 126.237 93.2251C128.699 94.996 131.332 96.0708 134.24 96.9175C136.886 97.6881 139.946 98.2687 142.69 98.0147C146.257 97.684 149.484 95.6096 151.923 92.9739C154.363 90.3382 156.122 87.1556 157.857 84.0075C157.152 84.6691 155.982 84.0995 155.356 83.3622C154.73 82.6244 154.2 81.6695 153.264 81.4345C152.467 81.2348 151.602 81.6388 150.816 81.3996C149.268 80.9291 149.012 78.3623 147.41 78.1377C146.791 78.0508 145.941 78.4052 145.337 78.2458C144.241 77.9578 144.329 76.4486 143.76 75.4661Z" fill="url(#paint33_linear)" fill-opacity="0.5"/>
<path d="M109.145 57.1337C108.598 54.9465 107.709 54.8592 106.107 53.2504C105.848 52.9907 105.568 52.5823 105.278 52.8066C104.995 53.6074 106.991 54.9702 107.165 56.841C104.555 55.3253 100.669 54.5909 98.3181 54.7481C97.4896 54.8035 98.9255 55.4693 100.804 55.7467C102.519 55.9997 103.566 56.6897 105.105 57.4873C105.196 57.7514 104.168 57.3095 103.898 57.2445C101.334 56.6265 99.5334 56.1349 96.8033 55.9277C95.998 56.0239 97.3863 57.3997 98.1246 57.6883C99.9602 58.405 102.019 58.9421 103.854 59.6589C103.372 60.5454 98.5389 57.5497 99.4899 58.7367C101.181 60.646 103.755 61.7322 106.296 61.609C106.715 61.589 107.132 61.5978 107.542 61.6883C108.68 61.9387 109.585 64.4987 109.858 65.4889C111.773 72.4418 113.268 75.3356 114.866 79.6906C115.336 79.0341 117.95 76.4416 118.697 76.1403C117.253 72.2136 110.145 60.5207 109.642 59.2416C109.535 58.9681 109.044 56.8576 109.145 57.1337Z" fill="url(#paint34_linear)"/>
<path d="M170.673 57.1322C171.22 54.945 172.109 54.8576 173.711 53.2489C173.97 52.9892 174.25 52.5807 174.54 52.8051C174.823 53.6058 172.827 54.9687 172.653 56.8395C175.263 55.3238 179.149 54.5893 181.5 54.7466C182.328 54.802 180.893 55.4678 179.014 55.7452C177.299 55.9982 176.252 56.6882 174.713 57.4858C174.622 57.7499 175.65 57.3079 175.92 57.243C178.484 56.625 180.285 56.1334 183.015 55.9262C183.82 56.0224 182.432 57.3982 181.693 57.6867C179.858 58.4035 177.799 58.9406 175.964 59.6574C176.446 60.5439 181.279 57.5482 180.328 58.7352C178.637 60.6445 176.063 61.7307 173.522 61.6075C173.103 61.5875 172.686 61.5963 172.276 61.6868C171.139 61.9371 170.233 64.4972 169.96 65.4874C168.045 72.4403 166.55 75.3341 164.952 79.689C164.482 79.0326 161.868 76.4401 161.122 76.1388C162.565 72.212 169.673 60.5192 170.176 59.2401C170.283 58.9666 170.774 56.8561 170.673 57.1322Z" fill="url(#paint35_linear)"/>
<path d="M143.078 95.3576C142.879 95.2629 142.68 95.1683 142.481 95.0734C142.69 91.5741 142.686 87.9822 142.937 84.5255C141.502 85.461 139.015 85.8967 137.319 85.6684C137.82 88.9803 138.06 92.3826 137.625 95.7036C139.428 95.4384 141.256 95.3113 143.078 95.3576Z" fill="#F2A19C"/>
<path d="M139.524 88.2164C140.541 88.1319 141.469 87.5781 142.222 86.8861C143.822 85.4138 144.761 83.2425 144.74 81.0631C144.733 80.358 144.629 79.6498 144.386 78.9884C143.532 76.6673 140.805 75.2229 138.415 75.8253C137.481 76.0605 136.614 76.5732 135.973 77.2949C134.678 78.7521 134.416 80.8834 134.664 82.821C134.834 84.1516 135.231 85.4877 136.058 86.5421C136.884 87.5958 138.193 88.3271 139.524 88.2164Z" fill="#FFBEB6"/>
<path d="M136.262 83.8756C136.952 84.856 138.234 85.0383 139.429 84.998C140.565 84.96 141.351 84.478 142.25 83.6856C141.794 84.6228 141.83 84.8212 141.187 85.5546C140.507 86.3311 139.844 86.7476 138.619 86.5186C138.381 86.4739 137.79 86.1112 137.603 85.9562C136.777 85.2746 136.704 84.8537 136.262 83.8756Z" fill="white"/>
<path d="M135.84 89.2973C135.81 89.2973 135.78 89.2851 135.758 89.2617C135.424 88.8988 135.723 88.4111 135.964 88.0195L136.031 87.9085C136.392 87.3069 136.395 86.4968 136.038 85.8926C135.996 85.8227 135.95 85.753 135.904 85.6828C135.721 85.4065 135.532 85.1203 135.584 84.7786C135.627 84.4934 135.827 84.2691 136.021 84.0517C136.241 83.8053 136.43 83.5929 136.344 83.3501C136.294 83.2107 136.122 83.1078 135.956 83.0082C135.723 82.8691 135.458 82.7113 135.507 82.4123C135.572 82.0148 135.919 81.7975 136.253 81.5882C136.391 81.5021 136.521 81.4207 136.631 81.3285C136.875 81.1231 136.631 80.6213 136.55 80.4723C136.501 80.3808 136.444 80.2917 136.389 80.2027C136.256 79.9903 136.118 79.7707 136.06 79.5143C135.942 78.9933 136.191 78.3964 136.692 77.9934C137.117 77.6523 137.753 77.4371 138.314 77.2621C138.374 77.2442 138.435 77.2769 138.453 77.3352C138.471 77.3939 138.438 77.4555 138.38 77.4737C137.988 77.5957 137.259 77.8232 136.831 78.1666C136.499 78.4325 136.155 78.932 136.276 79.4647C136.325 79.6841 136.448 79.8783 136.576 80.0842C136.634 80.1773 136.692 80.2706 136.744 80.366C136.873 80.6047 137.135 81.1935 136.773 81.4982C136.651 81.6007 136.508 81.6898 136.37 81.7764C136.064 81.9683 135.774 82.1497 135.725 82.4484C135.702 82.5907 135.84 82.6811 136.068 82.8174C136.26 82.9312 136.476 83.061 136.552 83.2754C136.683 83.6423 136.43 83.9256 136.186 84.1997C136.014 84.3928 135.836 84.592 135.803 84.8122C135.764 85.069 135.921 85.3077 136.089 85.5604C136.137 85.6337 136.185 85.7068 136.228 85.7796C136.626 86.4519 136.623 87.3535 136.221 88.0229L136.152 88.1357C135.896 88.5525 135.717 88.8889 135.921 89.1107C135.963 89.1559 135.96 89.2258 135.915 89.2674C135.894 89.2875 135.866 89.2973 135.84 89.2973Z" fill="#428DFC"/>
<path d="M157.178 82.8226C156.372 82.8226 155.61 82.0522 155.357 81.7686C154.77 81.109 154.107 80.3634 153.294 80.4828C153.083 80.5134 152.884 80.6029 152.674 80.6972C152.443 80.801 152.205 80.9086 151.942 80.9349C151.029 81.0248 150.36 80.1253 150.043 79.5801C150 79.5065 149.957 79.4317 149.914 79.3563C149.569 78.7505 149.211 78.1242 148.599 77.8848C147.989 77.6466 147.312 77.8679 146.657 78.0824C146.463 78.1461 146.263 78.2116 146.066 78.2643C145.419 78.4385 144.681 78.3483 144.228 78.0402C143.951 77.8507 143.784 77.5848 143.747 77.2704C143.741 77.2096 143.784 77.1545 143.844 77.1475C143.906 77.1394 143.96 77.1841 143.967 77.2447C143.996 77.4966 144.126 77.7025 144.352 77.857C144.748 78.1266 145.429 78.2064 146.009 78.0506C146.2 77.9994 146.398 77.9344 146.589 77.872C147.281 77.6459 147.995 77.4116 148.68 77.6789C149.365 77.9464 149.742 78.6073 150.106 79.2468C150.148 79.3214 150.191 79.3955 150.233 79.4688C150.524 79.9683 151.132 80.7934 151.92 80.7147C152.147 80.692 152.359 80.5964 152.584 80.4952C152.799 80.3985 153.021 80.2987 153.263 80.2636C154.19 80.1294 154.928 80.9544 155.519 81.6178C155.809 81.9431 156.811 82.9559 157.664 82.4726C157.716 82.4422 157.784 82.4609 157.815 82.5145C157.845 82.5678 157.826 82.6354 157.773 82.6658C157.576 82.7763 157.376 82.8226 157.178 82.8226Z" fill="#428DFC"/>
<path d="M161.991 73.7442C158.452 80.8744 154.827 86.8266 148.934 93.8411C147.02 92.3946 145.717 92.6654 142.594 92.7234C142.455 93.8127 141.609 94.7123 140.5 94.7039C138.553 94.6894 137.876 92.9161 137.876 92.9161C135.734 93.0276 133.749 92.621 131.597 93.4563C130.784 90.4125 121.591 79.6543 118.393 74.7128C116.87 75.8765 115.03 76.6175 113.129 76.8327C116.453 85.0639 125.493 103.749 126.057 105.491C126.367 109.532 126.264 120.929 126.677 125.798C128.081 129.319 130.392 132.636 136.689 133.174C143.693 133.772 149.612 132.067 152.899 126.369C153.393 121.173 153.776 110.154 153.846 109.139C153.949 107.623 154.095 105.942 154.422 105.207C158.97 94.9605 162.736 87.2171 166.501 76.6554C165.107 75.7689 163.384 74.6317 161.991 73.7442Z" fill="#5C00C7"/>
<path d="M161.991 73.7442C158.452 80.8744 154.827 86.8266 148.934 93.8411C147.02 92.3946 145.717 92.6654 142.594 92.7234C142.455 93.8127 141.609 94.7123 140.5 94.7039C138.553 94.6894 137.876 92.9161 137.876 92.9161C135.734 93.0276 133.749 92.621 131.597 93.4563C130.784 90.4125 121.591 79.6543 118.393 74.7128C116.87 75.8765 115.03 76.6175 113.129 76.8327C116.453 85.0639 125.493 103.749 126.057 105.491C126.367 109.532 126.264 120.929 126.677 125.798C128.081 129.319 130.392 132.636 136.689 133.174C143.693 133.772 149.612 132.067 152.899 126.369C153.393 121.173 153.776 110.154 153.846 109.139C153.949 107.623 154.095 105.942 154.422 105.207C158.97 94.9605 162.736 87.2171 166.501 76.6554C165.107 75.7689 163.384 74.6317 161.991 73.7442Z" fill="url(#paint36_linear)" fill-opacity="0.25"/>
<path d="M161.991 73.7442C158.452 80.8744 154.827 86.8266 148.934 93.8411C147.02 92.3946 145.717 92.6654 142.594 92.7234C142.455 93.8127 141.609 94.7123 140.5 94.7039C138.553 94.6894 137.876 92.9161 137.876 92.9161C135.734 93.0276 133.749 92.621 131.597 93.4563C130.784 90.4125 121.591 79.6543 118.393 74.7128C116.87 75.8765 115.03 76.6175 113.129 76.8327C116.453 85.0639 125.493 103.749 126.057 105.491C126.367 109.532 126.264 120.929 126.677 125.798C128.081 129.319 130.392 132.636 136.689 133.174C143.693 133.772 149.612 132.067 152.899 126.369C153.393 121.173 153.776 110.154 153.846 109.139C153.949 107.623 154.095 105.942 154.422 105.207C158.97 94.9605 162.736 87.2171 166.501 76.6554C165.107 75.7689 163.384 74.6317 161.991 73.7442Z" fill="url(#paint37_linear)" fill-opacity="0.15"/>
<path d="M134.17 113.806C134.186 113.868 134.236 113.907 134.298 113.891C134.36 113.874 134.399 113.824 134.383 113.762C134.366 113.7 134.316 113.66 134.254 113.677C134.192 113.693 134.153 113.744 134.17 113.806ZM138.278 123.708C138.239 123.758 138.256 123.82 138.306 123.86C138.356 123.899 138.418 123.882 138.457 123.832C138.496 123.781 138.48 123.719 138.43 123.68C138.385 123.612 138.318 123.657 138.278 123.708ZM139.684 121.364C139.645 121.414 139.662 121.476 139.712 121.515C139.762 121.555 139.824 121.538 139.863 121.488C139.902 121.437 139.886 121.375 139.836 121.336C139.813 121.302 139.724 121.313 139.684 121.364ZM134.908 118.927C134.959 118.966 135.014 118.977 135.076 118.961C135.115 118.91 135.127 118.854 135.11 118.792C135.06 118.753 135.004 118.741 134.97 118.763C134.875 118.803 134.864 118.859 134.908 118.927ZM137.13 117.304C137.18 117.344 137.236 117.355 137.297 117.339C137.337 117.288 137.348 117.232 137.331 117.17C137.281 117.131 137.225 117.119 137.192 117.141C137.096 117.181 137.079 117.265 137.13 117.304ZM143.731 124.383C143.72 124.439 143.764 124.507 143.82 124.518C143.876 124.53 143.944 124.485 143.955 124.429C143.966 124.373 143.922 124.305 143.866 124.294C143.81 124.282 143.742 124.327 143.731 124.383ZM144.165 121.665C144.154 121.721 144.198 121.788 144.254 121.8C144.31 121.811 144.378 121.767 144.389 121.71C144.4 121.654 144.356 121.587 144.3 121.575C144.244 121.564 144.176 121.609 144.165 121.665ZM133.405 116.719C133.428 116.753 133.506 116.798 133.545 116.748C133.579 116.726 133.624 116.647 133.573 116.607C133.551 116.574 133.473 116.528 133.434 116.579C133.372 116.596 133.361 116.652 133.405 116.719ZM135.496 115.451C135.518 115.484 135.597 115.53 135.636 115.479C135.67 115.457 135.709 115.407 135.664 115.339C135.642 115.305 135.592 115.266 135.524 115.31C135.485 115.361 135.474 115.417 135.496 115.451ZM141.576 122.802C141.565 122.858 141.582 122.92 141.638 122.932C141.694 122.943 141.727 122.921 141.767 122.87C141.778 122.814 141.761 122.752 141.705 122.741C141.65 122.729 141.588 122.746 141.576 122.802ZM142.172 120.439C142.16 120.495 142.177 120.557 142.233 120.568C142.289 120.58 142.322 120.557 142.362 120.507C142.373 120.451 142.357 120.389 142.301 120.377C142.245 120.366 142.183 120.383 142.172 120.439ZM137.459 119.418C137.419 119.469 137.436 119.53 137.486 119.57C137.536 119.609 137.598 119.593 137.637 119.542C137.677 119.492 137.66 119.43 137.61 119.39C137.56 119.351 137.498 119.368 137.459 119.418ZM132.161 118.979C132.122 119.03 132.139 119.092 132.188 119.131C132.239 119.17 132.3 119.154 132.34 119.103C132.379 119.053 132.362 118.991 132.312 118.951C132.262 118.912 132.201 118.929 132.161 118.979ZM133.842 116.721C133.802 116.771 133.819 116.833 133.869 116.873C133.919 116.912 133.981 116.895 134.02 116.845C134.06 116.794 134.043 116.733 133.993 116.693C133.943 116.654 133.881 116.67 133.842 116.721ZM135.499 114.428C135.46 114.479 135.477 114.54 135.527 114.58C135.577 114.619 135.639 114.603 135.678 114.552C135.717 114.502 135.701 114.44 135.651 114.4C135.594 114.389 135.533 114.405 135.499 114.428ZM143.616 121.933C143.633 121.995 143.683 122.034 143.744 122.017C143.806 122.001 143.845 121.95 143.829 121.888C143.812 121.827 143.762 121.787 143.7 121.804C143.644 121.793 143.6 121.871 143.616 121.933ZM133.995 110.788C133.928 110.833 133.916 110.889 133.961 110.956L133.995 110.788ZM137.724 120.262C137.713 120.318 137.758 120.386 137.814 120.397C137.869 120.408 137.937 120.364 137.948 120.308C137.96 120.252 137.915 120.184 137.859 120.172C137.803 120.161 137.735 120.206 137.724 120.262ZM135.8 120.278C135.788 120.334 135.833 120.401 135.889 120.413C135.945 120.425 136.012 120.38 136.023 120.324C136.035 120.268 136.018 120.206 135.934 120.188C135.878 120.177 135.811 120.222 135.8 120.278ZM136.58 117.572C136.569 117.628 136.613 117.696 136.669 117.707C136.725 117.719 136.787 117.702 136.804 117.618C136.815 117.562 136.771 117.494 136.721 117.455C136.659 117.471 136.592 117.516 136.58 117.572ZM133.112 113.999C133.072 114.049 133.089 114.111 133.139 114.151C133.189 114.19 133.251 114.173 133.318 114.129C133.357 114.078 133.341 114.017 133.296 113.949C133.212 113.932 133.151 113.948 133.112 113.999ZM134.215 113.727C134.203 113.783 134.226 113.817 134.248 113.851C134.304 113.862 134.337 113.84 134.372 113.818C134.383 113.762 134.36 113.728 134.338 113.694C134.282 113.682 134.221 113.699 134.215 113.727Z" fill="white"/>
<path d="M139.282 75.5454C139.735 75.4518 140.518 75.6179 140.956 75.7653C141.199 75.8475 142.338 76.2762 142.547 76.4254C143.584 77.1645 144.007 77.8335 144.66 78.9282C145.023 79.5376 145.046 80.2177 145.209 80.9085C145.389 81.6715 145.27 82.5321 144.96 83.252C144.896 82.7759 144.83 82.2924 144.636 81.8535C144.346 81.1973 143.788 80.6917 143.175 80.3207C142.562 79.9497 141.887 79.6973 141.23 79.4123C140.677 79.1729 140.134 78.9093 139.604 78.623C139.046 78.3217 138.451 77.9294 138.308 77.3106C138.078 77.436 137.826 77.5137 137.586 77.6187C137.069 77.8454 136.618 78.1964 136.173 78.544C135.279 79.242 135.332 78.9558 134.371 80.6886C134.255 80.8986 134.382 78.5765 134.697 78.2619C134.836 78.1231 136.135 76.7663 136.264 76.6181C136.627 76.2031 138.637 75.679 139.282 75.5454Z" fill="#428DFC"/>
<path d="M170.214 59.3272C170.191 59.0524 170.3 58.7896 170.388 58.5286C170.481 58.2501 170.538 57.7362 170.583 57.4458C170.78 56.1817 171.269 55.2411 172.264 54.5925C173.094 54.0523 174.299 52.3052 174.539 52.7726C174.764 53.3971 174.18 53.9691 173.814 54.5226C173.448 55.0761 172.779 56.4786 172.766 56.6266C172.747 56.8382 172.868 57.0319 172.963 57.2217C173.613 58.5218 172.823 60.3721 172.252 60.6365C171.406 61.0285 171.175 60.5502 170.499 59.9057C170.33 59.7442 170.234 59.5607 170.214 59.3272Z" fill="url(#paint38_linear)"/>
<path d="M109.554 59.3272C109.577 59.0524 109.468 58.7896 109.381 58.5286C109.287 58.2501 109.231 57.7362 109.186 57.4458C108.989 56.1817 108.5 55.2411 107.504 54.5925C106.674 54.0523 105.469 52.3052 105.23 52.7726C105.004 53.3971 105.589 53.9691 105.955 54.5226C106.32 55.0761 106.99 56.4786 107.003 56.6266C107.021 56.8382 106.9 57.0319 106.805 57.2217C106.155 58.5218 106.945 60.3721 107.516 60.6365C108.363 61.0285 108.593 60.5502 109.269 59.9057C109.438 59.7442 109.535 59.5607 109.554 59.3272Z" fill="url(#paint39_linear)"/>
<path d="M238.88 114.544H233.591V129.397H238.88V114.544Z" fill="#F2A19C"/>
<path d="M232.02 109.891C231.659 109.062 231.545 108.143 231.558 107.239C231.621 102.895 234.772 98.8554 238.872 97.4539C242.972 96.0523 247.751 97.2039 250.992 100.087C252.869 101.756 254.242 103.915 255.974 105.734C257.706 107.554 260.02 109.093 262.524 108.934C266.242 108.699 269.285 104.834 272.96 105.448C274.728 105.744 276.139 107.033 277.704 107.911C279.27 108.788 281.466 109.166 282.684 107.846C282.429 110.477 282.887 111.461 283.134 113.306C283.381 115.151 282.781 117.373 281.018 118.965C279.085 120.71 278.137 122.481 277.108 124.877C276.278 126.81 276.591 129.012 276.606 131.116C276.622 133.221 276.156 135.601 274.384 136.728C271.718 137.366 269.541 134.566 266.925 133.743C265.021 133.144 262.965 133.635 260.971 133.567C257.123 133.433 253.441 131.006 251.792 127.517C251.112 126.078 250.765 124.504 250.169 123.028C248.669 119.309 245.529 116.291 241.76 114.946C238.192 113.674 233.537 113.37 232.02 109.891Z" fill="#E94A47"/>
<path d="M243.028 101.788C241.212 100.51 240.356 100.366 238.24 100.518C238.042 100.532 236.921 100.769 236.729 100.821C234.387 101.452 233.269 102.576 232.207 104.461C231.146 106.346 230.81 108.611 230.881 110.863C230.941 112.788 231.402 114.938 232.98 116.252C233.82 116.953 234.891 117.327 235.942 117.456C238.357 117.751 240.694 116.796 242.296 115.201C243.898 113.606 244.817 111.427 245.238 109.155C245.712 106.601 245.339 103.414 243.028 101.788Z" fill="#FFBEB6"/>
<path d="M234.175 104.751C233.932 104.985 233.606 105.47 233.606 105.47C233.606 105.47 234.032 105.932 234.229 106.064C236.946 107.883 239.954 109.385 243.144 110.515C244.279 107.061 244.613 103.417 244.12 99.8549C243.138 99.5712 242.053 99.2887 241.091 99.6188C240.775 99.7274 240.493 99.8971 240.217 100.069C238.013 101.438 235.983 103.011 234.175 104.751Z" fill="#E94A47"/>
<path d="M233.157 104.807C233.119 104.807 233.082 104.792 233.055 104.762C233.003 104.706 233.007 104.618 233.063 104.566L234.788 102.984C235.345 102.473 235.921 101.945 236.558 101.504C237.644 100.753 238.908 100.262 240.214 100.083C240.288 100.073 240.359 100.125 240.369 100.201C240.38 100.277 240.327 100.347 240.251 100.357C238.988 100.531 237.765 101.006 236.715 101.732C236.094 102.162 235.525 102.684 234.974 103.189L233.25 104.771C233.223 104.795 233.19 104.807 233.157 104.807Z" fill="#E94A47"/>
<path d="M233.896 108.758C232.486 108.758 231.1 108.023 230.317 106.844C230.233 106.717 230.156 106.587 230.079 106.457C230.04 106.391 230.062 106.306 230.128 106.267C230.193 106.229 230.278 106.25 230.317 106.316C230.391 106.442 230.465 106.568 230.546 106.69C231.319 107.852 232.718 108.551 234.107 108.474C234.185 108.47 234.248 108.528 234.253 108.605C234.257 108.681 234.199 108.747 234.123 108.751C234.047 108.755 233.971 108.758 233.896 108.758Z" fill="#23286B"/>
<path d="M263.111 106.773C261.424 106.773 259.819 106.262 258.655 105.045C255.761 102.021 252.48 98.5932 248.229 96.9498C244.322 95.4389 238.939 95.8139 236.212 99.4533C236.166 99.5145 236.08 99.5267 236.019 99.4811C235.958 99.4352 235.946 99.3481 235.991 99.2869C238.8 95.5379 244.324 95.1433 248.328 96.6911C252.637 98.3566 256.084 101.959 258.854 104.853C261.173 107.276 265.343 106.76 268.263 104.998L268.317 104.966C269.81 104.065 271.669 102.942 273.098 103.999C275.661 105.894 279.388 106.123 282.163 104.557C282.224 104.522 282.287 104.491 282.351 104.464C282.42 104.433 282.502 104.465 282.533 104.536C282.563 104.606 282.531 104.687 282.461 104.718C282.406 104.742 282.351 104.769 282.299 104.799C279.432 106.417 275.581 106.18 272.934 104.222C271.654 103.276 269.882 104.345 268.459 105.204L268.406 105.236C266.843 106.179 264.929 106.772 263.111 106.773Z" fill="#E94A47"/>
<g opacity="0.2">
<path d="M266.372 130.164L264.225 129.499L266.032 131.268L266.372 130.164Z" fill="#5C00C7"/>
<path d="M266.372 130.164L264.225 129.499L266.032 131.268L266.372 130.164Z" fill="url(#paint40_linear)" fill-opacity="0.25"/>
<path d="M266.372 130.164L264.225 129.499L266.032 131.268L266.372 130.164Z" fill="url(#paint41_linear)" fill-opacity="0.15"/>
</g>
<g opacity="0.2">
<path d="M256.714 127.173L264.843 135.128L265.469 133.096L260.667 128.397L256.714 127.173Z" fill="#5C00C7"/>
<path d="M256.714 127.173L264.843 135.128L265.469 133.096L260.667 128.397L256.714 127.173Z" fill="url(#paint42_linear)" fill-opacity="0.25"/>
<path d="M256.714 127.173L264.843 135.128L265.469 133.096L260.667 128.397L256.714 127.173Z" fill="url(#paint43_linear)" fill-opacity="0.15"/>
</g>
<g opacity="0.2">
<path d="M249.204 124.847L263.655 138.988L264.28 136.957L253.157 126.071L249.204 124.847Z" fill="#5C00C7"/>
<path d="M249.204 124.847L263.655 138.988L264.28 136.957L253.157 126.071L249.204 124.847Z" fill="url(#paint44_linear)" fill-opacity="0.25"/>
<path d="M249.204 124.847L263.655 138.988L264.28 136.957L253.157 126.071L249.204 124.847Z" fill="url(#paint45_linear)" fill-opacity="0.15"/>
</g>
<g opacity="0.2">
<path d="M247.377 128.083L262.466 142.849L263.092 140.817L248.003 126.051L247.377 128.083Z" fill="#5C00C7"/>
<path d="M247.377 128.083L262.466 142.849L263.092 140.817L248.003 126.051L247.377 128.083Z" fill="url(#paint46_linear)" fill-opacity="0.25"/>
<path d="M247.377 128.083L262.466 142.849L263.092 140.817L248.003 126.051L247.377 128.083Z" fill="url(#paint47_linear)" fill-opacity="0.15"/>
</g>
<g opacity="0.2">
<path d="M246.188 131.943L261.277 146.709L261.903 144.677L246.814 129.911L246.188 131.943Z" fill="#5C00C7"/>
<path d="M246.188 131.943L261.277 146.709L261.903 144.677L246.814 129.911L246.188 131.943Z" fill="url(#paint48_linear)" fill-opacity="0.25"/>
<path d="M246.188 131.943L261.277 146.709L261.903 144.677L246.814 129.911L246.188 131.943Z" fill="url(#paint49_linear)" fill-opacity="0.15"/>
</g>
<path d="M245 135.803L255.851 146.422L259.803 147.646L245.625 133.772L245 135.803Z" fill="#A1C3FC"/>
<path d="M243.811 139.664L248.34 144.096L252.293 145.32L244.437 137.632L243.811 139.664Z" fill="#A1C3FC"/>
<path d="M242.96 142.429L244.782 142.994L243.248 141.492L242.96 142.429Z" fill="#A1C3FC"/>
<path d="M254.23 158.931C254.19 158.53 260.31 162.673 261.14 154.774C262.247 144.222 255.398 136.873 251.878 126.868C250.861 123.976 249.635 120.38 246.607 119.949C244.302 119.621 241.025 121.48 239.234 122.973C237.443 124.465 236.633 125.463 234.385 124.623C233.655 124.35 233.591 123.473 233.591 123.473C233.591 123.473 227.775 123.972 226.162 125.664C224.548 127.356 223.738 128.231 223.068 130.473C220.516 139.015 217.965 147.555 215.413 156.096H254.23V158.931Z" fill="#5C00C7"/>
<path d="M254.23 158.931C254.19 158.53 260.31 162.673 261.14 154.774C262.247 144.222 255.398 136.873 251.878 126.868C250.861 123.976 249.635 120.38 246.607 119.949C244.302 119.621 241.025 121.48 239.234 122.973C237.443 124.465 236.633 125.463 234.385 124.623C233.655 124.35 233.591 123.473 233.591 123.473C233.591 123.473 227.775 123.972 226.162 125.664C224.548 127.356 223.738 128.231 223.068 130.473C220.516 139.015 217.965 147.555 215.413 156.096H254.23V158.931Z" fill="url(#paint50_linear)" fill-opacity="0.25"/>
<path d="M254.23 158.931C254.19 158.53 260.31 162.673 261.14 154.774C262.247 144.222 255.398 136.873 251.878 126.868C250.861 123.976 249.635 120.38 246.607 119.949C244.302 119.621 241.025 121.48 239.234 122.973C237.443 124.465 236.633 125.463 234.385 124.623C233.655 124.35 233.591 123.473 233.591 123.473C233.591 123.473 227.775 123.972 226.162 125.664C224.548 127.356 223.738 128.231 223.068 130.473C220.516 139.015 217.965 147.555 215.413 156.096H254.23V158.931Z" fill="url(#paint51_linear)" fill-opacity="0.15"/>
<path d="M227.841 125.432C228.6 126.181 229.587 126.993 230.607 126.686C230.805 126.518 230.081 125.1 229.456 124.596C229.213 124.4 228.909 124.302 228.623 124.179C228.091 123.949 227.447 122.926 227.192 123.209C226.631 124.034 225.856 124.636 224.981 125.103C225.031 124.348 225.47 123.393 225.902 122.858C226.589 122.01 226.649 121.596 227.335 120.748C227.81 120.161 228.782 118.961 228.397 118.311C228.051 117.725 225.689 120.345 224.671 122.364C224.337 123.026 224.022 123.981 223.186 125.089C223.529 124.093 223.555 123.565 223.798 122.993C224.179 122.092 224.11 121.625 224.492 120.725C224.79 120.021 225.19 118.817 224.557 118.39C224.232 118.17 223.957 118.855 223.829 119.227C223.02 121.571 222.681 123.254 221.872 125.597C221.598 123.867 221.205 124.004 220.932 122.274C220.891 122.017 220.49 120.534 220.305 120.351C220.12 120.167 219.751 120.156 219.639 120.391C219.575 120.525 219.544 120.904 219.656 121.331C220.119 123.097 220.808 124.973 221.061 126.604C220.911 126.765 220.855 126.992 220.794 127.206C220.456 128.402 219.741 129.425 219.023 130.451C218.707 130.702 218.406 130.971 218.176 131.301C217.801 131.837 217.638 132.49 217.474 133.124C215.849 139.451 213.57 145.609 210.685 151.467C213.201 151.65 215.718 151.834 218.234 152.018C218.485 152.036 218.766 152.045 218.954 151.878C219.137 151.715 219.167 151.445 219.185 151.201C219.513 146.713 219.841 142.213 219.629 137.718C219.585 136.803 219.524 135.859 219.829 134.996C219.846 134.947 219.868 134.903 219.887 134.855C219.893 134.857 219.899 134.86 219.905 134.862C221.414 133.842 222.922 132.821 224.43 131.8C224.585 131.695 224.743 131.588 224.92 131.527C225.097 131.466 225.286 131.451 225.473 131.443C227.193 131.363 230.501 132.787 230.469 132.289C230.345 131.448 229.713 130.932 228.96 130.543C228.207 130.154 227.351 130.021 226.51 129.915C226.331 129.892 226.14 129.866 226.005 129.746C225.864 129.621 225.816 129.424 225.776 129.24C225.675 128.782 225.574 128.323 225.474 127.866C225.414 127.595 225.355 127.312 225.421 127.042C225.66 126.067 227.118 126.127 227.841 125.432Z" fill="#FFBEB6"/>
<path d="M217.025 161.162C213.76 161.584 211.832 158.921 210.285 156.036C209.901 155.318 210.245 151.175 210.849 149.048C212.233 144.176 214.069 140.423 215.953 135.709C217.192 135.821 219.208 135.941 220.447 136.053C220.946 138.982 220.666 141.903 221.165 144.833C221.449 146.507 221.206 151.938 220.594 154.56C220.024 157.005 219.374 160.857 217.025 161.162Z" fill="#5C00C7"/>
<path d="M217.025 161.162C213.76 161.584 211.832 158.921 210.285 156.036C209.901 155.318 210.245 151.175 210.849 149.048C212.233 144.176 214.069 140.423 215.953 135.709C217.192 135.821 219.208 135.941 220.447 136.053C220.946 138.982 220.666 141.903 221.165 144.833C221.449 146.507 221.206 151.938 220.594 154.56C220.024 157.005 219.374 160.857 217.025 161.162Z" fill="url(#paint52_linear)" fill-opacity="0.25"/>
<path d="M217.025 161.162C213.76 161.584 211.832 158.921 210.285 156.036C209.901 155.318 210.245 151.175 210.849 149.048C212.233 144.176 214.069 140.423 215.953 135.709C217.192 135.821 219.208 135.941 220.447 136.053C220.946 138.982 220.666 141.903 221.165 144.833C221.449 146.507 221.206 151.938 220.594 154.56C220.024 157.005 219.374 160.857 217.025 161.162Z" fill="url(#paint53_linear)" fill-opacity="0.15"/>
<path d="M257.209 145.161C256.994 144.344 256.179 143.864 255.461 143.422C251.563 141.02 248.671 137.312 245.892 133.667C245.247 132.822 244.59 131.966 243.759 131.309C242.878 129.977 241.832 128.734 241.4 127.206C241.339 126.992 241.283 126.765 241.133 126.604C241.386 124.973 242.075 123.097 242.538 121.331C242.65 120.904 242.619 120.525 242.555 120.391C242.443 120.155 242.074 120.167 241.889 120.35C241.704 120.533 241.303 122.016 241.262 122.274C240.988 124.004 240.596 123.867 240.322 125.597C239.513 123.253 239.174 121.571 238.365 119.227C238.237 118.855 237.962 118.17 237.637 118.39C237.004 118.817 237.405 120.021 237.702 120.725C238.083 121.625 238.015 122.092 238.396 122.992C238.639 123.565 238.665 124.093 239.008 125.089C238.172 123.98 237.857 123.025 237.523 122.364C236.505 120.345 234.143 117.725 233.797 118.311C233.411 118.96 234.384 120.161 234.859 120.748C235.545 121.596 235.605 122.01 236.291 122.858C236.724 123.393 237.163 124.348 237.213 125.103C236.337 124.636 235.562 124.034 235.002 123.209C234.747 122.925 234.103 123.949 233.571 124.179C233.285 124.302 232.98 124.4 232.737 124.596C232.112 125.1 231.388 126.518 231.587 126.686C232.607 126.993 233.594 126.181 234.353 125.432C235.076 126.127 236.533 126.066 236.773 127.042C236.838 127.312 236.779 127.594 236.719 127.865C236.619 128.323 236.518 128.782 236.418 129.239C236.377 129.424 236.329 129.621 236.188 129.746C236.053 129.866 235.862 129.892 235.683 129.915C234.842 130.02 233.987 130.154 233.233 130.543C232.48 130.932 231.848 131.448 231.724 132.289C231.692 132.787 235 131.363 236.72 131.443C236.907 131.451 237.096 131.466 237.274 131.527C237.451 131.589 237.608 131.695 237.763 131.8C239.076 132.688 238.609 132.444 239.459 133.038C239.632 133.184 239.819 133.314 240.021 133.418C240.777 133.809 241.66 133.899 242.417 134.287C243.751 134.971 244.463 136.438 245.084 137.805C246.905 141.816 248.725 145.827 250.547 149.838C251.892 149.292 253.238 148.746 254.583 148.2C255.945 147.648 257.583 146.584 257.209 145.161Z" fill="#FFBEB6"/>
<path d="M259.924 158.745C260.77 157.853 261.051 156.248 260.959 154.598C260.867 152.947 260.44 151.229 260.015 149.535C259.4 147.089 255.577 142.644 252.964 140.699C252.433 140.303 247.16 135.155 247.16 135.155C247.16 135.155 245.229 138.763 244.138 139.609C245.364 145.077 247.485 150.542 250.298 155.483C250.758 156.29 251.251 157.104 251.868 157.702C252.805 158.609 253.89 158.898 254.914 159.153C256.73 159.603 258.724 160.01 259.924 158.745Z" fill="#5C00C7"/>
<path d="M259.924 158.745C260.77 157.853 261.051 156.248 260.959 154.598C260.867 152.947 260.44 151.229 260.015 149.535C259.4 147.089 255.577 142.644 252.964 140.699C252.433 140.303 247.16 135.155 247.16 135.155C247.16 135.155 245.229 138.763 244.138 139.609C245.364 145.077 247.485 150.542 250.298 155.483C250.758 156.29 251.251 157.104 251.868 157.702C252.805 158.609 253.89 158.898 254.914 159.153C256.73 159.603 258.724 160.01 259.924 158.745Z" fill="url(#paint54_linear)" fill-opacity="0.25"/>
<path d="M259.924 158.745C260.77 157.853 261.051 156.248 260.959 154.598C260.867 152.947 260.44 151.229 260.015 149.535C259.4 147.089 255.577 142.644 252.964 140.699C252.433 140.303 247.16 135.155 247.16 135.155C247.16 135.155 245.229 138.763 244.138 139.609C245.364 145.077 247.485 150.542 250.298 155.483C250.758 156.29 251.251 157.104 251.868 157.702C252.805 158.609 253.89 158.898 254.914 159.153C256.73 159.603 258.724 160.01 259.924 158.745Z" fill="url(#paint55_linear)" fill-opacity="0.15"/>
<path d="M252.423 147.975C252.42 148.023 252.445 148.062 252.492 148.065C252.539 148.069 252.578 148.043 252.581 147.996C252.585 147.949 252.559 147.909 252.512 147.906C252.466 147.903 252.426 147.928 252.423 147.975ZM252.906 155.867C252.866 155.892 252.863 155.94 252.889 155.979C252.914 156.019 252.961 156.023 253 155.997C253.04 155.971 253.043 155.924 253.018 155.884C253.003 155.826 252.945 155.841 252.906 155.867ZM254.451 154.575C254.411 154.601 254.408 154.648 254.433 154.688C254.459 154.727 254.506 154.731 254.545 154.705C254.585 154.68 254.588 154.632 254.563 154.593C254.555 154.564 254.49 154.55 254.451 154.575ZM251.706 151.721C251.732 151.761 251.768 151.782 251.815 151.786C251.855 151.76 251.876 151.724 251.879 151.677C251.854 151.637 251.818 151.616 251.789 151.623C251.713 151.627 251.692 151.663 251.706 151.721ZM253.645 151.129C253.67 151.169 253.707 151.19 253.754 151.194C253.794 151.169 253.815 151.132 253.818 151.085C253.793 151.045 253.756 151.024 253.728 151.031C253.652 151.035 253.62 151.089 253.645 151.129ZM256.546 157.658C256.525 157.695 256.54 157.753 256.576 157.774C256.612 157.796 256.67 157.781 256.691 157.744C256.713 157.708 256.698 157.65 256.662 157.629C256.626 157.607 256.568 157.622 256.546 157.658ZM257.503 155.87C257.481 155.907 257.496 155.964 257.532 155.986C257.569 156.008 257.626 155.993 257.648 155.956C257.669 155.92 257.654 155.862 257.618 155.841C257.582 155.819 257.524 155.834 257.503 155.87ZM251.189 149.819C251.196 149.848 251.24 149.898 251.279 149.873C251.308 149.866 251.358 149.822 251.333 149.782C251.326 149.753 251.282 149.703 251.242 149.728C251.195 149.725 251.174 149.761 251.189 149.819ZM252.952 149.442C252.96 149.471 253.003 149.522 253.043 149.496C253.072 149.489 253.111 149.463 253.097 149.405C253.089 149.376 253.064 149.337 253.006 149.351C252.966 149.377 252.945 149.413 252.952 149.442ZM255.424 156.036C255.402 156.072 255.399 156.119 255.435 156.141C255.472 156.162 255.5 156.155 255.54 156.129C255.562 156.093 255.565 156.046 255.529 156.024C255.492 156.003 255.445 155.999 255.424 156.036ZM256.407 154.534C256.386 154.57 256.383 154.617 256.419 154.639C256.455 154.661 256.484 154.653 256.524 154.627C256.545 154.591 256.548 154.544 256.512 154.522C256.476 154.501 256.429 154.497 256.407 154.534ZM253.366 152.681C253.327 152.706 253.323 152.753 253.349 152.793C253.374 152.833 253.421 152.836 253.461 152.81C253.5 152.785 253.504 152.738 253.478 152.698C253.453 152.658 253.406 152.655 253.366 152.681ZM249.778 151.092C249.738 151.117 249.735 151.165 249.76 151.204C249.786 151.244 249.833 151.247 249.872 151.222C249.912 151.196 249.915 151.149 249.89 151.109C249.864 151.07 249.817 151.066 249.778 151.092ZM251.493 149.926C251.453 149.951 251.45 149.998 251.475 150.038C251.501 150.078 251.548 150.081 251.587 150.055C251.627 150.03 251.63 149.983 251.605 149.943C251.579 149.904 251.532 149.9 251.493 149.926ZM253.2 148.731C253.161 148.756 253.157 148.804 253.183 148.843C253.209 148.883 253.255 148.887 253.295 148.861C253.334 148.835 253.338 148.788 253.312 148.748C253.276 148.727 253.229 148.724 253.2 148.731ZM257.055 155.924C257.052 155.971 257.077 156.011 257.124 156.014C257.172 156.017 257.211 155.992 257.214 155.945C257.217 155.898 257.192 155.858 257.145 155.855C257.109 155.833 257.059 155.877 257.055 155.924ZM253.027 145.831C252.969 145.846 252.948 145.882 252.963 145.94L253.027 145.831ZM253.349 153.333C253.327 153.369 253.342 153.427 253.379 153.448C253.415 153.47 253.472 153.455 253.494 153.419C253.515 153.382 253.501 153.324 253.464 153.303C253.428 153.282 253.37 153.296 253.349 153.333ZM252.003 152.878C251.981 152.914 251.996 152.972 252.032 152.993C252.069 153.015 252.126 153 252.148 152.964C252.169 152.927 252.172 152.88 252.118 152.848C252.082 152.827 252.024 152.842 252.003 152.878ZM253.198 151.182C253.176 151.219 253.191 151.277 253.228 151.298C253.264 151.32 253.311 151.323 253.343 151.268C253.364 151.232 253.35 151.174 253.324 151.134C253.277 151.131 253.219 151.147 253.198 151.182ZM251.639 147.853C251.599 147.879 251.595 147.926 251.621 147.966C251.646 148.005 251.694 148.009 251.751 147.994C251.791 147.969 251.795 147.921 251.78 147.864C251.725 147.831 251.678 147.828 251.639 147.853ZM252.473 147.931C252.452 147.968 252.459 147.997 252.467 148.026C252.503 148.047 252.531 148.04 252.56 148.032C252.582 147.996 252.575 147.967 252.567 147.938C252.531 147.917 252.484 147.913 252.473 147.931Z" fill="white"/>
<path d="M168.259 194.891C167.991 194.08 167.497 193.296 166.83 192.621C164.95 190.722 162.212 190.243 160.725 191.554C159.807 192.363 159.538 193.691 160.006 195.105C160.275 195.916 160.769 196.701 161.436 197.375C162.328 198.277 163.439 198.892 164.562 199.107C165.74 199.332 166.797 199.097 167.539 198.442C168.458 197.633 168.728 196.306 168.259 194.891ZM160.756 194.858C160.38 193.722 160.564 192.685 161.247 192.082C162.411 191.056 164.653 191.53 166.244 193.138C166.836 193.736 167.274 194.429 167.51 195.141C167.886 196.276 167.702 197.313 167.019 197.916C166.476 198.394 165.672 198.561 164.753 198.385C163.78 198.199 162.81 197.658 162.021 196.861C161.429 196.261 160.992 195.569 160.756 194.858Z" fill="#23286B"/>
<path d="M37.0065 123.315C34.4624 123.315 32.1705 124.39 30.5555 126.108C28.9405 124.39 26.6486 123.315 24.1045 123.315C19.2141 123.315 15.25 127.279 15.25 132.17C15.25 139.774 25.8466 148.021 30.5555 149.616C35.6489 147.787 45.861 139.385 45.861 132.17C45.861 127.279 41.8969 123.315 37.0065 123.315Z" fill="#E94A47"/>
<path d="M30.5457 148.732C37.3719 145.38 41.9059 141.622 44.2159 137.761C46.1719 134.492 46.4155 131.304 45.1874 128.681C44.0722 126.3 41.8066 124.6 39.1968 124.162C36.4113 123.694 33.5765 124.694 31.3291 127.168L30.5457 128.031L29.7624 127.168C27.515 124.694 24.6802 123.694 21.8946 124.162C19.2849 124.6 17.0193 126.3 15.9041 128.681C14.676 131.304 14.9195 134.492 16.8756 137.761C19.1856 141.622 23.7196 145.38 30.5457 148.732Z" fill="white" stroke="#BF0020" stroke-width="2.34013" stroke-linecap="round" stroke-linejoin="round"/>
<path d="M29.8514 139.314L27.9943 140.282C27.8045 140.381 27.5698 140.309 27.47 140.121C27.4302 140.046 27.4165 139.96 27.4309 139.876L27.7858 137.824C27.8688 137.344 27.7083 136.854 27.3565 136.513L25.8533 135.06C25.6998 134.911 25.6967 134.668 25.8464 134.515C25.906 134.455 25.984 134.415 26.0685 134.403L28.1452 134.104C28.6317 134.034 29.0522 133.731 29.2697 133.294L30.1984 131.427C30.2932 131.236 30.526 131.158 30.7184 131.252C30.795 131.289 30.857 131.351 30.8948 131.427L31.8235 133.294C32.041 133.731 32.4615 134.034 32.9479 134.104L35.0246 134.403C35.2368 134.434 35.3839 134.629 35.353 134.84C35.3407 134.923 35.301 135.001 35.2399 135.06L33.7367 136.513C33.3849 136.854 33.2244 137.344 33.3074 137.824L33.6622 139.876C33.6985 140.086 33.5565 140.285 33.3452 140.321C33.261 140.335 33.1744 140.322 33.0988 140.282L31.2417 139.314C30.8065 139.087 30.2866 139.087 29.8514 139.314Z" fill="#0027DC"/>
<path d="M48.2459 209.2L86.7907 209.2" stroke="#CDCDCD" stroke-width="2.41469" stroke-linecap="round" stroke-dasharray="0.97 3.86"/>
<path d="M48.1221 209.2H72.269" stroke="#21A8DD" stroke-width="2.41469" stroke-linecap="round" stroke-dasharray="0.97 3.86"/>
<path d="M48.1221 209.2H72.269" stroke="#5C00C7" stroke-width="2.41469" stroke-linecap="round" stroke-dasharray="0.97 3.86"/>
<path d="M48.1221 209.2H72.269" stroke="url(#paint56_linear)" stroke-opacity="0.25" stroke-width="2.41469" stroke-linecap="round" stroke-dasharray="0.97 3.86"/>
<path d="M48.1221 209.2H72.269" stroke="url(#paint57_linear)" stroke-opacity="0.15" stroke-width="2.41469" stroke-linecap="round" stroke-dasharray="0.97 3.86"/>
<path d="M120.902 137.562L159.447 137.562" stroke="#CDCDCD" stroke-width="2.41469" stroke-linecap="round" stroke-dasharray="0.97 3.86"/>
<path d="M120.778 137.562H154.359" stroke="#21A8DD" stroke-width="2.41469" stroke-linecap="round" stroke-dasharray="0.97 3.86"/>
<path d="M120.778 137.562H154.359" stroke="#5C00C7" stroke-width="2.41469" stroke-linecap="round" stroke-dasharray="0.97 3.86"/>
<path d="M120.778 137.562H154.359" stroke="url(#paint58_linear)" stroke-opacity="0.25" stroke-width="2.41469" stroke-linecap="round" stroke-dasharray="0.97 3.86"/>
<path d="M120.778 137.562H154.359" stroke="url(#paint59_linear)" stroke-opacity="0.15" stroke-width="2.41469" stroke-linecap="round" stroke-dasharray="0.97 3.86"/>
<path d="M216.76 164.426L255.304 164.426" stroke="#CDCDCD" stroke-width="2.41469" stroke-linecap="round" stroke-dasharray="0.97 3.86"/>
<path d="M216.636 164.426H235.97" stroke="#21A8DD" stroke-width="2.41469" stroke-linecap="round" stroke-dasharray="0.97 3.86"/>
<path d="M216.636 164.426H235.97" stroke="#5C00C7" stroke-width="2.41469" stroke-linecap="round" stroke-dasharray="0.97 3.86"/>
<path d="M216.636 164.426H235.97" stroke="url(#paint60_linear)" stroke-opacity="0.25" stroke-width="2.41469" stroke-linecap="round" stroke-dasharray="0.97 3.86"/>
<path d="M216.636 164.426H235.97" stroke="url(#paint61_linear)" stroke-opacity="0.15" stroke-width="2.41469" stroke-linecap="round" stroke-dasharray="0.97 3.86"/>
</g>
<path d="M155.15 1C149.83 1 145.037 3.24741 141.66 6.83968C138.283 3.24677 133.491 1 128.171 1C117.944 1 109.655 9.28936 109.655 19.5157C109.655 35.4178 131.813 52.6616 141.66 55.9966C152.311 52.1732 173.665 34.6043 173.665 19.5157C173.665 9.28936 165.376 1 155.15 1Z" fill="#E94A47"/>
<path d="M141.64 54.1485C155.914 47.1405 165.395 39.281 170.225 31.2074C174.316 24.371 174.825 17.7051 172.257 12.2214C169.925 7.24218 165.187 3.68692 159.73 2.77086C153.905 1.79307 147.977 3.88269 143.278 9.05767L141.64 10.8613L140.002 9.05767C135.302 3.88269 129.374 1.79307 123.549 2.77086C118.092 3.68692 113.355 7.24218 111.023 12.2214C108.455 17.7051 108.964 24.371 113.054 31.2074C117.885 39.281 127.366 47.1405 141.64 54.1485Z" fill="white" stroke="#BF0020" stroke-width="4.89344" stroke-linecap="round" stroke-linejoin="round"/>
<path d="M140.188 34.4548L136.304 36.4801C135.907 36.6871 135.416 36.5359 135.208 36.1423C135.125 35.9856 135.096 35.806 135.126 35.6315L135.868 31.3399C136.042 30.3356 135.706 29.3109 134.97 28.5996L131.827 25.5601C131.506 25.2497 131.5 24.74 131.813 24.4216C131.937 24.2949 132.101 24.2124 132.277 24.187L136.62 23.561C137.637 23.4144 138.516 22.7807 138.971 21.8666L140.913 17.9632C141.111 17.5644 141.598 17.4006 142 17.5973C142.161 17.6757 142.29 17.8043 142.369 17.9632L144.311 21.8666C144.766 22.7807 145.645 23.4144 146.663 23.561L151.005 24.187C151.449 24.2509 151.756 24.6595 151.692 25.0995C151.666 25.2747 151.583 25.4366 151.455 25.5601L148.312 28.5996C147.576 29.3109 147.241 30.3356 147.414 31.3399L148.156 35.6315C148.232 36.0698 147.935 36.486 147.493 36.5611C147.317 36.591 147.136 36.5626 146.978 36.4801L143.095 34.4548C142.185 33.9803 141.098 33.9803 140.188 34.4548Z" fill="#0027DC"/>
<defs>
<linearGradient id="paint0_linear" x1="154.92" y1="246.823" x2="194.763" y2="251.693" gradientUnits="userSpaceOnUse">
<stop stop-color="#FFBEB6"/>
<stop offset="1" stop-color="#F2A19C"/>
</linearGradient>
<linearGradient id="paint1_linear" x1="157.58" y1="188.132" x2="183.599" y2="191.313" gradientUnits="userSpaceOnUse">
<stop stop-color="#FFBEB6"/>
<stop offset="1" stop-color="#F2A19C"/>
</linearGradient>
<linearGradient id="paint2_linear" x1="110.857" y1="241.648" x2="155.817" y2="249.027" gradientUnits="userSpaceOnUse">
<stop stop-color="#EEEEEE"/>
<stop offset="0.5538" stop-color="#D6D7D8"/>
</linearGradient>
<linearGradient id="paint3_linear" x1="129.869" y1="228.417" x2="146.803" y2="230.487" gradientUnits="userSpaceOnUse">
<stop stop-color="#FFBEB6"/>
<stop offset="1" stop-color="#F2A19C"/>
</linearGradient>
<linearGradient id="paint4_linear" x1="159.189" y1="228.412" x2="142.067" y2="225.63" gradientUnits="userSpaceOnUse">
<stop stop-color="#FFBEB6"/>
<stop offset="1" stop-color="#F2A19C"/>
</linearGradient>
<linearGradient id="paint5_linear" x1="87.9615" y1="154.741" x2="84.347" y2="156.667" gradientUnits="userSpaceOnUse">
<stop stop-color="#4300D3"/>
<stop offset="1" stop-color="#4300D3" stop-opacity="0"/>
</linearGradient>
<linearGradient id="paint6_linear" x1="83.9469" y1="155.065" x2="87.1366" y2="156.974" gradientUnits="userSpaceOnUse">
<stop stop-color="#FF0F13"/>
<stop offset="1" stop-color="#BF0020" stop-opacity="0"/>
</linearGradient>
<linearGradient id="paint7_linear" x1="91.6278" y1="158.289" x2="83.8836" y2="168.372" gradientUnits="userSpaceOnUse">
<stop stop-color="#4300D3"/>
<stop offset="1" stop-color="#4300D3" stop-opacity="0"/>
</linearGradient>
<linearGradient id="paint8_linear" x1="73.5705" y1="158.884" x2="79.7774" y2="167.963" gradientUnits="userSpaceOnUse">
<stop stop-color="#FF0F13"/>
<stop offset="1" stop-color="#BF0020" stop-opacity="0"/>
</linearGradient>
<linearGradient id="paint9_linear" x1="95.294" y1="163.317" x2="89.4571" y2="176.826" gradientUnits="userSpaceOnUse">
<stop stop-color="#4300D3"/>
<stop offset="1" stop-color="#4300D3" stop-opacity="0"/>
</linearGradient>
<linearGradient id="paint10_linear" x1="63.1946" y1="163.913" x2="67.6581" y2="175.518" gradientUnits="userSpaceOnUse">
<stop stop-color="#FF0F13"/>
<stop offset="1" stop-color="#BF0020" stop-opacity="0"/>
</linearGradient>
<linearGradient id="paint11_linear" x1="98.1053" y1="168.345" x2="92.621" y2="182.206" gradientUnits="userSpaceOnUse">
<stop stop-color="#4300D3"/>
<stop offset="1" stop-color="#4300D3" stop-opacity="0"/>
</linearGradient>
<linearGradient id="paint12_linear" x1="63.0518" y1="168.94" x2="67.2259" y2="180.793" gradientUnits="userSpaceOnUse">
<stop stop-color="#FF0F13"/>
<stop offset="1" stop-color="#BF0020" stop-opacity="0"/>
</linearGradient>
<linearGradient id="paint13_linear" x1="100.688" y1="173.373" x2="95.2038" y2="187.234" gradientUnits="userSpaceOnUse">
<stop stop-color="#4300D3"/>
<stop offset="1" stop-color="#4300D3" stop-opacity="0"/>
</linearGradient>
<linearGradient id="paint14_linear" x1="65.6352" y1="173.969" x2="69.8094" y2="185.821" gradientUnits="userSpaceOnUse">
<stop stop-color="#FF0F13"/>
<stop offset="1" stop-color="#BF0020" stop-opacity="0"/>
</linearGradient>
<linearGradient id="paint15_linear" x1="99.8479" y1="178.401" x2="93.9347" y2="191.828" gradientUnits="userSpaceOnUse">
<stop stop-color="#4300D3"/>
<stop offset="1" stop-color="#4300D3" stop-opacity="0"/>
</linearGradient>
<linearGradient id="paint16_linear" x1="68.3555" y1="178.997" x2="72.8823" y2="190.545" gradientUnits="userSpaceOnUse">
<stop stop-color="#FF0F13"/>
<stop offset="1" stop-color="#BF0020" stop-opacity="0"/>
</linearGradient>
<linearGradient id="paint17_linear" x1="93.1076" y1="155.742" x2="40.3473" y2="168.274" gradientUnits="userSpaceOnUse">
<stop stop-color="#4300D3"/>
<stop offset="1" stop-color="#4300D3" stop-opacity="0"/>
</linearGradient>
<linearGradient id="paint18_linear" x1="44.8868" y1="164.458" x2="93.466" y2="177.421" gradientUnits="userSpaceOnUse">
<stop stop-color="#FF0F13"/>
<stop offset="1" stop-color="#BF0020" stop-opacity="0"/>
</linearGradient>
<linearGradient id="paint19_linear" x1="27.6686" y1="159.643" x2="43.8483" y2="178.062" gradientUnits="userSpaceOnUse">
<stop stop-color="#FFBEB6"/>
<stop offset="1" stop-color="#F2A19C"/>
</linearGradient>
<linearGradient id="paint20_linear" x1="55.3769" y1="160.262" x2="29.0153" y2="163.547" gradientUnits="userSpaceOnUse">
<stop stop-color="#4300D3"/>
<stop offset="1" stop-color="#4300D3" stop-opacity="0"/>
</linearGradient>
<linearGradient id="paint21_linear" x1="32.2159" y1="168.241" x2="56.73" y2="171.673" gradientUnits="userSpaceOnUse">
<stop stop-color="#FF0F13"/>
<stop offset="1" stop-color="#BF0020" stop-opacity="0"/>
</linearGradient>
<linearGradient id="paint22_linear" x1="52.112" y1="189.499" x2="91.7876" y2="189.499" gradientUnits="userSpaceOnUse">
<stop stop-color="#D6D7D8"/>
<stop offset="1" stop-color="#EEEEEE"/>
</linearGradient>
<linearGradient id="paint23_linear" x1="84.3384" y1="187.321" x2="93.9138" y2="187.321" gradientUnits="userSpaceOnUse">
<stop stop-color="#FFBEB6"/>
<stop offset="1" stop-color="#F2A19C"/>
</linearGradient>
<linearGradient id="paint24_linear" x1="33.262" y1="160.335" x2="36.4467" y2="159.078" gradientUnits="userSpaceOnUse">
<stop stop-color="#FFBEB6"/>
<stop offset="1" stop-color="#F2A19C"/>
</linearGradient>
<linearGradient id="paint25_linear" x1="173.997" y1="99.4565" x2="140.747" y2="120.143" gradientUnits="userSpaceOnUse">
<stop stop-color="#4300D3"/>
<stop offset="1" stop-color="#4300D3" stop-opacity="0"/>
</linearGradient>
<linearGradient id="paint26_linear" x1="134.096" y1="102.21" x2="163.025" y2="122.429" gradientUnits="userSpaceOnUse">
<stop stop-color="#FF0F13"/>
<stop offset="1" stop-color="#BF0020" stop-opacity="0"/>
</linearGradient>
<linearGradient id="paint27_linear" x1="167.179" y1="91.7615" x2="142.207" y2="107.726" gradientUnits="userSpaceOnUse">
<stop stop-color="#4300D3"/>
<stop offset="1" stop-color="#4300D3" stop-opacity="0"/>
</linearGradient>
<linearGradient id="paint28_linear" x1="136.745" y1="93.8053" x2="158.412" y2="109.367" gradientUnits="userSpaceOnUse">
<stop stop-color="#FF0F13"/>
<stop offset="1" stop-color="#BF0020" stop-opacity="0"/>
</linearGradient>
<linearGradient id="paint29_linear" x1="166.441" y1="124.308" x2="153.88" y2="135.515" gradientUnits="userSpaceOnUse">
<stop stop-color="#4300D3"/>
<stop offset="1" stop-color="#4300D3" stop-opacity="0"/>
</linearGradient>
<linearGradient id="paint30_linear" x1="146.923" y1="125.247" x2="157.429" y2="135.779" gradientUnits="userSpaceOnUse">
<stop stop-color="#FF0F13"/>
<stop offset="1" stop-color="#BF0020" stop-opacity="0"/>
</linearGradient>
<linearGradient id="paint31_linear" x1="174.21" y1="110.26" x2="142.312" y2="130.177" gradientUnits="userSpaceOnUse">
<stop stop-color="#4300D3"/>
<stop offset="1" stop-color="#4300D3" stop-opacity="0"/>
</linearGradient>
<linearGradient id="paint32_linear" x1="135.855" y1="112.898" x2="163.596" y2="132.357" gradientUnits="userSpaceOnUse">
<stop stop-color="#FF0F13"/>
<stop offset="1" stop-color="#BF0020" stop-opacity="0"/>
</linearGradient>
<linearGradient id="paint33_linear" x1="139.568" y1="74.1537" x2="139.568" y2="98.0751" gradientUnits="userSpaceOnUse">
<stop stop-color="#C6006B" stop-opacity="0"/>
<stop offset="1" stop-color="#C6006B"/>
</linearGradient>
<linearGradient id="paint34_linear" x1="96.5598" y1="66.2162" x2="118.697" y2="66.2162" gradientUnits="userSpaceOnUse">
<stop stop-color="#FFBEB6"/>
<stop offset="1" stop-color="#F2A19C"/>
</linearGradient>
<linearGradient id="paint35_linear" x1="183.258" y1="66.2147" x2="161.122" y2="66.2147" gradientUnits="userSpaceOnUse">
<stop stop-color="#FFBEB6"/>
<stop offset="1" stop-color="#F2A19C"/>
</linearGradient>
<linearGradient id="paint36_linear" x1="171.157" y1="60.3471" x2="103.909" y2="73.3536" gradientUnits="userSpaceOnUse">
<stop stop-color="#4300D3"/>
<stop offset="1" stop-color="#4300D3" stop-opacity="0"/>
</linearGradient>
<linearGradient id="paint37_linear" x1="110.801" y1="73.7442" x2="172.999" y2="87.2591" gradientUnits="userSpaceOnUse">
<stop stop-color="#FF0F13"/>
<stop offset="1" stop-color="#BF0020" stop-opacity="0"/>
</linearGradient>
<linearGradient id="paint38_linear" x1="173.7" y1="56.7438" x2="169.322" y2="56.7335" gradientUnits="userSpaceOnUse">
<stop stop-color="#FFBEB6"/>
<stop offset="1" stop-color="#F2A19C"/>
</linearGradient>
<linearGradient id="paint39_linear" x1="106.075" y1="56.7438" x2="110.453" y2="56.7334" gradientUnits="userSpaceOnUse">
<stop stop-color="#FFBEB6"/>
<stop offset="1" stop-color="#F2A19C"/>
</linearGradient>
<linearGradient id="paint40_linear" x1="266.559" y1="129.101" x2="263.933" y2="129.789" gradientUnits="userSpaceOnUse">
<stop stop-color="#4300D3"/>
<stop offset="1" stop-color="#4300D3" stop-opacity="0"/>
</linearGradient>
<linearGradient id="paint41_linear" x1="264.131" y1="129.499" x2="266.542" y2="130.209" gradientUnits="userSpaceOnUse">
<stop stop-color="#FF0F13"/>
<stop offset="1" stop-color="#BF0020" stop-opacity="0"/>
</linearGradient>
<linearGradient id="paint42_linear" x1="266.232" y1="125.383" x2="255.4" y2="127.955" gradientUnits="userSpaceOnUse">
<stop stop-color="#4300D3"/>
<stop offset="1" stop-color="#4300D3" stop-opacity="0"/>
</linearGradient>
<linearGradient id="paint43_linear" x1="256.332" y1="127.173" x2="266.306" y2="129.834" gradientUnits="userSpaceOnUse">
<stop stop-color="#FF0F13"/>
<stop offset="1" stop-color="#BF0020" stop-opacity="0"/>
</linearGradient>
<linearGradient id="paint44_linear" x1="265.595" y1="121.665" x2="246.879" y2="125.97" gradientUnits="userSpaceOnUse">
<stop stop-color="#4300D3"/>
<stop offset="1" stop-color="#4300D3" stop-opacity="0"/>
</linearGradient>
<linearGradient id="paint45_linear" x1="248.546" y1="124.847" x2="265.793" y2="129.304" gradientUnits="userSpaceOnUse">
<stop stop-color="#FF0F13"/>
<stop offset="1" stop-color="#BF0020" stop-opacity="0"/>
</linearGradient>
<linearGradient id="paint46_linear" x1="264.462" y1="122.272" x2="244.726" y2="126.256" gradientUnits="userSpaceOnUse">
<stop stop-color="#4300D3"/>
<stop offset="1" stop-color="#4300D3" stop-opacity="0"/>
</linearGradient>
<linearGradient id="paint47_linear" x1="246.692" y1="126.051" x2="264.931" y2="130.188" gradientUnits="userSpaceOnUse">
<stop stop-color="#FF0F13"/>
<stop offset="1" stop-color="#BF0020" stop-opacity="0"/>
</linearGradient>
<linearGradient id="paint48_linear" x1="263.273" y1="126.132" x2="243.537" y2="130.116" gradientUnits="userSpaceOnUse">
<stop stop-color="#4300D3"/>
<stop offset="1" stop-color="#4300D3" stop-opacity="0"/>
</linearGradient>
<linearGradient id="paint49_linear" x1="245.503" y1="129.911" x2="263.742" y2="134.048" gradientUnits="userSpaceOnUse">
<stop stop-color="#FF0F13"/>
<stop offset="1" stop-color="#BF0020" stop-opacity="0"/>
</linearGradient>
<linearGradient id="paint50_linear" x1="265.258" y1="110.967" x2="208.827" y2="125.01" gradientUnits="userSpaceOnUse">
<stop stop-color="#4300D3"/>
<stop offset="1" stop-color="#4300D3" stop-opacity="0"/>
</linearGradient>
<linearGradient id="paint51_linear" x1="213.413" y1="119.911" x2="265.307" y2="134.419" gradientUnits="userSpaceOnUse">
<stop stop-color="#FF0F13"/>
<stop offset="1" stop-color="#BF0020" stop-opacity="0"/>
</linearGradient>
<linearGradient id="paint52_linear" x1="222.256" y1="129.973" x2="207.799" y2="131.338" gradientUnits="userSpaceOnUse">
<stop stop-color="#4300D3"/>
<stop offset="1" stop-color="#4300D3" stop-opacity="0"/>
</linearGradient>
<linearGradient id="paint53_linear" x1="209.637" y1="135.709" x2="223.104" y2="137.138" gradientUnits="userSpaceOnUse">
<stop stop-color="#FF0F13"/>
<stop offset="1" stop-color="#BF0020" stop-opacity="0"/>
</linearGradient>
<linearGradient id="paint54_linear" x1="262.444" y1="129.657" x2="240.911" y2="132.858" gradientUnits="userSpaceOnUse">
<stop stop-color="#4300D3"/>
<stop offset="1" stop-color="#4300D3" stop-opacity="0"/>
</linearGradient>
<linearGradient id="paint55_linear" x1="243.403" y1="135.155" x2="263.394" y2="138.494" gradientUnits="userSpaceOnUse">
<stop stop-color="#FF0F13"/>
<stop offset="1" stop-color="#BF0020" stop-opacity="0"/>
</linearGradient>
<linearGradient id="paint56_linear" x1="74.3753" y1="208.975" x2="73.2539" y2="214.818" gradientUnits="userSpaceOnUse">
<stop stop-color="#4300D3"/>
<stop offset="1" stop-color="#4300D3" stop-opacity="0"/>
</linearGradient>
<linearGradient id="paint57_linear" x1="47.0689" y1="209.2" x2="47.9046" y2="214.092" gradientUnits="userSpaceOnUse">
<stop stop-color="#FF0F13"/>
<stop offset="1" stop-color="#BF0020" stop-opacity="0"/>
</linearGradient>
<linearGradient id="paint58_linear" x1="157.288" y1="137.337" x2="156.468" y2="143.282" gradientUnits="userSpaceOnUse">
<stop stop-color="#4300D3"/>
<stop offset="1" stop-color="#4300D3" stop-opacity="0"/>
</linearGradient>
<linearGradient id="paint59_linear" x1="119.314" y1="137.562" x2="119.923" y2="142.521" gradientUnits="userSpaceOnUse">
<stop stop-color="#FF0F13"/>
<stop offset="1" stop-color="#BF0020" stop-opacity="0"/>
</linearGradient>
<linearGradient id="paint60_linear" x1="237.657" y1="164.201" x2="236.283" y2="169.929" gradientUnits="userSpaceOnUse">
<stop stop-color="#4300D3"/>
<stop offset="1" stop-color="#4300D3" stop-opacity="0"/>
</linearGradient>
<linearGradient id="paint61_linear" x1="215.793" y1="164.426" x2="216.82" y2="169.241" gradientUnits="userSpaceOnUse">
<stop stop-color="#FF0F13"/>
<stop offset="1" stop-color="#BF0020" stop-opacity="0"/>
</linearGradient>
<clipPath id="clip0">
<rect width="305.279" height="305.279" fill="white" transform="translate(0.498657 42.7214)"/>
</clipPath>
</defs>
</svg>
