<svg width="286" height="232" fill="none" xmlns="http://www.w3.org/2000/svg"><mask id="a" maskUnits="userSpaceOnUse" x="0" y="0" width="286" height="232"><path d="M249.441 132.376c0 55.021-44.603 99.624-99.623 99.624s-99.624-44.603-99.624-99.624C-86.276 26.612 94.797 0 149.818 0c228.588 0 99.623 77.356 99.623 132.376z" fill="#C4C4C4"/></mask><g mask="url(#a)"><circle cx="149.818" cy="147.388" r="81.882" stroke="#5C00C7" stroke-width="5.459"/><circle cx="149.818" cy="147.388" r="81.882" stroke="url(#paint0_linear)" stroke-opacity=".25" stroke-width="5.459"/><circle cx="149.818" cy="147.388" r="81.882" stroke="url(#paint1_linear)" stroke-opacity=".15" stroke-width="5.459"/><path d="M156.123 95.303c-2.018-3.484-7.284-4.493-10.438-2-1.012.8-1.845 1.902-3.063 2.317-3.042 1.034-2.34-2.635-5.518-2.174-5.434.787-2.418 10.409-10.504 12.212-2.989.668-8.125-2.954-11.155-2.517-4.337.626-4.955 8.16-9.316 8.584-1.612.156-3.115-.809-4.72-1.039-1.604-.231-3.684 1.033-3.116 2.557.905 4.154.778 4.154 1.988 8.053 2.322 7.478 4.352 15.202 10.693 19.764 6.342 4.563 13.127 7.333 20.619 9.514 6.819 1.986 14.703 3.481 21.772 2.827 9.192-.852 17.506-6.197 23.791-12.988 6.285-6.791 10.817-14.991 15.288-23.102-1.817 1.704-4.83.237-6.443-1.663-1.613-1.901-2.978-4.361-5.391-4.967-2.054-.514-4.282.527-6.308-.09-3.989-1.212-4.646-7.826-8.775-8.404-1.595-.224-3.784.689-5.342.278-2.824-.742-2.597-4.63-4.062-7.162z" fill="#428DFC"/><path d="M156.123 95.303c-2.018-3.484-7.284-4.493-10.438-2-1.012.8-1.845 1.902-3.063 2.317-3.042 1.034-2.34-2.635-5.518-2.174-5.434.787-2.418 10.409-10.504 12.212-2.989.668-8.125-2.954-11.155-2.517-4.337.626-4.955 8.16-9.316 8.584-1.612.156-3.115-.809-4.72-1.039-1.604-.231-3.684 1.033-3.116 2.557.905 4.154.778 4.154 1.988 8.053 2.322 7.478 4.352 15.202 10.693 19.764 6.342 4.563 13.127 7.333 20.619 9.514 6.819 1.986 14.703 3.481 21.772 2.827 9.192-.852 17.506-6.197 23.791-12.988 6.285-6.791 10.817-14.991 15.288-23.102-1.817 1.704-4.83.237-6.443-1.663-1.613-1.901-2.978-4.361-5.391-4.967-2.054-.514-4.282.527-6.308-.09-3.989-1.212-4.646-7.826-8.775-8.404-1.595-.224-3.784.689-5.342.278-2.824-.742-2.597-4.63-4.062-7.162z" fill="#428DFC"/><path d="M156.123 95.303c-2.018-3.484-7.284-4.493-10.438-2-1.012.8-1.845 1.902-3.063 2.317-3.042 1.034-2.34-2.635-5.518-2.174-5.434.787-2.418 10.409-10.504 12.212-2.989.668-8.125-2.954-11.155-2.517-4.337.626-4.955 8.16-9.316 8.584-1.612.156-3.115-.809-4.72-1.039-1.604-.231-3.684 1.033-3.116 2.557.905 4.154.778 4.154 1.988 8.053 2.322 7.478 4.352 15.202 10.693 19.764 6.342 4.563 13.127 7.333 20.619 9.514 6.819 1.986 14.703 3.481 21.772 2.827 9.192-.852 17.506-6.197 23.791-12.988 6.285-6.791 10.817-14.991 15.288-23.102-1.817 1.704-4.83.237-6.443-1.663-1.613-1.901-2.978-4.361-5.391-4.967-2.054-.514-4.282.527-6.308-.09-3.989-1.212-4.646-7.826-8.775-8.404-1.595-.224-3.784.689-5.342.278-2.824-.742-2.597-4.63-4.062-7.162z" fill="url(#paint2_linear)" fill-opacity=".5"/><path d="M67.427 48.316c-1.41-5.635-3.7-5.86-7.828-10.005-.667-.67-1.388-1.722-2.135-1.144-.729 2.063 4.413 5.575 4.861 10.395-6.726-3.905-16.738-5.797-22.795-5.392-2.134.142 1.565 1.858 6.405 2.573 4.418.651 7.117 2.43 11.082 4.484.234.681-2.414-.458-3.11-.625-6.605-1.592-11.245-2.86-18.28-3.393-2.075.248 1.502 3.793 3.405 4.536 4.73 1.847 10.034 3.23 14.762 5.078-1.24 2.284-16.252-4.633-13.802-1.575 4.358 4.92 13.546 6.917 20.094 6.6 1.08-.052 2.155-.03 3.21.204 2.931.645 5.265 7.24 5.967 9.792 4.935 17.915 8.786 25.371 12.905 36.592 1.21-1.692 7.944-8.371 9.869-9.148-3.72-10.117-22.034-40.245-23.329-43.54-.276-.705-1.54-6.143-1.28-5.432z" fill="url(#paint3_linear)"/><path d="M225.465 48.064c1.41-5.635 3.701-5.86 7.829-10.005.667-.67 1.388-1.722 2.134-1.144.73 2.063-4.412 5.575-4.86 10.395 6.725-3.905 16.738-5.797 22.794-5.392 2.135.142-1.565 1.858-6.405 2.573-4.418.651-7.117 2.43-11.081 4.484-.234.68 2.413-.458 3.11-.625 6.605-1.593 11.245-2.86 18.279-3.393 2.075.248-1.502 3.793-3.404 4.536-4.73 1.847-10.035 3.23-14.763 5.078 1.241 2.284 13.695-5.435 11.245-2.376-4.358 4.92-10.988 7.718-17.536 7.4-1.08-.051-2.155-.029-3.211.205-2.931.645-5.265 7.24-5.967 9.792-4.935 17.915-8.785 25.37-12.905 36.592-1.21-1.692-7.944-8.371-9.868-9.148 3.719-10.117 22.034-40.245 23.329-43.54.276-.705 1.54-6.143 1.28-5.432z" fill="url(#paint4_linear)"/><path d="M154.365 146.555l-1.539-.732c.54-9.017.53-18.271 1.175-27.178-3.697 2.41-10.105 3.533-14.473 2.945 1.29 8.533 1.907 17.3.788 25.856 4.646-.683 9.355-1.01 14.049-.891z" fill="#B07171"/><path d="M145.21 128.155c2.62-.218 5.011-1.644 6.949-3.428 4.124-3.793 6.544-9.388 6.489-15.003-.018-1.817-.286-3.641-.913-5.345-2.2-5.98-9.225-9.703-15.383-8.15-2.408.606-4.64 1.927-6.293 3.786-3.338 3.755-4.013 9.246-3.374 14.239.438 3.428 1.463 6.87 3.592 9.587 2.13 2.715 5.503 4.599 8.933 4.314z" fill="#CC8A82"/><path d="M136.802 116.971c1.779 2.526 5.082 2.995 8.161 2.892 2.928-.098 4.953-1.34 7.268-3.382-1.175 2.415-1.081 2.926-2.737 4.816-1.752 2.001-3.462 3.074-6.617 2.483-.615-.115-2.136-1.049-2.619-1.448-2.129-1.757-2.316-2.841-3.456-5.361z" fill="#fff"/><path d="M135.715 130.94a.284.284 0 0 1-.209-.092c-.862-.935-.091-2.191.528-3.2l.174-.286c.931-1.55.937-3.637.018-5.194-.107-.18-.226-.36-.345-.541-.471-.712-.959-1.449-.825-2.33.11-.734.627-1.312 1.127-1.872.566-.635 1.054-1.183.832-1.808-.128-.359-.573-.625-1.001-.881-.6-.359-1.281-.765-1.155-1.536.167-1.024 1.059-1.584 1.922-2.123.355-.222.689-.431.973-.669.628-.529-.001-1.822-.209-2.206-.127-.236-.272-.466-.414-.695-.343-.547-.697-1.113-.847-1.773-.304-1.343.336-2.881 1.628-3.919 1.096-.879 2.732-1.434 4.179-1.884a.285.285 0 1 1 .169.545c-1.01.314-2.889.9-3.992 1.785-.854.685-1.74 1.972-1.429 3.345.128.565.443 1.065.773 1.596.151.24.3.48.434.726.332.615 1.008 2.132.073 2.917-.314.264-.681.494-1.037.717-.79.494-1.537.962-1.661 1.732-.06.366.296.599.883.95.493.293 1.05.628 1.247 1.18.336.946-.314 1.676-.944 2.382-.444.497-.901 1.011-.987 1.578-.101.662.306 1.277.736 1.928.125.189.249.377.361.564 1.023 1.733 1.015 4.056-.02 5.781l-.176.29c-.66 1.074-1.123 1.941-.596 2.512a.287.287 0 0 1-.21.481zm54.98-16.683c-2.077 0-4.04-1.984-4.692-2.715-1.513-1.7-3.22-3.621-5.315-3.313-.545.079-1.056.309-1.598.552-.594.268-1.208.545-1.887.613-2.351.231-4.075-2.086-4.893-3.491-.111-.19-.22-.383-.331-.577-.889-1.561-1.811-3.174-3.388-3.791-1.573-.614-3.316-.044-5.003.509-.501.164-1.017.333-1.523.469-1.667.449-3.57.216-4.736-.578-.715-.488-1.145-1.173-1.239-1.983a.286.286 0 0 1 .249-.317.281.281 0 0 1 .316.25c.075.65.41 1.18.993 1.578 1.021.695 2.775.9 4.269.499.492-.132 1.001-.299 1.494-.46 1.783-.583 3.624-1.186 5.388-.498 1.765.69 2.735 2.392 3.674 4.04.11.192.219.383.329.572.749 1.287 2.315 3.413 4.345 3.21.584-.058 1.132-.305 1.71-.565.554-.249 1.126-.507 1.75-.597 2.389-.346 4.29 1.78 5.814 3.489.746.838 3.328 3.448 5.526 2.203a.284.284 0 0 1 .388.108.285.285 0 0 1-.108.389 3.08 3.08 0 0 1-1.532.404z" fill="#428DFC"/><path d="M203.096 90.866c-9.119 18.372-18.459 33.708-33.643 51.781-4.931-3.727-8.287-3.029-16.335-2.879-.358 2.806-2.537 5.124-5.396 5.103-5.016-.038-6.761-4.607-6.761-4.607-5.517.287-10.633-.76-16.177 1.392-2.095-7.843-25.782-35.562-34.021-48.294a27.577 27.577 0 0 1-13.564 5.462c8.564 21.208 31.859 69.352 33.311 73.84.797 10.411.532 39.776 1.596 52.323 3.62 9.072 9.573 17.62 25.798 19.004 18.047 1.541 33.297-2.853 41.767-17.534 1.273-13.387 2.259-41.778 2.438-44.394.266-3.906.643-8.236 1.484-10.132 11.719-26.399 21.422-46.351 31.124-73.564-3.592-2.284-8.031-5.214-11.621-7.5z" fill="#9500CB"/><path d="M203.096 90.866c-9.119 18.372-18.459 33.708-33.643 51.781-4.931-3.727-8.287-3.029-16.335-2.879-.358 2.806-2.537 5.124-5.396 5.103-5.016-.038-6.761-4.607-6.761-4.607-5.517.287-10.633-.76-16.177 1.392-2.095-7.843-25.782-35.562-34.021-48.294a27.577 27.577 0 0 1-13.564 5.462c8.564 21.208 31.859 69.352 33.311 73.84.797 10.411.532 39.776 1.596 52.323 3.62 9.072 9.573 17.62 25.798 19.004 18.047 1.541 33.297-2.853 41.767-17.534 1.273-13.387 2.259-41.778 2.438-44.394.266-3.906.643-8.236 1.484-10.132 11.719-26.399 21.422-46.351 31.124-73.564-3.592-2.284-8.031-5.214-11.621-7.5z" fill="url(#paint5_linear)" fill-opacity=".45"/><path d="M254.673 190.646c.043.16.172.262.331.219.159-.043.26-.173.217-.333-.043-.159-.172-.261-.331-.218-.159.042-.259.173-.217.332zm10.586 25.513c-.102.13-.059.289.07.391.13.101.289.059.39-.071.101-.13.058-.29-.07-.392-.116-.174-.289-.058-.39.072zm3.623-6.04c-.101.13-.058.289.07.391.13.101.289.058.39-.071.101-.13.058-.29-.07-.392-.059-.086-.289-.057-.39.072zm-12.306-6.279c.13.101.273.131.432.088a.47.47 0 0 0 .088-.434c-.129-.101-.273-.131-.36-.074-.245.101-.274.246-.16.42zm5.723-4.179c.13.101.273.131.432.087a.47.47 0 0 0 .088-.433c-.13-.101-.273-.131-.36-.074-.245.101-.289.318-.16.42zm17.01 18.238c-.03.144.085.319.229.348.144.029.318-.086.347-.23.029-.144-.086-.319-.23-.349-.144-.029-.318.085-.346.231zm1.118-7.004c-.03.144.085.319.229.348.145.029.318-.086.347-.23.03-.144-.086-.319-.229-.349-.144-.029-.318.087-.347.231zm-27.724-12.743c.058.087.259.204.36.074.087-.057.203-.26.073-.361-.058-.087-.259-.204-.36-.075-.158.044-.188.189-.073.362zm5.387-3.268c.058.087.26.203.361.074.087-.057.187-.187.073-.362-.058-.087-.187-.188-.361-.074-.1.13-.13.275-.073.362zm15.667 18.942c-.03.144.013.304.157.334.145.029.231-.029.333-.159.029-.144-.014-.304-.158-.333-.144-.03-.303.014-.332.158zm1.533-6.09c-.029.144.014.304.158.334.144.03.23-.029.332-.158.03-.144-.013-.304-.158-.334-.144-.029-.302.014-.332.158zm-12.143-2.63c-.101.13-.058.29.07.392.129.101.289.058.39-.072.101-.13.059-.289-.07-.391-.13-.102-.289-.058-.39.071zm-13.649-1.13c-.102.13-.059.289.07.391.129.101.288.058.39-.072.101-.13.058-.289-.071-.391-.128-.101-.287-.058-.389.072zm4.33-5.819c-.101.13-.059.289.07.391.129.102.289.058.39-.072.101-.13.058-.289-.07-.391-.131-.102-.29-.058-.39.072zm4.271-5.908c-.101.13-.058.29.07.391.13.102.289.059.39-.071.101-.13.059-.29-.07-.391a.554.554 0 0 0-.39.071zm20.913 19.336c.043.16.172.262.331.219.159-.043.26-.173.217-.333-.043-.159-.172-.261-.331-.218-.144-.029-.259.174-.217.332zm-24.789-28.714c-.173.115-.203.26-.088.433l.088-.433zm9.609 24.409c-.03.144.085.319.229.348a.315.315 0 0 0 .347-.23c.03-.144-.085-.318-.229-.348-.145-.03-.319.085-.347.23zm-4.96.042c-.029.144.086.318.23.348.144.029.318-.086.347-.23.029-.144-.014-.305-.23-.349a.317.317 0 0 0-.347.231zm2.012-6.972a.318.318 0 0 0 .229.349c.144.029.303-.014.347-.231.029-.144-.086-.318-.215-.42-.158.043-.332.158-.361.302zm-8.937-9.207c-.102.13-.059.29.07.392.13.101.289.058.462-.057.101-.13.058-.289-.057-.463-.216-.044-.373-.002-.475.128zm2.842-.7c-.029.144.029.231.086.319.144.03.23-.029.318-.086.029-.144-.029-.231-.086-.318-.145-.031-.303.012-.318.085z" fill="#fff"/><path d="M144.585 95.507c1.166-.24 3.185.187 4.313.567.627.212 3.56 1.316 4.1 1.7 2.672 1.905 3.761 3.629 5.443 6.449.936 1.571.994 3.323 1.414 5.103.463 1.966.158 4.183-.641 6.038-.163-1.227-.334-2.473-.834-3.603-.748-1.691-2.184-2.994-3.764-3.95-1.58-.956-3.32-1.606-5.013-2.34a53.72 53.72 0 0 1-4.189-2.034c-1.438-.776-2.97-1.787-3.34-3.381-.592.322-1.242.523-1.859.793-1.332.584-2.493 1.489-3.641 2.384-2.303 1.799-2.168 1.061-4.642 5.526-.3.541.026-5.442.838-6.252.359-.358 3.706-3.854 4.039-4.236.934-1.069 6.114-2.42 7.776-2.764z" fill="#428DFC"/><path d="M67.989 53.72c.06-.708-.221-1.385-.447-2.058-.24-.717-.386-2.041-.503-2.79-.507-3.257-1.767-5.68-4.333-7.351-2.137-1.392-5.242-5.894-5.86-4.69-.58 1.61.926 3.083 1.868 4.51.943 1.425 2.667 5.04 2.7 5.42.049.546-.264 1.045-.508 1.534-1.675 3.35.36 8.117 1.832 8.798 2.18 1.01 2.775-.222 4.516-1.883.436-.416.684-.889.735-1.49z" fill="#CC8F87"/></g><defs><linearGradient id="paint0_linear" x1="249.191" y1="24.701" x2="37.838" y2="70.305" gradientUnits="userSpaceOnUse"><stop stop-color="#4300D3"/><stop offset="1" stop-color="#4300D3" stop-opacity="0"/></linearGradient><linearGradient id="paint1_linear" x1="57.826" y1="62.776" x2="252.879" y2="110.06" gradientUnits="userSpaceOnUse"><stop stop-color="#FF0F13"/><stop offset="1" stop-color="#BF0020" stop-opacity="0"/></linearGradient><linearGradient id="paint2_linear" x1="145.321" y1="91.921" x2="145.321" y2="153.557" gradientUnits="userSpaceOnUse"><stop stop-color="#C6006B" stop-opacity="0"/><stop offset="1" stop-color="#C6006B"/></linearGradient><linearGradient id="paint3_linear" x1="35" y1="71.718" x2="92.037" y2="71.718" gradientUnits="userSpaceOnUse"><stop stop-color="#DC978E"/><stop offset="1" stop-color="#BE8780"/></linearGradient><linearGradient id="paint4_linear" x1="253" y1="46.5" x2="206.5" y2="93.5" gradientUnits="userSpaceOnUse"><stop stop-color="#DC978E"/><stop offset="1" stop-color="#BE8780"/></linearGradient><linearGradient id="paint5_linear" x1="226.713" y1="56.348" x2="53.444" y2="89.86" gradientUnits="userSpaceOnUse"><stop stop-color="#4300D3"/><stop offset="1" stop-color="#4300D3" stop-opacity="0"/></linearGradient></defs></svg>