<svg width="286" height="232" viewBox="0 0 286 232" fill="none" xmlns="http://www.w3.org/2000/svg">
<mask id="mask0" mask-type="alpha" maskUnits="userSpaceOnUse" x="0" y="0" width="286" height="232">
<path d="M249.441 132.376C249.441 187.397 204.838 232 149.818 232C94.7974 232 50.1944 187.397 50.1944 132.376C-86.2762 26.6118 94.7974 0 149.818 0C378.406 0 249.441 77.3559 249.441 132.376Z" fill="#C4C4C4"/>
</mask>
<g mask="url(#mask0)">
<circle cx="149.818" cy="147.388" r="81.8824" stroke="#5C00C7" stroke-width="5.45882"/>
<circle cx="149.818" cy="147.388" r="81.8824" stroke="url(#paint0_linear)" stroke-opacity="0.25" stroke-width="5.45882"/>
<circle cx="149.818" cy="147.388" r="81.8824" stroke="url(#paint1_linear)" stroke-opacity="0.15" stroke-width="5.45882"/>
<path d="M156.123 95.3031C154.105 91.8185 148.839 90.8097 145.685 93.3036C144.673 94.1034 143.84 95.2053 142.622 95.62C139.58 96.6536 140.282 92.9854 137.104 93.4456C131.67 94.2327 134.686 103.855 126.6 105.658C123.611 106.326 118.475 102.704 115.445 103.141C111.108 103.767 110.49 111.301 106.129 111.725C104.517 111.881 103.014 110.916 101.409 110.686C99.8055 110.455 97.7252 111.719 98.2928 113.243C99.1977 117.397 99.0709 117.397 100.281 121.296C102.603 128.774 104.633 136.498 110.974 141.06C117.316 145.623 124.101 148.393 131.593 150.574C138.412 152.56 146.296 154.055 153.365 153.401C162.557 152.549 170.871 147.204 177.156 140.413C183.441 133.622 187.973 125.422 192.444 117.311C190.627 119.015 187.614 117.548 186.001 115.648C184.388 113.747 183.023 111.287 180.61 110.681C178.556 110.167 176.328 111.208 174.302 110.591C170.313 109.379 169.656 102.765 165.527 102.187C163.932 101.963 161.743 102.876 160.185 102.465C157.361 101.723 157.588 97.8345 156.123 95.3031Z" fill="#428DFC"/>
<path d="M156.123 95.3031C154.105 91.8185 148.839 90.8097 145.685 93.3036C144.673 94.1034 143.84 95.2053 142.622 95.62C139.58 96.6536 140.282 92.9854 137.104 93.4456C131.67 94.2327 134.686 103.855 126.6 105.658C123.611 106.326 118.475 102.704 115.445 103.141C111.108 103.767 110.49 111.301 106.129 111.725C104.517 111.881 103.014 110.916 101.409 110.686C99.8055 110.455 97.7252 111.719 98.2928 113.243C99.1977 117.397 99.0709 117.397 100.281 121.296C102.603 128.774 104.633 136.498 110.974 141.06C117.316 145.623 124.101 148.393 131.593 150.574C138.412 152.56 146.296 154.055 153.365 153.401C162.557 152.549 170.871 147.204 177.156 140.413C183.441 133.622 187.973 125.422 192.444 117.311C190.627 119.015 187.614 117.548 186.001 115.648C184.388 113.747 183.023 111.287 180.61 110.681C178.556 110.167 176.328 111.208 174.302 110.591C170.313 109.379 169.656 102.765 165.527 102.187C163.932 101.963 161.743 102.876 160.185 102.465C157.361 101.723 157.588 97.8345 156.123 95.3031Z" fill="#428DFC"/>
<path d="M156.123 95.3031C154.105 91.8185 148.839 90.8097 145.685 93.3036C144.673 94.1034 143.84 95.2053 142.622 95.62C139.58 96.6536 140.282 92.9854 137.104 93.4456C131.67 94.2327 134.686 103.855 126.6 105.658C123.611 106.326 118.475 102.704 115.445 103.141C111.108 103.767 110.49 111.301 106.129 111.725C104.517 111.881 103.014 110.916 101.409 110.686C99.8055 110.455 97.7252 111.719 98.2928 113.243C99.1977 117.397 99.0709 117.397 100.281 121.296C102.603 128.774 104.633 136.498 110.974 141.06C117.316 145.623 124.101 148.393 131.593 150.574C138.412 152.56 146.296 154.055 153.365 153.401C162.557 152.549 170.871 147.204 177.156 140.413C183.441 133.622 187.973 125.422 192.444 117.311C190.627 119.015 187.614 117.548 186.001 115.648C184.388 113.747 183.023 111.287 180.61 110.681C178.556 110.167 176.328 111.208 174.302 110.591C170.313 109.379 169.656 102.765 165.527 102.187C163.932 101.963 161.743 102.876 160.185 102.465C157.361 101.723 157.588 97.8345 156.123 95.3031Z" fill="url(#paint2_linear)" fill-opacity="0.5"/>
<path d="M67.4275 48.3164C66.0174 42.6809 63.7265 42.4558 59.5989 38.3108C58.9321 37.6416 58.2109 36.5892 57.4643 37.1673C56.7351 39.2305 61.877 42.7419 62.3251 47.5622C55.5994 43.6569 45.5866 41.7646 39.5303 42.1698C37.3957 42.3125 41.0953 44.028 45.9354 44.7427C50.3535 45.3945 53.0522 47.1723 57.0168 49.2274C57.251 49.908 54.6032 48.7692 53.9069 48.6018C47.3019 47.0095 42.6617 45.7428 35.6274 45.2089C33.5525 45.4568 37.1294 49.0017 39.0319 49.7452C43.7612 51.592 49.0662 52.9759 53.7942 54.8227C52.5531 57.1069 37.5416 50.1895 39.9921 53.248C44.3498 58.1675 53.5379 60.1648 60.0859 59.8473C61.1653 59.7957 62.2406 59.8185 63.2965 60.0516C66.2273 60.6967 68.5612 67.2927 69.2635 69.8442C74.1982 87.7588 78.0487 95.215 82.1683 106.436C83.3785 104.744 90.1123 98.0646 92.0369 97.2882C88.3171 87.1707 70.0028 57.0433 68.7081 53.7476C68.4317 53.0429 67.1672 47.605 67.4275 48.3164Z" fill="url(#paint3_linear)"/>
<path d="M225.465 48.0643C226.875 42.4288 229.166 42.2038 233.294 38.0587C233.961 37.3895 234.682 36.3372 235.428 36.9153C236.158 38.9784 231.016 42.4898 230.568 47.3101C237.293 43.4048 247.306 41.5125 253.362 41.9177C255.497 42.0604 251.797 43.7759 246.957 44.4907C242.539 45.1424 239.84 46.9202 235.876 48.9753C235.642 49.6559 238.289 48.5172 238.986 48.3497C245.591 46.7574 250.231 45.4907 257.265 44.9569C259.34 45.2047 255.763 48.7496 253.861 49.4931C249.131 51.3399 243.826 52.7238 239.098 54.5706C240.339 56.8548 252.793 49.1361 250.343 52.1947C245.985 57.1141 239.355 59.9127 232.807 59.5952C231.727 59.5436 230.652 59.5664 229.596 59.7995C226.665 60.4446 224.331 67.0407 223.629 69.5921C218.694 87.5068 214.844 94.9629 210.724 106.184C209.514 104.492 202.78 97.8125 200.856 97.0361C204.575 86.9186 222.89 56.7912 224.185 53.4955C224.461 52.7908 225.725 47.3529 225.465 48.0643Z" fill="url(#paint4_linear)"/>
<path d="M154.365 146.555C153.852 146.311 153.34 146.067 152.826 145.823C153.366 136.806 153.356 127.552 154.001 118.645C150.304 121.055 143.896 122.178 139.528 121.59C140.818 130.123 141.435 138.89 140.316 147.446C144.962 146.763 149.671 146.436 154.365 146.555Z" fill="#B07171"/>
<path d="M145.21 128.155C147.83 127.937 150.221 126.511 152.159 124.727C156.283 120.934 158.703 115.339 158.648 109.724C158.63 107.907 158.362 106.083 157.735 104.379C155.535 98.3981 148.51 94.6764 142.352 96.2285C139.944 96.8347 137.712 98.1556 136.059 100.015C132.721 103.77 132.046 109.261 132.685 114.254C133.123 117.682 134.148 121.124 136.277 123.841C138.407 126.556 141.78 128.44 145.21 128.155Z" fill="#CC8A82"/>
<path d="M136.802 116.971C138.581 119.497 141.884 119.966 144.963 119.863C147.891 119.765 149.916 118.523 152.231 116.481C151.056 118.896 151.15 119.407 149.494 121.297C147.742 123.298 146.032 124.371 142.877 123.78C142.262 123.665 140.741 122.731 140.258 122.332C138.129 120.575 137.942 119.491 136.802 116.971Z" fill="white"/>
<path d="M135.715 130.94C135.639 130.94 135.562 130.909 135.506 130.848C134.644 129.913 135.415 128.657 136.034 127.648L136.208 127.362C137.139 125.812 137.145 123.725 136.226 122.168C136.119 121.988 136 121.808 135.881 121.627C135.41 120.915 134.922 120.178 135.056 119.297C135.166 118.563 135.683 117.985 136.183 117.425C136.749 116.79 137.237 116.242 137.015 115.617C136.887 115.258 136.442 114.992 136.014 114.736C135.414 114.377 134.733 113.971 134.859 113.2C135.026 112.176 135.918 111.616 136.781 111.077C137.136 110.855 137.47 110.646 137.754 110.408C138.382 109.879 137.753 108.586 137.545 108.202C137.418 107.966 137.273 107.736 137.131 107.507C136.788 106.96 136.434 106.394 136.284 105.734C135.98 104.391 136.62 102.853 137.912 101.815C139.008 100.936 140.644 100.381 142.091 99.9306C142.244 99.8844 142.401 99.9688 142.448 100.119C142.495 100.27 142.41 100.429 142.26 100.476C141.25 100.79 139.371 101.376 138.268 102.261C137.414 102.946 136.528 104.233 136.839 105.606C136.967 106.171 137.282 106.671 137.612 107.202C137.763 107.442 137.912 107.682 138.046 107.928C138.378 108.543 139.054 110.06 138.119 110.845C137.805 111.109 137.438 111.339 137.082 111.562C136.292 112.056 135.545 112.524 135.421 113.294C135.361 113.66 135.717 113.893 136.304 114.244C136.797 114.537 137.354 114.872 137.551 115.424C137.887 116.37 137.237 117.1 136.607 117.806C136.163 118.303 135.706 118.817 135.62 119.384C135.519 120.046 135.926 120.661 136.356 121.312C136.481 121.501 136.605 121.689 136.717 121.876C137.74 123.609 137.732 125.932 136.697 127.657L136.521 127.947C135.861 129.021 135.398 129.888 135.925 130.459C136.032 130.576 136.025 130.756 135.91 130.863C135.854 130.915 135.784 130.94 135.715 130.94Z" fill="#428DFC"/>
<path d="M190.695 114.257C188.618 114.257 186.655 112.273 186.003 111.542C184.49 109.842 182.783 107.921 180.688 108.229C180.143 108.308 179.632 108.538 179.09 108.781C178.496 109.049 177.882 109.326 177.203 109.394C174.852 109.625 173.128 107.308 172.31 105.903C172.199 105.713 172.09 105.52 171.979 105.326C171.09 103.765 170.168 102.152 168.591 101.535C167.018 100.921 165.275 101.491 163.588 102.044C163.087 102.208 162.571 102.377 162.065 102.513C160.398 102.962 158.495 102.729 157.329 101.935C156.614 101.447 156.184 100.762 156.09 99.952C156.072 99.7952 156.184 99.6532 156.339 99.6351C156.5 99.6143 156.637 99.7296 156.655 99.8856C156.73 100.535 157.065 101.065 157.648 101.463C158.669 102.158 160.423 102.363 161.917 101.962C162.409 101.83 162.918 101.663 163.411 101.502C165.194 100.919 167.035 100.316 168.799 101.004C170.564 101.694 171.534 103.396 172.473 105.044C172.583 105.236 172.692 105.427 172.802 105.616C173.551 106.903 175.117 109.029 177.147 108.826C177.731 108.768 178.279 108.521 178.857 108.261C179.411 108.012 179.983 107.754 180.607 107.664C182.996 107.318 184.897 109.444 186.421 111.153C187.167 111.991 189.749 114.601 191.947 113.356C192.081 113.277 192.256 113.326 192.335 113.464C192.413 113.601 192.365 113.775 192.227 113.853C191.72 114.138 191.204 114.257 190.695 114.257Z" fill="#428DFC"/>
<path d="M203.096 90.8662C193.977 109.238 184.637 124.574 169.453 142.647C164.522 138.92 161.166 139.618 153.118 139.768C152.76 142.574 150.581 144.892 147.722 144.871C142.706 144.833 140.961 140.264 140.961 140.264C135.444 140.551 130.328 139.504 124.784 141.656C122.689 133.813 99.0018 106.094 90.7626 93.3621C86.8396 96.3604 82.0982 98.2695 77.1991 98.8241C85.7629 120.032 109.058 168.176 110.51 172.664C111.307 183.075 111.042 212.44 112.106 224.987C115.726 234.059 121.679 242.607 137.904 243.991C155.951 245.532 171.201 241.138 179.671 226.457C180.944 213.07 181.93 184.679 182.109 182.063C182.375 178.157 182.752 173.827 183.593 171.931C195.312 145.532 205.015 125.58 214.717 98.3673C211.125 96.083 206.686 93.1531 203.096 90.8662Z" fill="#9500CB"/>
<path d="M203.096 90.8662C193.977 109.238 184.637 124.574 169.453 142.647C164.522 138.92 161.166 139.618 153.118 139.768C152.76 142.574 150.581 144.892 147.722 144.871C142.706 144.833 140.961 140.264 140.961 140.264C135.444 140.551 130.328 139.504 124.784 141.656C122.689 133.813 99.0018 106.094 90.7626 93.3621C86.8396 96.3604 82.0982 98.2695 77.1991 98.8241C85.7629 120.032 109.058 168.176 110.51 172.664C111.307 183.075 111.042 212.44 112.106 224.987C115.726 234.059 121.679 242.607 137.904 243.991C155.951 245.532 171.201 241.138 179.671 226.457C180.944 213.07 181.93 184.679 182.109 182.063C182.375 178.157 182.752 173.827 183.593 171.931C195.312 145.532 205.015 125.58 214.717 98.3673C211.125 96.083 206.686 93.1531 203.096 90.8662Z" fill="url(#paint5_linear)" fill-opacity="0.45"/>
<path d="M254.673 190.646C254.716 190.806 254.845 190.908 255.004 190.865C255.163 190.822 255.264 190.692 255.221 190.532C255.178 190.373 255.049 190.271 254.89 190.314C254.731 190.356 254.631 190.487 254.673 190.646ZM265.259 216.159C265.157 216.289 265.2 216.448 265.329 216.55C265.459 216.651 265.618 216.609 265.719 216.479C265.82 216.349 265.777 216.189 265.649 216.087C265.533 215.913 265.36 216.029 265.259 216.159ZM268.882 210.119C268.781 210.249 268.824 210.408 268.952 210.51C269.082 210.611 269.241 210.568 269.342 210.439C269.443 210.309 269.4 210.149 269.272 210.047C269.213 209.961 268.983 209.99 268.882 210.119ZM256.576 203.84C256.706 203.941 256.849 203.971 257.008 203.928C257.11 203.798 257.139 203.654 257.096 203.494C256.967 203.393 256.823 203.363 256.736 203.42C256.491 203.521 256.462 203.666 256.576 203.84ZM262.299 199.661C262.429 199.762 262.572 199.792 262.731 199.748C262.832 199.618 262.862 199.474 262.819 199.315C262.689 199.214 262.546 199.184 262.459 199.241C262.214 199.342 262.17 199.559 262.299 199.661ZM279.309 217.899C279.279 218.043 279.394 218.218 279.538 218.247C279.682 218.276 279.856 218.161 279.885 218.017C279.914 217.873 279.799 217.698 279.655 217.668C279.511 217.639 279.337 217.753 279.309 217.899ZM280.427 210.895C280.397 211.039 280.512 211.214 280.656 211.243C280.801 211.272 280.974 211.157 281.003 211.013C281.033 210.869 280.917 210.694 280.774 210.664C280.63 210.635 280.456 210.751 280.427 210.895ZM252.703 198.152C252.761 198.239 252.962 198.356 253.063 198.226C253.15 198.169 253.266 197.966 253.136 197.865C253.078 197.778 252.877 197.661 252.776 197.79C252.618 197.834 252.588 197.979 252.703 198.152ZM258.09 194.884C258.148 194.971 258.35 195.087 258.451 194.958C258.538 194.901 258.638 194.771 258.524 194.596C258.466 194.509 258.337 194.408 258.163 194.522C258.063 194.652 258.033 194.797 258.09 194.884ZM273.757 213.826C273.727 213.97 273.77 214.13 273.914 214.16C274.059 214.189 274.145 214.131 274.247 214.001C274.276 213.857 274.233 213.697 274.089 213.668C273.945 213.638 273.786 213.682 273.757 213.826ZM275.29 207.736C275.261 207.88 275.304 208.04 275.448 208.07C275.592 208.1 275.678 208.041 275.78 207.912C275.81 207.768 275.767 207.608 275.622 207.578C275.478 207.549 275.32 207.592 275.29 207.736ZM263.147 205.106C263.046 205.236 263.089 205.396 263.217 205.498C263.346 205.599 263.506 205.556 263.607 205.426C263.708 205.296 263.666 205.137 263.537 205.035C263.407 204.933 263.248 204.977 263.147 205.106ZM249.498 203.976C249.396 204.106 249.439 204.265 249.568 204.367C249.697 204.468 249.856 204.425 249.958 204.295C250.059 204.165 250.016 204.006 249.887 203.904C249.759 203.803 249.6 203.846 249.498 203.976ZM253.828 198.157C253.727 198.287 253.769 198.446 253.898 198.548C254.027 198.65 254.187 198.606 254.288 198.476C254.389 198.346 254.346 198.187 254.218 198.085C254.087 197.983 253.928 198.027 253.828 198.157ZM258.099 192.249C257.998 192.379 258.041 192.539 258.169 192.64C258.299 192.742 258.458 192.699 258.559 192.569C258.66 192.439 258.618 192.279 258.489 192.178C258.344 192.148 258.185 192.191 258.099 192.249ZM279.012 211.585C279.055 211.745 279.184 211.847 279.343 211.804C279.502 211.761 279.603 211.631 279.56 211.471C279.517 211.312 279.388 211.21 279.229 211.253C279.085 211.224 278.97 211.427 279.012 211.585ZM254.223 182.871C254.05 182.986 254.02 183.131 254.135 183.304L254.223 182.871ZM263.832 207.28C263.802 207.424 263.917 207.599 264.061 207.628C264.206 207.658 264.379 207.543 264.408 207.398C264.438 207.254 264.323 207.08 264.179 207.05C264.034 207.02 263.86 207.135 263.832 207.28ZM258.872 207.322C258.843 207.466 258.958 207.64 259.102 207.67C259.246 207.699 259.42 207.584 259.449 207.44C259.478 207.296 259.435 207.135 259.219 207.091C259.075 207.062 258.901 207.177 258.872 207.322ZM260.884 200.35C260.854 200.495 260.969 200.669 261.113 200.699C261.257 200.728 261.416 200.685 261.46 200.468C261.489 200.324 261.374 200.15 261.245 200.048C261.087 200.091 260.913 200.206 260.884 200.35ZM251.947 191.143C251.845 191.273 251.888 191.433 252.017 191.535C252.147 191.636 252.306 191.593 252.479 191.478C252.58 191.348 252.537 191.189 252.422 191.015C252.206 190.971 252.049 191.013 251.947 191.143ZM254.789 190.443C254.76 190.587 254.818 190.674 254.875 190.762C255.019 190.792 255.105 190.733 255.193 190.676C255.222 190.532 255.164 190.445 255.107 190.358C254.962 190.327 254.804 190.37 254.789 190.443Z" fill="white"/>
<path d="M144.585 95.5073C145.751 95.2661 147.77 95.6942 148.898 96.074C149.525 96.2856 152.458 97.3902 152.998 97.7747C155.67 99.6791 156.759 101.403 158.441 104.223C159.377 105.794 159.435 107.546 159.855 109.326C160.318 111.292 160.013 113.509 159.214 115.364C159.051 114.137 158.88 112.891 158.38 111.761C157.632 110.07 156.196 108.767 154.616 107.811C153.036 106.855 151.296 106.205 149.603 105.471C148.178 104.854 146.78 104.175 145.414 103.437C143.976 102.661 142.444 101.65 142.074 100.056C141.482 100.378 140.832 100.579 140.215 100.849C138.883 101.433 137.722 102.338 136.574 103.233C134.271 105.032 134.406 104.294 131.932 108.759C131.632 109.3 131.958 103.317 132.77 102.507C133.129 102.149 136.476 98.6529 136.809 98.2711C137.743 97.202 142.923 95.8516 144.585 95.5073Z" fill="#428DFC"/>
<path d="M67.9887 53.72C68.0484 53.0119 67.768 52.3347 67.5419 51.6622C67.3011 50.9448 67.1562 49.6205 67.0394 48.8722C66.5323 45.6154 65.2725 43.1919 62.7065 41.5206C60.5693 40.1286 57.464 35.6272 56.8468 36.8316C56.2652 38.4406 57.7719 39.9143 58.7144 41.3404C59.6569 42.7665 61.381 46.3804 61.4145 46.7615C61.4628 47.3068 61.1502 47.8058 60.906 48.2948C59.231 51.6448 61.2669 56.4121 62.7381 57.0934C64.9189 58.1035 65.5126 56.871 67.2541 55.2104C67.6901 54.7944 67.9383 54.3215 67.9887 53.72Z" fill="#CC8F87"/>
</g>
<defs>
<linearGradient id="paint0_linear" x1="249.191" y1="24.7012" x2="37.8381" y2="70.3049" gradientUnits="userSpaceOnUse">
<stop stop-color="#4300D3"/>
<stop offset="1" stop-color="#4300D3" stop-opacity="0"/>
</linearGradient>
<linearGradient id="paint1_linear" x1="57.8256" y1="62.7765" x2="252.879" y2="110.06" gradientUnits="userSpaceOnUse">
<stop stop-color="#FF0F13"/>
<stop offset="1" stop-color="#BF0020" stop-opacity="0"/>
</linearGradient>
<linearGradient id="paint2_linear" x1="145.321" y1="91.9215" x2="145.321" y2="153.557" gradientUnits="userSpaceOnUse">
<stop stop-color="#C6006B" stop-opacity="0"/>
<stop offset="1" stop-color="#C6006B"/>
</linearGradient>
<linearGradient id="paint3_linear" x1="35" y1="71.7181" x2="92.0369" y2="71.7181" gradientUnits="userSpaceOnUse">
<stop stop-color="#DC978E"/>
<stop offset="1" stop-color="#BE8780"/>
</linearGradient>
<linearGradient id="paint4_linear" x1="253" y1="46.5" x2="206.5" y2="93.5" gradientUnits="userSpaceOnUse">
<stop stop-color="#DC978E"/>
<stop offset="1" stop-color="#BE8780"/>
</linearGradient>
<linearGradient id="paint5_linear" x1="226.713" y1="56.3476" x2="53.4439" y2="89.8598" gradientUnits="userSpaceOnUse">
<stop stop-color="#4300D3"/>
<stop offset="1" stop-color="#4300D3" stop-opacity="0"/>
</linearGradient>
</defs>
</svg>
