<svg width="98" height="79" fill="none" xmlns="http://www.w3.org/2000/svg"><mask id="a" maskUnits="userSpaceOnUse" x="0" y="0" width="98" height="79"><path d="M84.823 45.077C84.823 63.812 69.635 79 50.899 79c-18.735 0-33.923-15.188-33.923-33.923C-29.495 9.062 32.164 0 50.899 0c77.838 0 33.924 26.341 33.924 45.077z" fill="#C4C4C4"/></mask><g mask="url(#a)"><circle cx="50.899" cy="50.188" r="27.664" stroke="#5C00C7" stroke-width="2.296"/><circle cx="50.899" cy="50.188" r="27.664" stroke="url(#paint0_linear)" stroke-opacity=".25" stroke-width="2.296"/><circle cx="50.899" cy="50.188" r="27.664" stroke="url(#paint1_linear)" stroke-opacity=".15" stroke-width="2.296"/><path d="M53.047 32.452c-.687-1.186-2.48-1.53-3.554-.68-.345.272-.629.647-1.044.788-1.035.352-.796-.897-1.878-.74-1.85.268-.824 3.544-3.577 4.158-1.018.228-2.767-1.006-3.799-.857-1.476.213-1.687 2.779-3.172 2.923-.549.053-1.06-.275-1.607-.354-.546-.078-1.255.352-1.061.87.308 1.416.265 1.416.677 2.743.79 2.547 1.482 5.177 3.64 6.73 2.16 1.554 4.47 2.497 7.022 3.24 2.322.676 5.007 1.185 7.414.963 3.13-.29 5.96-2.11 8.101-4.423 2.14-2.313 3.683-5.105 5.206-7.867-.619.58-1.645.08-2.194-.566-.55-.647-1.014-1.485-1.836-1.691-.7-.175-1.458.179-2.148-.03-1.358-.414-1.582-2.666-2.988-2.863-.543-.076-1.288.235-1.819.095-.961-.253-.884-1.577-1.383-2.439z" fill="#428DFC"/><path d="M53.047 32.452c-.687-1.186-2.48-1.53-3.554-.68-.345.272-.629.647-1.044.788-1.035.352-.796-.897-1.878-.74-1.85.268-.824 3.544-3.577 4.158-1.018.228-2.767-1.006-3.799-.857-1.476.213-1.687 2.779-3.172 2.923-.549.053-1.06-.275-1.607-.354-.546-.078-1.255.352-1.061.87.308 1.416.265 1.416.677 2.743.79 2.547 1.482 5.177 3.64 6.73 2.16 1.554 4.47 2.497 7.022 3.24 2.322.676 5.007 1.185 7.414.963 3.13-.29 5.96-2.11 8.101-4.423 2.14-2.313 3.683-5.105 5.206-7.867-.619.58-1.645.08-2.194-.566-.55-.647-1.014-1.485-1.836-1.691-.7-.175-1.458.179-2.148-.03-1.358-.414-1.582-2.666-2.988-2.863-.543-.076-1.288.235-1.819.095-.961-.253-.884-1.577-1.383-2.439z" fill="#428DFC"/><path d="M53.047 32.452c-.687-1.186-2.48-1.53-3.554-.68-.345.272-.629.647-1.044.788-1.035.352-.796-.897-1.878-.74-1.85.268-.824 3.544-3.577 4.158-1.018.228-2.767-1.006-3.799-.857-1.476.213-1.687 2.779-3.172 2.923-.549.053-1.06-.275-1.607-.354-.546-.078-1.255.352-1.061.87.308 1.416.265 1.416.677 2.743.79 2.547 1.482 5.177 3.64 6.73 2.16 1.554 4.47 2.497 7.022 3.24 2.322.676 5.007 1.185 7.414.963 3.13-.29 5.96-2.11 8.101-4.423 2.14-2.313 3.683-5.105 5.206-7.867-.619.58-1.645.08-2.194-.566-.55-.647-1.014-1.485-1.836-1.691-.7-.175-1.458.179-2.148-.03-1.358-.414-1.582-2.666-2.988-2.863-.543-.076-1.288.235-1.819.095-.961-.253-.884-1.577-1.383-2.439z" fill="url(#paint2_linear)" fill-opacity=".5"/><path d="M22.844 16.452c-.48-1.919-1.26-1.995-2.666-3.407-.227-.227-.472-.586-.726-.389-.249.702 1.502 1.898 1.655 3.54-2.29-1.33-5.7-1.975-7.762-1.837-.727.049.533.633 2.18.877 1.505.221 2.424.827 3.774 1.527.08.231-.822-.156-1.059-.213-2.249-.543-3.829-.974-6.224-1.156-.707.085.511 1.292 1.16 1.545 1.61.629 3.416 1.1 5.026 1.729-.423.778-5.534-1.578-4.7-.536 1.484 1.675 4.613 2.355 6.842 2.247a4.13 4.13 0 0 1 1.094.07c.998.22 1.792 2.465 2.032 3.334 1.68 6.1 2.991 8.64 4.394 12.46.412-.576 2.705-2.85 3.36-3.115-1.266-3.445-7.503-13.704-7.944-14.826-.094-.24-.524-2.092-.436-1.85z" fill="url(#paint3_linear)"/><path d="M76.659 16.367c.48-1.92 1.26-1.996 2.665-3.407.228-.228.473-.587.727-.39.249.703-1.502 1.899-1.655 3.54 2.29-1.33 5.7-1.974 7.762-1.836.727.048-.533.633-2.18.876-1.505.222-2.424.827-3.774 1.527-.08.232.822-.156 1.059-.213 2.249-.542 3.829-.974 6.224-1.155.707.084-.511 1.291-1.16 1.544-1.61.63-3.416 1.1-5.026 1.73.423.777 4.663-1.851 3.829-.81-1.484 1.675-3.742 2.628-5.971 2.52a4.13 4.13 0 0 0-1.094.07c-.998.22-1.792 2.465-2.031 3.334-1.68 6.1-2.992 8.64-4.395 12.46-.412-.576-2.705-2.85-3.36-3.114 1.266-3.446 7.503-13.705 7.944-14.827.094-.24.524-2.091.436-1.85z" fill="url(#paint4_linear)"/><path d="M52.448 49.904l-.524-.249c.184-3.07.18-6.221.4-9.254-1.259.82-3.441 1.203-4.928 1.002.44 2.906.65 5.891.268 8.805a28.039 28.039 0 0 1 4.784-.304z" fill="#B07171"/><path d="M49.33 43.639c.893-.074 1.707-.56 2.367-1.167a6.944 6.944 0 0 0 2.21-5.11 5.429 5.429 0 0 0-.311-1.82c-.75-2.036-3.141-3.303-5.238-2.775-.82.207-1.58.656-2.143 1.29-1.137 1.278-1.367 3.148-1.15 4.848.15 1.167.499 2.34 1.224 3.265.725.924 1.874 1.566 3.042 1.469z" fill="#CC8A82"/><path d="M46.468 39.83c.605.86 1.73 1.02 2.778.985.998-.033 1.687-.456 2.476-1.151-.4.822-.369.996-.933 1.64-.596.681-1.179 1.046-2.253.846-.21-.04-.727-.358-.892-.494-.724-.598-.788-.967-1.176-1.825z" fill="#fff"/><path d="M46.097 44.587a.098.098 0 0 1-.071-.03c-.294-.32-.031-.747.18-1.09l.06-.098c.316-.528.318-1.239.005-1.769-.036-.061-.077-.122-.117-.184-.16-.242-.327-.493-.281-.793.037-.25.213-.447.383-.638.193-.216.36-.403.284-.616-.044-.122-.195-.212-.341-.3-.204-.122-.436-.26-.393-.522.057-.35.36-.54.654-.723.121-.076.235-.147.331-.228.214-.18 0-.62-.07-.751-.044-.08-.093-.159-.142-.237-.117-.186-.237-.379-.288-.604-.104-.457.114-.98.554-1.334.373-.3.93-.488 1.423-.642a.097.097 0 1 1 .058.186c-.344.107-.984.306-1.36.608-.29.233-.592.671-.486 1.139.043.192.15.362.263.543.051.082.102.164.148.247.113.21.343.726.025.994-.107.09-.232.168-.353.244-.27.168-.524.327-.566.59-.02.124.1.203.3.323.169.1.358.214.425.402.115.322-.107.57-.321.81-.151.17-.307.345-.336.538-.034.226.104.435.25.657a1.973 1.973 0 0 1 .116 2.16l-.06.1c-.224.365-.382.66-.202.855a.097.097 0 0 1-.072.163zm18.722-5.68c-.708 0-1.376-.676-1.598-.925-.515-.579-1.096-1.233-1.81-1.128-.185.027-.36.105-.544.188-.202.09-.411.185-.642.208-.801.08-1.388-.71-1.667-1.188l-.112-.197c-.303-.531-.617-1.08-1.154-1.29-.536-.21-1.13-.016-1.704.173-.17.056-.346.113-.518.16-.568.152-1.216.073-1.613-.197a.935.935 0 0 1-.422-.676.098.098 0 0 1 .085-.107.096.096 0 0 1 .108.085c.025.22.14.401.338.537.347.236.945.306 1.453.17.168-.045.341-.102.51-.157.606-.198 1.233-.404 1.834-.17.6.235.931.815 1.25 1.376l.113.195c.255.438.788 1.162 1.48 1.093.198-.02.385-.104.582-.192.188-.085.383-.173.596-.204.813-.117 1.46.606 1.98 1.189.254.285 1.133 1.174 1.881.75a.097.097 0 0 1 .132.036.098.098 0 0 1-.036.133 1.05 1.05 0 0 1-.522.138z" fill="#428DFC"/><path d="M69.042 30.941c-3.105 6.256-6.285 11.478-11.456 17.633-1.679-1.27-2.822-1.032-5.562-.98-.122.955-.864 1.744-1.838 1.737-1.708-.013-2.302-1.569-2.302-1.569-1.879.098-3.62-.259-5.508.474-.714-2.67-8.78-12.11-11.585-16.445a9.392 9.392 0 0 1-4.62 1.86c2.917 7.222 10.85 23.615 11.344 25.144.271 3.545.181 13.544.543 17.817 1.233 3.089 3.26 6 8.785 6.471 6.145.525 11.338-.971 14.222-5.97.434-4.56.77-14.227.83-15.118.091-1.33.22-2.804.506-3.45 3.99-8.99 7.294-15.783 10.598-25.05-1.223-.777-2.734-1.775-3.957-2.554z" fill="#9500CB"/><path d="M69.042 30.941c-3.105 6.256-6.285 11.478-11.456 17.633-1.679-1.27-2.822-1.032-5.562-.98-.122.955-.864 1.744-1.838 1.737-1.708-.013-2.302-1.569-2.302-1.569-1.879.098-3.62-.259-5.508.474-.714-2.67-8.78-12.11-11.585-16.445a9.392 9.392 0 0 1-4.62 1.86c2.917 7.222 10.85 23.615 11.344 25.144.271 3.545.181 13.544.543 17.817 1.233 3.089 3.26 6 8.785 6.471 6.145.525 11.338-.971 14.222-5.97.434-4.56.77-14.227.83-15.118.091-1.33.22-2.804.506-3.45 3.99-8.99 7.294-15.783 10.598-25.05-1.223-.777-2.734-1.775-3.957-2.554z" fill="url(#paint5_linear)" fill-opacity=".45"/><path d="M86.605 64.918c.014.055.058.09.112.075s.089-.06.074-.114c-.014-.054-.058-.088-.112-.074-.055.015-.089.059-.074.113zm3.604 8.688c-.034.044-.02.098.024.133.044.034.098.02.133-.024.034-.045.02-.099-.024-.133-.04-.06-.098-.02-.133.024zm1.234-2.057c-.034.044-.02.099.024.133.044.035.098.02.133-.024.034-.044.02-.099-.024-.133-.02-.03-.098-.02-.133.024zm-4.19-2.138a.159.159 0 0 0 .147.03.16.16 0 0 0 .03-.148c-.044-.034-.093-.044-.123-.025-.083.034-.093.084-.054.143zm1.948-1.423a.159.159 0 0 0 .148.03.16.16 0 0 0 .03-.148c-.045-.034-.094-.045-.123-.025-.084.034-.099.108-.055.143zm5.793 6.21c-.01.05.028.109.078.119.049.01.108-.03.118-.079.01-.049-.03-.108-.078-.118a.107.107 0 0 0-.118.078zm.38-2.385c-.01.05.03.109.078.119.05.01.109-.03.118-.079.01-.049-.029-.108-.078-.118-.049-.01-.108.03-.118.078zm-9.44-4.339c.02.03.088.07.122.025.03-.02.07-.088.025-.123-.02-.03-.088-.069-.122-.025-.054.015-.064.064-.025.123zm1.834-1.113c.02.03.089.07.123.026.03-.02.064-.064.025-.124-.02-.03-.064-.064-.123-.025-.034.044-.044.094-.025.123zm5.335 6.45c-.01.05.005.104.054.114.049.01.078-.01.113-.054.01-.049-.005-.103-.054-.113-.049-.01-.103.004-.113.053zm.522-2.073c-.01.049.005.103.054.113.049.01.078-.01.113-.053.01-.05-.005-.104-.054-.114-.049-.01-.103.005-.113.054zm-4.135-.896c-.034.044-.02.099.024.133.044.035.098.02.133-.024.034-.044.02-.098-.024-.133s-.099-.02-.133.024zm-4.648-.385c-.034.044-.02.099.024.133.044.035.099.02.133-.024.035-.044.02-.099-.024-.133-.044-.035-.098-.02-.133.024zm1.475-1.981c-.035.044-.02.098.024.133s.098.02.133-.024c.034-.045.02-.099-.025-.134-.044-.034-.098-.02-.132.025zm1.454-2.012c-.034.044-.02.099.024.133.044.035.098.02.133-.024.034-.044.02-.099-.024-.133a.188.188 0 0 0-.133.024zm7.121 6.584c.015.055.059.09.113.075.054-.015.089-.06.074-.113-.014-.055-.058-.09-.112-.075-.05-.01-.089.06-.075.113zm-8.44-9.777c-.06.039-.07.088-.03.147l.03-.147zm3.271 8.311c-.01.05.03.109.079.119.049.01.108-.03.118-.078a.108.108 0 0 0-.079-.119c-.049-.01-.108.03-.118.078zm-1.688.015c-.01.049.029.108.078.118.049.01.108-.029.118-.078.01-.05-.005-.104-.078-.119a.108.108 0 0 0-.118.079zm.684-2.374c-.01.049.03.108.079.118.049.01.103-.004.118-.078.01-.05-.03-.109-.073-.143-.054.014-.114.053-.124.103zm-3.043-3.135c-.034.044-.02.098.024.133.044.034.099.02.157-.02.035-.044.02-.098-.019-.157-.073-.015-.127 0-.162.044zm.968-.239c-.01.05.01.079.03.109.048.01.078-.01.108-.03.01-.049-.01-.078-.03-.108-.049-.01-.103.004-.108.03z" fill="#fff"/><path d="M49.117 32.522c.397-.082 1.085.063 1.469.193.213.072 1.212.448 1.396.579.91.648 1.28 1.235 1.854 2.196.318.534.338 1.131.481 1.737.158.67.054 1.425-.218 2.056-.056-.417-.114-.842-.284-1.227-.255-.575-.744-1.02-1.282-1.345-.538-.325-1.13-.547-1.707-.797a18.36 18.36 0 0 1-1.426-.692c-.49-.264-1.012-.609-1.138-1.151-.201.11-.423.178-.633.27-.453.199-.849.507-1.24.812-.784.612-.738.36-1.58 1.881-.102.184.009-1.853.285-2.129.122-.122 1.262-1.312 1.375-1.442.319-.364 2.082-.824 2.648-.941z" fill="#428DFC"/><path d="M23.035 18.293c.02-.242-.075-.472-.152-.701-.082-.244-.131-.695-.171-.95-.173-1.11-.602-1.934-1.475-2.504-.728-.474-1.786-2.006-1.996-1.596-.198.548.315 1.05.636 1.535.321.486.908 1.716.92 1.846.016.186-.09.356-.174.522-.57 1.14.123 2.764.624 2.996.743.344.945-.075 1.538-.64a.76.76 0 0 0 .25-.508z" fill="#CC8F87"/></g><defs><linearGradient id="paint0_linear" x1="84.738" y1="8.411" x2="12.768" y2="23.94" gradientUnits="userSpaceOnUse"><stop stop-color="#4300D3"/><stop offset="1" stop-color="#4300D3" stop-opacity="0"/></linearGradient><linearGradient id="paint1_linear" x1="19.575" y1="21.376" x2="85.993" y2="37.477" gradientUnits="userSpaceOnUse"><stop stop-color="#FF0F13"/><stop offset="1" stop-color="#BF0020" stop-opacity="0"/></linearGradient><linearGradient id="paint2_linear" x1="49.368" y1="31.301" x2="49.368" y2="52.289" gradientUnits="userSpaceOnUse"><stop stop-color="#C6006B" stop-opacity="0"/><stop offset="1" stop-color="#C6006B"/></linearGradient><linearGradient id="paint3_linear" x1="11.802" y1="24.421" x2="31.224" y2="24.421" gradientUnits="userSpaceOnUse"><stop stop-color="#DC978E"/><stop offset="1" stop-color="#BE8780"/></linearGradient><linearGradient id="paint4_linear" x1="86.035" y1="15.834" x2="70.201" y2="31.838" gradientUnits="userSpaceOnUse"><stop stop-color="#DC978E"/><stop offset="1" stop-color="#BE8780"/></linearGradient><linearGradient id="paint5_linear" x1="77.084" y1="19.187" x2="18.083" y2="30.599" gradientUnits="userSpaceOnUse"><stop stop-color="#4300D3"/><stop offset="1" stop-color="#4300D3" stop-opacity="0"/></linearGradient></defs></svg>