<svg width="306" height="306" fill="none" xmlns="http://www.w3.org/2000/svg"><g clip-path="url(#clip0)"><path d="M152.639 254.196c53.166 0 96.265-43.099 96.265-96.264 0-53.166-43.099-96.265-96.265-96.265-53.165 0-96.264 43.099-96.264 96.265 0 53.165 43.099 96.264 96.264 96.264z" fill="#F2E7FF"/><path d="M183.247 170.175c-1.481 3.81-.688 8.735-2.524 12.388 2.011-1.975 5.597-5.966 8.245-6.941-.224-1.355-.712-8.217-1.844-7.436-1.103.761-2.074 1.369-3.877 1.989z" fill="#D62929"/><path d="M150.471 181.441l-4.793.782c-.101-.279.159-.618.456-.596l-2.644 4.209c-.14.224-.285.46-.308.723-.018.213.044.423.106.627l1.616 5.326c.247.815.504 1.65 1.024 2.325.507.658 1.506 1.123 2.15.598.567-.464.462-1.344.292-2.056a68.587 68.587 0 0 0-1.661-5.828l1.339 2.946c.254.561.529 1.147 1.025 1.511.497.365 1.288.409 1.671-.072.717-2.001-.353-4.16-1.393-6.015.835.486 1.141 1.51 1.539 2.389.397.879 1.179 1.797 2.131 1.634.666-1.378.115-3.03-.634-4.365-.749-1.335-1.714-2.621-1.916-4.138z" fill="#F2A19C"/><path d="M184.625 226.461c-.845-.14-1.726-.296-2.407-.814-.597-.454-7.586-2.266-9.532-4.384-.465-.506-3.7-3.255-4.804-5.804-1.524-3.52-6.469-24.478-11.676-25.957.595-1.033 4.438-2.44 5.033-3.473 3.599 5.835 7.194 11.56 11.205 17.122 4.217 5.851 8.688 11.577 14.046 16.41 1.339 1.208 2.731 2.357 4.072 3.562.619.557 1.25 1.158 1.522 1.944.272.787.055 1.804-.689 2.178-.492.246-1.079.161-1.623.071l-5.147-.855z" fill="url(#paint0_linear)"/><path d="M178.582 216.002l.39 12.629a78.938 78.938 0 0 1 18.99-3.78c.97-15.848.904-31.759-.198-47.599-.107-1.542-.242-3.143-1.01-4.486-1.895-3.314-7.312-3.344-9.766-.419-1.341 1.6-1.879 3.702-2.379 5.728l-3.573 14.468c-.919 3.723-1.841 7.46-2.261 11.272-.445 4.042-.319 8.123-.193 12.187z" fill="#D62929"/><path d="M190.328 242.676c2.589-1.836 1.284-9.981-.262-12.752-1.546-2.77-13.792-21.218-22.231-36.05-2.45 6.224-1.037 2.896-4.834 8.405 1.5 3 5.781 30.494 19.66 43.546 2.196 2.066 5.21-1.406 7.667-3.149z" fill="#DA2A2A"/><path d="M250.086 444.596c-11.486.129-15.977-1.336-27.459-1.013-6.229-19.591-23.801-47.016-36.17-79.871-16.173-42.957-16.249-71.17-11.158-106.492 7.713 5.036 20.325 9.696 29.357 7.874-2.833 30.549.037 59.057 13.562 86.615 3.585 7.306 7.74 14.449 9.696 22.347 1.794 7.238 1.685 14.923 4.26 21.922 2.528 6.868 7.447 12.557 11.046 18.931 5.065 8.971 7.48 19.411 6.866 29.687z" fill="#151A4F"/><path d="M185.202 172.346c-.733-6.806-3.369-13.243-5.977-19.574-.25-.61-.503-1.22-.753-1.829-.083-.202-.168-.414-.136-.63.05-.344.369-.573.657-.768 2.256-1.53 2.268-4.999 3.795-7.253 3.428 8.821 8.013 18.725 10.601 26.717a49.002 49.002 0 0 0-8.187 3.337z" fill="#F2A19C"/><path d="M182.072 150.467c.391-2.09 1.592-6.589.683-8.439-1.432-2.915-4.274-6.336-8.362-8.903-5.005-3.144-9.145.016-13.341 4.171-.847.838-1.638 1.742-2.274 2.75-2.476 3.927-2.203 9.392.653 13.057a12.166 12.166 0 0 0 1.758 1.812c.982 2.178 2.216 4.11 3.401 6.533.598.639 2.052-.956 2.838-1.79.395-.419.76-.761 1.111-1.069 1.431.434 2.893.79 4.326 1.119 3.144.72 5.655 4.3 8.047 2.142 1.638-1.479.756-9.216 1.16-11.383z" fill="url(#paint1_linear)"/><path d="M176.373 150.567c.645-.723 1.319-1.574 1.228-2.538-.065-.686-.932-2.173-1.259-2.78-.834-1.55-1.43-2.434-3.577-5.153 4.047 2.371 6.302 5.275 9.485 8.717.846 6.417 1.319 17.28-.862 17.404-4.059.195-5.741-6.12-9.776-6.606-.232-3.497 2.425-6.427 4.761-9.044z" fill="#23286B"/><path d="M173.599 159.953c-.095-.325.008-.67.12-.989a15.128 15.128 0 0 1 2.611-4.593c.948.85.902.946 2.004 1.587-1.043 3.232-1.583 4.57-2.062 6.866l-2.18-2.179c-.202-.203-.412-.417-.493-.692z" fill="#F2A19C"/><path d="M120.731 194.876c-.598-.54-1.953.259-1.943 1.062.01.804.486 1.518.945 2.179l10.214 14.731c.33.474.665.957 1.127 1.305.537.405 1.203.598 1.86.738 4.246.905 9.359.22 12.254 3.45.87.971 1.406 2.189 1.927 3.385l8.095 18.572a41.879 41.879 0 0 0 3.777-8.464c.436-1.37.805-2.823.528-4.234-.208-1.061-.767-2.017-1.33-2.941a104.993 104.993 0 0 0-6.618-9.603c-.645-.834-1.32-1.673-2.211-2.237-1.144-.725-2.532-.93-3.874-1.117l-11.905-1.666c-.653-.091-1.321-.187-1.903-.496-.784-.416-1.681-2.46-2.821-4.302-2.61-4.217-3.972-6.618-8.122-10.362z" fill="#FFBEB6"/><path d="M145.83 214.733l-34.626-20.964 10.835-6.984 33.211 19.941-9.42 8.007z" fill="url(#paint2_linear)"/><path opacity=".25" d="M140.916 209.085l-25.119-15.573 6.748-4.026 24.117 14.714-5.746 4.885z" fill="gray"/><path d="M138.226 393.513c-3.078 3.548-4.175 8.567-5.617 13.202-3.655 11.752-12.619 20.415-26.548 28.252-8.267-8.274-12.47-11.977-20.737-20.251 29.976-24.951 54.225-61.936 70.435-99.297 7.69-17.724 18.974-34.712 20.181-54.317 9.945 2.375 18.85 5.551 28.853 2.874.601 32.325-18.984 66.741-41.734 93.259-1.974 2.301-4.033 4.591-5.358 7.402-1.344 2.853-1.851 6.07-2.808 9.102-1.786 5.652-5.211 10.688-9.63 14.158-2.365 1.856-5.026 3.299-7.037 5.616z" fill="#23286B"/><path d="M180.096 196.801l15.943-26.487c12.303 11.999 15.733 31.252 13.22 48.231-2.968 20.061-4.892 38.625-4.096 54.377-11.576-1.439-18.544-2.841-32.162-3.143-1.496-17.602 1.052-25.777 0-43-.183-3 2.283-17.938 2.909-20.877.697-3.282 2.455-6.226 4.186-9.101z" fill="#DA2A2A"/><path d="M171.528 234.871c6.292-16.888 12.681-34.096 18.973-50.984 1.062-2.85 2.658-6.148 5.681-6.537 2.901-.373 5.322 2.271 6.502 4.944 2.926 6.636 1.623 14.308-.162 21.335a178.47 178.47 0 0 1-28.429 60.683c-.421.58-.887 1.189-1.568 1.417-1.317.441-2.581-.729-3.469-1.795-8.303-9.951-19.555-24.155-19.555-34.655 6.749-4.834 2.989-.968 7.543-7.902 2.521 4.068 2.521 4.068 5.64 8.569 1.702 2.456 4.229 6.206 6.112 8.528 1.883 2.32 1.177 4.986 1.88 9.384 2.536-1.246-.868-10.908-.145-10.819.053-1.184 3.799 4.532 5.002 6.024.623-1.036-1.589-5.918-4.005-8.192z" fill="#DA2A2A"/><path d="M148.309 219.199c1.09-.869 6.425.379 5.734-.832-.768-1.345-3.927-5.965-5.336-6.614-2.614-1.205-7.035-3.766-9.367-5.45-2.333-1.685-6.526-4.158-7.9-3.082-.904.709.033 2.321.9 3.075s6.636 4.208 7.56 4.891c4.697 3.47 4.605 3.691 8.409 8.012z" fill="#FFBEB6"/><path d="M128.96 194.417c.363.19.802.129 1.204.048 4.458-.901 8.844-3.24 11.458-6.953.737-1.047 4.283-4.536 5.053-5.476.77-.941.657-2.738-.496-3.125-4.632 4.83-9.44 9.783-15.595 12.422-.676.289-1.399.576-1.842 1.161-.444.586-.433 1.58.218 1.923z" fill="url(#paint3_linear)"/><path d="M161.325 187.003c-.285 2.011-2.112 3.038-5.515 2.963-.772-.018-3.279-.774-3.725-1.648-1.384-2.712-5.344-3.202-7.161-5.645-.805-1.081-.29-1.985.613-3.113.174-.326.914-.705 1.249-.55l8.384 3.872c1.828.844 3.659 1.689 5.42 2.665.254.141.518.297.657.552.147.271.121.599.078.904z" fill="url(#paint4_linear)"/><path d="M138.125 185.875c-.581.212-1.228.61-1.274 1.259-.03.431.231.823.534 1.106 1.057.985 2.6 1.053 4.015 1.073 3.752.052 7.506.102 11.259.153 1.75.024 3.55.039 5.192-.633l-.155-2.202c-.011-.163-.027-.337-.128-.459-.135-.163-.367-.173-.572-.171-3.093.032-6.196.122-9.27-.185-3.21-.321-6.532-1.058-9.601.059z" fill="#FFBEB6"/><path d="M183.463 170.065c.47 3.92 1.912 8.941 1.169 13.091 4.095-5.004 5.973-9.683 11.877-12.33a22.11 22.11 0 0 1-3.984-7.83l-5.544 4.991c-1.028.925-2.145 1.894-3.518 2.078z" fill="#E94A47"/><path d="M113.576 204.66c6.483 3.763 14.142 5.459 21.169 8.324.874.357 1.795.741 2.738.657.943-.084 1.85-.858 1.592-1.671l-4.908-2.039c-4.986-2.07-9.974-4.142-15.073-5.971-.983-.353-2.004-.703-3.053-.681-1.048.023-2.14.51-2.465 1.381z" fill="#FFBEB6"/><path d="M193.424 279.611c-.142.027-.239.134-.212.275.028.142.135.24.277.212.142-.027.239-.134.212-.276-.027-.141-.134-.239-.277-.211zm-22.989 7.661c-.107-.097-.25-.07-.347.037-.096.107-.069.249.038.346.107.097.249.07.346-.037.16-.09.071-.249-.037-.346zm5.053 3.56c-.107-.097-.249-.07-.346.037-.097.107-.07.249.037.346.108.097.25.07.346-.037.08-.046.07-.249-.037-.346zm6.273-10.39a.414.414 0 0 0-.104.373.413.413 0 0 0 .375.104c.097-.106.132-.231.087-.31-.073-.221-.198-.256-.358-.167zm3.293 5.282a.414.414 0 0 0-.104.373.416.416 0 0 0 .375.105c.096-.107.132-.232.087-.311-.073-.221-.259-.274-.358-.167zm-17.033 13.755c-.125-.035-.284.055-.318.18-.035.124.054.284.179.318.125.035.285-.054.319-.179a.277.277 0 0 0-.18-.319zm6.056 1.425c-.126-.035-.285.054-.319.179-.034.125.054.284.179.319.126.034.285-.055.319-.18.035-.124-.054-.284-.179-.318zm12.906-23.497c-.08.045-.195.214-.088.311.045.08.215.195.312.087.079-.045.195-.214.087-.311-.026-.142-.151-.177-.311-.087zm2.517 4.93c-.079.045-.194.215-.087.311.045.08.153.177.312.087.079-.044.177-.152.087-.311-.107-.096-.232-.131-.312-.087zm-17.564 12.534c-.125-.035-.267-.008-.302.117-.035.124.01.205.118.302.125.035.267.007.302-.118.033-.125.006-.266-.118-.301zm5.229 1.73c-.125-.035-.266-.007-.301.118-.035.124.009.204.117.301.126.035.267.007.302-.118.034-.124.007-.266-.118-.301zm3.072-10.479c-.107-.097-.249-.07-.346.037-.097.106-.07.249.037.346.108.096.25.069.347-.038.097-.107.069-.249-.038-.345zm1.855-11.895c-.106-.096-.249-.07-.346.038-.097.106-.07.249.037.345.108.097.25.07.347-.037.096-.106.069-.248-.038-.346zm4.816 4.166c-.106-.097-.249-.07-.346.037-.097.106-.07.249.037.346.108.096.25.069.347-.038.097-.107.07-.249-.038-.345zm4.897 4.119c-.108-.096-.25-.069-.346.038-.097.106-.07.249.037.345.107.097.249.07.346-.037a.492.492 0 0 0-.037-.346zm-18.243 17.108c-.142.027-.239.134-.212.275.028.142.135.24.277.212.141-.027.239-.134.212-.276.035-.124-.134-.239-.277-.211zm26.693-19.911c-.09-.16-.215-.195-.375-.104l.375.104zm-21.962 6.875c-.126-.035-.285.054-.319.179-.035.124.054.284.179.319.125.035.285-.055.319-.18.035-.124-.055-.284-.179-.318zm.277-4.351c-.125-.035-.284.055-.318.179-.035.125.054.285.179.319.125.035.267.007.319-.179.035-.125-.055-.284-.18-.319zm5.971 2.207c-.125-.035-.285.054-.319.179-.035.124-.007.266.18.318.125.035.284-.054.382-.162-.029-.141-.119-.3-.243-.335zm8.621-7.251c-.107-.097-.249-.07-.346.037-.097.107-.07.249.019.408.108.096.25.07.409-.02.053-.186.025-.328-.082-.425zm.432 2.537c-.125-.035-.205.009-.284.054-.035.124.009.204.054.284.125.035.205-.01.284-.054.036-.126.008-.267-.054-.284zm-24.359-169.843l-61.18-6.248a5.07 5.07 0 0 1-4.533-5.554l4.295-42.067a5.069 5.069 0 0 1 5.562-4.523l61.18 6.248a5.07 5.07 0 0 1 4.533 5.553l-4.295 42.068a5.07 5.07 0 0 1-5.562 4.523z" fill="#fff"/><path d="M140.092 157.121a.593.593 0 0 1-.381-.982c2.628-2.993-.429-7.919-1.429-9.358l-.193-.278c-2.145-3.08-4.576-6.572-3.389-10.236 1.136-3.504 4.746-6.411 7.382-8.533 1.304-1.051 2.536-2.043 2.881-2.668.293-.532.371-.984.239-1.381-.351-1.057-2.127-1.863-4.008-2.717-1.445-.657-2.939-1.335-4.089-2.251-.557-.444-1.398-1.114-1.613-2.106-.345-1.591 1.019-2.851 2.074-3.661 1.482-1.136 3.916-2.242 6.271-3.312 1.158-.527 2.422-1.101 3.561-1.687l-33.31-6.731c-.298.029-.593.06-.882.094-3.493.401-7.445.854-10.25-1.478-3.76-3.124-2.778-8.986-1.713-13.122l8.576-33.308a2.734 2.734 0 0 1 3.162-1.996 271.295 271.295 0 0 0 54.178 4.747c2.173-.028 5.148-.068 7.176 1.68 2.289 1.97 2.457 5.267 2.436 8.203l-.239 32.375c-.029 3.94-.09 12.139-8.03 13.155-1.294.166-2.682.103-4.126-.189l-15.151-3.061c-1.357.791-3.07 1.57-4.894 2.399-2.293 1.043-4.665 2.121-6.039 3.174-1.27.974-1.789 1.757-1.636 2.467.116.535.608.963 1.192 1.427 1.034.824 2.461 1.472 3.84 2.099 2.124.965 4.13 1.876 4.645 3.425.239.719.129 1.502-.326 2.329-.458.83-1.658 1.796-3.177 3.019-2.519 2.029-5.969 4.807-6.996 7.975-1.006 3.103 1.246 6.338 3.233 9.192l.194.278c1.124 1.618 4.543 7.179 1.346 10.819a.596.596 0 0 1-.515.198zm10.537-49.73l13.984 2.825c1.315.267 2.573.326 3.738.176 6.375-.816 6.951-6.615 6.991-11.986l.239-32.375c.02-2.67-.119-5.655-2.022-7.295-1.559-1.343-3.814-1.424-6.383-1.39a272.332 272.332 0 0 1-54.417-4.768 1.548 1.548 0 0 0-1.786 1.125l-8.576 33.307c-.985 3.824-1.919 9.22 1.32 11.913 1.698 1.41 4.023 1.62 6.383 1.491l-2.294-.464a3.28 3.28 0 0 1-2.568-3.79l6.431-34.916a.59.59 0 0 1 .693-.477c.324.06.538.37.478.692l-6.431 34.917a2.086 2.086 0 0 0 1.633 2.41l6.11 1.234c12.714-1.202 34.361.876 37.009 3.095.775.649 1.115 1.362 1.012 2.117-.105.771-.667 1.479-1.544 2.159zm-32.023-6.471l30.39 6.141c1.123-.692 1.914-1.375 1.998-1.99.016-.121.066-.489-.599-1.046-1.999-1.677-18.967-3.603-31.789-3.105z" fill="#1B236D"/><path d="M220.373 131.939c19.297 7.281 38.634 3.364 43.189-8.749s-7.396-27.835-26.694-35.117c-19.298-7.281-38.634-3.365-43.189 8.748-4.555 12.114 7.396 27.836 26.694 35.118z" fill="#fff"/><path d="M210.428 160.111a.51.51 0 0 1-.244-.522c.49-2.988 2.713-5.274 4.862-7.486 2.399-2.47 4.666-4.804 4.365-7.872-.229-2.342-2.014-4.288-3.73-5.882-2.161-2.009-4.522-3.884-6.806-5.697-2.869-2.279-5.836-4.635-8.461-7.296-5.63-5.71-8.557-12.122-8.241-18.056.095-1.792.5-3.56 1.17-5.254a14.1 14.1 0 0 1 .262-4.104c2.141-10 14.484-14.156 25.046-13.787a68.181 68.181 0 0 1 29.17 7.746c.243.137.346.44.215.689a.511.511 0 0 1-.69.213 67.145 67.145 0 0 0-28.728-7.629c-10.151-.355-21.996 3.557-24.014 12.984a12.864 12.864 0 0 0-.25 1.744c2.695-4.903 7.656-8.953 13.722-10.82 6.907-2.127 14.888-1.84 25.118.904 14.202 3.81 24.085 10.162 29.375 18.88 3.374 5.56 4.851 13.597.547 19.018-1.67 2.104-4.095 3.727-7.631 5.108-8.544 3.335-18.329 3.445-28.299.319-9.027-2.831-17.889-8.269-24.957-15.313-3.517-3.505-7.339-8.357-8.546-13.731a15.244 15.244 0 0 0-.49 3.09c-.406 7.615 4.806 14.098 7.948 17.284 2.581 2.617 5.524 4.953 8.369 7.213 2.298 1.826 4.675 3.713 6.866 5.749 1.856 1.725 3.789 3.849 4.052 6.532.347 3.538-2.192 6.151-4.649 8.679-2.039 2.099-4.148 4.27-4.588 6.943a.509.509 0 0 1-.763.354zm-16.046-57.916c.565 5.86 4.755 11.282 8.568 15.082 12.606 12.564 33.623 22.001 52.161 14.764 3.361-1.312 5.65-2.835 7.204-4.792 4-5.038 2.571-12.598-.619-17.856-5.149-8.486-14.827-14.683-28.764-18.422-10.035-2.692-17.837-2.982-24.553-.915-6.548 2.017-11.747 6.67-13.997 12.139z" fill="#1B236D"/><path d="M89.766 172.936c-18.673 11.334-39.574 11.01-46.685-.724-7.11-11.733 2.262-30.433 20.935-41.768 18.672-11.334 39.573-11.01 46.684.724 7.111 11.734-2.262 30.434-20.934 41.768z" fill="#fff"/><path d="M105.627 200.352a.54.54 0 0 0 .152-.592c-1.095-3.017-3.856-4.967-6.526-6.854-2.981-2.106-5.798-4.097-6.084-7.351-.219-2.485 1.26-4.859 2.735-6.853 1.858-2.513 3.95-4.924 5.973-7.257 2.543-2.931 5.172-5.962 7.386-9.244 4.747-7.041 6.542-14.29 5.053-20.41a17.682 17.682 0 0 0-2.246-5.246 14.988 14.988 0 0 0-1.074-4.224c-4.184-10.001-17.849-11.933-28.776-9.496a72.136 72.136 0 0 0-28.861 13.734.549.549 0 0 0-.09.76.54.54 0 0 0 .76.088 71.041 71.041 0 0 1 28.425-13.527c10.501-2.342 23.6-.569 27.544 8.86.244.583.443 1.173.601 1.768-3.765-4.583-9.722-7.839-16.404-8.606-7.608-.874-15.863.976-25.98 5.821-14.044 6.728-23.094 15.265-26.9 25.374-2.426 6.447-2.394 15.107 3.148 19.918 2.15 1.868 4.993 3.087 8.945 3.838 9.548 1.815 19.76.029 29.53-5.165 8.847-4.702 17.014-12.088 22.996-20.799 2.978-4.335 6.01-10.131 6.216-15.964a16.07 16.07 0 0 1 1.115 3.124c1.911 7.853-2.249 15.619-4.899 19.548-2.177 3.228-4.784 6.234-7.305 9.14-2.037 2.349-4.143 4.777-6.027 7.323-1.595 2.158-3.193 4.746-2.943 7.591.33 3.753 3.485 5.983 6.537 8.139 2.534 1.79 5.155 3.642 6.135 6.341a.54.54 0 0 0 .864.221zm5.39-63.45c.558 6.215-2.746 12.677-5.974 17.376-10.671 15.537-30.713 29.451-51.431 25.513-3.757-.714-6.438-1.856-8.439-3.593-5.15-4.471-5.14-12.625-2.845-18.721 3.704-9.84 12.57-18.176 26.353-24.778 9.924-4.754 17.992-6.572 25.389-5.723 7.213.829 13.536 4.666 16.947 9.926z" fill="#1B236D"/><g opacity=".2"><path d="M86.415 112.344l-2.812 1.438h3.55l-.738-1.438z" fill="#5C00C7"/><path d="M86.415 112.344l-2.812 1.438h3.55l-.738-1.438z" fill="url(#paint5_linear)" fill-opacity=".25"/><path d="M86.415 112.344l-2.812 1.438h3.55l-.738-1.438z" fill="url(#paint6_linear)" fill-opacity=".15"/></g><g opacity=".2"><path d="M73.768 118.81h15.968l-1.36-2.646h-9.431l-5.177 2.646z" fill="#5C00C7"/><path d="M73.768 118.81h15.968l-1.36-2.646h-9.431l-5.177 2.646z" fill="url(#paint7_linear)" fill-opacity=".25"/><path d="M73.768 118.81h15.968l-1.36-2.646h-9.431l-5.177 2.646z" fill="url(#paint8_linear)" fill-opacity=".15"/></g><g opacity=".2"><path d="M63.934 123.838h28.385l-1.36-2.646H69.11l-5.175 2.646z" fill="#5C00C7"/><path d="M63.934 123.838h28.385l-1.36-2.646H69.11l-5.175 2.646z" fill="url(#paint9_linear)" fill-opacity=".25"/><path d="M63.934 123.838h28.385l-1.36-2.646H69.11l-5.175 2.646z" fill="url(#paint10_linear)" fill-opacity=".15"/></g><g opacity=".2"><path d="M65.264 128.866h29.639l-1.36-2.646H63.905l1.36 2.646z" fill="#5C00C7"/><path d="M65.264 128.866h29.639l-1.36-2.646H63.905l1.36 2.646z" fill="url(#paint11_linear)" fill-opacity=".25"/><path d="M65.264 128.866h29.639l-1.36-2.646H63.905l1.36 2.646z" fill="url(#paint12_linear)" fill-opacity=".15"/></g><g opacity=".2"><path d="M67.848 133.894h29.638l-1.36-2.646H66.488l1.36 2.646z" fill="#5C00C7"/><path d="M67.848 133.894h29.638l-1.36-2.646H66.488l1.36 2.646z" fill="url(#paint13_linear)" fill-opacity=".25"/><path d="M67.848 133.894h29.638l-1.36-2.646H66.488l1.36 2.646z" fill="url(#paint14_linear)" fill-opacity=".15"/></g><g opacity=".2"><path d="M70.43 138.922h21.314l5.176-2.646H69.071l1.36 2.646z" fill="#5C00C7"/><path d="M70.43 138.922h21.314l5.176-2.646H69.071l1.36 2.646z" fill="url(#paint15_linear)" fill-opacity=".25"/><path d="M70.43 138.922h21.314l5.176-2.646H69.071l1.36 2.646z" fill="url(#paint16_linear)" fill-opacity=".15"/></g><path d="M73.014 143.95h8.896l5.176-2.646H71.655l1.36 2.646zm1.85 3.602l2.387-1.22h-3.014l.628 1.22z" fill="#A1C3FC"/><path d="M62.65 96.26c.703-.163 1.423-.327 2.137-.235 1.07.138 1.98.826 2.787 1.542.99.88 1.913 1.849 2.635 2.959 1.718 2.64 2.197 5.919 2.09 9.069-.108 3.151-.753 6.256-1.096 9.389a49.128 49.128 0 0 0-.091 9.782 62.83 62.83 0 0 0-21.767.691c4.716-6.87 7.492-15.462 5.831-23.634-.492-2.424-1.255-5.284.412-7.108.913-1 2.314-1.353 3.63-1.658l3.432-.797z" fill="#151A4F"/><path d="M63.05 109.246a.44.44 0 0 0-.2.06c-.187.127-.164.451-.12.702.8 4.504.477 9.281-.915 13.575 2.608-1.945 6.064-.008 9.072-.78-.862-1.986-.665-4.353-.655-6.589.011-2.633.564-6.173.002-8.72-2.117.282-5.067 1.47-7.185 1.752z" fill="#F3BC7C"/><path d="M57.968 101.341c-.22 2.302.317 4.299 1.195 6.438 1.02 2.485 2.879 4.758 5.415 5.63 2.535.872 5.154.542 6.395-1.841.512-.983.757-2.594.739-3.703-.051-3.042-.769-6.221-2.985-8.3-1.315-1.233-2.683-2.978-4.477-3.132-1.794-.154-4.32.649-5.347 2.131-.841 1.214-.793 1.306-.934 2.777z" fill="#FFCD92"/><path d="M68.481 108.982c-.358.401-.879.618-1.395.766-.801.229-1.656.323-2.47.146-.813-.177-1.584-.648-2.013-1.364.492.077.994.086 1.488.027 2.38-.286 4.288-2.086 5.785-3.963a14.175 14.175 0 0 1-.44 2.56c-.14.55-.577 1.404-.955 1.828z" fill="#fff"/><path d="M55.65 105.242c2.45-3.981 6.67-6.82 11.274-7.588l2.33 2.1c-5.194.716-9.504 4.432-12.723 8.583-.645-.913-1.314-2.093-.784-3.078-.226 1.563.464-1.492-.098-.017z" fill="#C6006B"/><path d="M56.872 131.878c2.016-8.456 1.699-10.097 1.652-18.791-.01-1.934.831-9.721 2.217-12.082 1.942-3.31 3.69-3.86 5.511-4.499-4.294-3.61-9.61.33-10.867 2.557-1.258 2.228-1.433 4.884-1.622 7.437a241.094 241.094 0 0 1-3.195 25.179 51.416 51.416 0 0 1 6.304.199z" fill="#23286B"/><path d="M59.835 110.727a.138.138 0 0 1-.138-.139c.02-2.981.638-5.786 2.005-9.095.863-2.087 2.755-4.326 3.87-4.934a.139.139 0 1 1 .131.244c-1.052.574-2.917 2.794-3.745 4.797-1.353 3.274-1.965 6.047-1.985 8.989a.137.137 0 0 1-.138.138z" fill="#23286B"/><path d="M58.733 108.482h-.001c-.064-.01-.107-.073-.097-.141.403-2.632 1.284-5.035 2.855-7.792.991-1.74 2.86-3.486 3.87-3.887a.114.114 0 0 1 .15.072.128.128 0 0 1-.071.16c-.953.378-2.798 2.112-3.75 3.78-1.554 2.728-2.425 5.104-2.824 7.703a.12.12 0 0 1-.133.105zm2.258.965c-.006 0-.012 0-.019-.002a.137.137 0 0 1-.119-.156c.61-4.553 2.618-9.445 5.241-12.767a.139.139 0 0 1 .218.172c-2.595 3.286-4.581 8.126-5.184 12.632a.138.138 0 0 1-.137.121zm-12.045 21.878h-.008a.139.139 0 0 1-.13-.147c.544-8.773 1.732-16.377 3.974-25.427l.053-.215c.537-2.173 1.348-5.456 2.91-6.915a.138.138 0 0 1 .197.007.14.14 0 0 1-.007.196c-1.502 1.403-2.302 4.638-2.83 6.779l-.054.215c-2.238 9.032-3.424 16.622-3.966 25.377a.138.138 0 0 1-.139.13z" fill="#23286B"/><path d="M72.143 118.156l-.244 4.656c-.004.066-.014.144-.072.176-.036.02-.08.015-.122.009-1.614-.216-2.55 7.331-4.177 7.31-1.724-.023-4.14-7.603-5.852-7.408l.012-2.811c.002-.333-.036-1.205-.036-1.205s.43-.414.734-.554c1.042-.48 2.097 1.212 3.19.864.586-.186.905-.906 1.508-1.023.847-.164 1.397.929 2.221 1.185.508.158 1.063-.028 1.518-.303.454-.276.853-.641 1.32-.896z" fill="#fff"/><path d="M67.759 128.79l4.214-7.053a34.535 34.535 0 0 1 8.745 3.26c1.442.773 2.848 1.664 3.948 2.877 1.612 1.774 2.46 4.111 3.066 6.433 1.769 6.787 1.406 17.716-.378 24.499-2.224-.366-4.178-.755-6.415-.476-2.515.314-5.55.898-8.078.714-9.023-.653-14.54-.905-23.283 1.429-.377-5.016-3.57-13.327-3.316-18.351.25-4.924.894-10.084 3.775-14.079 2.473-3.431 11.673-6.069 11.673-6.069s4.54 4.954 6.049 6.816z" fill="#5C00C7"/><path d="M67.759 128.79l4.214-7.053a34.535 34.535 0 0 1 8.745 3.26c1.442.773 2.848 1.664 3.948 2.877 1.612 1.774 2.46 4.111 3.066 6.433 1.769 6.787 1.406 17.716-.378 24.499-2.224-.366-4.178-.755-6.415-.476-2.515.314-5.55.898-8.078.714-9.023-.653-14.54-.905-23.283 1.429-.377-5.016-3.57-13.327-3.316-18.351.25-4.924.894-10.084 3.775-14.079 2.473-3.431 11.673-6.069 11.673-6.069s4.54 4.954 6.049 6.816z" fill="url(#paint17_linear)" fill-opacity=".25"/><path d="M67.759 128.79l4.214-7.053a34.535 34.535 0 0 1 8.745 3.26c1.442.773 2.848 1.664 3.948 2.877 1.612 1.774 2.46 4.111 3.066 6.433 1.769 6.787 1.406 17.716-.378 24.499-2.224-.366-4.178-.755-6.415-.476-2.515.314-5.55.898-8.078.714-9.023-.653-14.54-.905-23.283 1.429-.377-5.016-3.57-13.327-3.316-18.351.25-4.924.894-10.084 3.775-14.079 2.473-3.431 11.673-6.069 11.673-6.069s4.54 4.954 6.049 6.816z" fill="#DA2A2A"/><path d="M32.118 113.651c2.009 2.014 3.123 2.123 3.81 4.861-.127-.346.488 2.296.623 2.638.63 1.602 1.593 3.194 2.355 5.347 1.748 4.937 5.075 7.508 6.886 12.423-.937.377-3.042 8.003-3.63 8.824-2.005-5.451-4.6-13.57-6.961-22.15-.165-.597-.705-1.163-1.283-1.381-.492-.186-1.037-.125-1.562-.099-3.186.154-6.413-1.206-8.534-3.596 0 0-.767-.757-1.712-1.311-.944-.554-2.47-4.421.242-3.681 2.713.741 7.82.722 11.092 2.62-.218-2.342-2.72-4.048-2.365-5.05.363-.281.715.23 1.04.555z" fill="#FECA8D"/><path d="M39.21 125.52c4.009 6.185 4.52 8.731 8.307 15.581 1.96 3.549 4.844 8.317 5.54 12.314.18 1.033-.371 6.766-1.2 7.406-.655.507-2.421-.307-3.097-.785-.676-.479-1.115-1.217-1.53-1.934a238.079 238.079 0 0 1-14.62-29.929 13.423 13.423 0 0 0 6.6-2.653z" fill="#5C00C7"/><path d="M39.21 125.52c4.009 6.185 4.52 8.731 8.307 15.581 1.96 3.549 4.844 8.317 5.54 12.314.18 1.033-.371 6.766-1.2 7.406-.655.507-2.421-.307-3.097-.785-.676-.479-1.115-1.217-1.53-1.934a238.079 238.079 0 0 1-14.62-29.929 13.423 13.423 0 0 0 6.6-2.653z" fill="url(#paint18_linear)" fill-opacity=".25"/><path d="M39.21 125.52c4.009 6.185 4.52 8.731 8.307 15.581 1.96 3.549 4.844 8.317 5.54 12.314.18 1.033-.371 6.766-1.2 7.406-.655.507-2.421-.307-3.097-.785-.676-.479-1.115-1.217-1.53-1.934a238.079 238.079 0 0 1-14.62-29.929 13.423 13.423 0 0 0 6.6-2.653z" fill="#DA2A2A"/><path d="M91.289 158.911H44.461v2.277h46.828v-2.277z" fill="#EEE"/><path d="M66.894 102.316a.109.109 0 0 1-.109-.105.111.111 0 0 1 .105-.114c1.446-.05 2.775-1.312 2.903-2.756a.112.112 0 0 1 .118-.1c.06.006.105.06.1.12-.14 1.575-1.536 2.901-3.113 2.955h-.004z" fill="#23286B"/><path d="M66.894 102.316a.109.109 0 0 1-.109-.105.111.111 0 0 1 .105-.114c1.446-.05 2.775-1.312 2.903-2.756a.112.112 0 0 1 .118-.1c.06.006.105.06.1.12-.14 1.575-1.536 2.901-3.113 2.955h-.004z" fill="#23286B"/><path d="M91.289 132.368H51.613v28.82H91.29v-28.82z" fill="url(#paint19_linear)"/><path d="M74.618 144.873h-5.94v5.954h5.94v-5.954z" fill="#fff"/><path d="M90.472 152.411c-.421.272-6.176-.11-6.011-.585l-.362-.115c-.457-.28-.228-.984.062-1.435 1.99-3.1 3.855-5.372 6.851-7.508-.827-1.464-.27-4.251.348-5.893.576-1.236.668 4.32 1.5 6.819.259.781.535 1.207.553 2.037.053 2.489-.871 5.34-2.941 6.68z" fill="#FECA8D"/><path d="M55.186 143.648c.02.077.084.127.16.106.078-.021.127-.084.107-.161-.021-.078-.084-.127-.161-.107-.078.021-.127.084-.106.162zm5.15 12.394c-.049.063-.028.14.035.19.063.049.14.028.19-.035.049-.063.028-.14-.035-.19-.056-.084-.14-.029-.19.035zm1.764-2.934c-.05.063-.029.141.034.19.063.05.14.029.19-.034.049-.064.028-.141-.035-.191-.028-.042-.14-.028-.19.035zm-5.988-3.051c.063.05.133.064.21.043a.229.229 0 0 0 .043-.211c-.063-.049-.133-.064-.175-.036-.12.05-.134.12-.078.204zm2.784-2.03c.063.05.133.064.21.043a.228.228 0 0 0 .043-.211c-.063-.049-.133-.064-.175-.036-.12.049-.14.155-.078.204zm8.277 8.86c-.014.07.042.155.112.169.07.014.154-.042.168-.112.014-.07-.041-.155-.111-.169-.07-.015-.155.041-.169.112zm.544-3.402c-.014.07.042.155.112.169.07.014.154-.042.168-.112.015-.07-.041-.155-.111-.169-.07-.015-.155.042-.169.112zm-13.49-6.191c.028.043.126.099.175.036.042-.028.1-.126.036-.176-.028-.042-.126-.098-.175-.036-.078.022-.092.092-.036.176zm2.622-1.587c.027.042.126.099.175.036.042-.028.091-.091.036-.176-.028-.042-.092-.092-.176-.036-.05.063-.064.134-.035.176zm7.623 9.202c-.015.07.006.148.076.162.07.014.113-.014.162-.077.014-.071-.007-.148-.077-.162-.07-.014-.147.007-.161.077zm.746-2.958c-.014.07.006.147.077.162.07.014.112-.014.16-.077.015-.071-.006-.148-.076-.162-.07-.014-.147.006-.161.077zm-5.91-1.278c-.049.063-.028.14.035.19.063.049.14.028.19-.035.049-.063.028-.14-.035-.19-.063-.049-.14-.029-.19.035zm-6.64-.55c-.05.063-.03.141.034.19.063.05.14.029.19-.034.049-.063.028-.141-.035-.19-.063-.049-.14-.029-.19.034zm2.106-2.827c-.05.063-.028.141.035.19.063.05.14.029.189-.034.05-.063.029-.141-.034-.19-.063-.05-.14-.029-.19.034zm2.079-2.869c-.05.063-.029.141.034.19.063.05.14.029.19-.034.049-.063.028-.141-.035-.19a.269.269 0 0 0-.19.034zm10.175 9.393c.021.078.084.127.161.106.078-.021.127-.083.106-.161-.02-.077-.084-.127-.16-.106-.07-.015-.127.084-.107.161zm-12.062-13.949c-.084.056-.098.126-.042.211l.042-.211zm4.675 11.857a.155.155 0 0 0 .112.17c.07.014.155-.042.169-.112.014-.07-.042-.155-.112-.169-.07-.015-.154.041-.169.111zm-2.412.021c-.015.07.041.155.111.169.07.014.155-.042.169-.112.014-.07-.007-.148-.112-.169-.07-.014-.154.042-.168.112zm.979-3.387a.155.155 0 0 0 .111.17c.07.014.148-.007.169-.112.014-.071-.042-.155-.105-.205-.077.021-.161.077-.175.147zm-4.349-4.472c-.05.063-.028.14.035.19.063.049.14.029.224-.028.05-.063.029-.14-.027-.225-.105-.021-.183-.001-.232.063zm1.383-.34c-.014.07.014.112.042.155.07.014.112-.014.154-.042.014-.071-.013-.113-.041-.155-.07-.014-.148.006-.155.042z" fill="#fff"/><g opacity=".2"><path d="M168.116 59.489l-32.666 6.074a17.79 17.79 0 0 0-.086 6.164l35.057-6.52a17.724 17.724 0 0 0-2.305-5.718z" fill="#5C00C7"/><path d="M168.116 59.489l-32.666 6.074a17.79 17.79 0 0 0-.086 6.164l35.057-6.52a17.724 17.724 0 0 0-2.305-5.718z" fill="url(#paint20_linear)" fill-opacity=".25"/><path d="M168.116 59.489l-32.666 6.074a17.79 17.79 0 0 0-.086 6.164l35.057-6.52a17.724 17.724 0 0 0-2.305-5.718z" fill="url(#paint21_linear)" fill-opacity=".15"/></g><g opacity=".2"><path d="M153.213 51.084l-6.911 1.285a17.886 17.886 0 0 0-8.882 7.8l26.913-5.006a17.755 17.755 0 0 0-11.12-4.078z" fill="#5C00C7"/><path d="M153.213 51.084l-6.911 1.285a17.886 17.886 0 0 0-8.882 7.8l26.913-5.006a17.755 17.755 0 0 0-11.12-4.078z" fill="url(#paint22_linear)" fill-opacity=".25"/><path d="M153.213 51.084l-6.911 1.285a17.886 17.886 0 0 0-8.882 7.8l26.913-5.006a17.755 17.755 0 0 0-11.12-4.078z" fill="url(#paint23_linear)" fill-opacity=".15"/></g><g opacity=".2"><path d="M164.437 82.526l-17.26 3.21a17.81 17.81 0 0 0 5.792.964 17.76 17.76 0 0 0 11.468-4.174z" fill="#5C00C7"/><path d="M164.437 82.526l-17.26 3.21a17.81 17.81 0 0 0 5.792.964 17.76 17.76 0 0 0 11.468-4.174z" fill="url(#paint24_linear)" fill-opacity=".25"/><path d="M164.437 82.526l-17.26 3.21a17.81 17.81 0 0 0 5.792.964 17.76 17.76 0 0 0 11.468-4.174z" fill="url(#paint25_linear)" fill-opacity=".15"/></g><g opacity=".2"><path d="M170.752 70.177l-33.916 6.307a17.849 17.849 0 0 0 3.955 5.414l28.241-5.251a17.748 17.748 0 0 0 1.72-6.47z" fill="#5C00C7"/><path d="M170.752 70.177l-33.916 6.307a17.849 17.849 0 0 0 3.955 5.414l28.241-5.251a17.748 17.748 0 0 0 1.72-6.47z" fill="url(#paint26_linear)" fill-opacity=".25"/><path d="M170.752 70.177l-33.916 6.307a17.849 17.849 0 0 0 3.955 5.414l28.241-5.251a17.748 17.748 0 0 0 1.72-6.47z" fill="url(#paint27_linear)" fill-opacity=".15"/></g><path d="M135.001 43.04c.452-.646 1.395-1.23 3.309-1.23 1.915 0 2.753.348 3.339 1.199.479.696-1.496 1.898-3.411 1.898s-3.721-1.175-3.237-1.867z" fill="#151A4F"/><path d="M136.202 35.204c1.6 1.132 3.911 1.347 5.726.533a86.178 86.178 0 0 0-.84 12.282 17.344 17.344 0 0 0-6.593-.824 29.817 29.817 0 0 0 1.707-11.99z" fill="#FFA29D"/><path d="M133.486 37.047c-.512-.685-.854-2.22-1.114-3.035-.323-1.013-.374-3.044-.139-4.081a12.645 12.645 0 0 1 2.227-4.834c.72-.949 1.603-1.802 2.681-2.304 2.334-1.088 5.149-.342 7.338 1.017 1.392.864 2.704 2.074 3.08 3.672.279 1.19.003 2.436-.305 3.62-.551 2.126-1.23 4.283-2.596 6-1.367 1.718-3.566 2.926-5.726 2.552-2.347-.406-4.02-.697-5.446-2.607z" fill="url(#paint28_linear)"/><path d="M131.145 28.734c0 .668.187 1.262.477 1.682.29.422.667.65 1.054.65s.764-.228 1.055-.65c.289-.42.476-1.014.476-1.682 0-.668-.187-1.262-.476-1.683-.291-.421-.668-.649-1.055-.649-.387 0-.764.228-1.054.65-.29.42-.477 1.014-.477 1.682z" stroke="#000" stroke-width=".484"/><path d="M132.721 31.983c.155.044.932 1.393 1.083 1.345.1-.033 1.023-.437 1.088-.536.83-1.262.654-3.623-.025-3.721-1.071.578-2.711.297-2.889 1.716.108.647.382.999.743 1.196z" fill="url(#paint29_linear)"/><path d="M136.502 30.508c0 1.313.95 2.331 2.067 2.331 1.117 0 2.066-1.018 2.066-2.331 0-1.314-.949-2.332-2.066-2.332s-2.067 1.018-2.067 2.332z" stroke="#000" stroke-width=".484"/><path d="M136.699 29.708a.151.151 0 0 0 .068-.016.19.19 0 0 0 .088-.242 1.813 1.813 0 0 0-1.107-1.025 1.681 1.681 0 0 0-1.328.08l-.155-.187a.162.162 0 0 0-.241-.015.193.193 0 0 0-.014.258l.34.41.121-.078c.332-.216.76-.26 1.175-.119.414.141.742.441.897.824.028.069.091.11.156.11z" fill="#000"/><path d="M132.229 33.953c.176-.633.229-1.17.992-1.242 1.009-.095 1.828.178 2.611.61 1.055.581 2.07 1.478 2.203 1.628.892 1.003 1.604 1.76 1.595 1.758.024.037-.189.777-.303.992-.335.634-.703 1.25-1.103 1.845-.183.273-.392.557-.701.67-.294.107-.62.038-.925-.032l-2.03-.466c-.612-.14-1.286-.322-1.63-.85-.191-.294-.248-.653-.301-1l-.365-2.411c-.015.015-.163-1.068-.043-1.502zm1.101 2.713c.032.07.068.146.136.184.127.07.279-.03.38-.134.26-.268.449-.603.546-.964.291.002.511.273.609.548.098.274.122.574.254.833.298.587 1.08.784 1.716.62.637-.164 1.163-.6 1.67-1.02.109-.092.231-.185.366-.217-.184-.069-4.016-2.014-5.46-2.039-.287.007-.679.052-.886.518.21.473.46 1.208.669 1.671z" fill="url(#paint30_linear)"/><path d="M134.44 24.638c-.059.426.568-.15 1.507.007 2.91.486 5.39 1.136 7.754 2.902.195.145.395.306.487.532.106.262.045.56-.019.836-.3 1.29-.549 1.99-.907 3.265.868-.18 1.679-.628 2.187.1.509.727-1.889 5.279.032 3.874l2.681-6.288c.424-.996.855-2.015.936-3.096.082-1.08-.248-2.253-1.101-2.918-.615-.478-1.409-.638-2.157-.85-1.463-.418-2.843-1.088-4.296-1.539-1.453-.451-3.042-.676-4.483-.189-1.441.488-2.668 1.84-2.621 3.364z" fill="url(#paint31_linear)"/><path d="M142.929 29.065a.209.209 0 0 0 .192-.291c-.247-.583-.689-1.134-1.35-1.685a8.717 8.717 0 0 0-2.305-1.38c-1-.404-2.061-.618-3.087-.824l-1.646-.33a.21.21 0 0 0-.082.41l1.646.33c1.007.203 2.048.412 3.012.802a8.304 8.304 0 0 1 2.195 1.314c.609.507 1.013 1.006 1.233 1.526.034.08.11.128.192.128z" fill="#0A134F"/><path d="M151.341 49.135c-1.28-1.845-3.554-2.49-5.747-2.985-2.524-.569-5.238-1.029-7.85-1.049-2.894-.022-5.638 1.022-8.062 1.929-2.783 1.042-4.707 3.202-5.05 6.149-.343 2.947-.301 10.468.101 13.407 1.214 8.885.63 15.277 1.01 24.194 6.275-.459 26.392-.616 26.441-.88 2.104-11.383.796-24.377.41-35.945-.056-1.68-.295-3.438-1.253-4.82z" fill="#5C00C7"/><path d="M151.341 49.135c-1.28-1.845-3.554-2.49-5.747-2.985-2.524-.569-5.238-1.029-7.85-1.049-2.894-.022-5.638 1.022-8.062 1.929-2.783 1.042-4.707 3.202-5.05 6.149-.343 2.947-.301 10.468.101 13.407 1.214 8.885.63 15.277 1.01 24.194 6.275-.459 26.392-.616 26.441-.88 2.104-11.383.796-24.377.41-35.945-.056-1.68-.295-3.438-1.253-4.82z" fill="url(#paint32_linear)" fill-opacity=".25"/><path d="M151.341 49.135c-1.28-1.845-3.554-2.49-5.747-2.985-2.524-.569-5.238-1.029-7.85-1.049-2.894-.022-5.638 1.022-8.062 1.929-2.783 1.042-4.707 3.202-5.05 6.149-.343 2.947-.301 10.468.101 13.407 1.214 8.885.63 15.277 1.01 24.194 6.275-.459 26.392-.616 26.441-.88 2.104-11.383.796-24.377.41-35.945-.056-1.68-.295-3.438-1.253-4.82z" fill="url(#paint33_linear)" fill-opacity=".15"/><path d="M151.341 49.135c-1.28-1.845-3.554-2.49-5.747-2.985-2.524-.569-5.238-1.029-7.85-1.049-2.894-.022-5.638 1.022-8.062 1.929-2.783 1.042-4.707 3.202-5.05 6.149-.343 2.947-.301 10.468.101 13.407 1.214 8.885.63 15.277 1.01 24.194 6.275-.459 26.392-.616 26.441-.88 2.104-11.383.796-24.377.41-35.945-.056-1.68-.295-3.438-1.253-4.82z" fill="url(#paint34_linear)"/><path d="M113.38 96.685a.323.323 0 0 0-.038.454l8.186 9.72a.322.322 0 0 0 .455.038l14.125-11.945a.323.323 0 0 0 .039-.454l-8.186-9.72a.323.323 0 0 0-.455-.038L113.38 96.685z" fill="#262626"/><path d="M114.864 96.4a.323.323 0 0 0-.038.455l7.23 8.554a.322.322 0 0 0 .454.038l12.5-10.533a.323.323 0 0 0 .039-.455l-7.23-8.553a.322.322 0 0 0-.454-.038L114.864 96.4z" fill="#484848"/><path d="M173.979 62.764c-1.074-1.985-2.629-3.42-3.473-3.205-.845.216-2.791 2.907-1.717 4.892 1.074 1.985 4.761 2.514 5.606 2.298.844-.215.658-2-.416-3.985z" fill="#262626"/><path d="M135.016 42.993c1.586 1.543 1.618 1.587 2.745 2.105-1.254 1.342-1.627 3.102-3.08 4.225-.276-1.661-2.467-3.301-2.467-3.301s1.965-1.702 2.802-3.029z" fill="#fff"/><path d="M144.217 45.886s-3.457 2.773-3.768 3.621c-1.467-1.637-1.58-2.53-2.717-4.41 1.907-.65 2.598-.858 3.929-2.076 1.099 1.615 2.556 2.865 2.556 2.865z" fill="#fff"/><path d="M156.814 79.458c.153-3.401 2.311-4.649 4.605-7.168 1.839-2.02 8.765-9.716 9.929-11.127 1.67-2.025 2.781-4.641 5.055-5.956 2.649-1.532 4.767-.68 7.599-1.853 1.791-.741-1.267 2.697-3.205 2.758-.674.021-1.37-.095-2.012.112a2.293 2.293 0 0 0-.422.192c.78.147 1.696.4 2.224.639 3.641 1.645 7.969 1.576 11.824 2.633.622.171 1.375.786.982 1.297-.369.478-1.305.004-1.942-.237-.349-.028-1.119-.652-3.466-.807-2.5-.403-3.5-1.118-3.983-.564-.645.575 10.042 1.532 9.391 2.983-.652 1.451-9.681-2.5-10.165-1.854-.484.403 8.937 3.243 7.659 3.789-1.733.741-5.065-1.443-8.319-2.773-.793 1.012.726.64 4.031 2.983.293.302 1.613.726 1.209 1.451-1.209.968-3.72-.33-4.383-1.048-2.058-2.227-2.668-1.043-5.389-2.387a6.85 6.85 0 0 1-.865-.36l-.05-.008c-.479-.034-.865.37-1.162.746-1.677 2.12-7.604 10.705-11.066 17.567-4.242 7.258-10.779 6.73-12.321 7.056-.656-1.945 4.149-6.013 4.242-8.064z" fill="url(#paint35_linear)"/><path d="M192.447 29a7.047 7.047 0 0 0-5.15 2.23 7.069 7.069 0 0 0-12.219 4.84c0 6.07 8.46 12.654 12.219 13.927 4.066-1.46 12.219-8.167 12.219-13.928A7.069 7.069 0 0 0 192.447 29z" fill="#E94A47"/><path d="M187.289 49.291c5.45-2.675 9.07-5.676 10.914-8.758 1.561-2.61 1.756-5.155.775-7.249-.89-1.9-2.699-3.258-4.782-3.608-2.224-.373-4.487.425-6.281 2.4l-.626.69-.625-.69c-1.794-1.975-4.057-2.773-6.281-2.4-2.084.35-3.892 1.707-4.783 3.608-.98 2.094-.786 4.639.776 7.249 1.844 3.082 5.464 6.083 10.913 8.758z" fill="#fff" stroke="#BF0020" stroke-width="1.868" stroke-linecap="round" stroke-linejoin="round"/><path d="M186.735 41.773l-1.483.773a.31.31 0 0 1-.418-.13.3.3 0 0 1-.031-.194l.283-1.639a1.176 1.176 0 0 0-.343-1.046l-1.2-1.16a.305.305 0 0 1-.005-.435.306.306 0 0 1 .177-.09l1.658-.238a1.19 1.19 0 0 0 .897-.647l.742-1.49a.31.31 0 0 1 .556 0l.741 1.49c.174.349.51.59.898.647l1.658.239a.308.308 0 0 1 .172.524l-1.2 1.16a1.176 1.176 0 0 0-.343 1.046l.283 1.639a.307.307 0 0 1-.253.355.314.314 0 0 1-.197-.031l-1.482-.773a1.201 1.201 0 0 0-1.11 0z" fill="#0027DC"/><path d="M125.392 95.932c1.148-.956 1.857-1.998 1.582-2.327-.274-.328-1.629-.352-2.778.605-1.149.956-1.483 2.452-1.314 2.94.14.404 1.361-.261 2.51-1.218z" fill="#262626"/><path d="M118.815 81.653c3.721 5.977 5.899 9.29 9.62 15.268a16.074 16.074 0 0 0 7.413-1.88c-.222.977-1.248 2.069-2.147 2.514-1.616.801-3.206 1.076-4.823 1.877.647 2.258.741 4.67.271 6.97-.874.843-1.513-1.557-1.56-2.611-.237.455-.414.768-.709 1.02-.864.359-1.552.658-2.091.298-.696 1.143-1.251 1.333-2.05 1.067.253-2.526.559-4.76.812-7.286.092-.911.178-1.862-.157-2.714-.397-1.012-1.315-1.71-2.178-2.373a75.674 75.674 0 0 1-11.981-11.525 15.164 15.164 0 0 1 8.769-.699c.125.672.45-.506.811.074z" fill="#FFBEB6"/><path d="M127.073 48.62c-4.151 1.405-5.923 4.909-7.941 8.5-1.319 2.348-2.898 5.584-4.515 7.74-2.482 3.308-2.919 7.091-5.401 10.4-.963 1.283-1.358 3.321-1.935 4.817-.352.909-.548 1.87-.742 2.824-.937 4.594 15.98 14.288 16.383 14.288-.323-1.048 1.128-3.063 1.773-3.386.807-.403 1.29-.645 2.338-.161-.811-1.698-8.708-13.622-9.52-15.32 3.596-1.68 4.715-5.545 6.831-8.898 2.511-3.98 2.623-5.924 3.05-8.483.605-3.628.391-12.991-.321-12.32z" fill="#5C00C7"/><path d="M127.073 48.62c-4.151 1.405-5.923 4.909-7.941 8.5-1.319 2.348-2.898 5.584-4.515 7.74-2.482 3.308-2.919 7.091-5.401 10.4-.963 1.283-1.358 3.321-1.935 4.817-.352.909-.548 1.87-.742 2.824-.937 4.594 15.98 14.288 16.383 14.288-.323-1.048 1.128-3.063 1.773-3.386.807-.403 1.29-.645 2.338-.161-.811-1.698-8.708-13.622-9.52-15.32 3.596-1.68 4.715-5.545 6.831-8.898 2.511-3.98 2.623-5.924 3.05-8.483.605-3.628.391-12.991-.321-12.32z" fill="url(#paint36_linear)" fill-opacity=".25"/><path d="M127.073 48.62c-4.151 1.405-5.923 4.909-7.941 8.5-1.319 2.348-2.898 5.584-4.515 7.74-2.482 3.308-2.919 7.091-5.401 10.4-.963 1.283-1.358 3.321-1.935 4.817-.352.909-.548 1.87-.742 2.824-.937 4.594 15.98 14.288 16.383 14.288-.323-1.048 1.128-3.063 1.773-3.386.807-.403 1.29-.645 2.338-.161-.811-1.698-8.708-13.622-9.52-15.32 3.596-1.68 4.715-5.545 6.831-8.898 2.511-3.98 2.623-5.924 3.05-8.483.605-3.628.391-12.991-.321-12.32z" fill="url(#paint37_linear)" fill-opacity=".15"/><path d="M127.073 48.62c-4.151 1.405-5.923 4.909-7.941 8.5-1.319 2.348-2.898 5.584-4.515 7.74-2.482 3.308-2.919 7.091-5.401 10.4-.963 1.283-1.358 3.321-1.935 4.817-.352.909-.548 1.87-.742 2.824-.937 4.594 15.98 14.288 16.383 14.288-.323-1.048 1.128-3.063 1.773-3.386.807-.403 1.29-.645 2.338-.161-.811-1.698-8.708-13.622-9.52-15.32 3.596-1.68 4.715-5.545 6.831-8.898 2.511-3.98 2.623-5.924 3.05-8.483.605-3.628.391-12.991-.321-12.32z" fill="url(#paint38_linear)"/><path d="M153.035 53.147c2.77 8.076 2.629 13.561 3.309 20.658 1.134-1.664 12.902-13.383 13.742-14.025-.403.968-.501 1.645-.322 2.66.242 1.371.806 2.016 2.338 3.387.887.645 2.66.645 2.66.645S166.524 84.377 161.001 88c-5 2.5-7.182 2.175-9.302-.648-.559-.743-1.772-9.506-2.02-18.347-.101-3.595-.63-7.052-.674-10.484-.1-8.064-.712-11.846.487-11.058.549.361.89.592 1.531 1.326 1.029 1.18 1.504 2.879 2.012 4.358z" fill="#5C00C7"/><path d="M153.035 53.147c2.77 8.076 2.629 13.561 3.309 20.658 1.134-1.664 12.902-13.383 13.742-14.025-.403.968-.501 1.645-.322 2.66.242 1.371.806 2.016 2.338 3.387.887.645 2.66.645 2.66.645S166.524 84.377 161.001 88c-5 2.5-7.182 2.175-9.302-.648-.559-.743-1.772-9.506-2.02-18.347-.101-3.595-.63-7.052-.674-10.484-.1-8.064-.712-11.846.487-11.058.549.361.89.592 1.531 1.326 1.029 1.18 1.504 2.879 2.012 4.358z" fill="url(#paint39_linear)" fill-opacity=".25"/><path d="M153.035 53.147c2.77 8.076 2.629 13.561 3.309 20.658 1.134-1.664 12.902-13.383 13.742-14.025-.403.968-.501 1.645-.322 2.66.242 1.371.806 2.016 2.338 3.387.887.645 2.66.645 2.66.645S166.524 84.377 161.001 88c-5 2.5-7.182 2.175-9.302-.648-.559-.743-1.772-9.506-2.02-18.347-.101-3.595-.63-7.052-.674-10.484-.1-8.064-.712-11.846.487-11.058.549.361.89.592 1.531 1.326 1.029 1.18 1.504 2.879 2.012 4.358z" fill="url(#paint40_linear)" fill-opacity=".15"/><path d="M153.035 53.147c2.77 8.076 2.629 13.561 3.309 20.658 1.134-1.664 12.902-13.383 13.742-14.025-.403.968-.501 1.645-.322 2.66.242 1.371.806 2.016 2.338 3.387.887.645 2.66.645 2.66.645S166.524 84.377 161.001 88c-5 2.5-7.182 2.175-9.302-.648-.559-.743-1.772-9.506-2.02-18.347-.101-3.595-.63-7.052-.674-10.484-.1-8.064-.712-11.846.487-11.058.549.361.89.592 1.531 1.326 1.029 1.18 1.504 2.879 2.012 4.358z" fill="#428DFC"/><path d="M152.202 52.882c-.028-.016-.034-.038-.018-.066.016-.028.038-.034.066-.019.028.016.034.038.019.066-.016.029-.044.013-.067.019zm-2.538-4.154c-.022.006-.05-.01-.056-.032-.006-.022.009-.05.032-.056.022-.007.05.009.056.031.035.038-.003.072-.032.057zm1.419 2.011c-.022.007-.044.012-.073-.003-.006-.022-.012-.044.004-.073.022-.006.044-.012.073.004.034.038.018.066-.004.072zm-3.979 4.913c-.039.034-.089.024-.124-.014-.034-.038-.024-.089.014-.123.039-.035.089-.025.123.013.057.032.031.11-.013.123zm1.797-1.26c-.038.034-.088.024-.123-.014-.034-.038-.025-.089.014-.123.039-.035.089-.025.123.014.034.038.024.088-.014.123zm1.791-1.282c-.038.034-.089.025-.123-.014-.034-.038-.025-.088.014-.123.038-.034.088-.025.123.014.034.038.024.088-.014.123zm.428 4.977a.15.15 0 0 1-.037-.133.147.147 0 0 1 .133-.036c.034.038.047.082.031.11-.026.078-.07.091-.127.059zm1.18-1.85a.15.15 0 0 1-.037-.133.15.15 0 0 1 .133-.037c.034.038.047.082.031.11-.032.057-.099.075-.127.06zm-6.043-4.923c-.044.012-.101-.02-.113-.064-.012-.044.02-.1.064-.113a.1.1 0 0 1 .113.064c.012.044-.02.1-.064.113zm2.151-.5c-.045.011-.101-.02-.113-.064-.013-.044.02-.1.063-.113.045-.012.101.02.113.064.013.044-.019.1-.063.113zm2.129-.495c-.044.012-.101-.02-.113-.064-.012-.044.02-.1.064-.112.044-.012.1.02.113.063.018.066-.02.101-.064.113zm2.435 8.851c-.028-.016-.069-.076-.03-.11.016-.029.076-.07.111-.031.028.016.069.076.03.11-.01.05-.054.063-.111.031zm-5.329-6.216c-.044.012-.095.003-.107-.042-.013-.044.003-.073.042-.107.044-.011.095-.002.107.042.012.044.002.095-.042.107zm1.858-.61c-.044.012-.095.003-.107-.042-.013-.044.003-.072.042-.107.044-.011.095-.002.107.043.012.044.002.094-.042.106zm1.852-.631c-.044.011-.095.002-.107-.043-.012-.044.004-.072.042-.106.044-.012.095-.003.107.042.018.066.002.094-.042.107zm-.769 4.356c-.039.034-.089.025-.124-.014-.034-.038-.024-.088.014-.123.038-.034.089-.025.123.014.034.038.031.11-.013.123zm1.484-1.269c-.038.035-.088.025-.116.009-.034-.038-.025-.088.013-.123.039-.034.089-.025.124.014.027.016.017.066-.021.1zm-3.968-5.782c-.051-.01-.079-.026-.07-.076.01-.05.048-.085.077-.07.05.01.085.048.075.099 0 0-.038.035-.082.047zm1.943.129c-.05-.01-.084-.048-.075-.099.01-.05.048-.084.099-.075.05.01.085.048.069.077-.004.072-.042.106-.093.097.022-.007 0 0 0 0zm1.19 11.147c-.038.034-.088.025-.123-.014-.034-.038-.025-.088.014-.123.038-.034.089-.025.123.014.034.038.024.088-.014.123zm1.719-1.452c-.038.034-.088.024-.123-.014-.034-.038-.024-.089.014-.123s.089-.025.123.014c.029.016.025.088-.014.123zm-4.728-7.573c-.05-.009-.085-.048-.075-.098.009-.05.048-.084.098-.075.05.01.085.048.075.098.013.044-.048.085-.098.075zm2.269.181c-.05-.009-.085-.047-.075-.098.009-.05.048-.084.098-.075.05.01.085.048.075.098-.015.03-.047.086-.098.075zm-.6 4.452c-.044.012-.101-.02-.113-.063-.012-.045.02-.101.064-.113.044-.012.101.02.113.063.013.045-.019.101-.064.113zm2.146-.689a.1.1 0 0 1-.113-.063c-.012-.045.02-.101.064-.113.045-.012.101.02.113.063.013.044.003.095-.064.113zm-2.05 2.235c-.044.011-.101-.02-.113-.064-.012-.044.02-.1.064-.113.044-.012.095-.002.113.064.012.044-.02.1-.064.113zm2.122-.778c-.045.011-.101-.02-.113-.064-.013-.044-.003-.095.063-.113.045-.012.101.02.136.058-.01.05-.043.107-.086.119zm-1.729-3.903a.125.125 0 0 1-.097-.093.125.125 0 0 1 .093-.096c.05.009.084.047.097.092.012.044-.049.085-.093.097zm-16.711 18.318c.017.062.067.101.129.085.061-.017.101-.067.084-.13-.017-.061-.067-.1-.128-.084-.062.016-.101.067-.085.129zm4.109 9.902c-.04.05-.023.112.027.152.05.039.112.022.151-.028.04-.05.023-.112-.027-.152-.045-.068-.112-.023-.151.028zm1.406-2.344c-.039.05-.023.112.027.151.05.04.112.023.151-.027.04-.05.023-.113-.027-.152-.023-.034-.112-.023-.151.028zm-4.776-2.438a.18.18 0 0 0 .167.035.183.183 0 0 0 .035-.169c-.051-.039-.106-.05-.14-.028-.095.039-.106.095-.062.162zm2.221-1.621c.05.039.106.05.168.034a.185.185 0 0 0 .034-.169c-.051-.039-.106-.05-.14-.028-.095.039-.112.123-.062.162zm6.602 7.078c-.012.056.033.124.089.135a.122.122 0 0 0 .134-.09c.012-.055-.033-.123-.089-.134a.122.122 0 0 0-.134.089zm.434-2.718c-.012.055.033.123.089.135.056.011.123-.033.134-.09.012-.056-.033-.123-.089-.135-.056-.011-.123.034-.134.09zm-10.76-4.946c.022.034.1.08.139.029.034-.023.079-.101.029-.14-.023-.034-.101-.08-.14-.03-.062.018-.073.074-.028.141zm2.09-1.268c.023.033.101.079.14.028.034-.022.073-.072.029-.14-.023-.034-.073-.073-.14-.029-.039.05-.051.107-.029.14zm6.081 7.351c-.012.056.005.118.061.13.056.011.089-.011.129-.062.011-.055-.005-.118-.061-.13-.056-.01-.118.006-.129.062zm.595-2.363c-.011.056.005.118.061.13.056.011.09-.012.129-.062.012-.056-.005-.118-.061-.13-.056-.01-.118.006-.129.062zm-4.713-1.02c-.039.05-.023.112.027.151.05.04.112.023.152-.028.039-.05.022-.112-.028-.152-.05-.04-.112-.022-.151.028zm-5.297-.44c-.04.05-.023.113.027.152.05.04.112.023.151-.028.039-.05.023-.112-.027-.151-.05-.04-.112-.023-.151.027zm1.68-2.258c-.039.05-.023.112.027.152.05.04.112.022.152-.028.039-.05.022-.112-.028-.152-.05-.04-.112-.023-.151.028zm1.658-2.293c-.039.05-.023.112.027.152.05.04.112.023.151-.028.04-.05.023-.112-.027-.152a.215.215 0 0 0-.151.028zm8.116 7.505c.017.061.067.101.129.084.062-.016.101-.067.084-.129-.016-.061-.066-.1-.128-.084-.056-.011-.101.067-.085.129zm-9.621-11.145c-.067.045-.078.101-.034.168l.034-.168zm3.73 9.474c-.012.056.033.124.089.135.056.011.123-.033.135-.09.011-.055-.034-.123-.09-.135a.122.122 0 0 0-.134.09zm-1.925.016c-.011.056.033.123.089.135.056.012.123-.033.135-.09.011-.055-.006-.117-.089-.135-.056-.011-.124.034-.135.09zm.781-2.706c-.012.056.033.124.089.136.056.01.117-.006.134-.09.012-.056-.033-.124-.083-.163-.062.016-.129.061-.14.117zm-3.469-3.573c-.039.05-.023.112.027.152.051.039.112.022.18-.022.039-.05.022-.112-.022-.18-.084-.017-.145 0-.185.05zm1.103-.272c-.011.056.011.09.034.124.056.011.089-.011.123-.033.011-.056-.011-.09-.033-.124-.057-.012-.118.005-.124.033z" fill="#fff"/><path d="M238.382 71.823h-5.29v14.853h5.29V71.823z" fill="#EBC788"/><path d="M231.522 67.17c-.362-.829-.476-1.748-.463-2.653.063-4.343 3.215-8.383 7.314-9.784 4.1-1.402 8.88-.25 12.121 2.632 1.876 1.67 3.249 3.829 4.981 5.648 1.733 1.82 4.046 3.359 6.55 3.2 3.718-.235 6.761-4.1 10.436-3.486 1.769.296 3.18 1.585 4.745 2.463 1.565.877 3.761 1.255 4.98-.065-.256 2.631.203 3.615.449 5.46a6.521 6.521 0 0 1-2.115 5.658c-1.934 1.745-2.882 3.517-3.911 5.913-.83 1.933-.516 4.134-.501 6.239.015 2.104-.451 4.485-2.223 5.612-2.666.638-4.842-2.163-7.458-2.985-1.905-.599-3.96-.108-5.955-.177-3.848-.133-7.53-2.56-9.178-6.05-.68-1.439-1.028-3.012-1.623-4.488-1.501-3.72-4.641-6.737-8.41-8.082-3.567-1.272-8.223-1.576-9.739-5.055z" fill="#E94A47"/><path d="M242.529 59.067c-1.816-1.278-2.672-1.422-4.787-1.27-.199.014-1.32.251-1.512.303-2.342.631-3.46 1.755-4.521 3.64-1.061 1.886-1.398 4.15-1.327 6.402.061 1.925.522 4.075 2.099 5.39.841.7 1.911 1.074 2.962 1.203 2.415.295 4.752-.66 6.354-2.255 1.602-1.595 2.521-3.774 2.943-6.046.473-2.554.1-5.74-2.211-7.367z" fill="#FFBEB6"/><path d="M242.529 59.067c-1.816-1.278-2.672-1.422-4.787-1.27-.199.014-1.32.251-1.512.303-2.342.631-3.46 1.755-4.521 3.64-1.061 1.886-1.398 4.15-1.327 6.402.061 1.925.522 4.075 2.099 5.39.841.7 1.911 1.074 2.962 1.203 2.415.295 4.752-.66 6.354-2.255 1.602-1.595 2.521-3.774 2.943-6.046.473-2.554.1-5.74-2.211-7.367z" fill="url(#paint41_linear)"/><path d="M233.676 62.03c-.242.234-.569.719-.569.719s.427.462.623.594a40.157 40.157 0 0 0 8.915 4.45 23.722 23.722 0 0 0 .976-10.66c-.982-.283-2.066-.565-3.028-.235-.317.108-.599.278-.875.45a36.5 36.5 0 0 0-6.042 4.683z" fill="#E94A47"/><path d="M232.658 62.086a.139.139 0 0 1-.093-.24l1.724-1.583c.557-.511 1.134-1.04 1.77-1.48a8.49 8.49 0 0 1 3.656-1.421.138.138 0 1 1 .037.275 8.218 8.218 0 0 0-3.536 1.374c-.621.43-1.19.952-1.741 1.457l-1.724 1.582a.137.137 0 0 1-.093.036z" fill="#E94A47"/><path d="M233.397 66.037a4.362 4.362 0 0 1-3.579-1.914 8.374 8.374 0 0 1-.238-.387.138.138 0 1 1 .238-.141c.075.126.149.252.23.374a4.078 4.078 0 0 0 3.56 1.784.136.136 0 0 1 .146.13.138.138 0 0 1-.13.147 3.91 3.91 0 0 1-.227.007z" fill="#23286B"/><path d="M262.612 64.052c-1.687 0-3.291-.511-4.455-1.728-2.895-3.024-6.175-6.452-10.427-8.095-3.907-1.511-9.29-1.136-12.016 2.503a.139.139 0 0 1-.222-.166c2.81-3.75 8.333-4.144 12.337-2.596 4.309 1.666 7.756 5.268 10.526 8.162 2.319 2.423 6.489 1.907 9.41.145l.053-.032c1.494-.901 3.352-2.024 4.781-.967 2.563 1.895 6.291 2.124 9.066.558.061-.035.123-.066.187-.093a.138.138 0 1 1 .11.254 1.749 1.749 0 0 0-.162.081c-2.866 1.618-6.717 1.38-9.365-.577-1.28-.946-3.051.123-4.475.982l-.053.032c-1.563.943-3.477 1.536-5.295 1.537z" fill="#E94A47"/><path d="M257.607 41a5.54 5.54 0 0 1 4.048 1.753 5.557 5.557 0 0 1 9.606 3.805c0 4.772-6.65 9.947-9.606 10.949-3.196-1.148-9.605-6.421-9.605-10.95A5.557 5.557 0 0 1 257.607 41z" fill="#E94A47"/><path d="M261.661 56.952c-4.284-2.103-7.13-4.462-8.579-6.886-1.228-2.052-1.381-4.052-.61-5.698a5.095 5.095 0 0 1 3.76-2.836c1.748-.294 3.527.333 4.938 1.887l.491.54.492-.54c1.41-1.554 3.19-2.18 4.938-1.887a5.095 5.095 0 0 1 3.76 2.836c.77 1.646.617 3.646-.61 5.698-1.45 2.424-4.296 4.782-8.58 6.886z" fill="#fff" stroke="#BF0020" stroke-width="1.336" stroke-linecap="round" stroke-linejoin="round"/><path d="M262.097 51.041l1.166.608a.245.245 0 0 0 .329-.101.24.24 0 0 0 .024-.154l-.222-1.288a.921.921 0 0 1 .269-.822l.943-.912a.24.24 0 0 0-.135-.412l-1.303-.188a.939.939 0 0 1-.706-.509l-.583-1.171a.244.244 0 0 0-.437 0l-.583 1.171a.935.935 0 0 1-.705.509l-1.304.188a.242.242 0 0 0-.135.412l.944.912c.22.213.321.521.269.822l-.223 1.288a.243.243 0 0 0 .354.255l1.166-.608a.943.943 0 0 1 .872 0z" fill="#0027DC"/><g opacity=".2"><path d="M265.873 87.443l-2.147-.665 1.807 1.769.34-1.104z" fill="#5C00C7"/><path d="M265.873 87.443l-2.147-.665 1.807 1.769.34-1.104z" fill="url(#paint42_linear)" fill-opacity=".25"/><path d="M265.873 87.443l-2.147-.665 1.807 1.769.34-1.104z" fill="url(#paint43_linear)" fill-opacity=".15"/></g><g opacity=".2"><path d="M256.215 84.452l8.13 7.955.625-2.032-4.802-4.7-3.953-1.223z" fill="#5C00C7"/><path d="M256.215 84.452l8.13 7.955.625-2.032-4.802-4.7-3.953-1.223z" fill="url(#paint44_linear)" fill-opacity=".25"/><path d="M256.215 84.452l8.13 7.955.625-2.032-4.802-4.7-3.953-1.223z" fill="url(#paint45_linear)" fill-opacity=".15"/></g><g opacity=".2"><path d="M248.705 82.126l14.451 14.141.626-2.031-11.124-10.886-3.953-1.224z" fill="#5C00C7"/><path d="M248.705 82.126l14.451 14.141.626-2.031-11.124-10.886-3.953-1.224z" fill="url(#paint46_linear)" fill-opacity=".25"/><path d="M248.705 82.126l14.451 14.141.626-2.031-11.124-10.886-3.953-1.224z" fill="url(#paint47_linear)" fill-opacity=".15"/></g><g opacity=".2"><path d="M246.879 85.362l15.088 14.766.626-2.032-15.089-14.766-.625 2.032z" fill="#5C00C7"/><path d="M246.879 85.362l15.088 14.766.626-2.032-15.089-14.766-.625 2.032z" fill="url(#paint48_linear)" fill-opacity=".25"/><path d="M246.879 85.362l15.088 14.766.626-2.032-15.089-14.766-.625 2.032z" fill="url(#paint49_linear)" fill-opacity=".15"/></g><g opacity=".2"><path d="M245.69 89.222l15.088 14.766.626-2.032-15.088-14.766-.626 2.032z" fill="#5C00C7"/><path d="M245.69 89.222l15.088 14.766.626-2.032-15.088-14.766-.626 2.032z" fill="url(#paint50_linear)" fill-opacity=".25"/><path d="M245.69 89.222l15.088 14.766.626-2.032-15.088-14.766-.626 2.032z" fill="url(#paint51_linear)" fill-opacity=".15"/></g><path d="M244.501 93.082l10.851 10.619 3.953 1.224-14.178-13.874-.626 2.031zm-1.189 3.86l4.529 4.433 3.953 1.224-7.856-7.688-.626 2.032zm-.851 2.766l1.823.564-1.534-1.501-.289.937z" fill="#A1C3FC"/><path d="M253.731 116.21c-.039-.401 6.081 3.742 6.91-4.157 1.107-10.552-5.741-17.902-9.261-27.907-1.018-2.891-2.244-6.487-5.271-6.918-2.306-.328-5.583 1.531-7.374 3.024-1.791 1.492-2.601 2.49-4.849 1.65-.73-.273-.793-1.15-.793-1.15s-5.816.499-7.429 2.19c-1.614 1.693-2.424 2.568-3.095 4.81l-7.655 25.623h38.817v2.835z" fill="#5C00C7"/><path d="M253.731 116.21c-.039-.401 6.081 3.742 6.91-4.157 1.107-10.552-5.741-17.902-9.261-27.907-1.018-2.891-2.244-6.487-5.271-6.918-2.306-.328-5.583 1.531-7.374 3.024-1.791 1.492-2.601 2.49-4.849 1.65-.73-.273-.793-1.15-.793-1.15s-5.816.499-7.429 2.19c-1.614 1.693-2.424 2.568-3.095 4.81l-7.655 25.623h38.817v2.835z" fill="url(#paint52_linear)" fill-opacity=".25"/><path d="M253.731 116.21c-.039-.401 6.081 3.742 6.91-4.157 1.107-10.552-5.741-17.902-9.261-27.907-1.018-2.891-2.244-6.487-5.271-6.918-2.306-.328-5.583 1.531-7.374 3.024-1.791 1.492-2.601 2.49-4.849 1.65-.73-.273-.793-1.15-.793-1.15s-5.816.499-7.429 2.19c-1.614 1.693-2.424 2.568-3.095 4.81l-7.655 25.623h38.817v2.835z" fill="url(#paint53_linear)" fill-opacity=".15"/><path d="M253.731 116.21c-.039-.401 6.081 3.742 6.91-4.157 1.107-10.552-5.741-17.902-9.261-27.907-1.018-2.891-2.244-6.487-5.271-6.918-2.306-.328-5.583 1.531-7.374 3.024-1.791 1.492-2.601 2.49-4.849 1.65-.73-.273-.793-1.15-.793-1.15s-5.816.499-7.429 2.19c-1.614 1.693-2.424 2.568-3.095 4.81l-7.655 25.623h38.817v2.835z" fill="#FBB03B"/><path d="M227.342 82.711c.76.75 1.747 1.561 2.767 1.254.198-.168-.527-1.586-1.151-2.09-.243-.196-.548-.294-.834-.417-.532-.23-1.176-1.253-1.431-.97-.56.825-1.335 1.427-2.211 1.894.05-.755.489-1.71.922-2.245.686-.848.746-1.262 1.433-2.11.474-.587 1.447-1.787 1.062-2.437-.347-.586-2.709 2.034-3.727 4.053-.333.662-.649 1.617-1.484 2.725.342-.996.369-1.524.611-2.096.381-.9.313-1.368.694-2.268.298-.704.698-1.908.066-2.335-.326-.22-.6.465-.729.837-.809 2.344-1.147 4.026-1.957 6.37-.273-1.73-.666-1.593-.94-3.323-.041-.257-.442-1.74-.626-1.924-.186-.183-.554-.195-.667.04-.063.135-.095.514.017.94.463 1.767 1.152 3.643 1.406 5.274-.15.161-.207.388-.267.602-.338 1.196-1.054 2.219-1.772 3.245-.316.25-.617.52-.846.85-.376.536-.539 1.189-.702 1.823a95.097 95.097 0 0 1-6.79 18.343l7.549.551c.251.018.532.027.721-.141.182-.162.212-.432.23-.676.328-4.488.657-8.988.444-13.483-.043-.915-.105-1.859.2-2.722.017-.049.039-.094.059-.14l.018.006 4.525-3.062c.155-.106.312-.212.489-.273a1.96 1.96 0 0 1 .554-.084c1.719-.08 5.028 1.344 4.996.846-.124-.841-.757-1.357-1.51-1.746-.753-.39-1.609-.522-2.45-.628-.178-.023-.369-.05-.505-.169-.141-.125-.188-.322-.229-.506l-.302-1.374c-.059-.271-.119-.554-.053-.824.24-.975 1.697-.915 2.42-1.61z" fill="#FFBEB6"/><path d="M227.342 82.711c.76.75 1.747 1.561 2.767 1.254.198-.168-.527-1.586-1.151-2.09-.243-.196-.548-.294-.834-.417-.532-.23-1.176-1.253-1.431-.97-.56.825-1.335 1.427-2.211 1.894.05-.755.489-1.71.922-2.245.686-.848.746-1.262 1.433-2.11.474-.587 1.447-1.787 1.062-2.437-.347-.586-2.709 2.034-3.727 4.053-.333.662-.649 1.617-1.484 2.725.342-.996.369-1.524.611-2.096.381-.9.313-1.368.694-2.268.298-.704.698-1.908.066-2.335-.326-.22-.6.465-.729.837-.809 2.344-1.147 4.026-1.957 6.37-.273-1.73-.666-1.593-.94-3.323-.041-.257-.442-1.74-.626-1.924-.186-.183-.554-.195-.667.04-.063.135-.095.514.017.94.463 1.767 1.152 3.643 1.406 5.274-.15.161-.207.388-.267.602-.338 1.196-1.054 2.219-1.772 3.245-.316.25-.617.52-.846.85-.376.536-.539 1.189-.702 1.823a95.097 95.097 0 0 1-6.79 18.343l7.549.551c.251.018.532.027.721-.141.182-.162.212-.432.23-.676.328-4.488.657-8.988.444-13.483-.043-.915-.105-1.859.2-2.722.017-.049.039-.094.059-.14l.018.006 4.525-3.062c.155-.106.312-.212.489-.273a1.96 1.96 0 0 1 .554-.084c1.719-.08 5.028 1.344 4.996.846-.124-.841-.757-1.357-1.51-1.746-.753-.39-1.609-.522-2.45-.628-.178-.023-.369-.05-.505-.169-.141-.125-.188-.322-.229-.506l-.302-1.374c-.059-.271-.119-.554-.053-.824.24-.975 1.697-.915 2.42-1.61z" fill="#F4D5A0"/><path d="M216.527 118.44c-3.266.423-5.194-2.24-6.74-5.126-.384-.717-.041-4.86.563-6.987 1.384-4.872 3.22-8.625 5.104-13.339 1.239.112 3.255.232 4.495.344.498 2.93.219 5.85.717 8.78.284 1.674.042 7.105-.57 9.726-.571 2.446-1.22 6.298-3.569 6.602z" fill="#5C00C7"/><path d="M216.527 118.44c-3.266.423-5.194-2.24-6.74-5.126-.384-.717-.041-4.86.563-6.987 1.384-4.872 3.22-8.625 5.104-13.339 1.239.112 3.255.232 4.495.344.498 2.93.219 5.85.717 8.78.284 1.674.042 7.105-.57 9.726-.571 2.446-1.22 6.298-3.569 6.602z" fill="url(#paint54_linear)" fill-opacity=".25"/><path d="M216.527 118.44c-3.266.423-5.194-2.24-6.74-5.126-.384-.717-.041-4.86.563-6.987 1.384-4.872 3.22-8.625 5.104-13.339 1.239.112 3.255.232 4.495.344.498 2.93.219 5.85.717 8.78.284 1.674.042 7.105-.57 9.726-.571 2.446-1.22 6.298-3.569 6.602z" fill="url(#paint55_linear)" fill-opacity=".15"/><path d="M216.527 118.44c-3.266.423-5.194-2.24-6.74-5.126-.384-.717-.041-4.86.563-6.987 1.384-4.872 3.22-8.625 5.104-13.339 1.239.112 3.255.232 4.495.344.498 2.93.219 5.85.717 8.78.284 1.674.042 7.105-.57 9.726-.571 2.446-1.22 6.298-3.569 6.602z" fill="url(#paint56_linear)"/><path d="M256.711 102.44c-.215-.817-1.03-1.297-1.748-1.739-3.899-2.402-6.79-6.11-9.57-9.755-.645-.845-1.302-1.7-2.132-2.358-.882-1.332-1.928-2.575-2.36-4.103-.061-.214-.117-.44-.267-.602.254-1.63.942-3.507 1.406-5.273.112-.427.08-.806.016-.94-.112-.236-.481-.224-.666-.04-.185.182-.586 1.665-.627 1.923-.273 1.73-.666 1.593-.94 3.323-.809-2.344-1.147-4.026-1.957-6.37-.128-.372-.403-1.057-.728-.837-.632.427-.232 1.631.066 2.334.381.9.312 1.368.694 2.268.242.573.268 1.1.611 2.097-.835-1.109-1.151-2.064-1.484-2.725-1.019-2.02-3.38-4.639-3.727-4.053-.385.65.587 1.85 1.062 2.436.687.849.747 1.263 1.433 2.111.432.535.872 1.49.921 2.245-.876-.467-1.65-1.07-2.21-1.894-.256-.284-.9.74-1.431.97-.287.123-.591.221-.834.417-.625.504-1.349 1.922-1.151 2.09 1.02.307 2.007-.505 2.766-1.254.724.695 2.181.634 2.42 1.61.066.27.007.552-.053.823l-.302 1.374c-.04.185-.088.382-.229.507-.135.12-.326.146-.506.168-.84.106-1.696.24-2.449.629-.753.389-1.386.905-1.51 1.745-.032.499 3.277-.925 4.996-.845.187.008.377.023.554.084.177.062.334.168.489.273 1.313.888.846.644 1.697 1.238.172.146.359.276.561.38.756.391 1.639.48 2.396.869 1.335.684 2.046 2.15 2.667 3.518l5.464 12.033 4.035-1.638c1.362-.552 3.001-1.616 2.627-3.039z" fill="#FFBEB6"/><path d="M256.711 102.44c-.215-.817-1.03-1.297-1.748-1.739-3.899-2.402-6.79-6.11-9.57-9.755-.645-.845-1.302-1.7-2.132-2.358-.882-1.332-1.928-2.575-2.36-4.103-.061-.214-.117-.44-.267-.602.254-1.63.942-3.507 1.406-5.273.112-.427.08-.806.016-.94-.112-.236-.481-.224-.666-.04-.185.182-.586 1.665-.627 1.923-.273 1.73-.666 1.593-.94 3.323-.809-2.344-1.147-4.026-1.957-6.37-.128-.372-.403-1.057-.728-.837-.632.427-.232 1.631.066 2.334.381.9.312 1.368.694 2.268.242.573.268 1.1.611 2.097-.835-1.109-1.151-2.064-1.484-2.725-1.019-2.02-3.38-4.639-3.727-4.053-.385.65.587 1.85 1.062 2.436.687.849.747 1.263 1.433 2.111.432.535.872 1.49.921 2.245-.876-.467-1.65-1.07-2.21-1.894-.256-.284-.9.74-1.431.97-.287.123-.591.221-.834.417-.625.504-1.349 1.922-1.151 2.09 1.02.307 2.007-.505 2.766-1.254.724.695 2.181.634 2.42 1.61.066.27.007.552-.053.823l-.302 1.374c-.04.185-.088.382-.229.507-.135.12-.326.146-.506.168-.84.106-1.696.24-2.449.629-.753.389-1.386.905-1.51 1.745-.032.499 3.277-.925 4.996-.845.187.008.377.023.554.084.177.062.334.168.489.273 1.313.888.846.644 1.697 1.238.172.146.359.276.561.38.756.391 1.639.48 2.396.869 1.335.684 2.046 2.15 2.667 3.518l5.464 12.033 4.035-1.638c1.362-.552 3.001-1.616 2.627-3.039z" fill="#F3D59D"/><path d="M259.425 116.024c.846-.892 1.127-2.497 1.035-4.147-.092-1.651-.518-3.369-.944-5.062-.614-2.447-4.437-6.892-7.05-8.837-.532-.396-5.804-5.544-5.804-5.544s-1.931 3.608-3.023 4.454c1.226 5.468 3.347 10.933 6.16 15.874.461.808.953 1.621 1.571 2.219.936.907 2.021 1.196 3.046 1.451 1.815.45 3.809.857 5.009-.408z" fill="#5C00C7"/><path d="M259.425 116.024c.846-.892 1.127-2.497 1.035-4.147-.092-1.651-.518-3.369-.944-5.062-.614-2.447-4.437-6.892-7.05-8.837-.532-.396-5.804-5.544-5.804-5.544s-1.931 3.608-3.023 4.454c1.226 5.468 3.347 10.933 6.16 15.874.461.808.953 1.621 1.571 2.219.936.907 2.021 1.196 3.046 1.451 1.815.45 3.809.857 5.009-.408z" fill="url(#paint57_linear)" fill-opacity=".25"/><path d="M259.425 116.024c.846-.892 1.127-2.497 1.035-4.147-.092-1.651-.518-3.369-.944-5.062-.614-2.447-4.437-6.892-7.05-8.837-.532-.396-5.804-5.544-5.804-5.544s-1.931 3.608-3.023 4.454c1.226 5.468 3.347 10.933 6.16 15.874.461.808.953 1.621 1.571 2.219.936.907 2.021 1.196 3.046 1.451 1.815.45 3.809.857 5.009-.408z" fill="url(#paint58_linear)" fill-opacity=".15"/><path d="M259.425 116.024c.846-.892 1.127-2.497 1.035-4.147-.092-1.651-.518-3.369-.944-5.062-.614-2.447-4.437-6.892-7.05-8.837-.532-.396-5.804-5.544-5.804-5.544s-1.931 3.608-3.023 4.454c1.226 5.468 3.347 10.933 6.16 15.874.461.808.953 1.621 1.571 2.219.936.907 2.021 1.196 3.046 1.451 1.815.45 3.809.857 5.009-.408z" fill="url(#paint59_linear)"/><path d="M251.924 105.254c-.003.048.022.087.069.09.047.004.087-.022.09-.069.003-.047-.022-.087-.069-.09-.047-.003-.086.022-.09.069zm.483 7.892c-.039.025-.043.073-.017.112.025.04.072.044.112.018.039-.026.043-.073.017-.113-.014-.058-.072-.042-.112-.017zm1.545-1.292c-.04.026-.043.073-.017.113.025.039.072.043.112.017.039-.025.043-.073.017-.112-.008-.029-.073-.043-.112-.018zM251.208 109c.025.04.061.061.108.065a.134.134 0 0 0 .065-.109c-.025-.04-.062-.061-.091-.054-.076.004-.097.04-.082.098zm1.939-.592c.025.04.061.061.108.065a.135.135 0 0 0 .065-.109c-.026-.04-.062-.061-.091-.054-.076.004-.108.059-.082.098zm2.901 6.529c-.022.037-.007.095.029.116a.09.09 0 0 0 .116-.03c.021-.036.006-.094-.03-.115-.036-.022-.094-.007-.115.029zm.956-1.787c-.022.036-.007.094.03.115.036.022.094.007.115-.03.022-.036.007-.094-.03-.115-.036-.022-.093-.007-.115.03zm-6.314-6.052c.007.029.051.08.091.054.028-.007.079-.051.053-.091-.007-.029-.051-.079-.091-.054-.046-.003-.068.033-.053.091zm1.764-.377c.007.029.051.08.09.054.029-.007.068-.033.054-.091-.008-.029-.033-.068-.091-.054-.039.026-.061.062-.053.091zm2.471 6.594c-.021.036-.025.083.012.105.036.021.064.014.104-.012.022-.036.025-.083-.011-.105-.036-.021-.083-.024-.105.012zm.984-1.502c-.022.036-.025.083.011.105.037.022.065.014.105-.012.021-.036.025-.083-.012-.105-.036-.021-.083-.024-.104.012zm-3.041-1.853c-.04.025-.044.072-.018.112.025.04.073.043.112.018.04-.026.043-.073.017-.113-.025-.04-.072-.043-.111-.017zm-3.589-1.589c-.04.025-.043.073-.017.112.025.04.072.044.112.018.039-.026.043-.073.017-.113-.025-.039-.072-.043-.112-.017zm1.715-1.166c-.04.025-.043.073-.017.112.025.04.072.043.112.018.039-.026.043-.073.017-.113-.025-.039-.072-.042-.112-.017zm1.708-1.195c-.04.025-.043.073-.018.113.026.039.073.043.112.017.04-.026.043-.073.018-.112a.16.16 0 0 0-.112-.018zm3.855 7.193c-.003.047.022.087.069.09.047.003.086-.022.089-.069.004-.047-.022-.087-.069-.09-.036-.022-.086.022-.089.069zm-4.028-10.093c-.058.015-.079.051-.065.109l.065-.109zm.321 7.502c-.021.036-.006.094.03.115.036.022.094.007.115-.029.022-.037.007-.095-.029-.116-.037-.021-.095-.007-.116.03zm-1.346-.455c-.022.036-.007.094.03.116.036.021.093.006.115-.03.022-.037.025-.084-.03-.116-.036-.021-.094-.006-.115.03zm1.195-1.695c-.021.036-.007.094.03.115.036.022.083.025.115-.03.022-.036.007-.094-.018-.134-.048-.003-.105.013-.127.049zm-1.559-3.33c-.04.026-.043.073-.017.113.025.039.072.043.13.028.039-.025.043-.073.028-.13-.055-.033-.102-.036-.141-.011zm.835.079c-.022.036-.014.065-.007.094.036.021.065.014.094.006.021-.036.014-.065.006-.094-.036-.021-.083-.025-.093-.006z" fill="#fff"/><path d="M167.761 152.17c-.269-.811-.763-1.595-1.43-2.27-1.879-1.899-4.617-2.378-6.105-1.067-.918.809-1.187 2.137-.718 3.551.268.811.762 1.596 1.429 2.27.893.902 2.004 1.517 3.126 1.732 1.178.225 2.236-.01 2.978-.665.918-.809 1.188-2.136.72-3.551zm-7.503-.033c-.376-1.136-.193-2.173.49-2.776 1.165-1.026 3.406-.552 4.997 1.056.592.598 1.03 1.291 1.266 2.003.376 1.135.192 2.172-.49 2.775-.543.478-1.348.645-2.267.469-.973-.186-1.943-.727-2.732-1.524-.592-.6-1.029-1.292-1.264-2.003z" fill="#23286B"/><path d="M34.672 80a10.37 10.37 0 0 0-7.578 3.28A10.369 10.369 0 0 0 19.516 80c-5.744 0-10.401 4.657-10.401 10.401 0 8.933 12.448 18.62 17.979 20.494 5.983-2.148 17.98-12.018 17.98-20.494C45.073 84.657 40.416 80 34.671 80z" fill="#E94A47"/><path d="M27.083 109.856c8.018-3.936 13.344-8.352 16.058-12.887 2.297-3.84 2.584-7.585 1.14-10.665-1.31-2.797-3.97-4.795-7.036-5.31-3.272-.549-6.602.625-9.242 3.532l-.92 1.014-.92-1.014c-2.64-2.907-5.97-4.08-9.243-3.531-3.065.514-5.727 2.512-7.037 5.309-1.442 3.08-1.156 6.825 1.142 10.665 2.713 4.535 8.04 8.951 16.058 12.887z" fill="#fff" stroke="#BF0020" stroke-width="2.749" stroke-linecap="round" stroke-linejoin="round"/><path d="M26.267 98.793l-2.181 1.138a.458.458 0 0 1-.616-.19.45.45 0 0 1-.046-.287l.416-2.41a1.73 1.73 0 0 0-.504-1.54l-1.766-1.708a.45.45 0 0 1 .253-.77l2.44-.352a1.753 1.753 0 0 0 1.32-.952l1.091-2.193a.458.458 0 0 1 .819 0l1.09 2.193c.256.513.75.87 1.321.952l2.44.351a.453.453 0 0 1 .253.771l-1.766 1.708a1.73 1.73 0 0 0-.504 1.54l.416 2.41a.453.453 0 0 1-.372.522c-.099.017-.2.001-.29-.045l-2.18-1.138a1.767 1.767 0 0 0-1.634 0z" fill="#0027DC"/></g><defs><linearGradient id="paint0_linear" x1="154.422" y1="204.102" x2="194.264" y2="208.972" gradientUnits="userSpaceOnUse"><stop stop-color="#FFBEB6"/><stop offset="1" stop-color="#F2A19C"/></linearGradient><linearGradient id="paint1_linear" x1="157.081" y1="145.411" x2="183.1" y2="148.592" gradientUnits="userSpaceOnUse"><stop stop-color="#FFBEB6"/><stop offset="1" stop-color="#F2A19C"/></linearGradient><linearGradient id="paint2_linear" x1="110.358" y1="198.928" x2="155.319" y2="206.306" gradientUnits="userSpaceOnUse"><stop stop-color="#EEE"/><stop offset=".554" stop-color="#D6D7D8"/></linearGradient><linearGradient id="paint3_linear" x1="129.37" y1="185.696" x2="146.305" y2="187.766" gradientUnits="userSpaceOnUse"><stop stop-color="#FFBEB6"/><stop offset="1" stop-color="#F2A19C"/></linearGradient><linearGradient id="paint4_linear" x1="158.69" y1="185.691" x2="141.568" y2="182.909" gradientUnits="userSpaceOnUse"><stop stop-color="#FFBEB6"/><stop offset="1" stop-color="#F2A19C"/></linearGradient><linearGradient id="paint5_linear" x1="87.463" y1="112.02" x2="83.848" y2="113.946" gradientUnits="userSpaceOnUse"><stop stop-color="#4300D3"/><stop offset="1" stop-color="#4300D3" stop-opacity="0"/></linearGradient><linearGradient id="paint6_linear" x1="83.448" y1="112.344" x2="86.638" y2="114.253" gradientUnits="userSpaceOnUse"><stop stop-color="#FF0F13"/><stop offset="1" stop-color="#BF0020" stop-opacity="0"/></linearGradient><linearGradient id="paint7_linear" x1="91.129" y1="115.568" x2="83.385" y2="125.651" gradientUnits="userSpaceOnUse"><stop stop-color="#4300D3"/><stop offset="1" stop-color="#4300D3" stop-opacity="0"/></linearGradient><linearGradient id="paint8_linear" x1="73.072" y1="116.164" x2="79.279" y2="125.243" gradientUnits="userSpaceOnUse"><stop stop-color="#FF0F13"/><stop offset="1" stop-color="#BF0020" stop-opacity="0"/></linearGradient><linearGradient id="paint9_linear" x1="94.795" y1="120.596" x2="88.958" y2="134.105" gradientUnits="userSpaceOnUse"><stop stop-color="#4300D3"/><stop offset="1" stop-color="#4300D3" stop-opacity="0"/></linearGradient><linearGradient id="paint10_linear" x1="62.696" y1="121.192" x2="67.159" y2="132.798" gradientUnits="userSpaceOnUse"><stop stop-color="#FF0F13"/><stop offset="1" stop-color="#BF0020" stop-opacity="0"/></linearGradient><linearGradient id="paint11_linear" x1="97.607" y1="125.624" x2="92.122" y2="139.485" gradientUnits="userSpaceOnUse"><stop stop-color="#4300D3"/><stop offset="1" stop-color="#4300D3" stop-opacity="0"/></linearGradient><linearGradient id="paint12_linear" x1="62.553" y1="126.22" x2="66.727" y2="138.072" gradientUnits="userSpaceOnUse"><stop stop-color="#FF0F13"/><stop offset="1" stop-color="#BF0020" stop-opacity="0"/></linearGradient><linearGradient id="paint13_linear" x1="100.189" y1="130.652" x2="94.705" y2="144.513" gradientUnits="userSpaceOnUse"><stop stop-color="#4300D3"/><stop offset="1" stop-color="#4300D3" stop-opacity="0"/></linearGradient><linearGradient id="paint14_linear" x1="65.136" y1="131.248" x2="69.311" y2="143.1" gradientUnits="userSpaceOnUse"><stop stop-color="#FF0F13"/><stop offset="1" stop-color="#BF0020" stop-opacity="0"/></linearGradient><linearGradient id="paint15_linear" x1="99.349" y1="135.681" x2="93.436" y2="149.108" gradientUnits="userSpaceOnUse"><stop stop-color="#4300D3"/><stop offset="1" stop-color="#4300D3" stop-opacity="0"/></linearGradient><linearGradient id="paint16_linear" x1="67.857" y1="136.276" x2="72.384" y2="147.824" gradientUnits="userSpaceOnUse"><stop stop-color="#FF0F13"/><stop offset="1" stop-color="#BF0020" stop-opacity="0"/></linearGradient><linearGradient id="paint17_linear" x1="92.609" y1="113.021" x2="39.849" y2="125.553" gradientUnits="userSpaceOnUse"><stop stop-color="#4300D3"/><stop offset="1" stop-color="#4300D3" stop-opacity="0"/></linearGradient><linearGradient id="paint18_linear" x1="54.878" y1="117.541" x2="28.517" y2="120.826" gradientUnits="userSpaceOnUse"><stop stop-color="#4300D3"/><stop offset="1" stop-color="#4300D3" stop-opacity="0"/></linearGradient><linearGradient id="paint19_linear" x1="51.613" y1="146.778" x2="91.289" y2="146.778" gradientUnits="userSpaceOnUse"><stop stop-color="#D6D7D8"/><stop offset="1" stop-color="#EEE"/></linearGradient><linearGradient id="paint20_linear" x1="173.499" y1="56.736" x2="140.248" y2="77.422" gradientUnits="userSpaceOnUse"><stop stop-color="#4300D3"/><stop offset="1" stop-color="#4300D3" stop-opacity="0"/></linearGradient><linearGradient id="paint21_linear" x1="133.598" y1="59.489" x2="162.526" y2="79.708" gradientUnits="userSpaceOnUse"><stop stop-color="#FF0F13"/><stop offset="1" stop-color="#BF0020" stop-opacity="0"/></linearGradient><linearGradient id="paint22_linear" x1="166.681" y1="49.041" x2="141.708" y2="65.005" gradientUnits="userSpaceOnUse"><stop stop-color="#4300D3"/><stop offset="1" stop-color="#4300D3" stop-opacity="0"/></linearGradient><linearGradient id="paint23_linear" x1="136.246" y1="51.084" x2="157.913" y2="66.646" gradientUnits="userSpaceOnUse"><stop stop-color="#FF0F13"/><stop offset="1" stop-color="#BF0020" stop-opacity="0"/></linearGradient><linearGradient id="paint24_linear" x1="165.942" y1="81.587" x2="153.381" y2="92.794" gradientUnits="userSpaceOnUse"><stop stop-color="#4300D3"/><stop offset="1" stop-color="#4300D3" stop-opacity="0"/></linearGradient><linearGradient id="paint25_linear" x1="146.424" y1="82.526" x2="156.931" y2="93.058" gradientUnits="userSpaceOnUse"><stop stop-color="#FF0F13"/><stop offset="1" stop-color="#BF0020" stop-opacity="0"/></linearGradient><linearGradient id="paint26_linear" x1="173.711" y1="67.54" x2="141.813" y2="87.456" gradientUnits="userSpaceOnUse"><stop stop-color="#4300D3"/><stop offset="1" stop-color="#4300D3" stop-opacity="0"/></linearGradient><linearGradient id="paint27_linear" x1="135.356" y1="70.177" x2="163.097" y2="89.636" gradientUnits="userSpaceOnUse"><stop stop-color="#FF0F13"/><stop offset="1" stop-color="#BF0020" stop-opacity="0"/></linearGradient><linearGradient id="paint28_linear" x1="147.674" y1="30.997" x2="132.087" y2="30.997" gradientUnits="userSpaceOnUse"><stop stop-color="#FFBFB7"/><stop offset="1" stop-color="#FFA29D"/></linearGradient><linearGradient id="paint29_linear" x1="144.594" y1="31.2" x2="132.15" y2="31.2" gradientUnits="userSpaceOnUse"><stop stop-color="#FFBFB7"/><stop offset="1" stop-color="#FFA29D"/></linearGradient><linearGradient id="paint30_linear" x1="139.632" y1="36.481" x2="132.182" y2="36.481" gradientUnits="userSpaceOnUse"><stop stop-color="#1B236D"/><stop offset="1" stop-color="#0A134F"/></linearGradient><linearGradient id="paint31_linear" x1="149.11" y1="28.711" x2="134.436" y2="28.711" gradientUnits="userSpaceOnUse"><stop stop-color="#1B236D"/><stop offset="1" stop-color="#0A134F"/></linearGradient><linearGradient id="paint32_linear" x1="121.875" y1="34.823" x2="159.021" y2="39.903" gradientUnits="userSpaceOnUse"><stop stop-color="#4300D3"/><stop offset="1" stop-color="#4300D3" stop-opacity="0"/></linearGradient><linearGradient id="paint33_linear" x1="154.613" y1="45.101" x2="120.098" y2="50.403" gradientUnits="userSpaceOnUse"><stop stop-color="#FF0F13"/><stop offset="1" stop-color="#BF0020" stop-opacity="0"/></linearGradient><linearGradient id="paint34_linear" x1="153.351" y1="67.94" x2="124.401" y2="67.94" gradientUnits="userSpaceOnUse"><stop stop-color="#428DFC"/><stop offset="1" stop-color="#1D72D8"/></linearGradient><linearGradient id="paint35_linear" x1="189.664" y1="70.386" x2="160.051" y2="70.386" gradientUnits="userSpaceOnUse"><stop stop-color="#FFBEB6"/><stop offset="1" stop-color="#F2A19C"/></linearGradient><linearGradient id="paint36_linear" x1="104.648" y1="37.65" x2="132.174" y2="40.246" gradientUnits="userSpaceOnUse"><stop stop-color="#4300D3"/><stop offset="1" stop-color="#4300D3" stop-opacity="0"/></linearGradient><linearGradient id="paint37_linear" x1="118.501" y1="98" x2="140.157" y2="84.664" gradientUnits="userSpaceOnUse"><stop stop-color="#FF0F13"/><stop offset="1" stop-color="#BF0020" stop-opacity="0"/></linearGradient><linearGradient id="paint38_linear" x1="112.474" y1="74.164" x2="133.162" y2="65.415" gradientUnits="userSpaceOnUse"><stop stop-color="#428DFC"/><stop offset="1" stop-color="#1D72D8"/></linearGradient><linearGradient id="paint39_linear" x1="146.492" y1="37.838" x2="179.893" y2="42.266" gradientUnits="userSpaceOnUse"><stop stop-color="#4300D3"/><stop offset="1" stop-color="#4300D3" stop-opacity="0"/></linearGradient><linearGradient id="paint40_linear" x1="150.001" y1="53" x2="144.082" y2="83.518" gradientUnits="userSpaceOnUse"><stop stop-color="#FF0F13"/><stop offset="1" stop-color="#BF0020" stop-opacity="0"/></linearGradient><linearGradient id="paint41_linear" x1="244.358" y1="58.957" x2="237.807" y2="72.407" gradientUnits="userSpaceOnUse"><stop stop-color="#FFD5B6"/><stop offset="1" stop-color="#F2D59C"/></linearGradient><linearGradient id="paint42_linear" x1="266.06" y1="86.38" x2="263.434" y2="87.068" gradientUnits="userSpaceOnUse"><stop stop-color="#4300D3"/><stop offset="1" stop-color="#4300D3" stop-opacity="0"/></linearGradient><linearGradient id="paint43_linear" x1="263.632" y1="86.778" x2="266.044" y2="87.488" gradientUnits="userSpaceOnUse"><stop stop-color="#FF0F13"/><stop offset="1" stop-color="#BF0020" stop-opacity="0"/></linearGradient><linearGradient id="paint44_linear" x1="265.734" y1="82.662" x2="254.901" y2="85.234" gradientUnits="userSpaceOnUse"><stop stop-color="#4300D3"/><stop offset="1" stop-color="#4300D3" stop-opacity="0"/></linearGradient><linearGradient id="paint45_linear" x1="255.834" y1="84.452" x2="265.808" y2="87.112" gradientUnits="userSpaceOnUse"><stop stop-color="#FF0F13"/><stop offset="1" stop-color="#BF0020" stop-opacity="0"/></linearGradient><linearGradient id="paint46_linear" x1="265.097" y1="78.944" x2="246.381" y2="83.249" gradientUnits="userSpaceOnUse"><stop stop-color="#4300D3"/><stop offset="1" stop-color="#4300D3" stop-opacity="0"/></linearGradient><linearGradient id="paint47_linear" x1="248.048" y1="82.126" x2="265.295" y2="86.583" gradientUnits="userSpaceOnUse"><stop stop-color="#FF0F13"/><stop offset="1" stop-color="#BF0020" stop-opacity="0"/></linearGradient><linearGradient id="paint48_linear" x1="263.964" y1="79.551" x2="244.228" y2="83.535" gradientUnits="userSpaceOnUse"><stop stop-color="#4300D3"/><stop offset="1" stop-color="#4300D3" stop-opacity="0"/></linearGradient><linearGradient id="paint49_linear" x1="246.193" y1="83.33" x2="264.433" y2="87.466" gradientUnits="userSpaceOnUse"><stop stop-color="#FF0F13"/><stop offset="1" stop-color="#BF0020" stop-opacity="0"/></linearGradient><linearGradient id="paint50_linear" x1="262.775" y1="83.411" x2="243.039" y2="87.395" gradientUnits="userSpaceOnUse"><stop stop-color="#4300D3"/><stop offset="1" stop-color="#4300D3" stop-opacity="0"/></linearGradient><linearGradient id="paint51_linear" x1="245.004" y1="87.19" x2="263.244" y2="91.327" gradientUnits="userSpaceOnUse"><stop stop-color="#FF0F13"/><stop offset="1" stop-color="#BF0020" stop-opacity="0"/></linearGradient><linearGradient id="paint52_linear" x1="264.76" y1="68.246" x2="208.328" y2="82.289" gradientUnits="userSpaceOnUse"><stop stop-color="#4300D3"/><stop offset="1" stop-color="#4300D3" stop-opacity="0"/></linearGradient><linearGradient id="paint53_linear" x1="212.915" y1="77.19" x2="264.808" y2="91.698" gradientUnits="userSpaceOnUse"><stop stop-color="#FF0F13"/><stop offset="1" stop-color="#BF0020" stop-opacity="0"/></linearGradient><linearGradient id="paint54_linear" x1="221.758" y1="87.252" x2="207.3" y2="88.617" gradientUnits="userSpaceOnUse"><stop stop-color="#4300D3"/><stop offset="1" stop-color="#4300D3" stop-opacity="0"/></linearGradient><linearGradient id="paint55_linear" x1="209.138" y1="92.988" x2="222.605" y2="94.417" gradientUnits="userSpaceOnUse"><stop stop-color="#FF0F13"/><stop offset="1" stop-color="#BF0020" stop-opacity="0"/></linearGradient><linearGradient id="paint56_linear" x1="218.5" y1="95" x2="216" y2="118" gradientUnits="userSpaceOnUse"><stop stop-color="#FBB03B"/><stop offset="1" stop-color="#F7931E"/></linearGradient><linearGradient id="paint57_linear" x1="261.946" y1="86.936" x2="240.413" y2="90.138" gradientUnits="userSpaceOnUse"><stop stop-color="#4300D3"/><stop offset="1" stop-color="#4300D3" stop-opacity="0"/></linearGradient><linearGradient id="paint58_linear" x1="242.905" y1="92.434" x2="262.896" y2="95.773" gradientUnits="userSpaceOnUse"><stop stop-color="#FF0F13"/><stop offset="1" stop-color="#BF0020" stop-opacity="0"/></linearGradient><linearGradient id="paint59_linear" x1="243.639" y1="104.652" x2="260.477" y2="104.652" gradientUnits="userSpaceOnUse"><stop stop-color="#FBB03B"/><stop offset="1" stop-color="#F7931E"/></linearGradient><clipPath id="clip0"><path fill="#fff" d="M0 0H305.279V305.279H0z"/></clipPath></defs></svg>