<svg fill="none" height="55" viewBox="0 0 1010 55" width="1010" xmlns="http://www.w3.org/2000/svg"><g fill="#000"><path d="m26.1789 0c3.984 0 7.584.721784 10.8 2.16535 3.216 1.39545 5.856 3.34427 7.92 5.84646s3.408 5.36529 4.032 8.58919c.144.5775.216 1.0346.216 1.3714 0 .4331-.096.7218-.288.8662-.144.1443-.432.2406-.864.2887l-12.6.794c-.48 0-.792-.0722-.936-.2166-.144-.1925-.288-.5774-.432-1.1548-.432-2.3097-1.224-4.1142-2.376-5.4134-1.152-1.3474-2.832-2.021-5.04-2.021-2.832 0-5.016 1.2511-6.552 3.7533s-2.304 6.5682-2.304 12.1981c0 5.8224.696 9.9607 2.088 12.4147 1.44 2.4541 3.672 3.6811 6.696 3.6811 2.544 0 4.704-.6496 6.48-1.9488 1.824-1.2992 3.336-3.4646 4.536-6.4961.144-.433.552-.6496 1.224-.6496.336 0 .6.0241.792.0722l9 1.8045c.72.2406 1.08.7939 1.08 1.6601 0 1.3473-.84 3.4405-2.52 6.2795-1.632 2.7909-4.224 5.3412-7.776 7.6509-3.504 2.3097-7.944 3.4646-13.32 3.4646-5.088 0-9.552-1.203-13.392-3.6089-3.84003-2.4541-6.81603-5.7984-8.92803-10.0328-2.064-4.2826-3.096004-9.1426-3.096004-14.5801 0-5.3893 1.032004-10.105 3.096004-14.147 2.112-4.04196 5.088-7.14564 8.92803-9.31099 3.888-2.21347 8.4-3.32021 13.536-3.32021z"/><path d="m102.737 51.9685c.096.1925.144.4571.144.794 0 .433-.144.7939-.432 1.0826-.24.2888-.576.4331-1.008.4331h-13.9682c-1.008 0-1.656-.5052-1.944-1.5157l-6.768-18.6221c-.144-.3849-.384-.6736-.72-.8661s-.84-.2887-1.512-.2887h-3.312c-.288 0-.504.0962-.648.2887s-.216.3609-.216.5052v18.4055c0 .7699-.192 1.3233-.576 1.6601-.384.2888-.984.4331-1.8.4331h-12.096c-.72 0-1.224-.1443-1.512-.4331-.24-.2887-.36-.7458-.36-1.3714v-50.09181c0-1.10674.456-1.660106 1.368-1.660106h24.048c6.96 0 12.36 1.347336 16.2 4.041996 3.8402 2.64654 5.7602 6.39982 5.7602 11.25982 0 3.3202-.888 6.2795-2.664 8.878-1.7282 2.5984-3.9842 4.4269-6.7682 5.4855-.288.1444-.432.385-.432.7218 0 .1444.048.3609.144.6496zm-21.9602-29.7375c1.824 0 3.216-.4572 4.176-1.3714 1.008-.9624 1.512-2.2376 1.512-3.8255 0-1.7804-.6-3.1518-1.8-4.1142-1.152-1.0105-2.592-1.5157-4.32-1.5157h-6.336c-.624 0-1.056.1203-1.296.3609-.24.1925-.36.5534-.36 1.0827v7.8674c0 .5293.072.9143.216 1.1549.192.2406.528.3609 1.008.3609z"/><path d="m109.955 2.38189c0-1.10674.456-1.660106 1.368-1.660106h38.88c.864 0 1.296.505246 1.296 1.515746l-.072 8.37267c0 1.2992-.624 1.9489-1.872 1.9489h-21.6c-1.104 0-1.656.4571-1.656 1.3713v6.1352c0 .4812.12.8662.36 1.1549.24.2406.552.3609.936.3609h12.96c1.008 0 1.512.4812 1.512 1.4435v8.9502c0 .818-.432 1.227-1.296 1.227h-13.32c-.336 0-.624.0962-.864.2887-.192.1925-.288.4331-.288.7218v7.2178c0 .385.048.6497.144.794.144.1444.384.2165.72.2165h23.4c1.056 0 1.584.4572 1.584 1.3714v8.878c0 .4812-.144.8661-.432 1.1548-.288.2888-.72.4331-1.296.4331h-38.52c-.72 0-1.224-.1443-1.512-.4331-.288-.2887-.432-.7458-.432-1.3714z"/><path d="m158.332 54.2782c-.384 0-.696-.1203-.936-.3609-.24-.2887-.36-.6736-.36-1.1548 0-.3369.072-.7218.216-1.1549l17.424-49.22571c.24-.62555.504-1.05862.792-1.29921.288-.240598.744-.360896 1.368-.360896h14.184c.576 0 1.08.192477 1.512.577426.48.33684.84.79396 1.08 1.37139l17.28 49.1535c.096.385.144.6737.144.8662 0 .4331-.096.818-.288 1.1548-.192.2888-.48.4331-.864.4331h-14.112c-.816 0-1.344-.409-1.584-1.227l-2.808-8.3006c-.144-.3368-.288-.5533-.432-.6496-.096-.1443-.312-.2165-.648-.2165h-15.264c-.576 0-.936.2647-1.08.794l-2.952 8.517c-.288.7218-.864 1.0827-1.728 1.0827zm28.368-22.664c.528 0 .792-.2406.792-.7218 0-.0962-.048-.3368-.144-.7218l-4.32-12.3425c-.096-.2406-.24-.3609-.432-.3609s-.336.1203-.432.3609l-4.392 12.2703c-.096.1925-.144.4331-.144.7218 0 .5293.288.794.864.794z"/><path d="m206.839 2.38189c0-.48119.144-.86614.432-1.15486.336-.336829.792-.505246 1.368-.505246h43.056c.576 0 1.008.168417 1.296.505246.336.28872.504.67367.504 1.15486v8.58921c0 .9143-.528 1.3714-1.584 1.3714h-12.744c-.576 0-.864.2406-.864.7218v39.626c0 .5293-.12.9383-.36 1.227-.24.2406-.576.3609-1.008.3609h-13.68c-.864 0-1.296-.4812-1.296-1.4436v-39.4816c0-.6736-.264-1.0105-.792-1.0105h-12.672c-1.104 0-1.656-.4571-1.656-1.3714z"/><path d="m281.508 55c-5.232 0-9.816-1.1067-13.752-3.3202-3.888-2.2616-6.888-5.4375-9-9.5276-2.112-4.1382-3.168-8.9742-3.168-14.5078 0-5.5337 1.056-10.3697 3.168-14.5079 2.16-4.18637 5.184-7.41034 9.072-9.67193 3.936-2.30971 8.496-3.46457 13.68-3.46457 5.136 0 9.648 1.15486 13.536 3.46457 3.888 2.26159 6.888 5.48556 9 9.67193 2.16 4.1382 3.24 8.9742 3.24 14.5079 0 5.4855-1.056 10.2974-3.168 14.4357-2.112 4.1382-5.112 7.3381-9 9.5997-3.888 2.2135-8.424 3.3202-13.608 3.3202zm0-11.2598c2.112 0 3.792-.5053 5.04-1.5158 1.248-1.0586 2.16-2.7428 2.736-5.0525s.864-5.4134.864-9.311c0-5.9668-.672-10.2494-2.016-12.8478s-3.552-3.8976-6.624-3.8976c-3.12 0-5.376 1.2992-6.768 3.8976-1.344 2.5984-2.016 6.881-2.016 12.8478 0 3.8976.288 7.0013.864 9.311s1.488 3.9939 2.736 5.0525c1.296 1.0105 3.024 1.5158 5.184 1.5158z"/><path d="m360.727 51.9685c.096.1925.144.4571.144.794 0 .433-.144.7939-.432 1.0826-.24.2888-.576.4331-1.008.4331h-13.968c-1.008 0-1.656-.5052-1.944-1.5157l-6.768-18.6221c-.144-.3849-.384-.6736-.72-.8661s-.84-.2887-1.512-.2887h-3.312c-.288 0-.504.0962-.648.2887s-.216.3609-.216.5052v18.4055c0 .7699-.192 1.3233-.576 1.6601-.384.2888-.984.4331-1.8.4331h-12.096c-.72 0-1.224-.1443-1.512-.4331-.24-.2887-.36-.7458-.36-1.3714v-50.09181c0-1.10674.456-1.660106 1.368-1.660106h24.048c6.96 0 12.36 1.347336 16.2 4.041996 3.84 2.64654 5.76 6.39982 5.76 11.25982 0 3.3202-.888 6.2795-2.664 8.878-1.728 2.5984-3.984 4.4269-6.768 5.4855-.288.1444-.432.385-.432.7218 0 .1444.048.3609.144.6496zm-21.96-29.7375c1.824 0 3.216-.4572 4.176-1.3714 1.008-.9624 1.512-2.2376 1.512-3.8255 0-1.7804-.6-3.1518-1.8-4.1142-1.152-1.0105-2.592-1.5157-4.32-1.5157h-6.336c-.624 0-1.056.1203-1.296.3609-.24.1925-.36.5534-.36 1.0827v7.8674c0 .5293.072.9143.216 1.1549.192.2406.528.3609 1.008.3609z"/><path d="m399.77 15.0853c-1.152-1.2511-2.4-2.2135-3.744-2.8871-1.296-.6737-3.192-1.0105-5.688-1.0105s-4.344.3609-5.544 1.0826c-1.2.7218-1.8 1.588-1.8 2.5985 0 1.7322 1.536 2.9593 4.608 3.6811l11.952 3.1036c4.368 1.1068 7.656 3.0556 9.864 5.8465 2.208 2.7428 3.312 6.0389 3.312 9.8885 0 3.5608-.936 6.6644-2.808 9.311-1.872 2.6465-4.56 4.6916-8.064 6.1351-3.456 1.4436-7.512 2.1654-12.168 2.1654-5.28 0-10.104-.8661-14.472-2.5984-4.32-1.7804-7.32-4.0901-9-6.9292-.24-.4812-.36-.842-.36-1.0826 0-.4812.264-.9143.792-1.2993l7.416-5.1246c.528-.3369 1.008-.5053 1.44-.5053.528 0 .96.2166 1.296.6496 1.632 2.1173 3.288 3.609 4.968 4.4751s3.912 1.2992 6.696 1.2992c2.688 0 4.8-.3609 6.336-1.0827 1.584-.7699 2.376-1.8044 2.376-3.1036 0-.9143-.384-1.7083-1.152-2.3819-.768-.6737-1.896-1.1789-3.384-1.5158l-10.944-2.6706c-4.32-1.0586-7.752-3.0315-10.296-5.9186-2.544-2.9353-3.816-6.3036-3.816-10.105 0-3.1277.912-5.9908 2.736-8.58924 1.824-2.64654 4.416-4.71566 7.776-6.20735 3.36-1.539806 7.248-2.30971 11.664-2.30971 4.32 0 8.328.721784 12.024 2.16535 3.696 1.39545 6.36 3.2721 7.992 5.62992.336.43307.504.84209.504 1.22704 0 .33683-.168.64961-.504.93832l-7.848 5.70207c-.24.1925-.504.2887-.792.2887-.336 0-.792-.2887-1.368-.8661z"/><path d="m458.692 55c-5.232 0-9.816-1.1067-13.752-3.3202-3.888-2.2616-6.888-5.4375-9-9.5276-2.112-4.1382-3.168-8.9742-3.168-14.5078 0-5.5337 1.056-10.3697 3.168-14.5079 2.16-4.18637 5.184-7.41034 9.072-9.67193 3.936-2.30971 8.496-3.46457 13.68-3.46457 5.136 0 9.648 1.15486 13.536 3.46457 3.888 2.26159 6.888 5.48556 9 9.67193 2.16 4.1382 3.24 8.9742 3.24 14.5079 0 5.4855-1.056 10.2974-3.168 14.4357-2.112 4.1382-5.112 7.3381-9 9.5997-3.888 2.2135-8.424 3.3202-13.608 3.3202zm0-11.2598c2.112 0 3.792-.5053 5.04-1.5158 1.248-1.0586 2.16-2.7428 2.736-5.0525s.864-5.4134.864-9.311c0-5.9668-.672-10.2494-2.016-12.8478s-3.552-3.8976-6.624-3.8976c-3.12 0-5.376 1.2992-6.768 3.8976-1.344 2.5984-2.016 6.881-2.016 12.8478 0 3.8976.288 7.0013.864 9.311s1.488 3.9939 2.736 5.0525c1.296 1.0105 3.024 1.5158 5.184 1.5158z"/><path d="m491.184 2.38189c0-.52931.12-.93832.36-1.22704.24-.288709.576-.433066 1.008-.433066h38.376c.864 0 1.296.505246 1.296 1.515746l-.072 8.37267c0 1.2992-.6 1.9489-1.8 1.9489h-21.168c-1.104 0-1.656.4571-1.656 1.3713v6.7848c0 .9624.432 1.4436 1.296 1.4436h13.176c.96 0 1.44.4812 1.44 1.4436v8.8057c0 .8181-.432 1.2271-1.296 1.2271h-13.464c-.336 0-.624.0962-.864.2887-.192.1925-.288.4571-.288.7939v17.4672c0 .7699-.192 1.3233-.576 1.6601-.384.2888-.984.4331-1.8.4331h-12.024c-.72 0-1.224-.1443-1.512-.4331-.288-.2887-.432-.7458-.432-1.3714z"/><path d="m552.138 2.38189c0-.48119.144-.86614.432-1.15486.336-.336829.792-.505246 1.368-.505246h43.056c.576 0 1.008.168417 1.296.505246.336.28872.504.67367.504 1.15486v8.58921c0 .9143-.528 1.3714-1.584 1.3714h-12.744c-.576 0-.864.2406-.864.7218v39.626c0 .5293-.12.9383-.36 1.227-.24.2406-.576.3609-1.008.3609h-13.68c-.864 0-1.296-.4812-1.296-1.4436v-39.4816c0-.6736-.264-1.0105-.792-1.0105h-12.672c-1.104 0-1.656-.4571-1.656-1.3714z"/><path d="m622.778 32.8412c-.336 0-.624.1203-.864.3609-.192.1925-.288.4331-.288.7218v18.2611c0 .7699-.192 1.3233-.576 1.6601-.384.2888-.984.4331-1.8.4331h-12.024c-.72 0-1.224-.1443-1.512-.4331-.288-.2887-.432-.7458-.432-1.3714v-50.09181c0-.52931.12-.93832.36-1.22704.24-.288709.576-.433066 1.008-.433066h13.68c.384 0 .696.144357.936.433066.24.2406.36.6015.36 1.08268v16.74537c0 .9624.432 1.4436 1.296 1.4436h12.096c.864 0 1.296-.4812 1.296-1.4436v-16.74537c0-.48118.12-.84208.36-1.08268.24-.288709.552-.433066.936-.433066h13.68c.432 0 .768.144357 1.008.433066.24.28872.36.69773.36 1.22704v50.09181c0 .6256-.144 1.0827-.432 1.3714-.288.2888-.792.4331-1.512.4331h-12.024c-.816 0-1.416-.1443-1.8-.4331-.384-.3368-.576-.8902-.576-1.6601v-18.2611c0-.2887-.12-.5293-.36-.7218-.192-.2406-.456-.3609-.792-.3609z"/><path d="m660.845 2.38189c0-1.10674.456-1.660106 1.368-1.660106h38.88c.864 0 1.296.505246 1.296 1.515746l-.072 8.37267c0 1.2992-.624 1.9489-1.872 1.9489h-21.6c-1.104 0-1.656.4571-1.656 1.3713v6.1352c0 .4812.12.8662.36 1.1549.24.2406.552.3609.936.3609h12.96c1.008 0 1.512.4812 1.512 1.4435v8.9502c0 .818-.432 1.227-1.296 1.227h-13.32c-.336 0-.624.0962-.864.2887-.192.1925-.288.4331-.288.7218v7.2178c0 .385.048.6497.144.794.144.1444.384.2165.72.2165h23.4c1.056 0 1.584.4572 1.584 1.3714v8.878c0 .4812-.144.8661-.432 1.1548-.288.2888-.72.4331-1.296.4331h-38.52c-.72 0-1.224-.1443-1.512-.4331-.288-.2887-.432-.7458-.432-1.3714z"/><path d="m797.004.721784c.72 0 1.272.192477 1.656.577426.432.33684.648.81802.648 1.44357 0 .19248-.048.48119-.144.86614l-14.616 48.86478c-.24.6256-.552 1.0827-.936 1.3714-.384.2888-.936.4331-1.656.4331h-9.936c-1.392 0-2.256-.6015-2.592-1.8045l-7.488-25.4068c-.144-.6255-.312-.9383-.504-.9383-.144 0-.36.3609-.648 1.0827l-7.416 25.2624c-.192.6256-.504 1.0827-.936 1.3714-.384.2888-.936.4331-1.656.4331h-10.296c-.72 0-1.272-.1443-1.656-.4331-.384-.2887-.696-.7458-.936-1.3714l-14.688-48.86478c-.096-.38495-.144-.67366-.144-.86614 0-.62555.192-1.10673.576-1.44357.432-.384949 1.008-.577426 1.728-.577426h11.88c.72 0 1.248.120298 1.584.360896.336.24059.576.62554.72 1.15485l7.632 26.77817c.144.5775.312.8662.504.8662.144 0 .264-.1925.36-.5774l7.56-27.06697c.24-1.0105 1.008-1.515746 2.304-1.515746h10.08c.72 0 1.248.120298 1.584.360896.336.24059.576.62554.72 1.15485l7.92 27.42787c.096.2887.24.4571.432.5052s.312-.0722.36-.3609l7.344-27.57217c.24-1.0105 1.008-1.515746 2.304-1.515746z"/><path d="m826.421 55c-5.232 0-9.816-1.1067-13.752-3.3202-3.888-2.2616-6.888-5.4375-9-9.5276-2.112-4.1382-3.168-8.9742-3.168-14.5078 0-5.5337 1.056-10.3697 3.168-14.5079 2.16-4.18637 5.184-7.41034 9.072-9.67193 3.936-2.30971 8.496-3.46457 13.68-3.46457 5.136 0 9.648 1.15486 13.536 3.46457 3.888 2.26159 6.888 5.48556 9 9.67193 2.16 4.1382 3.24 8.9742 3.24 14.5079 0 5.4855-1.056 10.2974-3.168 14.4357-2.112 4.1382-5.112 7.3381-9 9.5997-3.888 2.2135-8.424 3.3202-13.608 3.3202zm0-11.2598c2.112 0 3.792-.5053 5.04-1.5158 1.248-1.0586 2.16-2.7428 2.736-5.0525s.864-5.4134.864-9.311c0-5.9668-.672-10.2494-2.016-12.8478s-3.552-3.8976-6.624-3.8976c-3.12 0-5.376 1.2992-6.768 3.8976-1.344 2.5984-2.016 6.881-2.016 12.8478 0 3.8976.288 7.0013.864 9.311s1.488 3.9939 2.736 5.0525c1.296 1.0105 3.024 1.5158 5.184 1.5158z"/><path d="m905.641 51.9685c.096.1925.144.4571.144.794 0 .433-.144.7939-.432 1.0826-.24.2888-.576.4331-1.008.4331h-13.968c-1.008 0-1.656-.5052-1.944-1.5157l-6.768-18.6221c-.144-.3849-.384-.6736-.72-.8661s-.84-.2887-1.512-.2887h-3.312c-.288 0-.504.0962-.648.2887s-.216.3609-.216.5052v18.4055c0 .7699-.192 1.3233-.576 1.6601-.384.2888-.984.4331-1.8.4331h-12.096c-.72 0-1.224-.1443-1.512-.4331-.24-.2887-.36-.7458-.36-1.3714v-50.09181c0-1.10674.456-1.660106 1.368-1.660106h24.048c6.96 0 12.36 1.347336 16.2 4.041996 3.84 2.64654 5.76 6.39982 5.76 11.25982 0 3.3202-.888 6.2795-2.664 8.878-1.728 2.5984-3.984 4.4269-6.768 5.4855-.288.1444-.432.385-.432.7218 0 .1444.048.3609.144.6496zm-21.96-29.7375c1.824 0 3.216-.4572 4.176-1.3714 1.008-.9624 1.512-2.2376 1.512-3.8255 0-1.7804-.6-3.1518-1.8-4.1142-1.152-1.0105-2.592-1.5157-4.32-1.5157h-6.336c-.624 0-1.056.1203-1.296.3609-.24.1925-.36.5534-.36 1.0827v7.8674c0 .5293.072.9143.216 1.1549.192.2406.528.3609 1.008.3609z"/><path d="m912.859 2.38189c0-.52931.12-.93832.36-1.22704.24-.288709.576-.433066 1.008-.433066h13.68c.864 0 1.296.505246 1.296 1.515746v39.19287c0 .385.048.6497.144.794.144.1444.384.2165.72.2165h21.672c1.104 0 1.656.4572 1.656 1.3714v8.878c0 .4812-.168.8661-.504 1.1548-.288.2888-.72.4331-1.296.4331h-36.792c-.72 0-1.224-.1443-1.512-.4331-.288-.2887-.432-.7458-.432-1.3714z"/><path d="m970.285.721784c5.712 0 9.264.02406 10.656.072178 9.36.336838 16.44 2.887138 21.239 7.650918 4.8 4.71562 7.2 11.01922 7.2 18.91072 0 5.2931-1.08 9.9607-3.24 14.0027s-5.37 7.2178-9.647 9.5275c-4.272 2.2616-9.48 3.3924-15.624 3.3924h-18.936c-.72 0-1.248-.1684-1.584-.5052-.336-.3369-.504-.8902-.504-1.6601v-49.58665c0-.67367.144-1.1308.432-1.3714.288-.288709.792-.433066 1.512-.433066zm6.624 11.332016c-.24 0-.432.0722-.576.2165-.096.1444-.144.409-.144.794v28.7992c0 .4331.072.7218.216.8662.144.1443.408.2165.792.2165h.504c4.752 0 8.352-1.227 10.8-3.6811 2.496-2.5022 3.744-6.5442 3.744-12.126 0-4.8119-.936-8.3968-2.808-10.7546s-4.608-3.7051-8.208-4.042z"/></g></svg>