<svg width="137" height="15" fill="none" xmlns="http://www.w3.org/2000/svg"><path d="M7.851 12.981c3.038-1.47 5.056-3.118 6.084-4.81.87-1.434.979-2.832.432-3.982-.496-1.044-1.504-1.79-2.666-1.981-1.24-.205-2.501.233-3.501 1.318l-.349.378-.349-.378c-1-1.085-2.262-1.523-3.501-1.318-1.162.192-2.17.937-2.666 1.981-.547 1.15-.439 2.548.432 3.981 1.028 1.693 3.046 3.341 6.084 4.811z" stroke="#fff" stroke-width="1.139" stroke-linecap="round" stroke-linejoin="round"/><path d="M7.542 8.85l-.827.426a.175.175 0 0 1-.233-.071.165.165 0 0 1-.018-.107l.158-.9a.64.64 0 0 0-.19-.575l-.67-.637a.166.166 0 0 1-.003-.239.174.174 0 0 1 .099-.05l.924-.13a.664.664 0 0 0 .5-.356l.414-.818a.175.175 0 0 1 .31 0l.413.818a.664.664 0 0 0 .5.356l.925.13a.168.168 0 1 1 .096.288l-.67.638a.64.64 0 0 0-.19.575l.158.9a.17.17 0 0 1-.141.195.176.176 0 0 1-.11-.017L8.16 8.85a.679.679 0 0 0-.618 0zm21.97-1.879h4.376c0 .45-.02.859-.057 1.226a4.346 4.346 0 0 1-.225 1.024 4.167 4.167 0 0 1-.641 1.181c-.27.338-.589.623-.956.856a4.49 4.49 0 0 1-1.193.517c-.435.12-.892.18-1.372.18-.66 0-1.264-.109-1.811-.326a4.127 4.127 0 0 1-1.395-.912 4.226 4.226 0 0 1-.912-1.417A4.985 4.985 0 0 1 25 7.466c0-.66.105-1.264.315-1.811a4.082 4.082 0 0 1 .911-1.418c.398-.39.874-.693 1.429-.91A5.049 5.049 0 0 1 29.511 3c.885 0 1.662.191 2.329.574.668.382 1.196.975 1.586 1.777l-2.092.867c-.195-.465-.45-.8-.765-1.002a1.879 1.879 0 0 0-1.058-.304c-.33 0-.63.064-.9.192-.27.12-.502.296-.697.529a2.613 2.613 0 0 0-.45.82 3.477 3.477 0 0 0-.158 1.08c0 .36.045.694.135 1.002.098.307.24.574.428.799.187.225.42.4.697.528.278.12.6.18.968.18.217 0 .427-.022.63-.067.202-.053.382-.131.54-.236.165-.113.3-.255.405-.428.105-.172.176-.382.213-.63h-1.81v-1.71zm8.255.506c0 .338.064.65.192.934.127.285.3.533.517.743.218.21.469.375.754.495.292.112.6.168.922.168.323 0 .627-.056.912-.168.292-.12.547-.285.765-.495a2.26 2.26 0 0 0 .72-1.676 2.26 2.26 0 0 0-.72-1.677 2.252 2.252 0 0 0-.765-.484 2.324 2.324 0 0 0-.912-.18c-.322 0-.63.06-.922.18a2.279 2.279 0 0 0-.754.484c-.217.21-.39.458-.517.743a2.26 2.26 0 0 0-.192.934zm-2.306 0c0-.63.116-1.215.349-1.755a4.378 4.378 0 0 1 .967-1.428c.413-.405.904-.72 1.474-.945A5.046 5.046 0 0 1 40.152 3c.683 0 1.313.116 1.89.349.578.225 1.073.54 1.485.945a4.39 4.39 0 0 1 1.328 3.184 4.326 4.326 0 0 1-1.328 3.184 4.48 4.48 0 0 1-1.485.955 5.16 5.16 0 0 1-1.89.338c-.69 0-1.323-.113-1.9-.338a4.508 4.508 0 0 1-1.475-.956 4.411 4.411 0 0 1-.967-1.417 4.471 4.471 0 0 1-.349-1.766zm13.273 0c0 .338.064.65.191.934.128.285.3.533.518.743.217.21.468.375.754.495.292.112.6.168.922.168.322 0 .626-.056.911-.168.293-.12.548-.285.765-.495a2.26 2.26 0 0 0 .72-1.676 2.26 2.26 0 0 0-.72-1.677 2.252 2.252 0 0 0-.765-.484 2.324 2.324 0 0 0-.911-.18c-.322 0-.63.06-.922.18a2.279 2.279 0 0 0-.754.484c-.218.21-.39.458-.518.743a2.26 2.26 0 0 0-.191.934zm-2.306 0c0-.63.116-1.215.349-1.755a4.378 4.378 0 0 1 .967-1.428c.413-.405.904-.72 1.474-.945A5.046 5.046 0 0 1 51.119 3c.682 0 1.313.116 1.89.349.578.225 1.072.54 1.485.945a4.39 4.39 0 0 1 1.328 3.184c0 .63-.117 1.218-.35 1.766a4.326 4.326 0 0 1-.978 1.417 4.48 4.48 0 0 1-1.485.956 5.16 5.16 0 0 1-1.89.338c-.69 0-1.324-.113-1.901-.338a4.508 4.508 0 0 1-1.474-.956 4.411 4.411 0 0 1-.968-1.417 4.471 4.471 0 0 1-.348-1.766zm13.554 2.374h.506c.383 0 .724-.06 1.024-.18a2.128 2.128 0 0 0 1.226-1.237c.112-.293.169-.611.169-.956a2.61 2.61 0 0 0-.169-.946 2.135 2.135 0 0 0-.484-.753 2.128 2.128 0 0 0-.753-.495c-.3-.12-.638-.18-1.013-.18h-.506V9.85zm-2.205-6.615h3.262a3.81 3.81 0 0 1 1.62.349c.51.232.953.544 1.328.934.382.382.682.832.9 1.35.217.51.326 1.046.326 1.609 0 .555-.109 1.09-.326 1.608-.21.51-.507.96-.889 1.35a4.29 4.29 0 0 1-1.328.934 3.837 3.837 0 0 1-1.63.349h-3.263V3.236zM73.774 7.13h.731c.81 0 1.216-.353 1.216-1.058 0-.705-.406-1.057-1.216-1.057h-.731v2.115zm0 4.59h-2.205V3.236h3.51c.953 0 1.68.248 2.183.743.51.495.765 1.192.765 2.092 0 .9-.255 1.598-.765 2.093-.503.495-1.23.742-2.183.742h-1.305v2.813zm10.122-3.15l-.99-2.824-.99 2.824h1.98zm.585 1.676h-3.15l-.506 1.474h-2.351l3.229-8.483h2.407l3.229 8.483h-2.351l-.507-1.474zm6.59-3.217h.417c.435 0 .768-.09 1-.27.233-.18.35-.44.35-.777s-.117-.596-.35-.776c-.232-.18-.565-.27-1-.27h-.417v2.093zm4.849 4.69h-2.745L91.07 8.457v3.263h-2.205V3.236h3.432c.472 0 .885.071 1.237.214.353.135.64.322.866.563.233.24.405.517.518.832.12.315.18.652.18 1.013 0 .645-.158 1.17-.473 1.575-.307.397-.765.667-1.372.81l2.666 3.476zm4.713-6.614v6.615h-2.205V5.104h-1.811V3.236h5.828v1.868h-1.812zm5.952 2.542l-3.094-4.41h2.632l1.575 2.318 1.564-2.318h2.633l-3.105 4.41v4.073h-2.205V7.646z" fill="#fff"/></svg>