<svg fill="none" height="16" width="16" xmlns="http://www.w3.org/2000/svg"><g stroke="#484848" stroke-linecap="round" stroke-linejoin="round"><path clip-rule="evenodd" d="m8 4.5a2 2 0 1 0 0-4 2 2 0 0 0 0 4zm2.5 5v-1.5a2.5 2.5 0 0 0 -5 0v1.5h1l.5 4h2l.5-4zm-7.5-4a1.5 1.5 0 1 0 0-3 1.5 1.5 0 0 0 0 3z"/><path d="m3.8 6.631a2.502 2.502 0 0 0 -3.3 2.369v.5h1l.5 3h2l.25-1.504"/><path clip-rule="evenodd" d="m13 5.5a1.5 1.5 0 1 0 0-3 1.5 1.5 0 0 0 0 3z"/><path d="m12.2 6.631a2.502 2.502 0 0 1 3.3 2.369v.5h-1l-.5 3h-2l-.25-1.504m3.75 3.004c0 .829-3.358 1.5-7.5 1.5s-7.5-.671-7.5-1.5"/></g></svg>