<svg fill="none" height="22" viewBox="0 0 18 22" width="18" xmlns="http://www.w3.org/2000/svg"><path d="m6.41613 18.9968c1.47171 0 2.66614-1.1944 2.66614-2.6661v-2.6661h-2.66614c-1.4717 0-2.66613 1.1944-2.66613 2.6661s1.19443 2.6661 2.66613 2.6661z" fill="#0acf83"/><path d="m3.75 10.9984c0-1.4717 1.19443-2.66612 2.66613-2.66612h2.66614v5.33222h-2.66614c-1.4717 0-2.66613-1.1944-2.66613-2.6661z" fill="#a259ff"/><path d="m3.75 5.66613c0-1.4717 1.19443-2.66613 2.66613-2.66613h2.66614v5.33227h-2.66614c-1.4717 0-2.66613-1.19443-2.66613-2.66614z" fill="#f24e1e"/><path d="m9.08228 3h2.66612c1.4717 0 2.6661 1.19443 2.6661 2.66613 0 1.47171-1.1944 2.66614-2.6661 2.66614h-2.66612z" fill="#ff7262"/><path d="m14.4145 10.9984c0 1.4717-1.1944 2.6661-2.6661 2.6661s-2.66612-1.1944-2.66612-2.6661 1.19442-2.66612 2.66612-2.66612 2.6661 1.19442 2.6661 2.66612z" fill="#1abcfe"/></svg>