<svg height="50" viewBox="0 0 100 100" width="50" xmlns="http://www.w3.org/2000/svg"><path d="m77 12a1 1 0 1 0 0 2 1 1 0 1 0 0-2z" fill="#f1bc19"/><path d="m50 13a37 37 0 1 0 0 74 37 37 0 1 0 0-74z" fill="#e6edb7"/><path d="m83 11a4 4 0 1 0 0 8 4 4 0 1 0 0-8z" fill="#f1bc19"/><path d="m87 22a2 2 0 1 0 0 4 2 2 0 1 0 0-4z" fill="#88ae45"/><path d="m81 74a2 2 0 1 0 0 4 2 2 0 1 0 0-4zm-66-15a4 4 0 1 0 0 8 4 4 0 1 0 0-8z" fill="#fbcd59"/><path d="m25 85a2 2 0 1 0 0 4 2 2 0 1 0 0-4z" fill="#88ae45"/><path d="m18.5 49a2.5 2.5 0 1 0 0 5 2.5 2.5 0 1 0 0-5zm61-17a1.5 1.5 0 1 0 0 3 1.5 1.5 0 1 0 0-3z" fill="#fff"/><path d="m50 72.3c-5.833-.001-13.651-.135-16.649-.38-3.994-.34-4.394-4.195-4.58-10.504l-.012-.373c-.017-.563-.034-1.121-.06-1.67.001-2.964.307-6.411.799-8.963.819-3.34 2.472-3.39 6.463-3.512.601-.018 1.232-.037 1.886-.072 0 0 .37-.005.721-.012 1.562-.034 5.213-.114 11.294-.114l.281.001c6.015 0 9.646.078 11.197.111 0 0 .78.017.882.017.581.032 1.212.052 1.814.069 3.992.122 5.645.172 6.478 3.574.481 2.507.785 5.952.785 8.96-.025.54-.044 1.146-.063 1.76l-.007.222c-.186 6.31-.586 10.165-4.583 10.504-2.988.247-10.807.381-16.646.382z" fill="#ea5167"/><path d="m49.86 47.4.284.001c6.046 0 9.666.078 11.212.112l.057.001c.382.008.636.013.769.014.613.033 1.238.052 1.833.07 4.12.125 5.131.26 5.812 3.008.476 2.487.771 5.849.773 8.794-.026.571-.045 1.175-.064 1.787l-.006.207c-.19 6.468-.641 9.546-3.94 9.826-2.962.245-10.759.379-16.59.38-5.828-.001-13.624-.134-16.588-.378-3.301-.28-3.751-3.358-3.942-9.829l-.011-.345c-.017-.564-.034-1.124-.059-1.674.002-2.933.3-6.297.779-8.797.674-2.72 1.685-2.854 5.805-2.979.599-.018 1.226-.038 1.878-.072.115-.002.412-.006.724-.013 1.402-.03 5.127-.113 11.274-.113m.003-1.4c-6.092 0-9.748.08-11.309.114-.379.008-.737.013-.743.013-.649.035-1.275.054-1.871.072-3.984.121-6.177.188-7.13 4.078-.499 2.594-.81 6.102-.81 9.129.031.666.049 1.346.071 2.031.163 5.535.317 10.763 5.223 11.18 3 .247 10.846.382 16.705.383 5.86-.001 13.705-.136 16.706-.384 4.907-.417 5.061-5.645 5.224-11.18.021-.685.041-1.365.071-2.003 0-3.055-.312-6.563-.805-9.126-.96-3.92-3.155-3.987-7.137-4.108-.596-.018-1.221-.037-1.835-.071-.112 0-.369-.005-.779-.014-1.549-.033-5.164-.113-11.3-.113-.045 0-.281-.001-.281-.001z" fill="#472b29"/><g fill="#fff"><path d="m49 67.947h-2.614v-1.737c-.327.474-1.144 1.736-2.887 1.737-.87 0-2.341-.632-2.341-2.526v-11.368h2.614v10.895c0 .291.024.798.98.789 1.063-.01 1.634-1.263 1.634-1.263v-10.421h2.614z"/><path d="m40 52.789h-2.667v15.158h-2.666v-15.158h-2.667v-2.526h8z"/><path d="m58.842 57.286c0-1.09-.357-1.829-.813-2.386-.452-.557-1.119-.848-1.967-.848-.425 0-.848.114-1.272.322-.425.205-.876.562-1.176 1.017v-5.128h-2.614v17.684h2.614v-1.737c.505.57 1.24 1.751 2.614 1.737 1.961 0 2.614-1.737 2.614-3.158zm-2.614 6.901c0 .697-.586 1.234-1.307 1.234s-1.295-.268-1.307-.632v-7.503c.012-.635.586-1.263 1.307-1.263s1.307.555 1.307 1.819z"/><path d="m68 61.632v-3.936c0-1.261-.658-3.643-3.947-3.643-3.125 0-3.943 2.501-3.943 3.643v5.947c0 1.292.366 2.29 1.063 3.021.704.731 1.679 1.084 2.93 1.084 1.366 0 2.408-.326 3.076-1.029.705-.674.821-1.696.821-3.076v-.748h-2.632v.632c0 .762-.078 1.347-.262 1.555-.182.232-.52.335-1.054.34-.483.005-.85-.124-1.032-.414-.186-.264-.284-.719-.284-1.422v-1.953h5.264zm-5.263-3.79c.012-.678.589-1.263 1.316-1.263.726 0 1.316.486 1.316 1.263v1.263h-2.632z"/></g><path d="m43.684 25-2.526 7.074-2.526-7.074h-2.527l3.79 10.611v7.073h2.526v-7.073l3.79-10.611z" fill="#36404d"/><path d="m60.105 29.421v9.789s-.552 1.253-1.579 1.263c-.925.009-.947-.499-.947-.789v-10.263h-2.526v10.737c0 1.895 1.421 2.526 2.262 2.526 1.685 0 2.475-1.263 2.79-1.737v1.579h2.526v-13.105z" fill="#36404d"/><path d="m49.684 42.684c-2.089 0-3.789-1.736-3.789-3.869v-5.684c0-2.132 1.7-3.869 3.789-3.869s3.789 1.736 3.789 3.869v5.684c.001 2.134-1.7 3.869-3.789 3.869zm0-11.052c-.697 0-1.263.625-1.263 1.395v5.895c0 .769.566 1.395 1.263 1.395s1.263-.625 1.263-1.395v-5.895c0-.77-.566-1.395-1.263-1.395z" fill="#36404d"/></svg>