<svg height="100" viewBox="0 0 100 100" width="100" xmlns="http://www.w3.org/2000/svg"><path d="m69.654 81.654h-39c-6.6 0-12-5.4-12-12v-39c0-6.6 5.4-12 12-12h39c6.6 0 12 5.4 12 12v39c0 6.6-5.4 12-12 12z" fill="#39c1d7"/><path d="m69.654 82.654h-39c-7.168 0-13-5.832-13-13v-39c0-7.168 5.832-13 13-13h39c7.168 0 13 5.832 13 13v39c0 7.168-5.832 13-13 13zm-39-63c-6.065 0-11 4.935-11 11v39c0 6.065 4.935 11 11 11h39c6.065 0 11-4.935 11-11v-39c0-6.065-4.935-11-11-11z" fill="#1f212b"/><path d="m77.154 48.154v18.663c0 5.685-4.652 10.337-10.337 10.337h-33.326c-5.685 0-10.337-4.652-10.337-10.337v-33.326c0-5.685 4.652-10.337 10.337-10.337h33.663" fill="#39c1d7"/><path d="m66.817 77.654h-33.327c-5.976 0-10.837-4.861-10.837-10.837v-33.327c0-5.976 4.861-10.837 10.837-10.837h33.663c.276 0 .5.224.5.5s-.224.5-.5.5h-33.663c-5.424 0-9.837 4.413-9.837 9.837v33.326c0 5.424 4.413 9.837 9.837 9.837h33.326c5.424 0 9.837-4.413 9.837-9.837v-18.662c0-.276.224-.5.5-.5s.5.224.5.5v18.663c.001 5.975-4.861 10.837-10.836 10.837z" fill="#1f212b"/><path d="m77.154 46.654c-.276 0-.5-.224-.5-.5v-4c0-.276.224-.5.5-.5s.5.224.5.5v4c0 .276-.224.5-.5.5zm0-6c-.276 0-.5-.224-.5-.5v-2c0-.276.224-.5.5-.5s.5.224.5.5v2c0 .276-.224.5-.5.5z" fill="#1f212b"/><path d="m61.832 35.354c-4.652-.156-7.802 2.458-9.444 7.833.848-.35 1.672-.529 2.482-.529 1.696 0 2.45.949 2.248 2.863-.101 1.159-.848 2.839-2.248 5.049-1.4 2.209-2.45 3.314-3.151 3.314-.902 0-1.727-1.711-2.482-5.119-.249-1.003-.7-3.563-1.346-7.686-.607-3.812-2.201-5.601-4.8-5.344-1.097.093-2.746 1.097-4.947 3.003-1.602 1.455-3.228 2.917-4.877 4.372l1.571 2.03c1.501-1.058 2.38-1.579 2.629-1.579 1.151 0 2.225 1.805 3.228 5.422.895 3.314 1.805 6.628 2.699 9.942 1.346 3.617 2.995 5.422 4.947 5.422 3.151 0 7.001-2.964 11.552-8.884 4.395-5.671 6.667-10.144 6.822-13.403.197-4.373-1.429-6.613-4.883-6.706z" fill="#fdfcee"/><path d="m48.343 64.846c-2.175 0-3.997-1.934-5.416-5.748-.461-1.701-.912-3.357-1.363-5.014-.451-1.658-.902-3.315-1.35-4.972-1.265-4.56-2.342-5.052-2.746-5.052-.021.011-.447.154-2.341 1.488-.22.154-.521.109-.684-.103l-1.571-2.03c-.161-.208-.133-.507.065-.681 1.647-1.453 3.271-2.914 4.872-4.367 2.317-2.006 4.029-3.028 5.241-3.131 2.885-.296 4.682 1.655 5.336 5.764.626 3.998 1.088 6.641 1.337 7.644 1 4.511 1.838 4.739 1.996 4.739.129 0 .87-.148 2.729-3.082 1.348-2.127 2.079-3.75 2.172-4.824.092-.869-.028-1.49-.355-1.853-.278-.31-.748-.466-1.395-.466-.741 0-1.49.161-2.291.492-.177.075-.384.038-.527-.092s-.198-.331-.142-.516c1.708-5.596 5.079-8.337 9.937-8.188 1.652.045 2.948.56 3.852 1.531 1.122 1.205 1.632 3.122 1.518 5.696-.16 3.36-2.49 7.964-6.927 13.688-4.695 6.107-8.603 9.077-11.947 9.077zm-10.875-21.786c1.436 0 2.614 1.839 3.71 5.788.448 1.66.899 3.317 1.35 4.973.451 1.658.902 3.315 1.35 4.972 1.244 3.337 2.75 5.052 4.464 5.052 2.97 0 6.724-2.923 11.155-8.688 4.309-5.56 6.569-9.974 6.719-13.123.102-2.295-.319-3.968-1.251-4.969-.725-.778-1.754-1.175-3.148-1.212-.001 0-.002 0-.003 0-4.168-.127-6.994 2.001-8.635 6.537.574-.154 1.14-.232 1.69-.232.943 0 1.662.268 2.138.797.525.583.729 1.464.607 2.618-.108 1.244-.868 2.968-2.323 5.263-1.992 3.143-2.956 3.546-3.573 3.546-1.209 0-2.125-1.7-2.97-5.511-.256-1.033-.712-3.634-1.352-7.716-.563-3.54-1.965-5.15-4.256-4.924-.681.058-2.037.604-4.669 2.883-1.482 1.346-2.992 2.705-4.522 4.058l.993 1.283c2.019-1.395 2.334-1.395 2.526-1.395z" fill="#1f212b"/></svg>