<svg fill="none" height="19" viewBox="0 0 16 19" width="16" xmlns="http://www.w3.org/2000/svg"><path d="m12.5 11.5c-.8086 0-1.5469.2812-2.1094.7383l-3.62107-2.25002c.03516-.17578.10547-.52734.10547-.73828 0-.17578-.07031-.52734-.10547-.70312l3.62107-2.25c.5625.45703 1.3008.70312 2.1094.70312 1.8633 0 3.375-1.47656 3.375-3.375 0-1.86328-1.5117-3.375-3.375-3.375-1.8984 0-3.375 1.51172-3.375 3.375 0 .28125 0 .52734.07031.73828l-3.62109 2.25c-.5625-.45703-1.30078-.73828-2.07422-.73828-1.89844 0-3.375 1.51172-3.375 3.375 0 1.8984 1.47656 3.375 3.375 3.375.77344 0 1.51172-.2461 2.07422-.7031l3.62109 2.25c-.03515.1758-.07031.5273-.07031.7031 0 1.8984 1.4766 3.375 3.375 3.375 1.8633 0 3.375-1.4766 3.375-3.375 0-1.8633-1.5117-3.375-3.375-3.375z" fill="#b3b3b3"/></svg>