<svg fill="none" height="32" viewBox="0 0 32 32" width="32" xmlns="http://www.w3.org/2000/svg"><path clip-rule="evenodd" d="m16 0c-8.83656 0-16 7.16344-16 16 0 8.8366 7.16344 16 16 16 8.8366 0 16-7.1634 16-16 0-8.83656-7.1634-16-16-16zm4.294 12.8343c.3124-.3124.3124-.8189 0-1.1313-.3124-.3125-.8189-.3125-1.1314 0l-7.4635 7.4635c-.3125.3125-.3125.819 0 1.1314.3124.3124.8189.3124 1.1313 0zm-10.32297 3.5397c.80227-.801 1.90827-1.2218 3.04017-1.1566.4411.0254.778.4036.7526.8447s-.4036.7781-.8447.7527c-.6766-.039-1.3377.2125-1.8173.6913l-.0003.0002-1.59887 1.5989c-.60597.606-.84262 1.4892-.62082 2.3169.2218.8278.86836 1.4744 1.69609 1.6962.8278.2218 1.711-.0149 2.317-.6208l1.5989-1.599.0003-.0002c.4787-.4797.7302-1.1408.6912-1.8173-.0254-.4411.3116-.8193.7527-.8447.4411-.0255.8192.3115.8447.7526.0652 1.1319-.3556 2.2379-1.1567 3.0402l-.0004.0004-1.5993 1.5993c-1.0102 1.0102-2.4826 1.4047-3.8625 1.035-1.37989-.3698-2.45773-1.4476-2.82747-2.8275-.36975-1.38.02476-2.8523 1.03493-3.8625l1.59934-1.5993zm11.85877-9.03767c-1.3799-.36975-2.8523.02476-3.8624 1.03493l-1.5994 1.59934-.0014.00145c-.7991.80315-1.2181 1.90875-1.152 3.03975.0257.441.4042.7777.8452.752.4411-.0258.7778-.4042.752-.8453-.0394-.6761.2109-1.337.6884-1.8173l.0006-.0007 1.5979-1.59787c.606-.60597 1.4892-.84262 2.317-.62082s1.4743.86836 1.6961 1.69609c.2218.8278-.0148 1.711-.6208 2.317l-1.5988 1.5988-.0005.0005c-.4797.4786-1.1408.73-1.8173.6911-.4411-.0254-.8192.3116-.8446.7527s.3117.8193.7528.8447c1.1318.0651 2.2376-.3557 3.0399-1.1566l.0005-.0005 1.5994-1.5993c1.0101-1.0102 1.4047-2.4826 1.0349-3.8625-.3697-1.37989-1.4476-2.45773-2.8275-2.82747z" fill="#117cb6" fill-rule="evenodd"/></svg>