<svg width="1010" height="55" viewBox="0 0 1010 55" fill="none" xmlns="http://www.w3.org/2000/svg">
<path d="M26.1789 0C30.1629 0 33.7629 0.721784 36.9789 2.16535C40.1949 3.5608 42.8349 5.50962 44.8989 8.01181C46.9629 10.514 48.3069 13.3771 48.9309 16.601C49.0749 17.1785 49.1469 17.6356 49.1469 17.9724C49.1469 18.4055 49.0509 18.6942 48.8589 18.8386C48.7149 18.9829 48.4269 19.0792 47.9949 19.1273L35.3949 19.9213C34.9149 19.9213 34.6029 19.8491 34.4589 19.7047C34.3149 19.5122 34.1709 19.1273 34.0269 18.5499C33.5949 16.2402 32.8029 14.4357 31.6509 13.1365C30.4989 11.7891 28.8189 11.1155 26.6109 11.1155C23.7789 11.1155 21.5949 12.3666 20.0589 14.8688C18.5229 17.371 17.7549 21.437 17.7549 27.0669C17.7549 32.8893 18.4509 37.0276 19.8429 39.4816C21.2829 41.9357 23.5149 43.1627 26.5389 43.1627C29.0829 43.1627 31.2429 42.5131 33.0189 41.2139C34.8429 39.9147 36.3549 37.7493 37.5549 34.7178C37.6989 34.2848 38.1069 34.0682 38.7789 34.0682C39.1149 34.0682 39.3789 34.0923 39.5709 34.1404L48.5709 35.9449C49.2909 36.1855 49.6509 36.7388 49.6509 37.605C49.6509 38.9523 48.8109 41.0455 47.1309 43.8845C45.4989 46.6754 42.9069 49.2257 39.3549 51.5354C35.8509 53.8451 31.4109 55 26.0349 55C20.9469 55 16.4829 53.797 12.6429 51.3911C8.80287 48.937 5.82687 45.5927 3.71487 41.3583C1.65087 37.0757 0.618866 32.2157 0.618866 26.7782C0.618866 21.3889 1.65087 16.6732 3.71487 12.6312C5.82687 8.58924 8.80287 5.48556 12.6429 3.32021C16.5309 1.10674 21.0429 0 26.1789 0Z" fill="black"/>
<path d="M102.737 51.9685C102.833 52.161 102.881 52.4256 102.881 52.7625C102.881 53.1955 102.737 53.5564 102.449 53.8451C102.209 54.1339 101.873 54.2782 101.441 54.2782H87.4728C86.4648 54.2782 85.8168 53.773 85.5288 52.7625L78.7608 34.1404C78.6168 33.7555 78.3768 33.4668 78.0408 33.2743C77.7048 33.0818 77.2008 32.9856 76.5288 32.9856H73.2168C72.9288 32.9856 72.7128 33.0818 72.5688 33.2743C72.4248 33.4668 72.3528 33.6352 72.3528 33.7795V52.185C72.3528 52.9549 72.1608 53.5083 71.7768 53.8451C71.3928 54.1339 70.7928 54.2782 69.9768 54.2782H57.8808C57.1608 54.2782 56.6568 54.1339 56.3688 53.8451C56.1288 53.5564 56.0088 53.0993 56.0088 52.4737V2.38189C56.0088 1.27515 56.4648 0.721784 57.3768 0.721784H81.4248C88.3848 0.721784 93.7848 2.06912 97.6248 4.76378C101.465 7.41032 103.385 11.1636 103.385 16.0236C103.385 19.3438 102.497 22.3031 100.721 24.9016C98.9928 27.5 96.7368 29.3285 93.9528 30.3871C93.6648 30.5315 93.5208 30.7721 93.5208 31.1089C93.5208 31.2533 93.5688 31.4698 93.6648 31.7585L102.737 51.9685ZM80.7768 22.231C82.6008 22.231 83.9928 21.7738 84.9528 20.8596C85.9608 19.8972 86.4648 18.622 86.4648 17.0341C86.4648 15.2537 85.8648 13.8823 84.6648 12.9199C83.5128 11.9094 82.0728 11.4042 80.3448 11.4042H74.0088C73.3848 11.4042 72.9528 11.5245 72.7128 11.7651C72.4728 11.9576 72.3528 12.3185 72.3528 12.8478V20.7152C72.3528 21.2445 72.4248 21.6295 72.5688 21.8701C72.7608 22.1107 73.0968 22.231 73.5768 22.231H80.7768Z" fill="black"/>
<path d="M109.955 2.38189C109.955 1.27515 110.411 0.721784 111.323 0.721784H150.203C151.067 0.721784 151.499 1.22703 151.499 2.23753L151.427 10.6102C151.427 11.9094 150.803 12.5591 149.555 12.5591H127.955C126.851 12.5591 126.299 13.0162 126.299 13.9304V20.0656C126.299 20.5468 126.419 20.9318 126.659 21.2205C126.899 21.4611 127.211 21.5814 127.595 21.5814H140.555C141.563 21.5814 142.067 22.0626 142.067 23.0249V31.9751C142.067 32.7931 141.635 33.2021 140.771 33.2021H127.451C127.115 33.2021 126.827 33.2983 126.587 33.4908C126.395 33.6833 126.299 33.9239 126.299 34.2126V41.4304C126.299 41.8154 126.347 42.0801 126.443 42.2244C126.587 42.3688 126.827 42.4409 127.163 42.4409H150.563C151.619 42.4409 152.147 42.8981 152.147 43.8123V52.6903C152.147 53.1715 152.003 53.5564 151.715 53.8451C151.427 54.1339 150.995 54.2782 150.419 54.2782H111.899C111.179 54.2782 110.675 54.1339 110.387 53.8451C110.099 53.5564 109.955 53.0993 109.955 52.4737V2.38189Z" fill="black"/>
<path d="M158.332 54.2782C157.948 54.2782 157.636 54.1579 157.396 53.9173C157.156 53.6286 157.036 53.2437 157.036 52.7625C157.036 52.4256 157.108 52.0407 157.252 51.6076L174.676 2.38189C174.916 1.75634 175.18 1.32327 175.468 1.08268C175.756 0.842082 176.212 0.721784 176.836 0.721784H191.02C191.596 0.721784 192.1 0.914261 192.532 1.29921C193.012 1.63605 193.372 2.09317 193.612 2.6706L210.892 51.8241C210.988 52.2091 211.036 52.4978 211.036 52.6903C211.036 53.1234 210.94 53.5083 210.748 53.8451C210.556 54.1339 210.268 54.2782 209.884 54.2782H195.772C194.956 54.2782 194.428 53.8692 194.188 53.0512L191.38 44.7506C191.236 44.4138 191.092 44.1973 190.948 44.101C190.852 43.9567 190.636 43.8845 190.3 43.8845H175.036C174.46 43.8845 174.1 44.1492 173.956 44.6785L171.004 53.1955C170.716 53.9173 170.14 54.2782 169.276 54.2782H158.332ZM186.7 31.6142C187.228 31.6142 187.492 31.3736 187.492 30.8924C187.492 30.7962 187.444 30.5556 187.348 30.1706L183.028 17.8281C182.932 17.5875 182.788 17.4672 182.596 17.4672C182.404 17.4672 182.26 17.5875 182.164 17.8281L177.772 30.0984C177.676 30.2909 177.628 30.5315 177.628 30.8202C177.628 31.3495 177.916 31.6142 178.492 31.6142H186.7Z" fill="black"/>
<path d="M206.839 2.38189C206.839 1.9007 206.983 1.51575 207.271 1.22703C207.607 0.890201 208.063 0.721784 208.639 0.721784H251.695C252.271 0.721784 252.703 0.890201 252.991 1.22703C253.327 1.51575 253.495 1.9007 253.495 2.38189V10.9711C253.495 11.8854 252.967 12.3425 251.911 12.3425H239.167C238.591 12.3425 238.303 12.5831 238.303 13.0643V52.6903C238.303 53.2196 238.183 53.6286 237.943 53.9173C237.703 54.1579 237.367 54.2782 236.935 54.2782H223.255C222.391 54.2782 221.959 53.797 221.959 52.8346V13.353C221.959 12.6794 221.695 12.3425 221.167 12.3425H208.495C207.391 12.3425 206.839 11.8854 206.839 10.9711V2.38189Z" fill="black"/>
<path d="M281.508 55C276.276 55 271.692 53.8933 267.756 51.6798C263.868 49.4182 260.868 46.2423 258.756 42.1522C256.644 38.014 255.588 33.178 255.588 27.6444C255.588 22.1107 256.644 17.2747 258.756 13.1365C260.916 8.95013 263.94 5.72616 267.828 3.46457C271.764 1.15486 276.324 0 281.508 0C286.644 0 291.156 1.15486 295.044 3.46457C298.932 5.72616 301.932 8.95013 304.044 13.1365C306.204 17.2747 307.284 22.1107 307.284 27.6444C307.284 33.1299 306.228 37.9418 304.116 42.0801C302.004 46.2183 299.004 49.4182 295.116 51.6798C291.228 53.8933 286.692 55 281.508 55ZM281.508 43.7402C283.62 43.7402 285.3 43.2349 286.548 42.2244C287.796 41.1658 288.708 39.4816 289.284 37.1719C289.86 34.8622 290.148 31.7585 290.148 27.8609C290.148 21.8941 289.476 17.6115 288.132 15.0131C286.788 12.4147 284.58 11.1155 281.508 11.1155C278.388 11.1155 276.132 12.4147 274.74 15.0131C273.396 17.6115 272.724 21.8941 272.724 27.8609C272.724 31.7585 273.012 34.8622 273.588 37.1719C274.164 39.4816 275.076 41.1658 276.324 42.2244C277.62 43.2349 279.348 43.7402 281.508 43.7402Z" fill="black"/>
<path d="M360.727 51.9685C360.823 52.161 360.871 52.4256 360.871 52.7625C360.871 53.1955 360.727 53.5564 360.439 53.8451C360.199 54.1339 359.863 54.2782 359.431 54.2782H345.463C344.455 54.2782 343.807 53.773 343.519 52.7625L336.751 34.1404C336.607 33.7555 336.367 33.4668 336.031 33.2743C335.695 33.0818 335.191 32.9856 334.519 32.9856H331.207C330.919 32.9856 330.703 33.0818 330.559 33.2743C330.415 33.4668 330.343 33.6352 330.343 33.7795V52.185C330.343 52.9549 330.151 53.5083 329.767 53.8451C329.383 54.1339 328.783 54.2782 327.967 54.2782H315.871C315.151 54.2782 314.647 54.1339 314.359 53.8451C314.119 53.5564 313.999 53.0993 313.999 52.4737V2.38189C313.999 1.27515 314.455 0.721784 315.367 0.721784H339.415C346.375 0.721784 351.775 2.06912 355.615 4.76378C359.455 7.41032 361.375 11.1636 361.375 16.0236C361.375 19.3438 360.487 22.3031 358.711 24.9016C356.983 27.5 354.727 29.3285 351.943 30.3871C351.655 30.5315 351.511 30.7721 351.511 31.1089C351.511 31.2533 351.559 31.4698 351.655 31.7585L360.727 51.9685ZM338.767 22.231C340.591 22.231 341.983 21.7738 342.943 20.8596C343.951 19.8972 344.455 18.622 344.455 17.0341C344.455 15.2537 343.855 13.8823 342.655 12.9199C341.503 11.9094 340.063 11.4042 338.335 11.4042H331.999C331.375 11.4042 330.943 11.5245 330.703 11.7651C330.463 11.9576 330.343 12.3185 330.343 12.8478V20.7152C330.343 21.2445 330.415 21.6295 330.559 21.8701C330.751 22.1107 331.087 22.231 331.567 22.231H338.767Z" fill="black"/>
<path d="M399.77 15.0853C398.618 13.8342 397.37 12.8718 396.026 12.1982C394.73 11.5245 392.834 11.1877 390.338 11.1877C387.842 11.1877 385.994 11.5486 384.794 12.2703C383.594 12.9921 382.994 13.8583 382.994 14.8688C382.994 16.601 384.53 17.8281 387.602 18.5499L399.554 21.6535C403.922 22.7603 407.21 24.7091 409.418 27.5C411.626 30.2428 412.73 33.5389 412.73 37.3885C412.73 40.9493 411.794 44.0529 409.922 46.6995C408.05 49.346 405.362 51.3911 401.858 52.8346C398.402 54.2782 394.346 55 389.69 55C384.41 55 379.586 54.1339 375.218 52.4016C370.898 50.6212 367.898 48.3115 366.218 45.4724C365.978 44.9912 365.858 44.6304 365.858 44.3898C365.858 43.9086 366.122 43.4755 366.65 43.0905L374.066 37.9659C374.594 37.629 375.074 37.4606 375.506 37.4606C376.034 37.4606 376.466 37.6772 376.802 38.1102C378.434 40.2275 380.09 41.7192 381.77 42.5853C383.45 43.4514 385.682 43.8845 388.466 43.8845C391.154 43.8845 393.266 43.5236 394.802 42.8018C396.386 42.0319 397.178 40.9974 397.178 39.6982C397.178 38.7839 396.794 37.9899 396.026 37.3163C395.258 36.6426 394.13 36.1374 392.642 35.8005L381.698 33.1299C377.378 32.0713 373.946 30.0984 371.402 27.2113C368.858 24.276 367.586 20.9077 367.586 17.1063C367.586 13.9786 368.498 11.1155 370.322 8.51706C372.146 5.87052 374.738 3.8014 378.098 2.30971C381.458 0.769904 385.346 0 389.762 0C394.082 0 398.09 0.721784 401.786 2.16535C405.482 3.5608 408.146 5.43745 409.778 7.79527C410.114 8.22834 410.282 8.63736 410.282 9.02231C410.282 9.35914 410.114 9.67192 409.778 9.96063L401.93 15.6627C401.69 15.8552 401.426 15.9514 401.138 15.9514C400.802 15.9514 400.346 15.6627 399.77 15.0853Z" fill="black"/>
<path d="M458.692 55C453.46 55 448.876 53.8933 444.94 51.6798C441.052 49.4182 438.052 46.2423 435.94 42.1522C433.828 38.014 432.772 33.178 432.772 27.6444C432.772 22.1107 433.828 17.2747 435.94 13.1365C438.1 8.95013 441.124 5.72616 445.012 3.46457C448.948 1.15486 453.508 0 458.692 0C463.828 0 468.34 1.15486 472.228 3.46457C476.116 5.72616 479.116 8.95013 481.228 13.1365C483.388 17.2747 484.468 22.1107 484.468 27.6444C484.468 33.1299 483.412 37.9418 481.3 42.0801C479.188 46.2183 476.188 49.4182 472.3 51.6798C468.412 53.8933 463.876 55 458.692 55ZM458.692 43.7402C460.804 43.7402 462.484 43.2349 463.732 42.2244C464.98 41.1658 465.892 39.4816 466.468 37.1719C467.044 34.8622 467.332 31.7585 467.332 27.8609C467.332 21.8941 466.66 17.6115 465.316 15.0131C463.972 12.4147 461.764 11.1155 458.692 11.1155C455.572 11.1155 453.316 12.4147 451.924 15.0131C450.58 17.6115 449.908 21.8941 449.908 27.8609C449.908 31.7585 450.196 34.8622 450.772 37.1719C451.348 39.4816 452.26 41.1658 453.508 42.2244C454.804 43.2349 456.532 43.7402 458.692 43.7402Z" fill="black"/>
<path d="M491.184 2.38189C491.184 1.85258 491.304 1.44357 491.544 1.15485C491.784 0.866141 492.12 0.721784 492.552 0.721784H530.928C531.792 0.721784 532.224 1.22703 532.224 2.23753L532.152 10.6102C532.152 11.9094 531.552 12.5591 530.352 12.5591H509.184C508.08 12.5591 507.528 13.0162 507.528 13.9304V20.7152C507.528 21.6776 507.96 22.1588 508.824 22.1588H522C522.96 22.1588 523.44 22.64 523.44 23.6024V32.4081C523.44 33.2262 523.008 33.6352 522.144 33.6352H508.68C508.344 33.6352 508.056 33.7314 507.816 33.9239C507.624 34.1164 507.528 34.381 507.528 34.7178V52.185C507.528 52.9549 507.336 53.5083 506.952 53.8451C506.568 54.1339 505.968 54.2782 505.152 54.2782H493.128C492.408 54.2782 491.904 54.1339 491.616 53.8451C491.328 53.5564 491.184 53.0993 491.184 52.4737V2.38189Z" fill="black"/>
<path d="M552.138 2.38189C552.138 1.9007 552.282 1.51575 552.57 1.22703C552.906 0.890201 553.362 0.721784 553.938 0.721784H596.994C597.57 0.721784 598.002 0.890201 598.29 1.22703C598.626 1.51575 598.794 1.9007 598.794 2.38189V10.9711C598.794 11.8854 598.266 12.3425 597.21 12.3425H584.466C583.89 12.3425 583.602 12.5831 583.602 13.0643V52.6903C583.602 53.2196 583.482 53.6286 583.242 53.9173C583.002 54.1579 582.666 54.2782 582.234 54.2782H568.554C567.69 54.2782 567.258 53.797 567.258 52.8346V13.353C567.258 12.6794 566.994 12.3425 566.466 12.3425H553.794C552.69 12.3425 552.138 11.8854 552.138 10.9711V2.38189Z" fill="black"/>
<path d="M622.778 32.8412C622.442 32.8412 622.154 32.9615 621.914 33.2021C621.722 33.3946 621.626 33.6352 621.626 33.9239V52.185C621.626 52.9549 621.434 53.5083 621.05 53.8451C620.666 54.1339 620.066 54.2782 619.25 54.2782H607.226C606.506 54.2782 606.002 54.1339 605.714 53.8451C605.426 53.5564 605.282 53.0993 605.282 52.4737V2.38189C605.282 1.85258 605.402 1.44357 605.642 1.15485C605.882 0.866141 606.218 0.721784 606.65 0.721784H620.33C620.714 0.721784 621.026 0.866141 621.266 1.15485C621.506 1.39545 621.626 1.75635 621.626 2.23753V18.9829C621.626 19.9453 622.058 20.4265 622.922 20.4265H635.018C635.882 20.4265 636.314 19.9453 636.314 18.9829V2.23753C636.314 1.75635 636.434 1.39545 636.674 1.15485C636.914 0.866141 637.226 0.721784 637.61 0.721784H651.29C651.722 0.721784 652.058 0.866141 652.298 1.15485C652.538 1.44357 652.658 1.85258 652.658 2.38189V52.4737C652.658 53.0993 652.514 53.5564 652.226 53.8451C651.938 54.1339 651.434 54.2782 650.714 54.2782H638.69C637.874 54.2782 637.274 54.1339 636.89 53.8451C636.506 53.5083 636.314 52.9549 636.314 52.185V33.9239C636.314 33.6352 636.194 33.3946 635.954 33.2021C635.762 32.9615 635.498 32.8412 635.162 32.8412H622.778Z" fill="black"/>
<path d="M660.845 2.38189C660.845 1.27515 661.301 0.721784 662.213 0.721784H701.093C701.957 0.721784 702.389 1.22703 702.389 2.23753L702.317 10.6102C702.317 11.9094 701.693 12.5591 700.445 12.5591H678.845C677.741 12.5591 677.189 13.0162 677.189 13.9304V20.0656C677.189 20.5468 677.309 20.9318 677.549 21.2205C677.789 21.4611 678.101 21.5814 678.485 21.5814H691.445C692.453 21.5814 692.957 22.0626 692.957 23.0249V31.9751C692.957 32.7931 692.525 33.2021 691.661 33.2021H678.341C678.005 33.2021 677.717 33.2983 677.477 33.4908C677.285 33.6833 677.189 33.9239 677.189 34.2126V41.4304C677.189 41.8154 677.237 42.0801 677.333 42.2244C677.477 42.3688 677.717 42.4409 678.053 42.4409H701.453C702.509 42.4409 703.037 42.8981 703.037 43.8123V52.6903C703.037 53.1715 702.893 53.5564 702.605 53.8451C702.317 54.1339 701.885 54.2782 701.309 54.2782H662.789C662.069 54.2782 661.565 54.1339 661.277 53.8451C660.989 53.5564 660.845 53.0993 660.845 52.4737V2.38189Z" fill="black"/>
<path d="M797.004 0.721784C797.724 0.721784 798.276 0.914261 798.66 1.29921C799.092 1.63605 799.308 2.11723 799.308 2.74278C799.308 2.93526 799.26 3.22397 799.164 3.60892L784.548 52.4737C784.308 53.0993 783.996 53.5564 783.612 53.8451C783.228 54.1339 782.676 54.2782 781.956 54.2782H772.02C770.628 54.2782 769.764 53.6767 769.428 52.4737L761.94 27.0669C761.796 26.4414 761.628 26.1286 761.436 26.1286C761.292 26.1286 761.076 26.4895 760.788 27.2113L753.372 52.4737C753.18 53.0993 752.868 53.5564 752.436 53.8451C752.052 54.1339 751.5 54.2782 750.78 54.2782H740.484C739.764 54.2782 739.212 54.1339 738.828 53.8451C738.444 53.5564 738.132 53.0993 737.892 52.4737L723.204 3.60892C723.108 3.22397 723.06 2.93526 723.06 2.74278C723.06 2.11723 723.252 1.63605 723.636 1.29921C724.068 0.914261 724.644 0.721784 725.364 0.721784H737.244C737.964 0.721784 738.492 0.842082 738.828 1.08268C739.164 1.32327 739.404 1.70822 739.548 2.23753L747.18 29.0157C747.324 29.5932 747.492 29.8819 747.684 29.8819C747.828 29.8819 747.948 29.6894 748.044 29.3045L755.604 2.23753C755.844 1.22703 756.612 0.721784 757.908 0.721784H767.988C768.708 0.721784 769.236 0.842082 769.572 1.08268C769.908 1.32327 770.148 1.70822 770.292 2.23753L778.212 29.6654C778.308 29.9541 778.452 30.1225 778.644 30.1706C778.836 30.2187 778.956 30.0984 779.004 29.8097L786.348 2.23753C786.588 1.22703 787.356 0.721784 788.652 0.721784H797.004Z" fill="black"/>
<path d="M826.421 55C821.189 55 816.605 53.8933 812.669 51.6798C808.781 49.4182 805.781 46.2423 803.669 42.1522C801.557 38.014 800.501 33.178 800.501 27.6444C800.501 22.1107 801.557 17.2747 803.669 13.1365C805.829 8.95013 808.853 5.72616 812.741 3.46457C816.677 1.15486 821.237 0 826.421 0C831.557 0 836.069 1.15486 839.957 3.46457C843.845 5.72616 846.845 8.95013 848.957 13.1365C851.117 17.2747 852.197 22.1107 852.197 27.6444C852.197 33.1299 851.141 37.9418 849.029 42.0801C846.917 46.2183 843.917 49.4182 840.029 51.6798C836.141 53.8933 831.605 55 826.421 55ZM826.421 43.7402C828.533 43.7402 830.213 43.2349 831.461 42.2244C832.709 41.1658 833.621 39.4816 834.197 37.1719C834.773 34.8622 835.061 31.7585 835.061 27.8609C835.061 21.8941 834.389 17.6115 833.045 15.0131C831.701 12.4147 829.493 11.1155 826.421 11.1155C823.301 11.1155 821.045 12.4147 819.653 15.0131C818.309 17.6115 817.637 21.8941 817.637 27.8609C817.637 31.7585 817.925 34.8622 818.501 37.1719C819.077 39.4816 819.989 41.1658 821.237 42.2244C822.533 43.2349 824.261 43.7402 826.421 43.7402Z" fill="black"/>
<path d="M905.641 51.9685C905.737 52.161 905.785 52.4256 905.785 52.7625C905.785 53.1955 905.641 53.5564 905.353 53.8451C905.113 54.1339 904.777 54.2782 904.345 54.2782H890.377C889.369 54.2782 888.721 53.773 888.433 52.7625L881.665 34.1404C881.521 33.7555 881.281 33.4668 880.945 33.2743C880.609 33.0818 880.105 32.9856 879.433 32.9856H876.121C875.833 32.9856 875.617 33.0818 875.473 33.2743C875.329 33.4668 875.257 33.6352 875.257 33.7795V52.185C875.257 52.9549 875.065 53.5083 874.681 53.8451C874.297 54.1339 873.697 54.2782 872.881 54.2782H860.785C860.065 54.2782 859.561 54.1339 859.273 53.8451C859.033 53.5564 858.913 53.0993 858.913 52.4737V2.38189C858.913 1.27515 859.369 0.721784 860.281 0.721784H884.329C891.289 0.721784 896.689 2.06912 900.529 4.76378C904.369 7.41032 906.289 11.1636 906.289 16.0236C906.289 19.3438 905.401 22.3031 903.625 24.9016C901.897 27.5 899.641 29.3285 896.857 30.3871C896.569 30.5315 896.425 30.7721 896.425 31.1089C896.425 31.2533 896.473 31.4698 896.569 31.7585L905.641 51.9685ZM883.681 22.231C885.505 22.231 886.897 21.7738 887.857 20.8596C888.865 19.8972 889.369 18.622 889.369 17.0341C889.369 15.2537 888.769 13.8823 887.569 12.9199C886.417 11.9094 884.977 11.4042 883.249 11.4042H876.913C876.289 11.4042 875.857 11.5245 875.617 11.7651C875.377 11.9576 875.257 12.3185 875.257 12.8478V20.7152C875.257 21.2445 875.329 21.6295 875.473 21.8701C875.665 22.1107 876.001 22.231 876.481 22.231H883.681Z" fill="black"/>
<path d="M912.859 2.38189C912.859 1.85258 912.979 1.44357 913.219 1.15485C913.459 0.866141 913.795 0.721784 914.227 0.721784H927.907C928.771 0.721784 929.203 1.22703 929.203 2.23753V41.4304C929.203 41.8154 929.251 42.0801 929.347 42.2244C929.491 42.3688 929.731 42.4409 930.067 42.4409H951.739C952.843 42.4409 953.395 42.8981 953.395 43.8123V52.6903C953.395 53.1715 953.227 53.5564 952.891 53.8451C952.603 54.1339 952.171 54.2782 951.595 54.2782H914.803C914.083 54.2782 913.579 54.1339 913.291 53.8451C913.003 53.5564 912.859 53.0993 912.859 52.4737V2.38189Z" fill="black"/>
<path d="M970.285 0.721784C975.997 0.721784 979.549 0.745844 980.941 0.793962C990.301 1.1308 997.381 3.6811 1002.18 8.44488C1006.98 13.1605 1009.38 19.4641 1009.38 27.3556C1009.38 32.6487 1008.3 37.3163 1006.14 41.3583C1003.98 45.4003 1000.77 48.5761 996.493 50.8858C992.221 53.1474 987.013 54.2782 980.869 54.2782H961.933C961.213 54.2782 960.685 54.1098 960.349 53.773C960.013 53.4361 959.845 52.8828 959.845 52.1129V2.52625C959.845 1.85258 959.989 1.39545 960.277 1.15485C960.565 0.866141 961.069 0.721784 961.789 0.721784H970.285ZM976.909 12.0538C976.669 12.0538 976.477 12.126 976.333 12.2703C976.237 12.4147 976.189 12.6793 976.189 13.0643V41.8635C976.189 42.2966 976.261 42.5853 976.405 42.7297C976.549 42.874 976.813 42.9462 977.197 42.9462H977.701C982.453 42.9462 986.053 41.7192 988.501 39.2651C990.997 36.7629 992.245 32.7209 992.245 27.1391C992.245 22.3272 991.309 18.7423 989.437 16.3845C987.565 14.0267 984.829 12.6794 981.229 12.3425L976.909 12.0538Z" fill="black"/>
</svg>
