<svg width="261" height="291" viewBox="0 0 261 291" fill="none" xmlns="http://www.w3.org/2000/svg">
<path d="M130.77 41.3835C141.496 36.1715 148.619 30.3264 152.249 24.3221C155.322 19.2378 155.705 14.2804 153.775 10.2022C152.023 6.49913 148.463 3.85508 144.363 3.1738C139.986 2.44661 135.532 4.00067 132.001 7.84931L130.77 9.19071L129.539 7.84931C126.008 4.00067 121.554 2.44661 117.177 3.1738C113.077 3.85508 109.517 6.49913 107.765 10.2022C105.835 14.2804 106.218 19.2378 109.291 24.3221C112.921 30.3264 120.045 36.1715 130.77 41.3835Z" fill="white" stroke="#BF0020" stroke-width="4.04037" stroke-linecap="round" stroke-linejoin="round"/>
<path d="M129.678 26.7351L126.76 28.2413C126.462 28.3952 126.093 28.2828 125.936 27.9901C125.873 27.8735 125.852 27.74 125.875 27.6102L126.432 24.4185C126.563 23.6716 126.31 22.9096 125.758 22.3805L123.396 20.1201C123.155 19.8892 123.15 19.5101 123.385 19.2734C123.479 19.1791 123.601 19.1178 123.734 19.0989L126.997 18.6333C127.761 18.5243 128.422 18.0531 128.764 17.3732L130.223 14.4702C130.372 14.1737 130.738 14.0518 131.04 14.1982C131.16 14.2564 131.258 14.3521 131.317 14.4702L132.776 17.3732C133.118 18.0531 133.779 18.5243 134.543 18.6333L137.806 19.0989C138.139 19.1464 138.37 19.4503 138.322 19.7775C138.303 19.9078 138.24 20.0282 138.144 20.1201L135.782 22.3805C135.23 22.9096 134.977 23.6716 135.108 24.4185L135.665 27.6102C135.722 27.9361 135.499 28.2456 135.167 28.3015C135.035 28.3238 134.899 28.3026 134.78 28.2413L131.862 26.7351C131.178 26.3822 130.361 26.3822 129.678 26.7351Z" fill="#18A1E6"/>
<path d="M150.225 102.301L150.761 102.93L151.647 104.825L151.875 106.76L151.448 108.677L150.387 110.517L148.879 112.079L148.732 112.231L147.241 113.275" stroke="#21A8DD" stroke-width="0.693238" stroke-linecap="round" stroke-linejoin="round"/>
<path d="M112.372 112.624L111.811 112.232L111.393 111.798" stroke="#21A8DD" stroke-width="0.693238" stroke-linecap="round" stroke-linejoin="round"/>
<path d="M110.333 110.7L110.157 110.516L109.895 110.063" stroke="#21A8DD" stroke-width="0.693238" stroke-linecap="round" stroke-linejoin="round"/>
<path d="M109.743 103.014L109.782 102.93L109.811 102.896" stroke="#21A8DD" stroke-width="0.693238" stroke-linecap="round" stroke-linejoin="round"/>
<path d="M111.231 101.228L111.307 101.139L111.413 101.057" stroke="#21A8DD" stroke-width="0.693238" stroke-linecap="round" stroke-linejoin="round"/>
<path d="M113.411 99.5205L113.431 99.5047L113.489 99.4741" stroke="#21A8DD" stroke-width="0.693238" stroke-linecap="round" stroke-linejoin="round"/>
<path d="M125.963 95.6051L126.418 95.5409L126.619 95.5317" stroke="#21A8DD" stroke-width="0.693238" stroke-linecap="round" stroke-linejoin="round"/>
<path d="M129.651 95.391L130.271 95.3623L130.891 95.391" stroke="#21A8DD" stroke-width="0.693238" stroke-linecap="round" stroke-linejoin="round"/>
<path d="M133.643 95.5186L134.125 95.5407L135.213 95.6946" stroke="#21A8DD" stroke-width="0.693238" stroke-linecap="round" stroke-linejoin="round"/>
<path d="M137.609 96.0337L137.852 96.068L139.919 96.578" stroke="#21A8DD" stroke-width="0.693238" stroke-linecap="round" stroke-linejoin="round"/>
<path d="M141.576 97.0171L142.369 97.3119L142.37 97.3121L142.378 97.3154L144.413 98.0718L144.45 98.0854L144.721 98.23" stroke="#21A8DD" stroke-width="0.693238" stroke-linecap="round" stroke-linejoin="round"/>
<path d="M145.47 98.6284L147.112 99.5033L147.684 99.9441" stroke="#21A8DD" stroke-width="0.693238" stroke-linecap="round" stroke-linejoin="round"/>
<path d="M148.226 100.361L149.236 101.139L149.96 101.99" stroke="#21A8DD" stroke-width="0.693238" stroke-linecap="round" stroke-linejoin="round"/>
<path d="M116.318 115.8L115.824 115.53L114.164 114.13L113.902 113.909L113.62 113.498L113.612 113.485L112.672 112.112L112.197 110.216L112.507 108.304L113.394 106.805L113.6 106.457L115.196 104.985L115.438 104.763L117.312 103.667L117.945 103.296L119.974 102.524L121.014 102.128L123.129 101.636L124.507 101.316L126.665 101.077L128.265 100.899H130.436H132.113L134.271 101.139L135.871 101.316L137.985 101.807L139.365 102.128L141.394 102.9L142.434 103.296L144.308 104.392L144.942 104.763L146.538 106.234L146.78 106.457L146.988 106.808L147.874 108.304L148.185 110.216L147.711 112.112L146.771 113.487L146.616 113.712L146.482 113.909L144.822 115.309L144.561 115.53L144.058 115.805" stroke="#21A8DD" stroke-width="0.693238" stroke-linecap="round" stroke-linejoin="round"/>
<path d="M150.225 102.302L150.146 102.165L149.96 101.99L148.378 100.504L148.226 100.362L147.95 100.103L147.684 99.9449L145.818 98.8359L145.47 98.6292L144.941 98.3149L144.721 98.2302L142.696 97.4491L142.432 97.3475L142.423 97.3438L142.422 97.3436L141.576 97.0173L141.249 96.8916L139.92 96.5783L137.806 96.0805L137.609 96.034L137.041 95.9001L135.213 95.6949L133.643 95.5188L132.509 95.3916H130.891H129.651H127.868L126.619 95.5318L125.963 95.6052L123.806 95.8475L123.337 95.9001L121.224 96.3979L119.129 96.8916L117.951 97.3457L115.925 98.1271L115.437 98.3149L113.571 99.4242L113.487 99.4742L113.411 99.5196L112.43 100.103L111.413 101.058L111.231 101.229L110.234 102.165L109.811 102.897" stroke="#21A8DD" stroke-width="0.693238" stroke-linecap="round" stroke-linejoin="round"/>
<path d="M109.743 103.014L108.939 104.405L108.612 106.551L108.586 106.724L109.127 108.826L109.177 109.02L109.895 110.063" stroke="#21A8DD" stroke-width="0.693238" stroke-linecap="round" stroke-linejoin="round"/>
<path d="M110.333 110.7L110.669 111.187L111.393 111.798L112.372 112.623L112.986 113.142" stroke="#21A8DD" stroke-width="0.693238" stroke-linecap="round" stroke-linejoin="round"/>
<path d="M112.986 113.142L114.648 114.54L115.824 115.53" stroke="#21A8DD" stroke-width="0.693238" stroke-linecap="round" stroke-linejoin="round"/>
<path d="M113.612 113.485L115.212 114.363L116.02 114.806L116.327 114.917" stroke="#21A8DD" stroke-width="0.693238" stroke-linecap="round" stroke-linejoin="round"/>
<path d="M127.878 117.456L127.994 117.468H128.25" stroke="#21A8DD" stroke-width="0.693238" stroke-linecap="round" stroke-linejoin="round"/>
<path d="M132.771 119.05L132.033 119.128H131.873" stroke="#21A8DD" stroke-width="0.693238" stroke-linecap="round" stroke-linejoin="round"/>
<path d="M132.294 117.469H132.393L132.463 117.461" stroke="#21A8DD" stroke-width="0.693238" stroke-linecap="round" stroke-linejoin="round"/>
<path d="M144.366 114.806L146.27 113.762L146.771 113.487" stroke="#21A8DD" stroke-width="0.693238" stroke-linecap="round" stroke-linejoin="round"/>
<path d="M144.561 115.53L146.222 114.132L147.241 113.275L147.399 113.142" stroke="#21A8DD" stroke-width="0.693238" stroke-linecap="round" stroke-linejoin="round"/>
<path d="M147.399 113.142L149.058 111.742L149.716 111.187" stroke="#21A8DD" stroke-width="0.693238" stroke-linecap="round" stroke-linejoin="round"/>
<path d="M222.954 211.741L222.852 210.092L221.983 208.103L221.113 206.114L220.243 204.124L220.146 203.903L218.653 202.328L217.606 201.224L216.255 199.8L214.762 198.224L214.438 197.883L212.616 196.703L212.061 196.344L210.239 195.164L208.417 193.984L207.675 193.504L205.853 192.324L205.759 192.263L203.768 191.397L201.777 190.531L199.787 189.665L197.796 188.799L195.805 187.933L194.281 187.271L192.2 186.654L190.118 186.037L188.037 185.419L185.956 184.802L183.874 184.185L181.793 183.568L180.327 183.134L178.195 182.722L176.063 182.31L173.932 181.898L171.8 181.486L169.669 181.074L167.537 180.662L165.406 180.25L164.368 180.05L162.21 179.817L160.051 179.585L157.893 179.352L155.734 179.12L153.576 178.888L151.417 178.655L149.259 178.423L147.011 178.181L144.841 178.114L142.671 178.046L140.502 177.979L138.332 177.912L136.161 177.845L133.992 177.778L131.822 177.711L129.652 177.643L128.961 177.622L126.792 177.716L124.623 177.81L122.454 177.904L120.285 177.998L118.116 178.092L115.947 178.186L113.778 178.28L111.609 178.374L110.974 178.402L108.818 178.663L106.663 178.924L104.508 179.185L102.353 179.445L100.197 179.706L98.0421 179.967L95.8867 180.228L93.7988 180.481L91.6734 180.924L89.5482 181.367L87.4228 181.81L85.2976 182.253L83.1722 182.696L81.047 183.139L78.9216 183.582L78.1289 183.748L76.0591 184.402L73.989 185.057L71.9192 185.711L69.8491 186.366L67.7791 187.021L65.7092 187.675L64.5506 188.042L62.5804 188.954L60.6102 189.866L58.64 190.778L56.67 191.69L54.6998 192.602L53.5112 193.152L52.5434 193.825L50.7612 195.065L48.9788 196.305L47.9984 196.987L46.2162 198.226L45.3091 198.857L43.8932 200.503L43.421 201.052L42.5609 202.051L41.1447 203.697L40.092 204.92L39.3595 206.964L38.627 209.008L37.8943 211.051L37.8709 211.117L37.8557 211.363" stroke="#21A8DD" stroke-width="0.693238" stroke-linecap="round" stroke-linejoin="round"/>
<path d="M35.9092 227.678L35.7739 229.845L35.6389 232.012L35.5038 234.179L35.4157 235.594L35.3918 235.978L35.298 237.481V237.481L35.163 239.648L35.0279 241.815L34.8929 243.981L34.7579 246.148L34.6226 248.315L34.4876 250.482L34.3526 252.648L34.2792 253.827" stroke="#21A8DD" stroke-width="0.693238" stroke-linecap="round" stroke-linejoin="round"/>
<path d="M224.452 227.678L223.374 225.793L223.097 225.311L222.019 223.427L220.94 221.543L220.378 220.559L220.005 220.262L218.309 218.907L216.612 217.552L214.916 216.197L213.219 214.842L211.875 213.768L209.914 212.835L207.954 211.902L205.993 210.97L204.033 210.037L202.072 209.104L200.112 208.171L199.789 208.018L199.094 207.687L197.014 207.063L194.935 206.438L194.001 206.158L191.922 205.534L189.843 204.909L187.764 204.285L185.684 203.661L183.605 203.037L182.497 202.704L180.36 202.318L178.224 201.933L176.087 201.547L173.951 201.161L171.814 200.776L169.678 200.39L167.542 200.004L165.405 199.619L163.269 199.233L162.872 199.161L160.709 198.977L158.546 198.792L156.383 198.607L154.219 198.422L152.056 198.237L149.893 198.053L147.73 197.868L145.567 197.683L143.404 197.498L141.295 197.318H139.124H136.953H134.782H132.611H130.44H128.269H126.098H123.927H121.756H119.585H119.044L116.881 197.503L114.718 197.688L112.555 197.872L110.392 198.057L108.228 198.242L106.065 198.427L103.902 198.612L101.739 198.797L99.5759 198.981L97.4687 199.161L95.3323 199.547L93.1958 199.933L91.0593 200.318L88.9228 200.704L86.7865 201.09L84.65 201.476L82.5135 201.861L80.3771 202.247L78.2406 202.633L77.8461 202.704L75.7669 203.329L73.6875 203.953L71.6084 204.577L69.529 205.202L67.4498 205.826L66.3847 206.146L64.3055 206.77L62.2261 207.395L61.2526 207.687L60.5985 207.998L58.6383 208.931L56.6779 209.864L54.7177 210.797L52.7573 211.73L50.7971 212.663L48.8369 213.597L48.4763 213.768L46.7803 215.123L45.0843 216.479L43.3883 217.834L41.6923 219.189L40.7373 219.953L39.9785 220.559L38.901 222.444L37.8021 224.366L36.7246 226.251L35.9092 227.678" stroke="#21A8DD" stroke-width="0.693238" stroke-linecap="round" stroke-linejoin="round"/>
<path d="M121.294 123.172L121.308 121.001L121.322 118.83L121.327 117.984L121.337 116.52V116.489L121.347 114.922L121.356 113.44L121.366 111.931L121.38 109.76L121.394 107.589L121.402 106.305L121.371 106.14L121.285 105.985L121.148 105.838L120.964 105.704L120.737 105.588L120.475 105.496L120.186 105.426L119.879 105.383L119.563 105.371L119.247 105.383L118.942 105.426L118.657 105.496L118.4 105.588L118.179 105.704L118.002 105.838L117.872 105.985L117.795 106.14L117.773 106.305L117.753 108.476L117.743 109.633L117.735 110.459L117.727 111.399L117.707 113.57L117.691 115.409L117.691 115.438L117.681 116.546L117.661 118.717L117.641 120.887L117.622 123.058L117.61 124.383" stroke="#21A8DD" stroke-width="0.693238" stroke-linecap="round" stroke-linejoin="round"/>
<path d="M117.743 109.632L117.526 109.662L117.244 109.731L116.99 109.821L116.783 109.929L116.772 109.934L116.596 110.066L116.469 110.21L116.393 110.365L116.371 110.523L116.349 112.694L116.328 114.865L116.327 114.913V114.917L116.318 115.8L116.297 117.971L116.275 120.141L116.254 122.312L116.232 124.483L116.226 125.073" stroke="#21A8DD" stroke-width="0.693238" stroke-linecap="round" stroke-linejoin="round"/>
<path d="M124.088 122.579L124.097 120.408L124.105 118.604L124.112 117.062V117.056L124.122 114.885L124.125 114.189L124.095 114.034L124.013 113.884L123.879 113.74L123.699 113.611L123.477 113.502L123.221 113.411L122.938 113.346L122.637 113.305L122.327 113.29L122.018 113.305L121.718 113.346L121.438 113.411L121.356 113.44" stroke="#21A8DD" stroke-width="0.693238" stroke-linecap="round" stroke-linejoin="round"/>
<path d="M131.877 122.143L131.874 119.972L131.873 119.128L131.871 117.487V117.468L131.869 115.649L131.843 115.495L131.764 115.344L131.633 115.204L131.456 115.075L131.237 114.964L131.053 114.901L130.984 114.877L130.703 114.809L130.404 114.769L130.096 114.757L129.787 114.769L129.488 114.809L129.334 114.846L129.207 114.877L128.954 114.964L128.735 115.075L128.558 115.204L128.428 115.344L128.349 115.495L128.322 115.649L128.32 117.468V117.471L128.317 119.124L128.314 121.295L128.313 122.151" stroke="#21A8DD" stroke-width="0.693238" stroke-linecap="round" stroke-linejoin="round"/>
<path d="M139.182 113.64L139.057 113.578L138.805 113.487L138.524 113.419L138.225 113.381L137.916 113.366L137.606 113.381L137.305 113.419L137.022 113.487L136.766 113.578L136.545 113.687L136.441 113.761" stroke="#21A8DD" stroke-width="0.693238" stroke-linecap="round" stroke-linejoin="round"/>
<path d="M144.149 125.072L144.127 122.901L144.106 120.73L144.085 118.559L144.064 116.389L144.058 115.805L144.05 114.996L144.049 114.92L144.028 112.749L144.007 110.64L143.985 110.482L143.909 110.329L143.782 110.183L143.606 110.054L143.488 109.993L143.388 109.941L143.134 109.848L142.852 109.782L142.795 109.774" stroke="#21A8DD" stroke-width="0.693238" stroke-linecap="round" stroke-linejoin="round"/>
<path d="M142.927 124.463L142.907 122.292L142.887 120.121L142.868 117.95L142.855 116.463L142.846 115.44L142.845 115.355L142.825 113.184L142.81 111.495L142.8 110.375L142.795 109.774L142.775 107.603L142.765 106.408L142.742 106.247L142.665 106.091L142.536 105.942L142.358 105.81L142.137 105.694L141.88 105.599L141.595 105.532L141.29 105.489L140.975 105.474L140.659 105.489L140.351 105.532L140.063 105.599L139.801 105.694L139.574 105.81L139.39 105.942L139.253 106.091L139.167 106.247L139.136 106.408L139.15 108.579L139.164 110.75L139.171 111.875L139.182 113.64L139.19 114.87L139.2 116.455L139.201 116.521L139.21 117.929L139.223 120.1L139.237 122.271L139.243 123.209" stroke="#21A8DD" stroke-width="0.693238" stroke-linecap="round" stroke-linejoin="round"/>
<path d="M136.48 122.604L136.471 120.433L136.462 118.564L136.456 117.058L136.456 117.036L136.446 114.865L136.446 114.782L136.441 113.761L136.436 112.528L136.426 110.357L136.417 108.186L136.407 106.015L136.398 103.844L136.396 103.572L136.371 103.408L136.291 103.247L136.159 103.099L135.977 102.963L135.754 102.848L135.494 102.752L135.205 102.681L134.897 102.64L134.58 102.625L134.262 102.64L133.953 102.681L133.663 102.752L133.401 102.848L133.175 102.963L132.991 103.099L132.856 103.247L132.772 103.408L132.743 103.572L132.747 105.743L132.751 107.914L132.755 110.085L132.759 112.256L132.76 113.023L132.764 115.194L132.768 117.365L132.768 117.428V117.447L132.771 119.05L132.775 121.221L132.776 122.181" stroke="#21A8DD" stroke-width="0.693238" stroke-linecap="round" stroke-linejoin="round"/>
<path d="M127.87 122.17L127.874 119.999L127.876 119.078L127.879 117.456V117.452L127.882 115.281L127.886 113.11V113.051L127.89 110.88L127.893 108.709L127.897 106.538L127.901 104.367L127.902 103.529L127.874 103.365L127.79 103.207L127.654 103.056L127.471 102.922L127.244 102.805L126.982 102.709L126.693 102.64L126.384 102.597L126.066 102.582L125.748 102.597L125.44 102.64L125.152 102.709L124.892 102.805L124.668 102.922L124.487 103.056L124.354 103.207L124.274 103.365L124.249 103.529L124.239 105.7L124.23 107.871L124.22 110.042L124.211 112.213L124.209 112.586" stroke="#21A8DD" stroke-width="0.693238" stroke-linecap="round" stroke-linejoin="round"/>
<path d="M154.709 133.298L153.962 131.788L152.503 130.18L152.207 129.853L150.445 128.585L149.753 128.087L147.811 127.117L146.669 126.547L146.234 126.396L144.183 125.683L144.155 125.673L143.049 125.289L142.934 125.263L140.818 124.776L140.518 124.707L139.747 124.53L139.251 124.416L139.006 124.359L136.853 124.076L136.487 124.027L136.312 124.004L136.16 123.984L135.173 123.854L134.95 123.825L134.671 123.788L134.45 123.779L132.779 123.706L131.878 123.667L130.186 123.593L128.311 123.675L127.868 123.694L126.212 123.766L125.954 123.777L125.702 123.788L124.542 123.941L124.484 123.949L124.16 123.991L124.082 124.002L121.929 124.285L121.367 124.359L121.287 124.378L120.493 124.56L119.858 124.707L117.743 125.193L117.603 125.225L117.325 125.289L116.22 125.673L114.169 126.386L114.146 126.394L113.705 126.547L111.762 127.517L110.622 128.087L108.86 129.356L108.169 129.853L106.711 131.462L106.415 131.788L105.671 133.294" stroke="#21A8DD" stroke-width="0.693238" stroke-linecap="round" stroke-linejoin="round"/>
<path d="M146.234 126.396L144.948 125.471L144.149 125.073L142.927 124.463L142.61 124.305L140.559 123.593L140.51 123.576L139.873 123.355L139.739 123.324L139.243 123.209L137.128 122.72L136.825 122.65L136.48 122.604L136.154 122.561L134.002 122.274L133.561 122.216L132.776 122.182L131.877 122.143L130.187 122.07L128.313 122.151L127.87 122.17L126.814 122.216L124.662 122.502L124.166 122.568L124.088 122.579L123.55 122.65L121.435 123.139L121.294 123.172L120.502 123.355L120.501 123.355L119.867 123.575L117.816 124.288L117.766 124.305L117.61 124.383L116.226 125.073L115.428 125.471L114.146 126.394" stroke="#21A8DD" stroke-width="0.693238" stroke-linecap="round" stroke-linejoin="round"/>
<path d="M248.552 280.103L249.059 277.992L249.532 276.021L249.408 274.387L248.688 272.338L247.968 270.29L247.249 268.242L247.171 268.021L245.652 266.471L244.132 264.92L242.613 263.37L241.093 261.819L240.999 261.724L239.128 260.623L237.257 259.523L235.385 258.422L233.514 257.321L231.643 256.221L230.821 255.737L228.795 254.957L226.77 254.176L226.276 253.985L226.084 253.911L225.893 253.838L225.576 253.716L224.57 253.328L223.555 252.937L222.004 252.339L219.978 251.558L217.953 250.777L217.746 250.698L216.761 250.318L216.285 250.194L214.185 249.646L212.084 249.098L210.277 248.627L209.428 248.406L208.414 248.141L206.313 247.593L204.213 247.046L202.112 246.498L200.011 245.95L199.163 245.728L197.534 245.45L197.013 245.361L195.839 245.16L193.7 244.794L191.56 244.428L189.42 244.062L187.28 243.696L185.918 243.464L185.87 243.455L185.565 243.403L185.53 243.397L183.39 243.031L181.251 242.665L179.479 242.362L178.903 242.264L178.61 242.214L176.449 242L174.289 241.787L172.128 241.573L169.968 241.36L167.807 241.146L165.647 240.933L163.486 240.719L161.326 240.505L159.165 240.292L157.005 240.078L155.907 239.97L153.738 239.893L151.568 239.817L149.399 239.74L149.02 239.727L146.85 239.651L144.681 239.574L142.511 239.497L140.341 239.421L138.172 239.345L136.002 239.268L133.832 239.192L132.038 239.128L129.868 239.184L127.698 239.24L125.527 239.296L123.357 239.352L121.187 239.407L119.016 239.463L116.846 239.519L114.676 239.575L112.506 239.631L110.681 239.678L108.51 239.733L108.084 239.745L105.922 239.936L103.759 240.127L101.596 240.319L99.4339 240.51L97.2714 240.701L95.1088 240.893L92.9463 241.084L90.7838 241.275L88.6212 241.467L86.4587 241.658L85.1339 241.775L82.9898 242.116L81.9725 242.278L81.3672 242.374L79.2231 242.715L77.0791 243.056L74.935 243.397L72.7909 243.738L70.6468 244.079L68.5027 244.42L66.3586 244.76L64.3222 245.084L64.1909 245.105L63.7265 245.219L63.2617 245.333L61.1532 245.85L59.0447 246.367L56.9362 246.884L54.8275 247.401L52.7191 247.918L51.9134 248.116L50.8772 248.37L50.0092 248.583L47.9007 249.1L46.0925 249.543L44.1064 250.263L42.5177 250.839L40.4767 251.579L38.4358 252.319L38.363 252.346L36.7993 252.913L35.7976 253.276L34.7841 253.643L34.4732 253.756L34.2792 253.826L34.0883 253.895L32.0474 254.635L31.4568 254.85L29.5531 255.893L27.6493 256.937L25.7458 257.981L23.842 259.024L21.9385 260.068L20.6659 260.766L19.0702 262.238L17.4747 263.71L15.8792 265.182L14.2835 266.655L13.8756 267.031L12.9929 269.015L12.1101 270.998L11.2274 272.982L11.0418 273.398L10.9165 275.038L11.2378 277.185L11.5589 279.332L11.6427 279.892" stroke="#21A8DD" stroke-width="0.693238" stroke-linecap="round" stroke-linejoin="round"/>
<path d="M249.532 276.021L248.809 273.974L248.086 271.927L247.363 269.88L247.297 269.691L245.772 268.145L244.248 266.6L242.724 265.054L241.199 263.508L241.121 263.429L239.247 262.333L237.372 261.238L235.498 260.143L233.624 259.047L231.749 257.952L230.934 257.476L230.291 257.229L228.263 256.453L226.384 255.733L226.193 255.66L226.002 255.587L225.684 255.465L224.677 255.079L224.313 254.94L222.285 254.163L222.109 254.096L220.081 253.319L218.991 252.902L216.963 252.125L216.861 252.086L215.82 251.816L213.718 251.272L211.617 250.727L209.515 250.183L207.414 249.638L205.312 249.094L203.21 248.549L201.109 248.005L199.243 247.521L197.103 247.158L194.963 246.794L193.967 246.625L191.827 246.261L189.686 245.898L187.546 245.534L185.936 245.26L185.596 245.203L183.455 244.839L181.315 244.475L179.175 244.112L178.667 244.025L176.506 243.813L174.346 243.601L173.598 243.528L171.437 243.315L169.277 243.103L167.116 242.891L164.956 242.679L162.795 242.467L160.634 242.255L158.474 242.042L156.313 241.83L155.938 241.793L153.768 241.717L151.599 241.642L149.429 241.566L147.26 241.49L145.09 241.414L142.92 241.338L140.75 241.262L138.581 241.186L136.411 241.11L134.241 241.034L132.04 240.957L129.87 241.012L127.7 241.067L125.529 241.123L123.359 241.178L121.189 241.234L119.019 241.289L116.848 241.345L114.678 241.4L112.508 241.456L110.337 241.511L108.058 241.569L105.895 241.759L103.732 241.95L101.57 242.14L99.407 242.33L97.2442 242.52L95.0817 242.71L92.919 242.9L90.7564 243.09L88.5936 243.28L87.0416 243.417L85.0803 243.589L82.9358 243.928L80.7915 244.267L78.647 244.605L76.5027 244.944L74.3581 245.283L72.2138 245.622L70.0693 245.96L67.9248 246.299L66.4246 246.536L64.2803 246.875L64.1134 246.901L62.004 247.415L59.8947 247.929L57.7853 248.443L55.676 248.957L53.5668 249.471L51.4575 249.984L49.3481 250.498L47.2388 251.012L45.9954 251.315L44.5571 251.833L42.5144 252.569L41.3749 252.98L39.3324 253.715L38.2582 254.102L36.2157 254.838L36.072 254.89L35.6901 255.027L34.6758 255.393L34.3645 255.505L34.1702 255.575L33.9791 255.644L31.9366 256.379L31.5437 256.521L31.345 256.592L29.4385 257.631L27.5321 258.67L25.6255 259.708L23.7192 260.747L21.8126 261.785L20.5445 262.476L18.9445 263.943L17.3444 265.411L15.7444 266.878L14.1441 268.345L13.7501 268.707L12.8632 270.688L11.9764 272.67L11.0895 274.651L10.9165 275.038" stroke="#21A8DD" stroke-width="0.693238" stroke-linecap="round" stroke-linejoin="round"/>
<path d="M32.7203 269.429L32.7242 269.428L33.5733 269.138L35.6275 268.435L36.0717 268.283L37.4388 267.815L39.493 267.113L40.58 266.741L42.6342 266.038L44.4559 265.415L45.0732 265.204L47.1271 264.502L47.1895 264.48L49.3045 263.991L49.7265 263.894L51.8417 263.404L53.9569 262.915L55.763 262.498L57.8782 262.008L59.9934 261.519L62.1086 261.03L64.2238 260.541L64.4835 260.481L65.0664 260.346L65.6441 260.259L67.791 259.937L69.9381 259.615L72.0851 259.293L74.232 258.971L76.3789 258.648L76.9865 258.557L79.1337 258.235L79.8694 258.125" stroke="#21A8DD" stroke-width="0.693238" stroke-linecap="round" stroke-linejoin="round"/>
<path d="M108.382 255.35L110.552 255.298L112.723 255.245L112.867 255.242L114.688 255.197L116.859 255.145L119.029 255.092L121.259 255.038L123.429 254.986L125.6 254.933L127.77 254.881L129.94 254.828L132.012 254.778L134.182 254.85L136.352 254.922L138.522 254.994L139.36 255.023L141.53 255.095L143.7 255.167L145.87 255.239L146.213 255.251L147.748 255.302L149.917 255.374L152.087 255.446L154.257 255.519L155.559 255.562L157.72 255.764L159.882 255.965L162.043 256.167L164.205 256.369L166.367 256.571L168.528 256.773L170.69 256.974L172.851 257.176L175.013 257.378L177.186 257.581" stroke="#21A8DD" stroke-width="0.693238" stroke-linecap="round" stroke-linejoin="round"/>
<path d="M236.841 274.307L237.293 274.558L239.192 275.611L239.614 275.845L241.181 277.347L242.749 278.849L243.522 279.59" stroke="#21A8DD" stroke-width="0.693238" stroke-linecap="round" stroke-linejoin="round"/>
<path d="M26.2381 274.49L26.9697 273.35L27.1319 273.239" stroke="#21A8DD" stroke-width="0.693238" stroke-linecap="round" stroke-linejoin="round"/>
<path d="M52.1524 200.342L50.4061 201.632L48.66 202.921L46.9136 204.211L45.1672 205.501L43.4209 206.791L42.9782 207.118L42.371 207.621L40.9527 208.796L39.281 210.181L38.7002 210.663L37.8946 211.33L37.8557 211.362L36.184 212.748L34.5124 214.133L34.0525 214.514L33.0198 216.424L31.9873 218.333L30.9545 220.243L29.922 222.153L29.8734 222.242L29.991 224.41L30.1085 226.578L30.2259 228.746L30.2891 229.912L31.4573 231.742L32.6255 233.572L33.794 235.402L34.9403 237.197L35.2145 237.414" stroke="#21A8DD" stroke-width="0.693238" stroke-linecap="round" stroke-linejoin="round"/>
<path d="M225.148 237.422L225.431 237.198L226.598 235.368L227.766 233.537L228.933 231.707L230.077 229.913L230.193 227.745L230.309 225.577L230.425 223.409L230.487 222.243L229.454 220.334L228.42 218.425L227.386 216.516L226.353 214.607L226.303 214.515L224.631 213.13L222.954 211.742L222.8 211.614L222.263 211.169L222.169 211.091L220.497 209.706L219.414 208.809L217.996 207.635L217.372 207.119L215.626 205.829L214.579 205.055L212.833 203.765L211.514 202.791" stroke="#21A8DD" stroke-width="0.693238" stroke-linecap="round" stroke-linejoin="round"/>
<path d="M47.3004 188.431L46.7948 189.431L46.0482 191.47L45.3016 193.508L44.555 195.547L43.8084 197.585L43.2852 199.014L42.7817 201.126L42.5609 202.051" stroke="#21A8DD" stroke-width="0.693238" stroke-linecap="round" stroke-linejoin="round"/>
<path d="M217.606 201.224L217.103 199.112L217.08 199.013L216.333 196.975L215.587 194.936L214.841 192.897L214.094 190.859L213.571 189.431L213.061 188.419" stroke="#21A8DD" stroke-width="0.693238" stroke-linecap="round" stroke-linejoin="round"/>
<path d="M212.991 188.282L212.012 186.344L211.032 184.406L210.053 182.469L209.074 180.531L209.019 180.421L207.99 178.509L206.962 176.597L206.316 175.397L206.06 174.922L205.311 173.529L204.103 171.725L202.896 169.921L201.688 168.117L200.48 166.313L199.948 165.518L198.526 163.878L197.103 162.238L195.68 160.598L194.258 158.958L193.743 158.364L192.13 156.911L190.517 155.458L188.904 154.005L187.366 152.619L185.749 151.171L184.132 149.723L182.514 148.274L181.02 146.936L179.215 145.73L177.41 144.525L175.604 143.319L174.104 142.317L172.206 141.264L170.307 140.211L168.409 139.158L166.895 138.318L164.926 137.404L162.957 136.489L160.988 135.575L160.665 135.425L158.62 134.695L156.575 133.965L154.709 133.299L153.12 132.731L151.009 132.225L150.939 132.208L150.902 132.199L149.169 131.783L149.092 131.765L148.431 131.606L148.397 131.598L148.184 131.547L146.063 131.087L144.204 130.684L142.082 130.224L141.351 130.065L140.556 129.983L139.783 129.903L137.624 129.679L136.183 129.53L134.023 129.307L133.969 129.301H131.885H129.714H128.303H126.4L124.24 129.525L124.057 129.544L121.898 129.767L120.456 129.916L119.819 129.982L119.018 130.065L116.896 130.525L116.17 130.683L114.048 131.143L112.186 131.547L112.153 131.555L112.118 131.563L111.287 131.763L111.21 131.781L109.671 132.15L109.652 132.155L107.541 132.661L107.247 132.731L105.671 133.294L103.626 134.024L101.582 134.754L99.704 135.425L97.7349 136.339L95.7656 137.253L93.7965 138.167L93.4712 138.318L91.5729 139.371L89.6746 140.425L87.776 141.478L86.2641 142.317L84.4587 143.522L82.6531 144.728L80.8477 145.934L79.346 146.936L77.7284 148.384L76.1108 149.832L74.4932 151.28L72.9978 152.619L71.3851 154.073L69.7725 155.526L68.1601 156.98L66.6243 158.364L65.2015 160.004L63.7788 161.644L62.3559 163.284L60.9333 164.924L60.4176 165.518L59.2097 167.321L58.0017 169.126L56.7938 170.929L55.5858 172.733L55.0526 173.529L54.301 174.928L54.0403 175.413L53.0126 177.325L51.9848 179.238L51.3487 180.421L50.3694 182.359L49.39 184.296L48.4109 186.234L47.4315 188.171L47.3582 188.317" stroke="#21A8DD" stroke-width="0.693238" stroke-linecap="round" stroke-linejoin="round"/>
<path d="M147.334 127.01L146.828 126.827" stroke="#21A8DD" stroke-width="0.693238" stroke-linecap="round" stroke-linejoin="round"/>
<path d="M138.158 124.389L138.106 124.384L137.974 124.37L136.487 124.215" stroke="#21A8DD" stroke-width="0.693238" stroke-linecap="round" stroke-linejoin="round"/>
<path d="M132.887 123.839H132.779H131.879" stroke="#21A8DD" stroke-width="0.693238" stroke-linecap="round" stroke-linejoin="round"/>
<path d="M237.348 275.359L236.872 275.288L236.753 275.271L236.683 275.26L235.913 275.195L235.099 275.173L234.557 275.187L234.267 275.195L233.441 275.26L232.648 275.365L231.911 275.508L231.255 275.684L230.696 275.89L230.255 276.116L229.943 276.355L229.915 276.395" stroke="#21A8DD" stroke-width="0.693238" stroke-linecap="round" stroke-linejoin="round"/>
<path d="M239.555 280.917L239.404 278.751L239.284 277.028L239.237 276.355L239.132 276.115L238.885 275.89L238.504 275.684" stroke="#21A8DD" stroke-width="0.693238" stroke-linecap="round" stroke-linejoin="round"/>
<path d="M227.641 270.002L226.919 269.891L226.748 269.876L226.331 269.839L226.13 269.822L225.297 269.799L224.446 269.822L223.605 269.891L223.097 269.961L223.055 269.966L222.798 270.002L222.081 270.146L222.052 270.152L221.388 270.336L220.826 270.549L220.385 270.784L220.075 271.037L220.039 271.093L219.909 271.294L219.888 271.552L219.965 272.894L220.09 275.062L220.215 277.229L220.339 279.396L220.397 280.398" stroke="#21A8DD" stroke-width="0.693238" stroke-linecap="round" stroke-linejoin="round"/>
<path d="M230.489 285.388L230.35 283.221L230.212 281.054L230.074 278.888L229.966 277.185L229.915 276.395L229.777 274.228L229.639 272.062L229.588 271.268L229.573 271.037L229.457 270.784" stroke="#21A8DD" stroke-width="0.693238" stroke-linecap="round" stroke-linejoin="round"/>
<path d="M212.064 264.959L211.848 264.953L210.983 264.976L210.704 265L210.129 265.047L209.313 265.161L208.56 265.317L207.893 265.51L207.332 265.732L206.895 265.976L206.595 266.236L206.438 266.506L206.433 266.772L206.539 268.94L206.646 271.109L206.752 273.277L206.858 275.446L206.965 277.614L207.071 279.782L207.087 280.122" stroke="#21A8DD" stroke-width="0.693238" stroke-linecap="round" stroke-linejoin="round"/>
<path d="M214.251 265.161L213.507 265.048L212.699 264.977" stroke="#21A8DD" stroke-width="0.693238" stroke-linecap="round" stroke-linejoin="round"/>
<path d="M217.182 282.581L217.062 280.413L216.942 278.246L216.822 276.078L216.77 275.135L216.65 272.967L216.53 270.799L216.41 268.632L216.289 266.464L216.277 266.236L216.252 266.187L216.144 265.976L215.864 265.731L215.446 265.51L215.312 265.462L214.903 265.316" stroke="#21A8DD" stroke-width="0.693238" stroke-linecap="round" stroke-linejoin="round"/>
<path d="M194.442 260.879L194.372 260.881L194.219 260.885L193.356 260.959L192.534 261.076L191.78 261.237L191.114 261.436L190.56 261.665L190.133 261.917L189.844 262.186L189.704 262.464L189.787 264.633L189.87 266.803L189.954 268.972L190.037 271.142L190.108 272.984L190.191 275.154L190.274 277.323L190.357 279.492L190.361 279.589" stroke="#21A8DD" stroke-width="0.693238" stroke-linecap="round" stroke-linejoin="round"/>
<path d="M200.929 290L200.831 287.831L200.734 285.662L200.637 283.493L200.54 281.324L200.443 279.156L200.346 276.987L200.248 274.818L200.151 272.649L200.054 270.48L199.957 268.311L199.86 266.143L199.762 263.974L199.682 262.186L199.53 261.917L199.47 261.867" stroke="#21A8DD" stroke-width="0.693238" stroke-linecap="round" stroke-linejoin="round"/>
<path d="M174.063 257.817L173.844 257.836L173.021 257.958L172.27 258.123L171.612 258.325L171.069 258.559L170.97 258.621L170.656 258.818L170.385 259.093L170.264 259.378L170.283 260.119L170.313 261.279L170.348 262.639L170.363 263.213L170.419 265.383L170.475 267.553L170.532 269.724L170.588 271.894L170.644 274.064L170.7 276.234L170.756 278.405L170.812 280.575L170.868 282.745L170.925 284.916L170.941 285.561" stroke="#21A8DD" stroke-width="0.693238" stroke-linecap="round" stroke-linejoin="round"/>
<path d="M181.223 285.908L181.152 283.738L181.082 281.568L181.011 279.398L180.941 277.228L180.871 275.059L180.801 272.889L180.73 270.719L180.66 268.549L180.607 266.921L180.579 266.058L180.509 263.896L180.439 261.726L180.369 259.557L180.363 259.378L180.353 259.241L180.341 259.093L180.166 258.818L179.843 258.559L179.746 258.511" stroke="#21A8DD" stroke-width="0.693238" stroke-linecap="round" stroke-linejoin="round"/>
<path d="M151.733 255.947L151.536 255.976L150.793 256.144L150.147 256.351L149.618 256.589L149.223 256.851L148.973 257.131L148.876 257.42L148.895 259.012L148.901 259.493L148.92 261.082L148.937 262.527L148.952 263.728L148.978 265.899L149.004 268.07L149.018 269.257L149.044 271.428L149.07 273.599L149.096 275.769L149.123 277.94L149.149 280.111L149.174 282.209" stroke="#21A8DD" stroke-width="0.693238" stroke-linecap="round" stroke-linejoin="round"/>
<path d="M155.001 255.778L154.114 255.752L153.223 255.778" stroke="#21A8DD" stroke-width="0.693238" stroke-linecap="round" stroke-linejoin="round"/>
<path d="M159.535 283.42L159.495 281.25L159.454 279.079L159.414 276.909L159.373 274.738L159.333 272.567L159.293 270.397L159.252 268.226L159.212 266.055L159.171 263.885L159.152 262.838L159.13 261.684L159.114 260.838L159.105 260.322L159.104 260.296L159.064 258.125L159.051 257.42L159.005 257.131L158.806 256.852L158.459 256.589L157.973 256.351L157.843 256.307L157.365 256.144L156.652 255.977" stroke="#21A8DD" stroke-width="0.693238" stroke-linecap="round" stroke-linejoin="round"/>
<path d="M129.805 255.126L128.995 255.251L128.445 255.378L128.264 255.42L127.634 255.626L127.567 255.657L127.186 255.836L127.125 255.865L126.751 256.129L126.525 256.41L126.451 256.7L126.448 258.04L126.446 258.625L126.441 260.796L126.439 261.723L126.435 263.185L126.432 264.398L126.427 266.569L126.421 268.74L126.416 270.911L126.414 271.842L126.413 272.278L126.411 273.111L126.405 275.282L126.4 277.453L126.394 279.624L126.39 281.298" stroke="#21A8DD" stroke-width="0.693238" stroke-linecap="round" stroke-linejoin="round"/>
<path d="M136.757 281.49L136.748 279.319L136.739 277.148L136.73 274.977L136.723 273.359L136.714 271.189L136.706 269.018L136.697 266.847L136.688 264.676L136.686 264.398L136.681 263.185L136.675 261.723L136.667 259.552L136.663 258.698L136.661 258.234L136.655 256.7L136.584 256.41L136.36 256.129L135.989 255.865L135.852 255.8L135.482 255.626L135.48 255.625L134.855 255.42L134.691 255.382L134.125 255.251L133.316 255.126" stroke="#21A8DD" stroke-width="0.693238" stroke-linecap="round" stroke-linejoin="round"/>
<path d="M114.159 258.472L114.172 257.262L114.076 256.975L113.829 256.695L113.436 256.43L112.91 256.192L112.266 255.986L111.523 255.819L111.348 255.792L110.705 255.694L109.837 255.621L108.946 255.595L108.058 255.621L107.202 255.694L106.404 255.819L105.689 255.986L105.217 256.145L105.078 256.192L104.59 256.43L104.241 256.695L104.039 256.975L103.99 257.262L103.953 259.433L103.948 259.744" stroke="#21A8DD" stroke-width="0.693238" stroke-linecap="round" stroke-linejoin="round"/>
<path d="M83.1294 258.2L83.0233 258.253L82.697 258.513L82.5561 258.731L82.5192 258.788L82.4948 259.074L82.4727 259.79L82.4056 261.96L82.3385 264.13L82.311 265.019L82.2892 265.726L82.2443 267.175L82.1772 269.345L82.1101 271.515L82.0431 273.685L81.976 275.855L81.9089 278.025L81.8418 280.195L81.7747 282.365L81.7076 284.535L81.6406 286.705L81.6301 287.035" stroke="#21A8DD" stroke-width="0.693238" stroke-linecap="round" stroke-linejoin="round"/>
<path d="M91.9737 284.999L92.0266 282.828L92.0796 280.658L92.1323 278.488L92.1853 276.317L92.2383 274.147L92.2911 271.976L92.344 269.806L92.3588 269.203L92.4118 267.033L92.4645 264.862L92.5175 262.692L92.5199 262.593L92.5336 262.03L92.5435 261.624L92.5718 260.466L92.6056 259.074L92.6048 259.071L92.4875 258.788L92.2188 258.512L91.8071 258.253L91.265 258.019L90.6085 257.816L89.8576 257.651L89.0352 257.528L88.842 257.511" stroke="#21A8DD" stroke-width="0.693238" stroke-linecap="round" stroke-linejoin="round"/>
<path d="M63.1154 261.422L63.0463 261.48L62.8911 261.749L62.8831 261.935L62.7886 264.104L62.6942 266.273L62.5997 268.442L62.5053 270.61L62.4109 272.779L62.3164 274.948L62.222 277.117L62.1278 279.286L62.0333 281.455L61.953 283.298" stroke="#21A8DD" stroke-width="0.693238" stroke-linecap="round" stroke-linejoin="round"/>
<path d="M72.1806 281.004L72.2611 278.835L72.3415 276.665L72.422 274.496L72.5023 272.326L72.5247 271.723L72.5751 270.366L72.6554 268.197L72.7359 266.027L72.8163 263.857L72.884 262.028L72.7457 261.749L72.4593 261.48L72.0329 261.226L71.4793 260.997L70.8148 260.797L70.0599 260.635L69.2382 260.518L68.3742 260.444L68.1675 260.438L67.4949 260.419L66.6278 260.444L65.7993 260.518L65.7959 260.518L65.0349 260.635L64.3587 260.797L63.9937 260.925" stroke="#21A8DD" stroke-width="0.693238" stroke-linecap="round" stroke-linejoin="round"/>
<path d="M54.7326 288.279L54.8366 286.11L54.9406 283.942L55.0448 281.773L55.1488 279.605L55.2528 277.436L55.3568 275.268L55.461 273.099L55.565 270.931L55.669 268.762L55.773 266.594L55.7904 266.232L55.7856 265.963L55.6317 265.694L55.6102 265.676L55.3321 265.433L54.8957 265.187L54.3347 264.963L53.668 264.771L52.9144 264.614L52.0964 264.498L51.2417 264.429L50.375 264.405L50.1688 264.411L49.6992 264.424" stroke="#21A8DD" stroke-width="0.693238" stroke-linecap="round" stroke-linejoin="round"/>
<path d="M46.346 265.187L46.0634 265.432L45.9585 265.635L45.9286 265.693L45.8107 267.861L45.693 270.029L45.6861 270.154L45.5684 272.322L45.4505 274.49L45.3326 276.658L45.2147 278.825L45.0971 280.993L44.9792 283.161L44.9457 283.775" stroke="#21A8DD" stroke-width="0.693238" stroke-linecap="round" stroke-linejoin="round"/>
<path d="M49.5225 264.429L48.711 264.498L47.9669 264.615L47.3111 264.771L46.7651 264.963" stroke="#21A8DD" stroke-width="0.693238" stroke-linecap="round" stroke-linejoin="round"/>
<path d="M41.3256 281.319L41.4485 279.151L41.5716 276.984L41.6945 274.816L41.75 273.839L41.8729 271.672L41.915 270.931L41.8955 270.671L41.7301 270.413L41.4218 270.161L40.9804 269.925L40.4177 269.709L40.4088 269.706L39.7532 269.524L39.0052 269.373L38.1965 269.261L37.3566 269.195L37.3546 269.195L36.709 269.177L36.5023 269.172L35.6671 269.195L35.4739 269.211" stroke="#21A8DD" stroke-width="0.693238" stroke-linecap="round" stroke-linejoin="round"/>
<path d="M32.2078 270.413L32.1939 270.634L32.1765 270.91L32.04 273.077L31.9034 275.244L31.7669 277.41L31.6305 279.577L31.494 281.744L31.3574 283.911L31.2208 286.077L31.2102 286.248" stroke="#21A8DD" stroke-width="0.693238" stroke-linecap="round" stroke-linejoin="round"/>
<path d="M30.987 286.104L31.124 283.938L31.2608 281.771L31.3976 279.604L31.5343 277.437L31.614 276.178L31.5843 275.929L31.411 275.68L31.0988 275.438L30.6572 275.212L30.0986 275.007L29.4408 274.83L28.7029 274.685L28.0824 274.602L27.9068 274.578L27.0785 274.512L26.244 274.49L26.2381 274.49L25.4275 274.512L24.6555 274.578L24.4783 274.605" stroke="#21A8DD" stroke-width="0.693238" stroke-linecap="round" stroke-linejoin="round"/>
<path d="M22.0909 275.68L22.0466 276.32L21.8966 278.485L21.7731 280.267" stroke="#21A8DD" stroke-width="0.693238" stroke-linecap="round" stroke-linejoin="round"/>
<path d="M248.247 279.263L247.505 277.223L247.134 276.203L246.818 275.333L246.634 274.828L245.092 273.3L243.55 271.774L242.763 270.994L241.22 269.466L240.478 268.731L238.593 267.653L236.708 266.576L234.823 265.498L232.939 264.421L231.054 263.344L230.337 262.934L230.248 262.901L228.215 262.139L226.615 261.54L226.557 261.518L226.366 261.446L225.037 260.949L223.123 260.232L222.46 259.983L221.235 259.524L219.331 258.812L217.298 258.05L216.335 257.69L214.866 257.317L212.761 256.784L210.657 256.25L208.552 255.717L207.848 255.539L206.992 255.322L204.888 254.788L202.783 254.255L200.679 253.722L199.939 253.534L198.818 253.25L198.27 253.159L196.129 252.803L196.042 252.789L193.901 252.432L191.759 252.076L189.617 251.72L187.476 251.364L185.334 251.008L183.193 250.651L181.131 250.309L180.551 250.212L179.102 249.971L178.364 249.848L176.203 249.641L174.042 249.433L171.881 249.225L169.72 249.017L167.559 248.81L165.398 248.602L163.237 248.394L161.076 248.187L158.915 247.979L156.754 247.771L155.776 247.677L153.606 247.603L151.436 247.529L149.267 247.455L147.097 247.38L145.591 247.329L143.421 247.254L142.793 247.233L140.623 247.159L138.453 247.084L136.284 247.01L134.114 246.936L132.028 246.864L129.858 246.918L127.688 246.972L125.517 247.026L123.347 247.08L121.177 247.134L119.006 247.188L117.013 247.238L115.2 247.283L113.029 247.337L110.859 247.391L108.689 247.445L108.196 247.458L106.033 247.644L103.87 247.83L101.707 248.017L99.5442 248.203L97.3813 248.39L95.2183 248.576L93.0553 248.763L90.8923 248.949L88.7294 249.136L86.5664 249.322L85.3619 249.426L83.2165 249.757L81.5012 250.022L80.2184 250.221L79.6094 250.315L77.464 250.646L75.3184 250.978L73.1728 251.31L71.0274 251.641L68.8818 251.973L66.7362 252.304L64.5209 252.647L64.1683 252.731L62.2183 253.195L60.5872 253.584L58.4753 254.087L56.3636 254.59L54.2516 255.093L53.3747 255.302L52.5717 255.493L50.4599 255.996L48.348 256.499L46.5054 256.938L45.5079 257.29L43.4604 258.011L41.4127 258.733L41.0349 258.866L39.0626 259.561L37.9078 259.968L35.8601 260.69L35.3313 260.876L34.0011 261.345L33.8061 261.414L33.7386 261.437L31.9315 262.074L30.0156 263.095L29.2247 263.517L27.3087 264.538L25.3926 265.558L23.4767 266.579L21.5606 267.6L21.1822 267.802L19.565 269.25L17.9478 270.699L17.8562 270.781L16.7357 271.784L15.1185 273.233L14.4101 273.867L13.708 275.396L13.2348 276.426L12.3286 278.399L11.9156 279.298" stroke="#21A8DD" stroke-width="0.693238" stroke-linecap="round" stroke-linejoin="round"/>
<path d="M245.706 280.203L244.144 278.695L243.792 278.356L242.23 276.849L240.967 275.63L239.07 274.574L237.224 273.547L235.327 272.491L233.43 271.436L231.532 270.38L230.791 269.968L228.752 269.224L226.712 268.481L225.671 268.101L224.679 267.74L222.883 267.085L220.843 266.342L219.742 265.94L217.702 265.197L216.734 264.844L215.259 264.48L213.151 263.96L211.043 263.44L210.618 263.336L208.51 262.816L206.402 262.296L204.582 261.848L202.474 261.328L200.366 260.808L199.141 260.506L196.998 260.159L195.226 259.872L194.985 259.834L192.842 259.487L190.699 259.14L188.556 258.793L186.413 258.446L184.269 258.1L182.126 257.753L179.983 257.406L178.594 257.181L176.432 256.979L174.271 256.777L172.109 256.575L169.947 256.373L167.786 256.171L165.624 255.969L163.463 255.767L161.301 255.564L159.139 255.362L156.978 255.16L155.899 255.059L153.729 254.987L151.834 254.924L149.664 254.852L147.494 254.779L145.324 254.707L143.155 254.635L140.985 254.563L138.815 254.49L136.645 254.418L134.475 254.346L132.306 254.274L132.037 254.265L129.866 254.317L127.696 254.37L125.526 254.422L123.355 254.475L121.185 254.527L119.014 254.58L116.844 254.632L114.674 254.685L112.503 254.738L110.333 254.79L108.09 254.845L108.073 254.846L105.91 255.027L103.746 255.209L101.583 255.39L99.4192 255.571L97.2558 255.753L95.0924 255.934L92.929 256.116L90.7656 256.297L88.6021 256.478L86.4387 256.66L85.1472 256.768L83.0003 257.091L80.8534 257.414L78.7067 257.737L76.5598 258.059L74.4129 258.382L72.266 258.705L70.1191 259.028L67.9721 259.35L65.8252 259.673L65.3433 259.746L65.2831 259.755L64.2102 259.916L62.0952 260.406L59.9804 260.896L57.8654 261.387L55.7934 261.867L53.6787 262.357L51.5637 262.847L49.7593 263.265L47.6443 263.755L46.1162 264.11L45.1145 264.453L43.0609 265.157L41.0071 265.862L40.6233 265.993L38.5698 266.698L37.4836 267.07L35.6539 267.698L34.8697 267.967L32.8161 268.671L31.4836 269.128L29.5564 270.127L27.6292 271.127L25.7018 272.126L23.7745 273.126L23.136 273.457L21.2088 274.457L20.6963 274.723L19.0602 276.15L17.4243 277.577L16.4656 278.414L14.8298 279.841L14.5818 280.057" stroke="#21A8DD" stroke-width="0.693238" stroke-linecap="round" stroke-linejoin="round"/>
<path d="M116.023 152.542L114.201 151.362L112.454 150.231L110.65 151.439L108.846 152.647L107.809 153.342L107.474 155.487L107.139 157.632L106.834 159.586L108.533 160.938L110.233 162.289L110.632 162.606L112.287 161.202L113.943 159.797L115.128 158.793L115.435 156.644L115.743 154.494L116.023 152.542Z" stroke="#21A8DD" stroke-width="0.693238" stroke-linecap="round" stroke-linejoin="round"/>
<path d="M98.4572 154.735L96.7065 153.451L95.743 152.744L93.996 154.033L92.249 155.322L90.9531 156.278L90.3491 158.363L89.745 160.449L89.1408 162.534L89.1193 162.608L90.7666 164.022L92.2312 165.279L93.8106 163.79L95.39 162.3L96.687 161.077L97.2707 158.986L97.8543 156.895L98.4379 154.804L98.4572 154.735Z" stroke="#21A8DD" stroke-width="0.693238" stroke-linecap="round" stroke-linejoin="round"/>
<path d="M82.6892 158.497L81.1688 156.947L80.9595 156.734L79.3013 158.135L77.6433 159.537L76.2945 160.677L75.4927 162.694L74.6907 164.712L73.889 166.729L73.7294 167.131L75.2246 168.705L76.0016 169.523L77.467 167.921L78.9325 166.319L80.1658 164.971L80.9541 162.949L81.7426 160.926L82.5309 158.903L82.6892 158.497Z" stroke="#21A8DD" stroke-width="0.693238" stroke-linecap="round" stroke-linejoin="round"/>
<path d="M69.5349 163.565L68.8475 161.941L67.3131 163.477L65.7784 165.013L64.5513 166.241L63.623 168.203L62.6947 170.166L61.7662 172.128L61.4233 172.853L62.5588 174.703L62.7676 175.043L64.0765 173.311L65.3854 171.58L66.4238 170.206L67.3448 168.239L68.2659 166.274L69.1869 164.308L69.5349 163.565Z" stroke="#21A8DD" stroke-width="0.693238" stroke-linecap="round" stroke-linejoin="round"/>
<path d="M59.5877 169.621L59.9301 168.041L58.5617 169.726L57.1931 171.411L56.2048 172.629L55.2097 174.558L54.2145 176.488L53.2193 178.417L52.703 179.418L53.0973 181.49L54.2021 179.621L55.3069 177.753L56.0796 176.445L57.0722 174.514L58.0647 172.584L59.0573 170.653L59.5877 169.621Z" stroke="#21A8DD" stroke-width="0.693238" stroke-linecap="round" stroke-linejoin="round"/>
<path d="M53.1957 176.306L52.1699 178.22L51.4926 179.483" stroke="#21A8DD" stroke-width="0.693238" stroke-linecap="round" stroke-linejoin="round"/>
<path d="M51.4926 179.483L50.477 181.402L49.4614 183.321L48.4456 185.24L47.8067 186.447L47.3004 188.43L47.2867 188.484L47.3582 188.316L48.2086 186.319L49.0592 184.321L49.4864 183.318L50.5016 181.399L51.5167 179.48L51.6361 179.254L52.6513 177.335L53.1958 176.306L54.3011 174.927" stroke="#21A8DD" stroke-width="0.693238" stroke-linecap="round" stroke-linejoin="round"/>
<path d="M208.874 179.483L207.848 177.57L207.169 176.306" stroke="#21A8DD" stroke-width="0.693238" stroke-linecap="round" stroke-linejoin="round"/>
<path d="M206.06 174.922L207.169 176.306L208.184 178.225L208.719 179.236L209.734 181.155L210.749 183.074L210.877 183.318L211.728 185.316L212.578 187.313L212.991 188.281L213.077 188.484L213.061 188.42L212.559 186.447L211.543 184.529L210.528 182.61L209.512 180.691L208.874 179.484" stroke="#21A8DD" stroke-width="0.693238" stroke-linecap="round" stroke-linejoin="round"/>
<path d="M204.158 172.629L202.789 170.943L201.421 169.258L200.432 168.041L200.773 169.621L201.765 171.552L202.758 173.483L203.75 175.414L204.28 176.445L205.385 178.314L206.49 180.183L207.263 181.49L207.658 179.418L206.663 177.489L205.669 175.559L204.674 173.63L204.158 172.629Z" stroke="#21A8DD" stroke-width="0.693238" stroke-linecap="round" stroke-linejoin="round"/>
<path d="M195.807 166.241L194.273 164.705L192.738 163.169L191.512 161.941L190.823 163.565L191.743 165.531L192.664 167.497L193.584 169.463L193.932 170.206L195.241 171.938L196.55 173.67L197.588 175.043L198.725 173.194L198.934 172.853L198.006 170.89L197.078 168.928L196.15 166.965L195.807 166.241Z" stroke="#21A8DD" stroke-width="0.693238" stroke-linecap="round" stroke-linejoin="round"/>
<path d="M184.061 160.677L182.403 159.275L180.745 157.874L179.397 156.734L177.875 158.283L177.665 158.497L178.453 160.52L179.241 162.543L180.029 164.566L180.187 164.971L181.652 166.573L183.117 168.175L184.351 169.523L185.846 167.949L186.624 167.131L185.823 165.113L185.022 163.096L184.22 161.078L184.061 160.677Z" stroke="#21A8DD" stroke-width="0.693238" stroke-linecap="round" stroke-linejoin="round"/>
<path d="M169.4 156.278L167.653 154.989L165.906 153.7L164.611 152.744L162.86 154.028L161.895 154.735L162.478 156.826L163.061 158.918L163.644 161.009L163.663 161.077L165.242 162.567L166.822 164.056L168.118 165.279L169.766 163.866L171.232 162.608L170.628 160.522L170.025 158.437L169.421 156.351L169.4 156.278Z" stroke="#21A8DD" stroke-width="0.693238" stroke-linecap="round" stroke-linejoin="round"/>
<path d="M152.542 153.342L150.739 152.134L148.935 150.926L147.898 150.231L146.076 151.411L144.328 152.542L144.635 154.691L144.942 156.84L145.221 158.793L146.877 160.197L148.532 161.601L149.716 162.606L151.416 161.255L153.115 159.904L153.515 159.586L153.181 157.441L152.847 155.296L152.542 153.342Z" stroke="#21A8DD" stroke-width="0.693238" stroke-linecap="round" stroke-linejoin="round"/>
<path d="M130.174 161.694L131.871 160.339L133.567 158.985L134.446 158.284L134.432 156.113L134.417 153.942L134.413 153.279L134.413 153.226L134.405 152.064L132.573 150.899L132.244 150.69L130.412 149.525L130.176 149.375L128.344 150.54L128.109 150.689L126.276 151.854L125.946 152.064L125.938 153.223L125.937 153.276L125.922 155.447L125.907 157.618L125.902 158.284L127.599 159.638L129.296 160.992L130.174 161.694Z" stroke="#21A8DD" stroke-width="0.693238" stroke-linecap="round" stroke-linejoin="round"/>
<path d="M226.276 253.985L226.141 251.818L226.006 249.652L225.871 247.485L225.735 245.318L225.6 243.151L225.465 240.984L225.342 239.005L225.148 237.421V237.421L224.965 235.928" stroke="#21A8DD" stroke-width="0.693238" stroke-linecap="round" stroke-linejoin="round"/>
<path d="M225.576 253.716L225.442 251.549L225.308 249.382L225.173 247.215L225.04 245.048L224.905 242.882L224.771 240.715L224.637 238.548L224.595 237.86V237.859L224.499 236.311L224.464 235.753L224.22 234.545L223.79 232.417L223.359 230.289L223.076 228.886L222.553 230.993L222.289 232.059L222.421 234.226L222.552 236.393L222.608 237.321L222.718 239.127L222.73 239.333L222.73 239.335L222.862 241.503L222.979 243.432L223.11 245.599L223.241 247.766L223.372 249.933L223.504 252.1L223.555 252.937" stroke="#21A8DD" stroke-width="0.693238" stroke-linecap="round" stroke-linejoin="round"/>
<path d="M219.339 228.871L218.582 226.836L217.826 224.801L217.623 224.255L217.449 223.785L216.781 221.988L215.671 223.854L214.784 225.345L214.845 226.434L214.879 227.041L215 229.209L215.121 231.377L215.243 233.544L215.321 234.945L215.329 235.088L215.362 235.681L215.483 237.849L215.604 240.016L215.726 242.184L215.851 244.426L215.87 244.761L215.87 244.763L215.991 246.931L216.024 247.53L217.788 248.797L219.551 250.063L220.63 250.837L220.502 248.67L220.375 246.503L220.248 244.335L220.12 242.168L220.077 241.436L220.077 241.434V241.432L220.073 241.359L219.945 239.191L219.818 237.024L219.691 234.857L219.563 232.69L219.5 231.611L219.495 231.521L219.465 231.012L219.339 228.871Z" stroke="#21A8DD" stroke-width="0.693238" stroke-linecap="round" stroke-linejoin="round"/>
<path d="M206.091 215.6L207.124 217.509L208.157 219.419L209.189 221.328L209.227 221.398L209.764 222.391L209.878 224.558L209.992 226.727L210.106 228.895L210.161 229.931L210.183 230.352L210.297 232.52L210.412 234.688L210.526 236.856L210.609 238.429L210.613 238.501L210.634 238.912L210.748 241.08L210.863 243.248L210.942 244.759L208.945 243.907L206.949 243.055L204.952 242.203L204.877 242.171L204.505 242.012L204.042 241.815L203.997 241.796L203.892 239.627L203.787 237.459L203.683 235.29L203.624 234.079L203.608 233.753L203.504 231.584L203.399 229.416L203.295 227.247L203.207 225.436L203.103 223.267L202.998 221.099L202.908 219.232L204.339 217.6L205.769 215.967L206.091 215.6Z" stroke="#21A8DD" stroke-width="0.693238" stroke-linecap="round" stroke-linejoin="round"/>
<path d="M191.307 210.104L192.56 211.878L193.812 213.651L195.065 215.424L195.959 216.69L196.054 218.859L196.148 221.028L196.243 223.197L196.338 225.365L196.433 227.534L196.498 229.03L196.593 231.2L196.687 233.368L196.782 235.537L196.84 236.873L196.854 237.181L196.949 239.35L196.951 239.409L194.855 238.845L193.196 238.399L192.741 238.276L190.644 237.712L188.547 237.148L187.914 236.978L187.832 234.808L187.75 232.639L187.736 232.248L187.653 230.078L187.571 227.909L187.489 225.74L187.407 223.57L187.325 221.401L187.243 219.231L187.234 219.004L187.152 216.835L187.07 214.665L187.049 214.1L188.632 212.615L189.369 211.923L190.953 210.437L191.307 210.104Z" stroke="#21A8DD" stroke-width="0.693238" stroke-linecap="round" stroke-linejoin="round"/>
<path d="M178.464 212.139L177.046 210.495L175.629 208.851L174.211 207.206L173.056 205.867L171.412 207.286L169.769 208.704L168.126 210.123L167.923 210.297L167.977 212.468L168.032 214.638L168.087 216.808L168.141 218.979L168.196 221.149L168.251 223.319L168.305 225.49L168.36 227.66L168.414 229.83L168.469 232L168.504 233.406L170.647 233.753L172.791 234.099L174.934 234.446L177.077 234.792L178.22 234.977L179.204 235.136L179.191 234.739L179.121 232.569L179.051 230.399L178.981 228.229L178.912 226.059L178.842 223.889L178.772 221.719L178.702 219.549L178.633 217.379L178.563 215.209L178.493 213.04L178.464 212.139Z" stroke="#21A8DD" stroke-width="0.693238" stroke-linecap="round" stroke-linejoin="round"/>
<path d="M152.279 203.191L153.814 204.726L155.349 206.261L156.884 207.796L158.146 209.058L158.186 211.228L158.225 213.326L158.266 215.497L158.306 217.668L158.347 219.838L158.387 222.009L158.428 224.18L158.434 224.534L158.475 226.704L158.515 228.875L158.556 231.046L158.578 232.242L156.413 232.077L154.249 231.911L152.084 231.746L149.919 231.58L147.754 231.414L146.806 231.342L146.783 229.171L146.771 228.133L146.748 225.962L146.724 223.792L146.7 221.621L146.677 219.45L146.653 217.279L146.631 215.279L146.608 213.108L146.584 210.937L146.56 208.766L146.553 208.1L148.201 206.687L149.849 205.274L151.498 203.861L152.279 203.191Z" stroke="#21A8DD" stroke-width="0.693238" stroke-linecap="round" stroke-linejoin="round"/>
<path d="M136.147 207.676L134.536 206.22L132.925 204.765L131.314 203.309L130.169 202.274L128.558 203.73L126.947 205.185L125.336 206.641L124.191 207.676L124.182 209.847L124.173 212.017L124.164 214.188L124.155 216.359L124.146 218.53L124.137 220.701L124.128 222.873L124.12 225.044L124.111 227.215L124.102 229.386L124.096 230.943H126.267H128.438H130.609H132.78H134.951H136.238L136.23 228.772L136.221 226.601L136.213 224.43L136.204 222.259L136.196 220.088L136.187 217.917L136.179 215.746L136.17 213.575L136.162 211.404L136.153 209.234L136.147 207.676Z" stroke="#21A8DD" stroke-width="0.693238" stroke-linecap="round" stroke-linejoin="round"/>
<path d="M108.06 203.191L109.708 204.604L111.356 206.017L113.004 207.431L113.785 208.1L113.761 210.271L113.737 212.442L113.713 214.613L113.705 215.328L113.681 217.499L113.657 219.67L113.633 221.841L113.609 224.012L113.585 226.183L113.564 228.067L113.54 230.238L113.528 231.342L111.364 231.508L109.199 231.673L107.034 231.838L104.869 232.004L102.705 232.17L101.757 232.242L101.798 230.071L101.838 227.901L101.879 225.73L101.901 224.58L101.942 222.409L101.982 220.238L102.023 218.068L102.064 215.897L102.105 213.726L102.114 213.242L102.155 211.072L102.193 209.058L103.728 207.523L105.263 205.988L106.798 204.453L108.06 203.191Z" stroke="#21A8DD" stroke-width="0.693238" stroke-linecap="round" stroke-linejoin="round"/>
<path d="M92.4166 210.297L90.7732 208.879L89.1299 207.46L87.4865 206.041L87.285 205.867L85.8671 207.511L84.4495 209.155L83.0318 210.8L81.8768 212.139L81.8067 214.309L81.7368 216.479L81.6667 218.649L81.5965 220.818L81.5264 222.988L81.4563 225.158L81.3862 227.328L81.3161 229.498L81.2459 231.668L81.176 233.838L81.1471 234.73L81.1339 235.136L82.1373 234.974L84.2806 234.627L86.4236 234.281L88.5668 233.934L90.71 233.588L91.832 233.406L91.8869 231.236L91.9416 229.066L91.9965 226.895L92.0515 224.725L92.1064 222.555L92.1613 220.385L92.2163 218.214L92.2712 216.044L92.3261 213.873L92.381 211.703L92.4166 210.297Z" stroke="#21A8DD" stroke-width="0.693238" stroke-linecap="round" stroke-linejoin="round"/>
<path d="M73.2932 214.1L71.7103 212.614L71.0043 211.952L69.4214 210.466L69.0367 210.104L67.7843 211.878L66.5316 213.651L65.2791 215.424L64.3853 216.69L64.2902 218.859L64.1952 221.027L64.1001 223.197L64.005 225.365L63.9099 227.534L63.845 229.017L63.7499 231.186L63.6548 233.354L63.5597 235.523L63.5141 236.565L63.5002 236.877L63.4051 239.046L63.3893 239.409L65.4858 238.845L67.3414 238.346L67.7979 238.223L69.8945 237.658L71.9908 237.094L72.4244 236.978L72.5066 234.808L72.5891 232.639L72.6046 232.231L72.687 230.061L72.7693 227.892L72.8518 225.723L72.9341 223.553L73.0166 221.384L73.0991 219.214L73.1056 219.039L73.1881 216.869L73.2704 214.7L73.2932 214.1Z" stroke="#21A8DD" stroke-width="0.693238" stroke-linecap="round" stroke-linejoin="round"/>
<path d="M54.2565 215.6L55.6868 217.233L57.117 218.866L57.4377 219.232L57.3328 221.401L57.2278 223.569L57.1385 225.415L57.0337 227.583L56.9286 229.752L56.8237 231.92L56.7421 233.608L56.7269 233.922L56.6221 236.09L56.5172 238.259L56.4121 240.427L56.3459 241.796L56.3199 241.807L55.9944 241.946L55.6258 242.103L53.6291 242.955L51.6324 243.807L49.6355 244.66L49.4026 244.759L49.517 242.591L49.6316 240.423L49.7265 238.628L49.7378 238.414L49.7471 238.235L49.8618 236.067L49.9762 233.899L50.0908 231.731L50.1789 230.061L50.2002 229.659L50.3148 227.491L50.4293 225.323L50.5439 223.155L50.5843 222.391L51.1288 221.383L52.1615 219.474L53.1942 217.564L54.2565 215.6Z" stroke="#21A8DD" stroke-width="0.693238" stroke-linecap="round" stroke-linejoin="round"/>
<path d="M45.5661 225.345L44.4569 223.478L43.5713 221.988L43.0036 223.516L42.8375 223.963L42.0814 225.999L41.3254 228.034L41.0141 228.871L40.9477 230.001L40.8908 230.965L40.8589 231.506L40.7312 233.673L40.6036 235.841L40.4759 238.008L40.3483 240.175L40.2801 241.33L40.2751 241.414L40.2749 241.418V241.421L40.147 243.588L40.0194 245.755L39.8917 247.923L39.764 250.09L39.72 250.837L41.4833 249.57L43.2463 248.304L44.3227 247.53L44.4443 245.363L44.4788 244.744L44.479 244.741L44.4975 244.412L44.6191 242.244L44.7404 240.077L44.862 237.909L44.9834 235.742L45.0187 235.112L45.0292 234.926L45.0498 234.558L45.1712 232.39L45.2927 230.223L45.4141 228.055L45.5035 226.459L45.5354 225.89L45.5661 225.345Z" stroke="#21A8DD" stroke-width="0.693238" stroke-linecap="round" stroke-linejoin="round"/>
<path d="M36.7992 252.913L36.9308 250.746L37.0626 248.579L37.1942 246.412L37.3257 244.245L37.373 243.466L37.5046 241.299L37.6247 239.323L37.6249 239.32L37.6379 239.103L37.7473 237.301L37.8791 235.134L38.0107 232.967L38.0658 232.059L37.545 229.951L37.2816 228.886L36.8516 231.014L36.4215 233.142L36.1449 234.51L35.8937 235.753L35.8601 236.295L35.7637 237.848V237.849L35.6293 240.016L35.4949 242.183L35.3605 244.35L35.2261 246.517L35.0917 248.684L34.9574 250.85L34.823 253.017L34.7841 253.643" stroke="#21A8DD" stroke-width="0.693238" stroke-linecap="round" stroke-linejoin="round"/>
<path d="M34.0883 253.895L34.2235 251.729L34.359 249.562L34.4942 247.395L34.6295 245.228L34.765 243.062L34.9002 240.895L35.0181 239.005L35.2144 237.414V237.414L35.3917 235.978" stroke="#21A8DD" stroke-width="0.693238" stroke-linecap="round" stroke-linejoin="round"/>
<path d="M132.362 61.4956L132.681 59.348L132.703 59.1952L132.65 58.8995L132.489 58.6131L132.228 58.3494L131.877 58.1275L131.452 57.9482L130.972 57.8272L130.457 57.7651H129.931L129.417 57.8272L128.936 57.9482L128.512 58.1275L128.161 58.3494L127.9 58.6131L127.739 58.8995L127.686 59.1952L128.004 61.3427L128.027 61.4954" stroke="#21A8DD" stroke-width="0.693238" stroke-linecap="round" stroke-linejoin="round"/>
<path d="M133.864 85.5584L135.073 84.588L135.711 83.9968L136.11 83.3444L136.252 82.659L136.373 80.4913L136.495 78.3237L136.617 76.1562L136.633 75.8705L136.502 75.131L136.091 72.9996L135.679 70.8678L135.267 68.7361L134.855 66.6046L134.444 64.4729L134.354 64.0094L134.083 63.5311L132.681 61.8736L132.362 61.4956L132.145 61.2388" stroke="#21A8DD" stroke-width="0.693238" stroke-linecap="round" stroke-linejoin="round"/>
<path d="M128.244 61.2388L128.027 61.4954L126.624 63.1527L126.304 63.5311L126.034 64.0094L125.622 66.1411L125.21 68.2726L124.798 70.4041L124.386 72.5358L123.974 74.6673L123.884 75.131L123.754 75.8705L123.875 78.0382L123.997 80.2058L124.118 82.3733L124.134 82.659L124.276 83.3444L124.675 83.9968L125.313 84.588L126.521 85.5575" stroke="#21A8DD" stroke-width="0.693238" stroke-linecap="round" stroke-linejoin="round"/>
<path d="M128.326 87.071L128.648 86.8776L129.038 86.7243L129.479 86.6181L129.951 86.5649H130.434L130.906 86.6181L131.347 86.7243L131.737 86.8776L132.059 87.071" stroke="#21A8DD" stroke-width="0.693238" stroke-linecap="round" stroke-linejoin="round"/>
<path d="M126.232 85.0493L126.521 85.5576L127.594 87.4448L127.705 87.6393" stroke="#21A8DD" stroke-width="0.693238" stroke-linecap="round" stroke-linejoin="round"/>
<path d="M135.958 91.9995L135.656 90.643L135.302 90.0497L134.723 89.5078L133.121 88.0428L132.68 87.6397L132.059 87.0713" stroke="#21A8DD" stroke-width="0.693238" stroke-linecap="round" stroke-linejoin="round"/>
<path d="M128.326 87.0713L127.705 87.6392L126.102 89.1042L125.661 89.5078L125.082 90.0497L124.728 90.643L124.426 91.9988" stroke="#21A8DD" stroke-width="0.693238" stroke-linecap="round" stroke-linejoin="round"/>
<path d="M124.741 91.6431L124.426 91.9989L122.987 93.6243L122.775 93.8631" stroke="#21A8DD" stroke-width="0.693238" stroke-linecap="round" stroke-linejoin="round"/>
<path d="M123.239 93.5156L122.775 93.8639L121.039 95.1678L119.304 96.4717L118.843 96.8179" stroke="#21A8DD" stroke-width="0.693238" stroke-linecap="round" stroke-linejoin="round"/>
<path d="M142.269 97.2505L141.544 96.8213L139.675 95.7154L139.613 95.6787" stroke="#21A8DD" stroke-width="0.693238" stroke-linecap="round" stroke-linejoin="round"/>
<path d="M117.951 97.3454L118.111 97.2503L120.136 96.4694L121.139 96.083L123.252 95.5843L124.585 95.2697L126.742 95.0285L128.292 94.8555H130.463H132.087L134.245 95.0965L135.794 95.2697L137.907 95.7684L139.241 96.083L141.266 96.8639L142.258 97.2462L142.259 97.2464L142.269 97.2503L142.378 97.3152" stroke="#21A8DD" stroke-width="0.693238" stroke-linecap="round" stroke-linejoin="round"/>
<path d="M120.768 95.6787L118.899 96.7842L118.843 96.8176L118.111 97.2505" stroke="#21A8DD" stroke-width="0.693238" stroke-linecap="round" stroke-linejoin="round"/>
<path d="M23.0346 274.935L22.8288 275.007" stroke="#21A8DD" stroke-width="0.693238" stroke-linecap="round" stroke-linejoin="round"/>
<path d="M17.3712 280.352L19.0153 278.934L20.6591 277.516L22.0466 276.319" stroke="#21A8DD" stroke-width="0.693238" stroke-linecap="round" stroke-linejoin="round"/>
<path d="M24.4783 274.605L26.4088 273.612L27.132 273.239L29.0624 272.246L30.9929 271.253L32.1939 270.634" stroke="#21A8DD" stroke-width="0.693238" stroke-linecap="round" stroke-linejoin="round"/>
<path d="M35.4156 235.593L34.2543 233.759L33.503 232.572L33.4087 230.403L33.356 229.187L33.2615 227.018L33.1836 225.223L34.2407 223.327L35.0824 221.817L36.1396 219.921L37.1971 218.025L37.3046 217.832L37.4644 217.702L38.1554 217.141L39.0864 216.384L39.4923 216.054L41.1775 214.686L41.314 214.575L42.9989 213.206L44.6841 211.837L45.9975 210.77L47.9527 209.827L49.9082 208.884L51.8636 207.94L52.0575 207.847L52.4157 207.674L54.3711 206.73L55.5074 206.182L57.4628 205.239L59.1189 204.439L61.1959 203.807L62.3174 203.466L64.3942 202.834L66.4712 202.202L66.5446 202.18L67.0259 202.033L69.1029 201.402L71.1799 200.77L73.2571 200.138L75.3341 199.507L76.1984 199.244L78.334 198.854L80.4697 198.463L82.6055 198.073L84.7411 197.683L85.5898 197.528L87.7254 197.138L89.861 196.748L91.9966 196.358L94.1322 195.967L96.2681 195.577L96.427 195.548L98.59 195.362L100.753 195.175L102.916 194.989L105.079 194.802L106.791 194.654L108.954 194.467L111.117 194.28L113.28 194.094L115.443 193.907L117.606 193.72L118.687 193.626H120.858H123.029H125.2L127.371 193.627H129.411H131.582H133.753H135.924L138.095 193.626H140.266H141.651L143.814 193.813L145.977 194L148.14 194.187L150.303 194.373L152.08 194.527L154.243 194.713L156.406 194.9L158.569 195.087L160.732 195.274L162.895 195.461L163.913 195.549L166.049 195.939L168.184 196.329L170.32 196.719L172.455 197.109L173.419 197.285L175.555 197.676L177.691 198.066L179.826 198.456L181.962 198.846L184.144 199.244L186.221 199.876L188.298 200.508L190.375 201.139L192.191 201.692L193.835 202.192L195.913 202.823L197.99 203.455L198.067 203.478L200.144 204.11L201.227 204.439L203.183 205.382L204.878 206.2L206.834 207.143L207.424 207.428L207.959 207.686L209.915 208.629L211.87 209.572L213.826 210.516L214.353 210.77L216.038 212.138L217.724 213.507L218.465 214.109L220.15 215.477L221.625 216.675L221.741 216.769L222.652 217.508L223.051 217.832L223.366 218.396L224.424 220.292L225.003 221.329L226.062 223.225L227.12 225.12L227.177 225.223L227.085 227.392L227.029 228.701L226.936 230.87L226.863 232.572L225.702 234.407L224.945 235.604" stroke="#21A8DD" stroke-width="0.693238" stroke-linecap="round" stroke-linejoin="round"/>
<path d="M43.421 201.052L44.4633 199.147L44.6235 198.854L45.6663 196.95L46.252 195.881L47.9059 194.474L49.56 193.068L50.1457 192.57L50.9503 191.886L52.6029 190.478L53.8451 189.42L54.2791 189.05L56.2132 188.064L58.1474 187.078L60.0815 186.091L61.2899 185.475L63.2241 184.489L65.158 183.503L66.2394 182.951L68.3053 182.284L70.3715 181.617L72.4374 180.95L74.5035 180.283L75.3153 180.021L77.3814 179.355L79.4476 178.688L81.5137 178.022L81.6889 177.965L83.82 177.551L85.9513 177.138L88.0825 176.724L90.2138 176.31L92.3983 175.886L94.5294 175.472L96.6606 175.057L98.7917 174.643L99.8963 174.428L102.058 174.229L104.22 174.03L106.382 173.832L108.544 173.633L110.706 173.434L111.677 173.345L113.839 173.146L116.001 172.947L118.163 172.749L119.876 172.591L122.047 172.592H124.218H126.389H128.56H130.731H132.044H134.215H136.386H138.557H140.468L142.63 172.79L144.792 172.989L146.954 173.188L149.116 173.387L151.278 173.586L152.299 173.68L154.461 173.878L156.623 174.077L158.784 174.276L160.45 174.429L162.581 174.843L164.712 175.257L166.843 175.67L168.975 176.084L171.106 176.498L171.255 176.527L173.386 176.941L175.518 177.355L177.649 177.769L178.659 177.966L180.726 178.633L182.791 179.299L184.858 179.966L186.924 180.633L187.842 180.929L189.908 181.596L191.974 182.262L194.04 182.929L194.112 182.952L196.046 183.938L197.981 184.924L199.915 185.91L201.233 186.581L203.167 187.568L205.102 188.554L206.076 189.051L206.534 189.44L208.189 190.846L209.843 192.252L210.233 192.584L210.863 193.119L212.516 194.526L214.107 195.879L215.15 197.783L216.194 199.687L216.255 199.8" stroke="#21A8DD" stroke-width="0.693238" stroke-linecap="round" stroke-linejoin="round"/>
<path d="M35.4739 269.21L36.4866 268.865L37.3948 268.556L39.4496 267.855L40.5371 267.484L42.592 266.784L44.6305 266.088L45.0322 265.952L45.9585 265.636" stroke="#21A8DD" stroke-width="0.693238" stroke-linecap="round" stroke-linejoin="round"/>
<path d="M54.0404 175.413L52.8887 177.253L51.737 179.094L51.6362 179.255" stroke="#21A8DD" stroke-width="0.693238" stroke-linecap="round" stroke-linejoin="round"/>
<path d="M201.787 197.644L199.815 196.736L197.988 195.895L195.944 195.164L193.914 194.438L191.82 193.864L189.726 193.291L187.632 192.718L185.538 192.145L183.444 191.571L182.057 191.191L179.943 190.694L177.83 190.196L176.161 189.803L174.016 189.468L171.871 189.134L169.726 188.8L167.581 188.466L165.436 188.132L163.291 187.797L162.706 187.706L160.551 187.443L158.396 187.18L156.241 186.917L155.451 186.82L153.285 186.669L151.119 186.519L148.954 186.368L146.788 186.217L144.622 186.066L142.457 185.916L141.244 185.831L139.073 185.831H136.902H134.731L132.657 185.831H130.486L128.315 185.831H126.144H123.973H121.802H119.631H119.096L116.94 186.081L114.783 186.33L112.626 186.579L110.47 186.829L109.455 186.946L107.289 187.085L105.122 187.225L102.955 187.364L100.789 187.504L98.6226 187.643L97.6363 187.706L95.5169 188.177L93.3976 188.649L91.2785 189.119L89.1592 189.591L88.317 189.778L86.1673 190.081L84.0175 190.384L81.8678 190.687L79.7181 190.99L78.2876 191.192L76.2347 191.898L74.1818 192.605L72.1289 193.311L70.871 193.744L68.7662 194.275L66.6614 194.808L64.5566 195.34L62.4518 195.872L62.3615 195.894L60.4324 196.89L58.5725 197.85L57.7527 198.273L55.7662 199.149L54.0941 199.887" stroke="#21A8DD" stroke-width="0.693238" stroke-linecap="round" stroke-linejoin="round"/>
<path d="M50.1688 264.41L52.2842 263.922L54.3996 263.434L55.7328 263.126L57.8483 262.638L59.9637 262.149L62.0791 261.661L63.1153 261.422" stroke="#21A8DD" stroke-width="0.693238" stroke-linecap="round" stroke-linejoin="round"/>
<path d="M68.1675 260.439L70.3146 260.118L72.4617 259.796L74.6089 259.475L76.7558 259.153L78.4865 258.894L80.6336 258.573L81.3685 258.463L83.1294 258.2" stroke="#21A8DD" stroke-width="0.693238" stroke-linecap="round" stroke-linejoin="round"/>
<path d="M98.2518 261.31L98.2069 263.48L98.1619 265.651L98.117 267.821L98.0857 269.332L98.0408 271.502L97.9959 273.673L97.9509 275.843L97.906 278.014L97.861 280.184L97.8161 282.355L97.7861 283.811" stroke="#21A8DD" stroke-width="0.693238" stroke-linecap="round" stroke-linejoin="round"/>
<path d="M103.948 259.744L103.936 260.419L103.934 260.571L103.909 262.019L103.889 263.209L103.852 265.38L103.815 267.551L103.778 269.721L103.741 271.892L103.704 274.063L103.667 276.233L103.63 278.404L103.593 280.575L103.554 282.868" stroke="#21A8DD" stroke-width="0.693238" stroke-linecap="round" stroke-linejoin="round"/>
<path d="M88.842 257.511L91.0056 257.331L93.169 257.15L95.3326 256.97L97.4961 256.789L99.6595 256.609L101.823 256.428L103.986 256.248L105.217 256.145" stroke="#21A8DD" stroke-width="0.693238" stroke-linecap="round" stroke-linejoin="round"/>
<path d="M113.931 280.344L113.953 278.173L113.975 276.135L113.997 273.964L114.02 271.793L114.043 269.595L114.065 267.424L114.088 265.253L114.102 263.907L114.115 262.708L114.13 261.263L114.151 259.251L114.159 258.472" stroke="#21A8DD" stroke-width="0.693238" stroke-linecap="round" stroke-linejoin="round"/>
<path d="M116.327 114.914L115.212 114.363" stroke="#21A8DD" stroke-width="0.693238" stroke-linecap="round" stroke-linejoin="round"/>
<path d="M113.551 126.825L113.04 127.01" stroke="#21A8DD" stroke-width="0.693238" stroke-linecap="round" stroke-linejoin="round"/>
<path d="M124.209 112.586L124.2 114.757L124.19 116.928L124.19 117.064L124.19 117.071L124.183 118.621L124.174 120.792L124.166 122.568" stroke="#21A8DD" stroke-width="0.693238" stroke-linecap="round" stroke-linejoin="round"/>
<path d="M124.185 118.622L124.105 118.604" stroke="#21A8DD" stroke-width="0.693238" stroke-linecap="round" stroke-linejoin="round"/>
<path d="M124.081 124.195L122.721 124.337L122.577 124.352L122.215 124.39" stroke="#21A8DD" stroke-width="0.693238" stroke-linecap="round" stroke-linejoin="round"/>
<path d="M124.112 117.056L124.192 117.065" stroke="#21A8DD" stroke-width="0.693238" stroke-linecap="round" stroke-linejoin="round"/>
<path d="M128.317 119.124L127.876 119.078" stroke="#21A8DD" stroke-width="0.693238" stroke-linecap="round" stroke-linejoin="round"/>
<path d="M128.25 117.468L127.878 117.452" stroke="#21A8DD" stroke-width="0.693238" stroke-linecap="round" stroke-linejoin="round"/>
<path d="M111.348 255.792L113.518 255.739L115.688 255.687L117.859 255.634L118.296 255.623L120.467 255.571L122.222 255.528L124.392 255.476L126.563 255.423L128.445 255.377" stroke="#21A8DD" stroke-width="0.693238" stroke-linecap="round" stroke-linejoin="round"/>
<path d="M128.311 123.839H127.867H127.486" stroke="#21A8DD" stroke-width="0.693238" stroke-linecap="round" stroke-linejoin="round"/>
<path d="M132.463 117.461L132.294 117.469" stroke="#21A8DD" stroke-width="0.693238" stroke-linecap="round" stroke-linejoin="round"/>
<path d="M132.68 87.6398L133.754 85.7527L133.864 85.5584L134.154 85.0493" stroke="#21A8DD" stroke-width="0.693238" stroke-linecap="round" stroke-linejoin="round"/>
<path d="M137.609 93.8644L136.17 92.239L135.958 91.9995L135.642 91.6431" stroke="#21A8DD" stroke-width="0.693238" stroke-linecap="round" stroke-linejoin="round"/>
<path d="M141.544 96.8216L139.808 95.5173L138.072 94.2132L137.609 93.8652L137.144 93.5156" stroke="#21A8DD" stroke-width="0.693238" stroke-linecap="round" stroke-linejoin="round"/>
<path d="M142.258 97.2461L142.37 97.3124" stroke="#21A8DD" stroke-width="0.693238" stroke-linecap="round" stroke-linejoin="round"/>
<path d="M134.691 255.381L136.86 255.453L138.745 255.516L140.914 255.588L141.559 255.609L143.729 255.681L145.899 255.753L148.068 255.825L150.238 255.897L151.733 255.947" stroke="#21A8DD" stroke-width="0.693238" stroke-linecap="round" stroke-linejoin="round"/>
<path d="M157.843 256.307L160.004 256.508L162.166 256.71L164.328 256.911L166.489 257.112L168.651 257.314L170.813 257.515L172.974 257.716L174.063 257.818" stroke="#21A8DD" stroke-width="0.693238" stroke-linecap="round" stroke-linejoin="round"/>
<path d="M179.746 258.511L181.89 258.856L181.992 258.873L184.136 259.218L186.279 259.563L188.422 259.909L190.566 260.254L192.709 260.599L194.379 260.868L194.442 260.879" stroke="#21A8DD" stroke-width="0.693238" stroke-linecap="round" stroke-linejoin="round"/>
<path d="M208.719 179.236L207.567 177.396L206.415 175.555L206.316 175.396" stroke="#21A8DD" stroke-width="0.693238" stroke-linecap="round" stroke-linejoin="round"/>
<path d="M199.47 261.867L201.578 262.385L203.687 262.902L204.644 263.137L206.752 263.655L208.861 264.172L210.685 264.62L212.065 264.959" stroke="#21A8DD" stroke-width="0.693238" stroke-linecap="round" stroke-linejoin="round"/>
<path d="M211.514 202.79L209.768 201.5L209.551 201.34" stroke="#21A8DD" stroke-width="0.693238" stroke-linecap="round" stroke-linejoin="round"/>
<path d="M226.084 253.912L225.949 251.745L225.814 249.578L225.68 247.411L225.545 245.245L225.41 243.078L225.275 240.911L225.14 238.744L225.062 237.489V237.489L224.965 235.928L224.945 235.605L224.81 233.438L224.675 231.271L224.541 229.105L224.452 227.678" stroke="#21A8DD" stroke-width="0.693238" stroke-linecap="round" stroke-linejoin="round"/>
<path d="M216.252 266.188L218.293 266.927L219.831 267.484L221.872 268.224L222.268 268.367L222.975 268.623L223.829 268.933L225.87 269.673L226.331 269.839" stroke="#21A8DD" stroke-width="0.693238" stroke-linecap="round" stroke-linejoin="round"/>
<path d="M233.387 273.365L234.557 275.187" stroke="#21A8DD" stroke-width="0.693238" stroke-linecap="round" stroke-linejoin="round"/>
<path d="M229.588 271.268L231.489 272.317L233.387 273.364L235.287 274.413L236.758 275.225L236.872 275.288" stroke="#21A8DD" stroke-width="0.693238" stroke-linecap="round" stroke-linejoin="round"/>
<path d="M239.284 277.028L240.856 278.526L242.427 280.024L243.181 280.742" stroke="#21A8DD" stroke-width="0.693238" stroke-linecap="round" stroke-linejoin="round"/>
<rect x="0.517944" y="170.763" width="259.964" height="116.464" fill="url(#paint0_linear)"/>
<defs>
<linearGradient id="paint0_linear" x1="130.5" y1="170.763" x2="130.5" y2="287.227" gradientUnits="userSpaceOnUse">
<stop stop-color="white" stop-opacity="0"/>
<stop offset="1" stop-color="white"/>
</linearGradient>
</defs>
</svg>
