<svg width="355" height="309" viewBox="0 0 355 309" fill="none" xmlns="http://www.w3.org/2000/svg">
<path d="M253.489 53.2117C255.664 54.546 257.55 56.6217 259 58.9939L230.427 67L202 25.3388C203.45 24.7458 205.481 24.894 207.511 26.0801L253.489 53.2117Z" fill="#F39268"/>
<path d="M260.694 61.8028C261.565 63.8415 262 65.8803 262 67.7733L261.855 101.994C261.855 107.382 258.081 109.566 253.436 106.799L207.419 80.1509C202.774 77.3842 199 70.8313 199 65.589L199.145 31.3686C199.145 29.4755 199.581 28.0193 200.452 27L230.5 70.1032L260.694 61.8028Z" fill="#F39268"/>
<path d="M326.942 82.0503L189.143 2.5682C178.768 -3.41119 170.292 1.40152 170.146 13.3603V31.7359V34.5069L170 87.4462L202.587 90.6548L315.982 155.99L326.65 162.116C342.285 171.158 354.999 163.866 354.999 145.927V130.76C355.145 112.968 342.431 91.0923 326.942 82.0503ZM207.847 26.6316L254.17 53.3199C256.362 54.6325 258.261 56.6743 259.723 59.0077L230.935 66.883L202.295 25.9024C203.756 25.319 205.801 25.4649 207.847 26.6316ZM262.499 102.322C262.499 107.718 258.7 109.905 254.024 107.134L207.701 80.4461C203.025 77.6751 199.226 71.1124 199.226 65.8622L199.372 31.5901C199.372 29.6942 199.81 28.2358 200.687 27.215L230.935 70.3832L261.33 62.0703C262.207 64.112 262.645 66.1539 262.645 68.0498L262.499 102.322ZM333.81 143.74C332.933 132.948 325.335 120.406 316.128 115.156C306.922 109.905 299.324 113.551 298.301 123.322C294.794 116.614 292.602 109.176 292.602 102.468C292.602 87.5921 303.123 81.6126 316.128 89.0504C329.134 96.4882 339.509 114.572 339.509 129.448C339.509 136.156 337.317 141.115 333.81 143.74Z" fill="#FEFEFE"/>
<path d="M308 102.263C308 106.924 311.317 112.573 315.5 114.974C319.538 117.375 323 115.398 323 110.737C323 106.076 319.683 100.427 315.5 98.0256C311.462 95.6245 308 97.6019 308 102.263Z" fill="white"/>
<path d="M101.5 181L43.0001 214.12L43.292 307.7L165.633 237.041L165.341 143.46L101.5 181Z" fill="#C6C6C6"/>
<path d="M105.99 232.066C104.997 233.532 103.159 234.17 101.471 233.636L43.0001 215.12L43.292 308.7L165.633 238.041L165.341 144.46L105.99 232.066Z" fill="white"/>
<path d="M43.0001 213.66L101.797 225.839C103.332 226.157 104.911 225.55 105.836 224.285L165.341 143L43.0001 213.66Z" fill="white"/>
<path d="M-4 63.5C57.5 50.4999 231 90.858 231 148.247C231 173.441 196 188.776 170.31 199" stroke="white" stroke-opacity="0.5" stroke-width="6" stroke-linecap="round" stroke-dasharray="10 20"/>
</svg>
