<svg width="66" height="66" viewBox="0 0 66 66" fill="none" xmlns="http://www.w3.org/2000/svg">
<g opacity="0.8">
<path fill-rule="evenodd" clip-rule="evenodd" d="M47.4375 63.9375C56.5502 63.9375 63.9375 56.5502 63.9375 47.4375C63.9375 38.3248 56.5502 30.9375 47.4375 30.9375C38.3248 30.9375 30.9375 38.3248 30.9375 47.4375C30.9375 56.5502 38.3248 63.9375 47.4375 63.9375Z" stroke="white" stroke-width="4.125" stroke-linecap="round" stroke-linejoin="round"/>
<path d="M35.7722 59.1004L59.1032 35.7722" stroke="white" stroke-width="4.125" stroke-linecap="round" stroke-linejoin="round"/>
<path d="M22.6875 43.3125H6.1875C3.90933 43.3125 2.0625 41.4657 2.0625 39.1875V6.1875C2.0625 3.90933 3.90933 2.0625 6.1875 2.0625H55.6875C57.9657 2.0625 59.8125 3.90933 59.8125 6.1875V24.75" stroke="white" stroke-width="4.125" stroke-linecap="round" stroke-linejoin="round"/>
<path d="M58.8806 3.57513L36.4846 20.8011C33.2145 23.3167 28.6611 23.3167 25.3911 20.8011L2.99506 3.57513" stroke="white" stroke-width="4.125" stroke-linecap="round" stroke-linejoin="round"/>
</g>
</svg>
