<svg width="48" height="39" viewBox="0 0 48 39" fill="none" xmlns="http://www.w3.org/2000/svg">
<path d="M24 36.463C33.5339 31.8513 39.8665 26.6794 43.0928 21.3665C45.8248 16.8678 46.165 12.4813 44.4497 8.87271C42.8922 5.59615 39.7278 3.2566 36.0828 2.65378C32.1923 2.01034 28.233 3.38543 25.094 6.79084L24 7.97775L22.906 6.79084C19.767 3.38543 15.8077 2.01034 11.9172 2.65378C8.27223 3.2566 5.10785 5.59615 3.55034 8.87271C1.83499 12.4813 2.17519 16.8678 4.90716 21.3665C8.1335 26.6794 14.4661 31.8513 24 36.463Z" fill="white" stroke="#E5E5E5" stroke-width="3.57505" stroke-linecap="round" stroke-linejoin="round"/>
<path d="M24.0288 23.5024L21.4351 24.8352C21.17 24.9714 20.8421 24.8718 20.7027 24.6129C20.6472 24.5097 20.628 24.3916 20.6481 24.2767L21.1437 21.4526C21.2597 20.7917 21.0355 20.1174 20.5442 19.6493L18.4447 17.6492C18.2303 17.4449 18.2259 17.1095 18.435 16.9C18.5183 16.8166 18.6273 16.7624 18.7453 16.7456L21.6458 16.3337C22.3252 16.2372 22.9125 15.8202 23.2163 15.2187L24.5134 12.65C24.6459 12.3876 24.9711 12.2798 25.2396 12.4093C25.3467 12.4609 25.4333 12.5455 25.4861 12.65L26.7832 15.2187C27.0869 15.8202 27.6742 16.2372 28.3536 16.3337L31.2542 16.7456C31.5505 16.7877 31.7559 17.0566 31.7128 17.3461C31.6956 17.4614 31.6401 17.5679 31.5547 17.6492L29.4553 19.6493C28.9639 20.1174 28.7397 20.7917 28.8557 21.4526L29.3513 24.2767C29.4019 24.5651 29.2036 24.839 28.9084 24.8884C28.7909 24.9081 28.6699 24.8894 28.5644 24.8352L25.9706 23.5024C25.3628 23.1901 24.6366 23.1901 24.0288 23.5024Z" fill="#E5E5E5"/>
</svg>
