<svg fill="none" height="240" viewBox="0 0 998 240" width="998" xmlns="http://www.w3.org/2000/svg"><g fill="#000"><path d="m205.01 143.298c0 34.893-8.853 59.787-26.56 74.681-17.707 14.681-42.987 22.021-75.84 22.021-36.9067 0-63.2533-8.511-79.04-25.532-15.57334-17.021-23.360009-42.872-23.360009-77.553v-129.57457c0-2.34043.533333-4.14894 1.599999-5.42554 1.06667-1.276594 2.56-1.91489 4.48-1.91489h60.80001c3.84 0 5.76 2.23405 5.76 6.70214v137.87186c0 15.745 2.9867 27.128 8.96 34.149 6.1867 7.022 14.9333 10.532 26.24 10.532 11.093 0 20.053-3.51 26.88-10.532 6.827-7.021 10.24-18.723 10.24-35.106v-136.27657c0-4.89362 2.027-7.34043 6.08-7.34043h48c3.84 0 5.76 2.23405 5.76 6.70214z"/><path d="m441.023 0c3.2 0 4.8 1.80851 4.8 5.42554v225.63846c0 1.702-.747 3.085-2.24 4.149-1.28 1.064-2.987 1.596-5.12 1.596h-43.841c-1.92 0-3.519-.32-4.799-.958-1.067-.638-2.347-1.915-3.84-3.83l-88-119.042c-.854-1.064-1.6-1.49-2.241-1.277-.639.213-.959.851-.959 1.915v116.17c.213 2.553-.321 4.362-1.601 5.426-1.066 1.064-3.093 1.596-6.079 1.596h-43.52c-5.334 0-8.001-2.128-8.001-6.383v-223.08557c0-4.89362 2.347-7.34043 7.04-7.34043h52.161c2.773 0 4.8.425533 6.08 1.2766 1.493.6383 3.093 2.12766 4.8 4.46808l76.8 106.59532c1.28 1.915 2.453 2.873 3.52 2.873 1.066 0 1.6-1.383 1.6-4.149v-104.36186c0-4.46809 2.346-6.70214 7.039-6.70214z"/><path d="m545.9 0c3.84 0 5.76 2.23405 5.76 6.70214v220.85086c0 3.404-.853 5.851-2.56 7.341-1.707 1.276-4.373 1.915-8 1.915h-53.44c-3.2 0-5.44-.639-6.72-1.915-1.28-1.277-1.92-3.298-1.92-6.064v-221.48957c0-2.34043.533-4.14894 1.6-5.42554 1.067-1.276594 2.56-1.91489 4.48-1.91489z"/><path d="m577.277 7.34043c0-2.12766.64-3.82979 1.92-5.10638 1.494-1.489366 3.52-2.23405 6.08-2.23405h191.36c2.56 0 4.481.744684 5.76 2.23405 1.494 1.27659 2.24 2.97872 2.24 5.10638v37.97867c0 4.0426-2.346 6.0639-7.039 6.0639h-56.641c-2.56 0-3.84 1.0638-3.84 3.1915v175.2125c0 2.341-.533 4.149-1.6 5.426-1.066 1.064-2.56 1.596-4.479 1.596h-60.801c-3.84 0-5.76-2.128-5.76-6.383v-174.5749c0-2.9788-1.173-4.4681-3.52-4.4681h-56.32c-4.906 0-7.36-2.0213-7.36-6.0639z"/><path d="m810.27 7.34043c0-4.89362 2.027-7.34043 6.08-7.34043h172.8c3.84 0 5.76 2.23405 5.76 6.70214l-.32 37.02126c0 5.7447-2.773 8.617-8.32 8.617h-96c-4.907 0-7.36 2.0213-7.36 6.0639v27.1276c0 2.1277.533 3.8298 1.6 5.1064 1.067 1.0638 2.453 1.5957 4.16 1.5957h57.6c4.48 0 6.72 2.1277 6.72 6.383v39.574c0 3.618-1.92 5.426-5.76 5.426h-59.2c-1.493 0-2.773.426-3.84 1.277-.853.851-1.28 1.915-1.28 3.191v31.915c0 1.702.213 2.872.64 3.511.64.638 1.707.957 3.2.957h104c4.693 0 7.04 2.021 7.04 6.064v39.255c0 2.128-.64 3.83-1.92 5.107-1.28 1.276-3.2 1.915-5.76 1.915h-171.2c-3.2 0-5.44-.639-6.72-1.915-1.28-1.277-1.92-3.298-1.92-6.064z"/></g></svg>