<svg fill="none" height="79" viewBox="0 0 285 79" width="285" xmlns="http://www.w3.org/2000/svg"><path d="m49.9596.927999c1.992 0 3.792.360001 5.4 1.080001 1.608.696 2.928 1.668 3.96 2.916s1.704 2.676 2.016 4.284c.072.288.108.516.108.684 0 .216-.048.36-.144.432-.072.072-.216.12-.432.144l-6.3.396c-.24 0-.396-.036-.468-.108-.072-.096-.144-.288-.216-.576-.216-1.152-.612-2.052-1.188-2.7-.576-.672-1.416-1.008-2.52-1.008-1.416 0-2.508.624-3.276 1.872s-1.152 3.276-1.152 6.084c0 2.904.348 4.968 1.044 6.192.72 1.224 1.836 1.836 3.348 1.836 1.272 0 2.352-.324 3.24-.972.912-.648 1.668-1.728 2.268-3.24.072-.216.276-.324.612-.324.168 0 .3.012.396.036l4.5.9c.36.12.54.396.54.828 0 .672-.42 1.716-1.26 3.132-.816 1.392-2.112 2.664-3.888 3.816-1.752 1.152-3.972 1.728-6.66 1.728-2.544 0-4.776-.6-6.696-1.8-1.92-1.224-3.408-2.892-4.464-5.004-1.032-2.136-1.548-4.56-1.548-7.272 0-2.688.516-5.04 1.548-7.056 1.056-2.016 2.544-3.564 4.464-4.644 1.944-1.104 4.2-1.656001 6.768-1.656001zm37.919 25.920001c.048.096.072.228.072.396 0 .216-.072.396-.216.54-.12.144-.288.216-.504.216h-6.984c-.504 0-.828-.252-.972-.756l-3.384-9.288c-.072-.192-.192-.336-.36-.432s-.42-.144-.756-.144h-1.656c-.144 0-.252.048-.324.144s-.108.18-.108.252v9.18c0 .384-.096.66-.288.828-.192.144-.492.216-.9.216h-6.048c-.36 0-.612-.072-.756-.216-.12-.144-.18-.372-.18-.684v-24.984c0-.552.228-.828.684-.828h12.024c3.48 0 6.18.672 8.1 2.016 1.92 1.32 2.88 3.192 2.88 5.616 0 1.656-.444 3.132-1.332 4.428-.864 1.296-1.992 2.208-3.384 2.736-.144.072-.216.192-.216.36 0 .072.024.18.072.324zm-10.98-14.832c.912 0 1.608-.228 2.088-.684.504-.48.756-1.116.756-1.908 0-.888-.3-1.572-.9-2.052-.576-.504-1.296-.756-2.16-.756h-3.168c-.312 0-.528.06-.648.18-.12.096-.18.276-.18.54v3.924c0 .264.036.456.108.576.096.12.264.18.504.18zm14.2293-9.9c0-.552.228-.828.684-.828h19.4401c.432 0 .648.252.648.756l-.036 4.176c0 .648-.312.972-.936.972h-10.8c-.5521 0-.8281.228-.8281.684v3.06c0 .24.06.432.18.576.12.12.276.18.468.18h6.4801c.504 0 .756.24.756.72v4.464c0 .408-.216.612-.648.612h-6.6601c-.168 0-.312.048-.432.144-.096.096-.144.216-.144.36v3.6c0 .192.024.324.072.396.072.072.192.108.36.108h11.7001c.528 0 .792.228.792.684v4.428c0 .24-.072.432-.216.576s-.36.216-.648.216h-19.2601c-.36 0-.612-.072-.756-.216s-.216-.372-.216-.684zm23.8281 25.884c-.192 0-.348-.06-.468-.18-.12-.144-.18-.336-.18-.576 0-.168.036-.36.108-.576l8.712-24.552c.12-.312.252-.528.396-.648s.372-.18.684-.18h7.092c.288 0 .54.096.756.288.24.168.42.396.54.684l8.64 24.516c.048.192.072.336.072.432 0 .216-.048.408-.144.576-.096.144-.24.216-.432.216h-7.056c-.408 0-.672-.204-.792-.612l-1.404-4.14c-.072-.168-.144-.276-.216-.324-.048-.072-.156-.108-.324-.108h-7.632c-.288 0-.468.132-.54.396l-1.476 4.248c-.144.36-.432.54-.864.54zm14.184-11.304c.264 0 .396-.12.396-.36 0-.048-.024-.168-.072-.36l-2.16-6.156c-.048-.12-.12-.18-.216-.18s-.168.06-.216.18l-2.196 6.12c-.048.096-.072.216-.072.36 0 .264.144.396.432.396zm9.71-14.58c0-.24.072-.432.216-.576.168-.168.396-.252.684-.252h21.528c.288 0 .504.084.648.252.168.144.252.336.252.576v4.284c0 .456-.264.684-.792.684h-6.372c-.288 0-.432.12-.432.36v19.764c0 .264-.06.468-.18.612-.12.12-.288.18-.504.18h-6.84c-.432 0-.648-.24-.648-.72v-19.692c0-.336-.132-.504-.396-.504h-6.336c-.552 0-.828-.228-.828-.684zm36.974 26.244c-2.616 0-4.908-.552-6.876-1.656-1.944-1.128-3.444-2.712-4.5-4.752-1.056-2.064-1.584-4.476-1.584-7.236s.528-5.172 1.584-7.236c1.08-2.088 2.592-3.696 4.536-4.824 1.968-1.152 4.248-1.728001 6.84-1.728001 2.568 0 4.824.576001 6.768 1.728001 1.944 1.128 3.444 2.736 4.5 4.824 1.08 2.064 1.62 4.476 1.62 7.236 0 2.736-.528 5.136-1.584 7.2s-2.556 3.66-4.5 4.788c-1.944 1.104-4.212 1.656-6.804 1.656zm0-5.616c1.056 0 1.896-.252 2.52-.756.624-.528 1.08-1.368 1.368-2.52s.432-2.7.432-4.644c0-2.976-.336-5.112-1.008-6.408s-1.776-1.944-3.312-1.944c-1.56 0-2.688.648-3.384 1.944-.672 1.296-1.008 3.432-1.008 6.408 0 1.944.144 3.492.432 4.644s.744 1.992 1.368 2.52c.648.504 1.512.756 2.592.756zm39.25 4.104c.048.096.072.228.072.396 0 .216-.072.396-.216.54-.12.144-.288.216-.504.216h-6.984c-.504 0-.828-.252-.972-.756l-3.384-9.288c-.072-.192-.192-.336-.36-.432s-.42-.144-.756-.144h-1.656c-.144 0-.252.048-.324.144s-.108.18-.108.252v9.18c0 .384-.096.66-.288.828-.192.144-.492.216-.9.216h-6.048c-.36 0-.612-.072-.756-.216-.12-.144-.18-.372-.18-.684v-24.984c0-.552.228-.828.684-.828h12.024c3.48 0 6.18.672 8.1 2.016 1.92 1.32 2.88 3.192 2.88 5.616 0 1.656-.444 3.132-1.332 4.428-.864 1.296-1.992 2.208-3.384 2.736-.144.072-.216.192-.216.36 0 .072.024.18.072.324zm-10.98-14.832c.912 0 1.608-.228 2.088-.684.504-.48.756-1.116.756-1.908 0-.888-.3-1.572-.9-2.052-.576-.504-1.296-.756-2.16-.756h-3.168c-.312 0-.528.06-.648.18-.12.096-.18.276-.18.54v3.924c0 .264.036.456.108.576.096.12.264.18.504.18zm30.141-3.564c-.576-.624-1.2-1.104-1.872-1.44-.648-.336-1.596-.504-2.844-.504s-2.172.18-2.772.54-.9.792-.9 1.296c0 .864.768 1.476 2.304 1.836l5.976 1.548c2.184.552 3.828 1.524 4.932 2.916 1.104 1.368 1.656 3.012 1.656 4.932 0 1.776-.468 3.324-1.404 4.644s-2.28 2.34-4.032 3.06c-1.728.72-3.756 1.08-6.084 1.08-2.64 0-5.052-.432-7.236-1.296-2.16-.888-3.66-2.04-4.5-3.456-.12-.24-.18-.42-.18-.54 0-.24.132-.456.396-.648l3.708-2.556c.264-.168.504-.252.72-.252.264 0 .48.108.648.324.816 1.056 1.644 1.8 2.484 2.232s1.956.648 3.348.648c1.344 0 2.4-.18 3.168-.54.792-.384 1.188-.9 1.188-1.548 0-.456-.192-.852-.576-1.188s-.948-.588-1.692-.756l-5.472-1.332c-2.16-.528-3.876-1.512-5.148-2.952-1.272-1.464-1.908-3.144-1.908-5.04 0-1.56.456-2.988 1.368-4.284.912-1.32 2.208-2.352 3.888-3.096 1.68-.768 3.624-1.152001 5.832-1.152001 2.16 0 4.164.360001 6.012 1.080001 1.848.696 3.18 1.632 3.996 2.808.168.216.252.42.252.612 0 .168-.084.324-.252.468l-3.924 2.844c-.12.096-.252.144-.396.144-.168 0-.396-.144-.684-.432zm-220.9559 69.908c-2.616 0-4.90797-.552-6.87597-1.656-1.944-1.128-3.444-2.712-4.5-4.752-1.056005-2.064-1.584005-4.476-1.584005-7.236s.528-5.172 1.584005-7.236c1.08-2.088 2.592-3.696 4.536-4.824 1.968-1.152 4.24797-1.728 6.83997-1.728 2.568 0 4.824.576 6.768 1.728 1.944 1.128 3.444 2.736 4.5 4.824 1.08 2.064 1.62 4.476 1.62 7.236 0 2.736-.528 5.136-1.584 7.2s-2.556 3.66-4.5 4.788c-1.944 1.104-4.212 1.656-6.804 1.656zm0-5.616c1.056 0 1.896-.252 2.52-.756.624-.528 1.08-1.368 1.368-2.52s.432-2.7.432-4.644c0-2.976-.336-5.112-1.008-6.408s-1.776-1.944-3.312-1.944c-1.56 0-2.688.648-3.38397 1.944-.672 1.296-1.008 3.432-1.008 6.408 0 1.944.144 3.492.432 4.644s.74397 1.992 1.36797 2.52c.648.504 1.512.756 2.592.756zm15.8859-20.628c0-.264.06-.468.18-.612s.288-.216.504-.216h19.188c.432 0 .648.252.648.756l-.036 4.176c0 .648-.3.972-.9.972h-10.584c-.552 0-.828.228-.828.684v3.384c0 .48.216.72.648.72h6.588c.48 0 .72.24.72.72v4.392c0 .408-.216.612-.648.612h-6.732c-.168 0-.312.048-.432.144-.096.096-.144.228-.144.396v8.712c0 .384-.096.66-.288.828-.192.144-.492.216-.9.216h-6.012c-.36 0-.612-.072-.756-.216s-.216-.372-.216-.684zm29.7571 0c0-.24.072-.432.216-.576.168-.168.396-.252.684-.252h21.528c.288 0 .504.084.648.252.168.144.252.336.252.576v4.284c0 .456-.264.684-.792.684h-6.372c-.288 0-.432.12-.432.36v19.764c0 .264-.06.468-.18.612-.12.12-.288.18-.504.18h-6.84c-.432 0-.648-.24-.648-.72v-19.692c0-.336-.132-.504-.396-.504h-6.336c-.552 0-.828-.228-.828-.684zm34.9596 15.192c-.168 0-.312.06-.432.18-.096.096-.144.216-.144.36v9.108c0 .384-.096.66-.288.828-.192.144-.492.216-.9.216h-6.012c-.36 0-.612-.072-.756-.216s-.216-.372-.216-.684v-24.984c0-.264.06-.468.18-.612s.288-.216.504-.216h6.84c.192 0 .348.072.468.216.12.12.18.3.18.54v8.352c0 .48.216.72.648.72h6.0483c.432 0 .648-.24.648-.72v-8.352c0-.24.06-.42.18-.54.12-.144.276-.216.468-.216h6.84c.216 0 .384.072.504.216s.18.348.18.612v24.984c0 .312-.072.54-.216.684s-.396.216-.756.216h-6.012c-.408 0-.708-.072-.9-.216-.192-.168-.288-.444-.288-.828v-9.108c0-.144-.06-.264-.18-.36-.096-.12-.228-.18-.396-.18zm18.6743-15.192c0-.552.228-.828.684-.828h19.44c.432 0 .648.252.648.756l-.036 4.176c0 .648-.312.972-.936.972h-10.8c-.552 0-.828.228-.828.684v3.06c0 .24.06.432.18.576.12.12.276.18.468.18h6.48c.504 0 .756.24.756.72v4.464c0 .408-.216.612-.648.612h-6.66c-.168 0-.312.048-.432.144-.096.096-.144.216-.144.36v3.6c0 .192.024.324.072.396.072.072.192.108.36.108h11.7c.528 0 .792.228.792.684v4.428c0 .24-.072.432-.216.576s-.36.216-.648.216h-19.26c-.36 0-.612-.072-.756-.216s-.216-.372-.216-.684zm67.359-.828c.36 0 .636.096.828.288.216.168.324.408.324.72 0 .096-.024.24-.072.432l-7.308 24.372c-.12.312-.276.54-.468.684s-.468.216-.828.216h-4.968c-.696 0-1.128-.3-1.296-.9l-3.744-12.672c-.072-.312-.156-.468-.252-.468-.072 0-.18.18-.324.54l-3.708 12.6c-.096.312-.252.54-.468.684-.192.144-.468.216-.828.216h-5.148c-.36 0-.636-.072-.828-.216s-.348-.372-.468-.684l-7.344-24.372c-.048-.192-.072-.336-.072-.432 0-.312.096-.552.288-.72.216-.192.504-.288.864-.288h5.94c.36 0 .624.06.792.18s.288.312.36.576l3.816 13.356c.072.288.156.432.252.432.072 0 .132-.096.18-.288l3.78-13.5c.12-.504.504-.756 1.152-.756h5.04c.36 0 .624.06.792.18s.288.312.36.576l3.96 13.68c.048.144.12.228.216.252s.156-.036.18-.18l3.672-13.752c.12-.504.504-.756 1.152-.756zm14.349 27.072c-2.616 0-4.908-.552-6.876-1.656-1.944-1.128-3.444-2.712-4.5-4.752-1.056-2.064-1.584-4.476-1.584-7.236s.528-5.172 1.584-7.236c1.08-2.088 2.592-3.696 4.536-4.824 1.968-1.152 4.248-1.728 6.84-1.728 2.568 0 4.824.576 6.768 1.728 1.944 1.128 3.444 2.736 4.5 4.824 1.08 2.064 1.62 4.476 1.62 7.236 0 2.736-.528 5.136-1.584 7.2s-2.556 3.66-4.5 4.788c-1.944 1.104-4.212 1.656-6.804 1.656zm0-5.616c1.056 0 1.896-.252 2.52-.756.624-.528 1.08-1.368 1.368-2.52s.432-2.7.432-4.644c0-2.976-.336-5.112-1.008-6.408s-1.776-1.944-3.312-1.944c-1.56 0-2.688.648-3.384 1.944-.672 1.296-1.008 3.432-1.008 6.408 0 1.944.144 3.492.432 4.644s.744 1.992 1.368 2.52c.648.504 1.512.756 2.592.756zm39.249 4.104c.048.096.072.228.072.396 0 .216-.072.396-.216.54-.12.144-.288.216-.504.216h-6.984c-.504 0-.828-.252-.972-.756l-3.384-9.288c-.072-.192-.192-.336-.36-.432s-.42-.144-.756-.144h-1.656c-.144 0-.252.048-.324.144s-.108.18-.108.252v9.18c0 .384-.096.66-.288.828-.192.144-.492.216-.9.216h-6.048c-.36 0-.612-.072-.756-.216-.12-.144-.18-.372-.18-.684v-24.984c0-.552.228-.828.684-.828h12.024c3.48 0 6.18.672 8.1 2.016 1.92 1.32 2.88 3.192 2.88 5.616 0 1.656-.444 3.132-1.332 4.428-.864 1.296-1.992 2.208-3.384 2.736-.144.072-.216.192-.216.36 0 .072.024.18.072.324zm-10.98-14.832c.912 0 1.608-.228 2.088-.684.504-.48.756-1.116.756-1.908 0-.888-.3-1.572-.9-2.052-.576-.504-1.296-.756-2.16-.756h-3.168c-.312 0-.528.06-.648.18-.12.096-.18.276-.18.54v3.924c0 .264.036.456.108.576.096.12.264.18.504.18zm14.23-9.9c0-.264.06-.468.18-.612s.288-.216.504-.216h6.84c.432 0 .648.252.648.756v19.548c0 .192.024.324.072.396.072.072.192.108.36.108h10.836c.552 0 .828.228.828.684v4.428c0 .24-.084.432-.252.576-.144.144-.36.216-.648.216h-18.396c-.36 0-.612-.072-.756-.216s-.216-.372-.216-.684zm28.352-.828c2.856 0 4.632.012 5.328.036 4.68.168 8.22 1.44 10.62 3.816 2.4 2.352 3.6 5.496 3.6 9.432 0 2.64-.54 4.968-1.62 6.984s-2.688 3.6-4.824 4.752c-2.136 1.128-4.74 1.692-7.812 1.692h-9.468c-.36 0-.624-.084-.792-.252s-.252-.444-.252-.828v-24.732c0-.336.072-.564.216-.684.144-.144.396-.216.756-.216zm3.312 5.652c-.12 0-.216.036-.288.108-.048.072-.072.204-.072.396v14.364c0 .216.036.36.108.432s.204.108.396.108h.252c2.376 0 4.176-.612 5.4-1.836 1.248-1.248 1.872-3.264 1.872-6.048 0-2.4-.468-4.188-1.404-5.364s-2.304-1.848-4.104-2.016z" fill="#000"/></svg>