<svg fill="none" height="15" viewBox="0 0 137 15" width="137" xmlns="http://www.w3.org/2000/svg"><g fill="#fff"><path clip-rule="evenodd" d="m3.90784 1.64562c1.41741-.23442 2.83595.26093 3.94312 1.41939 1.10716-1.15846 2.52574-1.65381 3.94314-1.41939 1.3395.22153 2.5086 1.08121 3.0875 2.29908.6464 1.35967.4872 2.9618-.4599 4.52133-1.1088 1.82577-3.2371 3.53497-6.32272 5.02757-.15666.0758-.33938.0758-.49605 0-3.08564-1.4926-5.21396-3.2018-6.32273-5.02757-.947069-1.55953-1.106253-3.16166-.459933-4.52133.578913-1.21787 1.748073-2.07755 3.087573-2.29908zm2.68157 7.91939.91798-.48032c.21511-.11255.47212-.11255.68723 0l.91798.48032c.03736.01955.08016.0263.12177.0192.10448-.01782.17465-.11652.15674-.22046l-.17541-1.01781c-.04104-.23817.03831-.48118.21221-.64989l.74299-.72083c.0303-.0293.0499-.0677.056-.10924.0152-.10435-.0574-.20125-.1623-.21642l-1.02659-.14845c-.24045-.03478-.44831-.18505-.55581-.40184l-.45907-.92575c-.01869-.03767-.04934-.06817-.08721-.08676-.09506-.04665-.21014-.00781-.25704.08676l-.45907.92575c-.1075.21679-.31536.36706-.55581.40184l-1.02655.14845c-.04176.00604-.08035.0256-.1098.05565-.07401.0755-.07248.19639.00341.27001l.74304.72083c.1739.16871.25325.41172.2122.64989l-.1754 1.01781c-.00713.04139-.00035.08397.0193.12114.04934.09334.16539.12921.25921.08012z" fill-rule="evenodd"/><path d="m25.1063 5.385v6.615h-2.205v-6.615h-1.8113v-1.8675h5.8275v1.8675zm5.5595 1.40625h3.1837v-3.27375h2.205v8.4825h-2.205v-3.49875h-3.1837v3.49875h-2.205v-8.4825h2.205zm12.5551-1.40625h-2.6213v1.4175h2.475v1.8675h-2.475v1.4625h2.6213v1.8675h-4.8263v-8.4825h4.8263zm10.6667 1.8675h4.3763c0 .45-.0188.85875-.0563 1.22625s-.1125.70875-.225 1.02375c-.1575.4425-.3712.8362-.6412 1.1812-.27.3375-.5888.6225-.9563.855-.36.225-.7575.3975-1.1925.5176-.435.12-.8925.18-1.3725.18-.66 0-1.2637-.1088-1.8112-.3263-.54-.2175-1.005-.5213-1.395-.9113-.39-.3975-.6938-.87-.9113-1.41745-.2175-.555-.3262-1.16625-.3262-1.83375 0-.66.105-1.26375.315-1.81125.2175-.555.5212-1.0275.9112-1.4175.3975-.39.8738-.69375 1.4288-.91125s1.1737-.32625 1.8562-.32625c.885 0 1.6613.19125 2.3288.57375s1.1962.975 1.5862 1.7775l-2.0925.86625c-.195-.465-.45-.79875-.765-1.00125-.3075-.2025-.66-.30375-1.0575-.30375-.33 0-.63.06375-.9.19125-.27.12-.5025.29625-.6975.52875-.1875.225-.3375.49875-.45.82125-.105.3225-.1575.6825-.1575 1.08 0 .36.045.69375.135 1.00125.0975.3075.24.57375.4275.79875s.42.4012.6975.5287c.2775.12.6.18.9675.18.2175 0 .4275-.0225.63-.0675.2025-.0525.3825-.1312.54-.2362.165-.1125.3-.255.405-.4275s.1763-.3825.2138-.63h-1.8113zm8.2562.50625c0 .3375.0637.64875.1912.93375s.3.5325.5175.7425.4688.375.7538.495c.2925.1125.6.1687.9225.1687s.6262-.0562.9112-.1687c.2925-.12.5475-.285.765-.495.225-.21.4013-.4575.5288-.7425s.1912-.59625.1912-.93375-.0637-.64875-.1912-.93375-.3038-.5325-.5288-.7425c-.2175-.21-.4725-.37125-.765-.48375-.285-.12-.5887-.18-.9112-.18s-.63.06-.9225.18c-.285.1125-.5363.27375-.7538.48375s-.39.4575-.5175.7425-.1912.59625-.1912.93375zm-2.3063 0c0-.63.1163-1.215.3488-1.755.2325-.5475.555-1.02375.9675-1.42875s.9037-.72 1.4737-.945c.5775-.2325 1.2113-.34875 1.9013-.34875.6825 0 1.3125.11625 1.89.34875.5775.225 1.0725.54 1.485.945.42.405.7462.88125.9787 1.42875.2325.54.3488 1.125.3488 1.755s-.1163 1.21875-.3488 1.76625c-.2325.54-.5587 1.0125-.9787 1.4175-.4125.405-.9075.7237-1.485.9562-.5775.2251-1.2075.3376-1.89.3376-.69 0-1.3238-.1125-1.9013-.3376-.57-.2325-1.0612-.5512-1.4737-.9562s-.735-.8775-.9675-1.4175c-.2325-.5475-.3488-1.13625-.3488-1.76625zm13.2729 0c0 .3375.0637.64875.1912.93375s.3.5325.5175.7425.4688.375.7538.495c.2925.1125.6.1687.9225.1687s.6262-.0562.9112-.1687c.2925-.12.5475-.285.765-.495.225-.21.4013-.4575.5288-.7425s.1912-.59625.1912-.93375-.0637-.64875-.1912-.93375-.3038-.5325-.5288-.7425c-.2175-.21-.4725-.37125-.765-.48375-.285-.12-.5887-.18-.9112-.18s-.63.06-.9225.18c-.285.1125-.5363.27375-.7538.48375s-.39.4575-.5175.7425-.1912.59625-.1912.93375zm-2.3063 0c0-.63.1163-1.215.3488-1.755.2325-.5475.555-1.02375.9675-1.42875s.9037-.72 1.4737-.945c.5775-.2325 1.2113-.34875 1.9013-.34875.6825 0 1.3125.11625 1.89.34875.5775.225 1.0725.54 1.485.945.42.405.7462.88125.9787 1.42875.2325.54.3488 1.125.3488 1.755s-.1163 1.21875-.3488 1.76625c-.2325.54-.5587 1.0125-.9787 1.4175-.4125.405-.9075.7237-1.485.9562-.5775.2251-1.2075.3376-1.89.3376-.69 0-1.3238-.1125-1.9013-.3376-.57-.2325-1.0612-.5512-1.4737-.9562s-.735-.8775-.9675-1.4175c-.2325-.5475-.3488-1.13625-.3488-1.76625zm13.5541 2.37375h.5062c.3825 0 .7238-.06 1.0238-.18s.5512-.285.7537-.495c.21-.21.3675-.4575.4725-.7425.1125-.2925.1688-.61125.1688-.95625 0-.3375-.0563-.6525-.1688-.945s-.2737-.54375-.4837-.75375c-.2025-.21-.4538-.375-.7538-.495s-.6375-.18-1.0125-.18h-.5062zm-2.205-6.615h3.2625c.5775 0 1.1175.11625 1.62.34875.51.2325.9525.54375 1.3275.93375.3825.3825.6825.8325.9 1.35.2175.51.3262 1.04625.3262 1.60875 0 .555-.1087 1.09125-.3262 1.60875-.21.51-.5063.96-.8888 1.35-.375.39-.8175.7012-1.3275.9337-.5025.2325-1.0462.3488-1.6312.3488h-3.2625zm15.9972 3.8925h.7312c.81 0 1.2154-.3525 1.2154-1.0575s-.4054-1.0575-1.2154-1.0575h-.7312zm0 4.59h-2.205v-8.4825h3.51c.9526 0 1.6796.2475 2.1826.7425.51.495.765 1.1925.765 2.0925s-.255 1.5975-.765 2.0925c-.503.495-1.23.7425-2.1826.7425h-1.305zm10.1216-3.15-.99-2.82375-.99 2.82375zm.585 1.6762h-3.15l-.506 1.4738h-2.351l3.229-8.4825h2.407l3.229 8.4825h-2.351zm6.59-3.21745h.417c.435 0 .768-.09 1.001-.27.232-.18.349-.43875.349-.77625s-.117-.59625-.349-.77625c-.233-.18-.566-.27-1.001-.27h-.417zm4.849 4.69125h-2.745l-2.104-3.2625v3.2625h-2.205v-8.4825h3.432c.472 0 .885.07125 1.237.21375.353.135.641.3225.866.5625.233.24.405.5175.518.8325.12.315.18.6525.18 1.0125 0 .645-.158 1.17-.473 1.575-.307.3975-.765.6675-1.372.81zm4.713-6.615v6.615h-2.205v-6.615h-1.811v-1.8675h5.828v1.8675zm5.952 2.5425-3.094-4.41h2.632l1.575 2.3175 1.564-2.3175h2.633l-3.105 4.41v4.0725h-2.205z"/></g></svg>