<svg fill="none" height="34" viewBox="0 0 26 34" width="26" xmlns="http://www.w3.org/2000/svg" xmlns:xlink="http://www.w3.org/1999/xlink"><linearGradient id="a"><stop offset="0" stop-color="#4300d3"/><stop offset="1" stop-color="#4300d3" stop-opacity="0"/></linearGradient><linearGradient id="b" gradientUnits="userSpaceOnUse" x1="26.5136" x2="-3.41051" xlink:href="#a" y1="-6.19999" y2="-1.46504"/><linearGradient id="c"><stop offset="0" stop-color="#ff0f13"/><stop offset="1" stop-color="#bf0020" stop-opacity="0"/></linearGradient><linearGradient id="d" gradientUnits="userSpaceOnUse" x1="-.023468" x2="27.7373" xlink:href="#c" y1=".999999" y2="5.93497"/><linearGradient id="e" gradientUnits="userSpaceOnUse" x1="21.5025" x2="5.93034" xlink:href="#a" y1="3.82672" y2="11.6668"/><linearGradient id="f" gradientUnits="userSpaceOnUse" x1="4.6153" x2="18.4222" xlink:href="#c" y1="5.26672" y2="13.0763"/><linearGradient id="g" gradientUnits="userSpaceOnUse" x1="13.5816" x2="12.2494" xlink:href="#a" y1="16.76" y2="17.0475"/><linearGradient id="h" gradientUnits="userSpaceOnUse" x1="12.3754" x2="13.6048" xlink:href="#c" y1="17" y2="17.298"/><linearGradient id="i" gradientUnits="userSpaceOnUse" x1="13.5816" x2="12.2494" xlink:href="#a" y1="22.0934" y2="22.3808"/><linearGradient id="j" gradientUnits="userSpaceOnUse" x1="12.3754" x2="13.6048" xlink:href="#c" y1="22.3334" y2="22.6314"/><linearGradient id="k" gradientUnits="userSpaceOnUse" x1="7.49296" x2="6.16074" xlink:href="#a" y1="16.76" y2="17.0475"/><linearGradient id="l" gradientUnits="userSpaceOnUse" x1="6.28673" x2="7.51621" xlink:href="#c" y1="17" y2="17.298"/><linearGradient id="m" gradientUnits="userSpaceOnUse" x1="19.2264" x2="17.8941" xlink:href="#a" y1="16.76" y2="17.0475"/><linearGradient id="n" gradientUnits="userSpaceOnUse" x1="18.0201" x2="19.2496" xlink:href="#c" y1="17" y2="17.298"/><linearGradient id="o" gradientUnits="userSpaceOnUse" x1="7.49296" x2="6.16074" xlink:href="#a" y1="22.0934" y2="22.3808"/><linearGradient id="p" gradientUnits="userSpaceOnUse" x1="6.28673" x2="7.51621" xlink:href="#c" y1="22.3334" y2="22.6314"/><linearGradient id="q" gradientUnits="userSpaceOnUse" x1="19.2264" x2="17.8941" xlink:href="#a" y1="22.0934" y2="22.3808"/><linearGradient id="r" gradientUnits="userSpaceOnUse" x1="18.0201" x2="19.2496" xlink:href="#c" y1="22.3334" y2="22.6314"/><linearGradient id="s" gradientUnits="userSpaceOnUse" x1="7.49296" x2="6.16074" xlink:href="#a" y1="27.4266" y2="27.7141"/><linearGradient id="t" gradientUnits="userSpaceOnUse" x1="6.28673" x2="7.51621" xlink:href="#c" y1="27.6666" y2="27.9647"/><linearGradient id="u" gradientUnits="userSpaceOnUse" x1="19.2264" x2="17.8941" xlink:href="#a" y1="27.4266" y2="27.7141"/><linearGradient id="v" gradientUnits="userSpaceOnUse" x1="18.0201" x2="19.2496" xlink:href="#c" y1="27.6666" y2="27.9647"/><linearGradient id="w" gradientUnits="userSpaceOnUse" x1="13.5816" x2="12.2494" xlink:href="#a" y1="27.4266" y2="27.7141"/><linearGradient id="x" gradientUnits="userSpaceOnUse" x1="12.3754" x2="13.6048" xlink:href="#c" y1="27.6666" y2="27.9647"/><path d="m1 1h23.4667v32h-23.4667z" stroke="#5c00c7" stroke-linecap="round" stroke-linejoin="round" stroke-width="2"/><path d="m1 1h23.4667v32h-23.4667z" stroke="url(#b)" stroke-linecap="round" stroke-linejoin="round" stroke-opacity=".25" stroke-width="2"/><path d="m1 1h23.4667v32h-23.4667z" stroke="url(#d)" stroke-linecap="round" stroke-linejoin="round" stroke-opacity=".15" stroke-width="2"/><path d="m5.2666 5.26672h14.9333v6.39998h-14.9333z" stroke="#5c00c7" stroke-linecap="round" stroke-linejoin="round" stroke-width="2"/><path d="m5.2666 5.26672h14.9333v6.39998h-14.9333z" stroke="url(#e)" stroke-linecap="round" stroke-linejoin="round" stroke-opacity=".25" stroke-width="2"/><path d="m5.2666 5.26672h14.9333v6.39998h-14.9333z" stroke="url(#f)" stroke-linecap="round" stroke-linejoin="round" stroke-opacity=".15" stroke-width="2"/><path d="m12.9552 17c.1055 0 .2086.0313.2963.0899s.1561.1419.1964.2393c.0404.0975.051.2047.0304.3082-.0206.1034-.0714.1985-.146.2731-.0746.0745-.1696.1253-.273.1459-.1035.0206-.2107.01-.3082-.0303-.0974-.0404-.1807-.1088-.2393-.1965s-.0899-.1908-.0899-.2963c0-.1414.0562-.2771.1562-.3771s.2357-.1562.3771-.1562" stroke="#5c00c7" stroke-linecap="round" stroke-linejoin="round" stroke-width="2"/><path d="m12.9552 17c.1055 0 .2086.0313.2963.0899s.1561.1419.1964.2393c.0404.0975.051.2047.0304.3082-.0206.1034-.0714.1985-.146.2731-.0746.0745-.1696.1253-.273.1459-.1035.0206-.2107.01-.3082-.0303-.0974-.0404-.1807-.1088-.2393-.1965s-.0899-.1908-.0899-.2963c0-.1414.0562-.2771.1562-.3771s.2357-.1562.3771-.1562" stroke="url(#g)" stroke-linecap="round" stroke-linejoin="round" stroke-opacity=".25" stroke-width="2"/><path d="m12.9552 17c.1055 0 .2086.0313.2963.0899s.1561.1419.1964.2393c.0404.0975.051.2047.0304.3082-.0206.1034-.0714.1985-.146.2731-.0746.0745-.1696.1253-.273.1459-.1035.0206-.2107.01-.3082-.0303-.0974-.0404-.1807-.1088-.2393-.1965s-.0899-.1908-.0899-.2963c0-.1414.0562-.2771.1562-.3771s.2357-.1562.3771-.1562" stroke="url(#h)" stroke-linecap="round" stroke-linejoin="round" stroke-opacity=".15" stroke-width="2"/><path d="m12.9552 22.3334c.1055 0 .2086.0313.2963.0899s.1561.1419.1964.2393c.0404.0975.051.2047.0304.3082-.0206.1034-.0714.1984-.146.273s-.1696.1254-.273.146c-.1035.0206-.2107.01-.3082-.0304-.0974-.0403-.1807-.1087-.2393-.1964s-.0899-.1908-.0899-.2963c0-.1414.0562-.2771.1562-.3771s.2357-.1562.3771-.1562" stroke="#5c00c7" stroke-linecap="round" stroke-linejoin="round" stroke-width="2"/><path d="m12.9552 22.3334c.1055 0 .2086.0313.2963.0899s.1561.1419.1964.2393c.0404.0975.051.2047.0304.3082-.0206.1034-.0714.1984-.146.273s-.1696.1254-.273.146c-.1035.0206-.2107.01-.3082-.0304-.0974-.0403-.1807-.1087-.2393-.1964s-.0899-.1908-.0899-.2963c0-.1414.0562-.2771.1562-.3771s.2357-.1562.3771-.1562" stroke="url(#i)" stroke-linecap="round" stroke-linejoin="round" stroke-opacity=".25" stroke-width="2"/><path d="m12.9552 22.3334c.1055 0 .2086.0313.2963.0899s.1561.1419.1964.2393c.0404.0975.051.2047.0304.3082-.0206.1034-.0714.1984-.146.273s-.1696.1254-.273.146c-.1035.0206-.2107.01-.3082-.0304-.0974-.0403-.1807-.1087-.2393-.1964s-.0899-.1908-.0899-.2963c0-.1414.0562-.2771.1562-.3771s.2357-.1562.3771-.1562" stroke="url(#j)" stroke-linecap="round" stroke-linejoin="round" stroke-opacity=".15" stroke-width="2"/><path d="m6.86659 17c.10548 0 .20859.0313.2963.0899s.15606.1419.19643.2393c.04037.0975.05093.2047.03035.3082-.02058.1034-.07137.1985-.14596.2731-.07459.0745-.16962.1253-.27308.1459-.10345.0206-.21069.01-.30814-.0303-.09746-.0404-.18075-.1088-.23935-.1965-.05861-.0877-.08989-.1908-.08989-.2963 0-.1414.05619-.2771.15621-.3771s.23568-.1562.37713-.1562z" fill="#fff"/><path d="m6.86659 17c.10548 0 .20859.0313.2963.0899s.15606.1419.19643.2393c.04037.0975.05093.2047.03035.3082-.02058.1034-.07137.1985-.14596.2731-.07459.0745-.16962.1253-.27308.1459-.10345.0206-.21069.01-.30814-.0303-.09746-.0404-.18075-.1088-.23935-.1965-.05861-.0877-.08989-.1908-.08989-.2963 0-.1414.05619-.2771.15621-.3771s.23568-.1562.37713-.1562z" stroke="#5c00c7" stroke-linecap="round" stroke-linejoin="round" stroke-width="2"/><path d="m6.86659 17c.10548 0 .20859.0313.2963.0899s.15606.1419.19643.2393c.04037.0975.05093.2047.03035.3082-.02058.1034-.07137.1985-.14596.2731-.07459.0745-.16962.1253-.27308.1459-.10345.0206-.21069.01-.30814-.0303-.09746-.0404-.18075-.1088-.23935-.1965-.05861-.0877-.08989-.1908-.08989-.2963 0-.1414.05619-.2771.15621-.3771s.23568-.1562.37713-.1562z" stroke="url(#k)" stroke-linecap="round" stroke-linejoin="round" stroke-opacity=".25" stroke-width="2"/><path d="m6.86659 17c.10548 0 .20859.0313.2963.0899s.15606.1419.19643.2393c.04037.0975.05093.2047.03035.3082-.02058.1034-.07137.1985-.14596.2731-.07459.0745-.16962.1253-.27308.1459-.10345.0206-.21069.01-.30814-.0303-.09746-.0404-.18075-.1088-.23935-.1965-.05861-.0877-.08989-.1908-.08989-.2963 0-.1414.05619-.2771.15621-.3771s.23568-.1562.37713-.1562z" stroke="url(#l)" stroke-linecap="round" stroke-linejoin="round" stroke-opacity=".15" stroke-width="2"/><path d="m18.6 17c.1055 0 .2086.0313.2963.0899s.1561.1419.1964.2393c.0404.0975.0509.2047.0304.3082-.0206.1034-.0714.1985-.146.2731-.0746.0745-.1696.1253-.2731.1459-.1034.0206-.2107.01-.3081-.0303-.0975-.0404-.1808-.1088-.2394-.1965s-.0898-.1908-.0898-.2963c0-.1414.0561-.2771.1562-.3771.1-.1.2356-.1562.3771-.1562z" fill="#fff"/><path d="m18.6 17c.1055 0 .2086.0313.2963.0899s.1561.1419.1964.2393c.0404.0975.0509.2047.0304.3082-.0206.1034-.0714.1985-.146.2731-.0746.0745-.1696.1253-.2731.1459-.1034.0206-.2107.01-.3081-.0303-.0975-.0404-.1808-.1088-.2394-.1965s-.0898-.1908-.0898-.2963c0-.1414.0561-.2771.1562-.3771.1-.1.2356-.1562.3771-.1562z" stroke="#5c00c7" stroke-linecap="round" stroke-linejoin="round" stroke-width="2"/><path d="m18.6 17c.1055 0 .2086.0313.2963.0899s.1561.1419.1964.2393c.0404.0975.0509.2047.0304.3082-.0206.1034-.0714.1985-.146.2731-.0746.0745-.1696.1253-.2731.1459-.1034.0206-.2107.01-.3081-.0303-.0975-.0404-.1808-.1088-.2394-.1965s-.0898-.1908-.0898-.2963c0-.1414.0561-.2771.1562-.3771.1-.1.2356-.1562.3771-.1562z" stroke="url(#m)" stroke-linecap="round" stroke-linejoin="round" stroke-opacity=".25" stroke-width="2"/><path d="m18.6 17c.1055 0 .2086.0313.2963.0899s.1561.1419.1964.2393c.0404.0975.0509.2047.0304.3082-.0206.1034-.0714.1985-.146.2731-.0746.0745-.1696.1253-.2731.1459-.1034.0206-.2107.01-.3081-.0303-.0975-.0404-.1808-.1088-.2394-.1965s-.0898-.1908-.0898-.2963c0-.1414.0561-.2771.1562-.3771.1-.1.2356-.1562.3771-.1562z" stroke="url(#n)" stroke-linecap="round" stroke-linejoin="round" stroke-opacity=".15" stroke-width="2"/><path d="m6.86659 22.3334c.10548 0 .20859.0313.2963.0899s.15606.1419.19643.2393c.04037.0975.05093.2047.03035.3082-.02058.1034-.07137.1984-.14596.273s-.16962.1254-.27308.146c-.10345.0206-.21069.01-.30814-.0304-.09746-.0403-.18075-.1087-.23935-.1964-.05861-.0877-.08989-.1908-.08989-.2963 0-.1414.05619-.2771.15621-.3771s.23568-.1562.37713-.1562z" fill="#fff"/><path d="m6.86659 22.3334c.10548 0 .20859.0313.2963.0899s.15606.1419.19643.2393c.04037.0975.05093.2047.03035.3082-.02058.1034-.07137.1984-.14596.273s-.16962.1254-.27308.146c-.10345.0206-.21069.01-.30814-.0304-.09746-.0403-.18075-.1087-.23935-.1964-.05861-.0877-.08989-.1908-.08989-.2963 0-.1414.05619-.2771.15621-.3771s.23568-.1562.37713-.1562z" stroke="#5c00c7" stroke-linecap="round" stroke-linejoin="round" stroke-width="2"/><path d="m6.86659 22.3334c.10548 0 .20859.0313.2963.0899s.15606.1419.19643.2393c.04037.0975.05093.2047.03035.3082-.02058.1034-.07137.1984-.14596.273s-.16962.1254-.27308.146c-.10345.0206-.21069.01-.30814-.0304-.09746-.0403-.18075-.1087-.23935-.1964-.05861-.0877-.08989-.1908-.08989-.2963 0-.1414.05619-.2771.15621-.3771s.23568-.1562.37713-.1562z" stroke="url(#o)" stroke-linecap="round" stroke-linejoin="round" stroke-opacity=".25" stroke-width="2"/><path d="m6.86659 22.3334c.10548 0 .20859.0313.2963.0899s.15606.1419.19643.2393c.04037.0975.05093.2047.03035.3082-.02058.1034-.07137.1984-.14596.273s-.16962.1254-.27308.146c-.10345.0206-.21069.01-.30814-.0304-.09746-.0403-.18075-.1087-.23935-.1964-.05861-.0877-.08989-.1908-.08989-.2963 0-.1414.05619-.2771.15621-.3771s.23568-.1562.37713-.1562z" stroke="url(#p)" stroke-linecap="round" stroke-linejoin="round" stroke-opacity=".15" stroke-width="2"/><path d="m18.6 22.3334c.1055 0 .2086.0313.2963.0899s.1561.1419.1964.2393c.0404.0975.0509.2047.0304.3082-.0206.1034-.0714.1984-.146.273s-.1696.1254-.2731.146c-.1034.0206-.2107.01-.3081-.0304-.0975-.0403-.1808-.1087-.2394-.1964s-.0898-.1908-.0898-.2963c0-.1414.0561-.2771.1562-.3771.1-.1.2356-.1562.3771-.1562z" fill="#fff"/><path d="m18.6 22.3334c.1055 0 .2086.0313.2963.0899s.1561.1419.1964.2393c.0404.0975.0509.2047.0304.3082-.0206.1034-.0714.1984-.146.273s-.1696.1254-.2731.146c-.1034.0206-.2107.01-.3081-.0304-.0975-.0403-.1808-.1087-.2394-.1964s-.0898-.1908-.0898-.2963c0-.1414.0561-.2771.1562-.3771.1-.1.2356-.1562.3771-.1562z" stroke="#5c00c7" stroke-linecap="round" stroke-linejoin="round" stroke-width="2"/><path d="m18.6 22.3334c.1055 0 .2086.0313.2963.0899s.1561.1419.1964.2393c.0404.0975.0509.2047.0304.3082-.0206.1034-.0714.1984-.146.273s-.1696.1254-.2731.146c-.1034.0206-.2107.01-.3081-.0304-.0975-.0403-.1808-.1087-.2394-.1964s-.0898-.1908-.0898-.2963c0-.1414.0561-.2771.1562-.3771.1-.1.2356-.1562.3771-.1562z" stroke="url(#q)" stroke-linecap="round" stroke-linejoin="round" stroke-opacity=".25" stroke-width="2"/><path d="m18.6 22.3334c.1055 0 .2086.0313.2963.0899s.1561.1419.1964.2393c.0404.0975.0509.2047.0304.3082-.0206.1034-.0714.1984-.146.273s-.1696.1254-.2731.146c-.1034.0206-.2107.01-.3081-.0304-.0975-.0403-.1808-.1087-.2394-.1964s-.0898-.1908-.0898-.2963c0-.1414.0561-.2771.1562-.3771.1-.1.2356-.1562.3771-.1562z" stroke="url(#r)" stroke-linecap="round" stroke-linejoin="round" stroke-opacity=".15" stroke-width="2"/><path d="m6.86659 27.6666c.10548 0 .20859.0313.2963.0899s.15606.1419.19643.2394c.04037.0974.05093.2047.03035.3081-.02058.1035-.07137.1985-.14596.2731s-.16962.1254-.27308.1459c-.10345.0206-.21069.0101-.30814-.0303-.09746-.0404-.18075-.1087-.23935-.1964-.05861-.0877-.08989-.1909-.08989-.2963 0-.1415.05619-.2771.15621-.3772.10002-.1.23568-.1562.37713-.1562z" fill="#fff"/><path d="m6.86659 27.6666c.10548 0 .20859.0313.2963.0899s.15606.1419.19643.2394c.04037.0974.05093.2047.03035.3081-.02058.1035-.07137.1985-.14596.2731s-.16962.1254-.27308.1459c-.10345.0206-.21069.0101-.30814-.0303-.09746-.0404-.18075-.1087-.23935-.1964-.05861-.0877-.08989-.1909-.08989-.2963 0-.1415.05619-.2771.15621-.3772.10002-.1.23568-.1562.37713-.1562z" stroke="#5c00c7" stroke-linecap="round" stroke-linejoin="round" stroke-width="2"/><path d="m6.86659 27.6666c.10548 0 .20859.0313.2963.0899s.15606.1419.19643.2394c.04037.0974.05093.2047.03035.3081-.02058.1035-.07137.1985-.14596.2731s-.16962.1254-.27308.1459c-.10345.0206-.21069.0101-.30814-.0303-.09746-.0404-.18075-.1087-.23935-.1964-.05861-.0877-.08989-.1909-.08989-.2963 0-.1415.05619-.2771.15621-.3772.10002-.1.23568-.1562.37713-.1562z" stroke="url(#s)" stroke-linecap="round" stroke-linejoin="round" stroke-opacity=".25" stroke-width="2"/><path d="m6.86659 27.6666c.10548 0 .20859.0313.2963.0899s.15606.1419.19643.2394c.04037.0974.05093.2047.03035.3081-.02058.1035-.07137.1985-.14596.2731s-.16962.1254-.27308.1459c-.10345.0206-.21069.0101-.30814-.0303-.09746-.0404-.18075-.1087-.23935-.1964-.05861-.0877-.08989-.1909-.08989-.2963 0-.1415.05619-.2771.15621-.3772.10002-.1.23568-.1562.37713-.1562z" stroke="url(#t)" stroke-linecap="round" stroke-linejoin="round" stroke-opacity=".15" stroke-width="2"/><path d="m18.6 27.6666c.1055 0 .2086.0313.2963.0899s.1561.1419.1964.2394c.0404.0974.0509.2047.0304.3081-.0206.1035-.0714.1985-.146.2731s-.1696.1254-.2731.1459c-.1034.0206-.2107.0101-.3081-.0303-.0975-.0404-.1808-.1087-.2394-.1964s-.0898-.1909-.0898-.2963c0-.1415.0561-.2771.1562-.3772.1-.1.2356-.1562.3771-.1562z" fill="#fff"/><g stroke-linecap="round" stroke-linejoin="round" stroke-width="2"><path d="m18.6 27.6666c.1055 0 .2086.0313.2963.0899s.1561.1419.1964.2394c.0404.0974.0509.2047.0304.3081-.0206.1035-.0714.1985-.146.2731s-.1696.1254-.2731.1459c-.1034.0206-.2107.0101-.3081-.0303-.0975-.0404-.1808-.1087-.2394-.1964s-.0898-.1909-.0898-.2963c0-.1415.0561-.2771.1562-.3772.1-.1.2356-.1562.3771-.1562z" stroke="#5c00c7"/><path d="m18.6 27.6666c.1055 0 .2086.0313.2963.0899s.1561.1419.1964.2394c.0404.0974.0509.2047.0304.3081-.0206.1035-.0714.1985-.146.2731s-.1696.1254-.2731.1459c-.1034.0206-.2107.0101-.3081-.0303-.0975-.0404-.1808-.1087-.2394-.1964s-.0898-.1909-.0898-.2963c0-.1415.0561-.2771.1562-.3772.1-.1.2356-.1562.3771-.1562z" stroke="url(#u)" stroke-opacity=".25"/><path d="m18.6 27.6666c.1055 0 .2086.0313.2963.0899s.1561.1419.1964.2394c.0404.0974.0509.2047.0304.3081-.0206.1035-.0714.1985-.146.2731s-.1696.1254-.2731.1459c-.1034.0206-.2107.0101-.3081-.0303-.0975-.0404-.1808-.1087-.2394-.1964s-.0898-.1909-.0898-.2963c0-.1415.0561-.2771.1562-.3772.1-.1.2356-.1562.3771-.1562z" stroke="url(#v)" stroke-opacity=".15"/><path d="m12.9552 27.6666c.1055 0 .2086.0313.2963.0899s.1561.1419.1964.2394c.0404.0974.051.2047.0304.3081-.0206.1035-.0714.1985-.146.2731s-.1696.1254-.273.1459c-.1035.0206-.2107.0101-.3082-.0303-.0974-.0404-.1807-.1087-.2393-.1964s-.0899-.1909-.0899-.2963c0-.1415.0562-.2771.1562-.3772.1-.1.2357-.1562.3771-.1562" stroke="#5c00c7"/><path d="m12.9552 27.6666c.1055 0 .2086.0313.2963.0899s.1561.1419.1964.2394c.0404.0974.051.2047.0304.3081-.0206.1035-.0714.1985-.146.2731s-.1696.1254-.273.1459c-.1035.0206-.2107.0101-.3082-.0303-.0974-.0404-.1807-.1087-.2393-.1964s-.0899-.1909-.0899-.2963c0-.1415.0562-.2771.1562-.3772.1-.1.2357-.1562.3771-.1562" stroke="url(#w)" stroke-opacity=".25"/><path d="m12.9552 27.6666c.1055 0 .2086.0313.2963.0899s.1561.1419.1964.2394c.0404.0974.051.2047.0304.3081-.0206.1035-.0714.1985-.146.2731s-.1696.1254-.273.1459c-.1035.0206-.2107.0101-.3082-.0303-.0974-.0404-.1807-.1087-.2393-.1964s-.0899-.1909-.0899-.2963c0-.1415.0562-.2771.1562-.3772.1-.1.2357-.1562.3771-.1562" stroke="url(#x)" stroke-opacity=".15"/><path d="m18.6 17c.1055 0 .2086.0313.2963.0899s.1561.1419.1964.2393c.0404.0975.0509.2047.0304.3082-.0206.1034-.0714.1985-.146.2731-.0746.0745-.1696.1253-.2731.1459-.1034.0206-.2107.01-.3081-.0303-.0975-.0404-.1808-.1088-.2394-.1965s-.0898-.1908-.0898-.2963c0-.1414.0561-.2771.1562-.3771.1-.1.2356-.1562.3771-.1562" stroke="#5c00c7"/><path d="m18.6 17c.1055 0 .2086.0313.2963.0899s.1561.1419.1964.2393c.0404.0975.0509.2047.0304.3082-.0206.1034-.0714.1985-.146.2731-.0746.0745-.1696.1253-.2731.1459-.1034.0206-.2107.01-.3081-.0303-.0975-.0404-.1808-.1088-.2394-.1965s-.0898-.1908-.0898-.2963c0-.1414.0561-.2771.1562-.3771.1-.1.2356-.1562.3771-.1562" stroke="url(#m)" stroke-opacity=".25"/><path d="m18.6 17c.1055 0 .2086.0313.2963.0899s.1561.1419.1964.2393c.0404.0975.0509.2047.0304.3082-.0206.1034-.0714.1985-.146.2731-.0746.0745-.1696.1253-.2731.1459-.1034.0206-.2107.01-.3081-.0303-.0975-.0404-.1808-.1088-.2394-.1965s-.0898-.1908-.0898-.2963c0-.1414.0561-.2771.1562-.3771.1-.1.2356-.1562.3771-.1562" stroke="url(#n)" stroke-opacity=".15"/><path d="m6.86659 17c.10548 0 .20859.0313.2963.0899s.15607.1419.19643.2393c.04037.0975.05093.2047.03035.3082-.02058.1034-.07137.1985-.14596.2731-.07459.0745-.16962.1253-.27308.1459-.10345.0206-.21069.01-.30814-.0303-.09746-.0404-.18075-.1088-.23935-.1965-.05861-.0877-.08989-.1908-.08989-.2963 0-.1414.05619-.2771.15621-.3771s.23568-.1562.37713-.1562" stroke="#5c00c7"/><path d="m6.86659 17c.10548 0 .20859.0313.2963.0899s.15607.1419.19643.2393c.04037.0975.05093.2047.03035.3082-.02058.1034-.07137.1985-.14596.2731-.07459.0745-.16962.1253-.27308.1459-.10345.0206-.21069.01-.30814-.0303-.09746-.0404-.18075-.1088-.23935-.1965-.05861-.0877-.08989-.1908-.08989-.2963 0-.1414.05619-.2771.15621-.3771s.23568-.1562.37713-.1562" stroke="url(#k)" stroke-opacity=".25"/><path d="m6.86659 17c.10548 0 .20859.0313.2963.0899s.15607.1419.19643.2393c.04037.0975.05093.2047.03035.3082-.02058.1034-.07137.1985-.14596.2731-.07459.0745-.16962.1253-.27308.1459-.10345.0206-.21069.01-.30814-.0303-.09746-.0404-.18075-.1088-.23935-.1965-.05861-.0877-.08989-.1908-.08989-.2963 0-.1414.05619-.2771.15621-.3771s.23568-.1562.37713-.1562" stroke="url(#l)" stroke-opacity=".15"/><path d="m18.6 22.3334c.1055 0 .2086.0313.2963.0899s.1561.1419.1964.2393c.0404.0975.0509.2047.0304.3082-.0206.1034-.0714.1984-.146.273s-.1696.1254-.2731.146c-.1034.0206-.2107.01-.3081-.0304-.0975-.0403-.1808-.1087-.2394-.1964s-.0898-.1908-.0898-.2963c0-.1414.0561-.2771.1562-.3771.1-.1.2356-.1562.3771-.1562" stroke="#5c00c7"/><path d="m18.6 22.3334c.1055 0 .2086.0313.2963.0899s.1561.1419.1964.2393c.0404.0975.0509.2047.0304.3082-.0206.1034-.0714.1984-.146.273s-.1696.1254-.2731.146c-.1034.0206-.2107.01-.3081-.0304-.0975-.0403-.1808-.1087-.2394-.1964s-.0898-.1908-.0898-.2963c0-.1414.0561-.2771.1562-.3771.1-.1.2356-.1562.3771-.1562" stroke="url(#q)" stroke-opacity=".25"/><path d="m18.6 22.3334c.1055 0 .2086.0313.2963.0899s.1561.1419.1964.2393c.0404.0975.0509.2047.0304.3082-.0206.1034-.0714.1984-.146.273s-.1696.1254-.2731.146c-.1034.0206-.2107.01-.3081-.0304-.0975-.0403-.1808-.1087-.2394-.1964s-.0898-.1908-.0898-.2963c0-.1414.0561-.2771.1562-.3771.1-.1.2356-.1562.3771-.1562" stroke="url(#r)" stroke-opacity=".15"/><path d="m6.86659 22.3334c.10548 0 .20859.0313.2963.0899s.15607.1419.19643.2393c.04037.0975.05093.2047.03035.3082-.02058.1034-.07137.1984-.14596.273s-.16962.1254-.27308.146c-.10345.0206-.21069.01-.30814-.0304-.09746-.0403-.18075-.1087-.23935-.1964-.05861-.0877-.08989-.1908-.08989-.2963 0-.1414.05619-.2771.15621-.3771s.23568-.1562.37713-.1562" stroke="#5c00c7"/><path d="m6.86659 22.3334c.10548 0 .20859.0313.2963.0899s.15607.1419.19643.2393c.04037.0975.05093.2047.03035.3082-.02058.1034-.07137.1984-.14596.273s-.16962.1254-.27308.146c-.10345.0206-.21069.01-.30814-.0304-.09746-.0403-.18075-.1087-.23935-.1964-.05861-.0877-.08989-.1908-.08989-.2963 0-.1414.05619-.2771.15621-.3771s.23568-.1562.37713-.1562" stroke="url(#o)" stroke-opacity=".25"/><path d="m6.86659 22.3334c.10548 0 .20859.0313.2963.0899s.15607.1419.19643.2393c.04037.0975.05093.2047.03035.3082-.02058.1034-.07137.1984-.14596.273s-.16962.1254-.27308.146c-.10345.0206-.21069.01-.30814-.0304-.09746-.0403-.18075-.1087-.23935-.1964-.05861-.0877-.08989-.1908-.08989-.2963 0-.1414.05619-.2771.15621-.3771s.23568-.1562.37713-.1562" stroke="url(#p)" stroke-opacity=".15"/><path d="m18.6 27.6666c.1055 0 .2086.0313.2963.0899s.1561.1419.1964.2394c.0404.0974.0509.2047.0304.3081-.0206.1035-.0714.1985-.146.2731s-.1696.1254-.2731.1459c-.1034.0206-.2107.0101-.3081-.0303-.0975-.0404-.1808-.1087-.2394-.1964s-.0898-.1909-.0898-.2963c0-.1415.0561-.2771.1562-.3772.1-.1.2356-.1562.3771-.1562" stroke="#5c00c7"/><path d="m18.6 27.6666c.1055 0 .2086.0313.2963.0899s.1561.1419.1964.2394c.0404.0974.0509.2047.0304.3081-.0206.1035-.0714.1985-.146.2731s-.1696.1254-.2731.1459c-.1034.0206-.2107.0101-.3081-.0303-.0975-.0404-.1808-.1087-.2394-.1964s-.0898-.1909-.0898-.2963c0-.1415.0561-.2771.1562-.3772.1-.1.2356-.1562.3771-.1562" stroke="url(#u)" stroke-opacity=".25"/><path d="m18.6 27.6666c.1055 0 .2086.0313.2963.0899s.1561.1419.1964.2394c.0404.0974.0509.2047.0304.3081-.0206.1035-.0714.1985-.146.2731s-.1696.1254-.2731.1459c-.1034.0206-.2107.0101-.3081-.0303-.0975-.0404-.1808-.1087-.2394-.1964s-.0898-.1909-.0898-.2963c0-.1415.0561-.2771.1562-.3772.1-.1.2356-.1562.3771-.1562" stroke="url(#v)" stroke-opacity=".15"/><path d="m6.86659 27.6666c.10548 0 .20859.0313.2963.0899s.15607.1419.19643.2394c.04037.0974.05093.2047.03035.3081-.02058.1035-.07137.1985-.14596.2731s-.16962.1254-.27308.1459c-.10345.0206-.21069.0101-.30814-.0303-.09746-.0404-.18075-.1087-.23935-.1964-.05861-.0877-.08989-.1909-.08989-.2963 0-.1415.05619-.2771.15621-.3772.10002-.1.23568-.1562.37713-.1562" stroke="#5c00c7"/><path d="m6.86659 27.6666c.10548 0 .20859.0313.2963.0899s.15607.1419.19643.2394c.04037.0974.05093.2047.03035.3081-.02058.1035-.07137.1985-.14596.2731s-.16962.1254-.27308.1459c-.10345.0206-.21069.0101-.30814-.0303-.09746-.0404-.18075-.1087-.23935-.1964-.05861-.0877-.08989-.1909-.08989-.2963 0-.1415.05619-.2771.15621-.3772.10002-.1.23568-.1562.37713-.1562" stroke="url(#s)" stroke-opacity=".25"/><path d="m6.86659 27.6666c.10548 0 .20859.0313.2963.0899s.15607.1419.19643.2394c.04037.0974.05093.2047.03035.3081-.02058.1035-.07137.1985-.14596.2731s-.16962.1254-.27308.1459c-.10345.0206-.21069.0101-.30814-.0303-.09746-.0404-.18075-.1087-.23935-.1964-.05861-.0877-.08989-.1909-.08989-.2963 0-.1415.05619-.2771.15621-.3772.10002-.1.23568-.1562.37713-.1562" stroke="url(#t)" stroke-opacity=".15"/></g></svg>