<svg width="26" height="34" viewBox="0 0 26 34" fill="none" xmlns="http://www.w3.org/2000/svg">
<path d="M1 1H24.4667V33H1V1Z" stroke="#5C00C7" stroke-width="2" stroke-linecap="round" stroke-linejoin="round"/>
<path d="M1 1H24.4667V33H1V1Z" stroke="url(#paint0_linear)" stroke-opacity="0.25" stroke-width="2" stroke-linecap="round" stroke-linejoin="round"/>
<path d="M1 1H24.4667V33H1V1Z" stroke="url(#paint1_linear)" stroke-opacity="0.15" stroke-width="2" stroke-linecap="round" stroke-linejoin="round"/>
<path d="M5.2666 5.26672H20.1999V11.6667H5.2666V5.26672Z" stroke="#5C00C7" stroke-width="2" stroke-linecap="round" stroke-linejoin="round"/>
<path d="M5.2666 5.26672H20.1999V11.6667H5.2666V5.26672Z" stroke="url(#paint2_linear)" stroke-opacity="0.25" stroke-width="2" stroke-linecap="round" stroke-linejoin="round"/>
<path d="M5.2666 5.26672H20.1999V11.6667H5.2666V5.26672Z" stroke="url(#paint3_linear)" stroke-opacity="0.15" stroke-width="2" stroke-linecap="round" stroke-linejoin="round"/>
<path d="M12.9552 17C13.0607 17 13.1638 17.0313 13.2515 17.0899C13.3392 17.1485 13.4076 17.2318 13.4479 17.3292C13.4883 17.4267 13.4989 17.5339 13.4783 17.6374C13.4577 17.7408 13.4069 17.8359 13.3323 17.9105C13.2577 17.985 13.1627 18.0358 13.0593 18.0564C12.9558 18.077 12.8486 18.0664 12.7511 18.0261C12.6537 17.9857 12.5704 17.9173 12.5118 17.8296C12.4532 17.7419 12.4219 17.6388 12.4219 17.5333C12.4219 17.3919 12.4781 17.2562 12.5781 17.1562C12.6781 17.0562 12.8138 17 12.9552 17" stroke="#5C00C7" stroke-width="2" stroke-linecap="round" stroke-linejoin="round"/>
<path d="M12.9552 17C13.0607 17 13.1638 17.0313 13.2515 17.0899C13.3392 17.1485 13.4076 17.2318 13.4479 17.3292C13.4883 17.4267 13.4989 17.5339 13.4783 17.6374C13.4577 17.7408 13.4069 17.8359 13.3323 17.9105C13.2577 17.985 13.1627 18.0358 13.0593 18.0564C12.9558 18.077 12.8486 18.0664 12.7511 18.0261C12.6537 17.9857 12.5704 17.9173 12.5118 17.8296C12.4532 17.7419 12.4219 17.6388 12.4219 17.5333C12.4219 17.3919 12.4781 17.2562 12.5781 17.1562C12.6781 17.0562 12.8138 17 12.9552 17" stroke="url(#paint4_linear)" stroke-opacity="0.25" stroke-width="2" stroke-linecap="round" stroke-linejoin="round"/>
<path d="M12.9552 17C13.0607 17 13.1638 17.0313 13.2515 17.0899C13.3392 17.1485 13.4076 17.2318 13.4479 17.3292C13.4883 17.4267 13.4989 17.5339 13.4783 17.6374C13.4577 17.7408 13.4069 17.8359 13.3323 17.9105C13.2577 17.985 13.1627 18.0358 13.0593 18.0564C12.9558 18.077 12.8486 18.0664 12.7511 18.0261C12.6537 17.9857 12.5704 17.9173 12.5118 17.8296C12.4532 17.7419 12.4219 17.6388 12.4219 17.5333C12.4219 17.3919 12.4781 17.2562 12.5781 17.1562C12.6781 17.0562 12.8138 17 12.9552 17" stroke="url(#paint5_linear)" stroke-opacity="0.15" stroke-width="2" stroke-linecap="round" stroke-linejoin="round"/>
<path d="M12.9552 22.3334C13.0607 22.3334 13.1638 22.3647 13.2515 22.4233C13.3392 22.4819 13.4076 22.5652 13.4479 22.6626C13.4883 22.7601 13.4989 22.8673 13.4783 22.9708C13.4577 23.0742 13.4069 23.1692 13.3323 23.2438C13.2577 23.3184 13.1627 23.3692 13.0593 23.3898C12.9558 23.4104 12.8486 23.3998 12.7511 23.3594C12.6537 23.3191 12.5704 23.2507 12.5118 23.163C12.4532 23.0753 12.4219 22.9722 12.4219 22.8667C12.4219 22.7253 12.4781 22.5896 12.5781 22.4896C12.6781 22.3896 12.8138 22.3334 12.9552 22.3334" stroke="#5C00C7" stroke-width="2" stroke-linecap="round" stroke-linejoin="round"/>
<path d="M12.9552 22.3334C13.0607 22.3334 13.1638 22.3647 13.2515 22.4233C13.3392 22.4819 13.4076 22.5652 13.4479 22.6626C13.4883 22.7601 13.4989 22.8673 13.4783 22.9708C13.4577 23.0742 13.4069 23.1692 13.3323 23.2438C13.2577 23.3184 13.1627 23.3692 13.0593 23.3898C12.9558 23.4104 12.8486 23.3998 12.7511 23.3594C12.6537 23.3191 12.5704 23.2507 12.5118 23.163C12.4532 23.0753 12.4219 22.9722 12.4219 22.8667C12.4219 22.7253 12.4781 22.5896 12.5781 22.4896C12.6781 22.3896 12.8138 22.3334 12.9552 22.3334" stroke="url(#paint6_linear)" stroke-opacity="0.25" stroke-width="2" stroke-linecap="round" stroke-linejoin="round"/>
<path d="M12.9552 22.3334C13.0607 22.3334 13.1638 22.3647 13.2515 22.4233C13.3392 22.4819 13.4076 22.5652 13.4479 22.6626C13.4883 22.7601 13.4989 22.8673 13.4783 22.9708C13.4577 23.0742 13.4069 23.1692 13.3323 23.2438C13.2577 23.3184 13.1627 23.3692 13.0593 23.3898C12.9558 23.4104 12.8486 23.3998 12.7511 23.3594C12.6537 23.3191 12.5704 23.2507 12.5118 23.163C12.4532 23.0753 12.4219 22.9722 12.4219 22.8667C12.4219 22.7253 12.4781 22.5896 12.5781 22.4896C12.6781 22.3896 12.8138 22.3334 12.9552 22.3334" stroke="url(#paint7_linear)" stroke-opacity="0.15" stroke-width="2" stroke-linecap="round" stroke-linejoin="round"/>
<path d="M6.86659 17C6.97207 17 7.07518 17.0313 7.16289 17.0899C7.2506 17.1485 7.31895 17.2318 7.35932 17.3292C7.39969 17.4267 7.41025 17.5339 7.38967 17.6374C7.36909 17.7408 7.3183 17.8359 7.24371 17.9105C7.16912 17.985 7.07409 18.0358 6.97063 18.0564C6.86718 18.077 6.75994 18.0664 6.66249 18.0261C6.56503 17.9857 6.48174 17.9173 6.42314 17.8296C6.36453 17.7419 6.33325 17.6388 6.33325 17.5333C6.33325 17.3919 6.38944 17.2562 6.48946 17.1562C6.58948 17.0562 6.72514 17 6.86659 17Z" fill="white"/>
<path d="M6.86659 17C6.97207 17 7.07518 17.0313 7.16289 17.0899C7.2506 17.1485 7.31895 17.2318 7.35932 17.3292C7.39969 17.4267 7.41025 17.5339 7.38967 17.6374C7.36909 17.7408 7.3183 17.8359 7.24371 17.9105C7.16912 17.985 7.07409 18.0358 6.97063 18.0564C6.86718 18.077 6.75994 18.0664 6.66249 18.0261C6.56503 17.9857 6.48174 17.9173 6.42314 17.8296C6.36453 17.7419 6.33325 17.6388 6.33325 17.5333C6.33325 17.3919 6.38944 17.2562 6.48946 17.1562C6.58948 17.0562 6.72514 17 6.86659 17Z" stroke="#5C00C7" stroke-width="2" stroke-linecap="round" stroke-linejoin="round"/>
<path d="M6.86659 17C6.97207 17 7.07518 17.0313 7.16289 17.0899C7.2506 17.1485 7.31895 17.2318 7.35932 17.3292C7.39969 17.4267 7.41025 17.5339 7.38967 17.6374C7.36909 17.7408 7.3183 17.8359 7.24371 17.9105C7.16912 17.985 7.07409 18.0358 6.97063 18.0564C6.86718 18.077 6.75994 18.0664 6.66249 18.0261C6.56503 17.9857 6.48174 17.9173 6.42314 17.8296C6.36453 17.7419 6.33325 17.6388 6.33325 17.5333C6.33325 17.3919 6.38944 17.2562 6.48946 17.1562C6.58948 17.0562 6.72514 17 6.86659 17Z" stroke="url(#paint8_linear)" stroke-opacity="0.25" stroke-width="2" stroke-linecap="round" stroke-linejoin="round"/>
<path d="M6.86659 17C6.97207 17 7.07518 17.0313 7.16289 17.0899C7.2506 17.1485 7.31895 17.2318 7.35932 17.3292C7.39969 17.4267 7.41025 17.5339 7.38967 17.6374C7.36909 17.7408 7.3183 17.8359 7.24371 17.9105C7.16912 17.985 7.07409 18.0358 6.97063 18.0564C6.86718 18.077 6.75994 18.0664 6.66249 18.0261C6.56503 17.9857 6.48174 17.9173 6.42314 17.8296C6.36453 17.7419 6.33325 17.6388 6.33325 17.5333C6.33325 17.3919 6.38944 17.2562 6.48946 17.1562C6.58948 17.0562 6.72514 17 6.86659 17Z" stroke="url(#paint9_linear)" stroke-opacity="0.15" stroke-width="2" stroke-linecap="round" stroke-linejoin="round"/>
<path d="M18.6 17C18.7055 17 18.8086 17.0313 18.8963 17.0899C18.984 17.1485 19.0524 17.2318 19.0927 17.3292C19.1331 17.4267 19.1436 17.5339 19.1231 17.6374C19.1025 17.7408 19.0517 17.8359 18.9771 17.9105C18.9025 17.985 18.8075 18.0358 18.704 18.0564C18.6006 18.077 18.4933 18.0664 18.3959 18.0261C18.2984 17.9857 18.2151 17.9173 18.1565 17.8296C18.0979 17.7419 18.0667 17.6388 18.0667 17.5333C18.0667 17.3919 18.1228 17.2562 18.2229 17.1562C18.3229 17.0562 18.4585 17 18.6 17Z" fill="white"/>
<path d="M18.6 17C18.7055 17 18.8086 17.0313 18.8963 17.0899C18.984 17.1485 19.0524 17.2318 19.0927 17.3292C19.1331 17.4267 19.1436 17.5339 19.1231 17.6374C19.1025 17.7408 19.0517 17.8359 18.9771 17.9105C18.9025 17.985 18.8075 18.0358 18.704 18.0564C18.6006 18.077 18.4933 18.0664 18.3959 18.0261C18.2984 17.9857 18.2151 17.9173 18.1565 17.8296C18.0979 17.7419 18.0667 17.6388 18.0667 17.5333C18.0667 17.3919 18.1228 17.2562 18.2229 17.1562C18.3229 17.0562 18.4585 17 18.6 17Z" stroke="#5C00C7" stroke-width="2" stroke-linecap="round" stroke-linejoin="round"/>
<path d="M18.6 17C18.7055 17 18.8086 17.0313 18.8963 17.0899C18.984 17.1485 19.0524 17.2318 19.0927 17.3292C19.1331 17.4267 19.1436 17.5339 19.1231 17.6374C19.1025 17.7408 19.0517 17.8359 18.9771 17.9105C18.9025 17.985 18.8075 18.0358 18.704 18.0564C18.6006 18.077 18.4933 18.0664 18.3959 18.0261C18.2984 17.9857 18.2151 17.9173 18.1565 17.8296C18.0979 17.7419 18.0667 17.6388 18.0667 17.5333C18.0667 17.3919 18.1228 17.2562 18.2229 17.1562C18.3229 17.0562 18.4585 17 18.6 17Z" stroke="url(#paint10_linear)" stroke-opacity="0.25" stroke-width="2" stroke-linecap="round" stroke-linejoin="round"/>
<path d="M18.6 17C18.7055 17 18.8086 17.0313 18.8963 17.0899C18.984 17.1485 19.0524 17.2318 19.0927 17.3292C19.1331 17.4267 19.1436 17.5339 19.1231 17.6374C19.1025 17.7408 19.0517 17.8359 18.9771 17.9105C18.9025 17.985 18.8075 18.0358 18.704 18.0564C18.6006 18.077 18.4933 18.0664 18.3959 18.0261C18.2984 17.9857 18.2151 17.9173 18.1565 17.8296C18.0979 17.7419 18.0667 17.6388 18.0667 17.5333C18.0667 17.3919 18.1228 17.2562 18.2229 17.1562C18.3229 17.0562 18.4585 17 18.6 17Z" stroke="url(#paint11_linear)" stroke-opacity="0.15" stroke-width="2" stroke-linecap="round" stroke-linejoin="round"/>
<path d="M6.86659 22.3334C6.97207 22.3334 7.07518 22.3647 7.16289 22.4233C7.2506 22.4819 7.31895 22.5652 7.35932 22.6626C7.39969 22.7601 7.41025 22.8673 7.38967 22.9708C7.36909 23.0742 7.3183 23.1692 7.24371 23.2438C7.16912 23.3184 7.07409 23.3692 6.97063 23.3898C6.86718 23.4104 6.75994 23.3998 6.66249 23.3594C6.56503 23.3191 6.48174 23.2507 6.42314 23.163C6.36453 23.0753 6.33325 22.9722 6.33325 22.8667C6.33325 22.7253 6.38944 22.5896 6.48946 22.4896C6.58948 22.3896 6.72514 22.3334 6.86659 22.3334Z" fill="white"/>
<path d="M6.86659 22.3334C6.97207 22.3334 7.07518 22.3647 7.16289 22.4233C7.2506 22.4819 7.31895 22.5652 7.35932 22.6626C7.39969 22.7601 7.41025 22.8673 7.38967 22.9708C7.36909 23.0742 7.3183 23.1692 7.24371 23.2438C7.16912 23.3184 7.07409 23.3692 6.97063 23.3898C6.86718 23.4104 6.75994 23.3998 6.66249 23.3594C6.56503 23.3191 6.48174 23.2507 6.42314 23.163C6.36453 23.0753 6.33325 22.9722 6.33325 22.8667C6.33325 22.7253 6.38944 22.5896 6.48946 22.4896C6.58948 22.3896 6.72514 22.3334 6.86659 22.3334Z" stroke="#5C00C7" stroke-width="2" stroke-linecap="round" stroke-linejoin="round"/>
<path d="M6.86659 22.3334C6.97207 22.3334 7.07518 22.3647 7.16289 22.4233C7.2506 22.4819 7.31895 22.5652 7.35932 22.6626C7.39969 22.7601 7.41025 22.8673 7.38967 22.9708C7.36909 23.0742 7.3183 23.1692 7.24371 23.2438C7.16912 23.3184 7.07409 23.3692 6.97063 23.3898C6.86718 23.4104 6.75994 23.3998 6.66249 23.3594C6.56503 23.3191 6.48174 23.2507 6.42314 23.163C6.36453 23.0753 6.33325 22.9722 6.33325 22.8667C6.33325 22.7253 6.38944 22.5896 6.48946 22.4896C6.58948 22.3896 6.72514 22.3334 6.86659 22.3334Z" stroke="url(#paint12_linear)" stroke-opacity="0.25" stroke-width="2" stroke-linecap="round" stroke-linejoin="round"/>
<path d="M6.86659 22.3334C6.97207 22.3334 7.07518 22.3647 7.16289 22.4233C7.2506 22.4819 7.31895 22.5652 7.35932 22.6626C7.39969 22.7601 7.41025 22.8673 7.38967 22.9708C7.36909 23.0742 7.3183 23.1692 7.24371 23.2438C7.16912 23.3184 7.07409 23.3692 6.97063 23.3898C6.86718 23.4104 6.75994 23.3998 6.66249 23.3594C6.56503 23.3191 6.48174 23.2507 6.42314 23.163C6.36453 23.0753 6.33325 22.9722 6.33325 22.8667C6.33325 22.7253 6.38944 22.5896 6.48946 22.4896C6.58948 22.3896 6.72514 22.3334 6.86659 22.3334Z" stroke="url(#paint13_linear)" stroke-opacity="0.15" stroke-width="2" stroke-linecap="round" stroke-linejoin="round"/>
<path d="M18.6 22.3334C18.7055 22.3334 18.8086 22.3647 18.8963 22.4233C18.984 22.4819 19.0524 22.5652 19.0927 22.6626C19.1331 22.7601 19.1436 22.8673 19.1231 22.9708C19.1025 23.0742 19.0517 23.1692 18.9771 23.2438C18.9025 23.3184 18.8075 23.3692 18.704 23.3898C18.6006 23.4104 18.4933 23.3998 18.3959 23.3594C18.2984 23.3191 18.2151 23.2507 18.1565 23.163C18.0979 23.0753 18.0667 22.9722 18.0667 22.8667C18.0667 22.7253 18.1228 22.5896 18.2229 22.4896C18.3229 22.3896 18.4585 22.3334 18.6 22.3334Z" fill="white"/>
<path d="M18.6 22.3334C18.7055 22.3334 18.8086 22.3647 18.8963 22.4233C18.984 22.4819 19.0524 22.5652 19.0927 22.6626C19.1331 22.7601 19.1436 22.8673 19.1231 22.9708C19.1025 23.0742 19.0517 23.1692 18.9771 23.2438C18.9025 23.3184 18.8075 23.3692 18.704 23.3898C18.6006 23.4104 18.4933 23.3998 18.3959 23.3594C18.2984 23.3191 18.2151 23.2507 18.1565 23.163C18.0979 23.0753 18.0667 22.9722 18.0667 22.8667C18.0667 22.7253 18.1228 22.5896 18.2229 22.4896C18.3229 22.3896 18.4585 22.3334 18.6 22.3334Z" stroke="#5C00C7" stroke-width="2" stroke-linecap="round" stroke-linejoin="round"/>
<path d="M18.6 22.3334C18.7055 22.3334 18.8086 22.3647 18.8963 22.4233C18.984 22.4819 19.0524 22.5652 19.0927 22.6626C19.1331 22.7601 19.1436 22.8673 19.1231 22.9708C19.1025 23.0742 19.0517 23.1692 18.9771 23.2438C18.9025 23.3184 18.8075 23.3692 18.704 23.3898C18.6006 23.4104 18.4933 23.3998 18.3959 23.3594C18.2984 23.3191 18.2151 23.2507 18.1565 23.163C18.0979 23.0753 18.0667 22.9722 18.0667 22.8667C18.0667 22.7253 18.1228 22.5896 18.2229 22.4896C18.3229 22.3896 18.4585 22.3334 18.6 22.3334Z" stroke="url(#paint14_linear)" stroke-opacity="0.25" stroke-width="2" stroke-linecap="round" stroke-linejoin="round"/>
<path d="M18.6 22.3334C18.7055 22.3334 18.8086 22.3647 18.8963 22.4233C18.984 22.4819 19.0524 22.5652 19.0927 22.6626C19.1331 22.7601 19.1436 22.8673 19.1231 22.9708C19.1025 23.0742 19.0517 23.1692 18.9771 23.2438C18.9025 23.3184 18.8075 23.3692 18.704 23.3898C18.6006 23.4104 18.4933 23.3998 18.3959 23.3594C18.2984 23.3191 18.2151 23.2507 18.1565 23.163C18.0979 23.0753 18.0667 22.9722 18.0667 22.8667C18.0667 22.7253 18.1228 22.5896 18.2229 22.4896C18.3229 22.3896 18.4585 22.3334 18.6 22.3334Z" stroke="url(#paint15_linear)" stroke-opacity="0.15" stroke-width="2" stroke-linecap="round" stroke-linejoin="round"/>
<path d="M6.86659 27.6666C6.97207 27.6666 7.07518 27.6979 7.16289 27.7565C7.2506 27.8151 7.31895 27.8984 7.35932 27.9959C7.39969 28.0933 7.41025 28.2006 7.38967 28.304C7.36909 28.4075 7.3183 28.5025 7.24371 28.5771C7.16912 28.6517 7.07409 28.7025 6.97063 28.723C6.86718 28.7436 6.75994 28.7331 6.66249 28.6927C6.56503 28.6523 6.48174 28.584 6.42314 28.4963C6.36453 28.4086 6.33325 28.3054 6.33325 28.2C6.33325 28.0585 6.38944 27.9229 6.48946 27.8228C6.58948 27.7228 6.72514 27.6666 6.86659 27.6666Z" fill="white"/>
<path d="M6.86659 27.6666C6.97207 27.6666 7.07518 27.6979 7.16289 27.7565C7.2506 27.8151 7.31895 27.8984 7.35932 27.9959C7.39969 28.0933 7.41025 28.2006 7.38967 28.304C7.36909 28.4075 7.3183 28.5025 7.24371 28.5771C7.16912 28.6517 7.07409 28.7025 6.97063 28.723C6.86718 28.7436 6.75994 28.7331 6.66249 28.6927C6.56503 28.6523 6.48174 28.584 6.42314 28.4963C6.36453 28.4086 6.33325 28.3054 6.33325 28.2C6.33325 28.0585 6.38944 27.9229 6.48946 27.8228C6.58948 27.7228 6.72514 27.6666 6.86659 27.6666Z" stroke="#5C00C7" stroke-width="2" stroke-linecap="round" stroke-linejoin="round"/>
<path d="M6.86659 27.6666C6.97207 27.6666 7.07518 27.6979 7.16289 27.7565C7.2506 27.8151 7.31895 27.8984 7.35932 27.9959C7.39969 28.0933 7.41025 28.2006 7.38967 28.304C7.36909 28.4075 7.3183 28.5025 7.24371 28.5771C7.16912 28.6517 7.07409 28.7025 6.97063 28.723C6.86718 28.7436 6.75994 28.7331 6.66249 28.6927C6.56503 28.6523 6.48174 28.584 6.42314 28.4963C6.36453 28.4086 6.33325 28.3054 6.33325 28.2C6.33325 28.0585 6.38944 27.9229 6.48946 27.8228C6.58948 27.7228 6.72514 27.6666 6.86659 27.6666Z" stroke="url(#paint16_linear)" stroke-opacity="0.25" stroke-width="2" stroke-linecap="round" stroke-linejoin="round"/>
<path d="M6.86659 27.6666C6.97207 27.6666 7.07518 27.6979 7.16289 27.7565C7.2506 27.8151 7.31895 27.8984 7.35932 27.9959C7.39969 28.0933 7.41025 28.2006 7.38967 28.304C7.36909 28.4075 7.3183 28.5025 7.24371 28.5771C7.16912 28.6517 7.07409 28.7025 6.97063 28.723C6.86718 28.7436 6.75994 28.7331 6.66249 28.6927C6.56503 28.6523 6.48174 28.584 6.42314 28.4963C6.36453 28.4086 6.33325 28.3054 6.33325 28.2C6.33325 28.0585 6.38944 27.9229 6.48946 27.8228C6.58948 27.7228 6.72514 27.6666 6.86659 27.6666Z" stroke="url(#paint17_linear)" stroke-opacity="0.15" stroke-width="2" stroke-linecap="round" stroke-linejoin="round"/>
<path d="M18.6 27.6666C18.7055 27.6666 18.8086 27.6979 18.8963 27.7565C18.984 27.8151 19.0524 27.8984 19.0927 27.9959C19.1331 28.0933 19.1436 28.2006 19.1231 28.304C19.1025 28.4075 19.0517 28.5025 18.9771 28.5771C18.9025 28.6517 18.8075 28.7025 18.704 28.723C18.6006 28.7436 18.4933 28.7331 18.3959 28.6927C18.2984 28.6523 18.2151 28.584 18.1565 28.4963C18.0979 28.4086 18.0667 28.3054 18.0667 28.2C18.0667 28.0585 18.1228 27.9229 18.2229 27.8228C18.3229 27.7228 18.4585 27.6666 18.6 27.6666Z" fill="white"/>
<path d="M18.6 27.6666C18.7055 27.6666 18.8086 27.6979 18.8963 27.7565C18.984 27.8151 19.0524 27.8984 19.0927 27.9959C19.1331 28.0933 19.1436 28.2006 19.1231 28.304C19.1025 28.4075 19.0517 28.5025 18.9771 28.5771C18.9025 28.6517 18.8075 28.7025 18.704 28.723C18.6006 28.7436 18.4933 28.7331 18.3959 28.6927C18.2984 28.6523 18.2151 28.584 18.1565 28.4963C18.0979 28.4086 18.0667 28.3054 18.0667 28.2C18.0667 28.0585 18.1228 27.9229 18.2229 27.8228C18.3229 27.7228 18.4585 27.6666 18.6 27.6666Z" stroke="#5C00C7" stroke-width="2" stroke-linecap="round" stroke-linejoin="round"/>
<path d="M18.6 27.6666C18.7055 27.6666 18.8086 27.6979 18.8963 27.7565C18.984 27.8151 19.0524 27.8984 19.0927 27.9959C19.1331 28.0933 19.1436 28.2006 19.1231 28.304C19.1025 28.4075 19.0517 28.5025 18.9771 28.5771C18.9025 28.6517 18.8075 28.7025 18.704 28.723C18.6006 28.7436 18.4933 28.7331 18.3959 28.6927C18.2984 28.6523 18.2151 28.584 18.1565 28.4963C18.0979 28.4086 18.0667 28.3054 18.0667 28.2C18.0667 28.0585 18.1228 27.9229 18.2229 27.8228C18.3229 27.7228 18.4585 27.6666 18.6 27.6666Z" stroke="url(#paint18_linear)" stroke-opacity="0.25" stroke-width="2" stroke-linecap="round" stroke-linejoin="round"/>
<path d="M18.6 27.6666C18.7055 27.6666 18.8086 27.6979 18.8963 27.7565C18.984 27.8151 19.0524 27.8984 19.0927 27.9959C19.1331 28.0933 19.1436 28.2006 19.1231 28.304C19.1025 28.4075 19.0517 28.5025 18.9771 28.5771C18.9025 28.6517 18.8075 28.7025 18.704 28.723C18.6006 28.7436 18.4933 28.7331 18.3959 28.6927C18.2984 28.6523 18.2151 28.584 18.1565 28.4963C18.0979 28.4086 18.0667 28.3054 18.0667 28.2C18.0667 28.0585 18.1228 27.9229 18.2229 27.8228C18.3229 27.7228 18.4585 27.6666 18.6 27.6666Z" stroke="url(#paint19_linear)" stroke-opacity="0.15" stroke-width="2" stroke-linecap="round" stroke-linejoin="round"/>
<path d="M12.9552 27.6666C13.0607 27.6666 13.1638 27.6979 13.2515 27.7565C13.3392 27.8151 13.4076 27.8984 13.4479 27.9959C13.4883 28.0933 13.4989 28.2006 13.4783 28.304C13.4577 28.4075 13.4069 28.5025 13.3323 28.5771C13.2577 28.6517 13.1627 28.7025 13.0593 28.723C12.9558 28.7436 12.8486 28.7331 12.7511 28.6927C12.6537 28.6523 12.5704 28.584 12.5118 28.4963C12.4532 28.4086 12.4219 28.3054 12.4219 28.2C12.4219 28.0585 12.4781 27.9229 12.5781 27.8228C12.6781 27.7228 12.8138 27.6666 12.9552 27.6666" stroke="#5C00C7" stroke-width="2" stroke-linecap="round" stroke-linejoin="round"/>
<path d="M12.9552 27.6666C13.0607 27.6666 13.1638 27.6979 13.2515 27.7565C13.3392 27.8151 13.4076 27.8984 13.4479 27.9959C13.4883 28.0933 13.4989 28.2006 13.4783 28.304C13.4577 28.4075 13.4069 28.5025 13.3323 28.5771C13.2577 28.6517 13.1627 28.7025 13.0593 28.723C12.9558 28.7436 12.8486 28.7331 12.7511 28.6927C12.6537 28.6523 12.5704 28.584 12.5118 28.4963C12.4532 28.4086 12.4219 28.3054 12.4219 28.2C12.4219 28.0585 12.4781 27.9229 12.5781 27.8228C12.6781 27.7228 12.8138 27.6666 12.9552 27.6666" stroke="url(#paint20_linear)" stroke-opacity="0.25" stroke-width="2" stroke-linecap="round" stroke-linejoin="round"/>
<path d="M12.9552 27.6666C13.0607 27.6666 13.1638 27.6979 13.2515 27.7565C13.3392 27.8151 13.4076 27.8984 13.4479 27.9959C13.4883 28.0933 13.4989 28.2006 13.4783 28.304C13.4577 28.4075 13.4069 28.5025 13.3323 28.5771C13.2577 28.6517 13.1627 28.7025 13.0593 28.723C12.9558 28.7436 12.8486 28.7331 12.7511 28.6927C12.6537 28.6523 12.5704 28.584 12.5118 28.4963C12.4532 28.4086 12.4219 28.3054 12.4219 28.2C12.4219 28.0585 12.4781 27.9229 12.5781 27.8228C12.6781 27.7228 12.8138 27.6666 12.9552 27.6666" stroke="url(#paint21_linear)" stroke-opacity="0.15" stroke-width="2" stroke-linecap="round" stroke-linejoin="round"/>
<path d="M18.6 17C18.7055 17 18.8086 17.0313 18.8963 17.0899C18.984 17.1485 19.0524 17.2318 19.0927 17.3292C19.1331 17.4267 19.1436 17.5339 19.1231 17.6374C19.1025 17.7408 19.0517 17.8359 18.9771 17.9105C18.9025 17.985 18.8075 18.0358 18.704 18.0564C18.6006 18.077 18.4933 18.0664 18.3959 18.0261C18.2984 17.9857 18.2151 17.9173 18.1565 17.8296C18.0979 17.7419 18.0667 17.6388 18.0667 17.5333C18.0667 17.3919 18.1228 17.2562 18.2229 17.1562C18.3229 17.0562 18.4585 17 18.6 17" stroke="#5C00C7" stroke-width="2" stroke-linecap="round" stroke-linejoin="round"/>
<path d="M18.6 17C18.7055 17 18.8086 17.0313 18.8963 17.0899C18.984 17.1485 19.0524 17.2318 19.0927 17.3292C19.1331 17.4267 19.1436 17.5339 19.1231 17.6374C19.1025 17.7408 19.0517 17.8359 18.9771 17.9105C18.9025 17.985 18.8075 18.0358 18.704 18.0564C18.6006 18.077 18.4933 18.0664 18.3959 18.0261C18.2984 17.9857 18.2151 17.9173 18.1565 17.8296C18.0979 17.7419 18.0667 17.6388 18.0667 17.5333C18.0667 17.3919 18.1228 17.2562 18.2229 17.1562C18.3229 17.0562 18.4585 17 18.6 17" stroke="url(#paint22_linear)" stroke-opacity="0.25" stroke-width="2" stroke-linecap="round" stroke-linejoin="round"/>
<path d="M18.6 17C18.7055 17 18.8086 17.0313 18.8963 17.0899C18.984 17.1485 19.0524 17.2318 19.0927 17.3292C19.1331 17.4267 19.1436 17.5339 19.1231 17.6374C19.1025 17.7408 19.0517 17.8359 18.9771 17.9105C18.9025 17.985 18.8075 18.0358 18.704 18.0564C18.6006 18.077 18.4933 18.0664 18.3959 18.0261C18.2984 17.9857 18.2151 17.9173 18.1565 17.8296C18.0979 17.7419 18.0667 17.6388 18.0667 17.5333C18.0667 17.3919 18.1228 17.2562 18.2229 17.1562C18.3229 17.0562 18.4585 17 18.6 17" stroke="url(#paint23_linear)" stroke-opacity="0.15" stroke-width="2" stroke-linecap="round" stroke-linejoin="round"/>
<path d="M6.86659 17C6.97207 17 7.07518 17.0313 7.16289 17.0899C7.2506 17.1485 7.31896 17.2318 7.35932 17.3292C7.39969 17.4267 7.41025 17.5339 7.38967 17.6374C7.36909 17.7408 7.3183 17.8359 7.24371 17.9105C7.16912 17.985 7.07409 18.0358 6.97063 18.0564C6.86718 18.077 6.75994 18.0664 6.66249 18.0261C6.56503 17.9857 6.48174 17.9173 6.42314 17.8296C6.36453 17.7419 6.33325 17.6388 6.33325 17.5333C6.33325 17.3919 6.38944 17.2562 6.48946 17.1562C6.58948 17.0562 6.72514 17 6.86659 17" stroke="#5C00C7" stroke-width="2" stroke-linecap="round" stroke-linejoin="round"/>
<path d="M6.86659 17C6.97207 17 7.07518 17.0313 7.16289 17.0899C7.2506 17.1485 7.31896 17.2318 7.35932 17.3292C7.39969 17.4267 7.41025 17.5339 7.38967 17.6374C7.36909 17.7408 7.3183 17.8359 7.24371 17.9105C7.16912 17.985 7.07409 18.0358 6.97063 18.0564C6.86718 18.077 6.75994 18.0664 6.66249 18.0261C6.56503 17.9857 6.48174 17.9173 6.42314 17.8296C6.36453 17.7419 6.33325 17.6388 6.33325 17.5333C6.33325 17.3919 6.38944 17.2562 6.48946 17.1562C6.58948 17.0562 6.72514 17 6.86659 17" stroke="url(#paint24_linear)" stroke-opacity="0.25" stroke-width="2" stroke-linecap="round" stroke-linejoin="round"/>
<path d="M6.86659 17C6.97207 17 7.07518 17.0313 7.16289 17.0899C7.2506 17.1485 7.31896 17.2318 7.35932 17.3292C7.39969 17.4267 7.41025 17.5339 7.38967 17.6374C7.36909 17.7408 7.3183 17.8359 7.24371 17.9105C7.16912 17.985 7.07409 18.0358 6.97063 18.0564C6.86718 18.077 6.75994 18.0664 6.66249 18.0261C6.56503 17.9857 6.48174 17.9173 6.42314 17.8296C6.36453 17.7419 6.33325 17.6388 6.33325 17.5333C6.33325 17.3919 6.38944 17.2562 6.48946 17.1562C6.58948 17.0562 6.72514 17 6.86659 17" stroke="url(#paint25_linear)" stroke-opacity="0.15" stroke-width="2" stroke-linecap="round" stroke-linejoin="round"/>
<path d="M18.6 22.3334C18.7055 22.3334 18.8086 22.3647 18.8963 22.4233C18.984 22.4819 19.0524 22.5652 19.0927 22.6626C19.1331 22.7601 19.1436 22.8673 19.1231 22.9708C19.1025 23.0742 19.0517 23.1692 18.9771 23.2438C18.9025 23.3184 18.8075 23.3692 18.704 23.3898C18.6006 23.4104 18.4933 23.3998 18.3959 23.3594C18.2984 23.3191 18.2151 23.2507 18.1565 23.163C18.0979 23.0753 18.0667 22.9722 18.0667 22.8667C18.0667 22.7253 18.1228 22.5896 18.2229 22.4896C18.3229 22.3896 18.4585 22.3334 18.6 22.3334" stroke="#5C00C7" stroke-width="2" stroke-linecap="round" stroke-linejoin="round"/>
<path d="M18.6 22.3334C18.7055 22.3334 18.8086 22.3647 18.8963 22.4233C18.984 22.4819 19.0524 22.5652 19.0927 22.6626C19.1331 22.7601 19.1436 22.8673 19.1231 22.9708C19.1025 23.0742 19.0517 23.1692 18.9771 23.2438C18.9025 23.3184 18.8075 23.3692 18.704 23.3898C18.6006 23.4104 18.4933 23.3998 18.3959 23.3594C18.2984 23.3191 18.2151 23.2507 18.1565 23.163C18.0979 23.0753 18.0667 22.9722 18.0667 22.8667C18.0667 22.7253 18.1228 22.5896 18.2229 22.4896C18.3229 22.3896 18.4585 22.3334 18.6 22.3334" stroke="url(#paint26_linear)" stroke-opacity="0.25" stroke-width="2" stroke-linecap="round" stroke-linejoin="round"/>
<path d="M18.6 22.3334C18.7055 22.3334 18.8086 22.3647 18.8963 22.4233C18.984 22.4819 19.0524 22.5652 19.0927 22.6626C19.1331 22.7601 19.1436 22.8673 19.1231 22.9708C19.1025 23.0742 19.0517 23.1692 18.9771 23.2438C18.9025 23.3184 18.8075 23.3692 18.704 23.3898C18.6006 23.4104 18.4933 23.3998 18.3959 23.3594C18.2984 23.3191 18.2151 23.2507 18.1565 23.163C18.0979 23.0753 18.0667 22.9722 18.0667 22.8667C18.0667 22.7253 18.1228 22.5896 18.2229 22.4896C18.3229 22.3896 18.4585 22.3334 18.6 22.3334" stroke="url(#paint27_linear)" stroke-opacity="0.15" stroke-width="2" stroke-linecap="round" stroke-linejoin="round"/>
<path d="M6.86659 22.3334C6.97207 22.3334 7.07518 22.3647 7.16289 22.4233C7.2506 22.4819 7.31896 22.5652 7.35932 22.6626C7.39969 22.7601 7.41025 22.8673 7.38967 22.9708C7.36909 23.0742 7.3183 23.1692 7.24371 23.2438C7.16912 23.3184 7.07409 23.3692 6.97063 23.3898C6.86718 23.4104 6.75994 23.3998 6.66249 23.3594C6.56503 23.3191 6.48174 23.2507 6.42314 23.163C6.36453 23.0753 6.33325 22.9722 6.33325 22.8667C6.33325 22.7253 6.38944 22.5896 6.48946 22.4896C6.58948 22.3896 6.72514 22.3334 6.86659 22.3334" stroke="#5C00C7" stroke-width="2" stroke-linecap="round" stroke-linejoin="round"/>
<path d="M6.86659 22.3334C6.97207 22.3334 7.07518 22.3647 7.16289 22.4233C7.2506 22.4819 7.31896 22.5652 7.35932 22.6626C7.39969 22.7601 7.41025 22.8673 7.38967 22.9708C7.36909 23.0742 7.3183 23.1692 7.24371 23.2438C7.16912 23.3184 7.07409 23.3692 6.97063 23.3898C6.86718 23.4104 6.75994 23.3998 6.66249 23.3594C6.56503 23.3191 6.48174 23.2507 6.42314 23.163C6.36453 23.0753 6.33325 22.9722 6.33325 22.8667C6.33325 22.7253 6.38944 22.5896 6.48946 22.4896C6.58948 22.3896 6.72514 22.3334 6.86659 22.3334" stroke="url(#paint28_linear)" stroke-opacity="0.25" stroke-width="2" stroke-linecap="round" stroke-linejoin="round"/>
<path d="M6.86659 22.3334C6.97207 22.3334 7.07518 22.3647 7.16289 22.4233C7.2506 22.4819 7.31896 22.5652 7.35932 22.6626C7.39969 22.7601 7.41025 22.8673 7.38967 22.9708C7.36909 23.0742 7.3183 23.1692 7.24371 23.2438C7.16912 23.3184 7.07409 23.3692 6.97063 23.3898C6.86718 23.4104 6.75994 23.3998 6.66249 23.3594C6.56503 23.3191 6.48174 23.2507 6.42314 23.163C6.36453 23.0753 6.33325 22.9722 6.33325 22.8667C6.33325 22.7253 6.38944 22.5896 6.48946 22.4896C6.58948 22.3896 6.72514 22.3334 6.86659 22.3334" stroke="url(#paint29_linear)" stroke-opacity="0.15" stroke-width="2" stroke-linecap="round" stroke-linejoin="round"/>
<path d="M18.6 27.6666C18.7055 27.6666 18.8086 27.6979 18.8963 27.7565C18.984 27.8151 19.0524 27.8984 19.0927 27.9959C19.1331 28.0933 19.1436 28.2006 19.1231 28.304C19.1025 28.4075 19.0517 28.5025 18.9771 28.5771C18.9025 28.6517 18.8075 28.7025 18.704 28.723C18.6006 28.7436 18.4933 28.7331 18.3959 28.6927C18.2984 28.6523 18.2151 28.584 18.1565 28.4963C18.0979 28.4086 18.0667 28.3054 18.0667 28.2C18.0667 28.0585 18.1228 27.9229 18.2229 27.8228C18.3229 27.7228 18.4585 27.6666 18.6 27.6666" stroke="#5C00C7" stroke-width="2" stroke-linecap="round" stroke-linejoin="round"/>
<path d="M18.6 27.6666C18.7055 27.6666 18.8086 27.6979 18.8963 27.7565C18.984 27.8151 19.0524 27.8984 19.0927 27.9959C19.1331 28.0933 19.1436 28.2006 19.1231 28.304C19.1025 28.4075 19.0517 28.5025 18.9771 28.5771C18.9025 28.6517 18.8075 28.7025 18.704 28.723C18.6006 28.7436 18.4933 28.7331 18.3959 28.6927C18.2984 28.6523 18.2151 28.584 18.1565 28.4963C18.0979 28.4086 18.0667 28.3054 18.0667 28.2C18.0667 28.0585 18.1228 27.9229 18.2229 27.8228C18.3229 27.7228 18.4585 27.6666 18.6 27.6666" stroke="url(#paint30_linear)" stroke-opacity="0.25" stroke-width="2" stroke-linecap="round" stroke-linejoin="round"/>
<path d="M18.6 27.6666C18.7055 27.6666 18.8086 27.6979 18.8963 27.7565C18.984 27.8151 19.0524 27.8984 19.0927 27.9959C19.1331 28.0933 19.1436 28.2006 19.1231 28.304C19.1025 28.4075 19.0517 28.5025 18.9771 28.5771C18.9025 28.6517 18.8075 28.7025 18.704 28.723C18.6006 28.7436 18.4933 28.7331 18.3959 28.6927C18.2984 28.6523 18.2151 28.584 18.1565 28.4963C18.0979 28.4086 18.0667 28.3054 18.0667 28.2C18.0667 28.0585 18.1228 27.9229 18.2229 27.8228C18.3229 27.7228 18.4585 27.6666 18.6 27.6666" stroke="url(#paint31_linear)" stroke-opacity="0.15" stroke-width="2" stroke-linecap="round" stroke-linejoin="round"/>
<path d="M6.86659 27.6666C6.97207 27.6666 7.07518 27.6979 7.16289 27.7565C7.2506 27.8151 7.31896 27.8984 7.35932 27.9959C7.39969 28.0933 7.41025 28.2006 7.38967 28.304C7.36909 28.4075 7.3183 28.5025 7.24371 28.5771C7.16912 28.6517 7.07409 28.7025 6.97063 28.723C6.86718 28.7436 6.75994 28.7331 6.66249 28.6927C6.56503 28.6523 6.48174 28.584 6.42314 28.4963C6.36453 28.4086 6.33325 28.3054 6.33325 28.2C6.33325 28.0585 6.38944 27.9229 6.48946 27.8228C6.58948 27.7228 6.72514 27.6666 6.86659 27.6666" stroke="#5C00C7" stroke-width="2" stroke-linecap="round" stroke-linejoin="round"/>
<path d="M6.86659 27.6666C6.97207 27.6666 7.07518 27.6979 7.16289 27.7565C7.2506 27.8151 7.31896 27.8984 7.35932 27.9959C7.39969 28.0933 7.41025 28.2006 7.38967 28.304C7.36909 28.4075 7.3183 28.5025 7.24371 28.5771C7.16912 28.6517 7.07409 28.7025 6.97063 28.723C6.86718 28.7436 6.75994 28.7331 6.66249 28.6927C6.56503 28.6523 6.48174 28.584 6.42314 28.4963C6.36453 28.4086 6.33325 28.3054 6.33325 28.2C6.33325 28.0585 6.38944 27.9229 6.48946 27.8228C6.58948 27.7228 6.72514 27.6666 6.86659 27.6666" stroke="url(#paint32_linear)" stroke-opacity="0.25" stroke-width="2" stroke-linecap="round" stroke-linejoin="round"/>
<path d="M6.86659 27.6666C6.97207 27.6666 7.07518 27.6979 7.16289 27.7565C7.2506 27.8151 7.31896 27.8984 7.35932 27.9959C7.39969 28.0933 7.41025 28.2006 7.38967 28.304C7.36909 28.4075 7.3183 28.5025 7.24371 28.5771C7.16912 28.6517 7.07409 28.7025 6.97063 28.723C6.86718 28.7436 6.75994 28.7331 6.66249 28.6927C6.56503 28.6523 6.48174 28.584 6.42314 28.4963C6.36453 28.4086 6.33325 28.3054 6.33325 28.2C6.33325 28.0585 6.38944 27.9229 6.48946 27.8228C6.58948 27.7228 6.72514 27.6666 6.86659 27.6666" stroke="url(#paint33_linear)" stroke-opacity="0.15" stroke-width="2" stroke-linecap="round" stroke-linejoin="round"/>
<defs>
<linearGradient id="paint0_linear" x1="26.5136" y1="-6.19999" x2="-3.41051" y2="-1.46504" gradientUnits="userSpaceOnUse">
<stop stop-color="#4300D3"/>
<stop offset="1" stop-color="#4300D3" stop-opacity="0"/>
</linearGradient>
<linearGradient id="paint1_linear" x1="-0.0234681" y1="0.999999" x2="27.7373" y2="5.93497" gradientUnits="userSpaceOnUse">
<stop stop-color="#FF0F13"/>
<stop offset="1" stop-color="#BF0020" stop-opacity="0"/>
</linearGradient>
<linearGradient id="paint2_linear" x1="21.5025" y1="3.82672" x2="5.93034" y2="11.6668" gradientUnits="userSpaceOnUse">
<stop stop-color="#4300D3"/>
<stop offset="1" stop-color="#4300D3" stop-opacity="0"/>
</linearGradient>
<linearGradient id="paint3_linear" x1="4.6153" y1="5.26672" x2="18.4222" y2="13.0763" gradientUnits="userSpaceOnUse">
<stop stop-color="#FF0F13"/>
<stop offset="1" stop-color="#BF0020" stop-opacity="0"/>
</linearGradient>
<linearGradient id="paint4_linear" x1="13.5816" y1="16.76" x2="12.2494" y2="17.0475" gradientUnits="userSpaceOnUse">
<stop stop-color="#4300D3"/>
<stop offset="1" stop-color="#4300D3" stop-opacity="0"/>
</linearGradient>
<linearGradient id="paint5_linear" x1="12.3754" y1="17" x2="13.6048" y2="17.298" gradientUnits="userSpaceOnUse">
<stop stop-color="#FF0F13"/>
<stop offset="1" stop-color="#BF0020" stop-opacity="0"/>
</linearGradient>
<linearGradient id="paint6_linear" x1="13.5816" y1="22.0934" x2="12.2494" y2="22.3808" gradientUnits="userSpaceOnUse">
<stop stop-color="#4300D3"/>
<stop offset="1" stop-color="#4300D3" stop-opacity="0"/>
</linearGradient>
<linearGradient id="paint7_linear" x1="12.3754" y1="22.3334" x2="13.6048" y2="22.6314" gradientUnits="userSpaceOnUse">
<stop stop-color="#FF0F13"/>
<stop offset="1" stop-color="#BF0020" stop-opacity="0"/>
</linearGradient>
<linearGradient id="paint8_linear" x1="7.49296" y1="16.76" x2="6.16074" y2="17.0475" gradientUnits="userSpaceOnUse">
<stop stop-color="#4300D3"/>
<stop offset="1" stop-color="#4300D3" stop-opacity="0"/>
</linearGradient>
<linearGradient id="paint9_linear" x1="6.28673" y1="17" x2="7.51621" y2="17.298" gradientUnits="userSpaceOnUse">
<stop stop-color="#FF0F13"/>
<stop offset="1" stop-color="#BF0020" stop-opacity="0"/>
</linearGradient>
<linearGradient id="paint10_linear" x1="19.2264" y1="16.76" x2="17.8941" y2="17.0475" gradientUnits="userSpaceOnUse">
<stop stop-color="#4300D3"/>
<stop offset="1" stop-color="#4300D3" stop-opacity="0"/>
</linearGradient>
<linearGradient id="paint11_linear" x1="18.0201" y1="17" x2="19.2496" y2="17.298" gradientUnits="userSpaceOnUse">
<stop stop-color="#FF0F13"/>
<stop offset="1" stop-color="#BF0020" stop-opacity="0"/>
</linearGradient>
<linearGradient id="paint12_linear" x1="7.49296" y1="22.0934" x2="6.16074" y2="22.3808" gradientUnits="userSpaceOnUse">
<stop stop-color="#4300D3"/>
<stop offset="1" stop-color="#4300D3" stop-opacity="0"/>
</linearGradient>
<linearGradient id="paint13_linear" x1="6.28673" y1="22.3334" x2="7.51621" y2="22.6314" gradientUnits="userSpaceOnUse">
<stop stop-color="#FF0F13"/>
<stop offset="1" stop-color="#BF0020" stop-opacity="0"/>
</linearGradient>
<linearGradient id="paint14_linear" x1="19.2264" y1="22.0934" x2="17.8941" y2="22.3808" gradientUnits="userSpaceOnUse">
<stop stop-color="#4300D3"/>
<stop offset="1" stop-color="#4300D3" stop-opacity="0"/>
</linearGradient>
<linearGradient id="paint15_linear" x1="18.0201" y1="22.3334" x2="19.2496" y2="22.6314" gradientUnits="userSpaceOnUse">
<stop stop-color="#FF0F13"/>
<stop offset="1" stop-color="#BF0020" stop-opacity="0"/>
</linearGradient>
<linearGradient id="paint16_linear" x1="7.49296" y1="27.4266" x2="6.16074" y2="27.7141" gradientUnits="userSpaceOnUse">
<stop stop-color="#4300D3"/>
<stop offset="1" stop-color="#4300D3" stop-opacity="0"/>
</linearGradient>
<linearGradient id="paint17_linear" x1="6.28673" y1="27.6666" x2="7.51621" y2="27.9647" gradientUnits="userSpaceOnUse">
<stop stop-color="#FF0F13"/>
<stop offset="1" stop-color="#BF0020" stop-opacity="0"/>
</linearGradient>
<linearGradient id="paint18_linear" x1="19.2264" y1="27.4266" x2="17.8941" y2="27.7141" gradientUnits="userSpaceOnUse">
<stop stop-color="#4300D3"/>
<stop offset="1" stop-color="#4300D3" stop-opacity="0"/>
</linearGradient>
<linearGradient id="paint19_linear" x1="18.0201" y1="27.6666" x2="19.2496" y2="27.9647" gradientUnits="userSpaceOnUse">
<stop stop-color="#FF0F13"/>
<stop offset="1" stop-color="#BF0020" stop-opacity="0"/>
</linearGradient>
<linearGradient id="paint20_linear" x1="13.5816" y1="27.4266" x2="12.2494" y2="27.7141" gradientUnits="userSpaceOnUse">
<stop stop-color="#4300D3"/>
<stop offset="1" stop-color="#4300D3" stop-opacity="0"/>
</linearGradient>
<linearGradient id="paint21_linear" x1="12.3754" y1="27.6666" x2="13.6048" y2="27.9647" gradientUnits="userSpaceOnUse">
<stop stop-color="#FF0F13"/>
<stop offset="1" stop-color="#BF0020" stop-opacity="0"/>
</linearGradient>
<linearGradient id="paint22_linear" x1="19.2264" y1="16.76" x2="17.8941" y2="17.0475" gradientUnits="userSpaceOnUse">
<stop stop-color="#4300D3"/>
<stop offset="1" stop-color="#4300D3" stop-opacity="0"/>
</linearGradient>
<linearGradient id="paint23_linear" x1="18.0201" y1="17" x2="19.2496" y2="17.298" gradientUnits="userSpaceOnUse">
<stop stop-color="#FF0F13"/>
<stop offset="1" stop-color="#BF0020" stop-opacity="0"/>
</linearGradient>
<linearGradient id="paint24_linear" x1="7.49296" y1="16.76" x2="6.16074" y2="17.0475" gradientUnits="userSpaceOnUse">
<stop stop-color="#4300D3"/>
<stop offset="1" stop-color="#4300D3" stop-opacity="0"/>
</linearGradient>
<linearGradient id="paint25_linear" x1="6.28673" y1="17" x2="7.51621" y2="17.298" gradientUnits="userSpaceOnUse">
<stop stop-color="#FF0F13"/>
<stop offset="1" stop-color="#BF0020" stop-opacity="0"/>
</linearGradient>
<linearGradient id="paint26_linear" x1="19.2264" y1="22.0934" x2="17.8941" y2="22.3808" gradientUnits="userSpaceOnUse">
<stop stop-color="#4300D3"/>
<stop offset="1" stop-color="#4300D3" stop-opacity="0"/>
</linearGradient>
<linearGradient id="paint27_linear" x1="18.0201" y1="22.3334" x2="19.2496" y2="22.6314" gradientUnits="userSpaceOnUse">
<stop stop-color="#FF0F13"/>
<stop offset="1" stop-color="#BF0020" stop-opacity="0"/>
</linearGradient>
<linearGradient id="paint28_linear" x1="7.49296" y1="22.0934" x2="6.16074" y2="22.3808" gradientUnits="userSpaceOnUse">
<stop stop-color="#4300D3"/>
<stop offset="1" stop-color="#4300D3" stop-opacity="0"/>
</linearGradient>
<linearGradient id="paint29_linear" x1="6.28673" y1="22.3334" x2="7.51621" y2="22.6314" gradientUnits="userSpaceOnUse">
<stop stop-color="#FF0F13"/>
<stop offset="1" stop-color="#BF0020" stop-opacity="0"/>
</linearGradient>
<linearGradient id="paint30_linear" x1="19.2264" y1="27.4266" x2="17.8941" y2="27.7141" gradientUnits="userSpaceOnUse">
<stop stop-color="#4300D3"/>
<stop offset="1" stop-color="#4300D3" stop-opacity="0"/>
</linearGradient>
<linearGradient id="paint31_linear" x1="18.0201" y1="27.6666" x2="19.2496" y2="27.9647" gradientUnits="userSpaceOnUse">
<stop stop-color="#FF0F13"/>
<stop offset="1" stop-color="#BF0020" stop-opacity="0"/>
</linearGradient>
<linearGradient id="paint32_linear" x1="7.49296" y1="27.4266" x2="6.16074" y2="27.7141" gradientUnits="userSpaceOnUse">
<stop stop-color="#4300D3"/>
<stop offset="1" stop-color="#4300D3" stop-opacity="0"/>
</linearGradient>
<linearGradient id="paint33_linear" x1="6.28673" y1="27.6666" x2="7.51621" y2="27.9647" gradientUnits="userSpaceOnUse">
<stop stop-color="#FF0F13"/>
<stop offset="1" stop-color="#BF0020" stop-opacity="0"/>
</linearGradient>
</defs>
</svg>
