<svg fill="none" height="29" viewBox="0 0 29 29" width="29" xmlns="http://www.w3.org/2000/svg"><g stroke="#919191" stroke-linecap="round" stroke-linejoin="round" stroke-width="2.36646"><path d="m1.83984 8.76213v-5.19145c0-.95551.7746-1.7301 1.7301-1.7301h5.19031"/><path d="m27.7915 8.76165v-5.19146c0-.95551-.7746-1.7301-1.7301-1.7301h-5.1903"/><path d="m1.83984 20.8711v5.1903c0 .9555.7746 1.7301 1.7301 1.7301h5.19031"/><path d="m27.7915 20.8711v5.1903c0 .9555-.7746 1.7301-1.7301 1.7301h-5.1903"/><path clip-rule="evenodd" d="m14.8154 15.6808c2.6276 0 4.7578-2.1301 4.7578-4.7577 0-2.62769-2.1302-4.75782-4.7578-4.75782-2.6277 0-4.7578 2.13013-4.7578 4.75782 0 2.6276 2.1301 4.7577 4.7578 4.7577z" fill-rule="evenodd"/><path d="m22.1245 22.6011c-1.0849-3.1082-4.017-5.1902-7.3091-5.1902-3.292 0-6.22407 2.082-7.30905 5.1902"/></g></svg>