<svg fill="none" height="32" viewBox="0 0 32 32" width="32" xmlns="http://www.w3.org/2000/svg" xmlns:xlink="http://www.w3.org/1999/xlink"><linearGradient id="a"><stop offset="0" stop-color="#4300d3"/><stop offset="1" stop-color="#4300d3" stop-opacity="0"/></linearGradient><linearGradient id="b" gradientUnits="userSpaceOnUse" x1="33.6168" x2="-3.85182" xlink:href="#a" y1="-5.74999" y2="2.33465"/><linearGradient id="c"><stop offset="0" stop-color="#ff0f13"/><stop offset="1" stop-color="#bf0020" stop-opacity="0"/></linearGradient><linearGradient id="d" gradientUnits="userSpaceOnUse" x1="-.308411" x2="34.2707" xlink:href="#c" y1=".999999" y2="9.38236"/><linearGradient id="e" gradientUnits="userSpaceOnUse" x1="28.457" x2="1.96254" xlink:href="#a" y1=".620315" y2="6.33705"/><linearGradient id="f" gradientUnits="userSpaceOnUse" x1="4.46812" x2="28.9194" xlink:href="#c" y1="5.39331" y2="11.3206"/><linearGradient id="g" gradientUnits="userSpaceOnUse" x1="26.0838" x2="4.50076" xlink:href="#a" y1="1.57504" y2="5.62261"/><linearGradient id="h" gradientUnits="userSpaceOnUse" x1="6.75452" x2="26.7276" xlink:href="#c" y1="6" y2="10.2081"/><linearGradient id="i" gradientUnits="userSpaceOnUse" x1="18.5884" x2="12.5742" xlink:href="#a" y1="13.2776" y2="14.1413"/><linearGradient id="j" gradientUnits="userSpaceOnUse" x1="13.2779" x2="18.8634" xlink:href="#c" y1="14.8651" y2="15.7663"/><linearGradient id="k" gradientUnits="userSpaceOnUse" x1="16.9195" x2="15.655" xlink:href="#a" y1="21.6537" y2="21.886"/><linearGradient id="l" gradientUnits="userSpaceOnUse" x1="15.7887" x2="16.9592" xlink:href="#c" y1="21.9181" y2="22.1596"/><linearGradient id="m" gradientUnits="userSpaceOnUse" x1="16.9195" x2="15.655" xlink:href="#a" y1="13.4275" y2="13.6598"/><linearGradient id="n" gradientUnits="userSpaceOnUse" x1="15.7887" x2="16.9592" xlink:href="#c" y1="13.6919" y2="13.9334"/><g stroke-linecap="round" stroke-linejoin="round" stroke-width="2"><g clip-rule="evenodd" fill-rule="evenodd"><path d="m16 31c8.2843 0 15-6.7157 15-15 0-8.28427-6.7157-15-15-15-8.28427 0-15 6.71573-15 15 0 8.2843 6.71573 15 15 15z" stroke="#5c00c7"/><path d="m16 31c8.2843 0 15-6.7157 15-15 0-8.28427-6.7157-15-15-15-8.28427 0-15 6.71573-15 15 0 8.2843 6.71573 15 15 15z" stroke="url(#b)" stroke-opacity=".25"/><path d="m16 31c8.2843 0 15-6.7157 15-15 0-8.28427-6.7157-15-15-15-8.28427 0-15 6.71573-15 15 0 8.2843 6.71573 15 15 15z" stroke="url(#d)" stroke-opacity=".15"/></g><path d="m5.39331 26.6066 21.21329-21.21329" stroke="#5c00c7"/><path d="m5.39331 26.6066 21.21329-21.21329" stroke="url(#e)" stroke-opacity=".25"/><path d="m5.39331 26.6066 21.21329-21.21329" stroke="url(#f)" stroke-opacity=".15"/><path d="m21.1633 25.6665c1.242-.9252 2.2083-2.1714 2.7949-3.6047s.7713-2.9994.5344-4.5299c-.237-1.5305-.8867-2.9674-1.8793-4.1562s-2.2906-2.0844-3.7542-2.5907l2.1116-3.61237c.0696-.1187.1063-.25383.1063-.39144s-.0367-.27273-.1063-.39144c-.0722-.11982-.1744-.21877-.2965-.28711s-.2599-.1037-.3998-.10262h-8.4555c-.1395-.00069-.2768.03487-.3985.10318-.1216.06832-.2234.16706-.2955.28655-.0696.11871-.1063.25383-.1063.39144s.0367.27274.1063.39144l2.1116 3.61237c-1.672.5781-3.1226 1.6622-4.15057 3.102-1.02795 1.4398-1.58223 3.1639-1.58593 4.933" stroke="#5c00c7"/><path d="m21.1633 25.6665c1.242-.9252 2.2083-2.1714 2.7949-3.6047s.7713-2.9994.5344-4.5299c-.237-1.5305-.8867-2.9674-1.8793-4.1562s-2.2906-2.0844-3.7542-2.5907l2.1116-3.61237c.0696-.1187.1063-.25383.1063-.39144s-.0367-.27273-.1063-.39144c-.0722-.11982-.1744-.21877-.2965-.28711s-.2599-.1037-.3998-.10262h-8.4555c-.1395-.00069-.2768.03487-.3985.10318-.1216.06832-.2234.16706-.2955.28655-.0696.11871-.1063.25383-.1063.39144s.0367.27274.1063.39144l2.1116 3.61237c-1.672.5781-3.1226 1.6622-4.15057 3.102-1.02795 1.4398-1.58223 3.1639-1.58593 4.933" stroke="url(#g)" stroke-opacity=".25"/><path d="m21.1633 25.6665c1.242-.9252 2.2083-2.1714 2.7949-3.6047s.7713-2.9994.5344-4.5299c-.237-1.5305-.8867-2.9674-1.8793-4.1562s-2.2906-2.0844-3.7542-2.5907l2.1116-3.61237c.0696-.1187.1063-.25383.1063-.39144s-.0367-.27273-.1063-.39144c-.0722-.11982-.1744-.21877-.2965-.28711s-.2599-.1037-.3998-.10262h-8.4555c-.1395-.00069-.2768.03487-.3985.10318-.1216.06832-.2234.16706-.2955.28655-.0696.11871-.1063.25383-.1063.39144s.0367.27274.1063.39144l2.1116 3.61237c-1.672.5781-3.1226 1.6622-4.15057 3.102-1.02795 1.4398-1.58223 3.1639-1.58593 4.933" stroke="url(#h)" stroke-opacity=".15"/><path d="m13.7106 20.9217c.2468.3241.5681.584.9366.7575.3686.1736.7736.2558 1.1807.2396 1.2979 0 2.3509-.7897 2.3509-1.7629s-1.053-1.7618-2.3509-1.7618c-1.298 0-2.3452-.7897-2.3452-1.764s1.0529-1.7629 2.3497-1.7629c.4071-.0165.8122.0655 1.1809.2391.3686.1736.6898.4336.9364.758" stroke="#5c00c7"/><path d="m13.7106 20.9217c.2468.3241.5681.584.9366.7575.3686.1736.7736.2558 1.1807.2396 1.2979 0 2.3509-.7897 2.3509-1.7629s-1.053-1.7618-2.3509-1.7618c-1.298 0-2.3452-.7897-2.3452-1.764s1.0529-1.7629 2.3497-1.7629c.4071-.0165.8122.0655 1.1809.2391.3686.1736.6898.4336.9364.758" stroke="url(#i)" stroke-opacity=".25"/><path d="m13.7106 20.9217c.2468.3241.5681.584.9366.7575.3686.1736.7736.2558 1.1807.2396 1.2979 0 2.3509-.7897 2.3509-1.7629s-1.053-1.7618-2.3509-1.7618c-1.298 0-2.3452-.7897-2.3452-1.764s1.0529-1.7629 2.3497-1.7629c.4071-.0165.8122.0655 1.1809.2391.3686.1736.6898.4336.9364.758" stroke="url(#j)" stroke-opacity=".15"/><path d="m15.8323 21.9181v1.1749" stroke="#5c00c7"/><path d="m15.8323 21.9181v1.1749" stroke="url(#k)" stroke-opacity=".25"/><path d="m15.8323 21.9181v1.1749" stroke="url(#l)" stroke-opacity=".15"/><path d="m15.8323 13.6919v1.1749" stroke="#5c00c7"/><path d="m15.8323 13.6919v1.1749" stroke="url(#m)" stroke-opacity=".25"/><path d="m15.8323 13.6919v1.1749" stroke="url(#n)" stroke-opacity=".15"/></g></svg>