<svg width="25" height="24" viewBox="0 0 25 24" fill="none" xmlns="http://www.w3.org/2000/svg">
<path fill-rule="evenodd" clip-rule="evenodd" d="M2.18899 5.33316C0.870414 7.30655 0.166626 9.62663 0.166626 12C0.166626 15.1826 1.43091 18.2349 3.68134 20.4853C5.93178 22.7357 8.98403 24 12.1666 24C14.54 24 16.8601 23.2962 18.8335 21.9776C20.8069 20.6591 22.3449 18.7849 23.2532 16.5922C24.1614 14.3995 24.3991 11.9867 23.9361 9.65892C23.473 7.33115 22.3301 5.19295 20.6519 3.51472C18.9737 1.83649 16.8355 0.693605 14.5077 0.230582C12.1799 -0.232441 9.76714 0.00519939 7.57442 0.913451C5.38171 1.8217 3.50757 3.35977 2.18899 5.33316ZM6.33314 3.26957C8.05985 2.11582 10.0899 1.50001 12.1666 1.50001C14.7012 1.50001 17.1412 2.41637 19.0438 4.06562L15.3792 7.73026L16.4854 5.79066C16.606 5.58311 16.6704 5.34663 16.6721 5.10539C16.6683 4.86204 16.6041 4.62365 16.4854 4.4125C16.3635 4.2081 16.191 4.04003 15.9853 3.92519C15.7819 3.81042 15.5533 3.75016 15.3209 3.75006H9.02046C8.78478 3.74778 8.55262 3.80843 8.34702 3.92597C8.14142 4.04351 7.96955 4.21386 7.84846 4.42011C7.73016 4.62827 7.66833 4.86479 7.6693 5.10539C7.6676 5.34608 7.72949 5.58279 7.84846 5.79066L8.99807 7.79319C7.9497 8.32326 7.04487 9.10761 6.36293 10.0774C5.50317 11.3006 5.04106 12.7679 5.04163 14.2729C5.04163 14.4748 5.12028 14.6685 5.26027 14.8113C5.40027 14.9541 5.59014 15.0343 5.78812 15.0343C5.98611 15.0343 6.17598 14.9541 6.31598 14.8113C6.45597 14.6685 6.53462 14.4748 6.53462 14.2729C6.53824 13.0847 6.90364 11.9271 7.58032 10.96C8.25699 9.99292 9.21151 9.26413 10.3119 8.87441C10.4165 8.83791 10.5118 8.7782 10.5909 8.69957C10.6701 8.62094 10.7312 8.52536 10.7698 8.41974C10.8083 8.31411 10.8234 8.20107 10.814 8.08877C10.8045 7.97647 10.7707 7.86771 10.715 7.77035L9.28174 5.2729H15.0522L13.604 7.77035C13.5478 7.86705 13.5133 7.97523 13.503 8.08713C13.4927 8.19903 13.5067 8.31187 13.5442 8.41756C13.5823 8.52332 13.6429 8.61916 13.7216 8.69817C13.8003 8.77717 13.8953 8.83736 13.9996 8.87441C14.0575 8.89445 14.115 8.91544 14.1721 8.93736L12.9199 10.1896C12.9021 10.0193 12.8264 9.85933 12.7043 9.73717C12.5636 9.59652 12.3729 9.5175 12.174 9.5175C11.975 9.5175 11.7843 9.59652 11.6436 9.73717C11.503 9.87782 11.424 10.0686 11.424 10.2675V10.4906C10.3877 10.7451 9.65369 11.5239 9.65369 12.4725C9.65369 12.7567 9.71956 13.0256 9.8397 13.2697L4.23225 18.8772C3.0414 17.5033 2.22475 15.8401 1.86838 14.0485C1.46324 12.0117 1.67117 9.90045 2.46589 7.98183C3.26061 6.06321 4.60642 4.42333 6.33314 3.26957ZM10.9374 14.287L10.111 15.1134C10.2686 14.9901 10.4685 14.9337 10.6674 14.9568C10.7667 14.9683 10.8627 14.9992 10.95 15.0478C11.0373 15.0964 11.1141 15.1617 11.1762 15.24C11.2857 15.3859 11.4301 15.502 11.5962 15.5775C11.7639 15.6598 11.9496 15.6985 12.1362 15.69C12.7362 15.69 13.1787 15.3825 13.1787 15.12C13.1787 14.8575 12.7362 14.5425 12.1662 14.5425C11.7168 14.5425 11.2986 14.4503 10.9374 14.287ZM9.98085 15.2436L5.28977 19.9347C6.6636 21.1254 8.32673 21.9419 10.1182 22.2983C12.155 22.7034 14.2662 22.4955 16.1848 21.7007C18.1034 20.906 19.7433 19.5602 20.8971 17.8335C22.0508 16.1068 22.6666 14.0767 22.6666 12C22.6666 9.46563 21.7504 7.02572 20.1013 5.12314L16.6099 8.61457C17.162 9.06271 17.6479 9.59402 18.0496 10.1927C18.7358 11.2153 19.1535 12.4003 19.2628 13.6345C19.3721 14.8687 19.1694 16.1108 18.674 17.2423C18.1786 18.3739 17.4071 19.3569 16.4332 20.0977C16.304 20.1966 16.1468 20.25 15.9853 20.25C15.8273 20.2506 15.6732 20.2 15.5452 20.1056C15.4172 20.0112 15.3218 19.8778 15.2729 19.7246C15.2239 19.5714 15.2239 19.4063 15.2727 19.253C15.3216 19.0998 15.4169 18.9663 15.5449 18.8718C16.3619 18.2492 16.9973 17.4113 17.3827 16.4481C17.768 15.4849 17.8888 14.4328 17.7321 13.4048C17.575 12.374 17.1441 11.4067 16.4861 10.608C16.2029 10.2643 15.8823 9.95747 15.5318 9.69269L14.0833 11.1412C14.1814 11.2352 14.2727 11.3367 14.3562 11.445C14.4158 11.5238 14.4593 11.6136 14.4842 11.7091C14.5091 11.8047 14.5149 11.9043 14.5013 12.0022C14.4877 12.1 14.455 12.1942 14.405 12.2794C14.355 12.3646 14.2887 12.4392 14.2099 12.4987C14.1311 12.5583 14.0414 12.6018 13.9458 12.6267C13.8502 12.6516 13.7506 12.6574 13.6528 12.6439C13.5549 12.6303 13.4607 12.5976 13.3755 12.5476C13.2903 12.4976 13.2158 12.4313 13.1562 12.3525C13.1155 12.2988 13.0703 12.2488 13.0213 12.2032L12.1819 13.0425C13.5844 13.0493 14.6787 13.9618 14.6787 15.12C14.6787 16.0638 13.952 16.8396 12.924 17.098V17.3175C12.924 17.5164 12.8449 17.7072 12.7043 17.8478C12.5636 17.9885 12.3729 18.0675 12.174 18.0675C11.975 18.0675 11.7843 17.9885 11.6436 17.8478C11.503 17.7072 11.424 17.5164 11.424 17.3175V17.1046C11.2668 17.0629 11.1135 17.0062 10.9662 16.935C10.5852 16.7641 10.249 16.5074 9.98369 16.185C9.92164 16.1067 9.87562 16.0169 9.84826 15.9209C9.82089 15.8248 9.81272 15.7242 9.82422 15.625C9.83571 15.5258 9.86663 15.4297 9.91523 15.3425C9.93454 15.3078 9.95649 15.2747 9.98085 15.2436Z" fill="black"/>
</svg>
