<svg width="36" height="36" fill="none" xmlns="http://www.w3.org/2000/svg"><path fill-rule="evenodd" clip-rule="evenodd" d="M18 34c8.837 0 16-7.163 16-16S26.837 2 18 2 2 9.163 2 18s7.163 16 16 16z" fill="#6E26DB" fill-opacity=".1"/><path fill-rule="evenodd" clip-rule="evenodd" d="M18 34c8.837 0 16-7.163 16-16S26.837 2 18 2 2 9.163 2 18s7.163 16 16 16z" fill="url(#paint0_linear)" fill-opacity=".05"/><path fill-rule="evenodd" clip-rule="evenodd" d="M18 34c8.837 0 16-7.163 16-16S26.837 2 18 2 2 9.163 2 18s7.163 16 16 16z" fill="url(#paint1_linear)" fill-opacity=".05"/><path clip-rule="evenodd" d="M18 34c8.837 0 16-7.163 16-16S26.837 2 18 2 2 9.163 2 18s7.163 16 16 16z" stroke="#5C00C7" stroke-width="2.37"/><path clip-rule="evenodd" d="M18 34c8.837 0 16-7.163 16-16S26.837 2 18 2 2 9.163 2 18s7.163 16 16 16z" stroke="url(#paint2_linear)" stroke-opacity=".25" stroke-width="2.37"/><path clip-rule="evenodd" d="M18 34c8.837 0 16-7.163 16-16S26.837 2 18 2 2 9.163 2 18s7.163 16 16 16z" stroke="url(#paint3_linear)" stroke-opacity=".15" stroke-width="2.37"/><path d="M15.998 12.4l5.2 5.2-5.2 5.2" stroke="#5C00C7" stroke-width="2.37" stroke-linecap="round" stroke-linejoin="round"/><path d="M15.998 12.4l5.2 5.2-5.2 5.2" stroke="url(#paint4_linear)" stroke-opacity=".25" stroke-width="2.37" stroke-linecap="round" stroke-linejoin="round"/><path d="M15.998 12.4l5.2 5.2-5.2 5.2" stroke="url(#paint5_linear)" stroke-opacity=".15" stroke-width="2.37" stroke-linecap="round" stroke-linejoin="round"/><defs><linearGradient id="paint0_linear" x1="35.067" y1="2" x2="-1.51" y2="9.306" gradientUnits="userSpaceOnUse"><stop stop-color="#117CB6"/><stop offset="1" stop-color="#117CB6" stop-opacity="0"/></linearGradient><linearGradient id="paint1_linear" x1="6.978" y1="-22.8" x2="47.962" y2="-5.723" gradientUnits="userSpaceOnUse"><stop stop-color="#FF5B7E"/><stop offset="1" stop-color="#FF5B7E" stop-opacity="0"/></linearGradient><linearGradient id="paint2_linear" x1="36.791" y1="-5.2" x2="-3.175" y2="3.424" gradientUnits="userSpaceOnUse"><stop stop-color="#4300D3"/><stop offset="1" stop-color="#4300D3" stop-opacity="0"/></linearGradient><linearGradient id="paint3_linear" x1=".604" y1="2" x2="37.489" y2="10.941" gradientUnits="userSpaceOnUse"><stop stop-color="#FF0F13"/><stop offset="1" stop-color="#BF0020" stop-opacity="0"/></linearGradient><linearGradient id="paint4_linear" x1="15.544" y1="25.14" x2="22.263" y2="24.415" gradientUnits="userSpaceOnUse"><stop stop-color="#4300D3"/><stop offset="1" stop-color="#4300D3" stop-opacity="0"/></linearGradient><linearGradient id="paint5_linear" x1="21.425" y1="22.8" x2="15.171" y2="22.041" gradientUnits="userSpaceOnUse"><stop stop-color="#FF0F13"/><stop offset="1" stop-color="#BF0020" stop-opacity="0"/></linearGradient></defs></svg>