<svg width="28" height="28" viewBox="0 0 28 28" fill="none" xmlns="http://www.w3.org/2000/svg">
<rect x="2" y="2" width="24" height="24" rx="12" stroke="#919191" stroke-width="2.5"/>
<path d="M14.7886 8.74229L14.7886 8.74229L19.2779 13.4432L18.9163 13.7885L19.2779 13.4432C19.3147 13.4817 19.3475 13.5237 19.3759 13.5687L14.7886 8.74229ZM14.7886 8.74229C14.4801 8.41924 13.9699 8.41924 13.6614 8.74229C13.3653 9.05234 13.3653 9.54593 13.6614 9.85598M14.7886 8.74229L13.6614 9.85598M16.8558 14.7991H9.28568C8.83031 14.7991 8.5 14.4194 8.5 14C8.5 13.5806 8.83031 13.2009 9.28568 13.2009H16.8558L13.6614 9.85598M16.8558 14.7991L13.6614 9.85598M16.8558 14.7991L13.6614 18.144C13.3653 18.4541 13.3653 18.9477 13.6614 19.2577C13.9699 19.5808 14.4801 19.5808 14.7886 19.2577L19.2779 14.5568C19.5389 14.2836 19.5674 13.8729 19.3762 13.5692L16.8558 14.7991Z" fill="#919191" stroke="#919191" stroke-linejoin="round"/>
</svg>
