<svg fill="none" height="17" viewBox="0 0 17 17" width="17" xmlns="http://www.w3.org/2000/svg"><g stroke="#00a91c" stroke-linecap="round" stroke-linejoin="round" stroke-width="1.25"><path d="m14.112 6v-2c0-.55228-.4515-1-1.0086-1h-2.6896"/><path d="m4.69827 3h-2.68965c-.55705 0-1.00862.44772-1.00862 1v11c0 .5523.45157 1 1.00862 1h4.03447"/><path clip-rule="evenodd" d="m10.1925 3.658c-.0688.2042-.26158.34192-.47873.342h-4.31555c-.21715-.00008-.40994-.1378-.47875-.342l-.67242-2c-.05155-.15252-.02584-.32034.06909-.4508.09492-.13046.24742-.207589.40967-.2072h5.66039c.1622-.000389.3147.07674.4097.2072.0949.13046.1206.29828.069.4508z" fill-rule="evenodd"/><path clip-rule="evenodd" d="m8.06033 9.5c0-.82843.67158-1.5 1.5-1.5h5.06897c.8284 0 1.5.67157 1.5 1.5v5c0 .8284-.6716 1.5-1.5 1.5h-5.06897c-.82842 0-1.5-.6716-1.5-1.5z" fill-rule="evenodd"/><path d="m10.0775 10h4.0345"/><path d="m10.0775 12h4.0345"/><path d="m10.0775 14h1.513"/></g></svg>