<svg fill="none" height="32" viewBox="0 0 33 32" width="33" xmlns="http://www.w3.org/2000/svg" xmlns:xlink="http://www.w3.org/1999/xlink"><linearGradient id="a"><stop offset="0" stop-color="#117cb6"/><stop offset="1" stop-color="#117cb6" stop-opacity="0"/></linearGradient><linearGradient id="b" gradientUnits="userSpaceOnUse" x1="32.2639" x2="-2.02711" xlink:href="#a" y1="1" y2="7.84963"/><linearGradient id="c"><stop offset="0" stop-color="#ff5b7e"/><stop offset="1" stop-color="#ff5b7e" stop-opacity="0"/></linearGradient><linearGradient id="d" gradientUnits="userSpaceOnUse" x1="5.93052" x2="44.3536" xlink:href="#c" y1="-22.25" y2="-6.24038"/><linearGradient id="e" gradientUnits="userSpaceOnUse" x1="12.762" x2="8.74026" xlink:href="#a" y1="1.43872" y2="1.53211"/><linearGradient id="f" gradientUnits="userSpaceOnUse" x1="9.79046" x2="14.8671" xlink:href="#c" y1="-21.1313" y2="-20.8855"/><linearGradient id="g" gradientUnits="userSpaceOnUse" x1="32.2639" x2="31.2977" xlink:href="#a" y1="16" y2="21.7894"/><linearGradient id="h" gradientUnits="userSpaceOnUse" x1="5.93052" x2="6.21728" xlink:href="#c" y1="15.225" y2="18.8096"/><linearGradient id="i" gradientUnits="userSpaceOnUse" x1="29.8006" x2="28.6708" xlink:href="#a" y1="24" y2="29.7278"/><linearGradient id="j" gradientUnits="userSpaceOnUse" x1="7.52139" x2="7.85948" xlink:href="#c" y1="23.225" y2="26.8005"/><linearGradient id="k" gradientUnits="userSpaceOnUse" x1="29.8006" x2="28.6708" xlink:href="#a" y1="8" y2="13.7278"/><linearGradient id="l" gradientUnits="userSpaceOnUse" x1="7.52139" x2="7.85948" xlink:href="#c" y1="7.225" y2="10.8005"/><linearGradient id="m" gradientUnits="userSpaceOnUse" x1="23.3767" x2="19.3549" xlink:href="#a" y1="1.43872" y2="1.53211"/><linearGradient id="n" gradientUnits="userSpaceOnUse" x1="20.4051" x2="25.4818" xlink:href="#c" y1="-21.1313" y2="-20.8855"/><path d="m1.26385 16c0 3.9782 1.58036 7.7936 4.3934 10.6066 2.81305 2.813 6.62835 4.3934 10.60665 4.3934 3.9782 0 7.7935-1.5804 10.6066-4.3934 2.813-2.813 4.3934-6.6284 4.3934-10.6066s-1.5804-7.79356-4.3934-10.6066c-2.8131-2.81305-6.6284-4.3934-10.6066-4.3934-3.9783 0-7.7936 1.58035-10.60665 4.3934-2.81304 2.81304-4.3934 6.6284-4.3934 10.6066z" fill="#6e26db" fill-opacity=".1"/><path d="m1.26385 16c0 3.9782 1.58036 7.7936 4.3934 10.6066 2.81305 2.813 6.62835 4.3934 10.60665 4.3934 3.9782 0 7.7935-1.5804 10.6066-4.3934 2.813-2.813 4.3934-6.6284 4.3934-10.6066s-1.5804-7.79356-4.3934-10.6066c-2.8131-2.81305-6.6284-4.3934-10.6066-4.3934-3.9783 0-7.7936 1.58035-10.60665 4.3934-2.81304 2.81304-4.3934 6.6284-4.3934 10.6066z" fill="url(#b)" fill-opacity=".05"/><path d="m1.26385 16c0 3.9782 1.58036 7.7936 4.3934 10.6066 2.81305 2.813 6.62835 4.3934 10.60665 4.3934 3.9782 0 7.7935-1.5804 10.6066-4.3934 2.813-2.813 4.3934-6.6284 4.3934-10.6066s-1.5804-7.79356-4.3934-10.6066c-2.8131-2.81305-6.6284-4.3934-10.6066-4.3934-3.9783 0-7.7936 1.58035-10.60665 4.3934-2.81304 2.81304-4.3934 6.6284-4.3934 10.6066z" fill="url(#d)" fill-opacity=".05"/><g stroke-linecap="round" stroke-linejoin="round" stroke-width="1.5"><path d="m1.26385 16c0 3.9782 1.58036 7.7936 4.3934 10.6066 2.81305 2.813 6.62835 4.3934 10.60665 4.3934 3.9782 0 7.7935-1.5804 10.6066-4.3934 2.813-2.813 4.3934-6.6284 4.3934-10.6066s-1.5804-7.79356-4.3934-10.6066c-2.8131-2.81305-6.6284-4.3934-10.6066-4.3934-3.9783 0-7.7936 1.58035-10.60665 4.3934-2.81304 2.81304-4.3934 6.6284-4.3934 10.6066z" stroke="#6e26db"/><path d="m1.26385 16c0 3.9782 1.58036 7.7936 4.3934 10.6066 2.81305 2.813 6.62835 4.3934 10.60665 4.3934 3.9782 0 7.7935-1.5804 10.6066-4.3934 2.813-2.813 4.3934-6.6284 4.3934-10.6066s-1.5804-7.79356-4.3934-10.6066c-2.8131-2.81305-6.6284-4.3934-10.6066-4.3934-3.9783 0-7.7936 1.58035-10.60665 4.3934-2.81304 2.81304-4.3934 6.6284-4.3934 10.6066z" stroke="url(#b)" stroke-opacity=".25"/><path d="m1.26385 16c0 3.9782 1.58036 7.7936 4.3934 10.6066 2.81305 2.813 6.62835 4.3934 10.60665 4.3934 3.9782 0 7.7935-1.5804 10.6066-4.3934 2.813-2.813 4.3934-6.6284 4.3934-10.6066s-1.5804-7.79356-4.3934-10.6066c-2.8131-2.81305-6.6284-4.3934-10.6066-4.3934-3.9783 0-7.7936 1.58035-10.60665 4.3934-2.81304 2.81304-4.3934 6.6284-4.3934 10.6066z" stroke="url(#d)" stroke-opacity=".25"/><path d="m12.6492 30.5614c-2.0293-2.976-3.38535-8.384-3.38535-14.5613 0-6.17738 1.35605-11.58538 3.38535-14.56138" stroke="#6e26db"/><path d="m12.6492 30.5614c-2.0293-2.976-3.38535-8.384-3.38535-14.5613 0-6.17738 1.35605-11.58538 3.38535-14.56138" stroke="url(#e)" stroke-opacity=".25"/><path d="m12.6492 30.5614c-2.0293-2.976-3.38535-8.384-3.38535-14.5613 0-6.17738 1.35605-11.58538 3.38535-14.56138" stroke="url(#f)" stroke-opacity=".25"/><path d="m1.26385 16h30.00005" stroke="#6e26db"/><path d="m1.26385 16h30.00005" stroke="url(#g)" stroke-opacity=".25"/><path d="m1.26385 16h30.00005" stroke="url(#h)" stroke-opacity=".25"/><path d="m3.57318 24h25.38132" stroke="#6e26db"/><path d="m3.57318 24h25.38132" stroke="url(#i)" stroke-opacity=".25"/><path d="m3.57318 24h25.38132" stroke="url(#j)" stroke-opacity=".25"/><path d="m3.57318 8h25.38132" stroke="#6e26db"/><path d="m3.57318 8h25.38132" stroke="url(#k)" stroke-opacity=".25"/><path d="m3.57318 8h25.38132" stroke="url(#l)" stroke-opacity=".25"/><path d="m19.8785 1.43872c2.0293 2.976 3.3853 8.384 3.3853 14.56138 0 6.1773-1.356 11.5853-3.3853 14.5613" stroke="#6e26db"/><path d="m19.8785 1.43872c2.0293 2.976 3.3853 8.384 3.3853 14.56138 0 6.1773-1.356 11.5853-3.3853 14.5613" stroke="url(#m)" stroke-opacity=".25"/><path d="m19.8785 1.43872c2.0293 2.976 3.3853 8.384 3.3853 14.56138 0 6.1773-1.356 11.5853-3.3853 14.5613" stroke="url(#n)" stroke-opacity=".25"/></g></svg>