<svg fill="none" height="62" viewBox="0 0 77 62" width="77" xmlns="http://www.w3.org/2000/svg"><path d="m38.4503 59c15.7201-7.604 26.1615-16.1318 31.4813-24.8919 4.5046-7.4177 5.0656-14.6504 2.2372-20.6004-2.5681-5.40261-7.7857-9.26018-13.7957-10.25414-6.4149-1.06093-12.9432 1.20638-18.1188 6.82144l-1.804 1.957-1.8039-1.957c-5.1757-5.61506-11.704-7.88237-18.1189-6.82144-6.01.99396-11.22754 4.85153-13.79565 10.25414-2.82836 5.95-2.26741 13.1827 2.23721 20.6004 5.31974 8.7601 15.76124 17.2879 31.48124 24.8919z" fill="#fff" stroke="#bf0020" stroke-linecap="round" stroke-linejoin="round" stroke-width="5.81379"/><path d="m36.8504 37.629-4.2768 2.1975c-.437.2245-.9777.0604-1.2076-.3666-.0915-.17-.1231-.3648-.0899-.5542l.8172-4.6566c.1912-1.0897-.1785-2.2015-.9887-2.9733l-3.4616-3.2979c-.3536-.3368-.3607-.8899-.016-1.2353.1373-.1375.3171-.227.5116-.2546l4.7825-.6792c1.1203-.1591 2.0886-.8466 2.5895-1.8385l2.1387-4.2353c.2185-.4327.7547-.6104 1.1975-.397.1765.0851.3193.2246.4063.397l2.1387 4.2353c.5009.9919 1.4693 1.6794 2.5895 1.8385l4.7825.6792c.4887.0694.8273.5127.7563.9901-.0283.1901-.1199.3657-.2606.4998l-3.4617 3.2979c-.8102.7718-1.1799 1.8836-.9886 2.9733l.8171 4.6566c.0835.4755-.2434.9271-.7302 1.0086-.1938.0325-.3932.0016-.5673-.0878l-4.2767-2.1975c-1.0022-.515-2.1996-.515-3.2017 0z" fill="#0027dc"/></svg>