<svg fill="none" height="15" width="18" xmlns="http://www.w3.org/2000/svg"><path d="m8.476 2.383.35-.359h-.001zm-3.914-1.325-.082-.493zm-3.164 2.36.452.214-.452-.215zm.502 4.715-.428.259.428-.26zm7.1 5.617-.217.45a.5.5 0 0 0 .434 0zm7.1-5.616.427.259-.428-.26zm.502-4.717.452-.214zm-3.164-2.359.082-.493zm-3.914 1.324-.349-.358zm-.23.236.369.339zm-.294.32-.368.34a.5.5 0 0 0 .736 0l-.368-.341zm-.294-.32-.369.339zm.119-.594c-1.245-1.212-2.8-1.714-4.345-1.459l.163.987c1.207-.2 2.448.18 3.485 1.189zm-4.345-1.459c-1.535.254-2.872 1.242-3.534 2.638l.904.429c.517-1.092 1.573-1.878 2.793-2.08zm-3.534 2.638c-.735 1.551-.563 3.39.527 5.19l.855-.518c-.955-1.578-1.04-3.058-.478-4.243zm.527 5.19c1.273 2.101 3.726 4.079 7.31 5.807l.434-.9c-3.499-1.688-5.757-3.558-6.889-5.425zm7.744 5.807c3.584-1.728 6.037-3.706 7.31-5.807l-.855-.518c-1.132 1.867-3.39 3.737-6.89 5.425zm7.31-5.807c1.09-1.8 1.262-3.639.527-5.19l-.904.429c.562 1.185.477 2.665-.478 4.243zm.527-5.19c-.662-1.396-2-2.384-3.534-2.638l-.163.987c1.22.202 2.276.988 2.793 2.08zm-3.534-2.638c-1.545-.256-3.1.247-4.345 1.46l.697.716c1.037-1.009 2.278-1.39 3.485-1.19zm-4.345 1.46a6.431 6.431 0 0 0 -.249.255l.737.677c.069-.075.139-.147.21-.216l-.698-.717zm-.249.255-.294.32.736.677.295-.32zm.442.32-.294-.32-.737.677.295.32zm-.294-.32a6.439 6.439 0 0 0 -.249-.256l-.697.717c.07.069.14.14.21.216z" fill="#484848"/><path d="m8.625 9.074-1.003.567a.203.203 0 0 1 -.283-.095.24.24 0 0 1 -.02-.143l.19-1.2a.907.907 0 0 0 -.231-.767l-.812-.85a.237.237 0 0 1 -.003-.32.205.205 0 0 1 .12-.065l1.12-.175a.813.813 0 0 0 .608-.474l.501-1.093a.203.203 0 0 1 .376 0l.502 1.093a.813.813 0 0 0 .607.474l1.121.175c.115.018.194.132.178.255a.232.232 0 0 1 -.062.13l-.811.85a.907.907 0 0 0 -.232.766l.192 1.201c.02.123-.057.24-.171.26a.197.197 0 0 1 -.133-.022l-1.003-.567a.757.757 0 0 0 -.75 0z" fill="#666"/></svg>