<svg height="48" viewBox="0 0 48 48" width="48" xmlns="http://www.w3.org/2000/svg" xmlns:xlink="http://www.w3.org/1999/xlink"><linearGradient id="a" gradientUnits="userSpaceOnUse" x1="39.84" x2="16.836" y1="41.496" y2="30.77"><stop offset="0" stop-color="#2a96f4"/><stop offset=".535" stop-color="#2895f3"/><stop offset=".728" stop-color="#2190ee"/><stop offset=".865" stop-color="#1687e7"/><stop offset=".976" stop-color="#057bdc"/><stop offset="1" stop-color="#0077d9"/></linearGradient><linearGradient id="b" gradientUnits="userSpaceOnUse" x1="3.522" x2="24.656" y1="30.11" y2="17.909"><stop offset="0" stop-color="#4caf50"/><stop offset=".486" stop-color="#4aae50"/><stop offset=".661" stop-color="#43a94e"/><stop offset=".786" stop-color="#38a14c"/><stop offset=".887" stop-color="#279648"/><stop offset=".972" stop-color="#184"/><stop offset="1" stop-color="#088242"/></linearGradient><linearGradient id="c" gradientUnits="userSpaceOnUse" x1="31.335" x2="31.335" y1="6" y2="30"><stop offset="0" stop-color="#ffd747"/><stop offset=".482" stop-color="#fed645"/><stop offset=".655" stop-color="#fdd13e"/><stop offset=".779" stop-color="#f9c833"/><stop offset=".879" stop-color="#f4bc22"/><stop offset=".964" stop-color="#eead0c"/><stop offset="1" stop-color="#eba400"/></linearGradient><path d="m45 30c0 .35-.1.7-.28 1.01l-13.21-1.01 13.21-1.01c.18.31.28.66.28 1.01z" fill="#eba400"/><path d="m45 30c0 .35-.1.7-.28 1.01l-5.63 10c-.35.61-1.01.99-1.72.99h-25.83c-.35 0-.69-.09-.99-.27l.9-11.73z" fill="url(#a)"/><path d="m28.234 11.67-17.684 30.06h-.01c-.3-.17-.55-.42-.73-.73l-5.51-9.87c-.36-.62-.36-1.39 0-2.01l12.63-22.12c.18-.31.43-.56.73-.73h.01z" fill="url(#b)"/><path d="m45 30h-13.489l-13.841-23.73c.3-.18.64-.27.99-.27h11.71c.71 0 1.37.38 1.72.99l12.63 22c.18.31.28.66.28 1.01z" fill="url(#c)"/></svg>