<svg width="25" height="24" viewBox="0 0 25 24" fill="none" xmlns="http://www.w3.org/2000/svg">
<path fill-rule="evenodd" clip-rule="evenodd" d="M0.333374 12C0.333374 5.37258 5.70596 0 12.3334 0C15.6417 0 18.6374 1.33881 20.8081 3.50419C20.8117 3.50765 20.8153 3.51115 20.8188 3.5147C20.8224 3.51825 20.8259 3.52182 20.8294 3.52542C22.9946 5.69615 24.3334 8.69173 24.3334 12C24.3334 18.6274 18.9608 24 12.3334 24C5.70596 24 0.333374 18.6274 0.333374 12ZM19.2089 4.06397C17.3668 2.46664 14.963 1.5 12.3334 1.5C6.53438 1.5 1.83337 6.20101 1.83337 12C1.83337 14.5385 2.73416 16.8665 4.23352 18.682V17.0113C4.23352 16.3181 4.82543 15.8318 5.45852 15.8318H5.48889V10.077H5.45852C4.82543 10.077 4.23352 9.59074 4.23352 8.89748V7.15925V7.15879C4.23352 6.91104 4.38369 6.69835 4.59797 6.6068L11.8009 3.26724C12.1371 3.11117 12.5297 3.11093 12.866 3.26706L17.7441 5.52874L19.2089 4.06397ZM19.1935 6.20071L20.2696 5.12464C21.8668 6.96672 22.8334 9.37048 22.8334 12C22.8334 14.5383 21.9327 16.8662 20.4335 18.6816V17.0113C20.4335 16.318 19.8415 15.8318 19.2085 15.8318H19.1894V10.077H19.2085C19.8415 10.077 20.4335 9.59079 20.4335 8.89748V7.17776C20.4367 7.07476 20.4131 6.97316 20.3664 6.88284C20.3188 6.79066 20.247 6.71023 20.1549 6.65205C20.129 6.63556 20.1017 6.62101 20.0733 6.6086L19.1935 6.20071ZM16.8404 6.43245L16.7141 6.55879H7.55437L12.3064 4.35556C12.3224 4.34811 12.345 4.34816 12.3608 4.35552L16.8404 6.43245ZM15.5141 7.75879L14.3959 8.87701H13.6047L13.5884 8.87679H11.0884L11.0721 8.87701H8.60519L8.58887 8.87679H6.08889L6.07258 8.87701H5.45852C5.44733 8.87701 5.43911 8.87488 5.43352 8.87257V7.75879H15.5141ZM16.5174 8.87679L17.6354 7.75879H19.2335V8.87255C19.2279 8.87487 19.2197 8.87701 19.2085 8.87701H18.6057L18.5894 8.87679H16.5174ZM14.1884 11.2058L15.3172 10.077H15.4894V15.8318H14.1884V11.2058ZM12.9884 10.2845V10.077H11.6884V11.5845L12.9884 10.2845ZM11.6884 13.7058L12.9884 12.4058V15.8313H11.6884V13.7058ZM10.4884 12.7845V10.077H9.18888V14.084L10.4884 12.7845ZM9.56242 15.8318L10.4884 14.9058V15.8318H9.56242ZM7.98887 15.284L7.44153 15.8313H6.68889V10.077H7.98887V15.284ZM6.2411 17.0318L5.43352 17.8394V17.0362C5.43911 17.0339 5.44733 17.0318 5.45852 17.0318H6.2411ZM7.24421 18.15L8.36242 17.0318H19.2085C19.2197 17.0318 19.2279 17.0339 19.2335 17.0362V18.15H7.24421ZM5.45801 19.9362L6.04421 19.35H19.8319C17.9262 21.2939 15.2707 22.5 12.3334 22.5C9.70386 22.5 7.30009 21.5334 5.45801 19.9362ZM16.6894 10.077H17.9894V15.8313H16.6894V10.077Z" fill="black"/>
</svg>
