<svg fill="none" height="14" viewBox="0 0 13 14" width="13" xmlns="http://www.w3.org/2000/svg"><g stroke="#21a8dd" stroke-linecap="round" stroke-linejoin="round"><path d="m4 9.62451 5.25-5.25"/><path d="m4.49256 7.01054c-.63609-.03665-1.25762.19981-1.70849.65l-1.125 1.125c-.56841.56841-.790404 1.39686-.58235 2.17336.20805.7765.81454 1.3829 1.591 1.591.77646.208 1.60494-.0139 2.17334-.5824l1.125-1.125c.4502-.4508.68665-1.07236.65001-1.70846"/><path d="m8.75762 6.98814c.63609.03658 1.25758-.19987 1.70848-.65l1.125-1.125c.5684-.56841.7904-1.39689.5824-2.17335-.2081-.77646-.8146-1.38295-1.591-1.591-.7765-.20805-1.60497.01394-2.17338.58235l-1.125 1.125c-.44911.45141-.68461 1.0728-.6475 1.7085"/></g></svg>