<svg width="41" height="40" viewBox="0 0 41 40" fill="none" xmlns="http://www.w3.org/2000/svg">
<path fill-rule="evenodd" clip-rule="evenodd" d="M20.5 0.0761719C9.27741 0.0761719 0.578125 8.29673 0.578125 19.4004C0.578125 25.2083 2.95839 30.227 6.83471 33.6935C7.16011 33.9848 7.35654 34.3928 7.36989 34.8295L7.47839 38.3732C7.51305 39.5035 8.68063 40.2391 9.71498 39.7825L13.6692 38.0369C14.0044 37.8891 14.38 37.8616 14.7332 37.9588C16.5503 38.4585 18.4842 38.7246 20.5 38.7246C31.7226 38.7246 40.4219 30.504 40.4219 19.4004C40.4219 8.29673 31.7226 0.0761719 20.5 0.0761719Z" fill="url(#paint0_radial)"/>
<path fill-rule="evenodd" clip-rule="evenodd" d="M8.53704 25.0516L14.3891 15.7673C15.32 14.2902 17.3133 13.9225 18.7101 14.97L23.3645 18.4608C23.7915 18.7812 24.3791 18.7794 24.8044 18.4567L31.0904 13.686C31.9294 13.0493 33.0246 14.0534 32.4631 14.9444L26.6111 24.2289C25.6801 25.7058 23.6867 26.0736 22.2901 25.0261L17.6356 21.5352C17.2086 21.2149 16.6209 21.2166 16.1957 21.5393L9.90966 26.31C9.07067 26.9467 7.97544 25.9426 8.53704 25.0516Z" fill="white"/>
<defs>
<radialGradient id="paint0_radial" cx="0" cy="0" r="1" gradientUnits="userSpaceOnUse" gradientTransform="translate(8.24703 39.7068) scale(43.4136)">
<stop stop-color="#0099FF"/>
<stop offset="0.609754" stop-color="#A033FF"/>
<stop offset="0.934823" stop-color="#FF5280"/>
<stop offset="1" stop-color="#FF7061"/>
</radialGradient>
</defs>
</svg>
