<svg fill="none" height="32" viewBox="0 0 32 32" width="32" xmlns="http://www.w3.org/2000/svg" xmlns:xlink="http://www.w3.org/1999/xlink"><linearGradient id="a"><stop offset="0" stop-color="#4300d3"/><stop offset="1" stop-color="#4300d3" stop-opacity="0"/></linearGradient><linearGradient id="b" gradientUnits="userSpaceOnUse" x1="33.6168" x2="-3.85182" xlink:href="#a" y1="-5.74999" y2="2.33465"/><linearGradient id="c"><stop offset="0" stop-color="#ff0f13"/><stop offset="1" stop-color="#bf0020" stop-opacity="0"/></linearGradient><linearGradient id="d" gradientUnits="userSpaceOnUse" x1="-.308411" x2="34.2707" xlink:href="#c" y1=".999999" y2="9.38236"/><linearGradient id="e" gradientUnits="userSpaceOnUse" x1="28.457" x2="1.96254" xlink:href="#a" y1=".620315" y2="6.33705"/><linearGradient id="f" gradientUnits="userSpaceOnUse" x1="4.46812" x2="28.9194" xlink:href="#c" y1="5.39331" y2="11.3206"/><g stroke-linecap="round" stroke-linejoin="round" stroke-width="2"><g clip-rule="evenodd" fill-rule="evenodd"><path d="m16 31c8.2843 0 15-6.7157 15-15 0-8.28427-6.7157-15-15-15-8.28427 0-15 6.71573-15 15 0 8.2843 6.71573 15 15 15z" stroke="#5c00c7"/><path d="m16 31c8.2843 0 15-6.7157 15-15 0-8.28427-6.7157-15-15-15-8.28427 0-15 6.71573-15 15 0 8.2843 6.71573 15 15 15z" stroke="url(#b)" stroke-opacity=".25"/><path d="m16 31c8.2843 0 15-6.7157 15-15 0-8.28427-6.7157-15-15-15-8.28427 0-15 6.71573-15 15 0 8.2843 6.71573 15 15 15z" stroke="url(#d)" stroke-opacity=".15"/></g><path d="m5.39331 26.6066 21.21329-21.21329" stroke="#5c00c7"/><path d="m5.39331 26.6066 21.21329-21.21329" stroke="url(#e)" stroke-opacity=".25"/><path d="m5.39331 26.6066 21.21329-21.21329" stroke="url(#f)" stroke-opacity=".15"/></g></svg>