<svg fill="none" height="22" viewBox="0 0 18 22" width="18" xmlns="http://www.w3.org/2000/svg" xmlns:xlink="http://www.w3.org/1999/xlink"><clipPath id="a"><path d="m1 3h16v16h-16z"/></clipPath><g clip-path="url(#a)"><path clip-rule="evenodd" d="m11.0954 3.03649-8.87985.65343c-.716.06197-.96555.52875-.96555 1.08832v9.70526c0 .4361.15552.8088.5296 1.3069l2.08741 2.7063c.34288.4358.65446.529 1.30918.4978l10.31211-.6222c.8722-.062 1.1217-.4666 1.1217-1.151v-10.91863c0-.35376-.1401-.45595-.553-.75718-.0227-.01653-.0463-.0337-.0706-.05157l-2.8346-1.99078c-.6854-.49751-.9659-.56011-2.0564-.46665zm-5.6854 3.08708c-.84192.0568-1.03323.06971-1.51136-.31845l-1.21584-.96427c-.124-.12469-.06181-.28021.24955-.31109l8.53705-.62219c.7163-.06234 1.0901.18694 1.3707.40454l1.4642 1.05776c.0624.03098.2179.21738.0309.21738l-8.81651.52902zm-.98203 11.00423v-9.26951c0-.40432.12464-.59109.4983-.6225l10.12543-.59083c.3435-.03109.499.18683.499.59083v9.20741c0 .4047-.0625.7473-.6235.7781l-9.68931.5603c-.56074.0308-.80992-.1556-.80992-.6538zm9.56533-8.77228c.0621.28027 0 .56021-.281.59173l-.4669.09296v6.84339c-.4053.2177-.7791.3422-1.0905.3422-.4987 0-.6236-.1557-.9971-.6221l-3.05377-4.7904v4.6349l.96629.2179s0 .5597-.77957.5597l-2.14923.1245c-.06245-.1245 0-.4354.21797-.4977l.56086-.1553v-6.12813l-.77872-.06234c-.06246-.28022.09306-.68427.5296-.71563l2.30565-.15531 3.17802 4.85271v-4.29287l-.8103-.0929c-.0622-.34262.1867-.59136.4983-.62224z" fill="#000" fill-rule="evenodd"/></g></svg>