<svg width="24" height="24" viewBox="0 0 24 24" fill="none" xmlns="http://www.w3.org/2000/svg">
<path d="M11.8125 0.646154C11.8125 0.289267 12.1063 0 12.4688 0C12.8312 0 13.125 0.289267 13.125 0.646154V3.41538C13.125 3.77227 12.8312 4.06154 12.4688 4.06154C12.1063 4.06154 11.8125 3.77227 11.8125 3.41538V0.646154Z" fill="black"/>
<path d="M11.5312 15.9692C11.1688 15.9692 10.875 16.2585 10.875 16.6154C10.875 16.9723 11.1688 17.2615 11.5312 17.2615C11.8937 17.2615 12.1875 16.9723 12.1875 16.6154C12.1875 16.2585 11.8937 15.9692 11.5312 15.9692Z" fill="black"/>
<path fill-rule="evenodd" clip-rule="evenodd" d="M8.25 5.53846C7.11263 5.53846 6.1875 6.44936 6.1875 7.56923V10.0648C5.60185 10.5338 5.25 11.2445 5.25 12C5.25 14.5174 6.45411 16.9041 8.5125 18.4246C8.81426 18.6475 9 19.0003 9 19.3846V23.3538C9 23.7107 9.2938 24 9.65625 24H17.1562C17.5187 24 17.8125 23.7107 17.8125 23.3538V19.4884C18.116 18.5743 18.349 17.6303 18.5057 16.6808C18.6679 15.6962 18.75 14.6921 18.75 13.6962V8.49231C18.75 7.37047 17.827 6.46154 16.6875 6.46154C16.3445 6.46154 16.0204 6.54459 15.7354 6.69125C15.4054 6.01462 14.701 5.53846 13.875 5.53846C13.3319 5.53846 12.8377 5.74648 12.4694 6.08494C12.0855 5.73105 11.5876 5.53846 11.0625 5.53846C10.5191 5.53846 10.0246 5.74682 9.65625 6.08553C9.28792 5.74682 8.79338 5.53846 8.25 5.53846ZM7.5 7.56923C7.5 7.16224 7.83665 6.83077 8.25 6.83077C8.66335 6.83077 9 7.16224 9 7.56923V9.50769H7.78125C7.68693 9.50769 7.59306 9.51297 7.5 9.52329V7.56923ZM10.3125 7.56923C10.3125 7.16224 10.6492 6.83077 11.0625 6.83077C11.4767 6.83077 11.8125 7.16136 11.8125 7.56923V9.50769H10.3125V7.56923ZM13.125 7.56923C13.125 7.16224 13.4617 6.83077 13.875 6.83077C14.2892 6.83077 14.625 7.16136 14.625 7.56923V10.6154C14.625 11.0224 14.2883 11.3538 13.875 11.3538C13.4617 11.3538 13.125 11.0224 13.125 10.6154V7.56923ZM15.9375 8.49231C15.9375 8.08532 16.2742 7.75385 16.6875 7.75385C17.1017 7.75385 17.4375 8.08443 17.4375 8.49231V11.5385C17.4375 11.9454 17.1008 12.2769 16.6875 12.2769C16.2742 12.2769 15.9375 11.9454 15.9375 11.5385V8.49231ZM6.5625 12C6.5625 11.3493 7.09756 10.7995 7.78125 10.7995H11.7105C11.4322 11.6554 10.6159 12.2769 9.65625 12.2769H8.71875C8.3563 12.2769 8.0625 12.5662 8.0625 12.9231C8.0625 13.28 8.3563 13.5692 8.71875 13.5692H9.1875C9.99022 13.5692 10.6865 14.1313 10.8425 14.9041C10.9127 15.2515 11.2561 15.4818 11.6143 15.4117C11.9697 15.3422 12.2007 15.0019 12.1299 14.6519C12.0118 14.0675 11.7206 13.5515 11.316 13.1513C11.7832 12.8996 12.1857 12.5457 12.4914 12.1196C12.8572 12.4462 13.3426 12.6462 13.875 12.6462C14.2185 12.6462 14.5428 12.5629 14.8281 12.4159C15.1609 13.0972 15.8686 13.5692 16.6875 13.5692C16.9519 13.5692 17.2049 13.5197 17.4375 13.4299V13.6962C17.4375 14.6229 17.3611 15.5577 17.2103 16.4739C17.0607 17.3797 16.8857 18.037 16.7483 18.4949C16.7024 18.6478 16.6615 18.7762 16.6262 18.8868L16.6259 18.8877C16.6079 18.9443 16.5913 18.9962 16.5763 19.0443C16.5548 19.1137 16.5364 19.1757 16.5233 19.2288C16.5109 19.2792 16.5 19.334 16.5 19.3846V19.6615H10.3125V19.3846C10.3125 18.6124 9.94711 17.8686 9.30002 17.3908C7.57022 16.113 6.5625 14.109 6.5625 12ZM10.3125 22.7077V20.9538H16.5V22.7077H10.3125Z" fill="black"/>
<path d="M18.2125 1.26095C17.9562 1.00857 17.5409 1.00861 17.2846 1.26095L15.296 3.21932C15.0399 3.4717 15.04 3.88086 15.2963 4.13323C15.5525 4.38527 15.9679 4.38564 16.2242 4.13316L18.2128 2.17463C18.4689 1.92226 18.4689 1.51333 18.2125 1.26095Z" fill="black"/>
<path d="M9.91638 3.86248C10.1727 3.61007 10.1725 3.20092 9.91635 2.94875L7.92729 0.990826C7.67112 0.738621 7.25555 0.738747 6.99927 0.991013C6.7428 1.24335 6.74336 1.65253 6.99928 1.90475L8.98821 3.86275C9.24457 4.11486 9.66002 4.11484 9.91638 3.86248Z" fill="black"/>
</svg>
