<svg width="32" height="34" viewBox="0 0 32 34" fill="none" xmlns="http://www.w3.org/2000/svg">
<path d="M16 23.25C16 23.5952 15.7202 23.875 15.375 23.875C15.0298 23.875 14.75 23.5952 14.75 23.25C14.75 22.9048 15.0298 22.625 15.375 22.625C15.7202 22.625 16 22.9048 16 23.25Z" fill="#5C00C7"/>
<path d="M16 23.25C16 23.5952 15.7202 23.875 15.375 23.875C15.0298 23.875 14.75 23.5952 14.75 23.25C14.75 22.9048 15.0298 22.625 15.375 22.625C15.7202 22.625 16 22.9048 16 23.25Z" fill="url(#paint0_linear)" fill-opacity="0.25"/>
<path d="M16 23.25C16 23.5952 15.7202 23.875 15.375 23.875C15.0298 23.875 14.75 23.5952 14.75 23.25C14.75 22.9048 15.0298 22.625 15.375 22.625C15.7202 22.625 16 22.9048 16 23.25Z" fill="url(#paint1_linear)" fill-opacity="0.15"/>
<path d="M16 23.25C16 23.5952 15.7202 23.875 15.375 23.875C15.0298 23.875 14.75 23.5952 14.75 23.25C14.75 22.9048 15.0298 22.625 15.375 22.625C15.7202 22.625 16 22.9048 16 23.25Z" stroke="#5C00C7" stroke-width="0.5"/>
<path d="M16 23.25C16 23.5952 15.7202 23.875 15.375 23.875C15.0298 23.875 14.75 23.5952 14.75 23.25C14.75 22.9048 15.0298 22.625 15.375 22.625C15.7202 22.625 16 22.9048 16 23.25Z" stroke="url(#paint2_linear)" stroke-opacity="0.25" stroke-width="0.5"/>
<path d="M16 23.25C16 23.5952 15.7202 23.875 15.375 23.875C15.0298 23.875 14.75 23.5952 14.75 23.25C14.75 22.9048 15.0298 22.625 15.375 22.625C15.7202 22.625 16 22.9048 16 23.25Z" stroke="url(#paint3_linear)" stroke-opacity="0.15" stroke-width="0.5"/>
<path d="M22.25 9.75C21.7361 9.75 21.2578 9.90601 20.8601 10.1731C20.5225 9.20752 19.5999 8.5 18.5 8.5C17.7542 8.5 17.0842 8.82861 16.6257 9.34839C16.1421 8.80054 15.4675 8.5 14.75 8.5C14.0039 8.5 13.3335 8.8291 12.875 9.34912C12.4165 8.8291 11.7461 8.5 11 8.5C9.62158 8.5 8.5 9.62158 8.5 11V14.5012C7.72144 15.0872 7.25 16.0137 7.25 17C7.25 20.3306 8.8186 23.4883 11.5 25.5C11.9641 25.8481 12.25 26.3994 12.25 27V32.375C12.25 32.7202 12.5298 33 12.875 33H22.875C23.2202 33 23.5 32.7202 23.5 32.375V27.1006C23.9067 25.8633 24.2185 24.5847 24.4275 23.2986C24.6416 21.9785 24.75 20.6321 24.75 19.2969C24.75 18.4885 24.75 13.0627 24.75 12.25C24.75 10.8689 23.6313 9.75 22.25 9.75V9.75ZM22.25 11C22.9404 11 23.5 11.5596 23.5 12.25V16.375C23.5 17.0642 22.9392 17.625 22.25 17.625C21.5608 17.625 21 17.0642 21 16.375C21 15.3127 21 13.2231 21 12.25C21 11.5608 21.5608 11 22.25 11ZM18.5 9.75C19.1904 9.75 19.75 10.3096 19.75 11V15.125C19.75 15.8142 19.1892 16.375 18.5 16.375C17.8108 16.375 17.25 15.8142 17.25 15.125V11C17.25 10.3108 17.8108 9.75 18.5 9.75ZM14.75 9.75C15.4404 9.75 16 10.3096 16 11V13.875H13.5V11C13.5 10.3108 14.0608 9.75 14.75 9.75ZM11 9.75C11.6892 9.75 12.25 10.3108 12.25 11V13.875H10.375C10.1643 13.875 9.95508 13.8967 9.75 13.9385V11C9.75 10.3108 10.3108 9.75 11 9.75ZM13.5 31.75V28.875H22.25V31.75H13.5ZM23.1938 23.0984C22.791 25.5762 22.25 26.7002 22.25 27V27.625H13.5V27C13.5 26.0317 13.0488 25.0991 12.25 24.5C9.88037 22.7222 8.5 19.9343 8.5 17C8.5 15.9841 9.32202 15.1243 10.375 15.1243H15.9373C15.647 16.5491 14.384 17.625 12.875 17.625H11.625C11.2798 17.625 11 17.9048 11 18.25C11 18.5952 11.2798 18.875 11.625 18.875H12.25C13.4392 18.875 14.4705 19.72 14.7019 20.8838C14.7688 21.22 15.0959 21.4426 15.437 21.3748C15.7754 21.3076 15.9954 20.9785 15.928 20.6399C15.7563 19.7769 15.2915 19.031 14.6504 18.4971C15.468 18.1323 16.1548 17.5251 16.6162 16.7659C17.075 17.2917 17.749 17.625 18.5 17.625C19.0144 17.625 19.4929 17.4688 19.8909 17.2012C20.2329 18.1748 21.1609 18.875 22.25 18.875C22.7051 18.875 23.1321 18.7522 23.5 18.5386V19.2969C23.5 20.5652 23.397 21.8445 23.1938 23.0984Z" fill="#5C00C7"/>
<path d="M22.25 9.75C21.7361 9.75 21.2578 9.90601 20.8601 10.1731C20.5225 9.20752 19.5999 8.5 18.5 8.5C17.7542 8.5 17.0842 8.82861 16.6257 9.34839C16.1421 8.80054 15.4675 8.5 14.75 8.5C14.0039 8.5 13.3335 8.8291 12.875 9.34912C12.4165 8.8291 11.7461 8.5 11 8.5C9.62158 8.5 8.5 9.62158 8.5 11V14.5012C7.72144 15.0872 7.25 16.0137 7.25 17C7.25 20.3306 8.8186 23.4883 11.5 25.5C11.9641 25.8481 12.25 26.3994 12.25 27V32.375C12.25 32.7202 12.5298 33 12.875 33H22.875C23.2202 33 23.5 32.7202 23.5 32.375V27.1006C23.9067 25.8633 24.2185 24.5847 24.4275 23.2986C24.6416 21.9785 24.75 20.6321 24.75 19.2969C24.75 18.4885 24.75 13.0627 24.75 12.25C24.75 10.8689 23.6313 9.75 22.25 9.75V9.75ZM22.25 11C22.9404 11 23.5 11.5596 23.5 12.25V16.375C23.5 17.0642 22.9392 17.625 22.25 17.625C21.5608 17.625 21 17.0642 21 16.375C21 15.3127 21 13.2231 21 12.25C21 11.5608 21.5608 11 22.25 11ZM18.5 9.75C19.1904 9.75 19.75 10.3096 19.75 11V15.125C19.75 15.8142 19.1892 16.375 18.5 16.375C17.8108 16.375 17.25 15.8142 17.25 15.125V11C17.25 10.3108 17.8108 9.75 18.5 9.75ZM14.75 9.75C15.4404 9.75 16 10.3096 16 11V13.875H13.5V11C13.5 10.3108 14.0608 9.75 14.75 9.75ZM11 9.75C11.6892 9.75 12.25 10.3108 12.25 11V13.875H10.375C10.1643 13.875 9.95508 13.8967 9.75 13.9385V11C9.75 10.3108 10.3108 9.75 11 9.75ZM13.5 31.75V28.875H22.25V31.75H13.5ZM23.1938 23.0984C22.791 25.5762 22.25 26.7002 22.25 27V27.625H13.5V27C13.5 26.0317 13.0488 25.0991 12.25 24.5C9.88037 22.7222 8.5 19.9343 8.5 17C8.5 15.9841 9.32202 15.1243 10.375 15.1243H15.9373C15.647 16.5491 14.384 17.625 12.875 17.625H11.625C11.2798 17.625 11 17.9048 11 18.25C11 18.5952 11.2798 18.875 11.625 18.875H12.25C13.4392 18.875 14.4705 19.72 14.7019 20.8838C14.7688 21.22 15.0959 21.4426 15.437 21.3748C15.7754 21.3076 15.9954 20.9785 15.928 20.6399C15.7563 19.7769 15.2915 19.031 14.6504 18.4971C15.468 18.1323 16.1548 17.5251 16.6162 16.7659C17.075 17.2917 17.749 17.625 18.5 17.625C19.0144 17.625 19.4929 17.4688 19.8909 17.2012C20.2329 18.1748 21.1609 18.875 22.25 18.875C22.7051 18.875 23.1321 18.7522 23.5 18.5386V19.2969C23.5 20.5652 23.397 21.8445 23.1938 23.0984Z" fill="url(#paint4_linear)" fill-opacity="0.25"/>
<path d="M22.25 9.75C21.7361 9.75 21.2578 9.90601 20.8601 10.1731C20.5225 9.20752 19.5999 8.5 18.5 8.5C17.7542 8.5 17.0842 8.82861 16.6257 9.34839C16.1421 8.80054 15.4675 8.5 14.75 8.5C14.0039 8.5 13.3335 8.8291 12.875 9.34912C12.4165 8.8291 11.7461 8.5 11 8.5C9.62158 8.5 8.5 9.62158 8.5 11V14.5012C7.72144 15.0872 7.25 16.0137 7.25 17C7.25 20.3306 8.8186 23.4883 11.5 25.5C11.9641 25.8481 12.25 26.3994 12.25 27V32.375C12.25 32.7202 12.5298 33 12.875 33H22.875C23.2202 33 23.5 32.7202 23.5 32.375V27.1006C23.9067 25.8633 24.2185 24.5847 24.4275 23.2986C24.6416 21.9785 24.75 20.6321 24.75 19.2969C24.75 18.4885 24.75 13.0627 24.75 12.25C24.75 10.8689 23.6313 9.75 22.25 9.75V9.75ZM22.25 11C22.9404 11 23.5 11.5596 23.5 12.25V16.375C23.5 17.0642 22.9392 17.625 22.25 17.625C21.5608 17.625 21 17.0642 21 16.375C21 15.3127 21 13.2231 21 12.25C21 11.5608 21.5608 11 22.25 11ZM18.5 9.75C19.1904 9.75 19.75 10.3096 19.75 11V15.125C19.75 15.8142 19.1892 16.375 18.5 16.375C17.8108 16.375 17.25 15.8142 17.25 15.125V11C17.25 10.3108 17.8108 9.75 18.5 9.75ZM14.75 9.75C15.4404 9.75 16 10.3096 16 11V13.875H13.5V11C13.5 10.3108 14.0608 9.75 14.75 9.75ZM11 9.75C11.6892 9.75 12.25 10.3108 12.25 11V13.875H10.375C10.1643 13.875 9.95508 13.8967 9.75 13.9385V11C9.75 10.3108 10.3108 9.75 11 9.75ZM13.5 31.75V28.875H22.25V31.75H13.5ZM23.1938 23.0984C22.791 25.5762 22.25 26.7002 22.25 27V27.625H13.5V27C13.5 26.0317 13.0488 25.0991 12.25 24.5C9.88037 22.7222 8.5 19.9343 8.5 17C8.5 15.9841 9.32202 15.1243 10.375 15.1243H15.9373C15.647 16.5491 14.384 17.625 12.875 17.625H11.625C11.2798 17.625 11 17.9048 11 18.25C11 18.5952 11.2798 18.875 11.625 18.875H12.25C13.4392 18.875 14.4705 19.72 14.7019 20.8838C14.7688 21.22 15.0959 21.4426 15.437 21.3748C15.7754 21.3076 15.9954 20.9785 15.928 20.6399C15.7563 19.7769 15.2915 19.031 14.6504 18.4971C15.468 18.1323 16.1548 17.5251 16.6162 16.7659C17.075 17.2917 17.749 17.625 18.5 17.625C19.0144 17.625 19.4929 17.4688 19.8909 17.2012C20.2329 18.1748 21.1609 18.875 22.25 18.875C22.7051 18.875 23.1321 18.7522 23.5 18.5386V19.2969C23.5 20.5652 23.397 21.8445 23.1938 23.0984Z" fill="url(#paint5_linear)" fill-opacity="0.15"/>
<path d="M22.25 9.75C21.7361 9.75 21.2578 9.90601 20.8601 10.1731C20.5225 9.20752 19.5999 8.5 18.5 8.5C17.7542 8.5 17.0842 8.82861 16.6257 9.34839C16.1421 8.80054 15.4675 8.5 14.75 8.5C14.0039 8.5 13.3335 8.8291 12.875 9.34912C12.4165 8.8291 11.7461 8.5 11 8.5C9.62158 8.5 8.5 9.62158 8.5 11V14.5012C7.72144 15.0872 7.25 16.0137 7.25 17C7.25 20.3306 8.8186 23.4883 11.5 25.5C11.9641 25.8481 12.25 26.3994 12.25 27V32.375C12.25 32.7202 12.5298 33 12.875 33H22.875C23.2202 33 23.5 32.7202 23.5 32.375V27.1006C23.9067 25.8633 24.2185 24.5847 24.4275 23.2986C24.6416 21.9785 24.75 20.6321 24.75 19.2969C24.75 18.4885 24.75 13.0627 24.75 12.25C24.75 10.8689 23.6313 9.75 22.25 9.75V9.75ZM22.25 11C22.9404 11 23.5 11.5596 23.5 12.25V16.375C23.5 17.0642 22.9392 17.625 22.25 17.625C21.5608 17.625 21 17.0642 21 16.375C21 15.3127 21 13.2231 21 12.25C21 11.5608 21.5608 11 22.25 11ZM18.5 9.75C19.1904 9.75 19.75 10.3096 19.75 11V15.125C19.75 15.8142 19.1892 16.375 18.5 16.375C17.8108 16.375 17.25 15.8142 17.25 15.125V11C17.25 10.3108 17.8108 9.75 18.5 9.75ZM14.75 9.75C15.4404 9.75 16 10.3096 16 11V13.875H13.5V11C13.5 10.3108 14.0608 9.75 14.75 9.75ZM11 9.75C11.6892 9.75 12.25 10.3108 12.25 11V13.875H10.375C10.1643 13.875 9.95508 13.8967 9.75 13.9385V11C9.75 10.3108 10.3108 9.75 11 9.75ZM13.5 31.75V28.875H22.25V31.75H13.5ZM23.1938 23.0984C22.791 25.5762 22.25 26.7002 22.25 27V27.625H13.5V27C13.5 26.0317 13.0488 25.0991 12.25 24.5C9.88037 22.7222 8.5 19.9343 8.5 17C8.5 15.9841 9.32202 15.1243 10.375 15.1243H15.9373C15.647 16.5491 14.384 17.625 12.875 17.625H11.625C11.2798 17.625 11 17.9048 11 18.25C11 18.5952 11.2798 18.875 11.625 18.875H12.25C13.4392 18.875 14.4705 19.72 14.7019 20.8838C14.7688 21.22 15.0959 21.4426 15.437 21.3748C15.7754 21.3076 15.9954 20.9785 15.928 20.6399C15.7563 19.7769 15.2915 19.031 14.6504 18.4971C15.468 18.1323 16.1548 17.5251 16.6162 16.7659C17.075 17.2917 17.749 17.625 18.5 17.625C19.0144 17.625 19.4929 17.4688 19.8909 17.2012C20.2329 18.1748 21.1609 18.875 22.25 18.875C22.7051 18.875 23.1321 18.7522 23.5 18.5386V19.2969C23.5 20.5652 23.397 21.8445 23.1938 23.0984Z" stroke="#5C00C7" stroke-width="0.5"/>
<path d="M22.25 9.75C21.7361 9.75 21.2578 9.90601 20.8601 10.1731C20.5225 9.20752 19.5999 8.5 18.5 8.5C17.7542 8.5 17.0842 8.82861 16.6257 9.34839C16.1421 8.80054 15.4675 8.5 14.75 8.5C14.0039 8.5 13.3335 8.8291 12.875 9.34912C12.4165 8.8291 11.7461 8.5 11 8.5C9.62158 8.5 8.5 9.62158 8.5 11V14.5012C7.72144 15.0872 7.25 16.0137 7.25 17C7.25 20.3306 8.8186 23.4883 11.5 25.5C11.9641 25.8481 12.25 26.3994 12.25 27V32.375C12.25 32.7202 12.5298 33 12.875 33H22.875C23.2202 33 23.5 32.7202 23.5 32.375V27.1006C23.9067 25.8633 24.2185 24.5847 24.4275 23.2986C24.6416 21.9785 24.75 20.6321 24.75 19.2969C24.75 18.4885 24.75 13.0627 24.75 12.25C24.75 10.8689 23.6313 9.75 22.25 9.75V9.75ZM22.25 11C22.9404 11 23.5 11.5596 23.5 12.25V16.375C23.5 17.0642 22.9392 17.625 22.25 17.625C21.5608 17.625 21 17.0642 21 16.375C21 15.3127 21 13.2231 21 12.25C21 11.5608 21.5608 11 22.25 11ZM18.5 9.75C19.1904 9.75 19.75 10.3096 19.75 11V15.125C19.75 15.8142 19.1892 16.375 18.5 16.375C17.8108 16.375 17.25 15.8142 17.25 15.125V11C17.25 10.3108 17.8108 9.75 18.5 9.75ZM14.75 9.75C15.4404 9.75 16 10.3096 16 11V13.875H13.5V11C13.5 10.3108 14.0608 9.75 14.75 9.75ZM11 9.75C11.6892 9.75 12.25 10.3108 12.25 11V13.875H10.375C10.1643 13.875 9.95508 13.8967 9.75 13.9385V11C9.75 10.3108 10.3108 9.75 11 9.75ZM13.5 31.75V28.875H22.25V31.75H13.5ZM23.1938 23.0984C22.791 25.5762 22.25 26.7002 22.25 27V27.625H13.5V27C13.5 26.0317 13.0488 25.0991 12.25 24.5C9.88037 22.7222 8.5 19.9343 8.5 17C8.5 15.9841 9.32202 15.1243 10.375 15.1243H15.9373C15.647 16.5491 14.384 17.625 12.875 17.625H11.625C11.2798 17.625 11 17.9048 11 18.25C11 18.5952 11.2798 18.875 11.625 18.875H12.25C13.4392 18.875 14.4705 19.72 14.7019 20.8838C14.7688 21.22 15.0959 21.4426 15.437 21.3748C15.7754 21.3076 15.9954 20.9785 15.928 20.6399C15.7563 19.7769 15.2915 19.031 14.6504 18.4971C15.468 18.1323 16.1548 17.5251 16.6162 16.7659C17.075 17.2917 17.749 17.625 18.5 17.625C19.0144 17.625 19.4929 17.4688 19.8909 17.2012C20.2329 18.1748 21.1609 18.875 22.25 18.875C22.7051 18.875 23.1321 18.7522 23.5 18.5386V19.2969C23.5 20.5652 23.397 21.8445 23.1938 23.0984Z" stroke="url(#paint6_linear)" stroke-opacity="0.25" stroke-width="0.5"/>
<path d="M22.25 9.75C21.7361 9.75 21.2578 9.90601 20.8601 10.1731C20.5225 9.20752 19.5999 8.5 18.5 8.5C17.7542 8.5 17.0842 8.82861 16.6257 9.34839C16.1421 8.80054 15.4675 8.5 14.75 8.5C14.0039 8.5 13.3335 8.8291 12.875 9.34912C12.4165 8.8291 11.7461 8.5 11 8.5C9.62158 8.5 8.5 9.62158 8.5 11V14.5012C7.72144 15.0872 7.25 16.0137 7.25 17C7.25 20.3306 8.8186 23.4883 11.5 25.5C11.9641 25.8481 12.25 26.3994 12.25 27V32.375C12.25 32.7202 12.5298 33 12.875 33H22.875C23.2202 33 23.5 32.7202 23.5 32.375V27.1006C23.9067 25.8633 24.2185 24.5847 24.4275 23.2986C24.6416 21.9785 24.75 20.6321 24.75 19.2969C24.75 18.4885 24.75 13.0627 24.75 12.25C24.75 10.8689 23.6313 9.75 22.25 9.75V9.75ZM22.25 11C22.9404 11 23.5 11.5596 23.5 12.25V16.375C23.5 17.0642 22.9392 17.625 22.25 17.625C21.5608 17.625 21 17.0642 21 16.375C21 15.3127 21 13.2231 21 12.25C21 11.5608 21.5608 11 22.25 11ZM18.5 9.75C19.1904 9.75 19.75 10.3096 19.75 11V15.125C19.75 15.8142 19.1892 16.375 18.5 16.375C17.8108 16.375 17.25 15.8142 17.25 15.125V11C17.25 10.3108 17.8108 9.75 18.5 9.75ZM14.75 9.75C15.4404 9.75 16 10.3096 16 11V13.875H13.5V11C13.5 10.3108 14.0608 9.75 14.75 9.75ZM11 9.75C11.6892 9.75 12.25 10.3108 12.25 11V13.875H10.375C10.1643 13.875 9.95508 13.8967 9.75 13.9385V11C9.75 10.3108 10.3108 9.75 11 9.75ZM13.5 31.75V28.875H22.25V31.75H13.5ZM23.1938 23.0984C22.791 25.5762 22.25 26.7002 22.25 27V27.625H13.5V27C13.5 26.0317 13.0488 25.0991 12.25 24.5C9.88037 22.7222 8.5 19.9343 8.5 17C8.5 15.9841 9.32202 15.1243 10.375 15.1243H15.9373C15.647 16.5491 14.384 17.625 12.875 17.625H11.625C11.2798 17.625 11 17.9048 11 18.25C11 18.5952 11.2798 18.875 11.625 18.875H12.25C13.4392 18.875 14.4705 19.72 14.7019 20.8838C14.7688 21.22 15.0959 21.4426 15.437 21.3748C15.7754 21.3076 15.9954 20.9785 15.928 20.6399C15.7563 19.7769 15.2915 19.031 14.6504 18.4971C15.468 18.1323 16.1548 17.5251 16.6162 16.7659C17.075 17.2917 17.749 17.625 18.5 17.625C19.0144 17.625 19.4929 17.4688 19.8909 17.2012C20.2329 18.1748 21.1609 18.875 22.25 18.875C22.7051 18.875 23.1321 18.7522 23.5 18.5386V19.2969C23.5 20.5652 23.397 21.8445 23.1938 23.0984Z" stroke="url(#paint7_linear)" stroke-opacity="0.15" stroke-width="0.5"/>
<path d="M17.25 5.375V1.625C17.25 1.27979 16.9702 1 16.625 1C16.2798 1 16 1.27979 16 1.625V5.375C16 5.72021 16.2798 6 16.625 6C16.9702 6 17.25 5.72021 17.25 5.375Z" fill="#5C00C7"/>
<path d="M17.25 5.375V1.625C17.25 1.27979 16.9702 1 16.625 1C16.2798 1 16 1.27979 16 1.625V5.375C16 5.72021 16.2798 6 16.625 6C16.9702 6 17.25 5.72021 17.25 5.375Z" fill="url(#paint8_linear)" fill-opacity="0.25"/>
<path d="M17.25 5.375V1.625C17.25 1.27979 16.9702 1 16.625 1C16.2798 1 16 1.27979 16 1.625V5.375C16 5.72021 16.2798 6 16.625 6C16.9702 6 17.25 5.72021 17.25 5.375Z" fill="url(#paint9_linear)" fill-opacity="0.15"/>
<path d="M17.25 5.375V1.625C17.25 1.27979 16.9702 1 16.625 1C16.2798 1 16 1.27979 16 1.625V5.375C16 5.72021 16.2798 6 16.625 6C16.9702 6 17.25 5.72021 17.25 5.375Z" stroke="#5C00C7" stroke-width="0.5"/>
<path d="M17.25 5.375V1.625C17.25 1.27979 16.9702 1 16.625 1C16.2798 1 16 1.27979 16 1.625V5.375C16 5.72021 16.2798 6 16.625 6C16.9702 6 17.25 5.72021 17.25 5.375Z" stroke="url(#paint10_linear)" stroke-opacity="0.25" stroke-width="0.5"/>
<path d="M17.25 5.375V1.625C17.25 1.27979 16.9702 1 16.625 1C16.2798 1 16 1.27979 16 1.625V5.375C16 5.72021 16.2798 6 16.625 6C16.9702 6 17.25 5.72021 17.25 5.375Z" stroke="url(#paint11_linear)" stroke-opacity="0.15" stroke-width="0.5"/>
<path d="M21.4556 6.17023L24.107 3.51813C24.3509 3.27399 24.3509 2.87848 24.1067 2.63434C23.8626 2.3902 23.4671 2.3902 23.2229 2.63434L20.5716 5.28619C20.3277 5.53033 20.3277 5.92609 20.5718 6.17023C20.8159 6.41412 21.2115 6.41437 21.4556 6.17023V6.17023Z" fill="#5C00C7"/>
<path d="M21.4556 6.17023L24.107 3.51813C24.3509 3.27399 24.3509 2.87848 24.1067 2.63434C23.8626 2.3902 23.4671 2.3902 23.2229 2.63434L20.5716 5.28619C20.3277 5.53033 20.3277 5.92609 20.5718 6.17023C20.8159 6.41412 21.2115 6.41437 21.4556 6.17023V6.17023Z" fill="url(#paint12_linear)" fill-opacity="0.25"/>
<path d="M21.4556 6.17023L24.107 3.51813C24.3509 3.27399 24.3509 2.87848 24.1067 2.63434C23.8626 2.3902 23.4671 2.3902 23.2229 2.63434L20.5716 5.28619C20.3277 5.53033 20.3277 5.92609 20.5718 6.17023C20.8159 6.41412 21.2115 6.41437 21.4556 6.17023V6.17023Z" fill="url(#paint13_linear)" fill-opacity="0.15"/>
<path d="M21.4556 6.17023L24.107 3.51813C24.3509 3.27399 24.3509 2.87848 24.1067 2.63434C23.8626 2.3902 23.4671 2.3902 23.2229 2.63434L20.5716 5.28619C20.3277 5.53033 20.3277 5.92609 20.5718 6.17023C20.8159 6.41412 21.2115 6.41437 21.4556 6.17023V6.17023Z" stroke="#5C00C7" stroke-width="0.5"/>
<path d="M21.4556 6.17023L24.107 3.51813C24.3509 3.27399 24.3509 2.87848 24.1067 2.63434C23.8626 2.3902 23.4671 2.3902 23.2229 2.63434L20.5716 5.28619C20.3277 5.53033 20.3277 5.92609 20.5718 6.17023C20.8159 6.41412 21.2115 6.41437 21.4556 6.17023V6.17023Z" stroke="url(#paint14_linear)" stroke-opacity="0.25" stroke-width="0.5"/>
<path d="M21.4556 6.17023L24.107 3.51813C24.3509 3.27399 24.3509 2.87848 24.1067 2.63434C23.8626 2.3902 23.4671 2.3902 23.2229 2.63434L20.5716 5.28619C20.3277 5.53033 20.3277 5.92609 20.5718 6.17023C20.8159 6.41412 21.2115 6.41437 21.4556 6.17023V6.17023Z" stroke="url(#paint15_linear)" stroke-opacity="0.15" stroke-width="0.5"/>
<path d="M13.0451 5.80368C13.2892 5.55954 13.289 5.16379 13.0451 4.91989L10.393 2.26852C10.1491 2.02463 9.75333 2.02463 9.50919 2.26877C9.26505 2.51266 9.26529 2.90842 9.50919 3.15256L12.161 5.80392C12.4052 6.04782 12.8009 6.04782 13.0451 5.80368Z" fill="#5C00C7"/>
<path d="M13.0451 5.80368C13.2892 5.55954 13.289 5.16379 13.0451 4.91989L10.393 2.26852C10.1491 2.02463 9.75333 2.02463 9.50919 2.26877C9.26505 2.51266 9.26529 2.90842 9.50919 3.15256L12.161 5.80392C12.4052 6.04782 12.8009 6.04782 13.0451 5.80368Z" fill="url(#paint16_linear)" fill-opacity="0.25"/>
<path d="M13.0451 5.80368C13.2892 5.55954 13.289 5.16379 13.0451 4.91989L10.393 2.26852C10.1491 2.02463 9.75333 2.02463 9.50919 2.26877C9.26505 2.51266 9.26529 2.90842 9.50919 3.15256L12.161 5.80392C12.4052 6.04782 12.8009 6.04782 13.0451 5.80368Z" fill="url(#paint17_linear)" fill-opacity="0.15"/>
<path d="M13.0451 5.80368C13.2892 5.55954 13.289 5.16379 13.0451 4.91989L10.393 2.26852C10.1491 2.02463 9.75333 2.02463 9.50919 2.26877C9.26505 2.51266 9.26529 2.90842 9.50919 3.15256L12.161 5.80392C12.4052 6.04782 12.8009 6.04782 13.0451 5.80368Z" stroke="#5C00C7" stroke-width="0.5"/>
<path d="M13.0451 5.80368C13.2892 5.55954 13.289 5.16379 13.0451 4.91989L10.393 2.26852C10.1491 2.02463 9.75333 2.02463 9.50919 2.26877C9.26505 2.51266 9.26529 2.90842 9.50919 3.15256L12.161 5.80392C12.4052 6.04782 12.8009 6.04782 13.0451 5.80368Z" stroke="url(#paint18_linear)" stroke-opacity="0.25" stroke-width="0.5"/>
<path d="M13.0451 5.80368C13.2892 5.55954 13.289 5.16379 13.0451 4.91989L10.393 2.26852C10.1491 2.02463 9.75333 2.02463 9.50919 2.26877C9.26505 2.51266 9.26529 2.90842 9.50919 3.15256L12.161 5.80392C12.4052 6.04782 12.8009 6.04782 13.0451 5.80368Z" stroke="url(#paint19_linear)" stroke-opacity="0.15" stroke-width="0.5"/>
<defs>
<linearGradient id="paint0_linear" x1="16.109" y1="22.3438" x2="14.5478" y2="22.6806" gradientUnits="userSpaceOnUse">
<stop stop-color="#4300D3"/>
<stop offset="1" stop-color="#4300D3" stop-opacity="0"/>
</linearGradient>
<linearGradient id="paint1_linear" x1="14.6955" y1="22.625" x2="16.1363" y2="22.9743" gradientUnits="userSpaceOnUse">
<stop stop-color="#FF0F13"/>
<stop offset="1" stop-color="#BF0020" stop-opacity="0"/>
</linearGradient>
<linearGradient id="paint2_linear" x1="16.109" y1="22.3438" x2="14.5478" y2="22.6806" gradientUnits="userSpaceOnUse">
<stop stop-color="#4300D3"/>
<stop offset="1" stop-color="#4300D3" stop-opacity="0"/>
</linearGradient>
<linearGradient id="paint3_linear" x1="14.6955" y1="22.625" x2="16.1363" y2="22.9743" gradientUnits="userSpaceOnUse">
<stop stop-color="#FF0F13"/>
<stop offset="1" stop-color="#BF0020" stop-opacity="0"/>
</linearGradient>
<linearGradient id="paint4_linear" x1="26.2765" y1="2.9875" x2="3.93293" y2="6.43114" gradientUnits="userSpaceOnUse">
<stop stop-color="#4300D3"/>
<stop offset="1" stop-color="#4300D3" stop-opacity="0"/>
</linearGradient>
<linearGradient id="paint5_linear" x1="6.48676" y1="8.5" x2="27.2216" y2="12.0902" gradientUnits="userSpaceOnUse">
<stop stop-color="#FF0F13"/>
<stop offset="1" stop-color="#BF0020" stop-opacity="0"/>
</linearGradient>
<linearGradient id="paint6_linear" x1="26.2765" y1="2.9875" x2="3.93293" y2="6.43114" gradientUnits="userSpaceOnUse">
<stop stop-color="#4300D3"/>
<stop offset="1" stop-color="#4300D3" stop-opacity="0"/>
</linearGradient>
<linearGradient id="paint7_linear" x1="6.48676" y1="8.5" x2="27.2216" y2="12.0902" gradientUnits="userSpaceOnUse">
<stop stop-color="#FF0F13"/>
<stop offset="1" stop-color="#BF0020" stop-opacity="0"/>
</linearGradient>
<linearGradient id="paint8_linear" x1="17.359" y1="-0.124999" x2="15.7299" y2="-0.037119" gradientUnits="userSpaceOnUse">
<stop stop-color="#4300D3"/>
<stop offset="1" stop-color="#4300D3" stop-opacity="0"/>
</linearGradient>
<linearGradient id="paint9_linear" x1="15.9455" y1="1" x2="17.4654" y2="1.09211" gradientUnits="userSpaceOnUse">
<stop stop-color="#FF0F13"/>
<stop offset="1" stop-color="#BF0020" stop-opacity="0"/>
</linearGradient>
<linearGradient id="paint10_linear" x1="17.359" y1="-0.124999" x2="15.7299" y2="-0.037119" gradientUnits="userSpaceOnUse">
<stop stop-color="#4300D3"/>
<stop offset="1" stop-color="#4300D3" stop-opacity="0"/>
</linearGradient>
<linearGradient id="paint11_linear" x1="15.9455" y1="1" x2="17.4654" y2="1.09211" gradientUnits="userSpaceOnUse">
<stop stop-color="#FF0F13"/>
<stop offset="1" stop-color="#BF0020" stop-opacity="0"/>
</linearGradient>
<linearGradient id="paint12_linear" x1="24.6301" y1="1.57328" x2="19.7577" y2="2.6244" gradientUnits="userSpaceOnUse">
<stop stop-color="#4300D3"/>
<stop offset="1" stop-color="#4300D3" stop-opacity="0"/>
</linearGradient>
<linearGradient id="paint13_linear" x1="20.2185" y1="2.45123" x2="24.7153" y2="3.54106" gradientUnits="userSpaceOnUse">
<stop stop-color="#FF0F13"/>
<stop offset="1" stop-color="#BF0020" stop-opacity="0"/>
</linearGradient>
<linearGradient id="paint14_linear" x1="24.6301" y1="1.57328" x2="19.7577" y2="2.6244" gradientUnits="userSpaceOnUse">
<stop stop-color="#4300D3"/>
<stop offset="1" stop-color="#4300D3" stop-opacity="0"/>
</linearGradient>
<linearGradient id="paint15_linear" x1="20.2185" y1="2.45123" x2="24.7153" y2="3.54106" gradientUnits="userSpaceOnUse">
<stop stop-color="#FF0F13"/>
<stop offset="1" stop-color="#BF0020" stop-opacity="0"/>
</linearGradient>
<linearGradient id="paint16_linear" x1="13.5684" y1="1.20787" x2="8.69521" y2="2.25957" gradientUnits="userSpaceOnUse">
<stop stop-color="#4300D3"/>
<stop offset="1" stop-color="#4300D3" stop-opacity="0"/>
</linearGradient>
<linearGradient id="paint17_linear" x1="9.15599" y1="2.08563" x2="13.6534" y2="3.17606" gradientUnits="userSpaceOnUse">
<stop stop-color="#FF0F13"/>
<stop offset="1" stop-color="#BF0020" stop-opacity="0"/>
</linearGradient>
<linearGradient id="paint18_linear" x1="13.5684" y1="1.20787" x2="8.69521" y2="2.25957" gradientUnits="userSpaceOnUse">
<stop stop-color="#4300D3"/>
<stop offset="1" stop-color="#4300D3" stop-opacity="0"/>
</linearGradient>
<linearGradient id="paint19_linear" x1="9.15599" y1="2.08563" x2="13.6534" y2="3.17606" gradientUnits="userSpaceOnUse">
<stop stop-color="#FF0F13"/>
<stop offset="1" stop-color="#BF0020" stop-opacity="0"/>
</linearGradient>
</defs>
</svg>
