<svg fill="none" height="18" viewBox="0 0 18 18" width="18" xmlns="http://www.w3.org/2000/svg"><path d="m9 .53125c-4.81641 0-8.71875 3.90234-8.71875 8.71875 0 4.8164 3.90234 8.7188 8.71875 8.7188 4.8164 0 8.7188-3.9024 8.7188-8.7188 0-4.81641-3.9024-8.71875-8.7188-8.71875zm5.0625 9.70315c0 .2461-.2109.4218-.4219.4218h-3.2344v3.2344c0 .2461-.2109.4219-.42182.4219h-1.96876c-.24609 0-.42187-.1758-.42187-.4219v-3.2344h-3.23437c-.2461 0-.42188-.1757-.42188-.4218v-1.96878c0-.21093.17578-.42187.42188-.42187h3.23437v-3.23437c0-.21094.17578-.42188.42187-.42188h1.96876c.21092 0 .42182.21094.42182.42188v3.23437h3.2344c.211 0 .4219.21094.4219.42187z" fill="#117cb6"/></svg>