<svg width="20" height="35" viewBox="0 0 20 35" fill="none" xmlns="http://www.w3.org/2000/svg">
<path fill-rule="evenodd" clip-rule="evenodd" d="M18.3683 11.4093H12.3333V8.70352C12.2932 8.30392 12.4245 7.90605 12.6946 7.60888C12.9648 7.31171 13.3484 7.14317 13.75 7.14518H18V1.47852H11.8658C6.29833 1.47852 5.25 5.72852 5.25 8.36352V11.4093H1V17.076H5.25V33.3677H12.3333V17.076H17.7875L18.3683 11.4093Z" fill="#6E26DB" fill-opacity="0.1"/>
<path fill-rule="evenodd" clip-rule="evenodd" d="M18.3683 11.4093H12.3333V8.70352C12.2932 8.30392 12.4245 7.90605 12.6946 7.60888C12.9648 7.31171 13.3484 7.14317 13.75 7.14518H18V1.47852H11.8658C6.29833 1.47852 5.25 5.72852 5.25 8.36352V11.4093H1V17.076H5.25V33.3677H12.3333V17.076H17.7875L18.3683 11.4093Z" fill="url(#paint0_linear)" fill-opacity="0.05"/>
<path fill-rule="evenodd" clip-rule="evenodd" d="M18.3683 11.4093H12.3333V8.70352C12.2932 8.30392 12.4245 7.90605 12.6946 7.60888C12.9648 7.31171 13.3484 7.14317 13.75 7.14518H18V1.47852H11.8658C6.29833 1.47852 5.25 5.72852 5.25 8.36352V11.4093H1V17.076H5.25V33.3677H12.3333V17.076H17.7875L18.3683 11.4093Z" fill="url(#paint1_linear)" fill-opacity="0.05"/>
<path fill-rule="evenodd" clip-rule="evenodd" d="M18.3683 11.4093H12.3333V8.70352C12.2932 8.30392 12.4245 7.90605 12.6946 7.60888C12.9648 7.31171 13.3484 7.14317 13.75 7.14518H18V1.47852H11.8658C6.29833 1.47852 5.25 5.72852 5.25 8.36352V11.4093H1V17.076H5.25V33.3677H12.3333V17.076H17.7875L18.3683 11.4093Z" stroke="black" stroke-width="1.47826" stroke-linecap="round" stroke-linejoin="round"/>
<path fill-rule="evenodd" clip-rule="evenodd" d="M18.3683 11.4093H12.3333V8.70352C12.2932 8.30392 12.4245 7.90605 12.6946 7.60888C12.9648 7.31171 13.3484 7.14317 13.75 7.14518H18V1.47852H11.8658C6.29833 1.47852 5.25 5.72852 5.25 8.36352V11.4093H1V17.076H5.25V33.3677H12.3333V17.076H17.7875L18.3683 11.4093Z" stroke="#6E26DB" stroke-width="1.47826" stroke-linecap="round" stroke-linejoin="round"/>
<path fill-rule="evenodd" clip-rule="evenodd" d="M18.3683 11.4093H12.3333V8.70352C12.2932 8.30392 12.4245 7.90605 12.6946 7.60888C12.9648 7.31171 13.3484 7.14317 13.75 7.14518H18V1.47852H11.8658C6.29833 1.47852 5.25 5.72852 5.25 8.36352V11.4093H1V17.076H5.25V33.3677H12.3333V17.076H17.7875L18.3683 11.4093Z" stroke="url(#paint2_linear)" stroke-opacity="0.25" stroke-width="1.47826" stroke-linecap="round" stroke-linejoin="round"/>
<path fill-rule="evenodd" clip-rule="evenodd" d="M18.3683 11.4093H12.3333V8.70352C12.2932 8.30392 12.4245 7.90605 12.6946 7.60888C12.9648 7.31171 13.3484 7.14317 13.75 7.14518H18V1.47852H11.8658C6.29833 1.47852 5.25 5.72852 5.25 8.36352V11.4093H1V17.076H5.25V33.3677H12.3333V17.076H17.7875L18.3683 11.4093Z" stroke="url(#paint3_linear)" stroke-opacity="0.25" stroke-width="1.47826" stroke-linecap="round" stroke-linejoin="round"/>
<defs>
<linearGradient id="paint0_linear" x1="18.9473" y1="1.47852" x2="-1.45591" y2="3.69825" gradientUnits="userSpaceOnUse">
<stop stop-color="#117CB6"/>
<stop offset="1" stop-color="#117CB6" stop-opacity="0"/>
</linearGradient>
<linearGradient id="paint1_linear" x1="3.70174" y1="-23.2356" x2="28.5299" y2="-17.6012" gradientUnits="userSpaceOnUse">
<stop stop-color="#FF5B7E"/>
<stop offset="1" stop-color="#FF5B7E" stop-opacity="0"/>
</linearGradient>
<linearGradient id="paint2_linear" x1="18.9473" y1="1.47852" x2="-1.45591" y2="3.69825" gradientUnits="userSpaceOnUse">
<stop stop-color="#117CB6"/>
<stop offset="1" stop-color="#117CB6" stop-opacity="0"/>
</linearGradient>
<linearGradient id="paint3_linear" x1="3.70174" y1="-23.2356" x2="28.5299" y2="-17.6012" gradientUnits="userSpaceOnUse">
<stop stop-color="#FF5B7E"/>
<stop offset="1" stop-color="#FF5B7E" stop-opacity="0"/>
</linearGradient>
</defs>
</svg>
