<svg width="34" height="28" viewBox="0 0 34 28" fill="none" xmlns="http://www.w3.org/2000/svg">
<mask id="path-1-inside-1" fill="white">
<path d="M33.195 6.4537C33.2958 6.36991 33.3713 6.25979 33.4133 6.1356C33.4552 6.01141 33.4619 5.87802 33.4325 5.75027C33.4032 5.62252 33.3389 5.50543 33.2469 5.41202C33.155 5.31861 33.0389 5.25255 32.9116 5.2212L31.7925 4.93786C31.6907 4.91239 31.5959 4.86463 31.5148 4.79803C31.4338 4.73144 31.3685 4.64767 31.3238 4.55279C31.2791 4.4579 31.256 4.35426 31.2562 4.24936C31.2564 4.14446 31.2799 4.04091 31.325 3.9462L31.9483 2.68536C32.0072 2.56319 32.0298 2.42667 32.0133 2.29205C31.9969 2.15742 31.9422 2.03034 31.8556 1.9259C31.7691 1.82146 31.6544 1.74407 31.5252 1.70291C31.396 1.66174 31.2576 1.65855 31.1266 1.6937L28.2933 2.48703C28.1877 2.51782 28.0764 2.52361 27.9683 2.50394C27.8601 2.48427 27.7579 2.43968 27.67 2.3737C26.4439 1.45412 24.9526 0.957031 23.42 0.957031C21.5413 0.957031 19.7397 1.70331 18.4113 3.03169C17.0829 4.36007 16.3366 6.16175 16.3366 8.04037V8.55036C16.3373 8.63738 16.3058 8.72157 16.2484 8.7869C16.1909 8.85222 16.1114 8.89409 16.025 8.90453C12.0441 9.37203 8.2333 7.3462 4.12497 2.61453C4.03572 2.5161 3.92106 2.44419 3.7936 2.4067C3.66613 2.36921 3.53079 2.36759 3.40247 2.40203C3.28686 2.45517 3.18771 2.53846 3.11541 2.64316C3.04312 2.74786 3.00036 2.8701 2.99163 2.99703C2.4242 5.32793 2.65362 7.78171 3.6433 9.96703C3.67258 10.025 3.68537 10.0899 3.68025 10.1546C3.67514 10.2194 3.65232 10.2815 3.6143 10.3341C3.57628 10.3867 3.52452 10.4279 3.46467 10.4531C3.40482 10.4783 3.3392 10.4866 3.27497 10.477L1.6883 10.1654C1.57562 10.1472 1.46023 10.1566 1.35196 10.1927C1.24369 10.2288 1.14573 10.2905 1.06643 10.3726C0.987139 10.4546 0.928849 10.5547 0.896528 10.6641C0.864207 10.7736 0.858812 10.8892 0.880801 11.0012C1.00311 12.0884 1.36838 13.1342 1.94956 14.0612C2.53074 14.9881 3.31296 15.7725 4.2383 16.3562C4.29818 16.3852 4.34868 16.4305 4.38401 16.4869C4.41935 16.5432 4.43809 16.6084 4.43809 16.6749C4.43809 16.7415 4.41935 16.8067 4.38401 16.863C4.34868 16.9194 4.29818 16.9647 4.2383 16.9937L3.48747 17.2912C3.39628 17.3278 3.3137 17.3829 3.24497 17.4531C3.17623 17.5233 3.12285 17.607 3.08821 17.6989C3.05357 17.7908 3.03843 17.889 3.04376 17.9871C3.04908 18.0851 3.07475 18.1811 3.11913 18.2687C3.53435 19.1772 4.16372 19.9715 4.95329 20.5834C5.74286 21.1954 6.66906 21.6066 7.65247 21.782C7.72084 21.8068 7.77991 21.8521 7.82166 21.9117C7.86341 21.9712 7.8858 22.0422 7.8858 22.115C7.8858 22.1877 7.86341 22.2587 7.82166 22.3182C7.77991 22.3778 7.72084 22.423 7.65247 22.4479C5.72632 23.2445 3.65926 23.6444 1.57497 23.6237C1.38711 23.5861 1.19201 23.6247 1.03261 23.731C0.873202 23.8373 0.762541 24.0025 0.724968 24.1904C0.687396 24.3782 0.72599 24.5733 0.832261 24.7327C0.938531 24.8921 1.10377 25.0028 1.29163 25.0404C4.90066 26.752 8.82998 27.6837 12.8233 27.7745C16.3359 27.8281 19.7859 26.8424 22.74 24.9412C25.1699 23.3192 27.1607 21.1212 28.535 18.5431C29.9093 15.965 30.6245 13.0869 30.6166 10.1654V8.93286C30.6175 8.83 30.6408 8.72856 30.6848 8.63559C30.7288 8.54262 30.7926 8.46036 30.8716 8.39453L33.195 6.4537Z"/>
</mask>
<path d="M33.195 6.4537C33.2958 6.36991 33.3713 6.25979 33.4133 6.1356C33.4552 6.01141 33.4619 5.87802 33.4325 5.75027C33.4032 5.62252 33.3389 5.50543 33.2469 5.41202C33.155 5.31861 33.0389 5.25255 32.9116 5.2212L31.7925 4.93786C31.6907 4.91239 31.5959 4.86463 31.5148 4.79803C31.4338 4.73144 31.3685 4.64767 31.3238 4.55279C31.2791 4.4579 31.256 4.35426 31.2562 4.24936C31.2564 4.14446 31.2799 4.04091 31.325 3.9462L31.9483 2.68536C32.0072 2.56319 32.0298 2.42667 32.0133 2.29205C31.9969 2.15742 31.9422 2.03034 31.8556 1.9259C31.7691 1.82146 31.6544 1.74407 31.5252 1.70291C31.396 1.66174 31.2576 1.65855 31.1266 1.6937L28.2933 2.48703C28.1877 2.51782 28.0764 2.52361 27.9683 2.50394C27.8601 2.48427 27.7579 2.43968 27.67 2.3737C26.4439 1.45412 24.9526 0.957031 23.42 0.957031C21.5413 0.957031 19.7397 1.70331 18.4113 3.03169C17.0829 4.36007 16.3366 6.16175 16.3366 8.04037V8.55036C16.3373 8.63738 16.3058 8.72157 16.2484 8.7869C16.1909 8.85222 16.1114 8.89409 16.025 8.90453C12.0441 9.37203 8.2333 7.3462 4.12497 2.61453C4.03572 2.5161 3.92106 2.44419 3.7936 2.4067C3.66613 2.36921 3.53079 2.36759 3.40247 2.40203C3.28686 2.45517 3.18771 2.53846 3.11541 2.64316C3.04312 2.74786 3.00036 2.8701 2.99163 2.99703C2.4242 5.32793 2.65362 7.78171 3.6433 9.96703C3.67258 10.025 3.68537 10.0899 3.68025 10.1546C3.67514 10.2194 3.65232 10.2815 3.6143 10.3341C3.57628 10.3867 3.52452 10.4279 3.46467 10.4531C3.40482 10.4783 3.3392 10.4866 3.27497 10.477L1.6883 10.1654C1.57562 10.1472 1.46023 10.1566 1.35196 10.1927C1.24369 10.2288 1.14573 10.2905 1.06643 10.3726C0.987139 10.4546 0.928849 10.5547 0.896528 10.6641C0.864207 10.7736 0.858812 10.8892 0.880801 11.0012C1.00311 12.0884 1.36838 13.1342 1.94956 14.0612C2.53074 14.9881 3.31296 15.7725 4.2383 16.3562C4.29818 16.3852 4.34868 16.4305 4.38401 16.4869C4.41935 16.5432 4.43809 16.6084 4.43809 16.6749C4.43809 16.7415 4.41935 16.8067 4.38401 16.863C4.34868 16.9194 4.29818 16.9647 4.2383 16.9937L3.48747 17.2912C3.39628 17.3278 3.3137 17.3829 3.24497 17.4531C3.17623 17.5233 3.12285 17.607 3.08821 17.6989C3.05357 17.7908 3.03843 17.889 3.04376 17.9871C3.04908 18.0851 3.07475 18.1811 3.11913 18.2687C3.53435 19.1772 4.16372 19.9715 4.95329 20.5834C5.74286 21.1954 6.66906 21.6066 7.65247 21.782C7.72084 21.8068 7.77991 21.8521 7.82166 21.9117C7.86341 21.9712 7.8858 22.0422 7.8858 22.115C7.8858 22.1877 7.86341 22.2587 7.82166 22.3182C7.77991 22.3778 7.72084 22.423 7.65247 22.4479C5.72632 23.2445 3.65926 23.6444 1.57497 23.6237C1.38711 23.5861 1.19201 23.6247 1.03261 23.731C0.873202 23.8373 0.762541 24.0025 0.724968 24.1904C0.687396 24.3782 0.72599 24.5733 0.832261 24.7327C0.938531 24.8921 1.10377 25.0028 1.29163 25.0404C4.90066 26.752 8.82998 27.6837 12.8233 27.7745C16.3359 27.8281 19.7859 26.8424 22.74 24.9412C25.1699 23.3192 27.1607 21.1212 28.535 18.5431C29.9093 15.965 30.6245 13.0869 30.6166 10.1654V8.93286C30.6175 8.83 30.6408 8.72856 30.6848 8.63559C30.7288 8.54262 30.7926 8.46036 30.8716 8.39453L33.195 6.4537Z" fill="#6E26DB" fill-opacity="0.1"/>
<path d="M33.195 6.4537C33.2958 6.36991 33.3713 6.25979 33.4133 6.1356C33.4552 6.01141 33.4619 5.87802 33.4325 5.75027C33.4032 5.62252 33.3389 5.50543 33.2469 5.41202C33.155 5.31861 33.0389 5.25255 32.9116 5.2212L31.7925 4.93786C31.6907 4.91239 31.5959 4.86463 31.5148 4.79803C31.4338 4.73144 31.3685 4.64767 31.3238 4.55279C31.2791 4.4579 31.256 4.35426 31.2562 4.24936C31.2564 4.14446 31.2799 4.04091 31.325 3.9462L31.9483 2.68536C32.0072 2.56319 32.0298 2.42667 32.0133 2.29205C31.9969 2.15742 31.9422 2.03034 31.8556 1.9259C31.7691 1.82146 31.6544 1.74407 31.5252 1.70291C31.396 1.66174 31.2576 1.65855 31.1266 1.6937L28.2933 2.48703C28.1877 2.51782 28.0764 2.52361 27.9683 2.50394C27.8601 2.48427 27.7579 2.43968 27.67 2.3737C26.4439 1.45412 24.9526 0.957031 23.42 0.957031C21.5413 0.957031 19.7397 1.70331 18.4113 3.03169C17.0829 4.36007 16.3366 6.16175 16.3366 8.04037V8.55036C16.3373 8.63738 16.3058 8.72157 16.2484 8.7869C16.1909 8.85222 16.1114 8.89409 16.025 8.90453C12.0441 9.37203 8.2333 7.3462 4.12497 2.61453C4.03572 2.5161 3.92106 2.44419 3.7936 2.4067C3.66613 2.36921 3.53079 2.36759 3.40247 2.40203C3.28686 2.45517 3.18771 2.53846 3.11541 2.64316C3.04312 2.74786 3.00036 2.8701 2.99163 2.99703C2.4242 5.32793 2.65362 7.78171 3.6433 9.96703C3.67258 10.025 3.68537 10.0899 3.68025 10.1546C3.67514 10.2194 3.65232 10.2815 3.6143 10.3341C3.57628 10.3867 3.52452 10.4279 3.46467 10.4531C3.40482 10.4783 3.3392 10.4866 3.27497 10.477L1.6883 10.1654C1.57562 10.1472 1.46023 10.1566 1.35196 10.1927C1.24369 10.2288 1.14573 10.2905 1.06643 10.3726C0.987139 10.4546 0.928849 10.5547 0.896528 10.6641C0.864207 10.7736 0.858812 10.8892 0.880801 11.0012C1.00311 12.0884 1.36838 13.1342 1.94956 14.0612C2.53074 14.9881 3.31296 15.7725 4.2383 16.3562C4.29818 16.3852 4.34868 16.4305 4.38401 16.4869C4.41935 16.5432 4.43809 16.6084 4.43809 16.6749C4.43809 16.7415 4.41935 16.8067 4.38401 16.863C4.34868 16.9194 4.29818 16.9647 4.2383 16.9937L3.48747 17.2912C3.39628 17.3278 3.3137 17.3829 3.24497 17.4531C3.17623 17.5233 3.12285 17.607 3.08821 17.6989C3.05357 17.7908 3.03843 17.889 3.04376 17.9871C3.04908 18.0851 3.07475 18.1811 3.11913 18.2687C3.53435 19.1772 4.16372 19.9715 4.95329 20.5834C5.74286 21.1954 6.66906 21.6066 7.65247 21.782C7.72084 21.8068 7.77991 21.8521 7.82166 21.9117C7.86341 21.9712 7.8858 22.0422 7.8858 22.115C7.8858 22.1877 7.86341 22.2587 7.82166 22.3182C7.77991 22.3778 7.72084 22.423 7.65247 22.4479C5.72632 23.2445 3.65926 23.6444 1.57497 23.6237C1.38711 23.5861 1.19201 23.6247 1.03261 23.731C0.873202 23.8373 0.762541 24.0025 0.724968 24.1904C0.687396 24.3782 0.72599 24.5733 0.832261 24.7327C0.938531 24.8921 1.10377 25.0028 1.29163 25.0404C4.90066 26.752 8.82998 27.6837 12.8233 27.7745C16.3359 27.8281 19.7859 26.8424 22.74 24.9412C25.1699 23.3192 27.1607 21.1212 28.535 18.5431C29.9093 15.965 30.6245 13.0869 30.6166 10.1654V8.93286C30.6175 8.83 30.6408 8.72856 30.6848 8.63559C30.7288 8.54262 30.7926 8.46036 30.8716 8.39453L33.195 6.4537Z" fill="url(#paint0_linear)" fill-opacity="0.05"/>
<path d="M33.195 6.4537C33.2958 6.36991 33.3713 6.25979 33.4133 6.1356C33.4552 6.01141 33.4619 5.87802 33.4325 5.75027C33.4032 5.62252 33.3389 5.50543 33.2469 5.41202C33.155 5.31861 33.0389 5.25255 32.9116 5.2212L31.7925 4.93786C31.6907 4.91239 31.5959 4.86463 31.5148 4.79803C31.4338 4.73144 31.3685 4.64767 31.3238 4.55279C31.2791 4.4579 31.256 4.35426 31.2562 4.24936C31.2564 4.14446 31.2799 4.04091 31.325 3.9462L31.9483 2.68536C32.0072 2.56319 32.0298 2.42667 32.0133 2.29205C31.9969 2.15742 31.9422 2.03034 31.8556 1.9259C31.7691 1.82146 31.6544 1.74407 31.5252 1.70291C31.396 1.66174 31.2576 1.65855 31.1266 1.6937L28.2933 2.48703C28.1877 2.51782 28.0764 2.52361 27.9683 2.50394C27.8601 2.48427 27.7579 2.43968 27.67 2.3737C26.4439 1.45412 24.9526 0.957031 23.42 0.957031C21.5413 0.957031 19.7397 1.70331 18.4113 3.03169C17.0829 4.36007 16.3366 6.16175 16.3366 8.04037V8.55036C16.3373 8.63738 16.3058 8.72157 16.2484 8.7869C16.1909 8.85222 16.1114 8.89409 16.025 8.90453C12.0441 9.37203 8.2333 7.3462 4.12497 2.61453C4.03572 2.5161 3.92106 2.44419 3.7936 2.4067C3.66613 2.36921 3.53079 2.36759 3.40247 2.40203C3.28686 2.45517 3.18771 2.53846 3.11541 2.64316C3.04312 2.74786 3.00036 2.8701 2.99163 2.99703C2.4242 5.32793 2.65362 7.78171 3.6433 9.96703C3.67258 10.025 3.68537 10.0899 3.68025 10.1546C3.67514 10.2194 3.65232 10.2815 3.6143 10.3341C3.57628 10.3867 3.52452 10.4279 3.46467 10.4531C3.40482 10.4783 3.3392 10.4866 3.27497 10.477L1.6883 10.1654C1.57562 10.1472 1.46023 10.1566 1.35196 10.1927C1.24369 10.2288 1.14573 10.2905 1.06643 10.3726C0.987139 10.4546 0.928849 10.5547 0.896528 10.6641C0.864207 10.7736 0.858812 10.8892 0.880801 11.0012C1.00311 12.0884 1.36838 13.1342 1.94956 14.0612C2.53074 14.9881 3.31296 15.7725 4.2383 16.3562C4.29818 16.3852 4.34868 16.4305 4.38401 16.4869C4.41935 16.5432 4.43809 16.6084 4.43809 16.6749C4.43809 16.7415 4.41935 16.8067 4.38401 16.863C4.34868 16.9194 4.29818 16.9647 4.2383 16.9937L3.48747 17.2912C3.39628 17.3278 3.3137 17.3829 3.24497 17.4531C3.17623 17.5233 3.12285 17.607 3.08821 17.6989C3.05357 17.7908 3.03843 17.889 3.04376 17.9871C3.04908 18.0851 3.07475 18.1811 3.11913 18.2687C3.53435 19.1772 4.16372 19.9715 4.95329 20.5834C5.74286 21.1954 6.66906 21.6066 7.65247 21.782C7.72084 21.8068 7.77991 21.8521 7.82166 21.9117C7.86341 21.9712 7.8858 22.0422 7.8858 22.115C7.8858 22.1877 7.86341 22.2587 7.82166 22.3182C7.77991 22.3778 7.72084 22.423 7.65247 22.4479C5.72632 23.2445 3.65926 23.6444 1.57497 23.6237C1.38711 23.5861 1.19201 23.6247 1.03261 23.731C0.873202 23.8373 0.762541 24.0025 0.724968 24.1904C0.687396 24.3782 0.72599 24.5733 0.832261 24.7327C0.938531 24.8921 1.10377 25.0028 1.29163 25.0404C4.90066 26.752 8.82998 27.6837 12.8233 27.7745C16.3359 27.8281 19.7859 26.8424 22.74 24.9412C25.1699 23.3192 27.1607 21.1212 28.535 18.5431C29.9093 15.965 30.6245 13.0869 30.6166 10.1654V8.93286C30.6175 8.83 30.6408 8.72856 30.6848 8.63559C30.7288 8.54262 30.7926 8.46036 30.8716 8.39453L33.195 6.4537Z" fill="url(#paint1_linear)" fill-opacity="0.05"/>
<path d="M33.195 6.4537L32.25 5.31686L32.2472 5.3192L33.195 6.4537ZM32.9116 5.2212L32.5488 6.65428L32.558 6.65654L32.9116 5.2212ZM31.7925 4.93786L32.1553 3.50481L32.1515 3.50386L31.7925 4.93786ZM31.325 3.9462L29.9998 3.29106L29.995 3.30081L29.9903 3.31064L31.325 3.9462ZM31.9483 2.68536L33.2735 3.3405L33.2767 3.33386L33.28 3.32718L31.9483 2.68536ZM31.1266 1.6937L30.7435 0.265946L30.7358 0.268024L30.728 0.270186L31.1266 1.6937ZM28.2933 2.48703L27.8947 1.06352L27.887 1.06567L27.8794 1.0679L28.2933 2.48703ZM27.67 2.3737L26.783 3.55631L27.67 2.3737ZM23.42 0.957031V-0.52123V0.957031ZM16.3366 8.04037H14.8584H16.3366ZM16.3366 8.55036H14.8583L14.8584 8.56104L16.3366 8.55036ZM16.025 8.90453L16.1974 10.3727L16.2023 10.3721L16.025 8.90453ZM4.12497 2.61453L5.24119 1.64536L5.23077 1.63335L5.22008 1.62157L4.12497 2.61453ZM3.40247 2.40203L3.01932 0.974286L2.89863 1.00668L2.78508 1.05887L3.40247 2.40203ZM2.99163 2.99703L4.42795 3.34669L4.45776 3.22421L4.46641 3.09846L2.99163 2.99703ZM3.6433 9.96703L2.2967 10.5769L2.30968 10.6055L2.32387 10.6336L3.6433 9.96703ZM3.27497 10.477L2.99004 11.9276L3.02339 11.9341L3.05701 11.9391L3.27497 10.477ZM1.6883 10.1654L1.97323 8.71482L1.94817 8.7099L1.92296 8.70585L1.6883 10.1654ZM0.880801 11.0012L2.3498 10.8359L2.34303 10.7758L2.33136 10.7164L0.880801 11.0012ZM4.2383 16.3562L3.44959 17.6065L3.51953 17.6506L3.59394 17.6866L4.2383 16.3562ZM4.2383 16.9937L4.78284 18.368L4.83356 18.3479L4.88266 18.3241L4.2383 16.9937ZM3.48747 17.2912L2.94292 15.9169L2.93739 15.9191L3.48747 17.2912ZM3.11913 18.2687L4.46364 17.6542L4.45131 17.6273L4.43791 17.6008L3.11913 18.2687ZM7.65247 21.782L8.15681 20.3925L8.03724 20.3491L7.91201 20.3267L7.65247 21.782ZM7.65247 22.4479L7.14812 21.0583L7.11754 21.0694L7.08748 21.0818L7.65247 22.4479ZM1.57497 23.6237L1.28506 25.0733L1.42132 25.1005L1.56027 25.1019L1.57497 23.6237ZM1.29163 25.0404L1.92511 23.7047L1.76035 23.6266L1.58155 23.5908L1.29163 25.0404ZM12.8233 27.7745L12.7897 29.2525L12.8008 29.2526L12.8233 27.7745ZM22.74 24.9412L23.54 26.1843L23.5504 26.1776L23.5607 26.1707L22.74 24.9412ZM30.6166 10.1654H29.1384L29.1384 10.1693L30.6166 10.1654ZM30.6166 8.93286L29.1384 8.92044V8.93286H30.6166ZM30.8716 8.39453L31.8177 9.53043L31.8194 9.52903L30.8716 8.39453ZM34.1399 7.59053C34.4511 7.33188 34.6844 6.99195 34.8138 6.60858L32.0127 5.66262C32.0583 5.52763 32.1405 5.40794 32.25 5.31687L34.1399 7.59053ZM34.8138 6.60858C34.9433 6.22521 34.9639 5.81344 34.8732 5.41908L31.9918 6.08146C31.9599 5.94261 31.9671 5.79761 32.0127 5.66262L34.8138 6.60858ZM34.8732 5.41908C34.7825 5.02471 34.5842 4.66325 34.3004 4.37491L32.1935 6.44913C32.0936 6.34761 32.0238 6.22033 31.9918 6.08146L34.8732 5.41908ZM34.3004 4.37491C34.0165 4.08657 33.6582 3.88265 33.2652 3.78585L32.558 6.65654C32.4197 6.62246 32.2935 6.55065 32.1935 6.44913L34.3004 4.37491ZM33.2744 3.78815L32.1553 3.50481L31.4297 6.37091L32.5488 6.65425L33.2744 3.78815ZM32.1515 3.50386C32.2621 3.53155 32.3652 3.58346 32.4533 3.65585L30.5764 5.94021C30.8266 6.14579 31.1193 6.29323 31.4335 6.37187L32.1515 3.50386ZM32.4533 3.65585C32.5414 3.72824 32.6123 3.81929 32.6609 3.92243L29.9867 5.18314C30.1247 5.47605 30.3262 5.73464 30.5764 5.94021L32.4533 3.65585ZM32.6609 3.92243C32.7095 4.02556 32.7346 4.13821 32.7344 4.25224L29.7779 4.24648C29.7773 4.57031 29.8486 4.89024 29.9867 5.18314L32.6609 3.92243ZM32.7344 4.25224C32.7342 4.36627 32.7086 4.47882 32.6596 4.58176L29.9903 3.31064C29.8511 3.603 29.7785 3.92264 29.7779 4.24648L32.7344 4.25224ZM32.6501 4.60133L33.2735 3.3405L30.6231 2.03023L29.9998 3.29106L32.6501 4.60133ZM33.28 3.32718C33.4617 2.95002 33.5314 2.52861 33.4807 2.11302L30.5459 2.47107C30.5281 2.32474 30.5526 2.17635 30.6166 2.04355L33.28 3.32718ZM33.4807 2.11302C33.43 1.69742 33.261 1.30512 32.9939 0.982743L30.7173 2.86906C30.6233 2.75555 30.5638 2.61742 30.5459 2.47107L33.4807 2.11302ZM32.9939 0.982743C32.7268 0.660353 32.3727 0.421433 31.9738 0.294369L31.0765 3.11144C30.9361 3.0667 30.8114 2.98258 30.7173 2.86906L32.9939 0.982743ZM31.9738 0.294369C31.5749 0.167305 31.1479 0.157439 30.7435 0.265946L31.5098 3.12145C31.3674 3.15966 31.217 3.15618 31.0765 3.11144L31.9738 0.294369ZM30.728 0.270186L27.8947 1.06352L28.6919 3.91054L31.5252 3.11721L30.728 0.270186ZM27.8794 1.0679C27.9941 1.03443 28.1151 1.02814 28.2327 1.04952L27.7038 3.95836C28.0378 4.01908 28.3813 4.00121 28.7072 3.90616L27.8794 1.0679ZM28.2327 1.04952C28.3503 1.0709 28.4613 1.11937 28.5569 1.19109L26.783 3.55631C27.0546 3.75998 27.3698 3.89763 27.7038 3.95836L28.2327 1.04952ZM28.5569 1.19109C27.0749 0.0796047 25.2724 -0.52123 23.42 -0.52123V2.43529C24.6327 2.43529 25.8128 2.82864 26.783 3.55631L28.5569 1.19109ZM23.42 -0.52123C21.1493 -0.52123 18.9716 0.380793 17.366 1.9864L19.4566 4.07698C20.5077 3.02582 21.9334 2.43529 23.42 2.43529V-0.52123ZM17.366 1.9864C15.7604 3.59201 14.8584 5.76969 14.8584 8.04037H17.8149C17.8149 6.55381 18.4054 5.12814 19.4566 4.07698L17.366 1.9864ZM14.8584 8.04037V8.55036H17.8149V8.04037H14.8584ZM14.8584 8.56104C14.8564 8.28489 14.9562 8.01765 15.1386 7.81032L17.3581 9.76348C17.6555 9.4255 17.8181 8.98987 17.8149 8.53969L14.8584 8.56104ZM15.1386 7.81032C15.3211 7.60298 15.5734 7.47008 15.8476 7.43695L16.2023 10.3721C16.6493 10.3181 17.0607 10.1015 17.3581 9.76348L15.1386 7.81032ZM15.8525 7.43636C12.5878 7.81976 9.21913 6.22685 5.24119 1.64536L3.00874 3.58371C7.24747 8.46555 11.5004 10.9243 16.1974 10.3727L15.8525 7.43636ZM5.22008 1.62157C4.94824 1.32175 4.59898 1.1027 4.21071 0.988508L3.37648 3.82489C3.24314 3.78568 3.1232 3.71045 3.02985 3.60749L5.22008 1.62157ZM4.21071 0.988508C3.82244 0.874312 3.41021 0.869391 3.01932 0.974286L3.78561 3.82978C3.65138 3.8658 3.50981 3.86411 3.37648 3.82489L4.21071 0.988508ZM2.78508 1.05887C2.42822 1.2229 2.12212 1.48003 1.89896 1.80323L4.33187 3.4831C4.25329 3.5969 4.14551 3.68744 4.01985 3.7452L2.78508 1.05887ZM1.89896 1.80323C1.67579 2.12643 1.5438 2.50377 1.51686 2.89561L4.46641 3.09846C4.45692 3.23642 4.41045 3.36929 4.33187 3.4831L1.89896 1.80323ZM1.55532 2.64737C0.909772 5.29915 1.17077 8.09073 2.2967 10.5769L4.9899 9.35718C4.13646 7.4727 3.93863 5.35671 4.42795 3.34669L1.55532 2.64737ZM2.32387 10.6336C2.23092 10.4497 2.19035 10.2437 2.20658 10.0382L5.15392 10.2711C5.18038 9.93611 5.11425 9.60033 4.96274 9.30044L2.32387 10.6336ZM2.20658 10.0382C2.22282 9.83273 2.29523 9.63568 2.41591 9.46859L4.8127 11.1996C5.00942 10.9272 5.12746 10.606 5.15392 10.2711L2.20658 10.0382ZM2.41591 9.46859C2.53658 9.3015 2.70087 9.1708 2.89083 9.09079L4.03851 11.8155C4.34816 11.685 4.61598 11.472 4.8127 11.1996L2.41591 9.46859ZM2.89083 9.09079C3.08078 9.01078 3.28907 8.98454 3.49292 9.01493L3.05701 11.9391C3.38933 11.9887 3.72887 11.9459 4.03851 11.8155L2.89083 9.09079ZM3.5599 9.02649L1.97323 8.71482L1.40337 11.6159L2.99004 11.9276L3.5599 9.02649ZM1.92296 8.70585C1.57512 8.64992 1.21893 8.67887 0.884686 8.79024L1.81923 11.5952C1.70154 11.6344 1.57612 11.6446 1.45364 11.6249L1.92296 8.70585ZM0.884686 8.79024C0.550454 8.9016 0.248071 9.09207 0.00328213 9.34544L2.12959 11.3997C2.04339 11.4889 1.93692 11.556 1.81923 11.5952L0.884686 8.79024ZM0.00328213 9.34544C-0.241502 9.59882 -0.421439 9.90759 -0.521212 10.2455L2.31427 11.0828C2.27914 11.2017 2.21578 11.3105 2.12959 11.3997L0.00328213 9.34544ZM-0.521212 10.2455C-0.620986 10.5833 -0.637641 10.9403 -0.569759 11.286L2.33136 10.7164C2.35526 10.8381 2.3494 10.9638 2.31427 11.0828L-0.521212 10.2455ZM-0.588192 11.1665C-0.441096 12.474 -0.00182074 13.7317 0.697118 14.8464L3.20201 13.2759C2.73858 12.5368 2.44733 11.7029 2.3498 10.8359L-0.588192 11.1665ZM0.697118 14.8464C1.39606 15.9612 2.33676 16.9045 3.44959 17.6065L5.02701 15.1059C4.28916 14.6405 3.66543 14.015 3.20201 13.2759L0.697118 14.8464ZM3.59394 17.6866C3.40389 17.5946 3.24361 17.4509 3.13146 17.2719L5.63657 15.7018C5.45375 15.4101 5.19247 15.1758 4.88266 15.0258L3.59394 17.6866ZM3.13146 17.2719C3.01931 17.093 2.95983 16.8861 2.95983 16.6749H5.91635C5.91635 16.3307 5.81938 15.9934 5.63657 15.7018L3.13146 17.2719ZM2.95983 16.6749C2.95983 16.4638 3.01931 16.2569 3.13146 16.078L5.63657 17.6481C5.81939 17.3565 5.91635 17.0192 5.91635 16.6749H2.95983ZM3.13146 16.078C3.24361 15.899 3.40389 15.7553 3.59394 15.6633L4.88266 18.3241C5.19247 18.1741 5.45375 17.9398 5.63657 17.6481L3.13146 16.078ZM3.69376 15.6194L2.94293 15.9169L4.03201 18.6655L4.78284 18.368L3.69376 15.6194ZM2.93739 15.9191C2.65592 16.0319 2.40099 16.2021 2.1888 16.4188L4.30114 18.4874C4.22642 18.5637 4.13665 18.6236 4.03755 18.6633L2.93739 15.9191ZM2.1888 16.4188C1.97662 16.6354 1.81183 16.8939 1.7049 17.1777L4.47152 18.2201C4.43387 18.3201 4.37585 18.4111 4.30114 18.4874L2.1888 16.4188ZM1.7049 17.1777C1.59796 17.4614 1.55123 17.7644 1.56767 18.0672L4.51984 17.9069C4.52563 18.0136 4.50918 18.1202 4.47152 18.2201L1.7049 17.1777ZM1.56767 18.0672C1.5841 18.37 1.66335 18.6661 1.80036 18.9366L4.43791 17.6008C4.48615 17.6961 4.51406 17.8003 4.51984 17.9069L1.56767 18.0672ZM1.77463 18.8832C2.28921 20.0091 3.06921 20.9935 4.04775 21.7519L5.85883 19.415C5.25823 18.9495 4.77948 18.3454 4.46364 17.6542L1.77463 18.8832ZM4.04775 21.7519C5.02628 22.5103 6.17415 23.02 7.39292 23.2373L7.91201 20.3267C7.16396 20.1933 6.45943 19.8805 5.85883 19.415L4.04775 21.7519ZM7.14812 23.1716C6.93113 23.0928 6.74363 22.9492 6.61112 22.7601L9.0322 21.0632C8.8162 20.755 8.51055 20.5209 8.15681 20.3925L7.14812 23.1716ZM6.61112 22.7601C6.47862 22.5711 6.40754 22.3458 6.40754 22.115H9.36406C9.36406 21.7386 9.2482 21.3714 9.0322 21.0632L6.61112 22.7601ZM6.40754 22.115C6.40754 21.8841 6.47862 21.6588 6.61112 21.4698L9.0322 23.1667C9.24819 22.8585 9.36406 22.4913 9.36406 22.115H6.40754ZM6.61112 21.4698C6.74363 21.2807 6.93113 21.1371 7.14812 21.0583L8.15681 23.8374C8.51055 23.709 8.8162 23.4749 9.0322 23.1667L6.61112 21.4698ZM7.08748 21.0818C5.34505 21.8025 3.47516 22.1643 1.58967 22.1455L1.56027 25.1019C3.84336 25.1246 6.10758 24.6865 8.21745 23.8139L7.08748 21.0818ZM1.86488 22.1741C1.29256 22.0597 0.698228 22.1773 0.212616 22.501L1.8526 24.961C1.6858 25.0722 1.48165 25.1126 1.28506 25.0733L1.86488 22.1741ZM0.212616 22.501C-0.272998 22.8247 -0.610123 23.3281 -0.724586 23.9005L2.17452 24.4803C2.1352 24.6769 2.0194 24.8498 1.8526 24.961L0.212616 22.501ZM-0.724586 23.9005C-0.839047 24.4728 -0.721473 25.0671 -0.397727 25.5527L2.06225 23.9127C2.17345 24.0795 2.21384 24.2837 2.17452 24.4803L-0.724586 23.9005ZM-0.397727 25.5527C-0.0739802 26.0383 0.429418 26.3755 1.00172 26.4899L1.58155 23.5908C1.77813 23.6301 1.95104 23.7459 2.06225 23.9127L-0.397727 25.5527ZM0.658163 26.376C4.45492 28.1767 8.58863 29.1568 12.7897 29.2524L12.8569 26.2967C9.07132 26.2105 5.34639 25.3274 1.92511 23.7047L0.658163 26.376ZM12.8008 29.2526C16.6047 29.3106 20.3409 28.2431 23.54 26.1843L21.9399 23.6981C19.2309 25.4416 16.067 26.3456 12.8458 26.2964L12.8008 29.2526ZM23.5607 26.1707C26.1934 24.4133 28.3505 22.0318 29.8395 19.2385L27.2305 17.8477C25.9709 20.2105 24.1463 22.2251 21.9192 23.7117L23.5607 26.1707ZM29.8395 19.2385C31.3286 16.4451 32.1034 13.3268 32.0949 10.1614L29.1384 10.1693C29.1456 12.847 28.4901 15.4848 27.2305 17.8477L29.8395 19.2385ZM32.0949 10.1654V8.93286H29.1384V10.1654H32.0949ZM32.0948 8.94529C32.0939 9.05709 32.0686 9.16736 32.0208 9.26841L29.3488 8.00277C29.2129 8.28976 29.1411 8.60291 29.1384 8.92044L32.0948 8.94529ZM32.0208 9.26841C31.9729 9.36947 31.9036 9.45888 31.8177 9.53043L29.9256 7.25863C29.6816 7.46184 29.4848 7.71577 29.3488 8.00277L32.0208 9.26841ZM31.8194 9.52903L34.1427 7.58819L32.2472 5.3192L29.9239 7.26003L31.8194 9.52903Z" fill="black" mask="url(#path-1-inside-1)"/>
<path d="M33.195 6.4537L32.25 5.31686L32.2472 5.3192L33.195 6.4537ZM32.9116 5.2212L32.5488 6.65428L32.558 6.65654L32.9116 5.2212ZM31.7925 4.93786L32.1553 3.50481L32.1515 3.50386L31.7925 4.93786ZM31.325 3.9462L29.9998 3.29106L29.995 3.30081L29.9903 3.31064L31.325 3.9462ZM31.9483 2.68536L33.2735 3.3405L33.2767 3.33386L33.28 3.32718L31.9483 2.68536ZM31.1266 1.6937L30.7435 0.265946L30.7358 0.268024L30.728 0.270186L31.1266 1.6937ZM28.2933 2.48703L27.8947 1.06352L27.887 1.06567L27.8794 1.0679L28.2933 2.48703ZM27.67 2.3737L26.783 3.55631L27.67 2.3737ZM23.42 0.957031V-0.52123V0.957031ZM16.3366 8.04037H14.8584H16.3366ZM16.3366 8.55036H14.8583L14.8584 8.56104L16.3366 8.55036ZM16.025 8.90453L16.1974 10.3727L16.2023 10.3721L16.025 8.90453ZM4.12497 2.61453L5.24119 1.64536L5.23077 1.63335L5.22008 1.62157L4.12497 2.61453ZM3.40247 2.40203L3.01932 0.974286L2.89863 1.00668L2.78508 1.05887L3.40247 2.40203ZM2.99163 2.99703L4.42795 3.34669L4.45776 3.22421L4.46641 3.09846L2.99163 2.99703ZM3.6433 9.96703L2.2967 10.5769L2.30968 10.6055L2.32387 10.6336L3.6433 9.96703ZM3.27497 10.477L2.99004 11.9276L3.02339 11.9341L3.05701 11.9391L3.27497 10.477ZM1.6883 10.1654L1.97323 8.71482L1.94817 8.7099L1.92296 8.70585L1.6883 10.1654ZM0.880801 11.0012L2.3498 10.8359L2.34303 10.7758L2.33136 10.7164L0.880801 11.0012ZM4.2383 16.3562L3.44959 17.6065L3.51953 17.6506L3.59394 17.6866L4.2383 16.3562ZM4.2383 16.9937L4.78284 18.368L4.83356 18.3479L4.88266 18.3241L4.2383 16.9937ZM3.48747 17.2912L2.94292 15.9169L2.93739 15.9191L3.48747 17.2912ZM3.11913 18.2687L4.46364 17.6542L4.45131 17.6273L4.43791 17.6008L3.11913 18.2687ZM7.65247 21.782L8.15681 20.3925L8.03724 20.3491L7.91201 20.3267L7.65247 21.782ZM7.65247 22.4479L7.14812 21.0583L7.11754 21.0694L7.08748 21.0818L7.65247 22.4479ZM1.57497 23.6237L1.28506 25.0733L1.42132 25.1005L1.56027 25.1019L1.57497 23.6237ZM1.29163 25.0404L1.92511 23.7047L1.76035 23.6266L1.58155 23.5908L1.29163 25.0404ZM12.8233 27.7745L12.7897 29.2525L12.8008 29.2526L12.8233 27.7745ZM22.74 24.9412L23.54 26.1843L23.5504 26.1776L23.5607 26.1707L22.74 24.9412ZM30.6166 10.1654H29.1384L29.1384 10.1693L30.6166 10.1654ZM30.6166 8.93286L29.1384 8.92044V8.93286H30.6166ZM30.8716 8.39453L31.8177 9.53043L31.8194 9.52903L30.8716 8.39453ZM34.1399 7.59053C34.4511 7.33188 34.6844 6.99195 34.8138 6.60858L32.0127 5.66262C32.0583 5.52763 32.1405 5.40794 32.25 5.31687L34.1399 7.59053ZM34.8138 6.60858C34.9433 6.22521 34.9639 5.81344 34.8732 5.41908L31.9918 6.08146C31.9599 5.94261 31.9671 5.79761 32.0127 5.66262L34.8138 6.60858ZM34.8732 5.41908C34.7825 5.02471 34.5842 4.66325 34.3004 4.37491L32.1935 6.44913C32.0936 6.34761 32.0238 6.22033 31.9918 6.08146L34.8732 5.41908ZM34.3004 4.37491C34.0165 4.08657 33.6582 3.88265 33.2652 3.78585L32.558 6.65654C32.4197 6.62246 32.2935 6.55065 32.1935 6.44913L34.3004 4.37491ZM33.2744 3.78815L32.1553 3.50481L31.4297 6.37091L32.5488 6.65425L33.2744 3.78815ZM32.1515 3.50386C32.2621 3.53155 32.3652 3.58346 32.4533 3.65585L30.5764 5.94021C30.8266 6.14579 31.1193 6.29323 31.4335 6.37187L32.1515 3.50386ZM32.4533 3.65585C32.5414 3.72824 32.6123 3.81929 32.6609 3.92243L29.9867 5.18314C30.1247 5.47605 30.3262 5.73464 30.5764 5.94021L32.4533 3.65585ZM32.6609 3.92243C32.7095 4.02556 32.7346 4.13821 32.7344 4.25224L29.7779 4.24648C29.7773 4.57031 29.8486 4.89024 29.9867 5.18314L32.6609 3.92243ZM32.7344 4.25224C32.7342 4.36627 32.7086 4.47882 32.6596 4.58176L29.9903 3.31064C29.8511 3.603 29.7785 3.92264 29.7779 4.24648L32.7344 4.25224ZM32.6501 4.60133L33.2735 3.3405L30.6231 2.03023L29.9998 3.29106L32.6501 4.60133ZM33.28 3.32718C33.4617 2.95002 33.5314 2.52861 33.4807 2.11302L30.5459 2.47107C30.5281 2.32474 30.5526 2.17635 30.6166 2.04355L33.28 3.32718ZM33.4807 2.11302C33.43 1.69742 33.261 1.30512 32.9939 0.982743L30.7173 2.86906C30.6233 2.75555 30.5638 2.61742 30.5459 2.47107L33.4807 2.11302ZM32.9939 0.982743C32.7268 0.660353 32.3727 0.421433 31.9738 0.294369L31.0765 3.11144C30.9361 3.0667 30.8114 2.98258 30.7173 2.86906L32.9939 0.982743ZM31.9738 0.294369C31.5749 0.167305 31.1479 0.157439 30.7435 0.265946L31.5098 3.12145C31.3674 3.15966 31.217 3.15618 31.0765 3.11144L31.9738 0.294369ZM30.728 0.270186L27.8947 1.06352L28.6919 3.91054L31.5252 3.11721L30.728 0.270186ZM27.8794 1.0679C27.9941 1.03443 28.1151 1.02814 28.2327 1.04952L27.7038 3.95836C28.0378 4.01908 28.3813 4.00121 28.7072 3.90616L27.8794 1.0679ZM28.2327 1.04952C28.3503 1.0709 28.4613 1.11937 28.5569 1.19109L26.783 3.55631C27.0546 3.75998 27.3698 3.89763 27.7038 3.95836L28.2327 1.04952ZM28.5569 1.19109C27.0749 0.0796047 25.2724 -0.52123 23.42 -0.52123V2.43529C24.6327 2.43529 25.8128 2.82864 26.783 3.55631L28.5569 1.19109ZM23.42 -0.52123C21.1493 -0.52123 18.9716 0.380793 17.366 1.9864L19.4566 4.07698C20.5077 3.02582 21.9334 2.43529 23.42 2.43529V-0.52123ZM17.366 1.9864C15.7604 3.59201 14.8584 5.76969 14.8584 8.04037H17.8149C17.8149 6.55381 18.4054 5.12814 19.4566 4.07698L17.366 1.9864ZM14.8584 8.04037V8.55036H17.8149V8.04037H14.8584ZM14.8584 8.56104C14.8564 8.28489 14.9562 8.01765 15.1386 7.81032L17.3581 9.76348C17.6555 9.4255 17.8181 8.98987 17.8149 8.53969L14.8584 8.56104ZM15.1386 7.81032C15.3211 7.60298 15.5734 7.47008 15.8476 7.43695L16.2023 10.3721C16.6493 10.3181 17.0607 10.1015 17.3581 9.76348L15.1386 7.81032ZM15.8525 7.43636C12.5878 7.81976 9.21913 6.22685 5.24119 1.64536L3.00874 3.58371C7.24747 8.46555 11.5004 10.9243 16.1974 10.3727L15.8525 7.43636ZM5.22008 1.62157C4.94824 1.32175 4.59898 1.1027 4.21071 0.988508L3.37648 3.82489C3.24314 3.78568 3.1232 3.71045 3.02985 3.60749L5.22008 1.62157ZM4.21071 0.988508C3.82244 0.874312 3.41021 0.869391 3.01932 0.974286L3.78561 3.82978C3.65138 3.8658 3.50981 3.86411 3.37648 3.82489L4.21071 0.988508ZM2.78508 1.05887C2.42822 1.2229 2.12212 1.48003 1.89896 1.80323L4.33187 3.4831C4.25329 3.5969 4.14551 3.68744 4.01985 3.7452L2.78508 1.05887ZM1.89896 1.80323C1.67579 2.12643 1.5438 2.50377 1.51686 2.89561L4.46641 3.09846C4.45692 3.23642 4.41045 3.36929 4.33187 3.4831L1.89896 1.80323ZM1.55532 2.64737C0.909772 5.29915 1.17077 8.09073 2.2967 10.5769L4.9899 9.35718C4.13646 7.4727 3.93863 5.35671 4.42795 3.34669L1.55532 2.64737ZM2.32387 10.6336C2.23092 10.4497 2.19035 10.2437 2.20658 10.0382L5.15392 10.2711C5.18038 9.93611 5.11425 9.60033 4.96274 9.30044L2.32387 10.6336ZM2.20658 10.0382C2.22282 9.83273 2.29523 9.63568 2.41591 9.46859L4.8127 11.1996C5.00942 10.9272 5.12746 10.606 5.15392 10.2711L2.20658 10.0382ZM2.41591 9.46859C2.53658 9.3015 2.70087 9.1708 2.89083 9.09079L4.03851 11.8155C4.34816 11.685 4.61598 11.472 4.8127 11.1996L2.41591 9.46859ZM2.89083 9.09079C3.08078 9.01078 3.28907 8.98454 3.49292 9.01493L3.05701 11.9391C3.38933 11.9887 3.72887 11.9459 4.03851 11.8155L2.89083 9.09079ZM3.5599 9.02649L1.97323 8.71482L1.40337 11.6159L2.99004 11.9276L3.5599 9.02649ZM1.92296 8.70585C1.57512 8.64992 1.21893 8.67887 0.884686 8.79024L1.81923 11.5952C1.70154 11.6344 1.57612 11.6446 1.45364 11.6249L1.92296 8.70585ZM0.884686 8.79024C0.550454 8.9016 0.248071 9.09207 0.00328213 9.34544L2.12959 11.3997C2.04339 11.4889 1.93692 11.556 1.81923 11.5952L0.884686 8.79024ZM0.00328213 9.34544C-0.241502 9.59882 -0.421439 9.90759 -0.521212 10.2455L2.31427 11.0828C2.27914 11.2017 2.21578 11.3105 2.12959 11.3997L0.00328213 9.34544ZM-0.521212 10.2455C-0.620986 10.5833 -0.637641 10.9403 -0.569759 11.286L2.33136 10.7164C2.35526 10.8381 2.3494 10.9638 2.31427 11.0828L-0.521212 10.2455ZM-0.588192 11.1665C-0.441096 12.474 -0.00182074 13.7317 0.697118 14.8464L3.20201 13.2759C2.73858 12.5368 2.44733 11.7029 2.3498 10.8359L-0.588192 11.1665ZM0.697118 14.8464C1.39606 15.9612 2.33676 16.9045 3.44959 17.6065L5.02701 15.1059C4.28916 14.6405 3.66543 14.015 3.20201 13.2759L0.697118 14.8464ZM3.59394 17.6866C3.40389 17.5946 3.24361 17.4509 3.13146 17.2719L5.63657 15.7018C5.45375 15.4101 5.19247 15.1758 4.88266 15.0258L3.59394 17.6866ZM3.13146 17.2719C3.01931 17.093 2.95983 16.8861 2.95983 16.6749H5.91635C5.91635 16.3307 5.81938 15.9934 5.63657 15.7018L3.13146 17.2719ZM2.95983 16.6749C2.95983 16.4638 3.01931 16.2569 3.13146 16.078L5.63657 17.6481C5.81939 17.3565 5.91635 17.0192 5.91635 16.6749H2.95983ZM3.13146 16.078C3.24361 15.899 3.40389 15.7553 3.59394 15.6633L4.88266 18.3241C5.19247 18.1741 5.45375 17.9398 5.63657 17.6481L3.13146 16.078ZM3.69376 15.6194L2.94293 15.9169L4.03201 18.6655L4.78284 18.368L3.69376 15.6194ZM2.93739 15.9191C2.65592 16.0319 2.40099 16.2021 2.1888 16.4188L4.30114 18.4874C4.22642 18.5637 4.13665 18.6236 4.03755 18.6633L2.93739 15.9191ZM2.1888 16.4188C1.97662 16.6354 1.81183 16.8939 1.7049 17.1777L4.47152 18.2201C4.43387 18.3201 4.37585 18.4111 4.30114 18.4874L2.1888 16.4188ZM1.7049 17.1777C1.59796 17.4614 1.55123 17.7644 1.56767 18.0672L4.51984 17.9069C4.52563 18.0136 4.50918 18.1202 4.47152 18.2201L1.7049 17.1777ZM1.56767 18.0672C1.5841 18.37 1.66335 18.6661 1.80036 18.9366L4.43791 17.6008C4.48615 17.6961 4.51406 17.8003 4.51984 17.9069L1.56767 18.0672ZM1.77463 18.8832C2.28921 20.0091 3.06921 20.9935 4.04775 21.7519L5.85883 19.415C5.25823 18.9495 4.77948 18.3454 4.46364 17.6542L1.77463 18.8832ZM4.04775 21.7519C5.02628 22.5103 6.17415 23.02 7.39292 23.2373L7.91201 20.3267C7.16396 20.1933 6.45943 19.8805 5.85883 19.415L4.04775 21.7519ZM7.14812 23.1716C6.93113 23.0928 6.74363 22.9492 6.61112 22.7601L9.0322 21.0632C8.8162 20.755 8.51055 20.5209 8.15681 20.3925L7.14812 23.1716ZM6.61112 22.7601C6.47862 22.5711 6.40754 22.3458 6.40754 22.115H9.36406C9.36406 21.7386 9.2482 21.3714 9.0322 21.0632L6.61112 22.7601ZM6.40754 22.115C6.40754 21.8841 6.47862 21.6588 6.61112 21.4698L9.0322 23.1667C9.24819 22.8585 9.36406 22.4913 9.36406 22.115H6.40754ZM6.61112 21.4698C6.74363 21.2807 6.93113 21.1371 7.14812 21.0583L8.15681 23.8374C8.51055 23.709 8.8162 23.4749 9.0322 23.1667L6.61112 21.4698ZM7.08748 21.0818C5.34505 21.8025 3.47516 22.1643 1.58967 22.1455L1.56027 25.1019C3.84336 25.1246 6.10758 24.6865 8.21745 23.8139L7.08748 21.0818ZM1.86488 22.1741C1.29256 22.0597 0.698228 22.1773 0.212616 22.501L1.8526 24.961C1.6858 25.0722 1.48165 25.1126 1.28506 25.0733L1.86488 22.1741ZM0.212616 22.501C-0.272998 22.8247 -0.610123 23.3281 -0.724586 23.9005L2.17452 24.4803C2.1352 24.6769 2.0194 24.8498 1.8526 24.961L0.212616 22.501ZM-0.724586 23.9005C-0.839047 24.4728 -0.721473 25.0671 -0.397727 25.5527L2.06225 23.9127C2.17345 24.0795 2.21384 24.2837 2.17452 24.4803L-0.724586 23.9005ZM-0.397727 25.5527C-0.0739802 26.0383 0.429418 26.3755 1.00172 26.4899L1.58155 23.5908C1.77813 23.6301 1.95104 23.7459 2.06225 23.9127L-0.397727 25.5527ZM0.658163 26.376C4.45492 28.1767 8.58863 29.1568 12.7897 29.2524L12.8569 26.2967C9.07132 26.2105 5.34639 25.3274 1.92511 23.7047L0.658163 26.376ZM12.8008 29.2526C16.6047 29.3106 20.3409 28.2431 23.54 26.1843L21.9399 23.6981C19.2309 25.4416 16.067 26.3456 12.8458 26.2964L12.8008 29.2526ZM23.5607 26.1707C26.1934 24.4133 28.3505 22.0318 29.8395 19.2385L27.2305 17.8477C25.9709 20.2105 24.1463 22.2251 21.9192 23.7117L23.5607 26.1707ZM29.8395 19.2385C31.3286 16.4451 32.1034 13.3268 32.0949 10.1614L29.1384 10.1693C29.1456 12.847 28.4901 15.4848 27.2305 17.8477L29.8395 19.2385ZM32.0949 10.1654V8.93286H29.1384V10.1654H32.0949ZM32.0948 8.94529C32.0939 9.05709 32.0686 9.16736 32.0208 9.26841L29.3488 8.00277C29.2129 8.28976 29.1411 8.60291 29.1384 8.92044L32.0948 8.94529ZM32.0208 9.26841C31.9729 9.36947 31.9036 9.45888 31.8177 9.53043L29.9256 7.25863C29.6816 7.46184 29.4848 7.71577 29.3488 8.00277L32.0208 9.26841ZM31.8194 9.52903L34.1427 7.58819L32.2472 5.3192L29.9239 7.26003L31.8194 9.52903Z" fill="#6E26DB" mask="url(#path-1-inside-1)"/>
<path d="M33.195 6.4537L32.25 5.31686L32.2472 5.3192L33.195 6.4537ZM32.9116 5.2212L32.5488 6.65428L32.558 6.65654L32.9116 5.2212ZM31.7925 4.93786L32.1553 3.50481L32.1515 3.50386L31.7925 4.93786ZM31.325 3.9462L29.9998 3.29106L29.995 3.30081L29.9903 3.31064L31.325 3.9462ZM31.9483 2.68536L33.2735 3.3405L33.2767 3.33386L33.28 3.32718L31.9483 2.68536ZM31.1266 1.6937L30.7435 0.265946L30.7358 0.268024L30.728 0.270186L31.1266 1.6937ZM28.2933 2.48703L27.8947 1.06352L27.887 1.06567L27.8794 1.0679L28.2933 2.48703ZM27.67 2.3737L26.783 3.55631L27.67 2.3737ZM23.42 0.957031V-0.52123V0.957031ZM16.3366 8.04037H14.8584H16.3366ZM16.3366 8.55036H14.8583L14.8584 8.56104L16.3366 8.55036ZM16.025 8.90453L16.1974 10.3727L16.2023 10.3721L16.025 8.90453ZM4.12497 2.61453L5.24119 1.64536L5.23077 1.63335L5.22008 1.62157L4.12497 2.61453ZM3.40247 2.40203L3.01932 0.974286L2.89863 1.00668L2.78508 1.05887L3.40247 2.40203ZM2.99163 2.99703L4.42795 3.34669L4.45776 3.22421L4.46641 3.09846L2.99163 2.99703ZM3.6433 9.96703L2.2967 10.5769L2.30968 10.6055L2.32387 10.6336L3.6433 9.96703ZM3.27497 10.477L2.99004 11.9276L3.02339 11.9341L3.05701 11.9391L3.27497 10.477ZM1.6883 10.1654L1.97323 8.71482L1.94817 8.7099L1.92296 8.70585L1.6883 10.1654ZM0.880801 11.0012L2.3498 10.8359L2.34303 10.7758L2.33136 10.7164L0.880801 11.0012ZM4.2383 16.3562L3.44959 17.6065L3.51953 17.6506L3.59394 17.6866L4.2383 16.3562ZM4.2383 16.9937L4.78284 18.368L4.83356 18.3479L4.88266 18.3241L4.2383 16.9937ZM3.48747 17.2912L2.94292 15.9169L2.93739 15.9191L3.48747 17.2912ZM3.11913 18.2687L4.46364 17.6542L4.45131 17.6273L4.43791 17.6008L3.11913 18.2687ZM7.65247 21.782L8.15681 20.3925L8.03724 20.3491L7.91201 20.3267L7.65247 21.782ZM7.65247 22.4479L7.14812 21.0583L7.11754 21.0694L7.08748 21.0818L7.65247 22.4479ZM1.57497 23.6237L1.28506 25.0733L1.42132 25.1005L1.56027 25.1019L1.57497 23.6237ZM1.29163 25.0404L1.92511 23.7047L1.76035 23.6266L1.58155 23.5908L1.29163 25.0404ZM12.8233 27.7745L12.7897 29.2525L12.8008 29.2526L12.8233 27.7745ZM22.74 24.9412L23.54 26.1843L23.5504 26.1776L23.5607 26.1707L22.74 24.9412ZM30.6166 10.1654H29.1384L29.1384 10.1693L30.6166 10.1654ZM30.6166 8.93286L29.1384 8.92044V8.93286H30.6166ZM30.8716 8.39453L31.8177 9.53043L31.8194 9.52903L30.8716 8.39453ZM34.1399 7.59053C34.4511 7.33188 34.6844 6.99195 34.8138 6.60858L32.0127 5.66262C32.0583 5.52763 32.1405 5.40794 32.25 5.31687L34.1399 7.59053ZM34.8138 6.60858C34.9433 6.22521 34.9639 5.81344 34.8732 5.41908L31.9918 6.08146C31.9599 5.94261 31.9671 5.79761 32.0127 5.66262L34.8138 6.60858ZM34.8732 5.41908C34.7825 5.02471 34.5842 4.66325 34.3004 4.37491L32.1935 6.44913C32.0936 6.34761 32.0238 6.22033 31.9918 6.08146L34.8732 5.41908ZM34.3004 4.37491C34.0165 4.08657 33.6582 3.88265 33.2652 3.78585L32.558 6.65654C32.4197 6.62246 32.2935 6.55065 32.1935 6.44913L34.3004 4.37491ZM33.2744 3.78815L32.1553 3.50481L31.4297 6.37091L32.5488 6.65425L33.2744 3.78815ZM32.1515 3.50386C32.2621 3.53155 32.3652 3.58346 32.4533 3.65585L30.5764 5.94021C30.8266 6.14579 31.1193 6.29323 31.4335 6.37187L32.1515 3.50386ZM32.4533 3.65585C32.5414 3.72824 32.6123 3.81929 32.6609 3.92243L29.9867 5.18314C30.1247 5.47605 30.3262 5.73464 30.5764 5.94021L32.4533 3.65585ZM32.6609 3.92243C32.7095 4.02556 32.7346 4.13821 32.7344 4.25224L29.7779 4.24648C29.7773 4.57031 29.8486 4.89024 29.9867 5.18314L32.6609 3.92243ZM32.7344 4.25224C32.7342 4.36627 32.7086 4.47882 32.6596 4.58176L29.9903 3.31064C29.8511 3.603 29.7785 3.92264 29.7779 4.24648L32.7344 4.25224ZM32.6501 4.60133L33.2735 3.3405L30.6231 2.03023L29.9998 3.29106L32.6501 4.60133ZM33.28 3.32718C33.4617 2.95002 33.5314 2.52861 33.4807 2.11302L30.5459 2.47107C30.5281 2.32474 30.5526 2.17635 30.6166 2.04355L33.28 3.32718ZM33.4807 2.11302C33.43 1.69742 33.261 1.30512 32.9939 0.982743L30.7173 2.86906C30.6233 2.75555 30.5638 2.61742 30.5459 2.47107L33.4807 2.11302ZM32.9939 0.982743C32.7268 0.660353 32.3727 0.421433 31.9738 0.294369L31.0765 3.11144C30.9361 3.0667 30.8114 2.98258 30.7173 2.86906L32.9939 0.982743ZM31.9738 0.294369C31.5749 0.167305 31.1479 0.157439 30.7435 0.265946L31.5098 3.12145C31.3674 3.15966 31.217 3.15618 31.0765 3.11144L31.9738 0.294369ZM30.728 0.270186L27.8947 1.06352L28.6919 3.91054L31.5252 3.11721L30.728 0.270186ZM27.8794 1.0679C27.9941 1.03443 28.1151 1.02814 28.2327 1.04952L27.7038 3.95836C28.0378 4.01908 28.3813 4.00121 28.7072 3.90616L27.8794 1.0679ZM28.2327 1.04952C28.3503 1.0709 28.4613 1.11937 28.5569 1.19109L26.783 3.55631C27.0546 3.75998 27.3698 3.89763 27.7038 3.95836L28.2327 1.04952ZM28.5569 1.19109C27.0749 0.0796047 25.2724 -0.52123 23.42 -0.52123V2.43529C24.6327 2.43529 25.8128 2.82864 26.783 3.55631L28.5569 1.19109ZM23.42 -0.52123C21.1493 -0.52123 18.9716 0.380793 17.366 1.9864L19.4566 4.07698C20.5077 3.02582 21.9334 2.43529 23.42 2.43529V-0.52123ZM17.366 1.9864C15.7604 3.59201 14.8584 5.76969 14.8584 8.04037H17.8149C17.8149 6.55381 18.4054 5.12814 19.4566 4.07698L17.366 1.9864ZM14.8584 8.04037V8.55036H17.8149V8.04037H14.8584ZM14.8584 8.56104C14.8564 8.28489 14.9562 8.01765 15.1386 7.81032L17.3581 9.76348C17.6555 9.4255 17.8181 8.98987 17.8149 8.53969L14.8584 8.56104ZM15.1386 7.81032C15.3211 7.60298 15.5734 7.47008 15.8476 7.43695L16.2023 10.3721C16.6493 10.3181 17.0607 10.1015 17.3581 9.76348L15.1386 7.81032ZM15.8525 7.43636C12.5878 7.81976 9.21913 6.22685 5.24119 1.64536L3.00874 3.58371C7.24747 8.46555 11.5004 10.9243 16.1974 10.3727L15.8525 7.43636ZM5.22008 1.62157C4.94824 1.32175 4.59898 1.1027 4.21071 0.988508L3.37648 3.82489C3.24314 3.78568 3.1232 3.71045 3.02985 3.60749L5.22008 1.62157ZM4.21071 0.988508C3.82244 0.874312 3.41021 0.869391 3.01932 0.974286L3.78561 3.82978C3.65138 3.8658 3.50981 3.86411 3.37648 3.82489L4.21071 0.988508ZM2.78508 1.05887C2.42822 1.2229 2.12212 1.48003 1.89896 1.80323L4.33187 3.4831C4.25329 3.5969 4.14551 3.68744 4.01985 3.7452L2.78508 1.05887ZM1.89896 1.80323C1.67579 2.12643 1.5438 2.50377 1.51686 2.89561L4.46641 3.09846C4.45692 3.23642 4.41045 3.36929 4.33187 3.4831L1.89896 1.80323ZM1.55532 2.64737C0.909772 5.29915 1.17077 8.09073 2.2967 10.5769L4.9899 9.35718C4.13646 7.4727 3.93863 5.35671 4.42795 3.34669L1.55532 2.64737ZM2.32387 10.6336C2.23092 10.4497 2.19035 10.2437 2.20658 10.0382L5.15392 10.2711C5.18038 9.93611 5.11425 9.60033 4.96274 9.30044L2.32387 10.6336ZM2.20658 10.0382C2.22282 9.83273 2.29523 9.63568 2.41591 9.46859L4.8127 11.1996C5.00942 10.9272 5.12746 10.606 5.15392 10.2711L2.20658 10.0382ZM2.41591 9.46859C2.53658 9.3015 2.70087 9.1708 2.89083 9.09079L4.03851 11.8155C4.34816 11.685 4.61598 11.472 4.8127 11.1996L2.41591 9.46859ZM2.89083 9.09079C3.08078 9.01078 3.28907 8.98454 3.49292 9.01493L3.05701 11.9391C3.38933 11.9887 3.72887 11.9459 4.03851 11.8155L2.89083 9.09079ZM3.5599 9.02649L1.97323 8.71482L1.40337 11.6159L2.99004 11.9276L3.5599 9.02649ZM1.92296 8.70585C1.57512 8.64992 1.21893 8.67887 0.884686 8.79024L1.81923 11.5952C1.70154 11.6344 1.57612 11.6446 1.45364 11.6249L1.92296 8.70585ZM0.884686 8.79024C0.550454 8.9016 0.248071 9.09207 0.00328213 9.34544L2.12959 11.3997C2.04339 11.4889 1.93692 11.556 1.81923 11.5952L0.884686 8.79024ZM0.00328213 9.34544C-0.241502 9.59882 -0.421439 9.90759 -0.521212 10.2455L2.31427 11.0828C2.27914 11.2017 2.21578 11.3105 2.12959 11.3997L0.00328213 9.34544ZM-0.521212 10.2455C-0.620986 10.5833 -0.637641 10.9403 -0.569759 11.286L2.33136 10.7164C2.35526 10.8381 2.3494 10.9638 2.31427 11.0828L-0.521212 10.2455ZM-0.588192 11.1665C-0.441096 12.474 -0.00182074 13.7317 0.697118 14.8464L3.20201 13.2759C2.73858 12.5368 2.44733 11.7029 2.3498 10.8359L-0.588192 11.1665ZM0.697118 14.8464C1.39606 15.9612 2.33676 16.9045 3.44959 17.6065L5.02701 15.1059C4.28916 14.6405 3.66543 14.015 3.20201 13.2759L0.697118 14.8464ZM3.59394 17.6866C3.40389 17.5946 3.24361 17.4509 3.13146 17.2719L5.63657 15.7018C5.45375 15.4101 5.19247 15.1758 4.88266 15.0258L3.59394 17.6866ZM3.13146 17.2719C3.01931 17.093 2.95983 16.8861 2.95983 16.6749H5.91635C5.91635 16.3307 5.81938 15.9934 5.63657 15.7018L3.13146 17.2719ZM2.95983 16.6749C2.95983 16.4638 3.01931 16.2569 3.13146 16.078L5.63657 17.6481C5.81939 17.3565 5.91635 17.0192 5.91635 16.6749H2.95983ZM3.13146 16.078C3.24361 15.899 3.40389 15.7553 3.59394 15.6633L4.88266 18.3241C5.19247 18.1741 5.45375 17.9398 5.63657 17.6481L3.13146 16.078ZM3.69376 15.6194L2.94293 15.9169L4.03201 18.6655L4.78284 18.368L3.69376 15.6194ZM2.93739 15.9191C2.65592 16.0319 2.40099 16.2021 2.1888 16.4188L4.30114 18.4874C4.22642 18.5637 4.13665 18.6236 4.03755 18.6633L2.93739 15.9191ZM2.1888 16.4188C1.97662 16.6354 1.81183 16.8939 1.7049 17.1777L4.47152 18.2201C4.43387 18.3201 4.37585 18.4111 4.30114 18.4874L2.1888 16.4188ZM1.7049 17.1777C1.59796 17.4614 1.55123 17.7644 1.56767 18.0672L4.51984 17.9069C4.52563 18.0136 4.50918 18.1202 4.47152 18.2201L1.7049 17.1777ZM1.56767 18.0672C1.5841 18.37 1.66335 18.6661 1.80036 18.9366L4.43791 17.6008C4.48615 17.6961 4.51406 17.8003 4.51984 17.9069L1.56767 18.0672ZM1.77463 18.8832C2.28921 20.0091 3.06921 20.9935 4.04775 21.7519L5.85883 19.415C5.25823 18.9495 4.77948 18.3454 4.46364 17.6542L1.77463 18.8832ZM4.04775 21.7519C5.02628 22.5103 6.17415 23.02 7.39292 23.2373L7.91201 20.3267C7.16396 20.1933 6.45943 19.8805 5.85883 19.415L4.04775 21.7519ZM7.14812 23.1716C6.93113 23.0928 6.74363 22.9492 6.61112 22.7601L9.0322 21.0632C8.8162 20.755 8.51055 20.5209 8.15681 20.3925L7.14812 23.1716ZM6.61112 22.7601C6.47862 22.5711 6.40754 22.3458 6.40754 22.115H9.36406C9.36406 21.7386 9.2482 21.3714 9.0322 21.0632L6.61112 22.7601ZM6.40754 22.115C6.40754 21.8841 6.47862 21.6588 6.61112 21.4698L9.0322 23.1667C9.24819 22.8585 9.36406 22.4913 9.36406 22.115H6.40754ZM6.61112 21.4698C6.74363 21.2807 6.93113 21.1371 7.14812 21.0583L8.15681 23.8374C8.51055 23.709 8.8162 23.4749 9.0322 23.1667L6.61112 21.4698ZM7.08748 21.0818C5.34505 21.8025 3.47516 22.1643 1.58967 22.1455L1.56027 25.1019C3.84336 25.1246 6.10758 24.6865 8.21745 23.8139L7.08748 21.0818ZM1.86488 22.1741C1.29256 22.0597 0.698228 22.1773 0.212616 22.501L1.8526 24.961C1.6858 25.0722 1.48165 25.1126 1.28506 25.0733L1.86488 22.1741ZM0.212616 22.501C-0.272998 22.8247 -0.610123 23.3281 -0.724586 23.9005L2.17452 24.4803C2.1352 24.6769 2.0194 24.8498 1.8526 24.961L0.212616 22.501ZM-0.724586 23.9005C-0.839047 24.4728 -0.721473 25.0671 -0.397727 25.5527L2.06225 23.9127C2.17345 24.0795 2.21384 24.2837 2.17452 24.4803L-0.724586 23.9005ZM-0.397727 25.5527C-0.0739802 26.0383 0.429418 26.3755 1.00172 26.4899L1.58155 23.5908C1.77813 23.6301 1.95104 23.7459 2.06225 23.9127L-0.397727 25.5527ZM0.658163 26.376C4.45492 28.1767 8.58863 29.1568 12.7897 29.2524L12.8569 26.2967C9.07132 26.2105 5.34639 25.3274 1.92511 23.7047L0.658163 26.376ZM12.8008 29.2526C16.6047 29.3106 20.3409 28.2431 23.54 26.1843L21.9399 23.6981C19.2309 25.4416 16.067 26.3456 12.8458 26.2964L12.8008 29.2526ZM23.5607 26.1707C26.1934 24.4133 28.3505 22.0318 29.8395 19.2385L27.2305 17.8477C25.9709 20.2105 24.1463 22.2251 21.9192 23.7117L23.5607 26.1707ZM29.8395 19.2385C31.3286 16.4451 32.1034 13.3268 32.0949 10.1614L29.1384 10.1693C29.1456 12.847 28.4901 15.4848 27.2305 17.8477L29.8395 19.2385ZM32.0949 10.1654V8.93286H29.1384V10.1654H32.0949ZM32.0948 8.94529C32.0939 9.05709 32.0686 9.16736 32.0208 9.26841L29.3488 8.00277C29.2129 8.28976 29.1411 8.60291 29.1384 8.92044L32.0948 8.94529ZM32.0208 9.26841C31.9729 9.36947 31.9036 9.45888 31.8177 9.53043L29.9256 7.25863C29.6816 7.46184 29.4848 7.71577 29.3488 8.00277L32.0208 9.26841ZM31.8194 9.52903L34.1427 7.58819L32.2472 5.3192L29.9239 7.26003L31.8194 9.52903Z" fill="url(#paint2_linear)" fill-opacity="0.25" mask="url(#path-1-inside-1)"/>
<path d="M33.195 6.4537L32.25 5.31686L32.2472 5.3192L33.195 6.4537ZM32.9116 5.2212L32.5488 6.65428L32.558 6.65654L32.9116 5.2212ZM31.7925 4.93786L32.1553 3.50481L32.1515 3.50386L31.7925 4.93786ZM31.325 3.9462L29.9998 3.29106L29.995 3.30081L29.9903 3.31064L31.325 3.9462ZM31.9483 2.68536L33.2735 3.3405L33.2767 3.33386L33.28 3.32718L31.9483 2.68536ZM31.1266 1.6937L30.7435 0.265946L30.7358 0.268024L30.728 0.270186L31.1266 1.6937ZM28.2933 2.48703L27.8947 1.06352L27.887 1.06567L27.8794 1.0679L28.2933 2.48703ZM27.67 2.3737L26.783 3.55631L27.67 2.3737ZM23.42 0.957031V-0.52123V0.957031ZM16.3366 8.04037H14.8584H16.3366ZM16.3366 8.55036H14.8583L14.8584 8.56104L16.3366 8.55036ZM16.025 8.90453L16.1974 10.3727L16.2023 10.3721L16.025 8.90453ZM4.12497 2.61453L5.24119 1.64536L5.23077 1.63335L5.22008 1.62157L4.12497 2.61453ZM3.40247 2.40203L3.01932 0.974286L2.89863 1.00668L2.78508 1.05887L3.40247 2.40203ZM2.99163 2.99703L4.42795 3.34669L4.45776 3.22421L4.46641 3.09846L2.99163 2.99703ZM3.6433 9.96703L2.2967 10.5769L2.30968 10.6055L2.32387 10.6336L3.6433 9.96703ZM3.27497 10.477L2.99004 11.9276L3.02339 11.9341L3.05701 11.9391L3.27497 10.477ZM1.6883 10.1654L1.97323 8.71482L1.94817 8.7099L1.92296 8.70585L1.6883 10.1654ZM0.880801 11.0012L2.3498 10.8359L2.34303 10.7758L2.33136 10.7164L0.880801 11.0012ZM4.2383 16.3562L3.44959 17.6065L3.51953 17.6506L3.59394 17.6866L4.2383 16.3562ZM4.2383 16.9937L4.78284 18.368L4.83356 18.3479L4.88266 18.3241L4.2383 16.9937ZM3.48747 17.2912L2.94292 15.9169L2.93739 15.9191L3.48747 17.2912ZM3.11913 18.2687L4.46364 17.6542L4.45131 17.6273L4.43791 17.6008L3.11913 18.2687ZM7.65247 21.782L8.15681 20.3925L8.03724 20.3491L7.91201 20.3267L7.65247 21.782ZM7.65247 22.4479L7.14812 21.0583L7.11754 21.0694L7.08748 21.0818L7.65247 22.4479ZM1.57497 23.6237L1.28506 25.0733L1.42132 25.1005L1.56027 25.1019L1.57497 23.6237ZM1.29163 25.0404L1.92511 23.7047L1.76035 23.6266L1.58155 23.5908L1.29163 25.0404ZM12.8233 27.7745L12.7897 29.2525L12.8008 29.2526L12.8233 27.7745ZM22.74 24.9412L23.54 26.1843L23.5504 26.1776L23.5607 26.1707L22.74 24.9412ZM30.6166 10.1654H29.1384L29.1384 10.1693L30.6166 10.1654ZM30.6166 8.93286L29.1384 8.92044V8.93286H30.6166ZM30.8716 8.39453L31.8177 9.53043L31.8194 9.52903L30.8716 8.39453ZM34.1399 7.59053C34.4511 7.33188 34.6844 6.99195 34.8138 6.60858L32.0127 5.66262C32.0583 5.52763 32.1405 5.40794 32.25 5.31687L34.1399 7.59053ZM34.8138 6.60858C34.9433 6.22521 34.9639 5.81344 34.8732 5.41908L31.9918 6.08146C31.9599 5.94261 31.9671 5.79761 32.0127 5.66262L34.8138 6.60858ZM34.8732 5.41908C34.7825 5.02471 34.5842 4.66325 34.3004 4.37491L32.1935 6.44913C32.0936 6.34761 32.0238 6.22033 31.9918 6.08146L34.8732 5.41908ZM34.3004 4.37491C34.0165 4.08657 33.6582 3.88265 33.2652 3.78585L32.558 6.65654C32.4197 6.62246 32.2935 6.55065 32.1935 6.44913L34.3004 4.37491ZM33.2744 3.78815L32.1553 3.50481L31.4297 6.37091L32.5488 6.65425L33.2744 3.78815ZM32.1515 3.50386C32.2621 3.53155 32.3652 3.58346 32.4533 3.65585L30.5764 5.94021C30.8266 6.14579 31.1193 6.29323 31.4335 6.37187L32.1515 3.50386ZM32.4533 3.65585C32.5414 3.72824 32.6123 3.81929 32.6609 3.92243L29.9867 5.18314C30.1247 5.47605 30.3262 5.73464 30.5764 5.94021L32.4533 3.65585ZM32.6609 3.92243C32.7095 4.02556 32.7346 4.13821 32.7344 4.25224L29.7779 4.24648C29.7773 4.57031 29.8486 4.89024 29.9867 5.18314L32.6609 3.92243ZM32.7344 4.25224C32.7342 4.36627 32.7086 4.47882 32.6596 4.58176L29.9903 3.31064C29.8511 3.603 29.7785 3.92264 29.7779 4.24648L32.7344 4.25224ZM32.6501 4.60133L33.2735 3.3405L30.6231 2.03023L29.9998 3.29106L32.6501 4.60133ZM33.28 3.32718C33.4617 2.95002 33.5314 2.52861 33.4807 2.11302L30.5459 2.47107C30.5281 2.32474 30.5526 2.17635 30.6166 2.04355L33.28 3.32718ZM33.4807 2.11302C33.43 1.69742 33.261 1.30512 32.9939 0.982743L30.7173 2.86906C30.6233 2.75555 30.5638 2.61742 30.5459 2.47107L33.4807 2.11302ZM32.9939 0.982743C32.7268 0.660353 32.3727 0.421433 31.9738 0.294369L31.0765 3.11144C30.9361 3.0667 30.8114 2.98258 30.7173 2.86906L32.9939 0.982743ZM31.9738 0.294369C31.5749 0.167305 31.1479 0.157439 30.7435 0.265946L31.5098 3.12145C31.3674 3.15966 31.217 3.15618 31.0765 3.11144L31.9738 0.294369ZM30.728 0.270186L27.8947 1.06352L28.6919 3.91054L31.5252 3.11721L30.728 0.270186ZM27.8794 1.0679C27.9941 1.03443 28.1151 1.02814 28.2327 1.04952L27.7038 3.95836C28.0378 4.01908 28.3813 4.00121 28.7072 3.90616L27.8794 1.0679ZM28.2327 1.04952C28.3503 1.0709 28.4613 1.11937 28.5569 1.19109L26.783 3.55631C27.0546 3.75998 27.3698 3.89763 27.7038 3.95836L28.2327 1.04952ZM28.5569 1.19109C27.0749 0.0796047 25.2724 -0.52123 23.42 -0.52123V2.43529C24.6327 2.43529 25.8128 2.82864 26.783 3.55631L28.5569 1.19109ZM23.42 -0.52123C21.1493 -0.52123 18.9716 0.380793 17.366 1.9864L19.4566 4.07698C20.5077 3.02582 21.9334 2.43529 23.42 2.43529V-0.52123ZM17.366 1.9864C15.7604 3.59201 14.8584 5.76969 14.8584 8.04037H17.8149C17.8149 6.55381 18.4054 5.12814 19.4566 4.07698L17.366 1.9864ZM14.8584 8.04037V8.55036H17.8149V8.04037H14.8584ZM14.8584 8.56104C14.8564 8.28489 14.9562 8.01765 15.1386 7.81032L17.3581 9.76348C17.6555 9.4255 17.8181 8.98987 17.8149 8.53969L14.8584 8.56104ZM15.1386 7.81032C15.3211 7.60298 15.5734 7.47008 15.8476 7.43695L16.2023 10.3721C16.6493 10.3181 17.0607 10.1015 17.3581 9.76348L15.1386 7.81032ZM15.8525 7.43636C12.5878 7.81976 9.21913 6.22685 5.24119 1.64536L3.00874 3.58371C7.24747 8.46555 11.5004 10.9243 16.1974 10.3727L15.8525 7.43636ZM5.22008 1.62157C4.94824 1.32175 4.59898 1.1027 4.21071 0.988508L3.37648 3.82489C3.24314 3.78568 3.1232 3.71045 3.02985 3.60749L5.22008 1.62157ZM4.21071 0.988508C3.82244 0.874312 3.41021 0.869391 3.01932 0.974286L3.78561 3.82978C3.65138 3.8658 3.50981 3.86411 3.37648 3.82489L4.21071 0.988508ZM2.78508 1.05887C2.42822 1.2229 2.12212 1.48003 1.89896 1.80323L4.33187 3.4831C4.25329 3.5969 4.14551 3.68744 4.01985 3.7452L2.78508 1.05887ZM1.89896 1.80323C1.67579 2.12643 1.5438 2.50377 1.51686 2.89561L4.46641 3.09846C4.45692 3.23642 4.41045 3.36929 4.33187 3.4831L1.89896 1.80323ZM1.55532 2.64737C0.909772 5.29915 1.17077 8.09073 2.2967 10.5769L4.9899 9.35718C4.13646 7.4727 3.93863 5.35671 4.42795 3.34669L1.55532 2.64737ZM2.32387 10.6336C2.23092 10.4497 2.19035 10.2437 2.20658 10.0382L5.15392 10.2711C5.18038 9.93611 5.11425 9.60033 4.96274 9.30044L2.32387 10.6336ZM2.20658 10.0382C2.22282 9.83273 2.29523 9.63568 2.41591 9.46859L4.8127 11.1996C5.00942 10.9272 5.12746 10.606 5.15392 10.2711L2.20658 10.0382ZM2.41591 9.46859C2.53658 9.3015 2.70087 9.1708 2.89083 9.09079L4.03851 11.8155C4.34816 11.685 4.61598 11.472 4.8127 11.1996L2.41591 9.46859ZM2.89083 9.09079C3.08078 9.01078 3.28907 8.98454 3.49292 9.01493L3.05701 11.9391C3.38933 11.9887 3.72887 11.9459 4.03851 11.8155L2.89083 9.09079ZM3.5599 9.02649L1.97323 8.71482L1.40337 11.6159L2.99004 11.9276L3.5599 9.02649ZM1.92296 8.70585C1.57512 8.64992 1.21893 8.67887 0.884686 8.79024L1.81923 11.5952C1.70154 11.6344 1.57612 11.6446 1.45364 11.6249L1.92296 8.70585ZM0.884686 8.79024C0.550454 8.9016 0.248071 9.09207 0.00328213 9.34544L2.12959 11.3997C2.04339 11.4889 1.93692 11.556 1.81923 11.5952L0.884686 8.79024ZM0.00328213 9.34544C-0.241502 9.59882 -0.421439 9.90759 -0.521212 10.2455L2.31427 11.0828C2.27914 11.2017 2.21578 11.3105 2.12959 11.3997L0.00328213 9.34544ZM-0.521212 10.2455C-0.620986 10.5833 -0.637641 10.9403 -0.569759 11.286L2.33136 10.7164C2.35526 10.8381 2.3494 10.9638 2.31427 11.0828L-0.521212 10.2455ZM-0.588192 11.1665C-0.441096 12.474 -0.00182074 13.7317 0.697118 14.8464L3.20201 13.2759C2.73858 12.5368 2.44733 11.7029 2.3498 10.8359L-0.588192 11.1665ZM0.697118 14.8464C1.39606 15.9612 2.33676 16.9045 3.44959 17.6065L5.02701 15.1059C4.28916 14.6405 3.66543 14.015 3.20201 13.2759L0.697118 14.8464ZM3.59394 17.6866C3.40389 17.5946 3.24361 17.4509 3.13146 17.2719L5.63657 15.7018C5.45375 15.4101 5.19247 15.1758 4.88266 15.0258L3.59394 17.6866ZM3.13146 17.2719C3.01931 17.093 2.95983 16.8861 2.95983 16.6749H5.91635C5.91635 16.3307 5.81938 15.9934 5.63657 15.7018L3.13146 17.2719ZM2.95983 16.6749C2.95983 16.4638 3.01931 16.2569 3.13146 16.078L5.63657 17.6481C5.81939 17.3565 5.91635 17.0192 5.91635 16.6749H2.95983ZM3.13146 16.078C3.24361 15.899 3.40389 15.7553 3.59394 15.6633L4.88266 18.3241C5.19247 18.1741 5.45375 17.9398 5.63657 17.6481L3.13146 16.078ZM3.69376 15.6194L2.94293 15.9169L4.03201 18.6655L4.78284 18.368L3.69376 15.6194ZM2.93739 15.9191C2.65592 16.0319 2.40099 16.2021 2.1888 16.4188L4.30114 18.4874C4.22642 18.5637 4.13665 18.6236 4.03755 18.6633L2.93739 15.9191ZM2.1888 16.4188C1.97662 16.6354 1.81183 16.8939 1.7049 17.1777L4.47152 18.2201C4.43387 18.3201 4.37585 18.4111 4.30114 18.4874L2.1888 16.4188ZM1.7049 17.1777C1.59796 17.4614 1.55123 17.7644 1.56767 18.0672L4.51984 17.9069C4.52563 18.0136 4.50918 18.1202 4.47152 18.2201L1.7049 17.1777ZM1.56767 18.0672C1.5841 18.37 1.66335 18.6661 1.80036 18.9366L4.43791 17.6008C4.48615 17.6961 4.51406 17.8003 4.51984 17.9069L1.56767 18.0672ZM1.77463 18.8832C2.28921 20.0091 3.06921 20.9935 4.04775 21.7519L5.85883 19.415C5.25823 18.9495 4.77948 18.3454 4.46364 17.6542L1.77463 18.8832ZM4.04775 21.7519C5.02628 22.5103 6.17415 23.02 7.39292 23.2373L7.91201 20.3267C7.16396 20.1933 6.45943 19.8805 5.85883 19.415L4.04775 21.7519ZM7.14812 23.1716C6.93113 23.0928 6.74363 22.9492 6.61112 22.7601L9.0322 21.0632C8.8162 20.755 8.51055 20.5209 8.15681 20.3925L7.14812 23.1716ZM6.61112 22.7601C6.47862 22.5711 6.40754 22.3458 6.40754 22.115H9.36406C9.36406 21.7386 9.2482 21.3714 9.0322 21.0632L6.61112 22.7601ZM6.40754 22.115C6.40754 21.8841 6.47862 21.6588 6.61112 21.4698L9.0322 23.1667C9.24819 22.8585 9.36406 22.4913 9.36406 22.115H6.40754ZM6.61112 21.4698C6.74363 21.2807 6.93113 21.1371 7.14812 21.0583L8.15681 23.8374C8.51055 23.709 8.8162 23.4749 9.0322 23.1667L6.61112 21.4698ZM7.08748 21.0818C5.34505 21.8025 3.47516 22.1643 1.58967 22.1455L1.56027 25.1019C3.84336 25.1246 6.10758 24.6865 8.21745 23.8139L7.08748 21.0818ZM1.86488 22.1741C1.29256 22.0597 0.698228 22.1773 0.212616 22.501L1.8526 24.961C1.6858 25.0722 1.48165 25.1126 1.28506 25.0733L1.86488 22.1741ZM0.212616 22.501C-0.272998 22.8247 -0.610123 23.3281 -0.724586 23.9005L2.17452 24.4803C2.1352 24.6769 2.0194 24.8498 1.8526 24.961L0.212616 22.501ZM-0.724586 23.9005C-0.839047 24.4728 -0.721473 25.0671 -0.397727 25.5527L2.06225 23.9127C2.17345 24.0795 2.21384 24.2837 2.17452 24.4803L-0.724586 23.9005ZM-0.397727 25.5527C-0.0739802 26.0383 0.429418 26.3755 1.00172 26.4899L1.58155 23.5908C1.77813 23.6301 1.95104 23.7459 2.06225 23.9127L-0.397727 25.5527ZM0.658163 26.376C4.45492 28.1767 8.58863 29.1568 12.7897 29.2524L12.8569 26.2967C9.07132 26.2105 5.34639 25.3274 1.92511 23.7047L0.658163 26.376ZM12.8008 29.2526C16.6047 29.3106 20.3409 28.2431 23.54 26.1843L21.9399 23.6981C19.2309 25.4416 16.067 26.3456 12.8458 26.2964L12.8008 29.2526ZM23.5607 26.1707C26.1934 24.4133 28.3505 22.0318 29.8395 19.2385L27.2305 17.8477C25.9709 20.2105 24.1463 22.2251 21.9192 23.7117L23.5607 26.1707ZM29.8395 19.2385C31.3286 16.4451 32.1034 13.3268 32.0949 10.1614L29.1384 10.1693C29.1456 12.847 28.4901 15.4848 27.2305 17.8477L29.8395 19.2385ZM32.0949 10.1654V8.93286H29.1384V10.1654H32.0949ZM32.0948 8.94529C32.0939 9.05709 32.0686 9.16736 32.0208 9.26841L29.3488 8.00277C29.2129 8.28976 29.1411 8.60291 29.1384 8.92044L32.0948 8.94529ZM32.0208 9.26841C31.9729 9.36947 31.9036 9.45888 31.8177 9.53043L29.9256 7.25863C29.6816 7.46184 29.4848 7.71577 29.3488 8.00277L32.0208 9.26841ZM31.8194 9.52903L34.1427 7.58819L32.2472 5.3192L29.9239 7.26003L31.8194 9.52903Z" fill="url(#paint3_linear)" fill-opacity="0.25" mask="url(#path-1-inside-1)"/>
<defs>
<linearGradient id="paint0_linear" x1="34.5418" y1="0.957034" x2="-2.18969" y2="9.91373" gradientUnits="userSpaceOnUse">
<stop stop-color="#117CB6"/>
<stop offset="1" stop-color="#117CB6" stop-opacity="0"/>
</linearGradient>
<linearGradient id="paint1_linear" x1="5.80376" y1="-19.8281" x2="44.9006" y2="0.0580375" gradientUnits="userSpaceOnUse">
<stop stop-color="#FF5B7E"/>
<stop offset="1" stop-color="#FF5B7E" stop-opacity="0"/>
</linearGradient>
<linearGradient id="paint2_linear" x1="34.5418" y1="0.957034" x2="-2.18969" y2="9.91373" gradientUnits="userSpaceOnUse">
<stop stop-color="#117CB6"/>
<stop offset="1" stop-color="#117CB6" stop-opacity="0"/>
</linearGradient>
<linearGradient id="paint3_linear" x1="5.80376" y1="-19.8281" x2="44.9006" y2="0.0580375" gradientUnits="userSpaceOnUse">
<stop stop-color="#FF5B7E"/>
<stop offset="1" stop-color="#FF5B7E" stop-opacity="0"/>
</linearGradient>
</defs>
</svg>
