<svg width="34" height="34" viewBox="0 0 34 34" fill="none" xmlns="http://www.w3.org/2000/svg">
<path d="M29.7678 25.3688L29.7998 25.3623L32.8416 24.7455C32.9395 24.7138 33.0264 24.6544 33.0916 24.5744C33.1614 24.4888 33.203 24.3838 33.2108 24.2737C33.2187 24.1636 33.1923 24.0538 33.1353 23.9592C33.0783 23.8646 32.9935 23.79 32.8925 23.7455L32.88 23.7399L32.8801 23.7398C31.3296 23.0214 29.8601 22.1398 28.4965 21.1098M29.7678 25.3688L28.9408 20.5192M29.7678 25.3688L29.7365 25.378M29.7678 25.3688L29.7365 25.378M28.4965 21.1098C28.4961 21.1095 28.4957 21.1092 28.4953 21.1089L28.9408 20.5192M28.4965 21.1098C28.4969 21.1102 28.4974 21.1105 28.4978 21.1108L28.9408 20.5192M28.4965 21.1098C28.1338 20.838 27.8428 20.482 27.6485 20.0726L28.3162 19.7556M28.9408 20.5192C28.6737 20.3192 28.4593 20.0571 28.3162 19.7556M28.3162 19.7556L27.6484 20.0726C27.4539 19.6626 27.3621 19.2114 27.3811 18.758C27.4 18.3046 27.5292 17.8627 27.7573 17.4704C27.9854 17.0783 28.3055 16.7477 28.6899 16.5071M28.3162 19.7556L28.6899 16.5071M28.6899 16.5071C28.6901 16.5069 28.6903 16.5068 28.6905 16.5067L30.5566 15.3333C30.557 15.3331 30.5573 15.3329 30.5577 15.3326C30.8537 15.1445 31.063 14.8466 31.1397 14.5043C31.2164 14.1616 31.1538 13.8024 30.9658 13.5058C30.7777 13.2092 30.4795 12.9995 30.1368 12.9228C29.7942 12.8461 29.4353 12.9085 29.1388 13.0964C29.1386 13.0965 29.1385 13.0966 29.1383 13.0967L27.9404 13.8577C27.7517 13.9817 27.5329 14.0521 27.3072 14.0616C27.0779 14.0713 26.8505 14.0176 26.6498 13.9065L27.0077 13.2598L26.6498 13.9065C26.449 13.7953 26.2828 13.6311 26.1693 13.4317L26.8116 13.066L26.1693 13.4317C26.0579 13.2362 26.0015 13.0144 26.0058 12.7896V8.9314C25.9162 6.73112 24.98 4.65029 23.3925 3.12363C21.8016 1.59369 19.6801 0.73913 17.4729 0.73913C15.2657 0.73913 13.1442 1.59369 11.5533 3.12363C9.96578 4.65029 9.0296 6.73112 8.93993 8.93141V12.7756C8.94423 13.0003 8.88782 13.2221 8.77651 13.4175M28.6899 16.5071L8.77651 13.4175M8.77651 13.4175C8.66298 13.6169 8.49673 13.7812 8.29601 13.8923L7.93803 13.2456L8.296 13.8923C8.09528 14.0034 7.86783 14.0571 7.63859 14.0475C7.41291 14.038 7.19409 13.9675 7.00538 13.8436L5.80747 13.0825C5.80735 13.0825 5.80723 13.0824 5.80711 13.0823C5.51059 12.8944 5.15158 12.8319 4.809 12.9086C4.46629 12.9854 4.16809 13.1951 3.98001 13.4917C3.79192 13.7883 3.72936 14.1474 3.80609 14.4901C3.88273 14.8324 4.09204 15.1303 4.38806 15.3185C4.38842 15.3187 4.38878 15.3189 4.38914 15.3191L6.25531 16.4926C6.25559 16.4927 6.25588 16.4929 6.25616 16.4931C6.64049 16.7337 6.96047 17.0643 7.18844 17.4563C7.41659 17.8485 7.54574 18.2905 7.56471 18.7439C7.58368 19.1972 7.4919 19.6484 7.29732 20.0584C7.10297 20.4679 6.81189 20.8239 6.44922 21.0957C5.08566 22.1256 3.61618 23.0073 2.06569 23.7256L2.04548 23.735L2.02473 23.7431C1.92093 23.7838 1.83241 23.8559 1.7715 23.9493C1.71058 24.0426 1.68031 24.1527 1.6849 24.2641C1.68948 24.3755 1.7287 24.4827 1.79709 24.5707C1.86014 24.6519 1.94509 24.7131 2.04167 24.7473L5.04816 25.3625L5.07851 25.3688L5.10823 25.3775C5.60647 25.5238 6.02895 25.8569 6.28749 26.3072C6.54602 26.7576 6.62063 27.2904 6.49574 27.7944L6.4954 27.7958C6.44534 27.9962 6.44595 28.2059 6.49719 28.406C6.54842 28.6061 6.64866 28.7903 6.78887 28.9419C6.92908 29.0936 7.10484 29.208 7.30029 29.2748C7.49575 29.3415 7.70475 29.3586 7.90846 29.3244L7.91277 29.3237L8.87299 29.1684C8.87339 29.1683 8.87379 29.1682 8.87419 29.1682C9.6817 29.0342 10.5095 29.0948 11.2889 29.345C12.0687 29.5954 12.7774 30.0282 13.3562 30.6076L13.3778 30.6292L13.3975 30.6525C14.4257 31.8674 15.8622 32.663 17.4351 32.8911C19.0006 32.654 20.4275 31.8545 21.4474 30.6404L21.4679 30.616L21.4904 30.5935C22.0692 30.0141 22.7779 29.5812 23.5577 29.3309C24.337 29.0807 25.1649 29.02 25.9723 29.154C25.9728 29.1541 25.9732 29.1541 25.9736 29.1542L26.9338 29.3095L26.9382 29.3102C27.1418 29.3444 27.3509 29.3274 27.5463 29.2606L27.7852 29.96M8.77651 13.4175L27.7852 29.96M29.7365 25.378C29.2431 25.5243 28.8244 25.854 28.5664 26.2993C28.3083 26.7446 28.2306 27.2718 28.349 27.7726L28.349 27.7726L28.3512 27.7816C28.4013 27.982 28.4007 28.1917 28.3494 28.3918C28.2982 28.5919 28.1979 28.7761 28.0577 28.9278C27.9175 29.0794 27.7418 29.1938 27.5463 29.2606L27.7852 29.96M29.7365 25.378L27.7852 29.96M5.7783 27.6167C5.6985 27.9361 5.69948 28.2704 5.78116 28.5893C5.86283 28.9083 6.02262 29.2019 6.24612 29.4437C6.46961 29.6854 6.74979 29.8678 7.06136 29.9742C7.37293 30.0806 7.7061 30.1078 8.0308 30.0533L8.99414 29.8975C9.68596 29.7826 10.3952 29.8344 11.063 30.0488C11.7307 30.2632 12.3377 30.6338 12.8333 31.13C14.0017 32.5106 15.6438 33.4049 17.4375 33.6375C19.223 33.3945 20.8542 32.4956 22.0133 31.1158C22.5089 30.6197 23.1159 30.249 23.7836 30.0346C24.4514 29.8203 25.1606 29.7684 25.8525 29.8833L5.7783 27.6167ZM5.7783 27.6167C5.85737 27.2976 5.81014 26.9603 5.64648 26.6752C5.48282 26.3901 5.21537 26.1793 4.89997 26.0867L1.85414 25.4633C1.60004 25.3871 1.37604 25.2336 1.21333 25.0241C1.05062 24.8146 0.957306 24.5596 0.946392 24.2945C0.935479 24.0295 1.00751 23.7676 1.15244 23.5454L5.7783 27.6167Z" fill="#6E26DB" fill-opacity="0.1"/>
<path d="M29.7678 25.3688L29.7998 25.3623L32.8416 24.7455C32.9395 24.7138 33.0264 24.6544 33.0916 24.5744C33.1614 24.4888 33.203 24.3838 33.2108 24.2737C33.2187 24.1636 33.1923 24.0538 33.1353 23.9592C33.0783 23.8646 32.9935 23.79 32.8925 23.7455L32.88 23.7399L32.8801 23.7398C31.3296 23.0214 29.8601 22.1398 28.4965 21.1098M29.7678 25.3688L28.9408 20.5192M29.7678 25.3688L29.7365 25.378M29.7678 25.3688L29.7365 25.378M28.4965 21.1098C28.4961 21.1095 28.4957 21.1092 28.4953 21.1089L28.9408 20.5192M28.4965 21.1098C28.4969 21.1102 28.4974 21.1105 28.4978 21.1108L28.9408 20.5192M28.4965 21.1098C28.1338 20.838 27.8428 20.482 27.6485 20.0726L28.3162 19.7556M28.9408 20.5192C28.6737 20.3192 28.4593 20.0571 28.3162 19.7556M28.3162 19.7556L27.6484 20.0726C27.4539 19.6626 27.3621 19.2114 27.3811 18.758C27.4 18.3046 27.5292 17.8627 27.7573 17.4704C27.9854 17.0783 28.3055 16.7477 28.6899 16.5071M28.3162 19.7556L28.6899 16.5071M28.6899 16.5071C28.6901 16.5069 28.6903 16.5068 28.6905 16.5067L30.5566 15.3333C30.557 15.3331 30.5573 15.3329 30.5577 15.3326C30.8537 15.1445 31.063 14.8466 31.1397 14.5043C31.2164 14.1616 31.1538 13.8024 30.9658 13.5058C30.7777 13.2092 30.4795 12.9995 30.1368 12.9228C29.7942 12.8461 29.4353 12.9085 29.1388 13.0964C29.1386 13.0965 29.1385 13.0966 29.1383 13.0967L27.9404 13.8577C27.7517 13.9817 27.5329 14.0521 27.3072 14.0616C27.0779 14.0713 26.8505 14.0176 26.6498 13.9065L27.0077 13.2598L26.6498 13.9065C26.449 13.7953 26.2828 13.6311 26.1693 13.4317L26.8116 13.066L26.1693 13.4317C26.0579 13.2362 26.0015 13.0144 26.0058 12.7896V8.9314C25.9162 6.73112 24.98 4.65029 23.3925 3.12363C21.8016 1.59369 19.6801 0.73913 17.4729 0.73913C15.2657 0.73913 13.1442 1.59369 11.5533 3.12363C9.96578 4.65029 9.0296 6.73112 8.93993 8.93141V12.7756C8.94423 13.0003 8.88782 13.2221 8.77651 13.4175M28.6899 16.5071L8.77651 13.4175M8.77651 13.4175C8.66298 13.6169 8.49673 13.7812 8.29601 13.8923L7.93803 13.2456L8.296 13.8923C8.09528 14.0034 7.86783 14.0571 7.63859 14.0475C7.41291 14.038 7.19409 13.9675 7.00538 13.8436L5.80747 13.0825C5.80735 13.0825 5.80723 13.0824 5.80711 13.0823C5.51059 12.8944 5.15158 12.8319 4.809 12.9086C4.46629 12.9854 4.16809 13.1951 3.98001 13.4917C3.79192 13.7883 3.72936 14.1474 3.80609 14.4901C3.88273 14.8324 4.09204 15.1303 4.38806 15.3185C4.38842 15.3187 4.38878 15.3189 4.38914 15.3191L6.25531 16.4926C6.25559 16.4927 6.25588 16.4929 6.25616 16.4931C6.64049 16.7337 6.96047 17.0643 7.18844 17.4563C7.41659 17.8485 7.54574 18.2905 7.56471 18.7439C7.58368 19.1972 7.4919 19.6484 7.29732 20.0584C7.10297 20.4679 6.81189 20.8239 6.44922 21.0957C5.08566 22.1256 3.61618 23.0073 2.06569 23.7256L2.04548 23.735L2.02473 23.7431C1.92093 23.7838 1.83241 23.8559 1.7715 23.9493C1.71058 24.0426 1.68031 24.1527 1.6849 24.2641C1.68948 24.3755 1.7287 24.4827 1.79709 24.5707C1.86014 24.6519 1.94509 24.7131 2.04167 24.7473L5.04816 25.3625L5.07851 25.3688L5.10823 25.3775C5.60647 25.5238 6.02895 25.8569 6.28749 26.3072C6.54602 26.7576 6.62063 27.2904 6.49574 27.7944L6.4954 27.7958C6.44534 27.9962 6.44595 28.2059 6.49719 28.406C6.54842 28.6061 6.64866 28.7903 6.78887 28.9419C6.92908 29.0936 7.10484 29.208 7.30029 29.2748C7.49575 29.3415 7.70475 29.3586 7.90846 29.3244L7.91277 29.3237L8.87299 29.1684C8.87339 29.1683 8.87379 29.1682 8.87419 29.1682C9.6817 29.0342 10.5095 29.0948 11.2889 29.345C12.0687 29.5954 12.7774 30.0282 13.3562 30.6076L13.3778 30.6292L13.3975 30.6525C14.4257 31.8674 15.8622 32.663 17.4351 32.8911C19.0006 32.654 20.4275 31.8545 21.4474 30.6404L21.4679 30.616L21.4904 30.5935C22.0692 30.0141 22.7779 29.5812 23.5577 29.3309C24.337 29.0807 25.1649 29.02 25.9723 29.154C25.9728 29.1541 25.9732 29.1541 25.9736 29.1542L26.9338 29.3095L26.9382 29.3102C27.1418 29.3444 27.3509 29.3274 27.5463 29.2606L27.7852 29.96M8.77651 13.4175L27.7852 29.96M29.7365 25.378C29.2431 25.5243 28.8244 25.854 28.5664 26.2993C28.3083 26.7446 28.2306 27.2718 28.349 27.7726L28.349 27.7726L28.3512 27.7816C28.4013 27.982 28.4007 28.1917 28.3494 28.3918C28.2982 28.5919 28.1979 28.7761 28.0577 28.9278C27.9175 29.0794 27.7418 29.1938 27.5463 29.2606L27.7852 29.96M29.7365 25.378L27.7852 29.96M5.7783 27.6167C5.6985 27.9361 5.69948 28.2704 5.78116 28.5893C5.86283 28.9083 6.02262 29.2019 6.24612 29.4437C6.46961 29.6854 6.74979 29.8678 7.06136 29.9742C7.37293 30.0806 7.7061 30.1078 8.0308 30.0533L8.99414 29.8975C9.68596 29.7826 10.3952 29.8344 11.063 30.0488C11.7307 30.2632 12.3377 30.6338 12.8333 31.13C14.0017 32.5106 15.6438 33.4049 17.4375 33.6375C19.223 33.3945 20.8542 32.4956 22.0133 31.1158C22.5089 30.6197 23.1159 30.249 23.7836 30.0346C24.4514 29.8203 25.1606 29.7684 25.8525 29.8833L5.7783 27.6167ZM5.7783 27.6167C5.85737 27.2976 5.81014 26.9603 5.64648 26.6752C5.48282 26.3901 5.21537 26.1793 4.89997 26.0867L1.85414 25.4633C1.60004 25.3871 1.37604 25.2336 1.21333 25.0241C1.05062 24.8146 0.957306 24.5596 0.946392 24.2945C0.935479 24.0295 1.00751 23.7676 1.15244 23.5454L5.7783 27.6167Z" fill="url(#paint0_linear)" fill-opacity="0.05"/>
<path d="M29.7678 25.3688L29.7998 25.3623L32.8416 24.7455C32.9395 24.7138 33.0264 24.6544 33.0916 24.5744C33.1614 24.4888 33.203 24.3838 33.2108 24.2737C33.2187 24.1636 33.1923 24.0538 33.1353 23.9592C33.0783 23.8646 32.9935 23.79 32.8925 23.7455L32.88 23.7399L32.8801 23.7398C31.3296 23.0214 29.8601 22.1398 28.4965 21.1098M29.7678 25.3688L28.9408 20.5192M29.7678 25.3688L29.7365 25.378M29.7678 25.3688L29.7365 25.378M28.4965 21.1098C28.4961 21.1095 28.4957 21.1092 28.4953 21.1089L28.9408 20.5192M28.4965 21.1098C28.4969 21.1102 28.4974 21.1105 28.4978 21.1108L28.9408 20.5192M28.4965 21.1098C28.1338 20.838 27.8428 20.482 27.6485 20.0726L28.3162 19.7556M28.9408 20.5192C28.6737 20.3192 28.4593 20.0571 28.3162 19.7556M28.3162 19.7556L27.6484 20.0726C27.4539 19.6626 27.3621 19.2114 27.3811 18.758C27.4 18.3046 27.5292 17.8627 27.7573 17.4704C27.9854 17.0783 28.3055 16.7477 28.6899 16.5071M28.3162 19.7556L28.6899 16.5071M28.6899 16.5071C28.6901 16.5069 28.6903 16.5068 28.6905 16.5067L30.5566 15.3333C30.557 15.3331 30.5573 15.3329 30.5577 15.3326C30.8537 15.1445 31.063 14.8466 31.1397 14.5043C31.2164 14.1616 31.1538 13.8024 30.9658 13.5058C30.7777 13.2092 30.4795 12.9995 30.1368 12.9228C29.7942 12.8461 29.4353 12.9085 29.1388 13.0964C29.1386 13.0965 29.1385 13.0966 29.1383 13.0967L27.9404 13.8577C27.7517 13.9817 27.5329 14.0521 27.3072 14.0616C27.0779 14.0713 26.8505 14.0176 26.6498 13.9065L27.0077 13.2598L26.6498 13.9065C26.449 13.7953 26.2828 13.6311 26.1693 13.4317L26.8116 13.066L26.1693 13.4317C26.0579 13.2362 26.0015 13.0144 26.0058 12.7896V8.9314C25.9162 6.73112 24.98 4.65029 23.3925 3.12363C21.8016 1.59369 19.6801 0.73913 17.4729 0.73913C15.2657 0.73913 13.1442 1.59369 11.5533 3.12363C9.96578 4.65029 9.0296 6.73112 8.93993 8.93141V12.7756C8.94423 13.0003 8.88782 13.2221 8.77651 13.4175M28.6899 16.5071L8.77651 13.4175M8.77651 13.4175C8.66298 13.6169 8.49673 13.7812 8.29601 13.8923L7.93803 13.2456L8.296 13.8923C8.09528 14.0034 7.86783 14.0571 7.63859 14.0475C7.41291 14.038 7.19409 13.9675 7.00538 13.8436L5.80747 13.0825C5.80735 13.0825 5.80723 13.0824 5.80711 13.0823C5.51059 12.8944 5.15158 12.8319 4.809 12.9086C4.46629 12.9854 4.16809 13.1951 3.98001 13.4917C3.79192 13.7883 3.72936 14.1474 3.80609 14.4901C3.88273 14.8324 4.09204 15.1303 4.38806 15.3185C4.38842 15.3187 4.38878 15.3189 4.38914 15.3191L6.25531 16.4926C6.25559 16.4927 6.25588 16.4929 6.25616 16.4931C6.64049 16.7337 6.96047 17.0643 7.18844 17.4563C7.41659 17.8485 7.54574 18.2905 7.56471 18.7439C7.58368 19.1972 7.4919 19.6484 7.29732 20.0584C7.10297 20.4679 6.81189 20.8239 6.44922 21.0957C5.08566 22.1256 3.61618 23.0073 2.06569 23.7256L2.04548 23.735L2.02473 23.7431C1.92093 23.7838 1.83241 23.8559 1.7715 23.9493C1.71058 24.0426 1.68031 24.1527 1.6849 24.2641C1.68948 24.3755 1.7287 24.4827 1.79709 24.5707C1.86014 24.6519 1.94509 24.7131 2.04167 24.7473L5.04816 25.3625L5.07851 25.3688L5.10823 25.3775C5.60647 25.5238 6.02895 25.8569 6.28749 26.3072C6.54602 26.7576 6.62063 27.2904 6.49574 27.7944L6.4954 27.7958C6.44534 27.9962 6.44595 28.2059 6.49719 28.406C6.54842 28.6061 6.64866 28.7903 6.78887 28.9419C6.92908 29.0936 7.10484 29.208 7.30029 29.2748C7.49575 29.3415 7.70475 29.3586 7.90846 29.3244L7.91277 29.3237L8.87299 29.1684C8.87339 29.1683 8.87379 29.1682 8.87419 29.1682C9.6817 29.0342 10.5095 29.0948 11.2889 29.345C12.0687 29.5954 12.7774 30.0282 13.3562 30.6076L13.3778 30.6292L13.3975 30.6525C14.4257 31.8674 15.8622 32.663 17.4351 32.8911C19.0006 32.654 20.4275 31.8545 21.4474 30.6404L21.4679 30.616L21.4904 30.5935C22.0692 30.0141 22.7779 29.5812 23.5577 29.3309C24.337 29.0807 25.1649 29.02 25.9723 29.154C25.9728 29.1541 25.9732 29.1541 25.9736 29.1542L26.9338 29.3095L26.9382 29.3102C27.1418 29.3444 27.3509 29.3274 27.5463 29.2606L27.7852 29.96M8.77651 13.4175L27.7852 29.96M29.7365 25.378C29.2431 25.5243 28.8244 25.854 28.5664 26.2993C28.3083 26.7446 28.2306 27.2718 28.349 27.7726L28.349 27.7726L28.3512 27.7816C28.4013 27.982 28.4007 28.1917 28.3494 28.3918C28.2982 28.5919 28.1979 28.7761 28.0577 28.9278C27.9175 29.0794 27.7418 29.1938 27.5463 29.2606L27.7852 29.96M29.7365 25.378L27.7852 29.96M5.7783 27.6167C5.6985 27.9361 5.69948 28.2704 5.78116 28.5893C5.86283 28.9083 6.02262 29.2019 6.24612 29.4437C6.46961 29.6854 6.74979 29.8678 7.06136 29.9742C7.37293 30.0806 7.7061 30.1078 8.0308 30.0533L8.99414 29.8975C9.68596 29.7826 10.3952 29.8344 11.063 30.0488C11.7307 30.2632 12.3377 30.6338 12.8333 31.13C14.0017 32.5106 15.6438 33.4049 17.4375 33.6375C19.223 33.3945 20.8542 32.4956 22.0133 31.1158C22.5089 30.6197 23.1159 30.249 23.7836 30.0346C24.4514 29.8203 25.1606 29.7684 25.8525 29.8833L5.7783 27.6167ZM5.7783 27.6167C5.85737 27.2976 5.81014 26.9603 5.64648 26.6752C5.48282 26.3901 5.21537 26.1793 4.89997 26.0867L1.85414 25.4633C1.60004 25.3871 1.37604 25.2336 1.21333 25.0241C1.05062 24.8146 0.957306 24.5596 0.946392 24.2945C0.935479 24.0295 1.00751 23.7676 1.15244 23.5454L5.7783 27.6167Z" fill="url(#paint1_linear)" fill-opacity="0.05"/>
<path d="M29.7678 25.3688L29.7998 25.3623L32.8416 24.7455C32.9395 24.7138 33.0264 24.6544 33.0916 24.5744C33.1614 24.4888 33.203 24.3838 33.2108 24.2737C33.2187 24.1636 33.1923 24.0538 33.1353 23.9592C33.0783 23.8646 32.9935 23.79 32.8925 23.7455L32.88 23.7399L32.8801 23.7398C31.3296 23.0214 29.8601 22.1398 28.4965 21.1098M29.7678 25.3688L28.9408 20.5192M29.7678 25.3688L29.7365 25.378M29.7678 25.3688L29.7365 25.378M28.4965 21.1098C28.4961 21.1095 28.4957 21.1092 28.4953 21.1089L28.9408 20.5192M28.4965 21.1098C28.4969 21.1102 28.4974 21.1105 28.4978 21.1108L28.9408 20.5192M28.4965 21.1098C28.1338 20.838 27.8428 20.482 27.6485 20.0726L28.3162 19.7556M28.9408 20.5192C28.6737 20.3192 28.4593 20.0571 28.3162 19.7556M28.3162 19.7556L27.6484 20.0726C27.4539 19.6626 27.3621 19.2114 27.3811 18.758C27.4 18.3046 27.5292 17.8627 27.7573 17.4704C27.9854 17.0783 28.3055 16.7477 28.6899 16.5071M28.3162 19.7556L28.6899 16.5071M28.6899 16.5071C28.6901 16.5069 28.6903 16.5068 28.6905 16.5067L30.5566 15.3333C30.557 15.3331 30.5573 15.3329 30.5577 15.3326C30.8537 15.1445 31.063 14.8466 31.1397 14.5043C31.2164 14.1616 31.1538 13.8024 30.9658 13.5058C30.7777 13.2092 30.4795 12.9995 30.1368 12.9228C29.7942 12.8461 29.4353 12.9085 29.1388 13.0964C29.1386 13.0965 29.1385 13.0966 29.1383 13.0967L27.9404 13.8577C27.7517 13.9817 27.5329 14.0521 27.3072 14.0616C27.0779 14.0713 26.8505 14.0176 26.6498 13.9065L27.0077 13.2598L26.6498 13.9065C26.449 13.7953 26.2828 13.6311 26.1693 13.4317L26.8116 13.066L26.1693 13.4317C26.0579 13.2362 26.0015 13.0144 26.0058 12.7896V8.9314C25.9162 6.73112 24.98 4.65029 23.3925 3.12363C21.8016 1.59369 19.6801 0.73913 17.4729 0.73913C15.2657 0.73913 13.1442 1.59369 11.5533 3.12363C9.96578 4.65029 9.0296 6.73112 8.93993 8.93141V12.7756C8.94423 13.0003 8.88782 13.2221 8.77651 13.4175M28.6899 16.5071L8.77651 13.4175M8.77651 13.4175C8.66298 13.6169 8.49673 13.7812 8.29601 13.8923L7.93803 13.2456L8.296 13.8923C8.09528 14.0034 7.86783 14.0571 7.63859 14.0475C7.41291 14.038 7.19409 13.9675 7.00538 13.8436L5.80747 13.0825C5.80735 13.0825 5.80723 13.0824 5.80711 13.0823C5.51059 12.8944 5.15158 12.8319 4.809 12.9086C4.46629 12.9854 4.16809 13.1951 3.98001 13.4917C3.79192 13.7883 3.72936 14.1474 3.80609 14.4901C3.88273 14.8324 4.09204 15.1303 4.38806 15.3185C4.38842 15.3187 4.38878 15.3189 4.38914 15.3191L6.25531 16.4926C6.25559 16.4927 6.25588 16.4929 6.25616 16.4931C6.64049 16.7337 6.96047 17.0643 7.18844 17.4563C7.41659 17.8485 7.54574 18.2905 7.56471 18.7439C7.58368 19.1972 7.4919 19.6484 7.29732 20.0584C7.10297 20.4679 6.81189 20.8239 6.44922 21.0957C5.08566 22.1256 3.61618 23.0073 2.06569 23.7256L2.04548 23.735L2.02473 23.7431C1.92093 23.7838 1.83241 23.8559 1.7715 23.9493C1.71058 24.0426 1.68031 24.1527 1.6849 24.2641C1.68948 24.3755 1.7287 24.4827 1.79709 24.5707C1.86014 24.6519 1.94509 24.7131 2.04167 24.7473L5.04816 25.3625L5.07851 25.3688L5.10823 25.3775C5.60647 25.5238 6.02895 25.8569 6.28749 26.3072C6.54602 26.7576 6.62063 27.2904 6.49574 27.7944L6.4954 27.7958C6.44534 27.9962 6.44595 28.2059 6.49719 28.406C6.54842 28.6061 6.64866 28.7903 6.78887 28.9419C6.92908 29.0936 7.10484 29.208 7.30029 29.2748C7.49575 29.3415 7.70475 29.3586 7.90846 29.3244L7.91277 29.3237L8.87299 29.1684C8.87339 29.1683 8.87379 29.1682 8.87419 29.1682C9.6817 29.0342 10.5095 29.0948 11.2889 29.345C12.0687 29.5954 12.7774 30.0282 13.3562 30.6076L13.3778 30.6292L13.3975 30.6525C14.4257 31.8674 15.8622 32.663 17.4351 32.8911C19.0006 32.654 20.4275 31.8545 21.4474 30.6404L21.4679 30.616L21.4904 30.5935C22.0692 30.0141 22.7779 29.5812 23.5577 29.3309C24.337 29.0807 25.1649 29.02 25.9723 29.154C25.9728 29.1541 25.9732 29.1541 25.9736 29.1542L26.9338 29.3095L26.9382 29.3102C27.1418 29.3444 27.3509 29.3274 27.5463 29.2606L27.7852 29.96M8.77651 13.4175L27.7852 29.96M29.7365 25.378C29.2431 25.5243 28.8244 25.854 28.5664 26.2993C28.3083 26.7446 28.2306 27.2718 28.349 27.7726L28.349 27.7726L28.3512 27.7816C28.4013 27.982 28.4007 28.1917 28.3494 28.3918C28.2982 28.5919 28.1979 28.7761 28.0577 28.9278C27.9175 29.0794 27.7418 29.1938 27.5463 29.2606L27.7852 29.96M29.7365 25.378L27.7852 29.96M5.7783 27.6167C5.6985 27.9361 5.69948 28.2704 5.78116 28.5893C5.86283 28.9083 6.02262 29.2019 6.24612 29.4437C6.46961 29.6854 6.74979 29.8678 7.06136 29.9742C7.37293 30.0806 7.7061 30.1078 8.0308 30.0533L8.99414 29.8975C9.68596 29.7826 10.3952 29.8344 11.063 30.0488C11.7307 30.2632 12.3377 30.6338 12.8333 31.13C14.0017 32.5106 15.6438 33.4049 17.4375 33.6375C19.223 33.3945 20.8542 32.4956 22.0133 31.1158C22.5089 30.6197 23.1159 30.249 23.7836 30.0346C24.4514 29.8203 25.1606 29.7684 25.8525 29.8833L5.7783 27.6167ZM5.7783 27.6167C5.85737 27.2976 5.81014 26.9603 5.64648 26.6752C5.48282 26.3901 5.21537 26.1793 4.89997 26.0867L1.85414 25.4633C1.60004 25.3871 1.37604 25.2336 1.21333 25.0241C1.05062 24.8146 0.957306 24.5596 0.946392 24.2945C0.935479 24.0295 1.00751 23.7676 1.15244 23.5454L5.7783 27.6167Z" stroke="black" stroke-width="1.47826"/>
<path d="M29.7678 25.3688L29.7998 25.3623L32.8416 24.7455C32.9395 24.7138 33.0264 24.6544 33.0916 24.5744C33.1614 24.4888 33.203 24.3838 33.2108 24.2737C33.2187 24.1636 33.1923 24.0538 33.1353 23.9592C33.0783 23.8646 32.9935 23.79 32.8925 23.7455L32.88 23.7399L32.8801 23.7398C31.3296 23.0214 29.8601 22.1398 28.4965 21.1098M29.7678 25.3688L28.9408 20.5192M29.7678 25.3688L29.7365 25.378M29.7678 25.3688L29.7365 25.378M28.4965 21.1098C28.4961 21.1095 28.4957 21.1092 28.4953 21.1089L28.9408 20.5192M28.4965 21.1098C28.4969 21.1102 28.4974 21.1105 28.4978 21.1108L28.9408 20.5192M28.4965 21.1098C28.1338 20.838 27.8428 20.482 27.6485 20.0726L28.3162 19.7556M28.9408 20.5192C28.6737 20.3192 28.4593 20.0571 28.3162 19.7556M28.3162 19.7556L27.6484 20.0726C27.4539 19.6626 27.3621 19.2114 27.3811 18.758C27.4 18.3046 27.5292 17.8627 27.7573 17.4704C27.9854 17.0783 28.3055 16.7477 28.6899 16.5071M28.3162 19.7556L28.6899 16.5071M28.6899 16.5071C28.6901 16.5069 28.6903 16.5068 28.6905 16.5067L30.5566 15.3333C30.557 15.3331 30.5573 15.3329 30.5577 15.3326C30.8537 15.1445 31.063 14.8466 31.1397 14.5043C31.2164 14.1616 31.1538 13.8024 30.9658 13.5058C30.7777 13.2092 30.4795 12.9995 30.1368 12.9228C29.7942 12.8461 29.4353 12.9085 29.1388 13.0964C29.1386 13.0965 29.1385 13.0966 29.1383 13.0967L27.9404 13.8577C27.7517 13.9817 27.5329 14.0521 27.3072 14.0616C27.0779 14.0713 26.8505 14.0176 26.6498 13.9065L27.0077 13.2598L26.6498 13.9065C26.449 13.7953 26.2828 13.6311 26.1693 13.4317L26.8116 13.066L26.1693 13.4317C26.0579 13.2362 26.0015 13.0144 26.0058 12.7896V8.9314C25.9162 6.73112 24.98 4.65029 23.3925 3.12363C21.8016 1.59369 19.6801 0.73913 17.4729 0.73913C15.2657 0.73913 13.1442 1.59369 11.5533 3.12363C9.96578 4.65029 9.0296 6.73112 8.93993 8.93141V12.7756C8.94423 13.0003 8.88782 13.2221 8.77651 13.4175M28.6899 16.5071L8.77651 13.4175M8.77651 13.4175C8.66298 13.6169 8.49673 13.7812 8.29601 13.8923L7.93803 13.2456L8.296 13.8923C8.09528 14.0034 7.86783 14.0571 7.63859 14.0475C7.41291 14.038 7.19409 13.9675 7.00538 13.8436L5.80747 13.0825C5.80735 13.0825 5.80723 13.0824 5.80711 13.0823C5.51059 12.8944 5.15158 12.8319 4.809 12.9086C4.46629 12.9854 4.16809 13.1951 3.98001 13.4917C3.79192 13.7883 3.72936 14.1474 3.80609 14.4901C3.88273 14.8324 4.09204 15.1303 4.38806 15.3185C4.38842 15.3187 4.38878 15.3189 4.38914 15.3191L6.25531 16.4926C6.25559 16.4927 6.25588 16.4929 6.25616 16.4931C6.64049 16.7337 6.96047 17.0643 7.18844 17.4563C7.41659 17.8485 7.54574 18.2905 7.56471 18.7439C7.58368 19.1972 7.4919 19.6484 7.29732 20.0584C7.10297 20.4679 6.81189 20.8239 6.44922 21.0957C5.08566 22.1256 3.61618 23.0073 2.06569 23.7256L2.04548 23.735L2.02473 23.7431C1.92093 23.7838 1.83241 23.8559 1.7715 23.9493C1.71058 24.0426 1.68031 24.1527 1.6849 24.2641C1.68948 24.3755 1.7287 24.4827 1.79709 24.5707C1.86014 24.6519 1.94509 24.7131 2.04167 24.7473L5.04816 25.3625L5.07851 25.3688L5.10823 25.3775C5.60647 25.5238 6.02895 25.8569 6.28749 26.3072C6.54602 26.7576 6.62063 27.2904 6.49574 27.7944L6.4954 27.7958C6.44534 27.9962 6.44595 28.2059 6.49719 28.406C6.54842 28.6061 6.64866 28.7903 6.78887 28.9419C6.92908 29.0936 7.10484 29.208 7.30029 29.2748C7.49575 29.3415 7.70475 29.3586 7.90846 29.3244L7.91277 29.3237L8.87299 29.1684C8.87339 29.1683 8.87379 29.1682 8.87419 29.1682C9.6817 29.0342 10.5095 29.0948 11.2889 29.345C12.0687 29.5954 12.7774 30.0282 13.3562 30.6076L13.3778 30.6292L13.3975 30.6525C14.4257 31.8674 15.8622 32.663 17.4351 32.8911C19.0006 32.654 20.4275 31.8545 21.4474 30.6404L21.4679 30.616L21.4904 30.5935C22.0692 30.0141 22.7779 29.5812 23.5577 29.3309C24.337 29.0807 25.1649 29.02 25.9723 29.154C25.9728 29.1541 25.9732 29.1541 25.9736 29.1542L26.9338 29.3095L26.9382 29.3102C27.1418 29.3444 27.3509 29.3274 27.5463 29.2606L27.7852 29.96M8.77651 13.4175L27.7852 29.96M29.7365 25.378C29.2431 25.5243 28.8244 25.854 28.5664 26.2993C28.3083 26.7446 28.2306 27.2718 28.349 27.7726L28.349 27.7726L28.3512 27.7816C28.4013 27.982 28.4007 28.1917 28.3494 28.3918C28.2982 28.5919 28.1979 28.7761 28.0577 28.9278C27.9175 29.0794 27.7418 29.1938 27.5463 29.2606L27.7852 29.96M29.7365 25.378L27.7852 29.96M5.7783 27.6167C5.6985 27.9361 5.69948 28.2704 5.78116 28.5893C5.86283 28.9083 6.02262 29.2019 6.24612 29.4437C6.46961 29.6854 6.74979 29.8678 7.06136 29.9742C7.37293 30.0806 7.7061 30.1078 8.0308 30.0533L8.99414 29.8975C9.68596 29.7826 10.3952 29.8344 11.063 30.0488C11.7307 30.2632 12.3377 30.6338 12.8333 31.13C14.0017 32.5106 15.6438 33.4049 17.4375 33.6375C19.223 33.3945 20.8542 32.4956 22.0133 31.1158C22.5089 30.6197 23.1159 30.249 23.7836 30.0346C24.4514 29.8203 25.1606 29.7684 25.8525 29.8833L5.7783 27.6167ZM5.7783 27.6167C5.85737 27.2976 5.81014 26.9603 5.64648 26.6752C5.48282 26.3901 5.21537 26.1793 4.89997 26.0867L1.85414 25.4633C1.60004 25.3871 1.37604 25.2336 1.21333 25.0241C1.05062 24.8146 0.957306 24.5596 0.946392 24.2945C0.935479 24.0295 1.00751 23.7676 1.15244 23.5454L5.7783 27.6167Z" stroke="#6E26DB" stroke-width="1.47826"/>
<path d="M29.7678 25.3688L29.7998 25.3623L32.8416 24.7455C32.9395 24.7138 33.0264 24.6544 33.0916 24.5744C33.1614 24.4888 33.203 24.3838 33.2108 24.2737C33.2187 24.1636 33.1923 24.0538 33.1353 23.9592C33.0783 23.8646 32.9935 23.79 32.8925 23.7455L32.88 23.7399L32.8801 23.7398C31.3296 23.0214 29.8601 22.1398 28.4965 21.1098M29.7678 25.3688L28.9408 20.5192M29.7678 25.3688L29.7365 25.378M29.7678 25.3688L29.7365 25.378M28.4965 21.1098C28.4961 21.1095 28.4957 21.1092 28.4953 21.1089L28.9408 20.5192M28.4965 21.1098C28.4969 21.1102 28.4974 21.1105 28.4978 21.1108L28.9408 20.5192M28.4965 21.1098C28.1338 20.838 27.8428 20.482 27.6485 20.0726L28.3162 19.7556M28.9408 20.5192C28.6737 20.3192 28.4593 20.0571 28.3162 19.7556M28.3162 19.7556L27.6484 20.0726C27.4539 19.6626 27.3621 19.2114 27.3811 18.758C27.4 18.3046 27.5292 17.8627 27.7573 17.4704C27.9854 17.0783 28.3055 16.7477 28.6899 16.5071M28.3162 19.7556L28.6899 16.5071M28.6899 16.5071C28.6901 16.5069 28.6903 16.5068 28.6905 16.5067L30.5566 15.3333C30.557 15.3331 30.5573 15.3329 30.5577 15.3326C30.8537 15.1445 31.063 14.8466 31.1397 14.5043C31.2164 14.1616 31.1538 13.8024 30.9658 13.5058C30.7777 13.2092 30.4795 12.9995 30.1368 12.9228C29.7942 12.8461 29.4353 12.9085 29.1388 13.0964C29.1386 13.0965 29.1385 13.0966 29.1383 13.0967L27.9404 13.8577C27.7517 13.9817 27.5329 14.0521 27.3072 14.0616C27.0779 14.0713 26.8505 14.0176 26.6498 13.9065L27.0077 13.2598L26.6498 13.9065C26.449 13.7953 26.2828 13.6311 26.1693 13.4317L26.8116 13.066L26.1693 13.4317C26.0579 13.2362 26.0015 13.0144 26.0058 12.7896V8.9314C25.9162 6.73112 24.98 4.65029 23.3925 3.12363C21.8016 1.59369 19.6801 0.73913 17.4729 0.73913C15.2657 0.73913 13.1442 1.59369 11.5533 3.12363C9.96578 4.65029 9.0296 6.73112 8.93993 8.93141V12.7756C8.94423 13.0003 8.88782 13.2221 8.77651 13.4175M28.6899 16.5071L8.77651 13.4175M8.77651 13.4175C8.66298 13.6169 8.49673 13.7812 8.29601 13.8923L7.93803 13.2456L8.296 13.8923C8.09528 14.0034 7.86783 14.0571 7.63859 14.0475C7.41291 14.038 7.19409 13.9675 7.00538 13.8436L5.80747 13.0825C5.80735 13.0825 5.80723 13.0824 5.80711 13.0823C5.51059 12.8944 5.15158 12.8319 4.809 12.9086C4.46629 12.9854 4.16809 13.1951 3.98001 13.4917C3.79192 13.7883 3.72936 14.1474 3.80609 14.4901C3.88273 14.8324 4.09204 15.1303 4.38806 15.3185C4.38842 15.3187 4.38878 15.3189 4.38914 15.3191L6.25531 16.4926C6.25559 16.4927 6.25588 16.4929 6.25616 16.4931C6.64049 16.7337 6.96047 17.0643 7.18844 17.4563C7.41659 17.8485 7.54574 18.2905 7.56471 18.7439C7.58368 19.1972 7.4919 19.6484 7.29732 20.0584C7.10297 20.4679 6.81189 20.8239 6.44922 21.0957C5.08566 22.1256 3.61618 23.0073 2.06569 23.7256L2.04548 23.735L2.02473 23.7431C1.92093 23.7838 1.83241 23.8559 1.7715 23.9493C1.71058 24.0426 1.68031 24.1527 1.6849 24.2641C1.68948 24.3755 1.7287 24.4827 1.79709 24.5707C1.86014 24.6519 1.94509 24.7131 2.04167 24.7473L5.04816 25.3625L5.07851 25.3688L5.10823 25.3775C5.60647 25.5238 6.02895 25.8569 6.28749 26.3072C6.54602 26.7576 6.62063 27.2904 6.49574 27.7944L6.4954 27.7958C6.44534 27.9962 6.44595 28.2059 6.49719 28.406C6.54842 28.6061 6.64866 28.7903 6.78887 28.9419C6.92908 29.0936 7.10484 29.208 7.30029 29.2748C7.49575 29.3415 7.70475 29.3586 7.90846 29.3244L7.91277 29.3237L8.87299 29.1684C8.87339 29.1683 8.87379 29.1682 8.87419 29.1682C9.6817 29.0342 10.5095 29.0948 11.2889 29.345C12.0687 29.5954 12.7774 30.0282 13.3562 30.6076L13.3778 30.6292L13.3975 30.6525C14.4257 31.8674 15.8622 32.663 17.4351 32.8911C19.0006 32.654 20.4275 31.8545 21.4474 30.6404L21.4679 30.616L21.4904 30.5935C22.0692 30.0141 22.7779 29.5812 23.5577 29.3309C24.337 29.0807 25.1649 29.02 25.9723 29.154C25.9728 29.1541 25.9732 29.1541 25.9736 29.1542L26.9338 29.3095L26.9382 29.3102C27.1418 29.3444 27.3509 29.3274 27.5463 29.2606L27.7852 29.96M8.77651 13.4175L27.7852 29.96M29.7365 25.378C29.2431 25.5243 28.8244 25.854 28.5664 26.2993C28.3083 26.7446 28.2306 27.2718 28.349 27.7726L28.349 27.7726L28.3512 27.7816C28.4013 27.982 28.4007 28.1917 28.3494 28.3918C28.2982 28.5919 28.1979 28.7761 28.0577 28.9278C27.9175 29.0794 27.7418 29.1938 27.5463 29.2606L27.7852 29.96M29.7365 25.378L27.7852 29.96M5.7783 27.6167C5.6985 27.9361 5.69948 28.2704 5.78116 28.5893C5.86283 28.9083 6.02262 29.2019 6.24612 29.4437C6.46961 29.6854 6.74979 29.8678 7.06136 29.9742C7.37293 30.0806 7.7061 30.1078 8.0308 30.0533L8.99414 29.8975C9.68596 29.7826 10.3952 29.8344 11.063 30.0488C11.7307 30.2632 12.3377 30.6338 12.8333 31.13C14.0017 32.5106 15.6438 33.4049 17.4375 33.6375C19.223 33.3945 20.8542 32.4956 22.0133 31.1158C22.5089 30.6197 23.1159 30.249 23.7836 30.0346C24.4514 29.8203 25.1606 29.7684 25.8525 29.8833L5.7783 27.6167ZM5.7783 27.6167C5.85737 27.2976 5.81014 26.9603 5.64648 26.6752C5.48282 26.3901 5.21537 26.1793 4.89997 26.0867L1.85414 25.4633C1.60004 25.3871 1.37604 25.2336 1.21333 25.0241C1.05062 24.8146 0.957306 24.5596 0.946392 24.2945C0.935479 24.0295 1.00751 23.7676 1.15244 23.5454L5.7783 27.6167Z" stroke="url(#paint2_linear)" stroke-opacity="0.25" stroke-width="1.47826"/>
<path d="M29.7678 25.3688L29.7998 25.3623L32.8416 24.7455C32.9395 24.7138 33.0264 24.6544 33.0916 24.5744C33.1614 24.4888 33.203 24.3838 33.2108 24.2737C33.2187 24.1636 33.1923 24.0538 33.1353 23.9592C33.0783 23.8646 32.9935 23.79 32.8925 23.7455L32.88 23.7399L32.8801 23.7398C31.3296 23.0214 29.8601 22.1398 28.4965 21.1098M29.7678 25.3688L28.9408 20.5192M29.7678 25.3688L29.7365 25.378M29.7678 25.3688L29.7365 25.378M28.4965 21.1098C28.4961 21.1095 28.4957 21.1092 28.4953 21.1089L28.9408 20.5192M28.4965 21.1098C28.4969 21.1102 28.4974 21.1105 28.4978 21.1108L28.9408 20.5192M28.4965 21.1098C28.1338 20.838 27.8428 20.482 27.6485 20.0726L28.3162 19.7556M28.9408 20.5192C28.6737 20.3192 28.4593 20.0571 28.3162 19.7556M28.3162 19.7556L27.6484 20.0726C27.4539 19.6626 27.3621 19.2114 27.3811 18.758C27.4 18.3046 27.5292 17.8627 27.7573 17.4704C27.9854 17.0783 28.3055 16.7477 28.6899 16.5071M28.3162 19.7556L28.6899 16.5071M28.6899 16.5071C28.6901 16.5069 28.6903 16.5068 28.6905 16.5067L30.5566 15.3333C30.557 15.3331 30.5573 15.3329 30.5577 15.3326C30.8537 15.1445 31.063 14.8466 31.1397 14.5043C31.2164 14.1616 31.1538 13.8024 30.9658 13.5058C30.7777 13.2092 30.4795 12.9995 30.1368 12.9228C29.7942 12.8461 29.4353 12.9085 29.1388 13.0964C29.1386 13.0965 29.1385 13.0966 29.1383 13.0967L27.9404 13.8577C27.7517 13.9817 27.5329 14.0521 27.3072 14.0616C27.0779 14.0713 26.8505 14.0176 26.6498 13.9065L27.0077 13.2598L26.6498 13.9065C26.449 13.7953 26.2828 13.6311 26.1693 13.4317L26.8116 13.066L26.1693 13.4317C26.0579 13.2362 26.0015 13.0144 26.0058 12.7896V8.9314C25.9162 6.73112 24.98 4.65029 23.3925 3.12363C21.8016 1.59369 19.6801 0.73913 17.4729 0.73913C15.2657 0.73913 13.1442 1.59369 11.5533 3.12363C9.96578 4.65029 9.0296 6.73112 8.93993 8.93141V12.7756C8.94423 13.0003 8.88782 13.2221 8.77651 13.4175M28.6899 16.5071L8.77651 13.4175M8.77651 13.4175C8.66298 13.6169 8.49673 13.7812 8.29601 13.8923L7.93803 13.2456L8.296 13.8923C8.09528 14.0034 7.86783 14.0571 7.63859 14.0475C7.41291 14.038 7.19409 13.9675 7.00538 13.8436L5.80747 13.0825C5.80735 13.0825 5.80723 13.0824 5.80711 13.0823C5.51059 12.8944 5.15158 12.8319 4.809 12.9086C4.46629 12.9854 4.16809 13.1951 3.98001 13.4917C3.79192 13.7883 3.72936 14.1474 3.80609 14.4901C3.88273 14.8324 4.09204 15.1303 4.38806 15.3185C4.38842 15.3187 4.38878 15.3189 4.38914 15.3191L6.25531 16.4926C6.25559 16.4927 6.25588 16.4929 6.25616 16.4931C6.64049 16.7337 6.96047 17.0643 7.18844 17.4563C7.41659 17.8485 7.54574 18.2905 7.56471 18.7439C7.58368 19.1972 7.4919 19.6484 7.29732 20.0584C7.10297 20.4679 6.81189 20.8239 6.44922 21.0957C5.08566 22.1256 3.61618 23.0073 2.06569 23.7256L2.04548 23.735L2.02473 23.7431C1.92093 23.7838 1.83241 23.8559 1.7715 23.9493C1.71058 24.0426 1.68031 24.1527 1.6849 24.2641C1.68948 24.3755 1.7287 24.4827 1.79709 24.5707C1.86014 24.6519 1.94509 24.7131 2.04167 24.7473L5.04816 25.3625L5.07851 25.3688L5.10823 25.3775C5.60647 25.5238 6.02895 25.8569 6.28749 26.3072C6.54602 26.7576 6.62063 27.2904 6.49574 27.7944L6.4954 27.7958C6.44534 27.9962 6.44595 28.2059 6.49719 28.406C6.54842 28.6061 6.64866 28.7903 6.78887 28.9419C6.92908 29.0936 7.10484 29.208 7.30029 29.2748C7.49575 29.3415 7.70475 29.3586 7.90846 29.3244L7.91277 29.3237L8.87299 29.1684C8.87339 29.1683 8.87379 29.1682 8.87419 29.1682C9.6817 29.0342 10.5095 29.0948 11.2889 29.345C12.0687 29.5954 12.7774 30.0282 13.3562 30.6076L13.3778 30.6292L13.3975 30.6525C14.4257 31.8674 15.8622 32.663 17.4351 32.8911C19.0006 32.654 20.4275 31.8545 21.4474 30.6404L21.4679 30.616L21.4904 30.5935C22.0692 30.0141 22.7779 29.5812 23.5577 29.3309C24.337 29.0807 25.1649 29.02 25.9723 29.154C25.9728 29.1541 25.9732 29.1541 25.9736 29.1542L26.9338 29.3095L26.9382 29.3102C27.1418 29.3444 27.3509 29.3274 27.5463 29.2606L27.7852 29.96M8.77651 13.4175L27.7852 29.96M29.7365 25.378C29.2431 25.5243 28.8244 25.854 28.5664 26.2993C28.3083 26.7446 28.2306 27.2718 28.349 27.7726L28.349 27.7726L28.3512 27.7816C28.4013 27.982 28.4007 28.1917 28.3494 28.3918C28.2982 28.5919 28.1979 28.7761 28.0577 28.9278C27.9175 29.0794 27.7418 29.1938 27.5463 29.2606L27.7852 29.96M29.7365 25.378L27.7852 29.96M5.7783 27.6167C5.6985 27.9361 5.69948 28.2704 5.78116 28.5893C5.86283 28.9083 6.02262 29.2019 6.24612 29.4437C6.46961 29.6854 6.74979 29.8678 7.06136 29.9742C7.37293 30.0806 7.7061 30.1078 8.0308 30.0533L8.99414 29.8975C9.68596 29.7826 10.3952 29.8344 11.063 30.0488C11.7307 30.2632 12.3377 30.6338 12.8333 31.13C14.0017 32.5106 15.6438 33.4049 17.4375 33.6375C19.223 33.3945 20.8542 32.4956 22.0133 31.1158C22.5089 30.6197 23.1159 30.249 23.7836 30.0346C24.4514 29.8203 25.1606 29.7684 25.8525 29.8833L5.7783 27.6167ZM5.7783 27.6167C5.85737 27.2976 5.81014 26.9603 5.64648 26.6752C5.48282 26.3901 5.21537 26.1793 4.89997 26.0867L1.85414 25.4633C1.60004 25.3871 1.37604 25.2336 1.21333 25.0241C1.05062 24.8146 0.957306 24.5596 0.946392 24.2945C0.935479 24.0295 1.00751 23.7676 1.15244 23.5454L5.7783 27.6167Z" stroke="url(#paint3_linear)" stroke-opacity="0.25" stroke-width="1.47826"/>
<defs>
<linearGradient id="paint0_linear" x1="35.0515" y1="3.57988e-06" x2="-2.72932" y2="7.40505" gradientUnits="userSpaceOnUse">
<stop stop-color="#117CB6"/>
<stop offset="1" stop-color="#117CB6" stop-opacity="0"/>
</linearGradient>
<linearGradient id="paint1_linear" x1="6.07958" y1="-26.0691" x2="48.5865" y2="-8.69034" gradientUnits="userSpaceOnUse">
<stop stop-color="#FF5B7E"/>
<stop offset="1" stop-color="#FF5B7E" stop-opacity="0"/>
</linearGradient>
<linearGradient id="paint2_linear" x1="35.0515" y1="3.57988e-06" x2="-2.72932" y2="7.40505" gradientUnits="userSpaceOnUse">
<stop stop-color="#117CB6"/>
<stop offset="1" stop-color="#117CB6" stop-opacity="0"/>
</linearGradient>
<linearGradient id="paint3_linear" x1="6.07958" y1="-26.0691" x2="48.5865" y2="-8.69034" gradientUnits="userSpaceOnUse">
<stop stop-color="#FF5B7E"/>
<stop offset="1" stop-color="#FF5B7E" stop-opacity="0"/>
</linearGradient>
</defs>
</svg>
