<svg width="32" height="36" viewBox="0 0 32 36" fill="none" xmlns="http://www.w3.org/2000/svg">
<path fill-rule="evenodd" clip-rule="evenodd" d="M21.4792 1C22.0419 1 22.51 1.42372 22.6141 1.9768C23.3458 5.86587 25.6266 8.30074 29.3675 8.89316C29.9446 8.98454 30.4006 9.4616 30.4006 10.0458V13.4282C30.4006 13.9988 29.9671 14.4838 29.3965 14.48C27.6486 14.4684 26.0086 13.9716 24.2661 13.0962C23.4943 12.7084 22.548 13.2421 22.548 14.1058V22.2881C22.548 35.1813 8.49489 39.2104 2.84509 29.9689C-0.662798 24.2231 1.29417 14.2873 11.9356 13.2451C12.5606 13.1839 13.0841 13.6903 13.0841 14.3182V17.9469C13.0841 18.4912 12.6881 18.9514 12.1561 19.0665C11.5563 19.1964 10.9513 19.36 10.3816 19.5544C7.79122 20.4316 6.32267 22.0739 6.7306 24.9708C7.51586 30.5198 17.6937 32.162 16.8472 21.3191V2.11485C16.8472 1.50412 17.3411 1.0084 17.9519 1.00616L19.6388 1H21.4792Z" fill="#6E26DB" fill-opacity="0.1"/>
<path fill-rule="evenodd" clip-rule="evenodd" d="M21.4792 1C22.0419 1 22.51 1.42372 22.6141 1.9768C23.3458 5.86587 25.6266 8.30074 29.3675 8.89316C29.9446 8.98454 30.4006 9.4616 30.4006 10.0458V13.4282C30.4006 13.9988 29.9671 14.4838 29.3965 14.48C27.6486 14.4684 26.0086 13.9716 24.2661 13.0962C23.4943 12.7084 22.548 13.2421 22.548 14.1058V22.2881C22.548 35.1813 8.49489 39.2104 2.84509 29.9689C-0.662798 24.2231 1.29417 14.2873 11.9356 13.2451C12.5606 13.1839 13.0841 13.6903 13.0841 14.3182V17.9469C13.0841 18.4912 12.6881 18.9514 12.1561 19.0665C11.5563 19.1964 10.9513 19.36 10.3816 19.5544C7.79122 20.4316 6.32267 22.0739 6.7306 24.9708C7.51586 30.5198 17.6937 32.162 16.8472 21.3191V2.11485C16.8472 1.50412 17.3411 1.0084 17.9519 1.00616L19.6388 1H21.4792Z" fill="url(#paint0_linear)" fill-opacity="0.05"/>
<path fill-rule="evenodd" clip-rule="evenodd" d="M21.4792 1C22.0419 1 22.51 1.42372 22.6141 1.9768C23.3458 5.86587 25.6266 8.30074 29.3675 8.89316C29.9446 8.98454 30.4006 9.4616 30.4006 10.0458V13.4282C30.4006 13.9988 29.9671 14.4838 29.3965 14.48C27.6486 14.4684 26.0086 13.9716 24.2661 13.0962C23.4943 12.7084 22.548 13.2421 22.548 14.1058V22.2881C22.548 35.1813 8.49489 39.2104 2.84509 29.9689C-0.662798 24.2231 1.29417 14.2873 11.9356 13.2451C12.5606 13.1839 13.0841 13.6903 13.0841 14.3182V17.9469C13.0841 18.4912 12.6881 18.9514 12.1561 19.0665C11.5563 19.1964 10.9513 19.36 10.3816 19.5544C7.79122 20.4316 6.32267 22.0739 6.7306 24.9708C7.51586 30.5198 17.6937 32.162 16.8472 21.3191V2.11485C16.8472 1.50412 17.3411 1.0084 17.9519 1.00616L19.6388 1H21.4792Z" fill="url(#paint1_linear)" fill-opacity="0.05"/>
<path fill-rule="evenodd" clip-rule="evenodd" d="M21.4792 1C22.0419 1 22.51 1.42372 22.6141 1.9768C23.3458 5.86587 25.6266 8.30074 29.3675 8.89316C29.9446 8.98454 30.4006 9.4616 30.4006 10.0458V13.4282C30.4006 13.9988 29.9671 14.4838 29.3965 14.48C27.6486 14.4684 26.0086 13.9716 24.2661 13.0962C23.4943 12.7084 22.548 13.2421 22.548 14.1058V22.2881C22.548 35.1813 8.49489 39.2104 2.84509 29.9689C-0.662798 24.2231 1.29417 14.2873 11.9356 13.2451C12.5606 13.1839 13.0841 13.6903 13.0841 14.3182V17.9469C13.0841 18.4912 12.6881 18.9514 12.1561 19.0665C11.5563 19.1964 10.9513 19.36 10.3816 19.5544C7.79122 20.4316 6.32267 22.0739 6.7306 24.9708C7.51586 30.5198 17.6937 32.162 16.8472 21.3191V2.11485C16.8472 1.50412 17.3411 1.0084 17.9519 1.00616L19.6388 1H21.4792Z" stroke="black" stroke-width="1.47826" stroke-linecap="round" stroke-linejoin="round"/>
<path fill-rule="evenodd" clip-rule="evenodd" d="M21.4792 1C22.0419 1 22.51 1.42372 22.6141 1.9768C23.3458 5.86587 25.6266 8.30074 29.3675 8.89316C29.9446 8.98454 30.4006 9.4616 30.4006 10.0458V13.4282C30.4006 13.9988 29.9671 14.4838 29.3965 14.48C27.6486 14.4684 26.0086 13.9716 24.2661 13.0962C23.4943 12.7084 22.548 13.2421 22.548 14.1058V22.2881C22.548 35.1813 8.49489 39.2104 2.84509 29.9689C-0.662798 24.2231 1.29417 14.2873 11.9356 13.2451C12.5606 13.1839 13.0841 13.6903 13.0841 14.3182V17.9469C13.0841 18.4912 12.6881 18.9514 12.1561 19.0665C11.5563 19.1964 10.9513 19.36 10.3816 19.5544C7.79122 20.4316 6.32267 22.0739 6.7306 24.9708C7.51586 30.5198 17.6937 32.162 16.8472 21.3191V2.11485C16.8472 1.50412 17.3411 1.0084 17.9519 1.00616L19.6388 1H21.4792Z" stroke="#6E26DB" stroke-width="1.47826" stroke-linecap="round" stroke-linejoin="round"/>
<path fill-rule="evenodd" clip-rule="evenodd" d="M21.4792 1C22.0419 1 22.51 1.42372 22.6141 1.9768C23.3458 5.86587 25.6266 8.30074 29.3675 8.89316C29.9446 8.98454 30.4006 9.4616 30.4006 10.0458V13.4282C30.4006 13.9988 29.9671 14.4838 29.3965 14.48C27.6486 14.4684 26.0086 13.9716 24.2661 13.0962C23.4943 12.7084 22.548 13.2421 22.548 14.1058V22.2881C22.548 35.1813 8.49489 39.2104 2.84509 29.9689C-0.662798 24.2231 1.29417 14.2873 11.9356 13.2451C12.5606 13.1839 13.0841 13.6903 13.0841 14.3182V17.9469C13.0841 18.4912 12.6881 18.9514 12.1561 19.0665C11.5563 19.1964 10.9513 19.36 10.3816 19.5544C7.79122 20.4316 6.32267 22.0739 6.7306 24.9708C7.51586 30.5198 17.6937 32.162 16.8472 21.3191V2.11485C16.8472 1.50412 17.3411 1.0084 17.9519 1.00616L19.6388 1H21.4792Z" stroke="url(#paint2_linear)" stroke-opacity="0.25" stroke-width="1.47826" stroke-linecap="round" stroke-linejoin="round"/>
<path fill-rule="evenodd" clip-rule="evenodd" d="M21.4792 1C22.0419 1 22.51 1.42372 22.6141 1.9768C23.3458 5.86587 25.6266 8.30074 29.3675 8.89316C29.9446 8.98454 30.4006 9.4616 30.4006 10.0458V13.4282C30.4006 13.9988 29.9671 14.4838 29.3965 14.48C27.6486 14.4684 26.0086 13.9716 24.2661 13.0962C23.4943 12.7084 22.548 13.2421 22.548 14.1058V22.2881C22.548 35.1813 8.49489 39.2104 2.84509 29.9689C-0.662798 24.2231 1.29417 14.2873 11.9356 13.2451C12.5606 13.1839 13.0841 13.6903 13.0841 14.3182V17.9469C13.0841 18.4912 12.6881 18.9514 12.1561 19.0665C11.5563 19.1964 10.9513 19.36 10.3816 19.5544C7.79122 20.4316 6.32267 22.0739 6.7306 24.9708C7.51586 30.5198 17.6937 32.162 16.8472 21.3191V2.11485C16.8472 1.50412 17.3411 1.0084 17.9519 1.00616L19.6388 1H21.4792Z" stroke="url(#paint3_linear)" stroke-opacity="0.25" stroke-width="1.47826" stroke-linecap="round" stroke-linejoin="round"/>
<defs>
<linearGradient id="paint0_linear" x1="31.3723" y1="1" x2="-2.28995" y2="6.76501" gradientUnits="userSpaceOnUse">
<stop stop-color="#117CB6"/>
<stop offset="1" stop-color="#117CB6" stop-opacity="0"/>
</linearGradient>
<linearGradient id="paint1_linear" x1="5.78454" y1="-25.35" x2="44.6426" y2="-11.4684" gradientUnits="userSpaceOnUse">
<stop stop-color="#FF5B7E"/>
<stop offset="1" stop-color="#FF5B7E" stop-opacity="0"/>
</linearGradient>
<linearGradient id="paint2_linear" x1="31.3723" y1="1" x2="-2.28995" y2="6.76501" gradientUnits="userSpaceOnUse">
<stop stop-color="#117CB6"/>
<stop offset="1" stop-color="#117CB6" stop-opacity="0"/>
</linearGradient>
<linearGradient id="paint3_linear" x1="5.78454" y1="-25.35" x2="44.6426" y2="-11.4684" gradientUnits="userSpaceOnUse">
<stop stop-color="#FF5B7E"/>
<stop offset="1" stop-color="#FF5B7E" stop-opacity="0"/>
</linearGradient>
</defs>
</svg>
