<svg fill="none" height="12" viewBox="0 0 12 12" width="12" xmlns="http://www.w3.org/2000/svg"><rect fill="#484848" height="11" rx="1.5" stroke="#484848" width="11" x=".5" y=".5"/><path d="m3.18689 3.64203c-.066-.022-.099-.06967-.099-.143 0-.044.00367-.077.011-.099.23467-.54267.594-.957 1.078-1.243s1.05967-.429 1.727-.429c.528 0 .99733.088 1.408.264.41067.16866.726.39966.946.693.22733.29333.341.616.341.968 0 .27133-.05133.517-.154.737-.10267.21266-.22733.396-.374.55s-.341.33733-.583.55c-.352.308-.616.583-.792.825s-.264.539-.264.891c0 .05866-.022.11-.066.154-.044.03666-.09533.055-.154.055h-.902c-.154 0-.231-.08434-.231-.253 0-.33734.05133-.64167.154-.913.11-.27134.23833-.49867.385-.682.154-.19067.34833-.40334.583-.638.25667-.264.44-.47667.55-.638.11733-.16867.176-.352.176-.55 0-.25667-.099-.462-.297-.616-.19067-.16134-.43633-.242-.737-.242-.29333 0-.56833.08433-.825.253-.25667.16133-.44.38133-.55.66-.02933.05866-.05867.09533-.088.11-.02933.00733-.077.00733-.143 0zm3.476 6.094c0 .09533-.02567.165-.077.209-.044.03666-.11733.05497-.22.05497h-1.309c-.088 0-.15033-.01831-.187-.05497-.02933-.03667-.044-.09534-.044-.176v-1.364c0-.132.05867-.198.176-.198h1.507c.10267 0 .154.05866.154.176z" fill="#fff"/></svg>