<svg width="22" height="22" fill="none" xmlns="http://www.w3.org/2000/svg"><path clip-rule="evenodd" d="M1 11C1 5.477 5.477 1 11 1s10 4.477 10 10-4.477 10-10 10S1 16.523 1 11z" stroke="#5C00C7" stroke-width="1.25" stroke-linecap="round" stroke-linejoin="round"/><path clip-rule="evenodd" d="M1 11C1 5.477 5.477 1 11 1s10 4.477 10 10-4.477 10-10 10S1 16.523 1 11z" stroke="url(#paint0_linear)" stroke-opacity=".25" stroke-width="1.25" stroke-linecap="round" stroke-linejoin="round"/><path clip-rule="evenodd" d="M1 11C1 5.477 5.477 1 11 1s10 4.477 10 10-4.477 10-10 10S1 16.523 1 11z" stroke="url(#paint1_linear)" stroke-opacity=".15" stroke-width="1.25" stroke-linecap="round" stroke-linejoin="round"/><path clip-rule="evenodd" d="M10.997 13.174a2.174 2.174 0 1 0 0-4.348 2.174 2.174 0 0 0 0 4.348z" stroke="#5C00C7" stroke-width="1.25" stroke-linecap="round" stroke-linejoin="round"/><path clip-rule="evenodd" d="M10.997 13.174a2.174 2.174 0 1 0 0-4.348 2.174 2.174 0 0 0 0 4.348z" stroke="url(#paint2_linear)" stroke-opacity=".25" stroke-width="1.25" stroke-linecap="round" stroke-linejoin="round"/><path clip-rule="evenodd" d="M10.997 13.174a2.174 2.174 0 1 0 0-4.348 2.174 2.174 0 0 0 0 4.348z" stroke="url(#paint3_linear)" stroke-opacity=".15" stroke-width="1.25" stroke-linecap="round" stroke-linejoin="round"/><path clip-rule="evenodd" d="M10.217 5.826a1.06 1.06 0 0 0 1.574 0l.505-.566a1.06 1.06 0 0 1 1.845.764l-.04.759a1.062 1.062 0 0 0 1.114 1.113l.758-.04a1.06 1.06 0 0 1 .764 1.846l-.563.508a1.059 1.059 0 0 0 0 1.574l.563.51a1.06 1.06 0 0 1-.764 1.844l-.758-.039a1.062 1.062 0 0 0-1.113 1.113l.039.758a1.06 1.06 0 0 1-1.845.765l-.509-.564a1.061 1.061 0 0 0-1.574 0l-.509.564a1.06 1.06 0 0 1-1.845-.764l.038-.759A1.06 1.06 0 0 0 6.785 14.1l-.758.04a1.06 1.06 0 0 1-.766-1.843l.563-.509a1.06 1.06 0 0 0 0-1.574l-.563-.509a1.06 1.06 0 0 1 .764-1.845l.758.04a1.06 1.06 0 0 0 1.113-1.114l-.039-.758a1.06 1.06 0 0 1 1.847-.767l.513.566z" stroke="#5C00C7" stroke-width="1.25" stroke-linecap="round" stroke-linejoin="round"/><path clip-rule="evenodd" d="M10.217 5.826a1.06 1.06 0 0 0 1.574 0l.505-.566a1.06 1.06 0 0 1 1.845.764l-.04.759a1.062 1.062 0 0 0 1.114 1.113l.758-.04a1.06 1.06 0 0 1 .764 1.846l-.563.508a1.059 1.059 0 0 0 0 1.574l.563.51a1.06 1.06 0 0 1-.764 1.844l-.758-.039a1.062 1.062 0 0 0-1.113 1.113l.039.758a1.06 1.06 0 0 1-1.845.765l-.509-.564a1.061 1.061 0 0 0-1.574 0l-.509.564a1.06 1.06 0 0 1-1.845-.764l.038-.759A1.06 1.06 0 0 0 6.785 14.1l-.758.04a1.06 1.06 0 0 1-.766-1.843l.563-.509a1.06 1.06 0 0 0 0-1.574l-.563-.509a1.06 1.06 0 0 1 .764-1.845l.758.04a1.06 1.06 0 0 0 1.113-1.114l-.039-.758a1.06 1.06 0 0 1 1.847-.767l.513.566z" stroke="url(#paint4_linear)" stroke-opacity=".25" stroke-width="1.25" stroke-linecap="round" stroke-linejoin="round"/><path clip-rule="evenodd" d="M10.217 5.826a1.06 1.06 0 0 0 1.574 0l.505-.566a1.06 1.06 0 0 1 1.845.764l-.04.759a1.062 1.062 0 0 0 1.114 1.113l.758-.04a1.06 1.06 0 0 1 .764 1.846l-.563.508a1.059 1.059 0 0 0 0 1.574l.563.51a1.06 1.06 0 0 1-.764 1.844l-.758-.039a1.062 1.062 0 0 0-1.113 1.113l.039.758a1.06 1.06 0 0 1-1.845.765l-.509-.564a1.061 1.061 0 0 0-1.574 0l-.509.564a1.06 1.06 0 0 1-1.845-.764l.038-.759A1.06 1.06 0 0 0 6.785 14.1l-.758.04a1.06 1.06 0 0 1-.766-1.843l.563-.509a1.06 1.06 0 0 0 0-1.574l-.563-.509a1.06 1.06 0 0 1 .764-1.845l.758.04a1.06 1.06 0 0 0 1.113-1.114l-.039-.758a1.06 1.06 0 0 1 1.847-.767l.513.566z" stroke="url(#paint5_linear)" stroke-opacity=".15" stroke-width="1.25" stroke-linecap="round" stroke-linejoin="round"/><defs><linearGradient id="paint0_linear" x1="22.744" y1="-3.5" x2="-2.235" y2="1.89" gradientUnits="userSpaceOnUse"><stop stop-color="#4300D3"/><stop offset="1" stop-color="#4300D3" stop-opacity="0"/></linearGradient><linearGradient id="paint1_linear" x1=".128" y1="1" x2="23.18" y2="6.588" gradientUnits="userSpaceOnUse"><stop stop-color="#FF0F13"/><stop offset="1" stop-color="#BF0020" stop-opacity="0"/></linearGradient><linearGradient id="paint2_linear" x1="13.551" y1="7.848" x2="8.12" y2="9.02" gradientUnits="userSpaceOnUse"><stop stop-color="#4300D3"/><stop offset="1" stop-color="#4300D3" stop-opacity="0"/></linearGradient><linearGradient id="paint3_linear" x1="8.634" y1="8.826" x2="13.645" y2="10.041" gradientUnits="userSpaceOnUse"><stop stop-color="#FF0F13"/><stop offset="1" stop-color="#BF0020" stop-opacity="0"/></linearGradient><linearGradient id="paint4_linear" x1="18.149" y1="2.169" x2="2.942" y2="5.45" gradientUnits="userSpaceOnUse"><stop stop-color="#4300D3"/><stop offset="1" stop-color="#4300D3" stop-opacity="0"/></linearGradient><linearGradient id="paint5_linear" x1="4.38" y1="4.908" x2="18.414" y2="8.31" gradientUnits="userSpaceOnUse"><stop stop-color="#FF0F13"/><stop offset="1" stop-color="#BF0020" stop-opacity="0"/></linearGradient></defs></svg>