<svg width="89" height="89" viewBox="0 0 89 89" fill="none" xmlns="http://www.w3.org/2000/svg">
<circle cx="44.5" cy="44.5" r="44.5" fill="#F2F2F2"/>
<path d="M55.353 37.327C58.4397 39.5413 62.2211 40.8442 66.3051 40.8442V32.9573C65.5322 32.9574 64.7613 32.8765 64.0051 32.7158V38.9239C59.9214 38.9239 56.1405 37.621 53.053 35.4068V51.5018C53.053 59.5533 46.5492 66.0799 38.5268 66.0799C35.5334 66.0799 32.7512 65.1717 30.4401 63.6141C33.0779 66.3209 36.7565 68 40.8263 68C48.8492 68 55.3534 61.4734 55.3534 53.4216V37.327H55.353ZM58.1904 29.37C56.6129 27.6405 55.5772 25.4054 55.353 22.9344V21.92H53.1735C53.7221 25.0606 55.5934 27.7438 58.1904 29.37ZM35.5142 57.4356C34.6329 56.2759 34.1566 54.8572 34.1587 53.3985C34.1587 49.7161 37.1336 46.7303 40.8037 46.7303C41.4877 46.7301 42.1675 46.8352 42.8194 47.0428V38.9796C42.0576 38.8748 41.2888 38.8303 40.5203 38.8466V45.1226C39.868 44.9151 39.1878 44.8096 38.5037 44.8103C34.8335 44.8103 31.8589 47.7958 31.8589 51.4787C31.8589 54.0828 33.3458 56.3374 35.5142 57.4356Z" fill="#FF004F"/>
<path d="M53.0529 35.4067C56.1404 37.6209 59.9213 38.9237 64.005 38.9237V32.7156C61.7255 32.2283 59.7075 31.0328 58.1903 29.37C55.5931 27.7436 53.722 25.0604 53.1733 21.92H47.4482V53.4213C47.4352 57.0937 44.4655 60.0673 40.8032 60.0673C38.6451 60.0673 36.7279 59.0349 35.5136 57.4356C33.3454 56.3374 31.8585 54.0827 31.8585 51.4789C31.8585 47.7963 34.8331 44.8105 38.5032 44.8105C39.2064 44.8105 39.8842 44.9204 40.5199 45.1228V38.8468C32.6384 39.0102 26.2998 45.473 26.2998 53.4214C26.2998 57.3892 27.8783 60.9861 30.4401 63.6143C32.7513 65.1717 35.5335 66.08 38.5268 66.08C46.5494 66.08 53.0531 59.5531 53.0531 51.5018V35.4067H53.0529Z" fill="black"/>
<path d="M64.0051 32.7156V31.037C61.9495 31.0401 59.9343 30.4624 58.1903 29.3699C59.7342 31.0661 61.7671 32.2357 64.0051 32.7156ZM53.1734 21.92C53.1211 21.6198 53.0809 21.3177 53.053 21.0144V20H45.148V51.5016C45.1354 55.1735 42.1658 58.1471 38.5033 58.1471C37.428 58.1471 36.4128 57.891 35.5137 57.4358C36.7279 59.0349 38.6452 60.0671 40.8033 60.0671C44.4652 60.0671 47.4354 57.0938 47.4482 53.4214V21.92H53.1734ZM40.5203 38.8468V37.0598C39.8598 36.9692 39.1938 36.9237 38.5271 36.924C30.5038 36.9239 24 43.4508 24 51.5016C24 56.5491 26.5561 60.9974 30.4403 63.614C27.8785 60.986 26.3 57.3889 26.3 53.4213C26.3 45.473 32.6385 39.0102 40.5203 38.8468Z" fill="#00F2EA"/>
</svg>
