<svg fill="none" height="19" viewBox="0 0 21 19" width="21" xmlns="http://www.w3.org/2000/svg"><path d="m19.9688 6.50781c.3515-.35156.3515-.8789 0-1.23047l-5.0626-4.781246c-.5273-.49218775-1.4062-.140625-1.4062.632816v2.53125c-5.16797 0-9.28125 1.01953-9.28125 6.08203 0 2.00391 1.23047 4.00781 2.60156 5.02731.42188.3164 1.01953-.0703.87891-.5976-1.44141-4.78128.70312-6.01174 5.80078-6.01174v2.49604c0 .7735.8789 1.125 1.4062.6329zm-6.4688 7.10159v2.3906h-11.25v-11.25h1.75781c.10547 0 .2461-.03516.31641-.10547.52734-.5625 1.125-.98437 1.79297-1.33594.38672-.21093.24609-.80859-.17578-.80859h-4.25391c-.949219 0-1.6875.77344-1.6875 1.6875v12.375c0 .9492.738281 1.6875 1.6875 1.6875h12.375c.9141 0 1.6875-.7383 1.6875-1.6875v-3.0937c0-.3165-.3164-.4922-.5977-.4219-.2109.1054-.5976.1758-.8085.1758-.1055 0-.2813-.0352-.3868-.0352-.2461-.0352-.457.1406-.457.4219z" fill="#117cb6"/></svg>