<svg width="89" height="89" viewBox="0 0 89 89" fill="none" xmlns="http://www.w3.org/2000/svg">
<circle cx="44.5" cy="44.5" r="44.5" fill="#EBF5FB"/>
<path d="M37.095 63.5014C55.2083 63.5014 65.1155 48.4946 65.1155 35.4809C65.1155 35.0546 65.1155 34.6303 65.0867 34.2079C67.0141 32.8138 68.6778 31.0877 70 29.1103C68.2028 29.9071 66.2961 30.4294 64.3437 30.6598C66.3996 29.4291 67.9383 27.4933 68.6733 25.2127C66.7402 26.3599 64.6253 27.1684 62.4198 27.6031C60.935 26.0243 58.9712 24.9788 56.8324 24.6285C54.6935 24.2782 52.4988 24.6426 50.5879 25.6652C48.677 26.6879 47.1564 28.3119 46.2615 30.2858C45.3665 32.2598 45.1471 34.4737 45.6371 36.5849C41.7218 36.3885 37.8915 35.371 34.3949 33.5983C30.8983 31.8257 27.8135 29.3376 25.3408 26.2956C24.0815 28.4636 23.6957 31.0301 24.2622 33.4725C24.8287 35.9148 26.3047 38.0495 28.3898 39.4418C26.8225 39.3959 25.2893 38.9731 23.92 38.2092V38.334C23.9206 40.6077 24.7077 42.8112 26.1477 44.5707C27.5878 46.3303 29.5921 47.5375 31.8208 47.9878C30.371 48.3832 28.8497 48.441 27.3741 48.1567C28.0036 50.1134 29.2289 51.8244 30.8785 53.0506C32.5281 54.2768 34.5197 54.9569 36.5747 54.9958C34.5329 56.6007 32.1946 57.7873 29.6937 58.4878C27.1929 59.1882 24.5784 59.3886 22 59.0777C26.5037 61.9677 31.7438 63.5007 37.095 63.4937" fill="#1DA1F2"/>
</svg>
