<svg width="89" height="89" viewBox="0 0 89 89" fill="none" xmlns="http://www.w3.org/2000/svg">
<circle cx="44.5" cy="44.5" r="44.5" fill="#EDEDED"/>
<path d="M45 24.3219C51.4125 24.3219 52.1719 24.35 54.6938 24.4625C57.0375 24.5656 58.3031 24.9594 59.1469 25.2875C60.2625 25.7188 61.0688 26.2438 61.9031 27.0781C62.7469 27.9219 63.2625 28.7188 63.6938 29.8344C64.0219 30.6781 64.4156 31.9531 64.5188 34.2875C64.6313 36.8187 64.6594 37.5781 64.6594 43.9813C64.6594 50.3938 64.6313 51.1531 64.5188 53.675C64.4156 56.0188 64.0219 57.2844 63.6938 58.1281C63.2625 59.2438 62.7375 60.05 61.9031 60.8844C61.0594 61.7281 60.2625 62.2438 59.1469 62.675C58.3031 63.0031 57.0281 63.3969 54.6938 63.5C52.1625 63.6125 51.4031 63.6406 45 63.6406C38.5875 63.6406 37.8281 63.6125 35.3063 63.5C32.9625 63.3969 31.6969 63.0031 30.8531 62.675C29.7375 62.2438 28.9313 61.7188 28.0969 60.8844C27.2531 60.0406 26.7375 59.2438 26.3063 58.1281C25.9781 57.2844 25.5844 56.0094 25.4813 53.675C25.3688 51.1438 25.3406 50.3844 25.3406 43.9813C25.3406 37.5688 25.3688 36.8094 25.4813 34.2875C25.5844 31.9437 25.9781 30.6781 26.3063 29.8344C26.7375 28.7188 27.2625 27.9125 28.0969 27.0781C28.9406 26.2344 29.7375 25.7188 30.8531 25.2875C31.6969 24.9594 32.9719 24.5656 35.3063 24.4625C37.8281 24.35 38.5875 24.3219 45 24.3219ZM45 20C38.4844 20 37.6688 20.0281 35.1094 20.1406C32.5594 20.2531 30.8063 20.6656 29.2875 21.2562C27.7031 21.875 26.3625 22.6906 25.0313 24.0312C23.6906 25.3625 22.875 26.7031 22.2563 28.2781C21.6656 29.8063 21.2531 31.55 21.1406 34.1C21.0281 36.6687 21 37.4844 21 44C21 50.5156 21.0281 51.3312 21.1406 53.8906C21.2531 56.4406 21.6656 58.1938 22.2563 59.7125C22.875 61.2969 23.6906 62.6375 25.0313 63.9688C26.3625 65.3 27.7031 66.125 29.2781 66.7344C30.8063 67.325 32.55 67.7375 35.1 67.85C37.6594 67.9625 38.475 67.9906 44.9906 67.9906C51.5063 67.9906 52.3219 67.9625 54.8813 67.85C57.4313 67.7375 59.1844 67.325 60.7031 66.7344C62.2781 66.125 63.6188 65.3 64.95 63.9688C66.2812 62.6375 67.1063 61.2969 67.7156 59.7219C68.3063 58.1938 68.7188 56.45 68.8313 53.9C68.9438 51.3406 68.9719 50.525 68.9719 44.0094C68.9719 37.4938 68.9438 36.6781 68.8313 34.1188C68.7188 31.5688 68.3063 29.8156 67.7156 28.2969C67.125 26.7031 66.3094 25.3625 64.9688 24.0312C63.6375 22.7 62.2969 21.875 60.7219 21.2656C59.1938 20.675 57.45 20.2625 54.9 20.15C52.3313 20.0281 51.5156 20 45 20Z" fill="#000100"/>
<path d="M45 31.6719C38.1938 31.6719 32.6719 37.1938 32.6719 44C32.6719 50.8062 38.1938 56.3281 45 56.3281C51.8062 56.3281 57.3281 50.8062 57.3281 44C57.3281 37.1938 51.8062 31.6719 45 31.6719ZM45 51.9969C40.5844 51.9969 37.0031 48.4156 37.0031 44C37.0031 39.5844 40.5844 36.0031 45 36.0031C49.4156 36.0031 52.9969 39.5844 52.9969 44C52.9969 48.4156 49.4156 51.9969 45 51.9969Z" fill="#000100"/>
<path d="M60.6937 31.1844C60.6937 32.7782 59.4 34.0625 57.8156 34.0625C56.2219 34.0625 54.9375 32.7688 54.9375 31.1844C54.9375 29.5907 56.2313 28.3063 57.8156 28.3063C59.4 28.3063 60.6937 29.6 60.6937 31.1844Z" fill="#000100"/>
</svg>
