<svg fill="none" height="20" viewBox="0 0 20 20" width="20" xmlns="http://www.w3.org/2000/svg" xmlns:xlink="http://www.w3.org/1999/xlink"><linearGradient id="a"><stop offset="0" stop-color="#0004d6"/><stop offset="1" stop-color="#0004d6" stop-opacity="0"/></linearGradient><linearGradient id="b" gradientUnits="userSpaceOnUse" x1="16.824" x2="2.28708" xlink:href="#a" y1="7.25" y2="10.696"/><linearGradient id="c"><stop offset="0" stop-color="#ff0f13"/><stop offset="1" stop-color="#bf0020" stop-opacity="0"/></linearGradient><linearGradient id="d" gradientUnits="userSpaceOnUse" x1="2.93302" x2="17.5945" xlink:href="#c" y1="7.25" y2="11.4503"/><linearGradient id="e" gradientUnits="userSpaceOnUse" x1="9.73175" x2="8.78719" xlink:href="#a" y1="3.14773" y2="3.35794"/><linearGradient id="f" gradientUnits="userSpaceOnUse" x1="9.96109" x2="11.2826" xlink:href="#c" y1="1.5" y2="1.48219"/><linearGradient id="g" gradientUnits="userSpaceOnUse" x1="13.3138" x2="6.96976" xlink:href="#a" y1="1.5" y2="4.16069"/><linearGradient id="h" gradientUnits="userSpaceOnUse" x1="6.56461" x2="12.6973" xlink:href="#c" y1="1.5" y2="4.6084"/><clipPath id="i"><path d="m0 0h20v20h-20z"/></clipPath><g clip-path="url(#i)" stroke-linecap="round" stroke-linejoin="round" stroke-width="2"><path d="m14.1364 7.25h1.1818c.6527 0 1.1818.49249 1.1818 1.1v8.8c0 .6075-.5291 1.1-1.1818 1.1h-10.63638c-.6527 0-1.18182-.4925-1.18182-1.1v-8.8c0-.60751.52912-1.1 1.18182-1.1h1.18182" stroke="#4b00d1"/><path d="m14.1364 7.25h1.1818c.6527 0 1.1818.49249 1.1818 1.1v8.8c0 .6075-.5291 1.1-1.1818 1.1h-10.63638c-.6527 0-1.18182-.4925-1.18182-1.1v-8.8c0-.60751.52912-1.1 1.18182-1.1h1.18182" stroke="url(#b)" stroke-opacity=".25"/><path d="m14.1364 7.25h1.1818c.6527 0 1.1818.49249 1.1818 1.1v8.8c0 .6075-.5291 1.1-1.1818 1.1h-10.63638c-.6527 0-1.18182-.4925-1.18182-1.1v-8.8c0-.60751.52912-1.1 1.18182-1.1h1.18182" stroke="url(#d)" stroke-opacity=".25"/><path d="m9.9978 1.5v8.45835" stroke="#4b00d1"/><path d="m9.9978 1.5v8.45835" stroke="url(#e)" stroke-opacity=".1"/><path d="m9.9978 1.5v8.45835" stroke="url(#f)" stroke-opacity=".1"/><path d="m6.84009 4.52084 3.15814-3.02084 3.15817 3.02084" stroke="#4b00d1"/><g stroke-opacity=".25"><path d="m6.84009 4.52084 3.15814-3.02084 3.15817 3.02084" stroke="url(#g)"/><path d="m6.84009 4.52084 3.15814-3.02084 3.15817 3.02084" stroke="url(#h)"/></g></g></svg>