<svg width="89" height="89" viewBox="0 0 89 89" fill="none" xmlns="http://www.w3.org/2000/svg">
<circle cx="44.5" cy="44.5" r="44.5" fill="#EBF0F7"/>
<path d="M69 44C69 30.7452 58.2548 20 45 20C31.7452 20 21 30.7452 21 44C21 55.9789 29.7764 65.908 41.25 67.7084V50.9375H35.1562V44H41.25V38.7125C41.25 32.6975 44.8331 29.375 50.3152 29.375C52.9402 29.375 55.6875 29.8438 55.6875 29.8438V35.75H52.6613C49.68 35.75 48.75 37.6002 48.75 39.5V44H55.4062L54.3422 50.9375H48.75V67.7084C60.2236 65.908 69 55.9789 69 44Z" fill="#1877F2"/>
<path d="M54.3422 50.9375L55.4062 44H48.75V39.5C48.75 37.602 49.68 35.75 52.6613 35.75H55.6875V29.8438C55.6875 29.8438 52.9411 29.375 50.3152 29.375C44.8331 29.375 41.25 32.6975 41.25 38.7125V44H35.1562V50.9375H41.25V67.7084C43.7349 68.0972 46.2651 68.0972 48.75 67.7084V50.9375H54.3422Z" fill="white"/>
</svg>
