<svg width="34" height="35" viewBox="0 0 34 35" fill="none" xmlns="http://www.w3.org/2000/svg">
<path d="M29.7678 25.8199L29.7998 25.8134L32.8416 25.1967C32.9395 25.1649 33.0264 25.1056 33.0916 25.0256C33.1614 24.94 33.203 24.835 33.2108 24.7249C33.2187 24.6148 33.1923 24.5049 33.1353 24.4104C33.0783 24.3158 32.9935 24.2412 32.8925 24.1966L32.88 24.1911L32.8801 24.191C31.3296 23.4726 29.8601 22.591 28.4965 21.561M29.7678 25.8199L28.9408 20.9703M29.7678 25.8199L29.7365 25.8292M29.7678 25.8199L29.7365 25.8292M28.4965 21.561C28.4961 21.5607 28.4957 21.5604 28.4953 21.5601L28.9408 20.9703M28.4965 21.561C28.4969 21.5613 28.4974 21.5617 28.4978 21.562L28.9408 20.9703M28.4965 21.561C28.1338 21.2892 27.8428 20.9332 27.6485 20.5237L28.3162 20.2068M28.9408 20.9703C28.6737 20.7703 28.4593 20.5083 28.3162 20.2068M28.3162 20.2068L27.6484 20.5237C27.4539 20.1138 27.3621 19.6626 27.3811 19.2092C27.4 18.7558 27.5292 18.3139 27.7573 17.9216C27.9854 17.5295 28.3055 17.1989 28.6899 16.9582M28.3162 20.2068L28.6899 16.9582M28.6899 16.9582C28.6901 16.9581 28.6903 16.958 28.6905 16.9579L30.5566 15.7845C30.557 15.7843 30.5573 15.784 30.5577 15.7838C30.8537 15.5957 31.063 15.2978 31.1397 14.9555C31.2164 14.6128 31.1538 14.2536 30.9658 13.957C30.7777 13.6604 30.4795 13.4507 30.1368 13.374C29.7942 13.2973 29.4353 13.3597 29.1388 13.5476C29.1386 13.5477 29.1385 13.5478 29.1383 13.5479L27.9404 14.3089C27.7517 14.4328 27.5329 14.5033 27.3072 14.5128C27.0779 14.5224 26.8505 14.4687 26.6498 14.3576L27.0077 13.711L26.6498 14.3576C26.449 14.2465 26.2828 14.0823 26.1693 13.8829L26.8116 13.5171L26.1693 13.8829C26.0579 13.6874 26.0015 13.4656 26.0058 13.2408V9.38257C25.9162 7.18229 24.98 5.10146 23.3925 3.5748C21.8016 2.04486 19.6801 1.1903 17.4729 1.1903C15.2657 1.1903 13.1442 2.04486 11.5533 3.5748C9.96578 5.10146 9.0296 7.18229 8.93993 9.38259V13.2267C8.94423 13.4514 8.88782 13.6733 8.77651 13.8687M28.6899 16.9582L8.77651 13.8687M8.77651 13.8687C8.66298 14.0681 8.49673 14.2323 8.29601 14.3435L7.93803 13.6968L8.296 14.3435C8.09528 14.4546 7.86783 14.5083 7.63859 14.4986C7.41291 14.4892 7.19409 14.4187 7.00538 14.2947L5.80747 13.5337C5.80735 13.5336 5.80723 13.5336 5.80711 13.5335C5.51059 13.3456 5.15158 13.2831 4.809 13.3598C4.46629 13.4365 4.16809 13.6463 3.98001 13.9428C3.79192 14.2394 3.72936 14.5986 3.80609 14.9413C3.88273 15.2836 4.09204 15.5815 4.38806 15.7696C4.38842 15.7699 4.38878 15.7701 4.38914 15.7703L6.25531 16.9437C6.25559 16.9439 6.25588 16.9441 6.25616 16.9443C6.64049 17.1849 6.96047 17.5155 7.18844 17.9074C7.41659 18.2997 7.54574 18.7416 7.56471 19.195C7.58368 19.6484 7.4919 20.0996 7.29732 20.5096C7.10297 20.919 6.81189 21.2751 6.44922 21.5469C5.08566 22.5768 3.61618 23.4584 2.06569 24.1768L2.04548 24.1862L2.02473 24.1943C1.92093 24.235 1.83241 24.3071 1.7715 24.4004C1.71058 24.4938 1.68031 24.6039 1.6849 24.7153C1.68948 24.8267 1.7287 24.9339 1.79709 25.0219C1.86014 25.1031 1.94509 25.1643 2.04167 25.1984L5.04816 25.8137L5.07851 25.8199L5.10823 25.8287C5.60647 25.975 6.02895 26.3081 6.28749 26.7584C6.54602 27.2088 6.62063 27.7416 6.49574 28.2456L6.4954 28.247C6.44534 28.4474 6.44595 28.6571 6.49719 28.8572C6.54842 29.0573 6.64866 29.2414 6.78887 29.3931C6.92908 29.5448 7.10484 29.6592 7.30029 29.7259C7.49575 29.7927 7.70475 29.8098 7.90846 29.7756L7.91277 29.7748L8.87299 29.6195C8.87339 29.6195 8.87379 29.6194 8.87419 29.6193C9.6817 29.4854 10.5095 29.546 11.2889 29.7962C12.0687 30.0465 12.7774 30.4794 13.3562 31.0588L13.3778 31.0804L13.3975 31.1037C14.4257 32.3186 15.8622 33.1142 17.4351 33.3423C19.0006 33.1052 20.4275 32.3057 21.4474 31.0916L21.4679 31.0672L21.4904 31.0446C22.0692 30.4652 22.7779 30.0324 23.5577 29.782C24.337 29.5318 25.1649 29.4712 25.9723 29.6052C25.9728 29.6052 25.9732 29.6053 25.9736 29.6054L26.9338 29.7607L26.9382 29.7614C27.1418 29.7956 27.3509 29.7785 27.5463 29.7118L27.7852 30.4112M8.77651 13.8687L27.7852 30.4112M29.7365 25.8292C29.2431 25.9755 28.8244 26.3051 28.5664 26.7504C28.3083 27.1958 28.2306 27.7229 28.349 28.2238L28.349 28.2238L28.3512 28.2328C28.4013 28.4332 28.4007 28.6429 28.3494 28.843C28.2982 29.0431 28.1979 29.2273 28.0577 29.3789C27.9175 29.5306 27.7418 29.645 27.5463 29.7118L27.7852 30.4112M29.7365 25.8292L27.7852 30.4112M5.7783 28.0678C5.6985 28.3873 5.69948 28.7215 5.78116 29.0405C5.86283 29.3595 6.02262 29.6531 6.24612 29.8948C6.46961 30.1366 6.74979 30.3189 7.06136 30.4254C7.37293 30.5318 7.7061 30.559 8.0308 30.5045L8.99414 30.3487C9.68596 30.2337 10.3952 30.2856 11.063 30.5C11.7307 30.7143 12.3377 31.085 12.8333 31.5812C14.0017 32.9618 15.6438 33.8561 17.4375 34.0887C19.223 33.8457 20.8542 32.9468 22.0133 31.567C22.5089 31.0708 23.1159 30.7002 23.7836 30.4858C24.4514 30.2714 25.1606 30.2196 25.8525 30.3345L5.7783 28.0678ZM5.7783 28.0678C5.85737 27.7488 5.81014 27.4115 5.64648 27.1264C5.48282 26.8413 5.21537 26.6305 4.89997 26.5378L1.85414 25.9145C1.60004 25.8383 1.37604 25.6848 1.21333 25.4753C1.05062 25.2658 0.957306 25.0107 0.946392 24.7457C0.935479 24.4806 1.00751 24.2188 1.15244 23.9966L5.7783 28.0678Z" fill="#6E26DB" fill-opacity="0.1"/>
<path d="M29.7678 25.8199L29.7998 25.8134L32.8416 25.1967C32.9395 25.1649 33.0264 25.1056 33.0916 25.0256C33.1614 24.94 33.203 24.835 33.2108 24.7249C33.2187 24.6148 33.1923 24.5049 33.1353 24.4104C33.0783 24.3158 32.9935 24.2412 32.8925 24.1966L32.88 24.1911L32.8801 24.191C31.3296 23.4726 29.8601 22.591 28.4965 21.561M29.7678 25.8199L28.9408 20.9703M29.7678 25.8199L29.7365 25.8292M29.7678 25.8199L29.7365 25.8292M28.4965 21.561C28.4961 21.5607 28.4957 21.5604 28.4953 21.5601L28.9408 20.9703M28.4965 21.561C28.4969 21.5613 28.4974 21.5617 28.4978 21.562L28.9408 20.9703M28.4965 21.561C28.1338 21.2892 27.8428 20.9332 27.6485 20.5237L28.3162 20.2068M28.9408 20.9703C28.6737 20.7703 28.4593 20.5083 28.3162 20.2068M28.3162 20.2068L27.6484 20.5237C27.4539 20.1138 27.3621 19.6626 27.3811 19.2092C27.4 18.7558 27.5292 18.3139 27.7573 17.9216C27.9854 17.5295 28.3055 17.1989 28.6899 16.9582M28.3162 20.2068L28.6899 16.9582M28.6899 16.9582C28.6901 16.9581 28.6903 16.958 28.6905 16.9579L30.5566 15.7845C30.557 15.7843 30.5573 15.784 30.5577 15.7838C30.8537 15.5957 31.063 15.2978 31.1397 14.9555C31.2164 14.6128 31.1538 14.2536 30.9658 13.957C30.7777 13.6604 30.4795 13.4507 30.1368 13.374C29.7942 13.2973 29.4353 13.3597 29.1388 13.5476C29.1386 13.5477 29.1385 13.5478 29.1383 13.5479L27.9404 14.3089C27.7517 14.4328 27.5329 14.5033 27.3072 14.5128C27.0779 14.5224 26.8505 14.4687 26.6498 14.3576L27.0077 13.711L26.6498 14.3576C26.449 14.2465 26.2828 14.0823 26.1693 13.8829L26.8116 13.5171L26.1693 13.8829C26.0579 13.6874 26.0015 13.4656 26.0058 13.2408V9.38257C25.9162 7.18229 24.98 5.10146 23.3925 3.5748C21.8016 2.04486 19.6801 1.1903 17.4729 1.1903C15.2657 1.1903 13.1442 2.04486 11.5533 3.5748C9.96578 5.10146 9.0296 7.18229 8.93993 9.38259V13.2267C8.94423 13.4514 8.88782 13.6733 8.77651 13.8687M28.6899 16.9582L8.77651 13.8687M8.77651 13.8687C8.66298 14.0681 8.49673 14.2323 8.29601 14.3435L7.93803 13.6968L8.296 14.3435C8.09528 14.4546 7.86783 14.5083 7.63859 14.4986C7.41291 14.4892 7.19409 14.4187 7.00538 14.2947L5.80747 13.5337C5.80735 13.5336 5.80723 13.5336 5.80711 13.5335C5.51059 13.3456 5.15158 13.2831 4.809 13.3598C4.46629 13.4365 4.16809 13.6463 3.98001 13.9428C3.79192 14.2394 3.72936 14.5986 3.80609 14.9413C3.88273 15.2836 4.09204 15.5815 4.38806 15.7696C4.38842 15.7699 4.38878 15.7701 4.38914 15.7703L6.25531 16.9437C6.25559 16.9439 6.25588 16.9441 6.25616 16.9443C6.64049 17.1849 6.96047 17.5155 7.18844 17.9074C7.41659 18.2997 7.54574 18.7416 7.56471 19.195C7.58368 19.6484 7.4919 20.0996 7.29732 20.5096C7.10297 20.919 6.81189 21.2751 6.44922 21.5469C5.08566 22.5768 3.61618 23.4584 2.06569 24.1768L2.04548 24.1862L2.02473 24.1943C1.92093 24.235 1.83241 24.3071 1.7715 24.4004C1.71058 24.4938 1.68031 24.6039 1.6849 24.7153C1.68948 24.8267 1.7287 24.9339 1.79709 25.0219C1.86014 25.1031 1.94509 25.1643 2.04167 25.1984L5.04816 25.8137L5.07851 25.8199L5.10823 25.8287C5.60647 25.975 6.02895 26.3081 6.28749 26.7584C6.54602 27.2088 6.62063 27.7416 6.49574 28.2456L6.4954 28.247C6.44534 28.4474 6.44595 28.6571 6.49719 28.8572C6.54842 29.0573 6.64866 29.2414 6.78887 29.3931C6.92908 29.5448 7.10484 29.6592 7.30029 29.7259C7.49575 29.7927 7.70475 29.8098 7.90846 29.7756L7.91277 29.7748L8.87299 29.6195C8.87339 29.6195 8.87379 29.6194 8.87419 29.6193C9.6817 29.4854 10.5095 29.546 11.2889 29.7962C12.0687 30.0465 12.7774 30.4794 13.3562 31.0588L13.3778 31.0804L13.3975 31.1037C14.4257 32.3186 15.8622 33.1142 17.4351 33.3423C19.0006 33.1052 20.4275 32.3057 21.4474 31.0916L21.4679 31.0672L21.4904 31.0446C22.0692 30.4652 22.7779 30.0324 23.5577 29.782C24.337 29.5318 25.1649 29.4712 25.9723 29.6052C25.9728 29.6052 25.9732 29.6053 25.9736 29.6054L26.9338 29.7607L26.9382 29.7614C27.1418 29.7956 27.3509 29.7785 27.5463 29.7118L27.7852 30.4112M8.77651 13.8687L27.7852 30.4112M29.7365 25.8292C29.2431 25.9755 28.8244 26.3051 28.5664 26.7504C28.3083 27.1958 28.2306 27.7229 28.349 28.2238L28.349 28.2238L28.3512 28.2328C28.4013 28.4332 28.4007 28.6429 28.3494 28.843C28.2982 29.0431 28.1979 29.2273 28.0577 29.3789C27.9175 29.5306 27.7418 29.645 27.5463 29.7118L27.7852 30.4112M29.7365 25.8292L27.7852 30.4112M5.7783 28.0678C5.6985 28.3873 5.69948 28.7215 5.78116 29.0405C5.86283 29.3595 6.02262 29.6531 6.24612 29.8948C6.46961 30.1366 6.74979 30.3189 7.06136 30.4254C7.37293 30.5318 7.7061 30.559 8.0308 30.5045L8.99414 30.3487C9.68596 30.2337 10.3952 30.2856 11.063 30.5C11.7307 30.7143 12.3377 31.085 12.8333 31.5812C14.0017 32.9618 15.6438 33.8561 17.4375 34.0887C19.223 33.8457 20.8542 32.9468 22.0133 31.567C22.5089 31.0708 23.1159 30.7002 23.7836 30.4858C24.4514 30.2714 25.1606 30.2196 25.8525 30.3345L5.7783 28.0678ZM5.7783 28.0678C5.85737 27.7488 5.81014 27.4115 5.64648 27.1264C5.48282 26.8413 5.21537 26.6305 4.89997 26.5378L1.85414 25.9145C1.60004 25.8383 1.37604 25.6848 1.21333 25.4753C1.05062 25.2658 0.957306 25.0107 0.946392 24.7457C0.935479 24.4806 1.00751 24.2188 1.15244 23.9966L5.7783 28.0678Z" fill="url(#paint0_linear)" fill-opacity="0.05"/>
<path d="M29.7678 25.8199L29.7998 25.8134L32.8416 25.1967C32.9395 25.1649 33.0264 25.1056 33.0916 25.0256C33.1614 24.94 33.203 24.835 33.2108 24.7249C33.2187 24.6148 33.1923 24.5049 33.1353 24.4104C33.0783 24.3158 32.9935 24.2412 32.8925 24.1966L32.88 24.1911L32.8801 24.191C31.3296 23.4726 29.8601 22.591 28.4965 21.561M29.7678 25.8199L28.9408 20.9703M29.7678 25.8199L29.7365 25.8292M29.7678 25.8199L29.7365 25.8292M28.4965 21.561C28.4961 21.5607 28.4957 21.5604 28.4953 21.5601L28.9408 20.9703M28.4965 21.561C28.4969 21.5613 28.4974 21.5617 28.4978 21.562L28.9408 20.9703M28.4965 21.561C28.1338 21.2892 27.8428 20.9332 27.6485 20.5237L28.3162 20.2068M28.9408 20.9703C28.6737 20.7703 28.4593 20.5083 28.3162 20.2068M28.3162 20.2068L27.6484 20.5237C27.4539 20.1138 27.3621 19.6626 27.3811 19.2092C27.4 18.7558 27.5292 18.3139 27.7573 17.9216C27.9854 17.5295 28.3055 17.1989 28.6899 16.9582M28.3162 20.2068L28.6899 16.9582M28.6899 16.9582C28.6901 16.9581 28.6903 16.958 28.6905 16.9579L30.5566 15.7845C30.557 15.7843 30.5573 15.784 30.5577 15.7838C30.8537 15.5957 31.063 15.2978 31.1397 14.9555C31.2164 14.6128 31.1538 14.2536 30.9658 13.957C30.7777 13.6604 30.4795 13.4507 30.1368 13.374C29.7942 13.2973 29.4353 13.3597 29.1388 13.5476C29.1386 13.5477 29.1385 13.5478 29.1383 13.5479L27.9404 14.3089C27.7517 14.4328 27.5329 14.5033 27.3072 14.5128C27.0779 14.5224 26.8505 14.4687 26.6498 14.3576L27.0077 13.711L26.6498 14.3576C26.449 14.2465 26.2828 14.0823 26.1693 13.8829L26.8116 13.5171L26.1693 13.8829C26.0579 13.6874 26.0015 13.4656 26.0058 13.2408V9.38257C25.9162 7.18229 24.98 5.10146 23.3925 3.5748C21.8016 2.04486 19.6801 1.1903 17.4729 1.1903C15.2657 1.1903 13.1442 2.04486 11.5533 3.5748C9.96578 5.10146 9.0296 7.18229 8.93993 9.38259V13.2267C8.94423 13.4514 8.88782 13.6733 8.77651 13.8687M28.6899 16.9582L8.77651 13.8687M8.77651 13.8687C8.66298 14.0681 8.49673 14.2323 8.29601 14.3435L7.93803 13.6968L8.296 14.3435C8.09528 14.4546 7.86783 14.5083 7.63859 14.4986C7.41291 14.4892 7.19409 14.4187 7.00538 14.2947L5.80747 13.5337C5.80735 13.5336 5.80723 13.5336 5.80711 13.5335C5.51059 13.3456 5.15158 13.2831 4.809 13.3598C4.46629 13.4365 4.16809 13.6463 3.98001 13.9428C3.79192 14.2394 3.72936 14.5986 3.80609 14.9413C3.88273 15.2836 4.09204 15.5815 4.38806 15.7696C4.38842 15.7699 4.38878 15.7701 4.38914 15.7703L6.25531 16.9437C6.25559 16.9439 6.25588 16.9441 6.25616 16.9443C6.64049 17.1849 6.96047 17.5155 7.18844 17.9074C7.41659 18.2997 7.54574 18.7416 7.56471 19.195C7.58368 19.6484 7.4919 20.0996 7.29732 20.5096C7.10297 20.919 6.81189 21.2751 6.44922 21.5469C5.08566 22.5768 3.61618 23.4584 2.06569 24.1768L2.04548 24.1862L2.02473 24.1943C1.92093 24.235 1.83241 24.3071 1.7715 24.4004C1.71058 24.4938 1.68031 24.6039 1.6849 24.7153C1.68948 24.8267 1.7287 24.9339 1.79709 25.0219C1.86014 25.1031 1.94509 25.1643 2.04167 25.1984L5.04816 25.8137L5.07851 25.8199L5.10823 25.8287C5.60647 25.975 6.02895 26.3081 6.28749 26.7584C6.54602 27.2088 6.62063 27.7416 6.49574 28.2456L6.4954 28.247C6.44534 28.4474 6.44595 28.6571 6.49719 28.8572C6.54842 29.0573 6.64866 29.2414 6.78887 29.3931C6.92908 29.5448 7.10484 29.6592 7.30029 29.7259C7.49575 29.7927 7.70475 29.8098 7.90846 29.7756L7.91277 29.7748L8.87299 29.6195C8.87339 29.6195 8.87379 29.6194 8.87419 29.6193C9.6817 29.4854 10.5095 29.546 11.2889 29.7962C12.0687 30.0465 12.7774 30.4794 13.3562 31.0588L13.3778 31.0804L13.3975 31.1037C14.4257 32.3186 15.8622 33.1142 17.4351 33.3423C19.0006 33.1052 20.4275 32.3057 21.4474 31.0916L21.4679 31.0672L21.4904 31.0446C22.0692 30.4652 22.7779 30.0324 23.5577 29.782C24.337 29.5318 25.1649 29.4712 25.9723 29.6052C25.9728 29.6052 25.9732 29.6053 25.9736 29.6054L26.9338 29.7607L26.9382 29.7614C27.1418 29.7956 27.3509 29.7785 27.5463 29.7118L27.7852 30.4112M8.77651 13.8687L27.7852 30.4112M29.7365 25.8292C29.2431 25.9755 28.8244 26.3051 28.5664 26.7504C28.3083 27.1958 28.2306 27.7229 28.349 28.2238L28.349 28.2238L28.3512 28.2328C28.4013 28.4332 28.4007 28.6429 28.3494 28.843C28.2982 29.0431 28.1979 29.2273 28.0577 29.3789C27.9175 29.5306 27.7418 29.645 27.5463 29.7118L27.7852 30.4112M29.7365 25.8292L27.7852 30.4112M5.7783 28.0678C5.6985 28.3873 5.69948 28.7215 5.78116 29.0405C5.86283 29.3595 6.02262 29.6531 6.24612 29.8948C6.46961 30.1366 6.74979 30.3189 7.06136 30.4254C7.37293 30.5318 7.7061 30.559 8.0308 30.5045L8.99414 30.3487C9.68596 30.2337 10.3952 30.2856 11.063 30.5C11.7307 30.7143 12.3377 31.085 12.8333 31.5812C14.0017 32.9618 15.6438 33.8561 17.4375 34.0887C19.223 33.8457 20.8542 32.9468 22.0133 31.567C22.5089 31.0708 23.1159 30.7002 23.7836 30.4858C24.4514 30.2714 25.1606 30.2196 25.8525 30.3345L5.7783 28.0678ZM5.7783 28.0678C5.85737 27.7488 5.81014 27.4115 5.64648 27.1264C5.48282 26.8413 5.21537 26.6305 4.89997 26.5378L1.85414 25.9145C1.60004 25.8383 1.37604 25.6848 1.21333 25.4753C1.05062 25.2658 0.957306 25.0107 0.946392 24.7457C0.935479 24.4806 1.00751 24.2188 1.15244 23.9966L5.7783 28.0678Z" fill="url(#paint1_linear)" fill-opacity="0.05"/>
<path d="M29.7678 25.8199L29.7998 25.8134L32.8416 25.1967C32.9395 25.1649 33.0264 25.1056 33.0916 25.0256C33.1614 24.94 33.203 24.835 33.2108 24.7249C33.2187 24.6148 33.1923 24.5049 33.1353 24.4104C33.0783 24.3158 32.9935 24.2412 32.8925 24.1966L32.88 24.1911L32.8801 24.191C31.3296 23.4726 29.8601 22.591 28.4965 21.561M29.7678 25.8199L28.9408 20.9703M29.7678 25.8199L29.7365 25.8292M29.7678 25.8199L29.7365 25.8292M28.4965 21.561C28.4961 21.5607 28.4957 21.5604 28.4953 21.5601L28.9408 20.9703M28.4965 21.561C28.4969 21.5613 28.4974 21.5617 28.4978 21.562L28.9408 20.9703M28.4965 21.561C28.1338 21.2892 27.8428 20.9332 27.6485 20.5237L28.3162 20.2068M28.9408 20.9703C28.6737 20.7703 28.4593 20.5083 28.3162 20.2068M28.3162 20.2068L27.6484 20.5237C27.4539 20.1138 27.3621 19.6626 27.3811 19.2092C27.4 18.7558 27.5292 18.3139 27.7573 17.9216C27.9854 17.5295 28.3055 17.1989 28.6899 16.9582M28.3162 20.2068L28.6899 16.9582M28.6899 16.9582C28.6901 16.9581 28.6903 16.958 28.6905 16.9579L30.5566 15.7845C30.557 15.7843 30.5573 15.784 30.5577 15.7838C30.8537 15.5957 31.063 15.2978 31.1397 14.9555C31.2164 14.6128 31.1538 14.2536 30.9658 13.957C30.7777 13.6604 30.4795 13.4507 30.1368 13.374C29.7942 13.2973 29.4353 13.3597 29.1388 13.5476C29.1386 13.5477 29.1385 13.5478 29.1383 13.5479L27.9404 14.3089C27.7517 14.4328 27.5329 14.5033 27.3072 14.5128C27.0779 14.5224 26.8505 14.4687 26.6498 14.3576L27.0077 13.711L26.6498 14.3576C26.449 14.2465 26.2828 14.0823 26.1693 13.8829L26.8116 13.5171L26.1693 13.8829C26.0579 13.6874 26.0015 13.4656 26.0058 13.2408V9.38257C25.9162 7.18229 24.98 5.10146 23.3925 3.5748C21.8016 2.04486 19.6801 1.1903 17.4729 1.1903C15.2657 1.1903 13.1442 2.04486 11.5533 3.5748C9.96578 5.10146 9.0296 7.18229 8.93993 9.38259V13.2267C8.94423 13.4514 8.88782 13.6733 8.77651 13.8687M28.6899 16.9582L8.77651 13.8687M8.77651 13.8687C8.66298 14.0681 8.49673 14.2323 8.29601 14.3435L7.93803 13.6968L8.296 14.3435C8.09528 14.4546 7.86783 14.5083 7.63859 14.4986C7.41291 14.4892 7.19409 14.4187 7.00538 14.2947L5.80747 13.5337C5.80735 13.5336 5.80723 13.5336 5.80711 13.5335C5.51059 13.3456 5.15158 13.2831 4.809 13.3598C4.46629 13.4365 4.16809 13.6463 3.98001 13.9428C3.79192 14.2394 3.72936 14.5986 3.80609 14.9413C3.88273 15.2836 4.09204 15.5815 4.38806 15.7696C4.38842 15.7699 4.38878 15.7701 4.38914 15.7703L6.25531 16.9437C6.25559 16.9439 6.25588 16.9441 6.25616 16.9443C6.64049 17.1849 6.96047 17.5155 7.18844 17.9074C7.41659 18.2997 7.54574 18.7416 7.56471 19.195C7.58368 19.6484 7.4919 20.0996 7.29732 20.5096C7.10297 20.919 6.81189 21.2751 6.44922 21.5469C5.08566 22.5768 3.61618 23.4584 2.06569 24.1768L2.04548 24.1862L2.02473 24.1943C1.92093 24.235 1.83241 24.3071 1.7715 24.4004C1.71058 24.4938 1.68031 24.6039 1.6849 24.7153C1.68948 24.8267 1.7287 24.9339 1.79709 25.0219C1.86014 25.1031 1.94509 25.1643 2.04167 25.1984L5.04816 25.8137L5.07851 25.8199L5.10823 25.8287C5.60647 25.975 6.02895 26.3081 6.28749 26.7584C6.54602 27.2088 6.62063 27.7416 6.49574 28.2456L6.4954 28.247C6.44534 28.4474 6.44595 28.6571 6.49719 28.8572C6.54842 29.0573 6.64866 29.2414 6.78887 29.3931C6.92908 29.5448 7.10484 29.6592 7.30029 29.7259C7.49575 29.7927 7.70475 29.8098 7.90846 29.7756L7.91277 29.7748L8.87299 29.6195C8.87339 29.6195 8.87379 29.6194 8.87419 29.6193C9.6817 29.4854 10.5095 29.546 11.2889 29.7962C12.0687 30.0465 12.7774 30.4794 13.3562 31.0588L13.3778 31.0804L13.3975 31.1037C14.4257 32.3186 15.8622 33.1142 17.4351 33.3423C19.0006 33.1052 20.4275 32.3057 21.4474 31.0916L21.4679 31.0672L21.4904 31.0446C22.0692 30.4652 22.7779 30.0324 23.5577 29.782C24.337 29.5318 25.1649 29.4712 25.9723 29.6052C25.9728 29.6052 25.9732 29.6053 25.9736 29.6054L26.9338 29.7607L26.9382 29.7614C27.1418 29.7956 27.3509 29.7785 27.5463 29.7118L27.7852 30.4112M8.77651 13.8687L27.7852 30.4112M29.7365 25.8292C29.2431 25.9755 28.8244 26.3051 28.5664 26.7504C28.3083 27.1958 28.2306 27.7229 28.349 28.2238L28.349 28.2238L28.3512 28.2328C28.4013 28.4332 28.4007 28.6429 28.3494 28.843C28.2982 29.0431 28.1979 29.2273 28.0577 29.3789C27.9175 29.5306 27.7418 29.645 27.5463 29.7118L27.7852 30.4112M29.7365 25.8292L27.7852 30.4112M5.7783 28.0678C5.6985 28.3873 5.69948 28.7215 5.78116 29.0405C5.86283 29.3595 6.02262 29.6531 6.24612 29.8948C6.46961 30.1366 6.74979 30.3189 7.06136 30.4254C7.37293 30.5318 7.7061 30.559 8.0308 30.5045L8.99414 30.3487C9.68596 30.2337 10.3952 30.2856 11.063 30.5C11.7307 30.7143 12.3377 31.085 12.8333 31.5812C14.0017 32.9618 15.6438 33.8561 17.4375 34.0887C19.223 33.8457 20.8542 32.9468 22.0133 31.567C22.5089 31.0708 23.1159 30.7002 23.7836 30.4858C24.4514 30.2714 25.1606 30.2196 25.8525 30.3345L5.7783 28.0678ZM5.7783 28.0678C5.85737 27.7488 5.81014 27.4115 5.64648 27.1264C5.48282 26.8413 5.21537 26.6305 4.89997 26.5378L1.85414 25.9145C1.60004 25.8383 1.37604 25.6848 1.21333 25.4753C1.05062 25.2658 0.957306 25.0107 0.946392 24.7457C0.935479 24.4806 1.00751 24.2188 1.15244 23.9966L5.7783 28.0678Z" stroke="black" stroke-width="1.47826"/>
<path d="M29.7678 25.8199L29.7998 25.8134L32.8416 25.1967C32.9395 25.1649 33.0264 25.1056 33.0916 25.0256C33.1614 24.94 33.203 24.835 33.2108 24.7249C33.2187 24.6148 33.1923 24.5049 33.1353 24.4104C33.0783 24.3158 32.9935 24.2412 32.8925 24.1966L32.88 24.1911L32.8801 24.191C31.3296 23.4726 29.8601 22.591 28.4965 21.561M29.7678 25.8199L28.9408 20.9703M29.7678 25.8199L29.7365 25.8292M29.7678 25.8199L29.7365 25.8292M28.4965 21.561C28.4961 21.5607 28.4957 21.5604 28.4953 21.5601L28.9408 20.9703M28.4965 21.561C28.4969 21.5613 28.4974 21.5617 28.4978 21.562L28.9408 20.9703M28.4965 21.561C28.1338 21.2892 27.8428 20.9332 27.6485 20.5237L28.3162 20.2068M28.9408 20.9703C28.6737 20.7703 28.4593 20.5083 28.3162 20.2068M28.3162 20.2068L27.6484 20.5237C27.4539 20.1138 27.3621 19.6626 27.3811 19.2092C27.4 18.7558 27.5292 18.3139 27.7573 17.9216C27.9854 17.5295 28.3055 17.1989 28.6899 16.9582M28.3162 20.2068L28.6899 16.9582M28.6899 16.9582C28.6901 16.9581 28.6903 16.958 28.6905 16.9579L30.5566 15.7845C30.557 15.7843 30.5573 15.784 30.5577 15.7838C30.8537 15.5957 31.063 15.2978 31.1397 14.9555C31.2164 14.6128 31.1538 14.2536 30.9658 13.957C30.7777 13.6604 30.4795 13.4507 30.1368 13.374C29.7942 13.2973 29.4353 13.3597 29.1388 13.5476C29.1386 13.5477 29.1385 13.5478 29.1383 13.5479L27.9404 14.3089C27.7517 14.4328 27.5329 14.5033 27.3072 14.5128C27.0779 14.5224 26.8505 14.4687 26.6498 14.3576L27.0077 13.711L26.6498 14.3576C26.449 14.2465 26.2828 14.0823 26.1693 13.8829L26.8116 13.5171L26.1693 13.8829C26.0579 13.6874 26.0015 13.4656 26.0058 13.2408V9.38257C25.9162 7.18229 24.98 5.10146 23.3925 3.5748C21.8016 2.04486 19.6801 1.1903 17.4729 1.1903C15.2657 1.1903 13.1442 2.04486 11.5533 3.5748C9.96578 5.10146 9.0296 7.18229 8.93993 9.38259V13.2267C8.94423 13.4514 8.88782 13.6733 8.77651 13.8687M28.6899 16.9582L8.77651 13.8687M8.77651 13.8687C8.66298 14.0681 8.49673 14.2323 8.29601 14.3435L7.93803 13.6968L8.296 14.3435C8.09528 14.4546 7.86783 14.5083 7.63859 14.4986C7.41291 14.4892 7.19409 14.4187 7.00538 14.2947L5.80747 13.5337C5.80735 13.5336 5.80723 13.5336 5.80711 13.5335C5.51059 13.3456 5.15158 13.2831 4.809 13.3598C4.46629 13.4365 4.16809 13.6463 3.98001 13.9428C3.79192 14.2394 3.72936 14.5986 3.80609 14.9413C3.88273 15.2836 4.09204 15.5815 4.38806 15.7696C4.38842 15.7699 4.38878 15.7701 4.38914 15.7703L6.25531 16.9437C6.25559 16.9439 6.25588 16.9441 6.25616 16.9443C6.64049 17.1849 6.96047 17.5155 7.18844 17.9074C7.41659 18.2997 7.54574 18.7416 7.56471 19.195C7.58368 19.6484 7.4919 20.0996 7.29732 20.5096C7.10297 20.919 6.81189 21.2751 6.44922 21.5469C5.08566 22.5768 3.61618 23.4584 2.06569 24.1768L2.04548 24.1862L2.02473 24.1943C1.92093 24.235 1.83241 24.3071 1.7715 24.4004C1.71058 24.4938 1.68031 24.6039 1.6849 24.7153C1.68948 24.8267 1.7287 24.9339 1.79709 25.0219C1.86014 25.1031 1.94509 25.1643 2.04167 25.1984L5.04816 25.8137L5.07851 25.8199L5.10823 25.8287C5.60647 25.975 6.02895 26.3081 6.28749 26.7584C6.54602 27.2088 6.62063 27.7416 6.49574 28.2456L6.4954 28.247C6.44534 28.4474 6.44595 28.6571 6.49719 28.8572C6.54842 29.0573 6.64866 29.2414 6.78887 29.3931C6.92908 29.5448 7.10484 29.6592 7.30029 29.7259C7.49575 29.7927 7.70475 29.8098 7.90846 29.7756L7.91277 29.7748L8.87299 29.6195C8.87339 29.6195 8.87379 29.6194 8.87419 29.6193C9.6817 29.4854 10.5095 29.546 11.2889 29.7962C12.0687 30.0465 12.7774 30.4794 13.3562 31.0588L13.3778 31.0804L13.3975 31.1037C14.4257 32.3186 15.8622 33.1142 17.4351 33.3423C19.0006 33.1052 20.4275 32.3057 21.4474 31.0916L21.4679 31.0672L21.4904 31.0446C22.0692 30.4652 22.7779 30.0324 23.5577 29.782C24.337 29.5318 25.1649 29.4712 25.9723 29.6052C25.9728 29.6052 25.9732 29.6053 25.9736 29.6054L26.9338 29.7607L26.9382 29.7614C27.1418 29.7956 27.3509 29.7785 27.5463 29.7118L27.7852 30.4112M8.77651 13.8687L27.7852 30.4112M29.7365 25.8292C29.2431 25.9755 28.8244 26.3051 28.5664 26.7504C28.3083 27.1958 28.2306 27.7229 28.349 28.2238L28.349 28.2238L28.3512 28.2328C28.4013 28.4332 28.4007 28.6429 28.3494 28.843C28.2982 29.0431 28.1979 29.2273 28.0577 29.3789C27.9175 29.5306 27.7418 29.645 27.5463 29.7118L27.7852 30.4112M29.7365 25.8292L27.7852 30.4112M5.7783 28.0678C5.6985 28.3873 5.69948 28.7215 5.78116 29.0405C5.86283 29.3595 6.02262 29.6531 6.24612 29.8948C6.46961 30.1366 6.74979 30.3189 7.06136 30.4254C7.37293 30.5318 7.7061 30.559 8.0308 30.5045L8.99414 30.3487C9.68596 30.2337 10.3952 30.2856 11.063 30.5C11.7307 30.7143 12.3377 31.085 12.8333 31.5812C14.0017 32.9618 15.6438 33.8561 17.4375 34.0887C19.223 33.8457 20.8542 32.9468 22.0133 31.567C22.5089 31.0708 23.1159 30.7002 23.7836 30.4858C24.4514 30.2714 25.1606 30.2196 25.8525 30.3345L5.7783 28.0678ZM5.7783 28.0678C5.85737 27.7488 5.81014 27.4115 5.64648 27.1264C5.48282 26.8413 5.21537 26.6305 4.89997 26.5378L1.85414 25.9145C1.60004 25.8383 1.37604 25.6848 1.21333 25.4753C1.05062 25.2658 0.957306 25.0107 0.946392 24.7457C0.935479 24.4806 1.00751 24.2188 1.15244 23.9966L5.7783 28.0678Z" stroke="#6E26DB" stroke-width="1.47826"/>
<path d="M29.7678 25.8199L29.7998 25.8134L32.8416 25.1967C32.9395 25.1649 33.0264 25.1056 33.0916 25.0256C33.1614 24.94 33.203 24.835 33.2108 24.7249C33.2187 24.6148 33.1923 24.5049 33.1353 24.4104C33.0783 24.3158 32.9935 24.2412 32.8925 24.1966L32.88 24.1911L32.8801 24.191C31.3296 23.4726 29.8601 22.591 28.4965 21.561M29.7678 25.8199L28.9408 20.9703M29.7678 25.8199L29.7365 25.8292M29.7678 25.8199L29.7365 25.8292M28.4965 21.561C28.4961 21.5607 28.4957 21.5604 28.4953 21.5601L28.9408 20.9703M28.4965 21.561C28.4969 21.5613 28.4974 21.5617 28.4978 21.562L28.9408 20.9703M28.4965 21.561C28.1338 21.2892 27.8428 20.9332 27.6485 20.5237L28.3162 20.2068M28.9408 20.9703C28.6737 20.7703 28.4593 20.5083 28.3162 20.2068M28.3162 20.2068L27.6484 20.5237C27.4539 20.1138 27.3621 19.6626 27.3811 19.2092C27.4 18.7558 27.5292 18.3139 27.7573 17.9216C27.9854 17.5295 28.3055 17.1989 28.6899 16.9582M28.3162 20.2068L28.6899 16.9582M28.6899 16.9582C28.6901 16.9581 28.6903 16.958 28.6905 16.9579L30.5566 15.7845C30.557 15.7843 30.5573 15.784 30.5577 15.7838C30.8537 15.5957 31.063 15.2978 31.1397 14.9555C31.2164 14.6128 31.1538 14.2536 30.9658 13.957C30.7777 13.6604 30.4795 13.4507 30.1368 13.374C29.7942 13.2973 29.4353 13.3597 29.1388 13.5476C29.1386 13.5477 29.1385 13.5478 29.1383 13.5479L27.9404 14.3089C27.7517 14.4328 27.5329 14.5033 27.3072 14.5128C27.0779 14.5224 26.8505 14.4687 26.6498 14.3576L27.0077 13.711L26.6498 14.3576C26.449 14.2465 26.2828 14.0823 26.1693 13.8829L26.8116 13.5171L26.1693 13.8829C26.0579 13.6874 26.0015 13.4656 26.0058 13.2408V9.38257C25.9162 7.18229 24.98 5.10146 23.3925 3.5748C21.8016 2.04486 19.6801 1.1903 17.4729 1.1903C15.2657 1.1903 13.1442 2.04486 11.5533 3.5748C9.96578 5.10146 9.0296 7.18229 8.93993 9.38259V13.2267C8.94423 13.4514 8.88782 13.6733 8.77651 13.8687M28.6899 16.9582L8.77651 13.8687M8.77651 13.8687C8.66298 14.0681 8.49673 14.2323 8.29601 14.3435L7.93803 13.6968L8.296 14.3435C8.09528 14.4546 7.86783 14.5083 7.63859 14.4986C7.41291 14.4892 7.19409 14.4187 7.00538 14.2947L5.80747 13.5337C5.80735 13.5336 5.80723 13.5336 5.80711 13.5335C5.51059 13.3456 5.15158 13.2831 4.809 13.3598C4.46629 13.4365 4.16809 13.6463 3.98001 13.9428C3.79192 14.2394 3.72936 14.5986 3.80609 14.9413C3.88273 15.2836 4.09204 15.5815 4.38806 15.7696C4.38842 15.7699 4.38878 15.7701 4.38914 15.7703L6.25531 16.9437C6.25559 16.9439 6.25588 16.9441 6.25616 16.9443C6.64049 17.1849 6.96047 17.5155 7.18844 17.9074C7.41659 18.2997 7.54574 18.7416 7.56471 19.195C7.58368 19.6484 7.4919 20.0996 7.29732 20.5096C7.10297 20.919 6.81189 21.2751 6.44922 21.5469C5.08566 22.5768 3.61618 23.4584 2.06569 24.1768L2.04548 24.1862L2.02473 24.1943C1.92093 24.235 1.83241 24.3071 1.7715 24.4004C1.71058 24.4938 1.68031 24.6039 1.6849 24.7153C1.68948 24.8267 1.7287 24.9339 1.79709 25.0219C1.86014 25.1031 1.94509 25.1643 2.04167 25.1984L5.04816 25.8137L5.07851 25.8199L5.10823 25.8287C5.60647 25.975 6.02895 26.3081 6.28749 26.7584C6.54602 27.2088 6.62063 27.7416 6.49574 28.2456L6.4954 28.247C6.44534 28.4474 6.44595 28.6571 6.49719 28.8572C6.54842 29.0573 6.64866 29.2414 6.78887 29.3931C6.92908 29.5448 7.10484 29.6592 7.30029 29.7259C7.49575 29.7927 7.70475 29.8098 7.90846 29.7756L7.91277 29.7748L8.87299 29.6195C8.87339 29.6195 8.87379 29.6194 8.87419 29.6193C9.6817 29.4854 10.5095 29.546 11.2889 29.7962C12.0687 30.0465 12.7774 30.4794 13.3562 31.0588L13.3778 31.0804L13.3975 31.1037C14.4257 32.3186 15.8622 33.1142 17.4351 33.3423C19.0006 33.1052 20.4275 32.3057 21.4474 31.0916L21.4679 31.0672L21.4904 31.0446C22.0692 30.4652 22.7779 30.0324 23.5577 29.782C24.337 29.5318 25.1649 29.4712 25.9723 29.6052C25.9728 29.6052 25.9732 29.6053 25.9736 29.6054L26.9338 29.7607L26.9382 29.7614C27.1418 29.7956 27.3509 29.7785 27.5463 29.7118L27.7852 30.4112M8.77651 13.8687L27.7852 30.4112M29.7365 25.8292C29.2431 25.9755 28.8244 26.3051 28.5664 26.7504C28.3083 27.1958 28.2306 27.7229 28.349 28.2238L28.349 28.2238L28.3512 28.2328C28.4013 28.4332 28.4007 28.6429 28.3494 28.843C28.2982 29.0431 28.1979 29.2273 28.0577 29.3789C27.9175 29.5306 27.7418 29.645 27.5463 29.7118L27.7852 30.4112M29.7365 25.8292L27.7852 30.4112M5.7783 28.0678C5.6985 28.3873 5.69948 28.7215 5.78116 29.0405C5.86283 29.3595 6.02262 29.6531 6.24612 29.8948C6.46961 30.1366 6.74979 30.3189 7.06136 30.4254C7.37293 30.5318 7.7061 30.559 8.0308 30.5045L8.99414 30.3487C9.68596 30.2337 10.3952 30.2856 11.063 30.5C11.7307 30.7143 12.3377 31.085 12.8333 31.5812C14.0017 32.9618 15.6438 33.8561 17.4375 34.0887C19.223 33.8457 20.8542 32.9468 22.0133 31.567C22.5089 31.0708 23.1159 30.7002 23.7836 30.4858C24.4514 30.2714 25.1606 30.2196 25.8525 30.3345L5.7783 28.0678ZM5.7783 28.0678C5.85737 27.7488 5.81014 27.4115 5.64648 27.1264C5.48282 26.8413 5.21537 26.6305 4.89997 26.5378L1.85414 25.9145C1.60004 25.8383 1.37604 25.6848 1.21333 25.4753C1.05062 25.2658 0.957306 25.0107 0.946392 24.7457C0.935479 24.4806 1.00751 24.2188 1.15244 23.9966L5.7783 28.0678Z" stroke="url(#paint2_linear)" stroke-opacity="0.25" stroke-width="1.47826"/>
<path d="M29.7678 25.8199L29.7998 25.8134L32.8416 25.1967C32.9395 25.1649 33.0264 25.1056 33.0916 25.0256C33.1614 24.94 33.203 24.835 33.2108 24.7249C33.2187 24.6148 33.1923 24.5049 33.1353 24.4104C33.0783 24.3158 32.9935 24.2412 32.8925 24.1966L32.88 24.1911L32.8801 24.191C31.3296 23.4726 29.8601 22.591 28.4965 21.561M29.7678 25.8199L28.9408 20.9703M29.7678 25.8199L29.7365 25.8292M29.7678 25.8199L29.7365 25.8292M28.4965 21.561C28.4961 21.5607 28.4957 21.5604 28.4953 21.5601L28.9408 20.9703M28.4965 21.561C28.4969 21.5613 28.4974 21.5617 28.4978 21.562L28.9408 20.9703M28.4965 21.561C28.1338 21.2892 27.8428 20.9332 27.6485 20.5237L28.3162 20.2068M28.9408 20.9703C28.6737 20.7703 28.4593 20.5083 28.3162 20.2068M28.3162 20.2068L27.6484 20.5237C27.4539 20.1138 27.3621 19.6626 27.3811 19.2092C27.4 18.7558 27.5292 18.3139 27.7573 17.9216C27.9854 17.5295 28.3055 17.1989 28.6899 16.9582M28.3162 20.2068L28.6899 16.9582M28.6899 16.9582C28.6901 16.9581 28.6903 16.958 28.6905 16.9579L30.5566 15.7845C30.557 15.7843 30.5573 15.784 30.5577 15.7838C30.8537 15.5957 31.063 15.2978 31.1397 14.9555C31.2164 14.6128 31.1538 14.2536 30.9658 13.957C30.7777 13.6604 30.4795 13.4507 30.1368 13.374C29.7942 13.2973 29.4353 13.3597 29.1388 13.5476C29.1386 13.5477 29.1385 13.5478 29.1383 13.5479L27.9404 14.3089C27.7517 14.4328 27.5329 14.5033 27.3072 14.5128C27.0779 14.5224 26.8505 14.4687 26.6498 14.3576L27.0077 13.711L26.6498 14.3576C26.449 14.2465 26.2828 14.0823 26.1693 13.8829L26.8116 13.5171L26.1693 13.8829C26.0579 13.6874 26.0015 13.4656 26.0058 13.2408V9.38257C25.9162 7.18229 24.98 5.10146 23.3925 3.5748C21.8016 2.04486 19.6801 1.1903 17.4729 1.1903C15.2657 1.1903 13.1442 2.04486 11.5533 3.5748C9.96578 5.10146 9.0296 7.18229 8.93993 9.38259V13.2267C8.94423 13.4514 8.88782 13.6733 8.77651 13.8687M28.6899 16.9582L8.77651 13.8687M8.77651 13.8687C8.66298 14.0681 8.49673 14.2323 8.29601 14.3435L7.93803 13.6968L8.296 14.3435C8.09528 14.4546 7.86783 14.5083 7.63859 14.4986C7.41291 14.4892 7.19409 14.4187 7.00538 14.2947L5.80747 13.5337C5.80735 13.5336 5.80723 13.5336 5.80711 13.5335C5.51059 13.3456 5.15158 13.2831 4.809 13.3598C4.46629 13.4365 4.16809 13.6463 3.98001 13.9428C3.79192 14.2394 3.72936 14.5986 3.80609 14.9413C3.88273 15.2836 4.09204 15.5815 4.38806 15.7696C4.38842 15.7699 4.38878 15.7701 4.38914 15.7703L6.25531 16.9437C6.25559 16.9439 6.25588 16.9441 6.25616 16.9443C6.64049 17.1849 6.96047 17.5155 7.18844 17.9074C7.41659 18.2997 7.54574 18.7416 7.56471 19.195C7.58368 19.6484 7.4919 20.0996 7.29732 20.5096C7.10297 20.919 6.81189 21.2751 6.44922 21.5469C5.08566 22.5768 3.61618 23.4584 2.06569 24.1768L2.04548 24.1862L2.02473 24.1943C1.92093 24.235 1.83241 24.3071 1.7715 24.4004C1.71058 24.4938 1.68031 24.6039 1.6849 24.7153C1.68948 24.8267 1.7287 24.9339 1.79709 25.0219C1.86014 25.1031 1.94509 25.1643 2.04167 25.1984L5.04816 25.8137L5.07851 25.8199L5.10823 25.8287C5.60647 25.975 6.02895 26.3081 6.28749 26.7584C6.54602 27.2088 6.62063 27.7416 6.49574 28.2456L6.4954 28.247C6.44534 28.4474 6.44595 28.6571 6.49719 28.8572C6.54842 29.0573 6.64866 29.2414 6.78887 29.3931C6.92908 29.5448 7.10484 29.6592 7.30029 29.7259C7.49575 29.7927 7.70475 29.8098 7.90846 29.7756L7.91277 29.7748L8.87299 29.6195C8.87339 29.6195 8.87379 29.6194 8.87419 29.6193C9.6817 29.4854 10.5095 29.546 11.2889 29.7962C12.0687 30.0465 12.7774 30.4794 13.3562 31.0588L13.3778 31.0804L13.3975 31.1037C14.4257 32.3186 15.8622 33.1142 17.4351 33.3423C19.0006 33.1052 20.4275 32.3057 21.4474 31.0916L21.4679 31.0672L21.4904 31.0446C22.0692 30.4652 22.7779 30.0324 23.5577 29.782C24.337 29.5318 25.1649 29.4712 25.9723 29.6052C25.9728 29.6052 25.9732 29.6053 25.9736 29.6054L26.9338 29.7607L26.9382 29.7614C27.1418 29.7956 27.3509 29.7785 27.5463 29.7118L27.7852 30.4112M8.77651 13.8687L27.7852 30.4112M29.7365 25.8292C29.2431 25.9755 28.8244 26.3051 28.5664 26.7504C28.3083 27.1958 28.2306 27.7229 28.349 28.2238L28.349 28.2238L28.3512 28.2328C28.4013 28.4332 28.4007 28.6429 28.3494 28.843C28.2982 29.0431 28.1979 29.2273 28.0577 29.3789C27.9175 29.5306 27.7418 29.645 27.5463 29.7118L27.7852 30.4112M29.7365 25.8292L27.7852 30.4112M5.7783 28.0678C5.6985 28.3873 5.69948 28.7215 5.78116 29.0405C5.86283 29.3595 6.02262 29.6531 6.24612 29.8948C6.46961 30.1366 6.74979 30.3189 7.06136 30.4254C7.37293 30.5318 7.7061 30.559 8.0308 30.5045L8.99414 30.3487C9.68596 30.2337 10.3952 30.2856 11.063 30.5C11.7307 30.7143 12.3377 31.085 12.8333 31.5812C14.0017 32.9618 15.6438 33.8561 17.4375 34.0887C19.223 33.8457 20.8542 32.9468 22.0133 31.567C22.5089 31.0708 23.1159 30.7002 23.7836 30.4858C24.4514 30.2714 25.1606 30.2196 25.8525 30.3345L5.7783 28.0678ZM5.7783 28.0678C5.85737 27.7488 5.81014 27.4115 5.64648 27.1264C5.48282 26.8413 5.21537 26.6305 4.89997 26.5378L1.85414 25.9145C1.60004 25.8383 1.37604 25.6848 1.21333 25.4753C1.05062 25.2658 0.957306 25.0107 0.946392 24.7457C0.935479 24.4806 1.00751 24.2188 1.15244 23.9966L5.7783 28.0678Z" stroke="url(#paint3_linear)" stroke-opacity="0.25" stroke-width="1.47826"/>
<defs>
<linearGradient id="paint0_linear" x1="35.0515" y1="0.451175" x2="-2.72932" y2="7.85623" gradientUnits="userSpaceOnUse">
<stop stop-color="#117CB6"/>
<stop offset="1" stop-color="#117CB6" stop-opacity="0"/>
</linearGradient>
<linearGradient id="paint1_linear" x1="6.07958" y1="-25.6179" x2="48.5865" y2="-8.23916" gradientUnits="userSpaceOnUse">
<stop stop-color="#FF5B7E"/>
<stop offset="1" stop-color="#FF5B7E" stop-opacity="0"/>
</linearGradient>
<linearGradient id="paint2_linear" x1="35.0515" y1="0.451175" x2="-2.72932" y2="7.85623" gradientUnits="userSpaceOnUse">
<stop stop-color="#117CB6"/>
<stop offset="1" stop-color="#117CB6" stop-opacity="0"/>
</linearGradient>
<linearGradient id="paint3_linear" x1="6.07958" y1="-25.6179" x2="48.5865" y2="-8.23916" gradientUnits="userSpaceOnUse">
<stop stop-color="#FF5B7E"/>
<stop offset="1" stop-color="#FF5B7E" stop-opacity="0"/>
</linearGradient>
</defs>
</svg>
