<svg fill="none" height="19" viewBox="0 0 27 19" width="27" xmlns="http://www.w3.org/2000/svg"><path d="m4.3969 8.14889c-1.46299 0-2.60086-1.18213-2.60086-2.70201 0-1.47766 1.13787-2.70201 2.60086-2.70201 1.42235 0 2.60087 1.22435 2.60087 2.70201 0 1.51988-1.17852 2.70201-2.60087 2.70201zm18.2061 0c-1.463 0-2.6009-1.18213-2.6009-2.70201 0-1.47766 1.1379-2.70201 2.6009-2.70201 1.4223 0 2.6008 1.22435 2.6008 2.70201 0 1.51988-1.1785 2.70201-2.6008 2.70201zm1.3004 1.351c1.4223 0 2.6008 1.22431 2.6008 2.70201v1.351c0 .7599-.6095 1.351-1.3004 1.351h-2.6821c-.2845-1.9843-1.4224-3.673-3.0886-4.6018.4877-.46443 1.1379-.80221 1.8694-.80221zm-16.37733.80221c-1.66618.9288-2.80406 2.6175-3.08853 4.6018h-2.6415c-.7315 0-1.300435-.5911-1.300435-1.351v-1.351c0-1.4777 1.137875-2.70201 2.600865-2.70201h2.60086c.69086 0 1.34107.33778 1.82874.80221z" fill="#919191"/><path d="m13.5001 9.5c-2.5196 0-4.55147-2.11095-4.55147-4.72852 0-2.57535 2.03187-4.7285112 4.55147-4.7285112 2.479 0 4.5515 2.1531612 4.5515 4.7285112 0 2.61757-2.0725 4.72852-4.5515 4.72852zm3.0885 1.351c2.6009 0 4.7141 2.1954 4.7141 4.8974v1.1821c0 1.14-.8941 2.0265-1.9506 2.0265h-11.70394c-1.09724 0-1.95065-.8865-1.95065-2.0265v-1.1821c0-2.702 2.07256-4.8974 4.67349-4.8974h.325c.8535.4222 1.7881.6755 2.8041.6755.9753 0 1.91-.2533 2.7634-.6755z" fill="#767676"/></svg>