<svg width="32" height="37" viewBox="0 0 32 37" fill="none" xmlns="http://www.w3.org/2000/svg">
<path fill-rule="evenodd" clip-rule="evenodd" d="M21.4792 1.45117C22.0419 1.45117 22.51 1.87489 22.6141 2.42797C23.3458 6.31704 25.6266 8.75191 29.3675 9.34433C29.9446 9.43571 30.4006 9.91278 30.4006 10.497V13.8794C30.4006 14.45 29.9671 14.9349 29.3965 14.9311C27.6486 14.9195 26.0086 14.4227 24.2661 13.5473C23.4943 13.1596 22.548 13.6933 22.548 14.557V22.7393C22.548 35.6325 8.49489 39.6616 2.84509 30.4201C-0.662798 24.6743 1.29417 14.7385 11.9356 13.6963C12.5606 13.6351 13.0841 14.1415 13.0841 14.7694V18.398C13.0841 18.9423 12.6881 19.4025 12.1561 19.5177C11.5563 19.6476 10.9513 19.8111 10.3816 20.0056C7.79122 20.8828 6.32267 22.5251 6.7306 25.422C7.51586 30.9709 17.6937 32.6132 16.8472 21.7702V2.56603C16.8472 1.95529 17.3411 1.45957 17.9519 1.45734L19.6388 1.45117H21.4792Z" fill="#6E26DB" fill-opacity="0.1"/>
<path fill-rule="evenodd" clip-rule="evenodd" d="M21.4792 1.45117C22.0419 1.45117 22.51 1.87489 22.6141 2.42797C23.3458 6.31704 25.6266 8.75191 29.3675 9.34433C29.9446 9.43571 30.4006 9.91278 30.4006 10.497V13.8794C30.4006 14.45 29.9671 14.9349 29.3965 14.9311C27.6486 14.9195 26.0086 14.4227 24.2661 13.5473C23.4943 13.1596 22.548 13.6933 22.548 14.557V22.7393C22.548 35.6325 8.49489 39.6616 2.84509 30.4201C-0.662798 24.6743 1.29417 14.7385 11.9356 13.6963C12.5606 13.6351 13.0841 14.1415 13.0841 14.7694V18.398C13.0841 18.9423 12.6881 19.4025 12.1561 19.5177C11.5563 19.6476 10.9513 19.8111 10.3816 20.0056C7.79122 20.8828 6.32267 22.5251 6.7306 25.422C7.51586 30.9709 17.6937 32.6132 16.8472 21.7702V2.56603C16.8472 1.95529 17.3411 1.45957 17.9519 1.45734L19.6388 1.45117H21.4792Z" fill="url(#paint0_linear)" fill-opacity="0.05"/>
<path fill-rule="evenodd" clip-rule="evenodd" d="M21.4792 1.45117C22.0419 1.45117 22.51 1.87489 22.6141 2.42797C23.3458 6.31704 25.6266 8.75191 29.3675 9.34433C29.9446 9.43571 30.4006 9.91278 30.4006 10.497V13.8794C30.4006 14.45 29.9671 14.9349 29.3965 14.9311C27.6486 14.9195 26.0086 14.4227 24.2661 13.5473C23.4943 13.1596 22.548 13.6933 22.548 14.557V22.7393C22.548 35.6325 8.49489 39.6616 2.84509 30.4201C-0.662798 24.6743 1.29417 14.7385 11.9356 13.6963C12.5606 13.6351 13.0841 14.1415 13.0841 14.7694V18.398C13.0841 18.9423 12.6881 19.4025 12.1561 19.5177C11.5563 19.6476 10.9513 19.8111 10.3816 20.0056C7.79122 20.8828 6.32267 22.5251 6.7306 25.422C7.51586 30.9709 17.6937 32.6132 16.8472 21.7702V2.56603C16.8472 1.95529 17.3411 1.45957 17.9519 1.45734L19.6388 1.45117H21.4792Z" fill="url(#paint1_linear)" fill-opacity="0.05"/>
<path fill-rule="evenodd" clip-rule="evenodd" d="M21.4792 1.45117C22.0419 1.45117 22.51 1.87489 22.6141 2.42797C23.3458 6.31704 25.6266 8.75191 29.3675 9.34433C29.9446 9.43571 30.4006 9.91278 30.4006 10.497V13.8794C30.4006 14.45 29.9671 14.9349 29.3965 14.9311C27.6486 14.9195 26.0086 14.4227 24.2661 13.5473C23.4943 13.1596 22.548 13.6933 22.548 14.557V22.7393C22.548 35.6325 8.49489 39.6616 2.84509 30.4201C-0.662798 24.6743 1.29417 14.7385 11.9356 13.6963C12.5606 13.6351 13.0841 14.1415 13.0841 14.7694V18.398C13.0841 18.9423 12.6881 19.4025 12.1561 19.5177C11.5563 19.6476 10.9513 19.8111 10.3816 20.0056C7.79122 20.8828 6.32267 22.5251 6.7306 25.422C7.51586 30.9709 17.6937 32.6132 16.8472 21.7702V2.56603C16.8472 1.95529 17.3411 1.45957 17.9519 1.45734L19.6388 1.45117H21.4792Z" stroke="black" stroke-width="1.47826" stroke-linecap="round" stroke-linejoin="round"/>
<path fill-rule="evenodd" clip-rule="evenodd" d="M21.4792 1.45117C22.0419 1.45117 22.51 1.87489 22.6141 2.42797C23.3458 6.31704 25.6266 8.75191 29.3675 9.34433C29.9446 9.43571 30.4006 9.91278 30.4006 10.497V13.8794C30.4006 14.45 29.9671 14.9349 29.3965 14.9311C27.6486 14.9195 26.0086 14.4227 24.2661 13.5473C23.4943 13.1596 22.548 13.6933 22.548 14.557V22.7393C22.548 35.6325 8.49489 39.6616 2.84509 30.4201C-0.662798 24.6743 1.29417 14.7385 11.9356 13.6963C12.5606 13.6351 13.0841 14.1415 13.0841 14.7694V18.398C13.0841 18.9423 12.6881 19.4025 12.1561 19.5177C11.5563 19.6476 10.9513 19.8111 10.3816 20.0056C7.79122 20.8828 6.32267 22.5251 6.7306 25.422C7.51586 30.9709 17.6937 32.6132 16.8472 21.7702V2.56603C16.8472 1.95529 17.3411 1.45957 17.9519 1.45734L19.6388 1.45117H21.4792Z" stroke="#6E26DB" stroke-width="1.47826" stroke-linecap="round" stroke-linejoin="round"/>
<path fill-rule="evenodd" clip-rule="evenodd" d="M21.4792 1.45117C22.0419 1.45117 22.51 1.87489 22.6141 2.42797C23.3458 6.31704 25.6266 8.75191 29.3675 9.34433C29.9446 9.43571 30.4006 9.91278 30.4006 10.497V13.8794C30.4006 14.45 29.9671 14.9349 29.3965 14.9311C27.6486 14.9195 26.0086 14.4227 24.2661 13.5473C23.4943 13.1596 22.548 13.6933 22.548 14.557V22.7393C22.548 35.6325 8.49489 39.6616 2.84509 30.4201C-0.662798 24.6743 1.29417 14.7385 11.9356 13.6963C12.5606 13.6351 13.0841 14.1415 13.0841 14.7694V18.398C13.0841 18.9423 12.6881 19.4025 12.1561 19.5177C11.5563 19.6476 10.9513 19.8111 10.3816 20.0056C7.79122 20.8828 6.32267 22.5251 6.7306 25.422C7.51586 30.9709 17.6937 32.6132 16.8472 21.7702V2.56603C16.8472 1.95529 17.3411 1.45957 17.9519 1.45734L19.6388 1.45117H21.4792Z" stroke="url(#paint2_linear)" stroke-opacity="0.25" stroke-width="1.47826" stroke-linecap="round" stroke-linejoin="round"/>
<path fill-rule="evenodd" clip-rule="evenodd" d="M21.4792 1.45117C22.0419 1.45117 22.51 1.87489 22.6141 2.42797C23.3458 6.31704 25.6266 8.75191 29.3675 9.34433C29.9446 9.43571 30.4006 9.91278 30.4006 10.497V13.8794C30.4006 14.45 29.9671 14.9349 29.3965 14.9311C27.6486 14.9195 26.0086 14.4227 24.2661 13.5473C23.4943 13.1596 22.548 13.6933 22.548 14.557V22.7393C22.548 35.6325 8.49489 39.6616 2.84509 30.4201C-0.662798 24.6743 1.29417 14.7385 11.9356 13.6963C12.5606 13.6351 13.0841 14.1415 13.0841 14.7694V18.398C13.0841 18.9423 12.6881 19.4025 12.1561 19.5177C11.5563 19.6476 10.9513 19.8111 10.3816 20.0056C7.79122 20.8828 6.32267 22.5251 6.7306 25.422C7.51586 30.9709 17.6937 32.6132 16.8472 21.7702V2.56603C16.8472 1.95529 17.3411 1.45957 17.9519 1.45734L19.6388 1.45117H21.4792Z" stroke="url(#paint3_linear)" stroke-opacity="0.25" stroke-width="1.47826" stroke-linecap="round" stroke-linejoin="round"/>
<defs>
<linearGradient id="paint0_linear" x1="31.3723" y1="1.45118" x2="-2.28995" y2="7.21619" gradientUnits="userSpaceOnUse">
<stop stop-color="#117CB6"/>
<stop offset="1" stop-color="#117CB6" stop-opacity="0"/>
</linearGradient>
<linearGradient id="paint1_linear" x1="5.78454" y1="-24.8988" x2="44.6426" y2="-11.0172" gradientUnits="userSpaceOnUse">
<stop stop-color="#FF5B7E"/>
<stop offset="1" stop-color="#FF5B7E" stop-opacity="0"/>
</linearGradient>
<linearGradient id="paint2_linear" x1="31.3723" y1="1.45118" x2="-2.28995" y2="7.21619" gradientUnits="userSpaceOnUse">
<stop stop-color="#117CB6"/>
<stop offset="1" stop-color="#117CB6" stop-opacity="0"/>
</linearGradient>
<linearGradient id="paint3_linear" x1="5.78454" y1="-24.8988" x2="44.6426" y2="-11.0172" gradientUnits="userSpaceOnUse">
<stop stop-color="#FF5B7E"/>
<stop offset="1" stop-color="#FF5B7E" stop-opacity="0"/>
</linearGradient>
</defs>
</svg>
