<svg width="21" height="20" viewBox="0 0 21 20" fill="none" xmlns="http://www.w3.org/2000/svg">
  <path d="M18.4405 0H3.20236C1.88951 0 0.821411 1.0681 0.821411 2.38095V17.619C0.821411 18.9319 1.88951 20 3.20236 20H18.4405C19.7533 20 20.8214 18.9319 20.8214 17.619V2.38095C20.8214 1.0681 19.7533 0 18.4405 0ZM16.5386 8.72524C16.4305 8.73524 16.3209 8.7419 16.21 8.7419C14.9609 8.7419 13.8633 8.09952 13.2247 7.12857C13.2247 9.67571 13.2247 12.5738 13.2247 12.6224C13.2247 14.8648 11.4066 16.6829 9.16427 16.6829C6.92189 16.6829 5.10379 14.8648 5.10379 12.6224C5.10379 10.38 6.92189 8.5619 9.16427 8.5619C9.24903 8.5619 9.33189 8.56952 9.41522 8.57476V10.5757C9.33189 10.5657 9.24998 10.5505 9.16427 10.5505C8.01951 10.5505 7.09189 11.4781 7.09189 12.6229C7.09189 13.7676 8.01951 14.6952 9.16427 14.6952C10.309 14.6952 11.32 13.7933 11.32 12.6486C11.32 12.6033 11.34 3.3181 11.34 3.3181H13.2524C13.4324 5.0281 14.8128 6.37762 16.5386 6.50143V8.72524Z" fill="white"/>
</svg>
