<svg fill="none" height="32" viewBox="0 0 32 32" width="32" xmlns="http://www.w3.org/2000/svg"><path d="m0 16c0-8.83656 7.16344-16 16-16 8.8366 0 16 7.16344 16 16 0 8.8366-7.1634 16-16 16-8.83656 0-16-7.1634-16-16zm15.5208-2.995.0336.5536-.5596-.0678c-2.0369-.2598-3.8164-1.1411-5.32724-2.6213l-.73865-.7344-.19026.5424c-.4029 1.2089-.14549 2.4857.69388 3.3444.44767.4745.34695.5423-.42528.2599-.2686-.0904-.50362-.1582-.52601-.1243-.07834.0791.19026 1.1072.4029 1.514.29099.5649.88414 1.1186 1.53326 1.4462l.5484.2599-.6491.0113c-.62676 0-.64914.0113-.58199.2486.22383.7344 1.10799 1.514 2.09289 1.853l.6938.2372-.6043.3616c-.8953.5197-1.94737.8135-2.99938.8361-.50363.0113-.91772.0565-.91772.0904 0 .113 1.36538.7457 2.16.9943 2.3838.7344 5.2153.418 7.3417-.8361 1.5109-.8926 3.0218-2.6665 3.7269-4.3839.3805-.9152.761-2.5874.761-3.3896 0-.5198.0336-.5876.6603-1.209.3693-.3616.7163-.757.7834-.87.1119-.2147.1007-.2147-.47-.0226-.9513.339-1.0856.2938-.6156-.2147.347-.3615.7611-1.0169.7611-1.20894 0-.03389-.1679.0226-.3582.12429-.2014.11295-.6491.28245-.9848.38415l-.6044.1921-.5484-.3729c-.3022-.20335-.7274-.42933-.9513-.49712-.5708-.15818-1.4437-.13558-1.9585.0452-1.399.50842-2.2831 1.81912-2.1824 3.25402z" fill="#117cb6"/></svg>