<svg width="248" height="22" fill="none" xmlns="http://www.w3.org/2000/svg"><path d="M11.446 19.724c4.632-2.232 7.708-4.737 9.276-7.309 1.327-2.178 1.492-4.302.659-6.05-.757-1.586-2.294-2.718-4.065-3.01-1.89-.312-3.814.354-5.339 2.003l-.531.574-.532-.574C9.389 3.709 7.465 3.043 5.575 3.355c-1.77.292-3.308 1.424-4.065 3.01-.833 1.748-.668 3.872.66 6.05 1.567 2.572 4.644 5.077 9.276 7.31z" fill="#fff" stroke="#BF0020" stroke-width="1.737" stroke-linecap="round" stroke-linejoin="round"/><path d="M10.974 13.449l-1.26.645a.267.267 0 0 1-.356-.107.25.25 0 0 1-.026-.163l.24-1.368a.97.97 0 0 0-.29-.873l-1.02-.968a.252.252 0 0 1-.006-.363.266.266 0 0 1 .151-.075l1.41-.2c.33-.046.615-.248.762-.539l.63-1.244a.267.267 0 0 1 .473 0l.63 1.244c.148.291.433.493.763.54l1.41.2c.144.02.243.15.222.29a.255.255 0 0 1-.076.147l-1.02.968a.97.97 0 0 0-.292.873l.241 1.368a.257.257 0 0 1-.215.296.27.27 0 0 1-.167-.026l-1.26-.645a1.038 1.038 0 0 0-.944 0z" fill="#18A1E6"/><path d="M37.755 7.914V18h-3.362V7.914h-2.762V5.067h8.886v2.847h-2.762zm8.476 2.144h4.855V5.067h3.362V18h-3.362v-5.335H46.23V18H42.87V5.067h3.361v4.991zm19.143-2.144h-3.996v2.161h3.773v2.848h-3.773v2.23h3.996V18h-7.358V5.067h7.358v2.847zm16.264 2.848h6.672c0 .686-.029 1.309-.086 1.87a6.63 6.63 0 0 1-.343 1.56 6.352 6.352 0 0 1-.978 1.801 5.88 5.88 0 0 1-1.458 1.304 6.84 6.84 0 0 1-1.818.789 7.837 7.837 0 0 1-2.092.274c-1.007 0-1.927-.166-2.762-.497a6.296 6.296 0 0 1-2.127-1.39 6.444 6.444 0 0 1-1.39-2.16c-.33-.847-.497-1.779-.497-2.797 0-1.006.16-1.927.48-2.761a6.224 6.224 0 0 1 1.39-2.162 6.406 6.406 0 0 1 2.178-1.389c.847-.332 1.79-.497 2.83-.497 1.35 0 2.534.291 3.551.874 1.018.584 1.824 1.487 2.419 2.71l-3.19 1.321c-.298-.709-.687-1.218-1.167-1.526a2.865 2.865 0 0 0-1.612-.463c-.504 0-.961.097-1.373.291a2.923 2.923 0 0 0-1.063.806c-.286.343-.515.76-.686 1.252-.16.492-.24 1.041-.24 1.647 0 .55.068 1.058.206 1.527.148.469.365.875.651 1.218.286.343.64.611 1.064.806.423.183.915.274 1.475.274.332 0 .652-.034.96-.103.31-.08.584-.2.824-.36.251-.171.457-.389.617-.652.16-.263.269-.583.326-.96h-2.761v-2.607zm12.588.771c0 .515.097.99.291 1.424a3.6 3.6 0 0 0 .79 1.132c.331.32.714.572 1.149.755.446.171.914.257 1.406.257a3.75 3.75 0 0 0 1.39-.257 3.666 3.666 0 0 0 1.166-.755 3.453 3.453 0 0 0 1.098-2.556 3.453 3.453 0 0 0-1.098-2.555 3.438 3.438 0 0 0-1.167-.738 3.544 3.544 0 0 0-1.389-.274c-.492 0-.96.091-1.406.274a3.474 3.474 0 0 0-1.15.738c-.331.32-.594.697-.789 1.132-.194.434-.291.909-.291 1.423zm-3.517 0c0-.96.178-1.852.532-2.675a6.675 6.675 0 0 1 1.475-2.179 6.65 6.65 0 0 1 2.247-1.44c.88-.355 1.847-.532 2.9-.532 1.04 0 2 .177 2.881.531a6.62 6.62 0 0 1 2.264 1.441 6.545 6.545 0 0 1 1.492 2.179c.355.823.532 1.715.532 2.675 0 .961-.177 1.859-.532 2.693a6.592 6.592 0 0 1-1.492 2.162 6.835 6.835 0 0 1-2.264 1.458c-.88.343-1.841.514-2.882.514-1.052 0-2.018-.171-2.899-.514a6.87 6.87 0 0 1-2.247-1.458 6.725 6.725 0 0 1-1.475-2.162 6.819 6.819 0 0 1-.532-2.693zm20.237 0c0 .515.098.99.292 1.424.194.435.457.812.789 1.132.332.32.715.572 1.149.755.446.171.915.257 1.407.257.491 0 .955-.086 1.389-.257a3.652 3.652 0 0 0 1.166-.755c.344-.32.612-.697.807-1.132.194-.434.291-.909.291-1.424 0-.514-.097-.989-.291-1.423a3.468 3.468 0 0 0-.807-1.132 3.426 3.426 0 0 0-1.166-.738 3.542 3.542 0 0 0-1.389-.274c-.492 0-.961.091-1.407.274a3.482 3.482 0 0 0-1.149.738c-.332.32-.595.697-.789 1.132-.194.434-.292.909-.292 1.423zm-3.516 0c0-.96.177-1.852.532-2.675a6.666 6.666 0 0 1 1.475-2.179 6.653 6.653 0 0 1 2.247-1.44c.88-.355 1.847-.532 2.899-.532 1.04 0 2.001.177 2.881.531a6.615 6.615 0 0 1 2.265 1.441 6.56 6.56 0 0 1 1.492 2.179c.354.823.532 1.715.532 2.675 0 .961-.178 1.859-.532 2.693a6.607 6.607 0 0 1-1.492 2.162 6.83 6.83 0 0 1-2.265 1.458c-.88.343-1.841.514-2.881.514-1.052 0-2.019-.171-2.899-.514a6.873 6.873 0 0 1-2.247-1.458 6.715 6.715 0 0 1-1.475-2.162 6.809 6.809 0 0 1-.532-2.693zm20.666 3.62h.772c.583 0 1.103-.092 1.561-.275a3.25 3.25 0 0 0 1.149-.755c.32-.32.56-.697.72-1.132.172-.446.257-.932.257-1.458 0-.514-.085-.994-.257-1.44a3.25 3.25 0 0 0-.737-1.15 3.245 3.245 0 0 0-1.15-.754 4.123 4.123 0 0 0-1.543-.275h-.772v7.239zm-3.362-10.086h4.974c.881 0 1.704.177 2.47.532a6.54 6.54 0 0 1 2.024 1.423 6.359 6.359 0 0 1 1.372 2.059c.332.777.498 1.595.498 2.452 0 .847-.166 1.664-.498 2.453a6.365 6.365 0 0 1-1.355 2.059 6.529 6.529 0 0 1-2.024 1.423 5.849 5.849 0 0 1-2.487.532h-4.974V5.067zm24.391 5.935h1.115c1.235 0 1.852-.538 1.852-1.613s-.617-1.612-1.852-1.612h-1.115v3.225zm0 6.998h-3.362V5.067h5.351c1.453 0 2.562.377 3.328 1.132.778.755 1.166 1.818 1.166 3.19 0 1.373-.388 2.436-1.166 3.19-.766.755-1.875 1.133-3.328 1.133h-1.989V18zm15.433-4.803l-1.51-4.305-1.509 4.305h3.019zm.892 2.556h-4.803L159.875 18h-3.585l4.923-12.933h3.671L169.806 18h-3.584l-.772-2.247zm10.047-4.906h.635c.663 0 1.172-.137 1.526-.411.355-.275.532-.67.532-1.184 0-.514-.177-.909-.532-1.183-.354-.275-.863-.412-1.526-.412h-.635v3.19zM182.89 18h-4.185l-3.208-4.974V18h-3.362V5.067h5.232c.72 0 1.349.108 1.887.326.537.206.977.491 1.32.857.355.366.618.79.789 1.27a4.3 4.3 0 0 1 .275 1.543c0 .984-.24 1.784-.721 2.402-.469.606-1.166 1.018-2.092 1.235l4.065 5.3zm7.186-10.086V18h-3.362V7.914h-2.761V5.067h8.885v2.847h-2.762zm9.074 3.877l-4.717-6.724h4.014l2.401 3.533 2.385-3.533h4.013l-4.734 6.724V18h-3.362v-6.21z" fill="#484848"/></svg>