<svg fill="none" height="32" viewBox="0 0 40 32" width="40" xmlns="http://www.w3.org/2000/svg"><path clip-rule="evenodd" d="m19.8523 3.94903c-2.9619-3.099157-6.7568-4.42432-10.54874-3.797197-3.58347.592651-6.71124 2.892477-8.25998 6.150567-1.729051 3.63744-1.303199 7.9235 1.23042 12.0956 2.96622 4.8845 8.66 9.457 16.9148 13.4499.4191.2028.9079.2028 1.327 0 8.2549-3.9929 13.9486-8.5654 16.9148-13.4499 2.5336-4.1721 2.9595-8.45816 1.2305-12.0956-1.5488-3.25809-4.6766-5.557916-8.26-6.150567-3.7919-.627123-7.5869.69804-10.5488 3.797197zm-2.053 2.26561c-2.3634-2.56394-5.2379-3.51261-7.99847-3.05606-2.63087.43511-4.8981 2.12402-6.0048 4.4522-1.19548 2.51492-1.04131 5.70752 1.08286 9.20532 2.46365 4.0569 7.35421 8.1817 14.97341 11.9633 7.6193-3.7816 12.5098-7.9064 14.9734-11.9633 2.1242-3.4978 2.2784-6.6904 1.0829-9.20532-1.1067-2.32818-3.3739-4.01709-6.0048-4.4522-2.7605-.45655-5.6351.49212-7.9984 3.05606l-.9327 1.0118c-.2885.31298-.6947.49103-1.1204.49103-.4256 0-.8319-.17805-1.1204-.49103z" fill="#bf0020" fill-rule="evenodd"/><path d="m19.0246 19.4274-2.2111 1.1361c-.226.1161-.5055.0313-.6243-.1895-.0474-.0879-.0637-.1886-.0465-.2865l.4225-2.4075c.0988-.5633-.0923-1.1381-.5112-1.5372l-1.7897-1.705c-.1828-.1741-.1864-.4601-.0082-.6387.0709-.071.1639-.1173.2645-.1316l2.4725-.3511c.5792-.0823 1.0799-.4377 1.3388-.9505l1.1057-2.1897c.113-.22371.3902-.31559.6191-.20523.0913.04393.1651.11613.2101.20523l1.1057 2.1897c.259.5128.7596.8682 1.3388.9505l2.4726.3511c.2526.0359.4277.2651.3909.5119-.0146.0983-.0619.1891-.1347.2584l-1.7897 1.705c-.4188.3991-.61.9739-.5111 1.5372l.4225 2.4075c.0431.2458-.1259.4793-.3776.5214-.1002.0168-.2033.0009-.2933-.0454l-2.211-1.1361c-.5182-.2662-1.1372-.2662-1.6553 0z" fill="#18a1e6"/></svg>