<svg fill="none" height="126" width="117" xmlns="http://www.w3.org/2000/svg"><path d="m20.774 60.03s4.29-39.29 13.32-43.077c9.032-3.787 14.225 38.911 14.225 38.911l-9.259 23.574-13.544 5.112-4.74-24.52z" fill="#fff"/><path d="m21.858 60.021 4.518 23.363 11.819-4.46 9.079-23.119c-1.756-14.325-6.253-36.22-11.52-38.209-.382-.143-.703-.134-1.108.036-6.995 2.933-11.592 31.51-12.788 42.39zm2.843 25.723-4.966-25.676.01-.084c.442-4.063 4.6-39.804 13.846-43.68a4.154 4.154 0 0 1 3.136-.067c8 3.02 12.214 35.842 12.667 39.574l.018.141-9.436 24.028z" fill="#17120f"/><path d="m26.108 34.024-1.398-.538 11.79-16.136 1.398.54-11.789 16.133zm-2.348 10.792-1.4-.539 16.804-23.035 1.4.54zm2.953 3.477-1.4-.537 15.835-21.79 1.401.538zm4.098 1.86-1.398-.54 13.9-18.96 1.398.54zm4.264 1.677-1.398-.54 9.963-13.61 1.398.54zm4.036 2.42-1.389-.551 4.42-5.895 1.39.55-4.42 5.895z" fill="#17120f"/><path d="m74.754 11.767c.69-2.961 1.372-6.012 1.372-6.012l-9.59-4.44s-.22-.065-.634-.235c-1.478-.451-3.06-.386-4.751.322-19.417 8.143-21.45 80-21.45 80s-.48-4.197-1.608-9.637l.688-.931-3.036-18.594-4.883-2.2c-1.407-.634-2.713-1.374-4.077-2.055-1.73-.863-3.663-.966-5.824-.003-14.224 6.343-19.868 55.478-19.868 55.478l10.205 4.6 9.4-12.734 64.837-26.895s-2.48-37.51-10.781-56.666z" fill="#fff"/><path d="m2.215 103.032 8.697 3.922 9.013-12.208 64.535-26.773c-.322-4.384-3.034-38.312-10.701-56.002l-.077-.176.043-.182c.523-2.237 1.038-4.526 1.261-5.508l-8.956-4.148a6.644 6.644 0 0 1 -.636-.236c-1.118-.337-2.363-.242-3.703.32-18.684 7.835-20.901 78.637-20.92 79.351l-2.108.048c-.005-.043-.492-4.237-1.602-9.587l-.052-.252.697-.943-2.938-17.988-4.45-2.004c-.919-.415-1.798-.873-2.675-1.33-.478-.251-.957-.501-1.442-.744-1.492-.744-2.978-.736-4.674.018-12.889 5.748-18.687 49.404-19.312 54.422zm9.064 5.909-11.279-5.101.055-.468c.232-2.022 5.855-49.598 20.367-56.07 2.395-1.065 4.806-1.056 6.976.026.499.248.989.505 1.48.762.839.438 1.675.876 2.553 1.272l5.316 2.396 2.658 16.285c1.625-21.326 6.598-61.193 21.232-67.33 1.924-.806 3.837-.93 5.689-.366.414.165.59.222.622.231l10.346 4.776-.111.499s-.657 2.93-1.333 5.835c8.186 19.084 10.728 56.306 10.754 56.681l.03.47-65.136 27.02-9.348 12.702-.87.38z" fill="#17120f"/><path d="m11.316 108.034s5.645-49.135 19.869-55.478c14.225-6.343 18.74 33.42 18.74 33.42s2.032-71.858 21.449-80c19.418-8.142 24.385 67.03 24.385 67.03l-84.442 35.028z" fill="#fff"/><path d="m34.158 52.657c-.782 0-1.591.19-2.443.57-12.265 5.469-18.109 45.26-19.186 53.429l82.121-34.067c-1.441-21.155-7.11-61.549-18.523-66.072-1.35-.538-2.743-.492-4.248.14-18.685 7.836-20.845 77.78-20.865 78.495l-2.166.903c-.933-8.215-5.094-30.179-13.03-33.099a4.761 4.761 0 0 0 -1.66-.299zm-22.822 56.263-1.168-.505c.232-2.022 5.928-50.024 20.442-56.496 2.119-.944 4.193-1.056 6.161-.331 6.788 2.497 10.64 15.354 12.57 24.613 1.326-20.09 5.992-64.377 21.482-70.872 2.168-.909 4.29-.961 6.317-.159 15.4 6.105 19.484 65.299 19.65 67.815l.031.47-85.485 35.465z" fill="#17120f"/><path d="m94.314 42.58 1.771-2.727-7.918-4.047s-.742-.451-.763-.435c-2.822-1.36-6.177-1.373-10.147.918-17.391 10.042-16.727 34.156-34.807 48.558-18.077 14.401-25.63 9.513-25.63 9.513l-2.06 14.665 8.92 4.597 25.777-18.3 50.892-35.182s-1.694-10.03-6.035-17.56z" fill="#fff"/><path d="m15.91 108.45 7.682 3.958 25.254-17.926 50.34-34.8c-.457-2.326-2.22-10.368-5.786-16.554l-.323-.56 1.485-2.288-6.875-3.513c-.06-.034-.423-.257-.62-.367l-.12-.057c-2.799-1.348-5.794-1.061-9.162.882-8.654 4.996-12.747 13.717-17.08 22.95-4.238 9.03-8.62 18.368-17.596 25.518-14.302 11.392-22.367 11.007-25.429 10.157zm7.48 6.285-9.777-5.095 2.393-17.045 1.388.899c.06.034 7.321 4.154 24.4-9.452 8.59-6.843 12.865-15.953 17-24.762 4.478-9.543 8.707-18.555 17.936-23.884 3.957-2.286 7.702-2.609 11.133-.957l-.002.008c.242.105.519.272.855.478l8.894 4.54-2.062 3.174c4.15 7.523 5.774 16.94 5.842 17.347l.111.66-51.443 35.565z" fill="#17120f"/><path d="m109.314 64.579s-5.699-33.892-23.092-23.852c-17.392 10.043-16.728 34.156-34.805 48.559-18.08 14.4-25.632 9.512-25.632 9.512l-2.059 14.666z" fill="#fff"/><path d="m16.82 94.357 8.974 4.399-2.114 14.863-8.92-4.597z" fill="#fff"/><g fill="#17120f"><path d="m52.083 90.076c8.976-7.15 13.358-16.487 17.596-25.517 4.333-9.234 8.426-17.955 17.08-22.951 3.349-1.934 6.32-2.239 9.095-.933 8.008 3.77 11.583 19.731 12.291 23.324l-83.064 47.447 1.573-11.213c3.065.85 11.126 1.236 25.429-10.157zm-34.419 5.878 6.977 3.419-1.796 12.634-6.934-3.573zm7.014 18.152 85.807-49.01-.122-.727c-.142-.852-3.619-20.898-13.609-25.605-3.393-1.598-7.113-1.26-11.05 1.015-9.23 5.33-13.459 14.341-17.937 23.884-4.134 8.809-8.409 17.919-16.999 24.762-15.442 12.3-22.836 10.119-24.16 9.56l-.291-.142-1.337-.865-9.002-4.201-2.365 16.847 8.943 4.61.997.514z"/><path d="m109.867 64.514s-5.699-33.891-23.092-23.85c-17.392 10.04-16.728 34.157-34.807 48.557-18.078 14.403-25.63 9.513-25.63 9.513l-2.059 14.667zm-74.903 60.049c.57.328.57.861 0 1.19s-1.493.329-2.064 0c-.569-.329-.569-.862 0-1.19.57-.33 1.493-.33 2.064 0zm5.412-3.118c.57.33.57.864 0 1.192s-1.493.328-2.064 0c-.57-.328-.57-.862 0-1.192.57-.328 1.495-.328 2.064 0zm5.357-3.115c.57.329.57.862 0 1.192-.569.328-1.493.328-2.062 0-.57-.33-.57-.863 0-1.192.569-.329 1.493-.329 2.062 0zm5.414-3.116c.569.329.569.863 0 1.191-.57.33-1.495.33-2.064 0-.57-.328-.57-.862 0-1.191s1.493-.329 2.064 0zm5.412-3.116c.57.329.57.862 0 1.192-.57.328-1.493.328-2.064 0-.57-.33-.57-.863 0-1.192.57-.33 1.494-.33 2.064 0zm-32.364 12.465c.569.328.569.861 0 1.19-.57.329-1.495.329-2.064 0-.57-.329-.57-.862 0-1.19.57-.33 1.493-.33 2.064 0zm5.356-3.118c.569.33.569.864 0 1.192-.57.328-1.495.328-2.064 0s-.569-.862 0-1.192c.57-.328 1.494-.328 2.064 0zm5.413-3.115c.57.329.57.862 0 1.192-.57.328-1.493.328-2.064 0-.569-.33-.569-.863 0-1.192.57-.329 1.493-.329 2.064 0zm5.412-3.116c.57.329.57.863 0 1.191-.57.33-1.493.33-2.064 0-.57-.328-.57-.862 0-1.191s1.495-.329 2.064 0zm5.357-3.116c.57.329.57.862 0 1.192-.569.328-1.493.328-2.062 0-.57-.33-.57-.863 0-1.192.569-.33 1.493-.33 2.062 0zm5.414-3.117c.569.33.569.863 0 1.191-.57.33-1.495.33-2.064 0-.57-.328-.57-.861 0-1.191.57-.328 1.493-.328 2.064 0zm-32.42 12.41c.57.33.57.863 0 1.191-.57.33-1.493.33-2.063 0-.57-.328-.57-.861 0-1.191.57-.329 1.493-.329 2.063 0zm5.412-3.115c.57.328.57.861 0 1.19-.569.33-1.493.33-2.063 0-.57-.329-.57-.862 0-1.19.57-.33 1.494-.33 2.063 0zm-10.823 0c.569.328.569.861 0 1.19-.57.33-1.495.33-2.064 0-.57-.329-.57-.862 0-1.19.57-.33 1.493-.33 2.064 0zm5.411-3.117c.57.329.57.863 0 1.191s-1.493.328-2.063 0-.57-.862 0-1.191 1.493-.329 2.063 0zm-10.769 0c.569.329.569.863 0 1.191-.57.328-1.495.328-2.064 0-.57-.328-.57-.862 0-1.191s1.494-.329 2.064 0zm5.358-3.115c.569.328.569.861 0 1.191-.57.329-1.495.329-2.064 0-.57-.33-.57-.863 0-1.191.57-.33 1.493-.33 2.064 0zm-10.771 0c.57.328.57.861 0 1.191-.57.329-1.493.329-2.062 0-.57-.33-.57-.863 0-1.191.569-.33 1.493-.33 2.062 0zm5.413-3.117c.569.329.569.863 0 1.191-.57.33-1.495.33-2.064 0-.57-.328-.57-.862 0-1.191s1.494-.329 2.064 0zm-5.413-3.116c.57.329.57.862 0 1.192-.57.328-1.493.328-2.062 0-.57-.33-.57-.863 0-1.192.569-.329 1.493-.329 2.062 0zm57.36 3.172c.57-.33 1.493-.331 2.064-.003.57.328.572.862.003 1.191-.568.33-1.492.332-2.064.003-.57-.328-.572-.861-.003-1.191zm7.478-3.117c.569.328.569.861 0 1.19-.57.33-1.495.33-2.064 0-.57-.329-.57-.862 0-1.19.57-.33 1.493-.33 2.064 0zm5.357-3.117c.57.328.57.863 0 1.191-.57.329-1.494.329-2.063 0-.57-.328-.57-.863 0-1.191.569-.328 1.493-.328 2.063 0zm5.412-3.115c.57.328.57.861 0 1.19s-1.493.329-2.064 0c-.569-.329-.569-.862 0-1.19.57-.33 1.493-.33 2.064 0zm5.412-3.118c.57.33.57.863 0 1.192-.57.328-1.493.328-2.064 0-.569-.329-.569-.862 0-1.192.57-.328 1.495-.328 2.064 0zm5.411-3.114c.57.328.57.861 0 1.191-.569.328-1.493.328-2.062 0-.57-.33-.57-.863 0-1.191.57-.33 1.493-.33 2.062 0zm5.36-3.118c.568.33.568.863 0 1.192-.571.328-1.495.328-2.064 0-.57-.329-.57-.862 0-1.192.569-.328 1.493-.328 2.063 0zm5.412-3.115c.569.329.569.862 0 1.19-.57.33-1.493.33-2.064 0-.57-.328-.57-.861 0-1.19.57-.33 1.493-.33 2.064 0zm5.411-3.117c.569.33.569.864 0 1.192s-1.493.328-2.064 0c-.569-.328-.569-.862 0-1.192.571-.328 1.495-.328 2.064 0zm5.357-3.115c.571.328.571.862 0 1.191-.569.329-1.493.329-2.064 0-.569-.33-.569-.863 0-1.191.571-.33 1.495-.33 2.064 0zm5.413-3.117c.57.33.57.863 0 1.192-.569.33-1.494.33-2.063 0-.57-.329-.57-.862 0-1.192.569-.328 1.494-.328 2.063 0zm-61.435 28.046c.57-.33 1.492-.33 2.064-.002.57.329.572.862.003 1.192-.57.328-1.492.33-2.064.001-.57-.328-.572-.861-.003-1.191zm7.476-3.117c.57.328.57.863 0 1.191-.569.329-1.493.329-2.062 0-.57-.328-.57-.863 0-1.191s1.493-.328 2.062 0zm5.414-3.115c.569.328.569.861 0 1.19-.57.329-1.495.329-2.064 0-.57-.329-.57-.862 0-1.19.57-.33 1.493-.33 2.064 0zm5.357-3.118c.57.33.57.863 0 1.192-.57.328-1.494.328-2.063 0-.57-.329-.57-.862 0-1.192.569-.328 1.493-.328 2.063 0zm5.412-3.114c.57.328.57.861 0 1.191-.57.328-1.493.328-2.064 0-.569-.33-.569-.863 0-1.191.57-.33 1.493-.33 2.064 0zm5.412-3.118c.57.33.57.863 0 1.192-.57.328-1.493.328-2.064 0-.569-.329-.569-.862 0-1.192.57-.328 1.495-.328 2.064 0zm5.411-3.115c.57.329.57.862 0 1.192-.569.328-1.493.328-2.062 0-.57-.33-.57-.863 0-1.192.57-.33 1.493-.33 2.062 0zm5.36-3.117c.568.33.568.864 0 1.192-.571.328-1.495.328-2.064 0-.57-.328-.57-.862 0-1.192.569-.328 1.493-.328 2.063 0zm5.412-3.115c.569.328.569.862 0 1.191-.57.329-1.493.329-2.064 0-.57-.33-.57-.863 0-1.191.57-.33 1.493-.33 2.064 0zm5.411-3.117c.57.33.57.863 0 1.192-.569.33-1.493.33-2.064 0-.569-.329-.569-.862 0-1.192.571-.328 1.495-.328 2.064 0zm5.357-3.115c.571.328.571.862 0 1.191-.569.329-1.493.329-2.064 0-.569-.33-.569-.863 0-1.191.571-.33 1.495-.33 2.064 0zm5.413-3.117c.57.33.57.863 0 1.191-.569.33-1.494.33-2.063 0-.57-.328-.57-.862 0-1.191.569-.329 1.494-.329 2.063 0z"/></g></svg>