<svg width="285" height="79" viewBox="0 0 285 79" fill="none" xmlns="http://www.w3.org/2000/svg">
<path d="M49.9596 0.927999C51.9516 0.927999 53.7516 1.288 55.3596 2.008C56.9676 2.704 58.2876 3.676 59.3196 4.924C60.3516 6.172 61.0236 7.6 61.3356 9.208C61.4076 9.496 61.4436 9.724 61.4436 9.892C61.4436 10.108 61.3956 10.252 61.2996 10.324C61.2276 10.396 61.0836 10.444 60.8676 10.468L54.5676 10.864C54.3276 10.864 54.1716 10.828 54.0996 10.756C54.0276 10.66 53.9556 10.468 53.8836 10.18C53.6676 9.028 53.2716 8.128 52.6956 7.48C52.1196 6.808 51.2796 6.472 50.1756 6.472C48.7596 6.472 47.6676 7.096 46.8996 8.344C46.1316 9.592 45.7476 11.62 45.7476 14.428C45.7476 17.332 46.0956 19.396 46.7916 20.62C47.5116 21.844 48.6276 22.456 50.1396 22.456C51.4116 22.456 52.4916 22.132 53.3796 21.484C54.2916 20.836 55.0476 19.756 55.6476 18.244C55.7196 18.028 55.9236 17.92 56.2596 17.92C56.4276 17.92 56.5596 17.932 56.6556 17.956L61.1556 18.856C61.5156 18.976 61.6956 19.252 61.6956 19.684C61.6956 20.356 61.2756 21.4 60.4356 22.816C59.6196 24.208 58.3236 25.48 56.5476 26.632C54.7956 27.784 52.5756 28.36 49.8876 28.36C47.3436 28.36 45.1116 27.76 43.1916 26.56C41.2716 25.336 39.7836 23.668 38.7276 21.556C37.6956 19.42 37.1796 16.996 37.1796 14.284C37.1796 11.596 37.6956 9.244 38.7276 7.228C39.7836 5.212 41.2716 3.664 43.1916 2.584C45.1356 1.48 47.3916 0.927999 49.9596 0.927999ZM87.8786 26.848C87.9266 26.944 87.9506 27.076 87.9506 27.244C87.9506 27.46 87.8786 27.64 87.7346 27.784C87.6146 27.928 87.4466 28 87.2306 28H80.2466C79.7426 28 79.4186 27.748 79.2746 27.244L75.8906 17.956C75.8186 17.764 75.6986 17.62 75.5306 17.524C75.3626 17.428 75.1106 17.38 74.7746 17.38H73.1186C72.9746 17.38 72.8666 17.428 72.7946 17.524C72.7226 17.62 72.6866 17.704 72.6866 17.776V26.956C72.6866 27.34 72.5906 27.616 72.3986 27.784C72.2066 27.928 71.9066 28 71.4986 28H65.4506C65.0906 28 64.8386 27.928 64.6946 27.784C64.5746 27.64 64.5146 27.412 64.5146 27.1V2.116C64.5146 1.564 64.7426 1.288 65.1986 1.288H77.2226C80.7026 1.288 83.4026 1.96 85.3226 3.304C87.2426 4.624 88.2026 6.496 88.2026 8.92C88.2026 10.576 87.7586 12.052 86.8706 13.348C86.0066 14.644 84.8786 15.556 83.4866 16.084C83.3426 16.156 83.2706 16.276 83.2706 16.444C83.2706 16.516 83.2946 16.624 83.3426 16.768L87.8786 26.848ZM76.8986 12.016C77.8106 12.016 78.5066 11.788 78.9866 11.332C79.4906 10.852 79.7426 10.216 79.7426 9.424C79.7426 8.536 79.4426 7.852 78.8426 7.372C78.2666 6.868 77.5466 6.616 76.6826 6.616H73.5146C73.2026 6.616 72.9866 6.676 72.8666 6.796C72.7466 6.892 72.6866 7.072 72.6866 7.336V11.26C72.6866 11.524 72.7226 11.716 72.7946 11.836C72.8906 11.956 73.0586 12.016 73.2986 12.016H76.8986ZM91.1279 2.116C91.1279 1.564 91.3559 1.288 91.8119 1.288H111.252C111.684 1.288 111.9 1.54 111.9 2.044L111.864 6.22C111.864 6.868 111.552 7.192 110.928 7.192H100.128C99.5759 7.192 99.2999 7.42 99.2999 7.876V10.936C99.2999 11.176 99.3599 11.368 99.4799 11.512C99.5999 11.632 99.7559 11.692 99.9479 11.692H106.428C106.932 11.692 107.184 11.932 107.184 12.412V16.876C107.184 17.284 106.968 17.488 106.536 17.488H99.8759C99.7079 17.488 99.5639 17.536 99.4439 17.632C99.3479 17.728 99.2999 17.848 99.2999 17.992V21.592C99.2999 21.784 99.3239 21.916 99.3719 21.988C99.4439 22.06 99.5639 22.096 99.7319 22.096H111.432C111.96 22.096 112.224 22.324 112.224 22.78V27.208C112.224 27.448 112.152 27.64 112.008 27.784C111.864 27.928 111.648 28 111.36 28H92.0999C91.7399 28 91.4879 27.928 91.3439 27.784C91.1999 27.64 91.1279 27.412 91.1279 27.1V2.116ZM114.956 28C114.764 28 114.608 27.94 114.488 27.82C114.368 27.676 114.308 27.484 114.308 27.244C114.308 27.076 114.344 26.884 114.416 26.668L123.128 2.116C123.248 1.804 123.38 1.588 123.524 1.468C123.668 1.348 123.896 1.288 124.208 1.288H131.3C131.588 1.288 131.84 1.384 132.056 1.576C132.296 1.744 132.476 1.972 132.596 2.26L141.236 26.776C141.284 26.968 141.308 27.112 141.308 27.208C141.308 27.424 141.26 27.616 141.164 27.784C141.068 27.928 140.924 28 140.732 28H133.676C133.268 28 133.004 27.796 132.884 27.388L131.48 23.248C131.408 23.08 131.336 22.972 131.264 22.924C131.216 22.852 131.108 22.816 130.94 22.816H123.308C123.02 22.816 122.84 22.948 122.768 23.212L121.292 27.46C121.148 27.82 120.86 28 120.428 28H114.956ZM129.14 16.696C129.404 16.696 129.536 16.576 129.536 16.336C129.536 16.288 129.512 16.168 129.464 15.976L127.304 9.82C127.256 9.7 127.184 9.64 127.088 9.64C126.992 9.64 126.92 9.7 126.872 9.82L124.676 15.94C124.628 16.036 124.604 16.156 124.604 16.3C124.604 16.564 124.748 16.696 125.036 16.696H129.14ZM138.85 2.116C138.85 1.876 138.922 1.684 139.066 1.54C139.234 1.372 139.462 1.288 139.75 1.288H161.278C161.566 1.288 161.782 1.372 161.926 1.54C162.094 1.684 162.178 1.876 162.178 2.116V6.4C162.178 6.856 161.914 7.084 161.386 7.084H155.014C154.726 7.084 154.582 7.204 154.582 7.444V27.208C154.582 27.472 154.522 27.676 154.402 27.82C154.282 27.94 154.114 28 153.898 28H147.058C146.626 28 146.41 27.76 146.41 27.28V7.588C146.41 7.252 146.278 7.084 146.014 7.084H139.678C139.126 7.084 138.85 6.856 138.85 6.4V2.116ZM175.824 28.36C173.208 28.36 170.916 27.808 168.948 26.704C167.004 25.576 165.504 23.992 164.448 21.952C163.392 19.888 162.864 17.476 162.864 14.716C162.864 11.956 163.392 9.544 164.448 7.48C165.528 5.392 167.04 3.784 168.984 2.656C170.952 1.504 173.232 0.927999 175.824 0.927999C178.392 0.927999 180.648 1.504 182.592 2.656C184.536 3.784 186.036 5.392 187.092 7.48C188.172 9.544 188.712 11.956 188.712 14.716C188.712 17.452 188.184 19.852 187.128 21.916C186.072 23.98 184.572 25.576 182.628 26.704C180.684 27.808 178.416 28.36 175.824 28.36ZM175.824 22.744C176.88 22.744 177.72 22.492 178.344 21.988C178.968 21.46 179.424 20.62 179.712 19.468C180 18.316 180.144 16.768 180.144 14.824C180.144 11.848 179.808 9.712 179.136 8.416C178.464 7.12 177.36 6.472 175.824 6.472C174.264 6.472 173.136 7.12 172.44 8.416C171.768 9.712 171.432 11.848 171.432 14.824C171.432 16.768 171.576 18.316 171.864 19.468C172.152 20.62 172.608 21.46 173.232 21.988C173.88 22.492 174.744 22.744 175.824 22.744ZM215.074 26.848C215.122 26.944 215.146 27.076 215.146 27.244C215.146 27.46 215.074 27.64 214.93 27.784C214.81 27.928 214.642 28 214.426 28H207.442C206.938 28 206.614 27.748 206.47 27.244L203.086 17.956C203.014 17.764 202.894 17.62 202.726 17.524C202.558 17.428 202.306 17.38 201.97 17.38H200.314C200.17 17.38 200.062 17.428 199.99 17.524C199.918 17.62 199.882 17.704 199.882 17.776V26.956C199.882 27.34 199.786 27.616 199.594 27.784C199.402 27.928 199.102 28 198.694 28H192.646C192.286 28 192.034 27.928 191.89 27.784C191.77 27.64 191.71 27.412 191.71 27.1V2.116C191.71 1.564 191.938 1.288 192.394 1.288H204.418C207.898 1.288 210.598 1.96 212.518 3.304C214.438 4.624 215.398 6.496 215.398 8.92C215.398 10.576 214.954 12.052 214.066 13.348C213.202 14.644 212.074 15.556 210.682 16.084C210.538 16.156 210.466 16.276 210.466 16.444C210.466 16.516 210.49 16.624 210.538 16.768L215.074 26.848ZM204.094 12.016C205.006 12.016 205.702 11.788 206.182 11.332C206.686 10.852 206.938 10.216 206.938 9.424C206.938 8.536 206.638 7.852 206.038 7.372C205.462 6.868 204.742 6.616 203.878 6.616H200.71C200.398 6.616 200.182 6.676 200.062 6.796C199.942 6.892 199.882 7.072 199.882 7.336V11.26C199.882 11.524 199.918 11.716 199.99 11.836C200.086 11.956 200.254 12.016 200.494 12.016H204.094ZM234.235 8.452C233.659 7.828 233.035 7.348 232.363 7.012C231.715 6.676 230.767 6.508 229.519 6.508C228.271 6.508 227.347 6.688 226.747 7.048C226.147 7.408 225.847 7.84 225.847 8.344C225.847 9.208 226.615 9.82 228.151 10.18L234.127 11.728C236.311 12.28 237.955 13.252 239.059 14.644C240.163 16.012 240.715 17.656 240.715 19.576C240.715 21.352 240.247 22.9 239.311 24.22C238.375 25.54 237.031 26.56 235.279 27.28C233.551 28 231.523 28.36 229.195 28.36C226.555 28.36 224.143 27.928 221.959 27.064C219.799 26.176 218.299 25.024 217.459 23.608C217.339 23.368 217.279 23.188 217.279 23.068C217.279 22.828 217.411 22.612 217.675 22.42L221.383 19.864C221.647 19.696 221.887 19.612 222.103 19.612C222.367 19.612 222.583 19.72 222.751 19.936C223.567 20.992 224.395 21.736 225.235 22.168C226.075 22.6 227.191 22.816 228.583 22.816C229.927 22.816 230.983 22.636 231.751 22.276C232.543 21.892 232.939 21.376 232.939 20.728C232.939 20.272 232.747 19.876 232.363 19.54C231.979 19.204 231.415 18.952 230.671 18.784L225.199 17.452C223.039 16.924 221.323 15.94 220.051 14.5C218.779 13.036 218.143 11.356 218.143 9.46C218.143 7.9 218.599 6.472 219.511 5.176C220.423 3.856 221.719 2.824 223.399 2.08C225.079 1.312 227.023 0.927999 229.231 0.927999C231.391 0.927999 233.395 1.288 235.243 2.008C237.091 2.704 238.423 3.64 239.239 4.816C239.407 5.032 239.491 5.236 239.491 5.428C239.491 5.596 239.407 5.752 239.239 5.896L235.315 8.74C235.195 8.836 235.063 8.884 234.919 8.884C234.751 8.884 234.523 8.74 234.235 8.452ZM13.2791 78.36C10.6631 78.36 8.37113 77.808 6.40313 76.704C4.45913 75.576 2.95913 73.992 1.90313 71.952C0.847125 69.888 0.319125 67.476 0.319125 64.716C0.319125 61.956 0.847125 59.544 1.90313 57.48C2.98313 55.392 4.49513 53.784 6.43913 52.656C8.40713 51.504 10.6871 50.928 13.2791 50.928C15.8471 50.928 18.1031 51.504 20.0471 52.656C21.9911 53.784 23.4911 55.392 24.5471 57.48C25.6271 59.544 26.1671 61.956 26.1671 64.716C26.1671 67.452 25.6391 69.852 24.5831 71.916C23.5271 73.98 22.0271 75.576 20.0831 76.704C18.1391 77.808 15.8711 78.36 13.2791 78.36ZM13.2791 72.744C14.3351 72.744 15.1751 72.492 15.7991 71.988C16.4231 71.46 16.8791 70.62 17.1671 69.468C17.4551 68.316 17.5991 66.768 17.5991 64.824C17.5991 61.848 17.2631 59.712 16.5911 58.416C15.9191 57.12 14.8151 56.472 13.2791 56.472C11.7191 56.472 10.5911 57.12 9.89513 58.416C9.22313 59.712 8.88713 61.848 8.88713 64.824C8.88713 66.768 9.03113 68.316 9.31913 69.468C9.60713 70.62 10.0631 71.46 10.6871 71.988C11.3351 72.492 12.1991 72.744 13.2791 72.744ZM29.165 52.116C29.165 51.852 29.225 51.648 29.345 51.504C29.465 51.36 29.633 51.288 29.849 51.288H49.037C49.469 51.288 49.685 51.54 49.685 52.044L49.649 56.22C49.649 56.868 49.349 57.192 48.749 57.192H38.165C37.613 57.192 37.337 57.42 37.337 57.876V61.26C37.337 61.74 37.553 61.98 37.985 61.98H44.573C45.053 61.98 45.293 62.22 45.293 62.7V67.092C45.293 67.5 45.077 67.704 44.645 67.704H37.913C37.745 67.704 37.601 67.752 37.481 67.848C37.385 67.944 37.337 68.076 37.337 68.244V76.956C37.337 77.34 37.241 77.616 37.049 77.784C36.857 77.928 36.557 78 36.149 78H30.137C29.777 78 29.525 77.928 29.381 77.784C29.237 77.64 29.165 77.412 29.165 77.1V52.116ZM58.9221 52.116C58.9221 51.876 58.9941 51.684 59.1381 51.54C59.3061 51.372 59.5341 51.288 59.8221 51.288H81.3501C81.6381 51.288 81.8541 51.372 81.9981 51.54C82.1661 51.684 82.2501 51.876 82.2501 52.116V56.4C82.2501 56.856 81.9861 57.084 81.4581 57.084H75.0861C74.7981 57.084 74.6541 57.204 74.6541 57.444V77.208C74.6541 77.472 74.5941 77.676 74.4741 77.82C74.3541 77.94 74.1861 78 73.9701 78H67.1301C66.6981 78 66.4821 77.76 66.4821 77.28V57.588C66.4821 57.252 66.3501 57.084 66.0861 57.084H59.7501C59.1981 57.084 58.9221 56.856 58.9221 56.4V52.116ZM93.8817 67.308C93.7137 67.308 93.5697 67.368 93.4497 67.488C93.3537 67.584 93.3057 67.704 93.3057 67.848V76.956C93.3057 77.34 93.2097 77.616 93.0177 77.784C92.8257 77.928 92.5257 78 92.1177 78H86.1057C85.7457 78 85.4937 77.928 85.3497 77.784C85.2057 77.64 85.1337 77.412 85.1337 77.1V52.116C85.1337 51.852 85.1937 51.648 85.3137 51.504C85.4337 51.36 85.6017 51.288 85.8177 51.288H92.6577C92.8497 51.288 93.0057 51.36 93.1257 51.504C93.2457 51.624 93.3057 51.804 93.3057 52.044V60.396C93.3057 60.876 93.5217 61.116 93.9537 61.116H100.002C100.434 61.116 100.65 60.876 100.65 60.396V52.044C100.65 51.804 100.71 51.624 100.83 51.504C100.95 51.36 101.106 51.288 101.298 51.288H108.138C108.354 51.288 108.522 51.36 108.642 51.504C108.762 51.648 108.822 51.852 108.822 52.116V77.1C108.822 77.412 108.75 77.64 108.606 77.784C108.462 77.928 108.21 78 107.85 78H101.838C101.43 78 101.13 77.928 100.938 77.784C100.746 77.616 100.65 77.34 100.65 76.956V67.848C100.65 67.704 100.59 67.584 100.47 67.488C100.374 67.368 100.242 67.308 100.074 67.308H93.8817ZM112.556 52.116C112.556 51.564 112.784 51.288 113.24 51.288H132.68C133.112 51.288 133.328 51.54 133.328 52.044L133.292 56.22C133.292 56.868 132.98 57.192 132.356 57.192H121.556C121.004 57.192 120.728 57.42 120.728 57.876V60.936C120.728 61.176 120.788 61.368 120.908 61.512C121.028 61.632 121.184 61.692 121.376 61.692H127.856C128.36 61.692 128.612 61.932 128.612 62.412V66.876C128.612 67.284 128.396 67.488 127.964 67.488H121.304C121.136 67.488 120.992 67.536 120.872 67.632C120.776 67.728 120.728 67.848 120.728 67.992V71.592C120.728 71.784 120.752 71.916 120.8 71.988C120.872 72.06 120.992 72.096 121.16 72.096H132.86C133.388 72.096 133.652 72.324 133.652 72.78V77.208C133.652 77.448 133.58 77.64 133.436 77.784C133.292 77.928 133.076 78 132.788 78H113.528C113.168 78 112.916 77.928 112.772 77.784C112.628 77.64 112.556 77.412 112.556 77.1V52.116ZM179.915 51.288C180.275 51.288 180.551 51.384 180.743 51.576C180.959 51.744 181.067 51.984 181.067 52.296C181.067 52.392 181.043 52.536 180.995 52.728L173.687 77.1C173.567 77.412 173.411 77.64 173.219 77.784C173.027 77.928 172.751 78 172.391 78H167.423C166.727 78 166.295 77.7 166.127 77.1L162.383 64.428C162.311 64.116 162.227 63.96 162.131 63.96C162.059 63.96 161.951 64.14 161.807 64.5L158.099 77.1C158.003 77.412 157.847 77.64 157.631 77.784C157.439 77.928 157.163 78 156.803 78H151.655C151.295 78 151.019 77.928 150.827 77.784C150.635 77.64 150.479 77.412 150.359 77.1L143.015 52.728C142.967 52.536 142.943 52.392 142.943 52.296C142.943 51.984 143.039 51.744 143.231 51.576C143.447 51.384 143.735 51.288 144.095 51.288H150.035C150.395 51.288 150.659 51.348 150.827 51.468C150.995 51.588 151.115 51.78 151.187 52.044L155.003 65.4C155.075 65.688 155.159 65.832 155.255 65.832C155.327 65.832 155.387 65.736 155.435 65.544L159.215 52.044C159.335 51.54 159.719 51.288 160.367 51.288H165.407C165.767 51.288 166.031 51.348 166.199 51.468C166.367 51.588 166.487 51.78 166.559 52.044L170.519 65.724C170.567 65.868 170.639 65.952 170.735 65.976C170.831 66 170.891 65.94 170.915 65.796L174.587 52.044C174.707 51.54 175.091 51.288 175.739 51.288H179.915ZM194.264 78.36C191.648 78.36 189.356 77.808 187.388 76.704C185.444 75.576 183.944 73.992 182.888 71.952C181.832 69.888 181.304 67.476 181.304 64.716C181.304 61.956 181.832 59.544 182.888 57.48C183.968 55.392 185.48 53.784 187.424 52.656C189.392 51.504 191.672 50.928 194.264 50.928C196.832 50.928 199.088 51.504 201.032 52.656C202.976 53.784 204.476 55.392 205.532 57.48C206.612 59.544 207.152 61.956 207.152 64.716C207.152 67.452 206.624 69.852 205.568 71.916C204.512 73.98 203.012 75.576 201.068 76.704C199.124 77.808 196.856 78.36 194.264 78.36ZM194.264 72.744C195.32 72.744 196.16 72.492 196.784 71.988C197.408 71.46 197.864 70.62 198.152 69.468C198.44 68.316 198.584 66.768 198.584 64.824C198.584 61.848 198.248 59.712 197.576 58.416C196.904 57.12 195.8 56.472 194.264 56.472C192.704 56.472 191.576 57.12 190.88 58.416C190.208 59.712 189.872 61.848 189.872 64.824C189.872 66.768 190.016 68.316 190.304 69.468C190.592 70.62 191.048 71.46 191.672 71.988C192.32 72.492 193.184 72.744 194.264 72.744ZM233.513 76.848C233.561 76.944 233.585 77.076 233.585 77.244C233.585 77.46 233.513 77.64 233.369 77.784C233.249 77.928 233.081 78 232.865 78H225.881C225.377 78 225.053 77.748 224.909 77.244L221.525 67.956C221.453 67.764 221.333 67.62 221.165 67.524C220.997 67.428 220.745 67.38 220.409 67.38H218.753C218.609 67.38 218.501 67.428 218.429 67.524C218.357 67.62 218.321 67.704 218.321 67.776V76.956C218.321 77.34 218.225 77.616 218.033 77.784C217.841 77.928 217.541 78 217.133 78H211.085C210.725 78 210.473 77.928 210.329 77.784C210.209 77.64 210.149 77.412 210.149 77.1V52.116C210.149 51.564 210.377 51.288 210.833 51.288H222.857C226.337 51.288 229.037 51.96 230.957 53.304C232.877 54.624 233.837 56.496 233.837 58.92C233.837 60.576 233.393 62.052 232.505 63.348C231.641 64.644 230.513 65.556 229.121 66.084C228.977 66.156 228.905 66.276 228.905 66.444C228.905 66.516 228.929 66.624 228.977 66.768L233.513 76.848ZM222.533 62.016C223.445 62.016 224.141 61.788 224.621 61.332C225.125 60.852 225.377 60.216 225.377 59.424C225.377 58.536 225.077 57.852 224.477 57.372C223.901 56.868 223.181 56.616 222.317 56.616H219.149C218.837 56.616 218.621 56.676 218.501 56.796C218.381 56.892 218.321 57.072 218.321 57.336V61.26C218.321 61.524 218.357 61.716 218.429 61.836C218.525 61.956 218.693 62.016 218.933 62.016H222.533ZM236.763 52.116C236.763 51.852 236.823 51.648 236.943 51.504C237.063 51.36 237.231 51.288 237.447 51.288H244.287C244.719 51.288 244.935 51.54 244.935 52.044V71.592C244.935 71.784 244.959 71.916 245.007 71.988C245.079 72.06 245.199 72.096 245.367 72.096H256.203C256.755 72.096 257.031 72.324 257.031 72.78V77.208C257.031 77.448 256.947 77.64 256.779 77.784C256.635 77.928 256.419 78 256.131 78H237.735C237.375 78 237.123 77.928 236.979 77.784C236.835 77.64 236.763 77.412 236.763 77.1V52.116ZM265.115 51.288C267.971 51.288 269.747 51.3 270.443 51.324C275.123 51.492 278.663 52.764 281.063 55.14C283.463 57.492 284.663 60.636 284.663 64.572C284.663 67.212 284.123 69.54 283.043 71.556C281.963 73.572 280.355 75.156 278.219 76.308C276.083 77.436 273.479 78 270.407 78H260.939C260.579 78 260.315 77.916 260.147 77.748C259.979 77.58 259.895 77.304 259.895 76.92V52.188C259.895 51.852 259.967 51.624 260.111 51.504C260.255 51.36 260.507 51.288 260.867 51.288H265.115ZM268.427 56.94C268.307 56.94 268.211 56.976 268.139 57.048C268.091 57.12 268.067 57.252 268.067 57.444V71.808C268.067 72.024 268.103 72.168 268.175 72.24C268.247 72.312 268.379 72.348 268.571 72.348H268.823C271.199 72.348 272.999 71.736 274.223 70.512C275.471 69.264 276.095 67.248 276.095 64.464C276.095 62.064 275.627 60.276 274.691 59.1C273.755 57.924 272.387 57.252 270.587 57.084L268.427 56.94Z" fill="black"/>
</svg>
