<svg fill="none" height="85" viewBox="0 0 311 85" width="311" xmlns="http://www.w3.org/2000/svg"><g fill="#000"><path d="m54.294 0c2.1787 0 4.1475.395185 5.9062 1.18556 1.7588.76402 3.2025 1.83102 4.3312 3.201 1.1288 1.36998 1.8638 2.93755 2.205 4.70271.0788.31615.1182.56643.1182.75085 0 .23708-.0525.39518-.1575.47418-.0788.0791-.2363.1318-.4725.1581l-6.8906.4347c-.2625 0-.4332-.0395-.5119-.1185-.0788-.1054-.1575-.3162-.2362-.6323-.2363-1.26463-.6694-2.25259-1.2994-2.96393-.63-.73767-1.5488-1.10651-2.7563-1.10651-1.5487 0-2.7431.68498-3.5831 2.05496s-1.26 3.59618-1.26 6.67868c0 3.1878.3807 5.4535 1.1419 6.7971.7875 1.3437 2.0081 2.0155 3.6619 2.0155 1.3912 0 2.5725-.3557 3.5437-1.067.9975-.7113 1.8244-1.8969 2.4806-3.5567.0788-.2371.3019-.3556.6694-.3556.1837 0 .3281.0131.4331.0395l4.9219.9879c.3937.1318.5906.4347.5906.909 0 .7376-.4594 1.8837-1.3781 3.4381-.8925 1.528-2.31 2.9244-4.2525 4.1889-1.9163 1.2646-4.3444 1.8969-7.2844 1.8969-2.7824 0-5.2237-.6586-7.3237-1.9759-2.1-1.3436-3.7274-3.1746-4.8824-5.4931-1.1288-2.3447-1.6932-5.0057-1.6932-7.9827 0-2.9507.5644-5.53262 1.6932-7.74565 1.155-2.21304 2.7824-3.91234 4.8824-5.0979 2.1263-1.211899 4.5938-1.81785 7.4025-1.81785z"/><path d="m95.7677 28.4534c.0525.1053.0787.2502.0787.4347 0 .2371-.0787.4347-.2362.5927-.1313.1581-.315.2372-.5513.2372h-7.6387c-.5512 0-.9056-.2767-1.0631-.8299l-3.7013-10.1958c-.0787-.2108-.21-.3689-.3937-.4742-.1837-.1054-.4594-.1581-.8269-.1581h-1.8112c-.1575 0-.2756.0527-.3544.1581-.0787.1053-.1181.1975-.1181.2766v10.0772c0 .4215-.105.7245-.315.9089-.21.1581-.5381.2372-.9844.2372h-6.6149c-.3938 0-.6694-.0791-.8269-.2372-.1313-.158-.1969-.4083-.1969-.7508v-27.42589c0-.605949.2494-.908925.7481-.908925h13.1512c3.8062 0 6.7594.737675 8.8593 2.213035 2.1 1.44902 3.15 3.50398 3.15 6.1649 0 1.81788-.4856 3.43808-1.4568 4.86078-.945 1.4227-2.1788 2.4238-3.7013 3.0034-.1575.079-.2362.2108-.2362.3952 0 .079.0262.1976.0787.3557zm-12.0094-16.2817c.9975 0 1.7588-.2503 2.2838-.7508.5512-.527.8268-1.2251.8268-2.09452 0-.97479-.3281-1.72565-.9843-2.25256-.63-.55326-1.4175-.82989-2.3625-.82989h-3.465c-.3412 0-.5775.06586-.7087.19759-.1313.10539-.1969.30298-.1969.59278v4.3075c0 .2898.0394.5006.1181.6323.105.1317.2888.1976.5513.1976z"/><path d="m99.3215 1.30411c0-.605949.2494-.908925.7485-.908925h21.262c.473 0 .709.276631.709.829895l-.04 4.58415c0 .71133-.341 1.067-1.023 1.067h-11.813c-.604 0-.905.25028-.905.75085v3.35912c0 .2634.065.4742.196.6323.132.1317.302.1975.512.1975h7.088c.551 0 .827.2635.827.7904v4.9003c0 .4479-.237.6718-.709.6718h-7.284c-.184 0-.342.0527-.473.1581-.105.1054-.157.2371-.157.3952v3.9518c0 .2108.026.3557.078.4348.079.079.21.1185.394.1185h12.797c.577 0 .866.2503.866.7509v4.8607c0 .2635-.079.4743-.236.6323-.158.1581-.394.2372-.709.2372h-21.065c-.3941 0-.6697-.0791-.8272-.2372-.1575-.158-.2363-.4083-.2363-.7508z"/><path d="m125.384 29.718c-.21 0-.381-.0659-.512-.1976-.131-.1581-.197-.3689-.197-.6323 0-.1845.039-.3952.118-.6323l9.529-26.95169c.131-.342493.275-.579603.433-.711332.157-.131728.407-.197593.748-.197593h7.757c.315 0 .59.105384.827.31615.262.184419.459.434705.59.750855l9.45 26.91211c.053.2108.079.3689.079.4742 0 .2372-.053.4479-.158.6323-.105.1581-.262.2372-.472.2372h-7.717c-.447 0-.735-.224-.867-.6719l-1.535-4.5446c-.079-.1844-.158-.303-.237-.3557-.052-.079-.17-.1185-.354-.1185h-8.347c-.315 0-.512.1449-.591.4347l-1.614 4.6632c-.158.3952-.473.5928-.945.5928zm15.513-12.4089c.289 0 .433-.1317.433-.3952 0-.0527-.026-.1844-.078-.3951l-2.363-6.75772c-.052-.13173-.131-.19759-.236-.19759s-.184.06586-.236.19759l-2.402 6.71812c-.053.1054-.079.2371-.079.3952 0 .2898.158.4347.473.4347z"/><path d="m151.517 1.30411c0-.26345.079-.47422.236-.632294.184-.184421.434-.276631.749-.276631h23.546c.315 0 .551.09221.708.276631.184.158074.276.368844.276.632294v4.70271c0 .50057-.289.75085-.866.75085h-6.97c-.315 0-.472.13173-.472.39519v21.69564c0 .2898-.066.5138-.197.6719-.131.1317-.315.1976-.551.1976h-7.481c-.473 0-.709-.2635-.709-.7904v-21.61667c0-.36884-.145-.55326-.433-.55326h-6.93c-.604 0-.906-.25028-.906-.75085z"/><path d="m191.958 30.1131c-2.862 0-5.369-.6059-7.521-1.8178-2.126-1.2383-3.767-2.9771-4.922-5.2165-1.155-2.2657-1.732-4.9134-1.732-7.9432s.577-5.67749 1.732-7.94323c1.181-2.29207 2.835-4.05723 4.961-5.29548 2.153-1.264593 4.647-1.89689 7.482-1.89689 2.808 0 5.276.632297 7.402 1.89689 2.126 1.23825 3.767 3.00341 4.922 5.29548 1.181 2.26574 1.772 4.91343 1.772 7.94323 0 3.0034-.578 5.638-1.733 7.9037s-2.795 4.0177-4.922 5.256c-2.126 1.2119-4.607 1.8178-7.441 1.8178zm0-6.1649c1.155 0 2.073-.2766 2.756-.8298.682-.5797 1.181-1.5018 1.496-2.7663.315-1.2646.472-2.9639.472-5.0979 0-3.2669-.367-5.61167-1.102-7.03434s-1.942-2.134-3.622-2.134c-1.707 0-2.94.71133-3.702 2.134-.735 1.42267-1.102 3.76744-1.102 7.03434 0 2.134.157 3.8333.472 5.0979.315 1.2645.814 2.1866 1.497 2.7663.708.5532 1.653.8298 2.835.8298z"/><path d="m234.887 28.4534c.052.1053.079.2502.079.4347 0 .2371-.079.4347-.237.5927-.131.1581-.315.2372-.551.2372h-7.639c-.551 0-.905-.2767-1.063-.8299l-3.701-10.1958c-.079-.2108-.21-.3689-.394-.4742-.184-.1054-.459-.1581-.827-.1581h-1.811c-.157 0-.275.0527-.354.1581-.079.1053-.118.1975-.118.2766v10.0772c0 .4215-.105.7245-.315.9089-.21.1581-.538.2372-.985.2372h-6.615c-.393 0-.669-.0791-.827-.2372-.131-.158-.196-.4083-.196-.7508v-27.42589c0-.605949.249-.908925.748-.908925h13.151c3.806 0 6.759.737675 8.859 2.213035 2.1 1.44902 3.15 3.50398 3.15 6.1649 0 1.81788-.485 3.43808-1.457 4.86078-.945 1.4227-2.178 2.4238-3.701 3.0034-.157.079-.236.2108-.236.3952 0 .079.026.1976.079.3557zm-12.01-16.2817c.998 0 1.759-.2503 2.284-.7508.551-.527.827-1.2251.827-2.09452 0-.97479-.328-1.72565-.984-2.25256-.63-.55326-1.418-.82989-2.363-.82989h-3.465c-.341 0-.577.06586-.708.19759-.132.10539-.197.30298-.197.59278v4.3075c0 .2898.039.5006.118.6323.105.1317.289.1976.551.1976z"/><path d="m255.844 8.25938c-.63-.68499-1.312-1.21191-2.047-1.58074-.709-.36884-1.746-.55326-3.111-.55326s-2.375.19759-3.032.59278c-.656.39518-.984.8694-.984 1.42266 0 .94845.84 1.62026 2.52 2.01548l6.536 1.6993c2.389.6059 4.187 1.6729 5.395 3.201 1.207 1.5017 1.811 3.3064 1.811 5.414 0 1.9496-.512 3.6489-1.536 5.0979s-2.494 2.5687-4.41 3.3591c-1.89.7903-4.108 1.1855-6.654 1.1855-2.888 0-5.526-.4742-7.914-1.4226-2.363-.9748-4.004-2.2394-4.922-3.7938-.132-.2635-.197-.4611-.197-.5928 0-.2634.144-.5006.433-.7113l4.056-2.8058c.288-.1845.551-.2767.787-.2767.289 0 .525.1186.709.3557.892 1.1592 1.798 1.9759 2.717 2.4501.918.4743 2.139.7114 3.662.7114 1.469 0 2.624-.1976 3.464-.5928.867-.4215 1.3-.988 1.3-1.6993 0-.5006-.21-.9353-.63-1.3041-.42-.3689-1.037-.6455-1.851-.8299l-5.985-1.4622c-2.362-.5796-4.239-1.6598-5.63-3.2405-1.392-1.6071-2.087-3.4513-2.087-5.5326 0-1.71247.499-3.28004 1.496-4.70271.998-1.44901 2.415-2.58188 4.253-3.3986 1.837-.843058 3.963-1.26459 6.378-1.26459 2.363 0 4.555.395185 6.576 1.18556 2.021.76402 3.478 1.7915 4.37 3.08244.184.23711.276.46105.276.67182 0 .18442-.092.35567-.276.51374l-4.291 3.12197c-.132.10538-.276.15807-.434.15807-.183 0-.433-.15808-.748-.47422z"/><path d="m14.1749 85c-2.8612 0-5.36807-.6059-7.52056-1.8178-2.12624-1.2383-3.76686-2.9771-4.92185-5.2165-1.154993-2.2657-1.73249-4.9135-1.73249-7.9432 0-3.0298.577497-5.6775 1.73249-7.9433 1.18124-2.292 2.83499-4.0572 4.96122-5.2954 2.15249-1.2646 4.64619-1.8969 7.48119-1.8969 2.8088 0 5.2762.6323 7.4025 1.8969 2.1262 1.2382 3.7668 3.0034 4.9218 5.2954 1.1813 2.2658 1.7719 4.9135 1.7719 7.9433 0 3.0034-.5775 5.638-1.7325 7.9037s-2.7956 4.0177-4.9218 5.256c-2.1263 1.2119-4.6069 1.8178-7.4419 1.8178zm0-6.1649c1.155 0 2.0738-.2766 2.7563-.8299.6825-.5796 1.1812-1.5017 1.4962-2.7663s.4725-2.9639.4725-5.0979c0-3.2668-.3675-5.6116-1.1025-7.0343-.735-1.4226-1.9425-2.134-3.6225-2.134-1.7062 0-2.94.7114-3.7012 2.134-.735 1.4227-1.1025 3.7675-1.1025 7.0343 0 2.134.1575 3.8333.4725 5.0979s.8137 2.1867 1.4962 2.7663c.7088.5533 1.6538.8299 2.835.8299z"/><path d="m31.55 56.191c0-.2898.0656-.5138.1969-.6718.1312-.1581.3149-.2371.5512-.2371h20.9868c.4725 0 .7087.2766.7087.8298l-.0394 4.5842c0 .7113-.3281 1.067-.9843 1.067h-11.5762c-.6038 0-.9056.2503-.9056.7509v3.7147c0 .5269.2362.7904.7087.7904h7.2056c.525 0 .7875.2634.7875.7903v4.8213c0 .4479-.2363.6718-.7088.6718h-7.3631c-.1837 0-.3412.0527-.4724.1581-.105.1054-.1575.2503-.1575.4347v9.5635c0 .4215-.105.7245-.315.9089-.21.1581-.5382.2371-.9844.2371h-6.5756c-.3938 0-.6694-.079-.8269-.2371s-.2362-.4084-.2362-.7508z"/><path d="m64.0966 56.191c0-.2635.0788-.4742.2363-.6323.1837-.1844.4331-.2766.7481-.2766h23.5461c.315 0 .5513.0922.7088.2766.1837.1581.2756.3688.2756.6323v4.7027c0 .5006-.2888.7508-.8662.7508h-6.9694c-.315 0-.4725.1318-.4725.3952v21.6957c0 .2898-.0656.5138-.1969.6718-.1312.1318-.315.1976-.5512.1976h-7.4812c-.4725 0-.7088-.2634-.7088-.7904v-21.6166c0-.3688-.1443-.5533-.4331-.5533h-6.93c-.6037 0-.9056-.2502-.9056-.7508z"/><path d="m102.334 72.8678c-.184 0-.342.0659-.473.1976-.105.1054-.157.2371-.157.3952v9.9982c0 .4215-.105.7245-.315.9089-.21.1581-.539.2371-.985.2371h-6.5754c-.3937 0-.6694-.079-.8269-.2371s-.2362-.4084-.2362-.7508v-27.4259c0-.2898.0656-.5138.1969-.6718.1312-.1581.315-.2371.5512-.2371h7.4814c.21 0 .38.079.512.2371.131.1317.197.3293.197.5927v9.1683c0 .527.236.7904.708.7904h6.615c.473 0 .709-.2634.709-.7904v-9.1683c0-.2634.066-.461.197-.5927.131-.1581.302-.2371.512-.2371h7.481c.236 0 .42.079.551.2371.131.158.197.382.197.6718v27.4259c0 .3424-.079.5927-.236.7508-.158.1581-.433.2371-.827.2371h-6.576c-.446 0-.774-.079-.984-.2371-.21-.1844-.315-.4874-.315-.9089v-9.9982c0-.1581-.066-.2898-.197-.3952-.105-.1317-.249-.1976-.433-.1976z"/><path d="m122.758 56.191c0-.606.249-.9089.748-.9089h21.263c.472 0 .708.2766.708.8298l-.039 4.5842c0 .7113-.341 1.067-1.024 1.067h-11.812c-.604 0-.906.2503-.906.7509v3.359c0 .2635.066.4743.197.6323.131.1318.302.1976.512.1976h7.087c.552 0 .827.2635.827.7904v4.9003c0 .4479-.236.6718-.709.6718h-7.284c-.184 0-.341.0527-.472.1581-.105.1054-.158.2371-.158.3952v3.9518c0 .2108.026.3557.079.4347.079.0791.21.1186.394.1186h12.796c.578 0 .867.2503.867.7508v4.8608c0 .2635-.079.4742-.237.6323-.157.1581-.393.2371-.708.2371h-21.066c-.394 0-.669-.079-.827-.2371-.157-.1581-.236-.4084-.236-.7508z"/><path d="m196.432 55.2821c.394 0 .696.1053.906.3161.236.1844.354.4479.354.7904 0 .1054-.026.2634-.079.4742l-7.993 26.7541c-.131.3424-.302.5927-.512.7508s-.512.2371-.905.2371h-5.434c-.761 0-1.234-.3293-1.418-.9879l-4.095-13.9106c-.078-.3425-.17-.5137-.275-.5137-.079 0-.197.1976-.355.5928l-4.055 13.8315c-.105.3424-.276.5927-.512.7508-.21.1581-.512.2371-.906.2371h-5.63c-.394 0-.696-.079-.906-.2371s-.381-.4084-.512-.7508l-8.032-26.7541c-.053-.2108-.079-.3688-.079-.4742 0-.3425.105-.606.315-.7904.236-.2108.551-.3161.945-.3161h6.497c.394 0 .682.0658.866.1976.184.1317.315.3424.394.6322l4.174 14.6614c.078.3162.17.4742.275.4742.079 0 .145-.1053.197-.3161l4.134-14.8195c.132-.5532.552-.8298 1.26-.8298h5.513c.394 0 .682.0658.866.1976.184.1317.315.3424.394.6322l4.331 15.0171c.053.1581.131.2503.236.2766.105.0264.171-.0395.197-.1976l4.016-15.0961c.132-.5532.552-.8298 1.26-.8298z"/><path d="m212.126 85c-2.862 0-5.369-.6059-7.521-1.8178-2.126-1.2383-3.767-2.9771-4.922-5.2165-1.155-2.2657-1.732-4.9135-1.732-7.9432 0-3.0298.577-5.6775 1.732-7.9433 1.181-2.292 2.835-4.0572 4.961-5.2954 2.153-1.2646 4.647-1.8969 7.482-1.8969 2.808 0 5.276.6323 7.402 1.8969 2.126 1.2382 3.767 3.0034 4.922 5.2954 1.181 2.2658 1.772 4.9135 1.772 7.9433 0 3.0034-.578 5.638-1.733 7.9037s-2.795 4.0177-4.922 5.256c-2.126 1.2119-4.606 1.8178-7.441 1.8178zm0-6.1649c1.155 0 2.073-.2766 2.756-.8299.682-.5796 1.181-1.5017 1.496-2.7663s.473-2.9639.473-5.0979c0-3.2668-.368-5.6116-1.103-7.0343-.735-1.4226-1.942-2.134-3.622-2.134-1.707 0-2.94.7114-3.702 2.134-.735 1.4227-1.102 3.7675-1.102 7.0343 0 2.134.157 3.8333.472 5.0979s.814 2.1867 1.497 2.7663c.708.5533 1.653.8299 2.835.8299z"/><path d="m255.055 83.3402c.052.1054.079.2503.079.4347 0 .2371-.079.4347-.237.5928-.131.1581-.315.2371-.551.2371h-7.639c-.551 0-.905-.2766-1.063-.8299l-3.701-10.1958c-.079-.2107-.21-.3688-.394-.4742-.183-.1054-.459-.1581-.827-.1581h-1.811c-.157 0-.275.0527-.354.1581s-.118.1976-.118.2767v10.0772c0 .4215-.105.7245-.315.9089-.21.1581-.538.2371-.985.2371h-6.615c-.393 0-.669-.079-.827-.2371-.131-.1581-.196-.4084-.196-.7508v-27.4259c0-.606.249-.9089.748-.9089h13.151c3.806 0 6.759.7376 8.859 2.213 2.1 1.449 3.15 3.504 3.15 6.1649 0 1.8178-.485 3.4381-1.457 4.8608-.945 1.4226-2.178 2.4238-3.701 3.0034-.157.079-.236.2107-.236.3952 0 .079.026.1976.079.3556zm-12.009-16.2816c.997 0 1.758-.2503 2.283-.7509.552-.5269.827-1.225.827-2.0945 0-.9747-.328-1.7256-.984-2.2525-.63-.5533-1.418-.8299-2.363-.8299h-3.465c-.341 0-.577.0659-.708.1976-.132.1054-.197.303-.197.5928v4.3075c0 .2898.039.5006.118.6323.105.1317.289.1976.551.1976z"/><path d="m258.609 56.191c0-.2898.065-.5138.197-.6718.131-.1581.315-.2371.551-.2371h7.481c.473 0 .709.2766.709.8298v21.4586c0 .2108.026.3557.079.4347.078.0791.21.1186.393.1186h11.852c.604 0 .906.2503.906.7508v4.8608c0 .2635-.092.4742-.276.6323-.157.1581-.394.2371-.709.2371h-20.12c-.394 0-.67-.079-.827-.2371-.158-.1581-.236-.4084-.236-.7508z"/><path d="m289.619 55.2821c3.124 0 5.067.0131 5.828.0395 5.119.1844 8.991 1.5807 11.615 4.1889 2.625 2.5819 3.938 6.0332 3.938 10.3539 0 2.898-.591 5.4536-1.772 7.6666s-2.94 3.9519-5.276 5.2164c-2.336 1.2383-5.184 1.8574-8.544 1.8574h-10.356c-.394 0-.683-.0922-.866-.2766-.184-.1844-.276-.4874-.276-.9089v-27.1493c0-.3688.079-.6191.236-.7508.158-.1581.433-.2371.827-.2371zm3.623 6.2044c-.131 0-.236.0395-.315.1185-.053.0791-.079.224-.079.4347v15.7679c0 .2371.04.3952.118.4742.079.0791.223.1186.433.1186h.276c2.599 0 4.568-.6718 5.906-2.0154 1.365-1.37 2.048-3.5831 2.048-6.6392 0-2.6345-.512-4.5973-1.536-5.8882-1.024-1.291-2.52-2.0286-4.489-2.2131z"/></g></svg>