<svg width="311" height="85" viewBox="0 0 311 85" fill="none" xmlns="http://www.w3.org/2000/svg">
<path d="M54.294 0C56.4727 0 58.4415 0.395185 60.2002 1.18556C61.959 1.94958 63.4027 3.01658 64.5314 4.38656C65.6602 5.75654 66.3952 7.32411 66.7364 9.08927C66.8152 9.40542 66.8546 9.6557 66.8546 9.84012C66.8546 10.0772 66.8021 10.2353 66.6971 10.3143C66.6183 10.3934 66.4608 10.4461 66.2246 10.4724L59.334 10.9071C59.0715 10.9071 58.9008 10.8676 58.8221 10.7886C58.7433 10.6832 58.6646 10.4724 58.5859 10.1563C58.3496 8.89167 57.9165 7.90371 57.2865 7.19237C56.6565 6.4547 55.7377 6.08586 54.5302 6.08586C52.9815 6.08586 51.7871 6.77084 50.9471 8.14082C50.1071 9.5108 49.6871 11.737 49.6871 14.8195C49.6871 18.0073 50.0678 20.273 50.829 21.6166C51.6165 22.9603 52.8371 23.6321 54.4909 23.6321C55.8821 23.6321 57.0634 23.2764 58.0346 22.5651C59.0321 21.8538 59.859 20.6682 60.5152 19.0084C60.594 18.7713 60.8171 18.6528 61.1846 18.6528C61.3683 18.6528 61.5127 18.6659 61.6177 18.6923L66.5396 19.6802C66.9333 19.812 67.1302 20.1149 67.1302 20.5892C67.1302 21.3268 66.6708 22.4729 65.7521 24.0273C64.8596 25.5553 63.4421 26.9517 61.4996 28.2162C59.5833 29.4808 57.1552 30.1131 54.2152 30.1131C51.4328 30.1131 48.9915 29.4545 46.8915 28.1372C44.7915 26.7936 43.1641 24.9626 42.0091 22.6441C40.8803 20.2994 40.3159 17.6384 40.3159 14.6614C40.3159 11.7107 40.8803 9.12878 42.0091 6.91575C43.1641 4.70271 44.7915 3.00341 46.8915 1.81785C49.0178 0.605951 51.4853 0 54.294 0Z" fill="black"/>
<path d="M95.7677 28.4534C95.8202 28.5587 95.8464 28.7036 95.8464 28.8881C95.8464 29.1252 95.7677 29.3228 95.6102 29.4808C95.4789 29.6389 95.2952 29.718 95.0589 29.718H87.4202C86.869 29.718 86.5146 29.4413 86.3571 28.8881L82.6558 18.6923C82.5771 18.4815 82.4458 18.3234 82.2621 18.2181C82.0784 18.1127 81.8027 18.06 81.4352 18.06H79.624C79.4665 18.06 79.3484 18.1127 79.2696 18.2181C79.1909 18.3234 79.1515 18.4156 79.1515 18.4947V28.5719C79.1515 28.9934 79.0465 29.2964 78.8365 29.4808C78.6265 29.6389 78.2984 29.718 77.8521 29.718H71.2372C70.8434 29.718 70.5678 29.6389 70.4103 29.4808C70.279 29.3228 70.2134 29.0725 70.2134 28.73V1.30411C70.2134 0.698161 70.4628 0.395185 70.9615 0.395185H84.1127C87.9189 0.395185 90.8721 1.13286 92.972 2.60822C95.072 4.05724 96.122 6.1122 96.122 8.77312C96.122 10.591 95.6364 12.2112 94.6652 13.6339C93.7202 15.0566 92.4864 16.0577 90.9639 16.6373C90.8064 16.7163 90.7277 16.8481 90.7277 17.0325C90.7277 17.1115 90.7539 17.2301 90.8064 17.3882L95.7677 28.4534ZM83.7583 12.1717C84.7558 12.1717 85.5171 11.9214 86.0421 11.4209C86.5933 10.8939 86.8689 10.1958 86.8689 9.32638C86.8689 8.35159 86.5408 7.60073 85.8846 7.07382C85.2546 6.52056 84.4671 6.24393 83.5221 6.24393H80.0571C79.7159 6.24393 79.4796 6.30979 79.3484 6.44152C79.2171 6.54691 79.1515 6.7445 79.1515 7.0343V11.3418C79.1515 11.6316 79.1909 11.8424 79.2696 11.9741C79.3746 12.1058 79.5584 12.1717 79.8209 12.1717H83.7583Z" fill="black"/>
<path d="M99.3215 1.30411C99.3215 0.698161 99.5709 0.395185 100.07 0.395185H121.332C121.805 0.395185 122.041 0.671816 122.041 1.22508L122.001 5.80923C122.001 6.52056 121.66 6.87623 120.978 6.87623H109.165C108.561 6.87623 108.26 7.12651 108.26 7.62708V10.9862C108.26 11.2496 108.325 11.4604 108.456 11.6185C108.588 11.7502 108.758 11.816 108.968 11.816H116.056C116.607 11.816 116.883 12.0795 116.883 12.6064V17.5067C116.883 17.9546 116.646 18.1785 116.174 18.1785H108.89C108.706 18.1785 108.548 18.2312 108.417 18.3366C108.312 18.442 108.26 18.5737 108.26 18.7318V22.6836C108.26 22.8944 108.286 23.0393 108.338 23.1184C108.417 23.1974 108.548 23.2369 108.732 23.2369H121.529C122.106 23.2369 122.395 23.4872 122.395 23.9878V28.8485C122.395 29.112 122.316 29.3228 122.159 29.4808C122.001 29.6389 121.765 29.718 121.45 29.718H100.385C99.9909 29.718 99.7153 29.6389 99.5578 29.4808C99.4003 29.3228 99.3215 29.0725 99.3215 28.73V1.30411Z" fill="black"/>
<path d="M125.384 29.718C125.174 29.718 125.003 29.6521 124.872 29.5204C124.741 29.3623 124.675 29.1515 124.675 28.8881C124.675 28.7036 124.714 28.4929 124.793 28.2558L134.322 1.30411C134.453 0.961617 134.597 0.724507 134.755 0.592778C134.912 0.46105 135.162 0.395185 135.503 0.395185H143.26C143.575 0.395185 143.85 0.500569 144.087 0.711335C144.349 0.895754 144.546 1.14604 144.677 1.46219L154.127 28.3743C154.18 28.5851 154.206 28.7432 154.206 28.8485C154.206 29.0857 154.153 29.2964 154.048 29.4808C153.943 29.6389 153.786 29.718 153.576 29.718H145.859C145.412 29.718 145.124 29.494 144.992 29.0461L143.457 24.5015C143.378 24.3171 143.299 24.1985 143.22 24.1458C143.168 24.0668 143.05 24.0273 142.866 24.0273H134.519C134.204 24.0273 134.007 24.1722 133.928 24.462L132.314 29.1252C132.156 29.5204 131.841 29.718 131.369 29.718H125.384ZM140.897 17.3091C141.186 17.3091 141.33 17.1774 141.33 16.9139C141.33 16.8612 141.304 16.7295 141.252 16.5188L138.889 9.76108C138.837 9.62935 138.758 9.56349 138.653 9.56349C138.548 9.56349 138.469 9.62935 138.417 9.76108L136.015 16.4792C135.962 16.5846 135.936 16.7163 135.936 16.8744C135.936 17.1642 136.094 17.3091 136.409 17.3091H140.897Z" fill="black"/>
<path d="M151.517 1.30411C151.517 1.04066 151.596 0.82989 151.753 0.671816C151.937 0.487395 152.187 0.395185 152.502 0.395185H176.048C176.363 0.395185 176.599 0.487395 176.756 0.671816C176.94 0.82989 177.032 1.04066 177.032 1.30411V6.00682C177.032 6.50739 176.743 6.75767 176.166 6.75767H169.196C168.881 6.75767 168.724 6.8894 168.724 7.15286V28.8485C168.724 29.1383 168.658 29.3623 168.527 29.5204C168.396 29.6521 168.212 29.718 167.976 29.718H160.495C160.022 29.718 159.786 29.4545 159.786 28.9276V7.31093C159.786 6.94209 159.641 6.75767 159.353 6.75767H152.423C151.819 6.75767 151.517 6.50739 151.517 6.00682V1.30411Z" fill="black"/>
<path d="M191.958 30.1131C189.096 30.1131 186.589 29.5072 184.437 28.2953C182.311 27.057 180.67 25.3182 179.515 23.0788C178.36 20.8131 177.783 18.1654 177.783 15.1356C177.783 12.1058 178.36 9.45811 179.515 7.19237C180.696 4.9003 182.35 3.13514 184.476 1.89689C186.629 0.632297 189.123 0 191.958 0C194.766 0 197.234 0.632297 199.36 1.89689C201.486 3.13514 203.127 4.9003 204.282 7.19237C205.463 9.45811 206.054 12.1058 206.054 15.1356C206.054 18.139 205.476 20.7736 204.321 23.0393C203.166 25.305 201.526 27.057 199.399 28.2953C197.273 29.5072 194.792 30.1131 191.958 30.1131ZM191.958 23.9482C193.113 23.9482 194.031 23.6716 194.714 23.1184C195.396 22.5387 195.895 21.6166 196.21 20.3521C196.525 19.0875 196.682 17.3882 196.682 15.2542C196.682 11.9873 196.315 9.64253 195.58 8.21986C194.845 6.79719 193.638 6.08586 191.958 6.08586C190.251 6.08586 189.018 6.79719 188.256 8.21986C187.521 9.64253 187.154 11.9873 187.154 15.2542C187.154 17.3882 187.311 19.0875 187.626 20.3521C187.941 21.6166 188.44 22.5387 189.123 23.1184C189.831 23.6716 190.776 23.9482 191.958 23.9482Z" fill="black"/>
<path d="M234.887 28.4534C234.939 28.5587 234.966 28.7036 234.966 28.8881C234.966 29.1252 234.887 29.3228 234.729 29.4808C234.598 29.6389 234.414 29.718 234.178 29.718H226.539C225.988 29.718 225.634 29.4413 225.476 28.8881L221.775 18.6923C221.696 18.4815 221.565 18.3234 221.381 18.2181C221.197 18.1127 220.922 18.06 220.554 18.06H218.743C218.586 18.06 218.468 18.1127 218.389 18.2181C218.31 18.3234 218.271 18.4156 218.271 18.4947V28.5719C218.271 28.9934 218.166 29.2964 217.956 29.4808C217.746 29.6389 217.418 29.718 216.971 29.718H210.356C209.963 29.718 209.687 29.6389 209.529 29.4808C209.398 29.3228 209.333 29.0725 209.333 28.73V1.30411C209.333 0.698161 209.582 0.395185 210.081 0.395185H223.232C227.038 0.395185 229.991 1.13286 232.091 2.60822C234.191 4.05724 235.241 6.1122 235.241 8.77312C235.241 10.591 234.756 12.2112 233.784 13.6339C232.839 15.0566 231.606 16.0577 230.083 16.6373C229.926 16.7163 229.847 16.8481 229.847 17.0325C229.847 17.1115 229.873 17.2301 229.926 17.3882L234.887 28.4534ZM222.877 12.1717C223.875 12.1717 224.636 11.9214 225.161 11.4209C225.712 10.8939 225.988 10.1958 225.988 9.32638C225.988 8.35159 225.66 7.60073 225.004 7.07382C224.374 6.52056 223.586 6.24393 222.641 6.24393H219.176C218.835 6.24393 218.599 6.30979 218.468 6.44152C218.336 6.54691 218.271 6.7445 218.271 7.0343V11.3418C218.271 11.6316 218.31 11.8424 218.389 11.9741C218.494 12.1058 218.678 12.1717 218.94 12.1717H222.877Z" fill="black"/>
<path d="M255.844 8.25938C255.214 7.57439 254.532 7.04747 253.797 6.67864C253.088 6.3098 252.051 6.12538 250.686 6.12538C249.321 6.12538 248.311 6.32297 247.654 6.71816C246.998 7.11334 246.67 7.58756 246.67 8.14082C246.67 9.08927 247.51 9.76108 249.19 10.1563L255.726 11.8556C258.115 12.4615 259.913 13.5285 261.121 15.0566C262.328 16.5583 262.932 18.363 262.932 20.4706C262.932 22.4202 262.42 24.1195 261.396 25.5685C260.372 27.0175 258.902 28.1372 256.986 28.9276C255.096 29.7179 252.878 30.1131 250.332 30.1131C247.444 30.1131 244.806 29.6389 242.418 28.6905C240.055 27.7157 238.414 26.4511 237.496 24.8967C237.364 24.6332 237.299 24.4356 237.299 24.3039C237.299 24.0405 237.443 23.8033 237.732 23.5926L241.788 20.7868C242.076 20.6023 242.339 20.5101 242.575 20.5101C242.864 20.5101 243.1 20.6287 243.284 20.8658C244.176 22.025 245.082 22.8417 246.001 23.3159C246.919 23.7902 248.14 24.0273 249.663 24.0273C251.132 24.0273 252.287 23.8297 253.127 23.4345C253.994 23.013 254.427 22.4465 254.427 21.7352C254.427 21.2346 254.217 20.7999 253.797 20.4311C253.377 20.0622 252.76 19.7856 251.946 19.6012L245.961 18.139C243.599 17.5594 241.722 16.4792 240.331 14.8985C238.939 13.2914 238.244 11.4472 238.244 9.3659C238.244 7.65343 238.743 6.08586 239.74 4.66319C240.738 3.21418 242.155 2.08131 243.993 1.26459C245.83 0.421532 247.956 0 250.371 0C252.734 0 254.926 0.395185 256.947 1.18556C258.968 1.94958 260.425 2.97706 261.317 4.268C261.501 4.50511 261.593 4.72905 261.593 4.93982C261.593 5.12424 261.501 5.29549 261.317 5.45356L257.026 8.57553C256.894 8.68091 256.75 8.7336 256.592 8.7336C256.409 8.7336 256.159 8.57552 255.844 8.25938Z" fill="black"/>
<path d="M14.1749 85C11.3137 85 8.80683 84.3941 6.65434 83.1822C4.5281 81.9439 2.88748 80.2051 1.73249 77.9657C0.577497 75.7 0 73.0522 0 70.0225C0 66.9927 0.577497 64.345 1.73249 62.0792C2.91373 59.7872 4.56748 58.022 6.69371 56.7838C8.8462 55.5192 11.3399 54.8869 14.1749 54.8869C16.9837 54.8869 19.4511 55.5192 21.5774 56.7838C23.7036 58.022 25.3442 59.7872 26.4992 62.0792C27.6805 64.345 28.2711 66.9927 28.2711 70.0225C28.2711 73.0259 27.6936 75.6605 26.5386 77.9262C25.3836 80.1919 23.743 81.9439 21.6168 83.1822C19.4905 84.3941 17.0099 85 14.1749 85ZM14.1749 78.8351C15.3299 78.8351 16.2487 78.5585 16.9312 78.0052C17.6137 77.4256 18.1124 76.5035 18.4274 75.2389C18.7424 73.9743 18.8999 72.275 18.8999 70.141C18.8999 66.8742 18.5324 64.5294 17.7974 63.1067C17.0624 61.6841 15.8549 60.9727 14.1749 60.9727C12.4687 60.9727 11.2349 61.6841 10.4737 63.1067C9.7387 64.5294 9.3712 66.8742 9.3712 70.141C9.3712 72.275 9.5287 73.9743 9.8437 75.2389C10.1587 76.5035 10.6574 77.4256 11.3399 78.0052C12.0487 78.5585 12.9937 78.8351 14.1749 78.8351Z" fill="black"/>
<path d="M31.55 56.191C31.55 55.9012 31.6156 55.6772 31.7469 55.5192C31.8781 55.3611 32.0618 55.2821 32.2981 55.2821H53.2849C53.7574 55.2821 53.9936 55.5587 53.9936 56.1119L53.9542 60.6961C53.9542 61.4074 53.6261 61.7631 52.9699 61.7631H41.3937C40.7899 61.7631 40.4881 62.0134 40.4881 62.514V66.2287C40.4881 66.7556 40.7243 67.0191 41.1968 67.0191H48.4024C48.9274 67.0191 49.1899 67.2825 49.1899 67.8094V72.6307C49.1899 73.0786 48.9536 73.3025 48.4811 73.3025H41.118C40.9343 73.3025 40.7768 73.3552 40.6456 73.4606C40.5406 73.566 40.4881 73.7109 40.4881 73.8953V83.4588C40.4881 83.8803 40.3831 84.1833 40.1731 84.3677C39.9631 84.5258 39.6349 84.6048 39.1887 84.6048H32.6131C32.2193 84.6048 31.9437 84.5258 31.7862 84.3677C31.6287 84.2096 31.55 83.9593 31.55 83.6169V56.191Z" fill="black"/>
<path d="M64.0966 56.191C64.0966 55.9275 64.1754 55.7168 64.3329 55.5587C64.5166 55.3743 64.766 55.2821 65.081 55.2821H88.6271C88.9421 55.2821 89.1784 55.3743 89.3359 55.5587C89.5196 55.7168 89.6115 55.9275 89.6115 56.191V60.8937C89.6115 61.3943 89.3227 61.6445 88.7453 61.6445H81.7759C81.4609 61.6445 81.3034 61.7763 81.3034 62.0397V83.7354C81.3034 84.0252 81.2378 84.2492 81.1065 84.4072C80.9753 84.539 80.7915 84.6048 80.5553 84.6048H73.0741C72.6016 84.6048 72.3653 84.3414 72.3653 83.8144V62.1978C72.3653 61.829 72.221 61.6445 71.9322 61.6445H65.0022C64.3985 61.6445 64.0966 61.3943 64.0966 60.8937V56.191Z" fill="black"/>
<path d="M102.334 72.8678C102.15 72.8678 101.992 72.9337 101.861 73.0654C101.756 73.1708 101.704 73.3025 101.704 73.4606V83.4588C101.704 83.8803 101.599 84.1833 101.389 84.3677C101.179 84.5258 100.85 84.6048 100.404 84.6048H93.8286C93.4349 84.6048 93.1592 84.5258 93.0017 84.3677C92.8442 84.2096 92.7655 83.9593 92.7655 83.6169V56.191C92.7655 55.9012 92.8311 55.6772 92.9624 55.5192C93.0936 55.3611 93.2774 55.2821 93.5136 55.2821H100.995C101.205 55.2821 101.375 55.3611 101.507 55.5192C101.638 55.6509 101.704 55.8485 101.704 56.1119V65.2802C101.704 65.8072 101.94 66.0706 102.412 66.0706H109.027C109.5 66.0706 109.736 65.8072 109.736 65.2802V56.1119C109.736 55.8485 109.802 55.6509 109.933 55.5192C110.064 55.3611 110.235 55.2821 110.445 55.2821H117.926C118.162 55.2821 118.346 55.3611 118.477 55.5192C118.608 55.6772 118.674 55.9012 118.674 56.191V83.6169C118.674 83.9593 118.595 84.2096 118.438 84.3677C118.28 84.5258 118.005 84.6048 117.611 84.6048H111.035C110.589 84.6048 110.261 84.5258 110.051 84.3677C109.841 84.1833 109.736 83.8803 109.736 83.4588V73.4606C109.736 73.3025 109.67 73.1708 109.539 73.0654C109.434 72.9337 109.29 72.8678 109.106 72.8678H102.334Z" fill="black"/>
<path d="M122.758 56.191C122.758 55.585 123.007 55.2821 123.506 55.2821H144.769C145.241 55.2821 145.477 55.5587 145.477 56.1119L145.438 60.6961C145.438 61.4074 145.097 61.7631 144.414 61.7631H132.602C131.998 61.7631 131.696 62.0134 131.696 62.514V65.873C131.696 66.1365 131.762 66.3473 131.893 66.5053C132.024 66.6371 132.195 66.7029 132.405 66.7029H139.492C140.044 66.7029 140.319 66.9664 140.319 67.4933V72.3936C140.319 72.8415 140.083 73.0654 139.61 73.0654H132.326C132.142 73.0654 131.985 73.1181 131.854 73.2235C131.749 73.3289 131.696 73.4606 131.696 73.6187V77.5705C131.696 77.7813 131.722 77.9262 131.775 78.0052C131.854 78.0843 131.985 78.1238 132.169 78.1238H144.965C145.543 78.1238 145.832 78.3741 145.832 78.8746V83.7354C145.832 83.9989 145.753 84.2096 145.595 84.3677C145.438 84.5258 145.202 84.6048 144.887 84.6048H123.821C123.427 84.6048 123.152 84.5258 122.994 84.3677C122.837 84.2096 122.758 83.9593 122.758 83.6169V56.191Z" fill="black"/>
<path d="M196.432 55.2821C196.826 55.2821 197.128 55.3874 197.338 55.5982C197.574 55.7826 197.692 56.0461 197.692 56.3886C197.692 56.494 197.666 56.652 197.613 56.8628L189.62 83.6169C189.489 83.9593 189.318 84.2096 189.108 84.3677C188.898 84.5258 188.596 84.6048 188.203 84.6048H182.769C182.008 84.6048 181.535 84.2755 181.351 83.6169L177.256 69.7063C177.178 69.3638 177.086 69.1926 176.981 69.1926C176.902 69.1926 176.784 69.3902 176.626 69.7854L172.571 83.6169C172.466 83.9593 172.295 84.2096 172.059 84.3677C171.849 84.5258 171.547 84.6048 171.153 84.6048H165.523C165.129 84.6048 164.827 84.5258 164.617 84.3677C164.407 84.2096 164.236 83.9593 164.105 83.6169L156.073 56.8628C156.02 56.652 155.994 56.494 155.994 56.3886C155.994 56.0461 156.099 55.7826 156.309 55.5982C156.545 55.3874 156.86 55.2821 157.254 55.2821H163.751C164.145 55.2821 164.433 55.3479 164.617 55.4797C164.801 55.6114 164.932 55.8221 165.011 56.1119L169.185 70.7733C169.263 71.0895 169.355 71.2475 169.46 71.2475C169.539 71.2475 169.605 71.1422 169.657 70.9314L173.791 56.1119C173.923 55.5587 174.343 55.2821 175.051 55.2821H180.564C180.958 55.2821 181.246 55.3479 181.43 55.4797C181.614 55.6114 181.745 55.8221 181.824 56.1119L186.155 71.129C186.208 71.2871 186.286 71.3793 186.391 71.4056C186.496 71.432 186.562 71.3661 186.588 71.208L190.604 56.1119C190.736 55.5587 191.156 55.2821 191.864 55.2821H196.432Z" fill="black"/>
<path d="M212.126 85C209.264 85 206.757 84.3941 204.605 83.1822C202.479 81.9439 200.838 80.2051 199.683 77.9657C198.528 75.7 197.951 73.0522 197.951 70.0225C197.951 66.9927 198.528 64.345 199.683 62.0792C200.864 59.7872 202.518 58.022 204.644 56.7838C206.797 55.5192 209.291 54.8869 212.126 54.8869C214.934 54.8869 217.402 55.5192 219.528 56.7838C221.654 58.022 223.295 59.7872 224.45 62.0792C225.631 64.345 226.222 66.9927 226.222 70.0225C226.222 73.0259 225.644 75.6605 224.489 77.9262C223.334 80.1919 221.694 81.9439 219.567 83.1822C217.441 84.3941 214.961 85 212.126 85ZM212.126 78.8351C213.281 78.8351 214.199 78.5585 214.882 78.0052C215.564 77.4256 216.063 76.5035 216.378 75.2389C216.693 73.9743 216.851 72.275 216.851 70.141C216.851 66.8742 216.483 64.5294 215.748 63.1067C215.013 61.6841 213.806 60.9727 212.126 60.9727C210.419 60.9727 209.186 61.6841 208.424 63.1067C207.689 64.5294 207.322 66.8742 207.322 70.141C207.322 72.275 207.479 73.9743 207.794 75.2389C208.109 76.5035 208.608 77.4256 209.291 78.0052C209.999 78.5585 210.944 78.8351 212.126 78.8351Z" fill="black"/>
<path d="M255.055 83.3402C255.107 83.4456 255.134 83.5905 255.134 83.7749C255.134 84.012 255.055 84.2096 254.897 84.3677C254.766 84.5258 254.582 84.6048 254.346 84.6048H246.707C246.156 84.6048 245.802 84.3282 245.644 83.7749L241.943 73.5791C241.864 73.3684 241.733 73.2103 241.549 73.1049C241.366 72.9995 241.09 72.9468 240.722 72.9468H238.911C238.754 72.9468 238.636 72.9995 238.557 73.1049C238.478 73.2103 238.439 73.3025 238.439 73.3816V83.4588C238.439 83.8803 238.334 84.1833 238.124 84.3677C237.914 84.5258 237.586 84.6048 237.139 84.6048H230.524C230.131 84.6048 229.855 84.5258 229.697 84.3677C229.566 84.2096 229.501 83.9593 229.501 83.6169V56.191C229.501 55.585 229.75 55.2821 230.249 55.2821H243.4C247.206 55.2821 250.159 56.0197 252.259 57.4951C254.359 58.9441 255.409 60.9991 255.409 63.66C255.409 65.4778 254.924 67.0981 253.952 68.5208C253.007 69.9434 251.774 70.9446 250.251 71.5242C250.094 71.6032 250.015 71.7349 250.015 71.9194C250.015 71.9984 250.041 72.117 250.094 72.275L255.055 83.3402ZM243.046 67.0586C244.043 67.0586 244.804 66.8083 245.329 66.3077C245.881 65.7808 246.156 65.0827 246.156 64.2132C246.156 63.2385 245.828 62.4876 245.172 61.9607C244.542 61.4074 243.754 61.1308 242.809 61.1308H239.344C239.003 61.1308 238.767 61.1967 238.636 61.3284C238.504 61.4338 238.439 61.6314 238.439 61.9212V66.2287C238.439 66.5185 238.478 66.7293 238.557 66.861C238.662 66.9927 238.846 67.0586 239.108 67.0586H243.046Z" fill="black"/>
<path d="M258.609 56.191C258.609 55.9012 258.674 55.6772 258.806 55.5192C258.937 55.3611 259.121 55.2821 259.357 55.2821H266.838C267.311 55.2821 267.547 55.5587 267.547 56.1119V77.5705C267.547 77.7813 267.573 77.9262 267.626 78.0052C267.704 78.0843 267.836 78.1238 268.019 78.1238H279.871C280.475 78.1238 280.777 78.3741 280.777 78.8746V83.7354C280.777 83.9989 280.685 84.2096 280.501 84.3677C280.344 84.5258 280.107 84.6048 279.792 84.6048H259.672C259.278 84.6048 259.002 84.5258 258.845 84.3677C258.687 84.2096 258.609 83.9593 258.609 83.6169V56.191Z" fill="black"/>
<path d="M289.619 55.2821C292.743 55.2821 294.686 55.2952 295.447 55.3216C300.566 55.506 304.438 56.9023 307.062 59.5105C309.687 62.0924 311 65.5437 311 69.8644C311 72.7624 310.409 75.318 309.228 77.531C308.047 79.744 306.288 81.4829 303.952 82.7474C301.616 83.9857 298.768 84.6048 295.408 84.6048H285.052C284.658 84.6048 284.369 84.5126 284.186 84.3282C284.002 84.1438 283.91 83.8408 283.91 83.4193V56.27C283.91 55.9012 283.989 55.6509 284.146 55.5192C284.304 55.3611 284.579 55.2821 284.973 55.2821H289.619ZM293.242 61.4865C293.111 61.4865 293.006 61.526 292.927 61.605C292.874 61.6841 292.848 61.829 292.848 62.0397V77.8076C292.848 78.0447 292.888 78.2028 292.966 78.2818C293.045 78.3609 293.189 78.4004 293.399 78.4004H293.675C296.274 78.4004 298.243 77.7286 299.581 76.385C300.946 75.015 301.629 72.8019 301.629 69.7458C301.629 67.1113 301.117 65.1485 300.093 63.8576C299.069 62.5666 297.573 61.829 295.604 61.6445L293.242 61.4865Z" fill="black"/>
</svg>
