<svg fill="none" height="16" viewBox="0 0 20 16" width="20" xmlns="http://www.w3.org/2000/svg"><path d="m10.225 15c3.8815-1.901 6.4597-4.033 7.7733-6.22299 1.1122-1.85444 1.2507-3.6626.5523-5.1501-.6341-1.35063-1.9224-2.31503-3.4064-2.56352-1.5839-.265231-3.1959.3016-4.4738 1.70535l-.4454.48926-.44547-.48926c-1.27795-1.40375-2.8899-1.970581-4.47385-1.70535-1.48396.24849-2.77227 1.21289-3.40638 2.56352-.69837 1.4875-.55986 3.29566.55241 5.1501 1.31353 2.18999 3.89171 4.32199 7.77329 6.22299z" stroke="#fff" stroke-linecap="round" stroke-linejoin="round" stroke-width="1.45571"/><path d="m9.83066 9.65892-1.05614.54948c-.10794.0561-.24145.0151-.29821-.0917-.02262-.0425-.03043-.0912-.02221-.13856l.20179-1.16429c.04723-.27245-.04407-.55044-.24414-.74343l-.85487-.82458c-.0873-.08422-.08907-.2225-.00392-.30887.03389-.03438.07828-.05675.12633-.06366l1.18103-.16982c.27666-.03979.5158-.21168.63948-.45968l.5282-1.05899c.0539-.10817.1863-.15261.2957-.09924.0436.02127.0788.05615.1003.09924l.5282 1.05899c.1237.248.3628.41989.6394.45968l1.1811.16982c.1207.01735.2043.12819.1868.24757-.007.04752-.0296.09144-.0644.12496l-.8549.82458c-.2.19299-.2913.47098-.2441.74343l.2018 1.16429c.0206.11886-.0601.23186-.1803.25216-.0479.0082-.0971.0004-.1401-.0219l-1.0562-.54948c-.2475-.12874-.5432-.12874-.79064 0z" fill="#fff"/></svg>