<svg width="16" height="16" fill="none" xmlns="http://www.w3.org/2000/svg"><path clip-rule="evenodd" d="M8 4.5a2 2 0 1 0 0-4 2 2 0 0 0 0 4zm2.5 5V8a2.5 2.5 0 0 0-5 0v1.5h1l.5 4h2l.5-4h1zM3 5.5a1.5 1.5 0 1 0 0-3 1.5 1.5 0 0 0 0 3z" stroke="#484848" stroke-linecap="round" stroke-linejoin="round"/><path d="M3.8 6.631A2.502 2.502 0 0 0 .5 9v.5h1l.5 3h2l.25-1.504" stroke="#484848" stroke-linecap="round" stroke-linejoin="round"/><path clip-rule="evenodd" d="M13 5.5a1.5 1.5 0 1 0 0-3 1.5 1.5 0 0 0 0 3z" stroke="#484848" stroke-linecap="round" stroke-linejoin="round"/><path d="M12.2 6.631A2.502 2.502 0 0 1 15.5 9v.5h-1l-.5 3h-2l-.25-1.504M15.5 14c0 .829-3.358 1.5-7.5 1.5-4.142 0-7.5-.671-7.5-1.5" stroke="#484848" stroke-linecap="round" stroke-linejoin="round"/></svg>