<svg fill="none" height="15" viewBox="0 0 20 15" width="20" xmlns="http://www.w3.org/2000/svg"><path d="m19.6094 4.96094c-.8985.70312-2.0313 1.5625-6.0156 4.45312-.7813.58594-2.2266 1.87504-3.5938 1.87504-1.40625 0-2.8125-1.2891-3.63281-1.87504-3.98438-2.89062-5.11719-3.75-6.015628-4.45312-.15625-.11719-.351562 0-.351562.19531v7.96875c0 1.0547.820312 1.875 1.875 1.875h16.25c1.0156 0 1.875-.8203 1.875-1.875v-7.96875c0-.19531-.2344-.3125-.3906-.19531zm-9.6094 5.03906c.8984.0391 2.1875-1.13281 2.8516-1.60156 5.1953-3.75 5.5859-4.10156 6.7578-5.03906.2344-.15626.3906-.42969.3906-.74219v-.74219c0-1.015625-.8594-1.875-1.875-1.875h-16.25c-1.054688 0-1.875.859375-1.875 1.875v.74219c0 .3125.117188.58593.351562.74219 1.171878.9375 1.562498 1.28906 6.757818 5.03906.66406.46875 1.95312 1.64066 2.89062 1.60156z" fill="#fff"/></svg>