<svg fill="none" height="24" viewBox="0 0 24 24" width="24" xmlns="http://www.w3.org/2000/svg"><g stroke="#117cb6" stroke-linecap="round" stroke-linejoin="round" stroke-width="1.5"><path clip-rule="evenodd" d="m17.25 23.25c3.3137 0 6-2.6863 6-6s-2.6863-6-6-6-6 2.6863-6 6 2.6863 6 6 6z" fill-rule="evenodd"/><path d="m17.25 14.25v6"/><path d="m14.25 17.25h6"/><path d="m8.25 15.75h-6c-.82843 0-1.5-.6716-1.5-1.5v-12c0-.82843.67157-1.5 1.5-1.5h18c.8284 0 1.5.67157 1.5 1.5v6.75"/><path d="m21.4111 1.30005-8.144 6.264c-1.1891.91474-2.8449.91474-4.03399 0l-8.144-6.264"/></g></svg>