<svg width="18" height="15" fill="none" xmlns="http://www.w3.org/2000/svg"><path d="M8.476 2.383l.35-.359h-.001l-.349.359zM4.562 1.058L4.48.565l.082.493zm-3.164 2.36l.452.214-.452-.215zM1.9 8.133l-.428.259.428-.26zM9 13.75l-.217.45a.5.5 0 0 0 .434 0L9 13.75zm7.1-5.616l.427.259-.428-.26zm.502-4.717l.452-.214-.452.214zm-3.164-2.359l.082-.493-.082.493zM9.524 2.382l-.349-.358.349.358zm-.23.236l.369.339-.369-.339zM9 2.938l-.368.34a.5.5 0 0 0 .736 0L9 2.937zm-.294-.32l-.369.339.369-.339zm.119-.594C7.58.812 6.025.31 4.48.565l.163.987c1.207-.2 2.448.18 3.485 1.189l.697-.717zM4.48.565C2.945.819 1.608 1.807.946 3.203l.904.429c.517-1.092 1.573-1.878 2.793-2.08L4.48.565zM.946 3.203c-.735 1.551-.563 3.39.527 5.19l.855-.518c-.955-1.578-1.04-3.058-.478-4.243l-.904-.429zm.527 5.19c1.273 2.101 3.726 4.079 7.31 5.807l.434-.9C5.718 11.612 3.46 9.742 2.328 7.875l-.855.518zM9.217 14.2c3.584-1.728 6.037-3.706 7.31-5.807l-.855-.518c-1.132 1.867-3.39 3.737-6.89 5.425l.435.9zm7.31-5.807c1.09-1.8 1.262-3.639.527-5.19l-.904.429c.562 1.185.477 2.665-.478 4.243l.855.518zm.527-5.19c-.662-1.396-2-2.384-3.534-2.638l-.163.987c1.22.202 2.276.988 2.793 2.08l.904-.429zM13.52.565c-1.545-.256-3.1.247-4.345 1.46l.697.716c1.037-1.009 2.278-1.39 3.485-1.19l.163-.986zm-4.345 1.46a6.431 6.431 0 0 0-.249.255l.737.677c.069-.075.139-.147.21-.216l-.698-.717zm-.249.255l-.294.32.736.677.295-.32-.737-.677zm.442.32l-.294-.32-.737.677.295.32.736-.677zm-.294-.32a6.439 6.439 0 0 0-.249-.256l-.697.717c.07.069.14.14.21.216l.736-.677z" fill="#484848"/><path d="M8.625 9.074l-1.003.567a.203.203 0 0 1-.283-.095.24.24 0 0 1-.02-.143l.19-1.2a.907.907 0 0 0-.231-.767l-.812-.85a.237.237 0 0 1-.003-.32.205.205 0 0 1 .12-.065l1.12-.175a.813.813 0 0 0 .608-.474l.501-1.093a.203.203 0 0 1 .376 0l.502 1.093a.813.813 0 0 0 .607.474l1.121.175c.115.018.194.132.178.255a.232.232 0 0 1-.062.13l-.811.85a.907.907 0 0 0-.232.766l.192 1.201c.02.123-.057.24-.171.26a.197.197 0 0 1-.133-.022l-1.003-.567a.757.757 0 0 0-.75 0z" fill="#666"/></svg>