<svg height="50" viewBox="0 0 50 50" width="50" xmlns="http://www.w3.org/2000/svg"><path d="m24.505859 4.0078125c-.525375.00025-1.051515.1035937-1.541015.3085937l-18.7421878 7.3300778c-.743.313-1.2226562 1.036797-1.2226562 1.841797-.001.805.4771406 1.529516 1.2441406 1.853516l18.9921874 7.433594c.375.159.778734.238281 1.177734.238281.389 0 .773954-.07661 1.126954-.22461l20.230468-7.458984c.748-.312 1.228516-1.037656 1.228516-1.847656-.001-.81-.483953-1.532563-1.251953-1.851563l-19.701172-7.3164059c-.49-.204-1.015641-.3068906-1.541016-.3066406zm-22.5078121 12.9941405c-1.05600003 0-1.9980469.851953-1.9980469 2.001953v15.966797c0 1.159.95195312 2.003906 2.0019531 2.003906.296 0 .5995781-.067843.8925781-.214843l17.9843748-8.923828c1.531-.766001 1.455-2.977719-.125-3.636719l-17.9843748-7.042969c-.255-.106-.5174843-.154297-.7714843-.154297zm46.0039061 0c-.241 0-.487469.043672-.730469.138672l-19 7.365234c-.766.301-1.271484 1.038329-1.271484 1.861329v16.630859c0 1.148.940047 2.001953 1.998047 2.001953.241 0 .487469-.043672.730469-.138672l19-7.435547c.767-.3 1.271484-1.038328 1.271484-1.861328v-16.560547c0-1.148-.940047-2.001953-1.998047-2.001953z"/></svg>