<svg height="50" viewBox="0 0 100 100" width="50" xmlns="http://www.w3.org/2000/svg"><path d="m13 27a2 2 0 1 0 0 4 2 2 0 1 0 0-4z" fill="#78a0cf"/><path d="m77 12a1 1 0 1 0 0 2 1 1 0 1 0 0-2z" fill="#f1bc19"/><path d="m50 13a37 37 0 1 0 0 74 37 37 0 1 0 0-74z" fill="#cee1f4"/><path d="m83 11a4 4 0 1 0 0 8 4 4 0 1 0 0-8z" fill="#f1bc19"/><path d="m87 22a2 2 0 1 0 0 4 2 2 0 1 0 0-4z" fill="#78a0cf"/><path d="m81 74a2 2 0 1 0 0 4 2 2 0 1 0 0-4zm-66-15a4 4 0 1 0 0 8 4 4 0 1 0 0-8z" fill="#fbcd59"/><path d="m25 85a2 2 0 1 0 0 4 2 2 0 1 0 0-4z" fill="#78a0cf"/><path d="m18.5 51a2.5 2.5 0 1 0 0 5 2.5 2.5 0 1 0 0-5z" fill="#fff"/><path d="m21 66a1 1 0 1 0 0 2 1 1 0 1 0 0-2z" fill="#f1bc19"/><path d="m80 33a1 1 0 1 0 0 2 1 1 0 1 0 0-2z" fill="#fff"/><path d="m35.233 47.447c1.214-7.066 7.355-12.447 14.767-12.447 3.367 0 6.464 1.123 8.968 2.996l6.393-6.885c-4.183-3.427-9.531-5.486-15.361-5.486-11.942 0-21.861 8.635-23.871 20.001z" fill="#ea5167"/><path d="m58.905 62.068c-2.491 1.841-5.57 2.932-8.905 2.932-7.842 0-14.268-6.02-14.934-13.689l-8.909 2.97c2.073 11.288 11.956 19.844 23.843 19.844 6.261 0 11.968-2.374 16.27-6.27z" fill="#00a698"/><path d="m68.5 45.5h-4.189-13.811v9h13.811c-1.073 3.414-3.333 6.301-6.296 8.179l7.245 6.038c5.483-4.446 8.99-11.233 8.99-18.842 0-1.495-.142-2.955-.401-4.375z" fill="#48bed8"/><path d="m35 50c0-2.183.477-4.252 1.316-6.123l-7.818-5.212c-1.752 3.353-2.748 7.164-2.748 11.21 0 3.784.868 7.365 2.413 10.556l7.837-5.431c-.366-1.298-1-3.585-1-5z" fill="#fde751"/><path d="m50 74.825c-13.757 0-24.95-11.192-24.95-24.95s11.193-24.95 24.95-24.95c5.75 0 11.362 2.005 15.804 5.646l.576.472-7.327 7.892-.504-.377c-2.498-1.87-5.454-2.858-8.549-2.858-7.885 0-14.3 6.415-14.3 14.3s6.415 14.3 14.3 14.3c5.956 0 11.195-3.618 13.324-9.1l-13.324.008-.008-10.184 24.433-.008.104.574c.274 1.503.421 2.801.421 4.285 0 13.758-11.192 24.95-24.95 24.95zm0-48.5c-12.985 0-23.55 10.564-23.55 23.55s10.565 23.55 23.55 23.55 23.55-10.564 23.55-23.55c0-1.211-.105-2.228-.3-3.458h-22.058l.008 7.383h14.065l-.286.91c-2.065 6.573-8.085 10.99-14.979 10.99-8.657 0-15.7-7.043-15.7-15.7s7.043-15.7 15.7-15.7c3.19 0 6.245.955 8.875 2.768l5.458-5.878c-4.095-3.142-9.155-4.865-14.333-4.865z" fill="#472b29"/></svg>