<svg fill="none" height="40" viewBox="0 0 40 40" width="40" xmlns="http://www.w3.org/2000/svg"><path d="m20 40c11.0457 0 20-8.9543 20-20s-8.9543-20-20-20-20 8.9543-20 20 8.9543 20 20 20z" fill="#e1f3f8"/><path clip-rule="evenodd" d="m21.4784 27.5247c.3488 0 .6316.2827.6316.6315 0 .3489-.2828.6316-.6316.6316h-10.6364c-.3488 0-.6316-.2827-.6316-.6316 0-4.3575 3.2184-8.4877 7.7082-8.4877.3488 0 .6316.2828.6316.6316s-.2828.6316-.6316.6316c-3.5024 0-6.1313 3.1181-6.4188 6.593zm-1.2703-9.0752c-2.3021 0-4.1699-1.8556-4.1699-4.1466 0-2.2911 1.8678-4.1467 4.1699-4.1467 2.302 0 4.1698 1.8556 4.1698 4.1467 0 2.291-1.8678 4.1466-4.1698 4.1466zm0-1.2632c1.6062 0 2.9067-1.2919 2.9067-2.8834 0-1.5916-1.3005-2.8835-2.9067-2.8835-1.6063 0-2.9067 1.2919-2.9067 2.8835 0 1.5915 1.3004 2.8834 2.9067 2.8834zm6.1278 2.4997c.9267-.1 1.8514.2092 2.5247.8454l.0054.0052c.5903.5712.9234 1.3524.9234 2.1684s-.3331 1.5972-.9226 2.1676l-3.8476 3.7367c-.2451.238-.6349.238-.88.0001l-3.8467-3.7347c-.5908-.5713-.9242-1.3528-.9242-2.1691 0-.8164.3334-1.5979.9294-2.1742.6733-.6362 1.598-.9454 2.5247-.8454.6591.0712 1.2718.3443 1.7568.7714.4849-.4271 1.0976-.7002 1.7567-.7714zm.1356 1.2559c-.559.0603-1.0605.3605-1.3688.8173-.2504.371-.7967.371-1.0471 0-.3083-.4568-.8097-.757-1.3688-.8173-.5599-.0605-1.1177.1261-1.5162.5026-.3454.334-.5391.788-.5391 1.2611 0 .473.1937.9271.54 1.2619l3.4076 3.3084 3.4085-3.3103c.3451-.3339.5386-.7878.5386-1.2606 0-.4716-.1925-.9244-.5359-1.2581-.4036-.3798-.9601-.5653-1.5188-.505z" fill="#117cb6" fill-rule="evenodd"/></svg>