<svg fill="none" height="26" viewBox="0 0 24 26" width="24" xmlns="http://www.w3.org/2000/svg"><g stroke="#fff" stroke-linecap="round" stroke-linejoin="round" stroke-width="1.5"><path d="m17.25 18.249-10.5-10.50001"/><path d="m16.265 13.021c1.2722-.0733 2.5152.3996 3.417 1.3l2.25 2.25c1.1368 1.1368 1.5808 2.7938 1.1647 4.3467s-1.6291 2.7659-3.182 3.182-3.2099-.0279-4.3467-1.1647l-2.25-2.25c-.9004-.9018-1.3733-2.1448-1.3-3.417"/><path d="m7.735 12.976c-1.27217.0732-2.51517-.3997-3.417-1.3l-2.25-2.25c-1.136816-1.13682-1.580794-2.79377-1.164689-4.3467.416109-1.55292 1.629079-2.76589 3.181999-3.182 1.55292-.4161 3.20987.02788 4.34669 1.1647l2.25 2.25c.8982.90283 1.3692 2.14561 1.295 3.417"/></g></svg>