<svg width="24" height="26" viewBox="0 0 24 26" fill="none" xmlns="http://www.w3.org/2000/svg">
<path d="M17.25 18.249L6.75 7.74899" stroke="white" stroke-width="1.5" stroke-linecap="round" stroke-linejoin="round"/>
<path d="M16.265 13.021C17.5372 12.9477 18.7802 13.4206 19.682 14.321L21.932 16.571C23.0688 17.7078 23.5128 19.3648 23.0967 20.9177C22.6806 22.4706 21.4676 23.6836 19.9147 24.0997C18.3618 24.5158 16.7048 24.0718 15.568 22.935L13.318 20.685C12.4176 19.7832 11.9447 18.5402 12.018 17.268" stroke="white" stroke-width="1.5" stroke-linecap="round" stroke-linejoin="round"/>
<path d="M7.735 12.976C6.46283 13.0492 5.21983 12.5763 4.318 11.676L2.068 9.426C0.931184 8.28918 0.487206 6.63223 0.903311 5.0793C1.31942 3.52638 2.53239 2.31341 4.08531 1.8973C5.63823 1.4812 7.29518 1.92518 8.432 3.062L10.682 5.312C11.5802 6.21483 12.0512 7.45761 11.977 8.729" stroke="white" stroke-width="1.5" stroke-linecap="round" stroke-linejoin="round"/>
</svg>
