<svg width="18" height="18" fill="none" xmlns="http://www.w3.org/2000/svg"><path d="M13.49 10.2c1.827.638 3.01 1.656 3.01 2.803 0 1.934-3.358 3.5-7.5 3.5-4.142 0-7.5-1.57-7.5-3.503 0-1.143 1.174-2.158 2.99-2.797" stroke="#117CB6" stroke-width="1.25" stroke-linecap="round" stroke-linejoin="round"/><path clip-rule="evenodd" d="M9 5a1.75 1.75 0 1 0 0-3.5A1.75 1.75 0 0 0 9 5zm2.5 4.497V8a2.5 2.5 0 0 0-5 0v1.5h1l.5 4h2l.5-4 1-.003z" stroke="#117CB6" stroke-width="1.25" stroke-linecap="round" stroke-linejoin="round"/></svg>