<svg fill="none" height="14" viewBox="0 0 18 14" width="18" xmlns="http://www.w3.org/2000/svg"><path d="m17.6484 4.96484c-.8086.63282-1.8281 1.40625-5.414 4.00782-.7032.52734-2.0039 1.68754-3.2344 1.68754-1.26562 0-2.53125-1.1602-3.26953-1.68754-3.58594-2.60157-4.60547-3.375-5.414064-4.00782-.140625-.10546-.316406 0-.316406.17578v7.17188c0 .9492.738281 1.6875 1.6875 1.6875h14.625c.9141 0 1.6875-.7383 1.6875-1.6875v-7.17188c0-.17578-.2109-.28124-.3516-.17578zm-8.6484 4.53516c.80859.03516 1.9688-1.01953 2.5664-1.44141 4.6758-3.375 5.0274-3.6914 6.082-4.53515.211-.14063.3516-.38672.3516-.66797v-.66797c0-.91406-.7734-1.6875-1.6875-1.6875h-14.625c-.949219 0-1.6875.77344-1.6875 1.6875v.66797c0 .28125.105469.52734.316406.66797 1.054684.84375 1.406254 1.16015 6.082034 4.53515.59765.42188 1.75781 1.47657 2.60156 1.44141z" fill="#b3b3b3"/></svg>