<svg width="24" height="24" fill="none" xmlns="http://www.w3.org/2000/svg"><path clip-rule="evenodd" d="M12 6.75a3 3 0 1 0 0-6 3 3 0 0 0 0 6zm3.75 7.5V12a3.75 3.75 0 1 0-7.5 0v2.25h1.5l.75 6h3l.75-6h1.5zm-11.25-6a2.25 2.25 0 1 0 0-4.5 2.25 2.25 0 0 0 0 4.5z" stroke="#21A8DD" stroke-width="1.5" stroke-linecap="round" stroke-linejoin="round"/><path d="M5.7 9.947A3.753 3.753 0 0 0 .75 13.5v.75h1.5l.75 4.5h3l.376-2.256" stroke="#21A8DD" stroke-width="1.5" stroke-linecap="round" stroke-linejoin="round"/><path clip-rule="evenodd" d="M19.5 8.25a2.25 2.25 0 1 0 0-4.5 2.25 2.25 0 0 0 0 4.5z" stroke="#21A8DD" stroke-width="1.5" stroke-linecap="round" stroke-linejoin="round"/><path d="M18.3 9.947a3.753 3.753 0 0 1 4.95 3.553v.75h-1.5l-.75 4.5h-3l-.376-2.256" stroke="#21A8DD" stroke-width="1.5" stroke-linecap="round" stroke-linejoin="round"/><path d="M23.25 21c0 1.243-5.037 2.25-11.25 2.25S.75 22.243.75 21" stroke="#BF0020" stroke-width="1.5" stroke-linecap="round" stroke-linejoin="round"/></svg>