<svg fill="none" height="24" width="24" xmlns="http://www.w3.org/2000/svg"><g stroke-linecap="round" stroke-linejoin="round" stroke-width="1.5"><g stroke="#21a8dd"><path clip-rule="evenodd" d="m12 6.75a3 3 0 1 0 0-6 3 3 0 0 0 0 6zm3.75 7.5v-2.25a3.75 3.75 0 1 0 -7.5 0v2.25h1.5l.75 6h3l.75-6zm-11.25-6a2.25 2.25 0 1 0 0-4.5 2.25 2.25 0 0 0 0 4.5z"/><path d="m5.7 9.947a3.753 3.753 0 0 0 -4.95 3.553v.75h1.5l.75 4.5h3l.376-2.256"/><path clip-rule="evenodd" d="m19.5 8.25a2.25 2.25 0 1 0 0-4.5 2.25 2.25 0 0 0 0 4.5z"/><path d="m18.3 9.947a3.753 3.753 0 0 1 4.95 3.553v.75h-1.5l-.75 4.5h-3l-.376-2.256"/></g><path d="m23.25 21c0 1.243-5.037 2.25-11.25 2.25s-11.25-1.007-11.25-2.25" stroke="#bf0020"/></g></svg>