<svg fill="none" height="19" viewBox="0 0 18 19" width="18" xmlns="http://www.w3.org/2000/svg"><path d="m17.7539 15.8242-3.5156-3.5156c-.1758-.1406-.3867-.2461-.5977-.2461h-.5625c.9492-1.2305 1.5469-2.77734 1.5469-4.5 0-4.00781-3.3047-7.3125-7.3125-7.3125-4.04297 0-7.3125 3.30469-7.3125 7.3125 0 4.043 3.26953 7.3125 7.3125 7.3125 1.6875 0 3.2344-.5625 4.5-1.5469v.5977c0 .2109.0703.4219.2461.5976l3.4805 3.4805c.3515.3516.8789.3516 1.1953 0l.9844-.9844c.3515-.3164.3515-.8437.0351-1.1953zm-10.4414-3.7617c-2.49609 0-4.5-2.0039-4.5-4.5 0-2.46094 2.00391-4.5 4.5-4.5 2.46094 0 4.5 2.03906 4.5 4.5 0 2.4961-2.03906 4.5-4.5 4.5z" fill="#117cb6"/></svg>