<svg fill="none" height="56" viewBox="0 0 56 56" width="56" xmlns="http://www.w3.org/2000/svg"><circle cx="28" cy="28" fill="#1da1f2" r="28"/><path clip-rule="evenodd" d="m44 20.226-3.0067-1.2886 1.5749-3.4363-3.6653 1.217c-1.1674-1.0882-2.6994-1.701-4.2953-1.7181-3.5551.0079-6.4351 2.8879-6.4429 6.443v1.4317c-5.0685 1.0452-9.4927-1.7181-13.6018-6.4429-.7159 3.818 0 6.6815 2.1476 8.5906l-4.7105-.7159c.3756 3.1298 2.9382 5.5417 6.085 5.7271l-3.9373 1.4317c1.4317 2.8636 4.0375 3.3074 7.5167 3.5794-2.8437 1.9396-6.223 2.9409-9.6644 2.8636 18.2694 8.1181 28.9933-3.8085 28.9933-14.3177v-1.1884z" fill="#fff" fill-rule="evenodd"/></svg>