<svg width="28" height="28" viewBox="0 0 28 28" fill="none" xmlns="http://www.w3.org/2000/svg">
<path fill-rule="evenodd" clip-rule="evenodd" d="M2.35943 6.22202C0.821086 8.52431 0 11.2311 0 14C0 17.713 1.475 21.274 4.10051 23.8995C6.72601 26.525 10.287 28 14 28C16.7689 28 19.4757 27.1789 21.778 25.6406C24.0803 24.1022 25.8747 21.9157 26.9343 19.3576C27.9939 16.7994 28.2712 13.9845 27.731 11.2687C27.1908 8.55301 25.8574 6.05845 23.8995 4.10051C21.9416 2.14258 19.447 0.809205 16.7313 0.269012C14.0155 -0.271181 11.2006 0.00606593 8.64243 1.06569C6.08427 2.12532 3.89777 3.91973 2.35943 6.22202ZM7.19426 3.8145C9.20877 2.46846 11.5772 1.75001 14 1.75001C16.957 1.75001 19.8037 2.8191 22.0234 4.74322L17.748 9.01863L19.0386 6.75577C19.1793 6.51363 19.2544 6.23774 19.2563 5.95628C19.252 5.67238 19.177 5.39426 19.0386 5.14791C18.8964 4.90945 18.6952 4.71337 18.4551 4.57939C18.2178 4.44549 17.9511 4.37519 17.68 4.37507H10.3295C10.0545 4.37242 9.78366 4.44317 9.54379 4.5803C9.30393 4.71743 9.10341 4.91617 8.96214 5.1568C8.82413 5.39964 8.75198 5.67559 8.75312 5.95628C8.75114 6.23709 8.82334 6.51326 8.96214 6.75577L10.3033 9.09206C9.08026 9.71047 8.02462 10.6255 7.22902 11.757C6.22597 13.184 5.68684 14.8958 5.6875 16.6517C5.6875 16.8873 5.77926 17.1132 5.94259 17.2798C6.10591 17.4464 6.32743 17.54 6.55841 17.54C6.7894 17.54 7.01092 17.4464 7.17424 17.2798C7.33757 17.1132 7.42933 16.8873 7.42933 16.6517C7.43355 15.2655 7.85985 13.915 8.6493 12.7867C9.43876 11.6584 10.5524 10.8082 11.8362 10.3535C11.9581 10.3109 12.0693 10.2412 12.1617 10.1495C12.2541 10.0578 12.3253 9.94626 12.3703 9.82303C12.4153 9.69979 12.4329 9.56791 12.4219 9.43689C12.4108 9.30588 12.3714 9.179 12.3064 9.06541L10.6343 6.15171H17.3665L15.6769 9.06541C15.6114 9.17822 15.5711 9.30443 15.5591 9.43498C15.547 9.56553 15.5635 9.69718 15.6072 9.82048C15.6516 9.94388 15.7223 10.0557 15.8141 10.1479C15.906 10.24 16.0168 10.3103 16.1385 10.3535C16.206 10.3769 16.2731 10.4013 16.3397 10.4269L14.8788 11.8878C14.8581 11.6892 14.7698 11.5026 14.6273 11.36C14.4632 11.1959 14.2406 11.1038 14.0085 11.1038C13.7765 11.1038 13.5539 11.1959 13.3898 11.36C13.2257 11.5241 13.1335 11.7467 13.1335 11.9788V12.2391C11.9246 12.536 11.0682 13.4446 11.0682 14.5512C11.0682 14.8828 11.1451 15.1965 11.2853 15.4814L4.74323 22.0234C3.3539 20.4205 2.40115 18.4801 1.98538 16.3899C1.51271 14.0136 1.7553 11.5505 2.68248 9.31213C3.60965 7.07374 5.17976 5.16055 7.19426 3.8145ZM12.5659 16.6682L11.6018 17.6323C11.7857 17.4884 12.0189 17.4227 12.2509 17.4496C12.3667 17.463 12.4787 17.4991 12.5806 17.5558C12.6824 17.6125 12.7721 17.6886 12.8445 17.78C12.9722 17.9503 13.1407 18.0857 13.3345 18.1737C13.5301 18.2698 13.7468 18.315 13.9645 18.305C14.6645 18.305 15.1807 17.9462 15.1807 17.64C15.1807 17.3337 14.6645 16.9662 13.9995 16.9662C13.4752 16.9662 12.9873 16.8587 12.5659 16.6682ZM11.4499 17.7842L5.97701 23.2571C7.5798 24.6463 9.52012 25.5989 11.6101 26.0146C13.9864 26.4873 16.4495 26.2447 18.6879 25.3175C20.9263 24.3904 22.8395 22.8202 24.1855 20.8057C25.5316 18.7912 26.25 16.4228 26.25 14C26.25 11.0432 25.181 8.19667 23.2571 5.977L19.1838 10.0503C19.828 10.5732 20.3948 11.193 20.8635 11.8915C21.664 13.0845 22.1513 14.467 22.2789 15.9069C22.4064 17.3468 22.1699 18.796 21.592 20.1161C21.014 21.4362 20.1139 22.5831 18.9777 23.4473C18.8269 23.5627 18.6435 23.625 18.4551 23.625C18.2708 23.6257 18.091 23.5667 17.9417 23.4565C17.7923 23.3464 17.6811 23.1907 17.624 23.012C17.5668 22.8332 17.5668 22.6406 17.6238 22.4619C17.6808 22.2831 17.792 22.1274 17.9413 22.0171C18.8945 21.2907 19.6358 20.3132 20.0854 19.1894C20.5349 18.0657 20.6759 16.8383 20.493 15.639C20.3098 14.4363 19.807 13.3078 19.0393 12.376C18.709 11.975 18.3349 11.617 17.926 11.3081L16.2361 12.998C16.3506 13.1077 16.4571 13.2262 16.5545 13.3525C16.624 13.4444 16.6747 13.5491 16.7038 13.6607C16.7328 13.7722 16.7396 13.8884 16.7238 14.0025C16.7079 14.1167 16.6698 14.2266 16.6114 14.326C16.5531 14.4254 16.4758 14.5124 16.3839 14.5819C16.2919 14.6514 16.1872 14.7021 16.0757 14.7312C15.9642 14.7602 15.848 14.767 15.7338 14.7512C15.6197 14.7353 15.5098 14.6972 15.4104 14.6388C15.3109 14.5805 15.224 14.5032 15.1545 14.4112C15.107 14.3486 15.0543 14.2903 14.9971 14.2371L14.0178 15.2163C15.654 15.2242 16.9307 16.2888 16.9307 17.64C16.9307 18.7411 16.0829 19.6462 14.8835 19.9477V20.2038C14.8835 20.4358 14.7914 20.6584 14.6273 20.8225C14.4632 20.9866 14.2406 21.0788 14.0085 21.0788C13.7765 21.0788 13.5539 20.9866 13.3898 20.8225C13.2257 20.6584 13.1335 20.4358 13.1335 20.2038V19.9553C12.9502 19.9067 12.7713 19.8406 12.5995 19.7575C12.155 19.5581 11.7627 19.2586 11.4532 18.8825C11.3808 18.7911 11.3272 18.6864 11.2952 18.5743C11.2633 18.4622 11.2538 18.3449 11.2672 18.2292C11.2806 18.1134 11.3167 18.0014 11.3734 17.8995C11.3959 17.8591 11.4215 17.8205 11.4499 17.7842Z" fill="#5C00C7"/>
<path fill-rule="evenodd" clip-rule="evenodd" d="M2.35943 6.22202C0.821086 8.52431 0 11.2311 0 14C0 17.713 1.475 21.274 4.10051 23.8995C6.72601 26.525 10.287 28 14 28C16.7689 28 19.4757 27.1789 21.778 25.6406C24.0803 24.1022 25.8747 21.9157 26.9343 19.3576C27.9939 16.7994 28.2712 13.9845 27.731 11.2687C27.1908 8.55301 25.8574 6.05845 23.8995 4.10051C21.9416 2.14258 19.447 0.809205 16.7313 0.269012C14.0155 -0.271181 11.2006 0.00606593 8.64243 1.06569C6.08427 2.12532 3.89777 3.91973 2.35943 6.22202ZM7.19426 3.8145C9.20877 2.46846 11.5772 1.75001 14 1.75001C16.957 1.75001 19.8037 2.8191 22.0234 4.74322L17.748 9.01863L19.0386 6.75577C19.1793 6.51363 19.2544 6.23774 19.2563 5.95628C19.252 5.67238 19.177 5.39426 19.0386 5.14791C18.8964 4.90945 18.6952 4.71337 18.4551 4.57939C18.2178 4.44549 17.9511 4.37519 17.68 4.37507H10.3295C10.0545 4.37242 9.78366 4.44317 9.54379 4.5803C9.30393 4.71743 9.10341 4.91617 8.96214 5.1568C8.82413 5.39964 8.75198 5.67559 8.75312 5.95628C8.75114 6.23709 8.82334 6.51326 8.96214 6.75577L10.3033 9.09206C9.08026 9.71047 8.02462 10.6255 7.22902 11.757C6.22597 13.184 5.68684 14.8958 5.6875 16.6517C5.6875 16.8873 5.77926 17.1132 5.94259 17.2798C6.10591 17.4464 6.32743 17.54 6.55841 17.54C6.7894 17.54 7.01092 17.4464 7.17424 17.2798C7.33757 17.1132 7.42933 16.8873 7.42933 16.6517C7.43355 15.2655 7.85985 13.915 8.6493 12.7867C9.43876 11.6584 10.5524 10.8082 11.8362 10.3535C11.9581 10.3109 12.0693 10.2412 12.1617 10.1495C12.2541 10.0578 12.3253 9.94626 12.3703 9.82303C12.4153 9.69979 12.4329 9.56791 12.4219 9.43689C12.4108 9.30588 12.3714 9.179 12.3064 9.06541L10.6343 6.15171H17.3665L15.6769 9.06541C15.6114 9.17822 15.5711 9.30443 15.5591 9.43498C15.547 9.56553 15.5635 9.69718 15.6072 9.82048C15.6516 9.94388 15.7223 10.0557 15.8141 10.1479C15.906 10.24 16.0168 10.3103 16.1385 10.3535C16.206 10.3769 16.2731 10.4013 16.3397 10.4269L14.8788 11.8878C14.8581 11.6892 14.7698 11.5026 14.6273 11.36C14.4632 11.1959 14.2406 11.1038 14.0085 11.1038C13.7765 11.1038 13.5539 11.1959 13.3898 11.36C13.2257 11.5241 13.1335 11.7467 13.1335 11.9788V12.2391C11.9246 12.536 11.0682 13.4446 11.0682 14.5512C11.0682 14.8828 11.1451 15.1965 11.2853 15.4814L4.74323 22.0234C3.3539 20.4205 2.40115 18.4801 1.98538 16.3899C1.51271 14.0136 1.7553 11.5505 2.68248 9.31213C3.60965 7.07374 5.17976 5.16055 7.19426 3.8145ZM12.5659 16.6682L11.6018 17.6323C11.7857 17.4884 12.0189 17.4227 12.2509 17.4496C12.3667 17.463 12.4787 17.4991 12.5806 17.5558C12.6824 17.6125 12.7721 17.6886 12.8445 17.78C12.9722 17.9503 13.1407 18.0857 13.3345 18.1737C13.5301 18.2698 13.7468 18.315 13.9645 18.305C14.6645 18.305 15.1807 17.9462 15.1807 17.64C15.1807 17.3337 14.6645 16.9662 13.9995 16.9662C13.4752 16.9662 12.9873 16.8587 12.5659 16.6682ZM11.4499 17.7842L5.97701 23.2571C7.5798 24.6463 9.52012 25.5989 11.6101 26.0146C13.9864 26.4873 16.4495 26.2447 18.6879 25.3175C20.9263 24.3904 22.8395 22.8202 24.1855 20.8057C25.5316 18.7912 26.25 16.4228 26.25 14C26.25 11.0432 25.181 8.19667 23.2571 5.977L19.1838 10.0503C19.828 10.5732 20.3948 11.193 20.8635 11.8915C21.664 13.0845 22.1513 14.467 22.2789 15.9069C22.4064 17.3468 22.1699 18.796 21.592 20.1161C21.014 21.4362 20.1139 22.5831 18.9777 23.4473C18.8269 23.5627 18.6435 23.625 18.4551 23.625C18.2708 23.6257 18.091 23.5667 17.9417 23.4565C17.7923 23.3464 17.6811 23.1907 17.624 23.012C17.5668 22.8332 17.5668 22.6406 17.6238 22.4619C17.6808 22.2831 17.792 22.1274 17.9413 22.0171C18.8945 21.2907 19.6358 20.3132 20.0854 19.1894C20.5349 18.0657 20.6759 16.8383 20.493 15.639C20.3098 14.4363 19.807 13.3078 19.0393 12.376C18.709 11.975 18.3349 11.617 17.926 11.3081L16.2361 12.998C16.3506 13.1077 16.4571 13.2262 16.5545 13.3525C16.624 13.4444 16.6747 13.5491 16.7038 13.6607C16.7328 13.7722 16.7396 13.8884 16.7238 14.0025C16.7079 14.1167 16.6698 14.2266 16.6114 14.326C16.5531 14.4254 16.4758 14.5124 16.3839 14.5819C16.2919 14.6514 16.1872 14.7021 16.0757 14.7312C15.9642 14.7602 15.848 14.767 15.7338 14.7512C15.6197 14.7353 15.5098 14.6972 15.4104 14.6388C15.3109 14.5805 15.224 14.5032 15.1545 14.4112C15.107 14.3486 15.0543 14.2903 14.9971 14.2371L14.0178 15.2163C15.654 15.2242 16.9307 16.2888 16.9307 17.64C16.9307 18.7411 16.0829 19.6462 14.8835 19.9477V20.2038C14.8835 20.4358 14.7914 20.6584 14.6273 20.8225C14.4632 20.9866 14.2406 21.0788 14.0085 21.0788C13.7765 21.0788 13.5539 20.9866 13.3898 20.8225C13.2257 20.6584 13.1335 20.4358 13.1335 20.2038V19.9553C12.9502 19.9067 12.7713 19.8406 12.5995 19.7575C12.155 19.5581 11.7627 19.2586 11.4532 18.8825C11.3808 18.7911 11.3272 18.6864 11.2952 18.5743C11.2633 18.4622 11.2538 18.3449 11.2672 18.2292C11.2806 18.1134 11.3167 18.0014 11.3734 17.8995C11.3959 17.8591 11.4215 17.8205 11.4499 17.7842Z" fill="url(#paint0_linear_11721_1964)" fill-opacity="0.25"/>
<path fill-rule="evenodd" clip-rule="evenodd" d="M2.35943 6.22202C0.821086 8.52431 0 11.2311 0 14C0 17.713 1.475 21.274 4.10051 23.8995C6.72601 26.525 10.287 28 14 28C16.7689 28 19.4757 27.1789 21.778 25.6406C24.0803 24.1022 25.8747 21.9157 26.9343 19.3576C27.9939 16.7994 28.2712 13.9845 27.731 11.2687C27.1908 8.55301 25.8574 6.05845 23.8995 4.10051C21.9416 2.14258 19.447 0.809205 16.7313 0.269012C14.0155 -0.271181 11.2006 0.00606593 8.64243 1.06569C6.08427 2.12532 3.89777 3.91973 2.35943 6.22202ZM7.19426 3.8145C9.20877 2.46846 11.5772 1.75001 14 1.75001C16.957 1.75001 19.8037 2.8191 22.0234 4.74322L17.748 9.01863L19.0386 6.75577C19.1793 6.51363 19.2544 6.23774 19.2563 5.95628C19.252 5.67238 19.177 5.39426 19.0386 5.14791C18.8964 4.90945 18.6952 4.71337 18.4551 4.57939C18.2178 4.44549 17.9511 4.37519 17.68 4.37507H10.3295C10.0545 4.37242 9.78366 4.44317 9.54379 4.5803C9.30393 4.71743 9.10341 4.91617 8.96214 5.1568C8.82413 5.39964 8.75198 5.67559 8.75312 5.95628C8.75114 6.23709 8.82334 6.51326 8.96214 6.75577L10.3033 9.09206C9.08026 9.71047 8.02462 10.6255 7.22902 11.757C6.22597 13.184 5.68684 14.8958 5.6875 16.6517C5.6875 16.8873 5.77926 17.1132 5.94259 17.2798C6.10591 17.4464 6.32743 17.54 6.55841 17.54C6.7894 17.54 7.01092 17.4464 7.17424 17.2798C7.33757 17.1132 7.42933 16.8873 7.42933 16.6517C7.43355 15.2655 7.85985 13.915 8.6493 12.7867C9.43876 11.6584 10.5524 10.8082 11.8362 10.3535C11.9581 10.3109 12.0693 10.2412 12.1617 10.1495C12.2541 10.0578 12.3253 9.94626 12.3703 9.82303C12.4153 9.69979 12.4329 9.56791 12.4219 9.43689C12.4108 9.30588 12.3714 9.179 12.3064 9.06541L10.6343 6.15171H17.3665L15.6769 9.06541C15.6114 9.17822 15.5711 9.30443 15.5591 9.43498C15.547 9.56553 15.5635 9.69718 15.6072 9.82048C15.6516 9.94388 15.7223 10.0557 15.8141 10.1479C15.906 10.24 16.0168 10.3103 16.1385 10.3535C16.206 10.3769 16.2731 10.4013 16.3397 10.4269L14.8788 11.8878C14.8581 11.6892 14.7698 11.5026 14.6273 11.36C14.4632 11.1959 14.2406 11.1038 14.0085 11.1038C13.7765 11.1038 13.5539 11.1959 13.3898 11.36C13.2257 11.5241 13.1335 11.7467 13.1335 11.9788V12.2391C11.9246 12.536 11.0682 13.4446 11.0682 14.5512C11.0682 14.8828 11.1451 15.1965 11.2853 15.4814L4.74323 22.0234C3.3539 20.4205 2.40115 18.4801 1.98538 16.3899C1.51271 14.0136 1.7553 11.5505 2.68248 9.31213C3.60965 7.07374 5.17976 5.16055 7.19426 3.8145ZM12.5659 16.6682L11.6018 17.6323C11.7857 17.4884 12.0189 17.4227 12.2509 17.4496C12.3667 17.463 12.4787 17.4991 12.5806 17.5558C12.6824 17.6125 12.7721 17.6886 12.8445 17.78C12.9722 17.9503 13.1407 18.0857 13.3345 18.1737C13.5301 18.2698 13.7468 18.315 13.9645 18.305C14.6645 18.305 15.1807 17.9462 15.1807 17.64C15.1807 17.3337 14.6645 16.9662 13.9995 16.9662C13.4752 16.9662 12.9873 16.8587 12.5659 16.6682ZM11.4499 17.7842L5.97701 23.2571C7.5798 24.6463 9.52012 25.5989 11.6101 26.0146C13.9864 26.4873 16.4495 26.2447 18.6879 25.3175C20.9263 24.3904 22.8395 22.8202 24.1855 20.8057C25.5316 18.7912 26.25 16.4228 26.25 14C26.25 11.0432 25.181 8.19667 23.2571 5.977L19.1838 10.0503C19.828 10.5732 20.3948 11.193 20.8635 11.8915C21.664 13.0845 22.1513 14.467 22.2789 15.9069C22.4064 17.3468 22.1699 18.796 21.592 20.1161C21.014 21.4362 20.1139 22.5831 18.9777 23.4473C18.8269 23.5627 18.6435 23.625 18.4551 23.625C18.2708 23.6257 18.091 23.5667 17.9417 23.4565C17.7923 23.3464 17.6811 23.1907 17.624 23.012C17.5668 22.8332 17.5668 22.6406 17.6238 22.4619C17.6808 22.2831 17.792 22.1274 17.9413 22.0171C18.8945 21.2907 19.6358 20.3132 20.0854 19.1894C20.5349 18.0657 20.6759 16.8383 20.493 15.639C20.3098 14.4363 19.807 13.3078 19.0393 12.376C18.709 11.975 18.3349 11.617 17.926 11.3081L16.2361 12.998C16.3506 13.1077 16.4571 13.2262 16.5545 13.3525C16.624 13.4444 16.6747 13.5491 16.7038 13.6607C16.7328 13.7722 16.7396 13.8884 16.7238 14.0025C16.7079 14.1167 16.6698 14.2266 16.6114 14.326C16.5531 14.4254 16.4758 14.5124 16.3839 14.5819C16.2919 14.6514 16.1872 14.7021 16.0757 14.7312C15.9642 14.7602 15.848 14.767 15.7338 14.7512C15.6197 14.7353 15.5098 14.6972 15.4104 14.6388C15.3109 14.5805 15.224 14.5032 15.1545 14.4112C15.107 14.3486 15.0543 14.2903 14.9971 14.2371L14.0178 15.2163C15.654 15.2242 16.9307 16.2888 16.9307 17.64C16.9307 18.7411 16.0829 19.6462 14.8835 19.9477V20.2038C14.8835 20.4358 14.7914 20.6584 14.6273 20.8225C14.4632 20.9866 14.2406 21.0788 14.0085 21.0788C13.7765 21.0788 13.5539 20.9866 13.3898 20.8225C13.2257 20.6584 13.1335 20.4358 13.1335 20.2038V19.9553C12.9502 19.9067 12.7713 19.8406 12.5995 19.7575C12.155 19.5581 11.7627 19.2586 11.4532 18.8825C11.3808 18.7911 11.3272 18.6864 11.2952 18.5743C11.2633 18.4622 11.2538 18.3449 11.2672 18.2292C11.2806 18.1134 11.3167 18.0014 11.3734 17.8995C11.3959 17.8591 11.4215 17.8205 11.4499 17.7842Z" fill="url(#paint1_linear_11721_1964)" fill-opacity="0.15"/>
<defs>
<linearGradient id="paint0_linear_11721_1964" x1="30.4424" y1="-6.3" x2="-4.52836" y2="1.24567" gradientUnits="userSpaceOnUse">
<stop stop-color="#4300D3"/>
<stop offset="1" stop-color="#4300D3" stop-opacity="0"/>
</linearGradient>
<linearGradient id="paint1_linear_11721_1964" x1="-1.22118" y1="-1.24477e-06" x2="31.0527" y2="7.82354" gradientUnits="userSpaceOnUse">
<stop stop-color="#FF0F13"/>
<stop offset="1" stop-color="#BF0020" stop-opacity="0"/>
</linearGradient>
</defs>
</svg>
