<svg width="28" height="28" viewBox="0 0 28 28" fill="none" xmlns="http://www.w3.org/2000/svg">
<path fill-rule="evenodd" clip-rule="evenodd" d="M0 14C0 6.26801 6.26801 0 14 0C17.8598 0 21.3547 1.56195 23.8872 4.08824C23.8914 4.09227 23.8956 4.09635 23.8997 4.10048C23.9038 4.10462 23.9079 4.10878 23.912 4.11298C26.4381 6.64549 28 10.1403 28 14C28 21.732 21.732 28 14 28C6.26802 28 0 21.732 0 14ZM22.0215 4.7413C19.8723 2.87775 17.0679 1.75 14 1.75C7.23451 1.75 1.75 7.23451 1.75 14C1.75 16.9615 2.80092 19.6776 4.55017 21.7956V19.8465C4.55017 19.0377 5.24074 18.4704 5.97934 18.4704H6.01477V11.7565H5.97934C5.24074 11.7565 4.55017 11.1892 4.55017 10.3804V8.35247V8.35193C4.55017 8.06292 4.72532 7.81482 4.97526 7.70798L13.3787 3.81178C13.7711 3.62971 14.229 3.62943 14.6214 3.81157L20.3126 6.45019L22.0215 4.7413ZM22.0035 7.23416L23.2589 5.97875C25.1223 8.12784 26.25 10.9322 26.25 14C26.25 16.9613 25.1992 19.6773 23.4502 21.7952V19.8465C23.4502 19.0377 22.7595 18.4704 22.0209 18.4704H21.9987V11.7565H22.0209C22.7595 11.7565 23.4502 11.1893 23.4502 10.3804V8.37416C23.4539 8.25373 23.4263 8.13494 23.3716 8.02939C23.3155 7.92117 23.2309 7.82687 23.1224 7.75899C23.093 7.7405 23.0622 7.72414 23.03 7.71012L22.0035 7.23416ZM19.2582 7.50452L19.1108 7.65193H8.42448L13.9685 5.08149C13.9872 5.0728 14.0135 5.07286 14.032 5.08144L19.2582 7.50452ZM17.7108 9.05193L16.4062 10.3565H15.4833L15.4642 10.3563H12.5475L12.5284 10.3565H9.65057L9.63142 10.3563H6.71477L6.69562 10.3565H5.97934C5.96628 10.3565 5.95669 10.354 5.95017 10.3513V9.05193H17.7108ZM18.8814 10.3563L20.1857 9.05193H22.0502V10.3513C22.0436 10.354 22.034 10.3565 22.0209 10.3565H21.3178L21.2987 10.3563H18.8814ZM16.1642 13.0734L17.4811 11.7565H17.682V18.4704H16.1642V13.0734ZM14.7642 11.9986V11.7565H13.2475V13.5152L14.7642 11.9986ZM13.2475 15.9901L14.7642 14.4734V18.4699H13.2475V15.9901ZM11.8475 14.9152V11.7565H10.3314V16.4313L11.8475 14.9152ZM10.7672 18.4704L11.8475 17.3901V18.4704H10.7672ZM8.93142 17.8313L8.29284 18.4699H7.41477V11.7565H8.93142V17.8313ZM6.89234 19.8704L5.95017 20.8126V19.8756C5.95669 19.8729 5.96628 19.8704 5.97934 19.8704H6.89234ZM8.06263 21.175L9.36721 19.8704H22.0209C22.034 19.8704 22.0436 19.8729 22.0502 19.8756V21.175H8.06263ZM5.97875 23.2589L6.66263 22.575H22.7483C20.525 24.8429 17.4268 26.25 14 26.25C10.9322 26.25 8.12784 25.1223 5.97875 23.2589ZM19.082 11.7565H20.5987V18.4699H19.082V11.7565Z" fill="#5C00C7"/>
<path fill-rule="evenodd" clip-rule="evenodd" d="M0 14C0 6.26801 6.26801 0 14 0C17.8598 0 21.3547 1.56195 23.8872 4.08824C23.8914 4.09227 23.8956 4.09635 23.8997 4.10048C23.9038 4.10462 23.9079 4.10878 23.912 4.11298C26.4381 6.64549 28 10.1403 28 14C28 21.732 21.732 28 14 28C6.26802 28 0 21.732 0 14ZM22.0215 4.7413C19.8723 2.87775 17.0679 1.75 14 1.75C7.23451 1.75 1.75 7.23451 1.75 14C1.75 16.9615 2.80092 19.6776 4.55017 21.7956V19.8465C4.55017 19.0377 5.24074 18.4704 5.97934 18.4704H6.01477V11.7565H5.97934C5.24074 11.7565 4.55017 11.1892 4.55017 10.3804V8.35247V8.35193C4.55017 8.06292 4.72532 7.81482 4.97526 7.70798L13.3787 3.81178C13.7711 3.62971 14.229 3.62943 14.6214 3.81157L20.3126 6.45019L22.0215 4.7413ZM22.0035 7.23416L23.2589 5.97875C25.1223 8.12784 26.25 10.9322 26.25 14C26.25 16.9613 25.1992 19.6773 23.4502 21.7952V19.8465C23.4502 19.0377 22.7595 18.4704 22.0209 18.4704H21.9987V11.7565H22.0209C22.7595 11.7565 23.4502 11.1893 23.4502 10.3804V8.37416C23.4539 8.25373 23.4263 8.13494 23.3716 8.02939C23.3155 7.92117 23.2309 7.82687 23.1224 7.75899C23.093 7.7405 23.0622 7.72414 23.03 7.71012L22.0035 7.23416ZM19.2582 7.50452L19.1108 7.65193H8.42448L13.9685 5.08149C13.9872 5.0728 14.0135 5.07286 14.032 5.08144L19.2582 7.50452ZM17.7108 9.05193L16.4062 10.3565H15.4833L15.4642 10.3563H12.5475L12.5284 10.3565H9.65057L9.63142 10.3563H6.71477L6.69562 10.3565H5.97934C5.96628 10.3565 5.95669 10.354 5.95017 10.3513V9.05193H17.7108ZM18.8814 10.3563L20.1857 9.05193H22.0502V10.3513C22.0436 10.354 22.034 10.3565 22.0209 10.3565H21.3178L21.2987 10.3563H18.8814ZM16.1642 13.0734L17.4811 11.7565H17.682V18.4704H16.1642V13.0734ZM14.7642 11.9986V11.7565H13.2475V13.5152L14.7642 11.9986ZM13.2475 15.9901L14.7642 14.4734V18.4699H13.2475V15.9901ZM11.8475 14.9152V11.7565H10.3314V16.4313L11.8475 14.9152ZM10.7672 18.4704L11.8475 17.3901V18.4704H10.7672ZM8.93142 17.8313L8.29284 18.4699H7.41477V11.7565H8.93142V17.8313ZM6.89234 19.8704L5.95017 20.8126V19.8756C5.95669 19.8729 5.96628 19.8704 5.97934 19.8704H6.89234ZM8.06263 21.175L9.36721 19.8704H22.0209C22.034 19.8704 22.0436 19.8729 22.0502 19.8756V21.175H8.06263ZM5.97875 23.2589L6.66263 22.575H22.7483C20.525 24.8429 17.4268 26.25 14 26.25C10.9322 26.25 8.12784 25.1223 5.97875 23.2589ZM19.082 11.7565H20.5987V18.4699H19.082V11.7565Z" fill="url(#paint0_linear_11721_1857)" fill-opacity="0.25"/>
<path fill-rule="evenodd" clip-rule="evenodd" d="M0 14C0 6.26801 6.26801 0 14 0C17.8598 0 21.3547 1.56195 23.8872 4.08824C23.8914 4.09227 23.8956 4.09635 23.8997 4.10048C23.9038 4.10462 23.9079 4.10878 23.912 4.11298C26.4381 6.64549 28 10.1403 28 14C28 21.732 21.732 28 14 28C6.26802 28 0 21.732 0 14ZM22.0215 4.7413C19.8723 2.87775 17.0679 1.75 14 1.75C7.23451 1.75 1.75 7.23451 1.75 14C1.75 16.9615 2.80092 19.6776 4.55017 21.7956V19.8465C4.55017 19.0377 5.24074 18.4704 5.97934 18.4704H6.01477V11.7565H5.97934C5.24074 11.7565 4.55017 11.1892 4.55017 10.3804V8.35247V8.35193C4.55017 8.06292 4.72532 7.81482 4.97526 7.70798L13.3787 3.81178C13.7711 3.62971 14.229 3.62943 14.6214 3.81157L20.3126 6.45019L22.0215 4.7413ZM22.0035 7.23416L23.2589 5.97875C25.1223 8.12784 26.25 10.9322 26.25 14C26.25 16.9613 25.1992 19.6773 23.4502 21.7952V19.8465C23.4502 19.0377 22.7595 18.4704 22.0209 18.4704H21.9987V11.7565H22.0209C22.7595 11.7565 23.4502 11.1893 23.4502 10.3804V8.37416C23.4539 8.25373 23.4263 8.13494 23.3716 8.02939C23.3155 7.92117 23.2309 7.82687 23.1224 7.75899C23.093 7.7405 23.0622 7.72414 23.03 7.71012L22.0035 7.23416ZM19.2582 7.50452L19.1108 7.65193H8.42448L13.9685 5.08149C13.9872 5.0728 14.0135 5.07286 14.032 5.08144L19.2582 7.50452ZM17.7108 9.05193L16.4062 10.3565H15.4833L15.4642 10.3563H12.5475L12.5284 10.3565H9.65057L9.63142 10.3563H6.71477L6.69562 10.3565H5.97934C5.96628 10.3565 5.95669 10.354 5.95017 10.3513V9.05193H17.7108ZM18.8814 10.3563L20.1857 9.05193H22.0502V10.3513C22.0436 10.354 22.034 10.3565 22.0209 10.3565H21.3178L21.2987 10.3563H18.8814ZM16.1642 13.0734L17.4811 11.7565H17.682V18.4704H16.1642V13.0734ZM14.7642 11.9986V11.7565H13.2475V13.5152L14.7642 11.9986ZM13.2475 15.9901L14.7642 14.4734V18.4699H13.2475V15.9901ZM11.8475 14.9152V11.7565H10.3314V16.4313L11.8475 14.9152ZM10.7672 18.4704L11.8475 17.3901V18.4704H10.7672ZM8.93142 17.8313L8.29284 18.4699H7.41477V11.7565H8.93142V17.8313ZM6.89234 19.8704L5.95017 20.8126V19.8756C5.95669 19.8729 5.96628 19.8704 5.97934 19.8704H6.89234ZM8.06263 21.175L9.36721 19.8704H22.0209C22.034 19.8704 22.0436 19.8729 22.0502 19.8756V21.175H8.06263ZM5.97875 23.2589L6.66263 22.575H22.7483C20.525 24.8429 17.4268 26.25 14 26.25C10.9322 26.25 8.12784 25.1223 5.97875 23.2589ZM19.082 11.7565H20.5987V18.4699H19.082V11.7565Z" fill="url(#paint1_linear_11721_1857)" fill-opacity="0.15"/>
<defs>
<linearGradient id="paint0_linear_11721_1857" x1="30.4424" y1="-6.29999" x2="-4.52836" y2="1.24567" gradientUnits="userSpaceOnUse">
<stop stop-color="#4300D3"/>
<stop offset="1" stop-color="#4300D3" stop-opacity="0"/>
</linearGradient>
<linearGradient id="paint1_linear_11721_1857" x1="-1.22118" y1="-1.24477e-06" x2="31.0526" y2="7.82354" gradientUnits="userSpaceOnUse">
<stop stop-color="#FF0F13"/>
<stop offset="1" stop-color="#BF0020" stop-opacity="0"/>
</linearGradient>
</defs>
</svg>
