<svg width="28" height="28" viewBox="0 0 28 28" fill="none" xmlns="http://www.w3.org/2000/svg">
<path d="M13.7778 0.753846C13.7778 0.337479 14.126 0 14.5556 0C14.9851 0 15.3333 0.337479 15.3333 0.753846V3.98462C15.3333 4.40098 14.9851 4.73846 14.5556 4.73846C14.126 4.73846 13.7778 4.40098 13.7778 3.98462V0.753846Z" fill="#000"/>
<path d="M13.7778 0.753846C13.7778 0.337479 14.126 0 14.5556 0C14.9851 0 15.3333 0.337479 15.3333 0.753846V3.98462C15.3333 4.40098 14.9851 4.73846 14.5556 4.73846C14.126 4.73846 13.7778 4.40098 13.7778 3.98462V0.753846Z" fill="url(#paint0_linear_11721_1940)" fill-opacity="0.25"/>
<path d="M13.7778 0.753846C13.7778 0.337479 14.126 0 14.5556 0C14.9851 0 15.3333 0.337479 15.3333 0.753846V3.98462C15.3333 4.40098 14.9851 4.73846 14.5556 4.73846C14.126 4.73846 13.7778 4.40098 13.7778 3.98462V0.753846Z" fill="url(#paint1_linear_11721_1940)" fill-opacity="0.15"/>
<path d="M13.4444 18.6308C13.0149 18.6308 12.6667 18.9683 12.6667 19.3846C12.6667 19.801 13.0149 20.1385 13.4444 20.1385C13.874 20.1385 14.2222 19.801 14.2222 19.3846C14.2222 18.9683 13.874 18.6308 13.4444 18.6308Z" fill="#000"/>
<path d="M13.4444 18.6308C13.0149 18.6308 12.6667 18.9683 12.6667 19.3846C12.6667 19.801 13.0149 20.1385 13.4444 20.1385C13.874 20.1385 14.2222 19.801 14.2222 19.3846C14.2222 18.9683 13.874 18.6308 13.4444 18.6308Z" fill="url(#paint2_linear_11721_1940)" fill-opacity="0.25"/>
<path d="M13.4444 18.6308C13.0149 18.6308 12.6667 18.9683 12.6667 19.3846C12.6667 19.801 13.0149 20.1385 13.4444 20.1385C13.874 20.1385 14.2222 19.801 14.2222 19.3846C14.2222 18.9683 13.874 18.6308 13.4444 18.6308Z" fill="url(#paint3_linear_11721_1940)" fill-opacity="0.15"/>
<path fill-rule="evenodd" clip-rule="evenodd" d="M9.55556 6.46154C8.20756 6.46154 7.11111 7.52425 7.11111 8.83077V11.7423C6.417 12.2894 6 13.1186 6 14C6 16.937 7.42709 19.7214 9.86666 21.4954C10.2243 21.7554 10.4444 22.167 10.4444 22.6154V27.2462C10.4444 27.6625 10.7926 28 11.2222 28H20.1111C20.5407 28 20.8889 27.6625 20.8889 27.2462V22.7365C21.2486 21.67 21.5247 20.5687 21.7105 19.461C21.9027 18.3123 22 17.1407 22 15.9789V9.90769C22 8.59888 20.9061 7.53846 19.5556 7.53846C19.149 7.53846 18.7649 7.63536 18.4271 7.80646C18.0361 7.01705 17.2012 6.46154 16.2222 6.46154C15.5785 6.46154 14.9928 6.70422 14.5563 7.0991C14.1014 6.68622 13.5113 6.46154 12.8889 6.46154C12.2449 6.46154 11.6588 6.70462 11.2222 7.09978C10.7857 6.70462 10.1996 6.46154 9.55556 6.46154ZM8.66667 8.83077C8.66667 8.35595 9.06566 7.96923 9.55556 7.96923C10.0454 7.96923 10.4444 8.35595 10.4444 8.83077V11.0923H9C8.88822 11.0923 8.77696 11.0985 8.66667 11.1105V8.83077ZM12 8.83077C12 8.35595 12.399 7.96923 12.8889 7.96923C13.3798 7.96923 13.7778 8.35492 13.7778 8.83077V11.0923H12V8.83077ZM15.3333 8.83077C15.3333 8.35595 15.7323 7.96923 16.2222 7.96923C16.7132 7.96923 17.1111 8.35492 17.1111 8.83077V12.3846C17.1111 12.8594 16.7121 13.2462 16.2222 13.2462C15.7323 13.2462 15.3333 12.8594 15.3333 12.3846V8.83077ZM18.6667 9.90769C18.6667 9.43287 19.0657 9.04615 19.5556 9.04615C20.0465 9.04615 20.4444 9.43184 20.4444 9.90769V13.4615C20.4444 13.9364 20.0454 14.3231 19.5556 14.3231C19.0657 14.3231 18.6667 13.9364 18.6667 13.4615V9.90769ZM7.55556 14C7.55556 13.2408 8.18971 12.5994 9 12.5994H13.6569C13.327 13.598 12.3596 14.3231 11.2222 14.3231H10.1111C9.68154 14.3231 9.33333 14.6606 9.33333 15.0769C9.33333 15.4933 9.68154 15.8308 10.1111 15.8308H10.6667C11.618 15.8308 12.4432 16.4865 12.6282 17.3881C12.7114 17.7934 13.1183 18.0621 13.5429 17.9803C13.9641 17.8992 14.2378 17.5023 14.154 17.0939C14.014 16.4121 13.6688 15.8101 13.1893 15.3432C13.743 15.0496 14.22 14.6367 14.5824 14.1396C15.016 14.5206 15.5912 14.7538 16.2222 14.7538C16.6293 14.7538 17.0137 14.6568 17.3518 14.4853C17.7463 15.2801 18.585 15.8308 19.5556 15.8308C19.8689 15.8308 20.1688 15.773 20.4444 15.6682V15.9789C20.4444 17.06 20.3538 18.1507 20.1751 19.2196C19.9979 20.2763 19.7905 21.0431 19.6276 21.5773C19.5733 21.7557 19.5247 21.9056 19.4829 22.0346L19.4826 22.0356C19.4612 22.1016 19.4415 22.1622 19.4238 22.2184C19.3982 22.2993 19.3764 22.3717 19.361 22.4336C19.3462 22.4924 19.3333 22.5563 19.3333 22.6154V22.9385H12V22.6154C12 21.7145 11.5669 20.8468 10.8 20.2892C8.74989 18.7985 7.55556 16.4605 7.55556 14ZM12 26.4923V24.4462H19.3333V26.4923H12Z" fill="#000"/>
<path fill-rule="evenodd" clip-rule="evenodd" d="M9.55556 6.46154C8.20756 6.46154 7.11111 7.52425 7.11111 8.83077V11.7423C6.417 12.2894 6 13.1186 6 14C6 16.937 7.42709 19.7214 9.86666 21.4954C10.2243 21.7554 10.4444 22.167 10.4444 22.6154V27.2462C10.4444 27.6625 10.7926 28 11.2222 28H20.1111C20.5407 28 20.8889 27.6625 20.8889 27.2462V22.7365C21.2486 21.67 21.5247 20.5687 21.7105 19.461C21.9027 18.3123 22 17.1407 22 15.9789V9.90769C22 8.59888 20.9061 7.53846 19.5556 7.53846C19.149 7.53846 18.7649 7.63536 18.4271 7.80646C18.0361 7.01705 17.2012 6.46154 16.2222 6.46154C15.5785 6.46154 14.9928 6.70422 14.5563 7.0991C14.1014 6.68622 13.5113 6.46154 12.8889 6.46154C12.2449 6.46154 11.6588 6.70462 11.2222 7.09978C10.7857 6.70462 10.1996 6.46154 9.55556 6.46154ZM8.66667 8.83077C8.66667 8.35595 9.06566 7.96923 9.55556 7.96923C10.0454 7.96923 10.4444 8.35595 10.4444 8.83077V11.0923H9C8.88822 11.0923 8.77696 11.0985 8.66667 11.1105V8.83077ZM12 8.83077C12 8.35595 12.399 7.96923 12.8889 7.96923C13.3798 7.96923 13.7778 8.35492 13.7778 8.83077V11.0923H12V8.83077ZM15.3333 8.83077C15.3333 8.35595 15.7323 7.96923 16.2222 7.96923C16.7132 7.96923 17.1111 8.35492 17.1111 8.83077V12.3846C17.1111 12.8594 16.7121 13.2462 16.2222 13.2462C15.7323 13.2462 15.3333 12.8594 15.3333 12.3846V8.83077ZM18.6667 9.90769C18.6667 9.43287 19.0657 9.04615 19.5556 9.04615C20.0465 9.04615 20.4444 9.43184 20.4444 9.90769V13.4615C20.4444 13.9364 20.0454 14.3231 19.5556 14.3231C19.0657 14.3231 18.6667 13.9364 18.6667 13.4615V9.90769ZM7.55556 14C7.55556 13.2408 8.18971 12.5994 9 12.5994H13.6569C13.327 13.598 12.3596 14.3231 11.2222 14.3231H10.1111C9.68154 14.3231 9.33333 14.6606 9.33333 15.0769C9.33333 15.4933 9.68154 15.8308 10.1111 15.8308H10.6667C11.618 15.8308 12.4432 16.4865 12.6282 17.3881C12.7114 17.7934 13.1183 18.0621 13.5429 17.9803C13.9641 17.8992 14.2378 17.5023 14.154 17.0939C14.014 16.4121 13.6688 15.8101 13.1893 15.3432C13.743 15.0496 14.22 14.6367 14.5824 14.1396C15.016 14.5206 15.5912 14.7538 16.2222 14.7538C16.6293 14.7538 17.0137 14.6568 17.3518 14.4853C17.7463 15.2801 18.585 15.8308 19.5556 15.8308C19.8689 15.8308 20.1688 15.773 20.4444 15.6682V15.9789C20.4444 17.06 20.3538 18.1507 20.1751 19.2196C19.9979 20.2763 19.7905 21.0431 19.6276 21.5773C19.5733 21.7557 19.5247 21.9056 19.4829 22.0346L19.4826 22.0356C19.4612 22.1016 19.4415 22.1622 19.4238 22.2184C19.3982 22.2993 19.3764 22.3717 19.361 22.4336C19.3462 22.4924 19.3333 22.5563 19.3333 22.6154V22.9385H12V22.6154C12 21.7145 11.5669 20.8468 10.8 20.2892C8.74989 18.7985 7.55556 16.4605 7.55556 14ZM12 26.4923V24.4462H19.3333V26.4923H12Z" fill="url(#paint4_linear_11721_1940)" fill-opacity="0.25"/>
<path fill-rule="evenodd" clip-rule="evenodd" d="M9.55556 6.46154C8.20756 6.46154 7.11111 7.52425 7.11111 8.83077V11.7423C6.417 12.2894 6 13.1186 6 14C6 16.937 7.42709 19.7214 9.86666 21.4954C10.2243 21.7554 10.4444 22.167 10.4444 22.6154V27.2462C10.4444 27.6625 10.7926 28 11.2222 28H20.1111C20.5407 28 20.8889 27.6625 20.8889 27.2462V22.7365C21.2486 21.67 21.5247 20.5687 21.7105 19.461C21.9027 18.3123 22 17.1407 22 15.9789V9.90769C22 8.59888 20.9061 7.53846 19.5556 7.53846C19.149 7.53846 18.7649 7.63536 18.4271 7.80646C18.0361 7.01705 17.2012 6.46154 16.2222 6.46154C15.5785 6.46154 14.9928 6.70422 14.5563 7.0991C14.1014 6.68622 13.5113 6.46154 12.8889 6.46154C12.2449 6.46154 11.6588 6.70462 11.2222 7.09978C10.7857 6.70462 10.1996 6.46154 9.55556 6.46154ZM8.66667 8.83077C8.66667 8.35595 9.06566 7.96923 9.55556 7.96923C10.0454 7.96923 10.4444 8.35595 10.4444 8.83077V11.0923H9C8.88822 11.0923 8.77696 11.0985 8.66667 11.1105V8.83077ZM12 8.83077C12 8.35595 12.399 7.96923 12.8889 7.96923C13.3798 7.96923 13.7778 8.35492 13.7778 8.83077V11.0923H12V8.83077ZM15.3333 8.83077C15.3333 8.35595 15.7323 7.96923 16.2222 7.96923C16.7132 7.96923 17.1111 8.35492 17.1111 8.83077V12.3846C17.1111 12.8594 16.7121 13.2462 16.2222 13.2462C15.7323 13.2462 15.3333 12.8594 15.3333 12.3846V8.83077ZM18.6667 9.90769C18.6667 9.43287 19.0657 9.04615 19.5556 9.04615C20.0465 9.04615 20.4444 9.43184 20.4444 9.90769V13.4615C20.4444 13.9364 20.0454 14.3231 19.5556 14.3231C19.0657 14.3231 18.6667 13.9364 18.6667 13.4615V9.90769ZM7.55556 14C7.55556 13.2408 8.18971 12.5994 9 12.5994H13.6569C13.327 13.598 12.3596 14.3231 11.2222 14.3231H10.1111C9.68154 14.3231 9.33333 14.6606 9.33333 15.0769C9.33333 15.4933 9.68154 15.8308 10.1111 15.8308H10.6667C11.618 15.8308 12.4432 16.4865 12.6282 17.3881C12.7114 17.7934 13.1183 18.0621 13.5429 17.9803C13.9641 17.8992 14.2378 17.5023 14.154 17.0939C14.014 16.4121 13.6688 15.8101 13.1893 15.3432C13.743 15.0496 14.22 14.6367 14.5824 14.1396C15.016 14.5206 15.5912 14.7538 16.2222 14.7538C16.6293 14.7538 17.0137 14.6568 17.3518 14.4853C17.7463 15.2801 18.585 15.8308 19.5556 15.8308C19.8689 15.8308 20.1688 15.773 20.4444 15.6682V15.9789C20.4444 17.06 20.3538 18.1507 20.1751 19.2196C19.9979 20.2763 19.7905 21.0431 19.6276 21.5773C19.5733 21.7557 19.5247 21.9056 19.4829 22.0346L19.4826 22.0356C19.4612 22.1016 19.4415 22.1622 19.4238 22.2184C19.3982 22.2993 19.3764 22.3717 19.361 22.4336C19.3462 22.4924 19.3333 22.5563 19.3333 22.6154V22.9385H12V22.6154C12 21.7145 11.5669 20.8468 10.8 20.2892C8.74989 18.7985 7.55556 16.4605 7.55556 14ZM12 26.4923V24.4462H19.3333V26.4923H12Z" fill="url(#paint5_linear_11721_1940)" fill-opacity="0.15"/>
<path d="M21.363 1.47111C21.0592 1.17666 20.567 1.17671 20.2632 1.47111L17.9064 3.75588C17.6029 4.05032 17.603 4.52767 17.9067 4.8221C18.2103 5.11615 18.7026 5.11658 19.0065 4.82201L21.3634 2.53707C21.6669 2.24264 21.6668 1.76555 21.363 1.47111Z" fill="#000"/>
<path d="M21.363 1.47111C21.0592 1.17666 20.567 1.17671 20.2632 1.47111L17.9064 3.75588C17.6029 4.05032 17.603 4.52767 17.9067 4.8221C18.2103 5.11615 18.7026 5.11658 19.0065 4.82201L21.3634 2.53707C21.6669 2.24264 21.6668 1.76555 21.363 1.47111Z" fill="url(#paint6_linear_11721_1940)" fill-opacity="0.25"/>
<path d="M21.363 1.47111C21.0592 1.17666 20.567 1.17671 20.2632 1.47111L17.9064 3.75588C17.6029 4.05032 17.603 4.52767 17.9067 4.8221C18.2103 5.11615 18.7026 5.11658 19.0065 4.82201L21.3634 2.53707C21.6669 2.24264 21.6668 1.76555 21.363 1.47111Z" fill="url(#paint7_linear_11721_1940)" fill-opacity="0.15"/>
<path d="M11.5305 4.50623C11.8343 4.21175 11.834 3.73441 11.5305 3.4402L9.17308 1.15596C8.86947 0.861724 8.37695 0.861872 8.07321 1.15618C7.76924 1.45058 7.76991 1.92795 8.07322 2.22221L10.4305 4.50654C10.7343 4.80067 11.2267 4.80064 11.5305 4.50623Z" fill="#000"/>
<path d="M11.5305 4.50623C11.8343 4.21175 11.834 3.73441 11.5305 3.4402L9.17308 1.15596C8.86947 0.861724 8.37695 0.861872 8.07321 1.15618C7.76924 1.45058 7.76991 1.92795 8.07322 2.22221L10.4305 4.50654C10.7343 4.80067 11.2267 4.80064 11.5305 4.50623Z" fill="url(#paint8_linear_11721_1940)" fill-opacity="0.25"/>
<path d="M11.5305 4.50623C11.8343 4.21175 11.834 3.73441 11.5305 3.4402L9.17308 1.15596C8.86947 0.861724 8.37695 0.861872 8.07321 1.15618C7.76924 1.45058 7.76991 1.92795 8.07322 2.22221L10.4305 4.50654C10.7343 4.80067 11.2267 4.80064 11.5305 4.50623Z" fill="url(#paint9_linear_11721_1940)" fill-opacity="0.15"/>
<defs>
<linearGradient id="paint0_linear_11721_1940" x1="23.3956" y1="-6.29999" x2="2.79518" y2="-3.76001" gradientUnits="userSpaceOnUse">
<stop stop-color="#000"/>
<stop offset="1" stop-color="#000" stop-opacity="0"/>
</linearGradient>
<linearGradient id="paint1_linear_11721_1940" x1="5.30218" y1="-1.24477e-06" x2="24.4605" y2="2.65382" gradientUnits="userSpaceOnUse">
<stop stop-color="#000"/>
<stop offset="1" stop-color="#000" stop-opacity="0"/>
</linearGradient>
<linearGradient id="paint2_linear_11721_1940" x1="23.3956" y1="-6.29999" x2="2.79518" y2="-3.76001" gradientUnits="userSpaceOnUse">
<stop stop-color="#000"/>
<stop offset="1" stop-color="#000" stop-opacity="0"/>
</linearGradient>
<linearGradient id="paint3_linear_11721_1940" x1="5.30218" y1="-1.24477e-06" x2="24.4605" y2="2.65382" gradientUnits="userSpaceOnUse">
<stop stop-color="#000"/>
<stop offset="1" stop-color="#000" stop-opacity="0"/>
</linearGradient>
<linearGradient id="paint4_linear_11721_1940" x1="23.3956" y1="-6.29999" x2="2.79518" y2="-3.76001" gradientUnits="userSpaceOnUse">
<stop stop-color="#000"/>
<stop offset="1" stop-color="#000" stop-opacity="0"/>
</linearGradient>
<linearGradient id="paint5_linear_11721_1940" x1="5.30218" y1="-1.24477e-06" x2="24.4605" y2="2.65382" gradientUnits="userSpaceOnUse">
<stop stop-color="#000"/>
<stop offset="1" stop-color="#000" stop-opacity="0"/>
</linearGradient>
<linearGradient id="paint6_linear_11721_1940" x1="23.3956" y1="-6.29999" x2="2.79518" y2="-3.76001" gradientUnits="userSpaceOnUse">
<stop stop-color="#000"/>
<stop offset="1" stop-color="#000" stop-opacity="0"/>
</linearGradient>
<linearGradient id="paint7_linear_11721_1940" x1="5.30218" y1="-1.24477e-06" x2="24.4605" y2="2.65382" gradientUnits="userSpaceOnUse">
<stop stop-color="#000"/>
<stop offset="1" stop-color="#000" stop-opacity="0"/>
</linearGradient>
<linearGradient id="paint8_linear_11721_1940" x1="23.3956" y1="-6.29999" x2="2.79518" y2="-3.76001" gradientUnits="userSpaceOnUse">
<stop stop-color="#000"/>
<stop offset="1" stop-color="#000" stop-opacity="0"/>
</linearGradient>
<linearGradient id="paint9_linear_11721_1940" x1="5.30218" y1="-1.24477e-06" x2="24.4605" y2="2.65382" gradientUnits="userSpaceOnUse">
<stop stop-color="#000"/>
<stop offset="1" stop-color="#000" stop-opacity="0"/>
</linearGradient>
</defs>
</svg>
