<svg width="339" height="213" viewBox="0 0 339 213" fill="none" xmlns="http://www.w3.org/2000/svg">
  <rect width="339" height="194.804" transform="matrix(1 0 0 -1 0 213)" fill="#C1BBB6"/>
  <rect x="34.3284" y="18.1969" width="271.414" height="194.804" fill="white"/>
  <line x1="73.2542" y1="73.8077" x2="265.737" y2="73.8077" stroke="#C1BBB6" stroke-width="1.43644"/>
  <line x1="73.2542" y1="73.8077" x2="265.737" y2="73.8077" stroke="#C1BBB6" stroke-width="1.43644"/>
  <line x1="72.9534" y1="188.736" x2="181.304" y2="188.736" stroke="#C1BBB6" stroke-width="1.43644"/>
  <line x1="72.9534" y1="188.736" x2="181.304" y2="188.736" stroke="#C1BBB6" stroke-width="1.43644"/>
  <line x1="73.2542" y1="92.439" x2="232.699" y2="92.439" stroke="#C1BBB6" stroke-width="1.43644"/>
  <line x1="73.2542" y1="92.439" x2="232.699" y2="92.439" stroke="#C1BBB6" stroke-width="1.43644"/>
  <line x1="73.2542" y1="55.1781" x2="265.737" y2="55.1781" stroke="#C1BBB6" stroke-width="1.43644"/>
  <line x1="73.2542" y1="55.1781" x2="265.737" y2="55.1781" stroke="#C1BBB6" stroke-width="1.43644"/>
  <line x1="73.2542" y1="169.467" x2="265.737" y2="169.467" stroke="#C1BBB6" stroke-width="1.43644"/>
  <line x1="73.2542" y1="169.467" x2="265.737" y2="169.467" stroke="#C1BBB6" stroke-width="1.43644"/>
  <line x1="73.2542" y1="36.5466" x2="265.737" y2="36.5466" stroke="#C1BBB6" stroke-width="1.43644"/>
  <line x1="73.2542" y1="36.5466" x2="265.737" y2="36.5466" stroke="#C1BBB6" stroke-width="1.43644"/>
  <line x1="73.2542" y1="151.2" x2="265.737" y2="151.2" stroke="#C1BBB6" stroke-width="1.43644"/>
  <line x1="73.2542" y1="151.2" x2="265.737" y2="151.2" stroke="#C1BBB6" stroke-width="1.43644"/>
  <rect x="72.9998" y="108" width="63.2033" height="17.1982" rx="2.87288" fill="#5C00C7"/>
  <rect x="72.9998" y="108" width="63.2033" height="17.1982" rx="2.87288" fill="url(#paint0_linear)" fill-opacity="0.25"/>
  <rect x="72.9998" y="108" width="63.2033" height="17.1982" rx="2.87288" fill="url(#paint1_linear)" fill-opacity="0.15"/>
  <path d="M81.8728 113.448C81.8728 113.364 81.9088 113.322 81.9808 113.322H86.0218C86.0818 113.322 86.1118 113.355 86.1118 113.421V113.88C86.1118 113.952 86.0728 113.988 85.9948 113.988H82.8538C82.7758 113.988 82.7368 114.024 82.7368 114.096V116.202C82.7368 116.268 82.7698 116.301 82.8358 116.301H85.1668C85.2328 116.301 85.2658 116.334 85.2658 116.4V116.877C85.2658 116.901 85.2598 116.922 85.2478 116.94C85.2358 116.952 85.2088 116.958 85.1668 116.958H82.8358C82.7698 116.958 82.7368 116.991 82.7368 117.057V119.244C82.7368 119.304 82.7668 119.334 82.8268 119.334H86.1298C86.1958 119.334 86.2288 119.364 86.2288 119.424V119.901C86.2288 119.931 86.2198 119.955 86.2018 119.973C86.1898 119.991 86.1658 120 86.1298 120H81.9988C81.9148 120 81.8728 119.958 81.8728 119.874V113.448ZM92.9921 113.322C93.0581 113.322 93.0911 113.358 93.0911 113.43V119.892C93.0911 119.928 93.0791 119.955 93.0551 119.973C93.0371 119.991 93.0101 120 92.9741 120H92.5331C92.4971 120 92.4641 119.997 92.4341 119.991C92.4041 119.985 92.3741 119.964 92.3441 119.928L88.8701 114.879C88.8401 114.837 88.8161 114.819 88.7981 114.825C88.7801 114.831 88.7711 114.852 88.7711 114.888V119.883C88.7711 119.961 88.7291 120 88.6451 120H88.1411C88.0631 120 88.0241 119.961 88.0241 119.883V113.448C88.0241 113.364 88.0631 113.322 88.1411 113.322H88.6541C88.7021 113.322 88.7381 113.328 88.7621 113.34C88.7861 113.346 88.8131 113.37 88.8431 113.412L92.2181 118.353C92.2541 118.395 92.2841 118.41 92.3081 118.398C92.3381 118.386 92.3531 118.362 92.3531 118.326V113.43C92.3531 113.358 92.3891 113.322 92.4611 113.322H92.9921ZM95.4706 113.322C95.5126 113.322 95.5996 113.322 95.7316 113.322C95.8636 113.322 96.0076 113.325 96.1636 113.331C96.3196 113.331 96.4636 113.331 96.5956 113.331C96.7276 113.331 96.8206 113.331 96.8746 113.331C97.7086 113.343 98.3806 113.475 98.8906 113.727C99.4066 113.979 99.7816 114.345 100.016 114.825C100.256 115.305 100.376 115.899 100.376 116.607C100.376 117.357 100.247 117.984 99.9886 118.488C99.7306 118.992 99.3346 119.37 98.8006 119.622C98.2666 119.874 97.5946 120 96.7846 120H95.4616C95.3776 120 95.3356 119.952 95.3356 119.856V113.448C95.3356 113.406 95.3446 113.376 95.3626 113.358C95.3866 113.334 95.4226 113.322 95.4706 113.322ZM96.2896 113.979C96.2296 113.979 96.1996 114.021 96.1996 114.105V119.253C96.1996 119.319 96.2356 119.352 96.3076 119.352H96.6496C97.3156 119.352 97.8556 119.265 98.2696 119.091C98.6836 118.911 98.9866 118.623 99.1786 118.227C99.3766 117.831 99.4756 117.306 99.4756 116.652C99.4756 115.968 99.3736 115.434 99.1696 115.05C98.9716 114.66 98.6656 114.384 98.2516 114.222C97.8436 114.06 97.3246 113.979 96.6946 113.979H96.2896ZM104.896 120.09C104.308 120.09 103.798 119.958 103.366 119.694C102.94 119.43 102.613 119.046 102.385 118.542C102.157 118.032 102.043 117.414 102.043 116.688C102.043 115.956 102.16 115.332 102.394 114.816C102.628 114.3 102.958 113.907 103.384 113.637C103.81 113.367 104.317 113.232 104.905 113.232C105.493 113.232 105.997 113.367 106.417 113.637C106.843 113.907 107.17 114.297 107.398 114.807C107.632 115.317 107.749 115.941 107.749 116.679C107.749 117.405 107.635 118.023 107.407 118.533C107.179 119.037 106.849 119.424 106.417 119.694C105.991 119.958 105.484 120.09 104.896 120.09ZM104.914 119.433C105.562 119.433 106.045 119.211 106.363 118.767C106.687 118.317 106.849 117.624 106.849 116.688C106.849 115.734 106.684 115.029 106.354 114.573C106.03 114.117 105.547 113.889 104.905 113.889C104.257 113.889 103.768 114.12 103.438 114.582C103.108 115.038 102.943 115.74 102.943 116.688C102.943 117.618 103.108 118.308 103.438 118.758C103.768 119.208 104.26 119.433 104.914 119.433ZM114.474 119.829C114.492 119.871 114.489 119.91 114.465 119.946C114.447 119.982 114.417 120 114.375 120H113.718C113.652 120 113.604 119.964 113.574 119.892L112.413 117.057C112.383 116.991 112.311 116.958 112.197 116.958H110.676C110.634 116.958 110.604 116.967 110.586 116.985C110.574 117.003 110.568 117.027 110.568 117.057V119.856C110.568 119.952 110.517 120 110.415 120H109.83C109.782 120 109.749 119.991 109.731 119.973C109.713 119.949 109.704 119.919 109.704 119.883V113.448C109.704 113.364 109.74 113.322 109.812 113.322H112.323C113.031 113.322 113.58 113.469 113.97 113.763C114.366 114.051 114.564 114.48 114.564 115.05C114.564 115.392 114.498 115.683 114.366 115.923C114.234 116.157 114.066 116.346 113.862 116.49C113.664 116.628 113.46 116.73 113.25 116.796C113.202 116.802 113.19 116.832 113.214 116.886L114.474 119.829ZM112.071 116.328C112.599 116.328 112.995 116.232 113.259 116.04C113.529 115.848 113.664 115.545 113.664 115.131C113.664 114.729 113.544 114.432 113.304 114.24C113.07 114.048 112.728 113.952 112.278 113.952H110.694C110.61 113.952 110.568 113.985 110.568 114.051V116.211C110.568 116.289 110.595 116.328 110.649 116.328H112.071ZM120.079 114.564C119.923 114.378 119.722 114.219 119.476 114.087C119.23 113.955 118.921 113.889 118.549 113.889C118.099 113.889 117.745 113.988 117.487 114.186C117.229 114.384 117.1 114.66 117.1 115.014C117.1 115.11 117.121 115.221 117.163 115.347C117.211 115.473 117.304 115.596 117.442 115.716C117.58 115.836 117.787 115.944 118.063 116.04L119.368 116.472C119.914 116.652 120.301 116.892 120.529 117.192C120.757 117.486 120.871 117.834 120.871 118.236C120.871 118.62 120.775 118.953 120.583 119.235C120.391 119.511 120.118 119.724 119.764 119.874C119.41 120.018 118.984 120.09 118.486 120.09C118.126 120.09 117.793 120.048 117.487 119.964C117.181 119.874 116.908 119.748 116.668 119.586C116.434 119.418 116.233 119.211 116.065 118.965C116.035 118.923 116.023 118.887 116.029 118.857C116.041 118.821 116.071 118.785 116.119 118.749L116.443 118.524C116.503 118.488 116.548 118.47 116.578 118.47C116.614 118.47 116.644 118.488 116.668 118.524C116.83 118.728 116.989 118.899 117.145 119.037C117.301 119.169 117.481 119.268 117.685 119.334C117.895 119.4 118.15 119.433 118.45 119.433C118.924 119.433 119.308 119.349 119.602 119.181C119.896 119.007 120.043 118.722 120.043 118.326C120.043 118.176 120.013 118.041 119.953 117.921C119.893 117.795 119.791 117.681 119.647 117.579C119.503 117.471 119.296 117.366 119.026 117.264L117.658 116.796C117.328 116.682 117.061 116.535 116.857 116.355C116.653 116.175 116.503 115.977 116.407 115.761C116.317 115.545 116.272 115.323 116.272 115.095C116.272 114.717 116.368 114.39 116.56 114.114C116.752 113.832 117.016 113.616 117.352 113.466C117.694 113.31 118.093 113.232 118.549 113.232C118.855 113.232 119.134 113.268 119.386 113.34C119.644 113.412 119.878 113.514 120.088 113.646C120.304 113.778 120.493 113.937 120.655 114.123C120.679 114.147 120.694 114.174 120.7 114.204C120.706 114.234 120.691 114.264 120.655 114.294L120.241 114.618C120.211 114.636 120.187 114.642 120.169 114.636C120.151 114.624 120.121 114.6 120.079 114.564ZM122.736 113.448C122.736 113.364 122.772 113.322 122.844 113.322H126.885C126.945 113.322 126.975 113.355 126.975 113.421V113.88C126.975 113.952 126.936 113.988 126.858 113.988H123.717C123.639 113.988 123.6 114.024 123.6 114.096V116.202C123.6 116.268 123.633 116.301 123.699 116.301H126.03C126.096 116.301 126.129 116.334 126.129 116.4V116.877C126.129 116.901 126.123 116.922 126.111 116.94C126.099 116.952 126.072 116.958 126.03 116.958H123.699C123.633 116.958 123.6 116.991 123.6 117.057V119.244C123.6 119.304 123.63 119.334 123.69 119.334H126.993C127.059 119.334 127.092 119.364 127.092 119.424V119.901C127.092 119.931 127.083 119.955 127.065 119.973C127.053 119.991 127.029 120 126.993 120H122.862C122.778 120 122.736 119.958 122.736 119.874V113.448Z" fill="white"/>
  <rect x="0.000244141" width="339" height="18.6313" fill="#EAE9E6"/>
  <ellipse cx="32.319" cy="9.31707" rx="2.15466" ry="2.14977" fill="#AAA29D"/>
  <ellipse cx="20.8307" cy="9.31707" rx="2.15466" ry="2.14977" fill="#AAA29D"/>
  <ellipse cx="9.3385" cy="9.31707" rx="2.15466" ry="2.14977" fill="#AAA29D"/>
  <defs>
    <linearGradient id="paint0_linear" x1="141.716" y1="104.13" x2="90.9954" y2="144.35" gradientUnits="userSpaceOnUse">
      <stop stop-color="#4300D3"/>
      <stop offset="1" stop-color="#4300D3" stop-opacity="0"/>
    </linearGradient>
    <linearGradient id="paint1_linear" x1="70.2432" y1="108" x2="113.246" y2="146.31" gradientUnits="userSpaceOnUse">
      <stop stop-color="#FF0F13"/>
      <stop offset="1" stop-color="#BF0020" stop-opacity="0"/>
    </linearGradient>
  </defs>
</svg>
