<svg width="295" height="161" viewBox="0 0 295 161" fill="none" xmlns="http://www.w3.org/2000/svg">
<g clip-path="url(#clip0)">
<path opacity="0.05" d="M174.091 25.6412C143.498 34.2072 104.792 13.0915 52.764 59.9902C16.1037 93.0361 24.1983 136.087 32.2697 165.586C40.6889 196.353 65.6379 233.373 94.9471 241.106C123.746 248.705 144.57 240.443 173.472 216.965C225.81 174.449 279.756 102.536 262.703 21.2427C250.524 -36.8117 189.183 21.4156 174.091 25.6412Z" fill="#8821FF"/>
<g clip-path="url(#clip1)">
<mask id="mask0" mask-type="alpha" maskUnits="userSpaceOnUse" x="48" y="15" width="159" height="122">
<path d="M190.845 76.8068C190.845 109.739 164.148 136.436 131.215 136.436C98.2828 136.436 71.5858 109.739 71.5858 76.8068C7.78255 13.0038 94.1361 15.2729 127.069 15.2729C254.597 15.2729 190.845 43.8744 190.845 76.8068Z" fill="#C4C4C4"/>
</mask>
<g mask="url(#mask0)">
<circle cx="130.749" cy="86.399" r="48.7922" stroke="#5C00C7" stroke-width="3.70387"/>
<circle cx="130.749" cy="86.399" r="48.7922" stroke="url(#paint0_linear)" stroke-opacity="0.25" stroke-width="3.70387"/>
<circle cx="130.749" cy="86.399" r="48.7922" stroke="url(#paint1_linear)" stroke-opacity="0.15" stroke-width="3.70387"/>
<path d="M134.524 55.2235C133.316 53.1378 130.164 52.534 128.276 54.0267C127.671 54.5054 127.172 55.165 126.443 55.4132C124.622 56.0318 125.042 53.8363 123.14 54.1117C119.888 54.5828 121.693 60.3419 116.853 61.4217C115.064 61.821 111.99 59.6535 110.176 59.9149C107.58 60.2894 107.211 64.7992 104.6 65.0526C103.635 65.1464 102.736 64.5686 101.775 64.4307C100.815 64.2928 99.57 65.049 99.9097 65.9611C100.451 68.4477 100.375 68.4477 101.1 70.7812C102.489 75.2577 103.705 79.8805 107.5 82.6114C111.296 85.3426 115.357 87 119.842 88.3059C123.923 89.4943 128.642 90.3896 132.873 89.9979C138.375 89.4879 143.351 86.2888 147.113 82.224C150.875 78.1593 153.588 73.251 156.264 68.396C155.176 69.4164 153.373 68.5379 152.407 67.4009C151.442 66.263 150.625 64.7904 149.181 64.4279C147.951 64.12 146.618 64.743 145.405 64.3742C143.017 63.6485 142.624 59.69 140.153 59.3436C139.198 59.2097 137.887 59.7561 136.955 59.5104C135.265 59.0661 135.401 56.7387 134.524 55.2235Z" fill="#428DFC"/>
<path d="M134.524 55.2235C133.316 53.1378 130.164 52.534 128.276 54.0267C127.671 54.5054 127.172 55.165 126.443 55.4132C124.622 56.0318 125.042 53.8363 123.14 54.1117C119.888 54.5828 121.693 60.3419 116.853 61.4217C115.064 61.821 111.99 59.6535 110.176 59.9149C107.58 60.2894 107.211 64.7992 104.6 65.0526C103.635 65.1464 102.736 64.5686 101.775 64.4307C100.815 64.2928 99.57 65.049 99.9097 65.9611C100.451 68.4477 100.375 68.4477 101.1 70.7812C102.489 75.2577 103.705 79.8805 107.5 82.6114C111.296 85.3426 115.357 87 119.842 88.3059C123.923 89.4943 128.642 90.3896 132.873 89.9979C138.375 89.4879 143.351 86.2888 147.113 82.224C150.875 78.1593 153.588 73.251 156.264 68.396C155.176 69.4164 153.373 68.5379 152.407 67.4009C151.442 66.263 150.625 64.7904 149.181 64.4279C147.951 64.12 146.618 64.743 145.405 64.3742C143.017 63.6485 142.624 59.69 140.153 59.3436C139.198 59.2097 137.887 59.7561 136.955 59.5104C135.265 59.0661 135.401 56.7387 134.524 55.2235Z" fill="#428DFC"/>
<path d="M134.524 55.2235C133.316 53.1378 130.164 52.534 128.276 54.0267C127.671 54.5054 127.172 55.165 126.443 55.4132C124.622 56.0318 125.042 53.8363 123.14 54.1117C119.888 54.5828 121.693 60.3419 116.853 61.4217C115.064 61.821 111.99 59.6535 110.176 59.9149C107.58 60.2894 107.211 64.7992 104.6 65.0526C103.635 65.1464 102.736 64.5686 101.775 64.4307C100.815 64.2928 99.57 65.049 99.9097 65.9611C100.451 68.4477 100.375 68.4477 101.1 70.7812C102.489 75.2577 103.705 79.8805 107.5 82.6114C111.296 85.3426 115.357 87 119.842 88.3059C123.923 89.4943 128.642 90.3896 132.873 89.9979C138.375 89.4879 143.351 86.2888 147.113 82.224C150.875 78.1593 153.588 73.251 156.264 68.396C155.176 69.4164 153.373 68.5379 152.407 67.4009C151.442 66.263 150.625 64.7904 149.181 64.4279C147.951 64.12 146.618 64.743 145.405 64.3742C143.017 63.6485 142.624 59.69 140.153 59.3436C139.198 59.2097 137.887 59.7561 136.955 59.5104C135.265 59.0661 135.401 56.7387 134.524 55.2235Z" fill="url(#paint2_linear)" fill-opacity="0.5"/>
<path d="M81.4348 27.0998C80.5908 23.7267 79.2196 23.592 76.749 21.111C76.3499 20.7104 75.9182 20.0806 75.4713 20.4266C75.0349 21.6615 78.1126 23.7632 78.3808 26.6484C74.3551 24.3109 68.3619 23.1782 64.737 23.4208C63.4593 23.5062 65.6737 24.533 68.5707 24.9608C71.2152 25.3509 72.8305 26.415 75.2035 27.6451C75.3436 28.0525 73.7588 27.3709 73.342 27.2706C69.3886 26.3176 66.6113 25.5594 62.4009 25.2399C61.159 25.3882 63.2999 27.51 64.4387 27.955C67.2694 29.0604 70.4447 29.8888 73.2746 30.9942C72.5318 32.3614 63.5466 28.221 65.0134 30.0516C67.6217 32.9962 73.1212 34.1917 77.0405 34.0016C77.6865 33.9707 78.3302 33.9844 78.9622 34.1239C80.7164 34.51 82.1133 38.4581 82.5337 39.9852C85.4873 50.708 87.7921 55.1709 90.2579 61.887C90.9822 60.8746 95.0127 56.8765 96.1647 56.4118C93.9382 50.356 82.9762 32.3233 82.2013 30.3506C82.0358 29.9289 81.279 26.674 81.4348 27.0998Z" fill="url(#paint3_linear)"/>
<path d="M176.027 26.9494C176.871 23.5763 178.242 23.4416 180.713 20.9606C181.112 20.56 181.544 19.9302 181.991 20.2762C182.427 21.5111 179.349 23.6128 179.081 26.498C183.107 24.1605 189.1 23.0278 192.725 23.2704C194.003 23.3558 191.788 24.3826 188.891 24.8104C186.247 25.2005 184.632 26.2646 182.259 27.4947C182.118 27.9021 183.703 27.2205 184.12 27.1202C188.073 26.1672 190.851 25.409 195.061 25.0895C196.303 25.2378 194.162 27.3596 193.023 27.8046C190.193 28.91 187.017 29.7384 184.187 30.8438C184.93 32.211 192.385 27.5909 190.918 29.4216C188.309 32.3661 184.341 34.0413 180.422 33.8512C179.775 33.8203 179.132 33.834 178.5 33.9735C176.746 34.3596 175.349 38.3077 174.928 39.8349C171.975 50.5576 169.67 55.0205 167.204 61.7366C166.48 60.7242 162.449 56.7261 161.297 56.2614C163.524 50.2056 174.486 32.1729 175.261 30.2003C175.426 29.7785 176.183 26.5236 176.027 26.9494Z" fill="url(#paint4_linear)"/>
<path d="M133.471 85.9005C133.164 85.7545 132.857 85.6086 132.55 85.4623C132.873 80.0656 132.867 74.5262 133.253 69.1953C131.04 70.6379 127.205 71.3099 124.59 70.9578C125.363 76.0654 125.732 81.3125 125.062 86.4341C127.843 86.0252 130.662 85.8291 133.471 85.9005Z" fill="#B07171"/>
<path d="M127.992 74.8867C129.561 74.7564 130.992 73.9024 132.152 72.8351C134.62 70.5646 136.068 67.2159 136.036 63.8549C136.025 62.7675 135.864 61.6753 135.489 60.6554C134.172 57.0758 129.968 54.8481 126.282 55.7771C124.841 56.14 123.504 56.9306 122.515 58.0436C120.517 60.2909 120.113 63.5778 120.496 66.566C120.758 68.618 121.371 70.6785 122.646 72.3047C123.92 73.9297 125.939 75.0575 127.992 74.8867Z" fill="#CC8A82"/>
<path d="M122.959 68.193C124.024 69.7049 126.001 69.986 127.844 69.9238C129.597 69.8653 130.809 69.122 132.195 67.8999C131.491 69.3453 131.547 69.6512 130.556 70.7823C129.507 71.9799 128.484 72.6222 126.596 72.269C126.227 72.2 125.317 71.6407 125.028 71.4017C123.754 70.3505 123.642 69.7013 122.959 68.193Z" fill="white"/>
<path d="M122.308 76.5544C122.263 76.5544 122.216 76.5355 122.183 76.4995C121.667 75.9397 122.128 75.1876 122.499 74.5838L122.603 74.4126C123.16 73.4848 123.164 72.2355 122.614 71.3037C122.55 71.1958 122.479 71.0884 122.407 70.9801C122.125 70.5539 121.833 70.1125 121.913 69.5856C121.98 69.1458 122.289 68.7998 122.588 68.4646C122.927 68.0845 123.219 67.757 123.086 67.3825C123.01 67.1676 122.743 67.0088 122.487 66.8552C122.128 66.6407 121.72 66.3974 121.796 65.9363C121.896 65.3232 122.43 64.9881 122.946 64.6653C123.159 64.5326 123.358 64.4071 123.528 64.2648C123.905 63.948 123.528 63.1742 123.403 62.9445C123.328 62.8033 123.241 62.6658 123.155 62.5287C122.95 62.2011 122.738 61.8623 122.649 61.467C122.467 60.6635 122.85 59.743 123.623 59.1215C124.279 58.5955 125.258 58.2635 126.125 57.9937C126.216 57.966 126.31 58.0165 126.338 58.1063C126.366 58.1969 126.315 58.292 126.226 58.32C125.621 58.5081 124.496 58.8589 123.836 59.3885C123.325 59.7987 122.795 60.5689 122.981 61.3904C123.057 61.7288 123.246 62.0283 123.444 62.3459C123.534 62.4894 123.623 62.6333 123.703 62.7805C123.902 63.1485 124.306 64.0567 123.747 64.5266C123.559 64.6845 123.339 64.8221 123.126 64.9556C122.653 65.2515 122.206 65.5313 122.132 65.992C122.096 66.2113 122.309 66.3509 122.661 66.5609C122.956 66.7366 123.289 66.9366 123.407 67.2674C123.608 67.8331 123.219 68.2702 122.842 68.6927C122.576 68.9906 122.302 69.2978 122.251 69.6374C122.191 70.0335 122.434 70.4016 122.692 70.7913C122.766 70.9043 122.841 71.017 122.908 71.1293C123.52 72.1661 123.515 73.5566 122.896 74.589L122.79 74.763C122.396 75.4057 122.118 75.9245 122.434 76.2665C122.498 76.3363 122.494 76.4441 122.425 76.5083C122.391 76.5391 122.349 76.5544 122.308 76.5544Z" fill="#428DFC"/>
<path d="M155.217 66.569C153.973 66.569 152.798 65.381 152.408 64.9436C151.502 63.9264 150.481 62.7765 149.227 62.9605C148.901 63.0079 148.595 63.1458 148.27 63.2913C147.914 63.4513 147.547 63.6173 147.141 63.6578C145.734 63.7965 144.701 62.4093 144.212 61.5685C144.146 61.455 144.08 61.3395 144.014 61.2233C143.482 60.2891 142.93 59.3232 141.986 58.9539C141.044 58.5867 140.001 58.9279 138.991 59.2587C138.692 59.3569 138.383 59.4579 138.08 59.5393C137.082 59.808 135.943 59.6688 135.246 59.1937C134.817 58.9014 134.56 58.4913 134.504 58.0065C134.493 57.9127 134.56 57.8277 134.653 57.8169C134.749 57.8045 134.831 57.8734 134.842 57.9668C134.887 58.3553 135.087 58.6729 135.436 58.911C136.047 59.3268 137.097 59.4499 137.991 59.2097C138.286 59.1308 138.591 59.0305 138.886 58.9343C139.953 58.5855 141.055 58.2242 142.11 58.6364C143.167 59.049 143.748 60.0682 144.31 61.0545C144.375 61.1695 144.441 61.2838 144.506 61.3969C144.955 62.1671 145.892 63.4397 147.107 63.3182C147.457 63.2833 147.785 63.1358 148.131 62.9798C148.462 62.8306 148.805 62.6767 149.178 62.6226C150.608 62.4157 151.746 63.6878 152.658 64.711C153.105 65.2126 154.65 66.7747 155.966 66.0293C156.046 65.9824 156.151 66.0113 156.198 66.0939C156.245 66.1761 156.216 66.2803 156.134 66.3272C155.83 66.4976 155.521 66.569 155.217 66.569Z" fill="#428DFC"/>
<path d="M162.639 52.5676C157.181 63.5638 151.591 72.7433 142.503 83.5611C139.551 81.3303 137.542 81.7481 132.725 81.8375C132.511 83.5174 131.207 84.9047 129.496 84.8918C126.493 84.8694 125.449 82.1346 125.449 82.1346C122.147 82.3066 119.084 81.6795 115.766 82.9677C114.512 78.2735 100.334 61.6822 95.4026 54.0615C93.0545 55.8561 90.2165 56.9988 87.2842 57.3308C92.41 70.025 106.353 98.841 107.222 101.527C107.7 107.759 107.541 125.335 108.177 132.845C110.344 138.275 113.908 143.391 123.619 144.22C134.421 145.142 143.549 142.513 148.619 133.725C149.38 125.712 149.971 108.719 150.078 107.153C150.237 104.815 150.462 102.224 150.966 101.089C157.98 85.2876 163.788 73.3456 169.595 57.0574C167.445 55.6901 164.788 53.9364 162.639 52.5676Z" fill="#9500CB"/>
<path d="M162.639 52.5676C157.181 63.5638 151.591 72.7433 142.503 83.5611C139.551 81.3303 137.542 81.7481 132.725 81.8375C132.511 83.5174 131.207 84.9047 129.496 84.8918C126.493 84.8694 125.449 82.1346 125.449 82.1346C122.147 82.3066 119.084 81.6795 115.766 82.9677C114.512 78.2735 100.334 61.6822 95.4026 54.0615C93.0545 55.8561 90.2165 56.9988 87.2842 57.3308C92.41 70.025 106.353 98.841 107.222 101.527C107.7 107.759 107.541 125.335 108.177 132.845C110.344 138.275 113.908 143.391 123.619 144.22C134.421 145.142 143.549 142.513 148.619 133.725C149.38 125.712 149.971 108.719 150.078 107.153C150.237 104.815 150.462 102.224 150.966 101.089C157.98 85.2876 163.788 73.3456 169.595 57.0574C167.445 55.6901 164.788 53.9364 162.639 52.5676Z" fill="url(#paint5_linear)" fill-opacity="0.45"/>
<g clip-path="url(#clip2)">
<path d="M132.283 93.9004L134.166 96.8118L137.629 96.9851L137.804 100.448L140.717 102.329L139.137 105.416L140.719 108.501L137.808 110.384L137.634 113.847L134.172 114.022L132.29 116.935L129.204 115.355L126.118 116.937L124.235 114.025L120.772 113.852L120.597 110.39L117.684 108.508L119.264 105.421L117.683 102.336L120.594 100.453L120.767 96.99L124.23 96.8151L126.111 93.902L129.198 95.4822L132.283 93.9004Z" fill="#5C00C7"/>
<path d="M132.283 93.9004L134.166 96.8118L137.629 96.9851L137.804 100.448L140.717 102.329L139.137 105.416L140.719 108.501L137.808 110.384L137.634 113.847L134.172 114.022L132.29 116.935L129.204 115.355L126.118 116.937L124.235 114.025L120.772 113.852L120.597 110.39L117.684 108.508L119.264 105.421L117.683 102.336L120.594 100.453L120.767 96.99L124.23 96.8151L126.111 93.902L129.198 95.4822L132.283 93.9004Z" fill="url(#paint6_linear)" fill-opacity="0.25"/>
<path d="M132.283 93.9004L134.166 96.8118L137.629 96.9851L137.804 100.448L140.717 102.329L139.137 105.416L140.719 108.501L137.808 110.384L137.634 113.847L134.172 114.022L132.29 116.935L129.204 115.355L126.118 116.937L124.235 114.025L120.772 113.852L120.597 110.39L117.684 108.508L119.264 105.421L117.683 102.336L120.594 100.453L120.767 96.99L124.23 96.8151L126.111 93.902L129.198 95.4822L132.283 93.9004Z" fill="url(#paint7_linear)" fill-opacity="0.15"/>
<path d="M129.2 110.698C131.897 109.373 133.688 107.887 134.6 106.36C135.373 105.068 135.469 103.807 134.984 102.771C134.543 101.829 133.648 101.157 132.617 100.984C131.517 100.799 130.398 101.194 129.51 102.172L129.2 102.513L128.891 102.172C128.003 101.194 126.884 100.799 125.783 100.984C124.753 101.157 123.858 101.829 123.417 102.771C122.932 103.807 123.028 105.068 123.801 106.36C124.713 107.887 126.504 109.373 129.2 110.698Z" stroke="white" stroke-width="1.18744"/>
<path d="M128.9 106.974L128.198 107.357C128.126 107.396 128.038 107.367 128 107.293C127.985 107.263 127.98 107.229 127.985 107.196L128.119 106.385C128.151 106.195 128.09 106.001 127.957 105.867L127.389 105.292C127.331 105.233 127.33 105.137 127.386 105.077C127.409 105.053 127.438 105.037 127.47 105.032L128.255 104.914C128.439 104.886 128.598 104.767 128.68 104.594L129.031 103.856C129.067 103.78 129.155 103.749 129.227 103.786C129.256 103.801 129.28 103.826 129.294 103.856L129.645 104.594C129.727 104.767 129.886 104.886 130.07 104.914L130.855 105.032C130.935 105.045 130.99 105.122 130.979 105.205C130.974 105.238 130.959 105.269 130.936 105.292L130.368 105.867C130.235 106.001 130.174 106.195 130.206 106.385L130.34 107.196C130.353 107.279 130.3 107.358 130.22 107.372C130.188 107.378 130.155 107.372 130.127 107.357L129.425 106.974C129.261 106.884 129.064 106.884 128.9 106.974Z" fill="white"/>
</g>
<path d="M193.51 112.291C193.536 112.387 193.613 112.448 193.708 112.422C193.803 112.396 193.864 112.319 193.838 112.223C193.812 112.128 193.735 112.067 193.64 112.092C193.545 112.118 193.485 112.196 193.51 112.291ZM199.846 127.562C199.785 127.64 199.811 127.735 199.888 127.796C199.966 127.857 200.061 127.831 200.121 127.753C200.182 127.675 200.156 127.58 200.079 127.519C200.01 127.415 199.906 127.484 199.846 127.562ZM202.014 123.947C201.954 124.024 201.98 124.12 202.057 124.181C202.134 124.241 202.229 124.216 202.29 124.138C202.351 124.06 202.325 123.965 202.248 123.904C202.213 123.852 202.075 123.869 202.014 123.947ZM194.649 120.188C194.726 120.249 194.812 120.267 194.908 120.241C194.968 120.163 194.986 120.077 194.96 119.981C194.883 119.921 194.797 119.903 194.745 119.937C194.598 119.997 194.581 120.084 194.649 120.188ZM198.074 117.687C198.152 117.747 198.238 117.765 198.333 117.739C198.394 117.662 198.411 117.575 198.386 117.48C198.308 117.419 198.222 117.401 198.17 117.435C198.023 117.496 197.997 117.626 198.074 117.687ZM208.255 128.603C208.238 128.689 208.306 128.794 208.393 128.812C208.479 128.829 208.583 128.76 208.6 128.674C208.618 128.588 208.549 128.483 208.463 128.465C208.377 128.448 208.273 128.516 208.255 128.603ZM208.925 124.411C208.907 124.497 208.976 124.602 209.062 124.619C209.148 124.637 209.252 124.568 209.27 124.482C209.287 124.395 209.218 124.291 209.132 124.273C209.046 124.256 208.942 124.325 208.925 124.411ZM192.331 116.784C192.365 116.836 192.486 116.906 192.546 116.828C192.598 116.794 192.668 116.672 192.59 116.612C192.555 116.56 192.435 116.49 192.374 116.567C192.28 116.593 192.262 116.68 192.331 116.784ZM195.555 114.828C195.59 114.88 195.711 114.95 195.771 114.872C195.823 114.838 195.883 114.76 195.815 114.656C195.78 114.604 195.703 114.543 195.599 114.611C195.539 114.689 195.521 114.776 195.555 114.828ZM204.932 126.165C204.915 126.252 204.94 126.347 205.027 126.365C205.113 126.383 205.164 126.348 205.225 126.271C205.243 126.184 205.217 126.088 205.131 126.071C205.045 126.053 204.95 126.079 204.932 126.165ZM205.85 122.521C205.833 122.607 205.858 122.703 205.945 122.72C206.031 122.738 206.082 122.703 206.143 122.626C206.161 122.539 206.135 122.444 206.049 122.426C205.963 122.409 205.868 122.434 205.85 122.521ZM198.582 120.946C198.521 121.024 198.547 121.12 198.624 121.181C198.701 121.242 198.797 121.215 198.857 121.138C198.918 121.06 198.892 120.964 198.815 120.904C198.738 120.843 198.642 120.869 198.582 120.946ZM190.412 120.27C190.351 120.347 190.377 120.443 190.454 120.504C190.532 120.564 190.627 120.539 190.688 120.461C190.748 120.383 190.722 120.288 190.645 120.227C190.568 120.166 190.473 120.192 190.412 120.27ZM193.004 116.787C192.943 116.864 192.969 116.96 193.046 117.021C193.123 117.082 193.219 117.056 193.279 116.978C193.34 116.9 193.314 116.805 193.237 116.744C193.159 116.683 193.064 116.709 193.004 116.787ZM195.56 113.251C195.5 113.329 195.525 113.424 195.603 113.485C195.68 113.545 195.775 113.52 195.836 113.442C195.896 113.364 195.871 113.269 195.794 113.208C195.707 113.19 195.612 113.216 195.56 113.251ZM208.078 124.824C208.104 124.92 208.181 124.981 208.276 124.955C208.371 124.929 208.432 124.852 208.406 124.756C208.38 124.661 208.303 124.6 208.208 124.625C208.122 124.608 208.053 124.729 208.078 124.824ZM193.24 107.637C193.137 107.707 193.119 107.793 193.188 107.897L193.24 107.637ZM198.992 122.247C198.974 122.334 199.043 122.438 199.129 122.456C199.215 122.474 199.319 122.405 199.337 122.318C199.354 122.232 199.286 122.128 199.199 122.11C199.113 122.092 199.009 122.161 198.992 122.247ZM196.023 122.272C196.006 122.359 196.074 122.463 196.161 122.481C196.247 122.498 196.351 122.43 196.368 122.343C196.386 122.257 196.36 122.161 196.231 122.134C196.145 122.117 196.041 122.186 196.023 122.272ZM197.227 118.1C197.209 118.186 197.278 118.291 197.364 118.308C197.451 118.326 197.546 118.3 197.572 118.17C197.59 118.084 197.521 117.979 197.444 117.919C197.349 117.944 197.245 118.013 197.227 118.1ZM191.878 112.589C191.817 112.667 191.843 112.762 191.92 112.823C191.998 112.884 192.093 112.858 192.196 112.789C192.257 112.712 192.231 112.616 192.163 112.512C192.033 112.485 191.939 112.511 191.878 112.589ZM193.579 112.17C193.562 112.256 193.597 112.308 193.631 112.361C193.717 112.378 193.768 112.343 193.821 112.309C193.839 112.223 193.804 112.171 193.77 112.119C193.683 112.1 193.588 112.126 193.579 112.17Z" fill="white"/>
<path d="M127.617 55.3459C128.315 55.2016 129.523 55.4578 130.198 55.6851C130.574 55.8118 132.329 56.473 132.652 56.7031C134.252 57.843 134.904 58.8746 135.91 60.563C136.47 61.5028 136.505 62.5516 136.757 63.6169C137.034 64.7937 136.851 66.1208 136.373 67.231C136.275 66.4969 136.173 65.7511 135.874 65.0743C135.426 64.0624 134.566 63.2825 133.621 62.7104C132.675 62.1383 131.634 61.7489 130.62 61.3095C129.767 60.9403 128.931 60.5337 128.113 60.0923C127.252 59.6276 126.335 59.0226 126.114 58.0683C125.76 58.2616 125.371 58.3815 125.001 58.5434C124.204 58.8931 123.509 59.4343 122.822 59.9704C121.443 61.0469 121.524 60.6055 120.043 63.2777C119.864 63.6017 120.059 60.0205 120.545 59.5354C120.76 59.3213 122.763 57.2287 122.963 57.0002C123.522 56.3603 126.622 55.552 127.617 55.3459Z" fill="#428DFC"/>
<path d="M81.7701 30.3345C81.8058 29.9107 81.638 29.5053 81.5026 29.1028C81.3585 28.6734 81.2718 27.8807 81.2019 27.4329C80.8983 25.4835 80.1443 24.0329 78.6085 23.0326C77.3292 22.1994 75.4705 19.5051 75.1011 20.226C74.753 21.189 75.6548 22.0711 76.219 22.9247C76.7831 23.7783 77.815 25.9414 77.8351 26.1695C77.864 26.4959 77.6769 26.7946 77.5308 27.0873C76.5282 29.0924 77.7468 31.9459 78.6273 32.3536C79.9327 32.9582 80.288 32.2205 81.3304 31.2266C81.5914 30.9776 81.7399 30.6945 81.7701 30.3345Z" fill="#CC8F87"/>
</g>
</g>
</g>
<defs>
<linearGradient id="paint0_linear" x1="190.228" y1="12.965" x2="63.7234" y2="40.261" gradientUnits="userSpaceOnUse">
<stop stop-color="#4300D3"/>
<stop offset="1" stop-color="#4300D3" stop-opacity="0"/>
</linearGradient>
<linearGradient id="paint1_linear" x1="75.6869" y1="35.7549" x2="192.436" y2="64.0561" gradientUnits="userSpaceOnUse">
<stop stop-color="#FF0F13"/>
<stop offset="1" stop-color="#BF0020" stop-opacity="0"/>
</linearGradient>
<linearGradient id="paint2_linear" x1="128.058" y1="53.1995" x2="128.058" y2="90.0911" gradientUnits="userSpaceOnUse">
<stop stop-color="#C6006B" stop-opacity="0"/>
<stop offset="1" stop-color="#C6006B"/>
</linearGradient>
<linearGradient id="paint3_linear" x1="62.0254" y1="41.1069" x2="96.1647" y2="41.1069" gradientUnits="userSpaceOnUse">
<stop stop-color="#DC978E"/>
<stop offset="1" stop-color="#BE8780"/>
</linearGradient>
<linearGradient id="paint4_linear" x1="192.508" y1="26.0131" x2="164.676" y2="54.1448" gradientUnits="userSpaceOnUse">
<stop stop-color="#DC978E"/>
<stop offset="1" stop-color="#BE8780"/>
</linearGradient>
<linearGradient id="paint5_linear" x1="176.775" y1="31.9066" x2="73.0656" y2="51.9653" gradientUnits="userSpaceOnUse">
<stop stop-color="#4300D3"/>
<stop offset="1" stop-color="#4300D3" stop-opacity="0"/>
</linearGradient>
<linearGradient id="paint6_linear" x1="142.728" y1="88.7172" x2="113.957" y2="94.9252" gradientUnits="userSpaceOnUse">
<stop stop-color="#4300D3"/>
<stop offset="1" stop-color="#4300D3" stop-opacity="0"/>
</linearGradient>
<linearGradient id="paint7_linear" x1="116.678" y1="93.9004" x2="143.231" y2="100.337" gradientUnits="userSpaceOnUse">
<stop stop-color="#FF0F13"/>
<stop offset="1" stop-color="#BF0020" stop-opacity="0"/>
</linearGradient>
<clipPath id="clip0">
<rect width="295" height="161" fill="white"/>
</clipPath>
<clipPath id="clip1">
<rect width="135" height="118.183" fill="white" transform="translate(61 19)"/>
</clipPath>
<clipPath id="clip2">
<rect width="23.3564" height="23.3564" fill="white" transform="translate(117.522 93.7405)"/>
</clipPath>
</defs>
</svg>
