<svg width="161" height="161" viewBox="0 0 161 161" fill="none" xmlns="http://www.w3.org/2000/svg">
<g clip-path="url(#clip0)">
<path opacity="0.05" d="M203.898 -5.43394C162.377 6.19205 109.846 -22.4666 39.2319 41.1851C-10.5241 86.0354 0.461997 144.465 11.4167 184.501C22.8434 226.259 56.7045 276.503 96.4834 286.999C135.57 297.311 163.832 286.098 203.059 254.233C274.093 196.53 347.309 98.9292 324.164 -11.4036C307.635 -90.1959 224.381 -11.169 203.898 -5.43394Z" fill="#8821FF"/>
<g clip-path="url(#clip1)">
<mask id="mask0" mask-type="alpha" maskUnits="userSpaceOnUse" x="-5" y="17" width="159" height="122">
<path d="M137.845 78.9377C137.845 111.87 111.148 138.567 78.2152 138.567C45.2828 138.567 18.5858 111.87 18.5858 78.9377C-45.2175 15.1346 41.1361 17.4038 74.0685 17.4038C201.597 17.4038 137.845 46.0053 137.845 78.9377Z" fill="#C4C4C4"/>
</mask>
<g mask="url(#mask0)">
<circle cx="77.7486" cy="88.5299" r="48.7922" stroke="#5C00C7" stroke-width="3.70387"/>
<circle cx="77.7486" cy="88.5299" r="48.7922" stroke="url(#paint0_linear)" stroke-opacity="0.25" stroke-width="3.70387"/>
<circle cx="77.7486" cy="88.5299" r="48.7922" stroke="url(#paint1_linear)" stroke-opacity="0.15" stroke-width="3.70387"/>
<path d="M81.5239 57.3544C80.3161 55.2687 77.1637 54.6649 75.2762 56.1576C74.6707 56.6363 74.172 57.2958 73.4428 57.544C71.6223 58.1627 72.0423 55.9671 70.1403 56.2426C66.8875 56.7137 68.6928 62.4728 63.8532 63.5525C62.064 63.9519 58.99 61.7844 57.1759 62.0458C54.5804 62.4203 54.2106 66.93 51.6003 67.1834C50.635 67.2773 49.7356 66.6995 48.7752 66.5616C47.8151 66.4236 46.57 67.1798 46.9097 68.092C47.4514 70.5786 47.3755 70.5786 48.0998 72.9121C49.4895 77.3886 50.7045 82.0114 54.5001 84.7422C58.2961 87.4734 62.3571 89.1309 66.8418 90.4368C70.9229 91.6252 75.642 92.5205 79.8728 92.1287C85.3749 91.6187 90.3514 88.4196 94.1133 84.3549C97.8748 80.2902 100.588 75.3819 103.264 70.5269C102.176 71.5473 100.373 70.6688 99.4074 69.5317C98.4417 68.3939 97.6246 66.9212 96.1807 66.5588C94.9513 66.2508 93.6178 66.8739 92.4048 66.505C90.0173 65.7793 89.6238 61.8209 87.1529 61.4744C86.198 61.3405 84.8875 61.887 83.9551 61.6412C82.2651 61.197 82.4008 58.8695 81.5239 57.3544Z" fill="#428DFC"/>
<path d="M81.5239 57.3544C80.3161 55.2687 77.1637 54.6649 75.2762 56.1576C74.6707 56.6363 74.172 57.2958 73.4428 57.544C71.6223 58.1627 72.0423 55.9671 70.1403 56.2426C66.8875 56.7137 68.6928 62.4728 63.8532 63.5525C62.064 63.9519 58.99 61.7844 57.1759 62.0458C54.5804 62.4203 54.2106 66.93 51.6003 67.1834C50.635 67.2773 49.7356 66.6995 48.7752 66.5616C47.8151 66.4236 46.57 67.1798 46.9097 68.092C47.4514 70.5786 47.3755 70.5786 48.0998 72.9121C49.4895 77.3886 50.7045 82.0114 54.5001 84.7422C58.2961 87.4734 62.3571 89.1309 66.8418 90.4368C70.9229 91.6252 75.642 92.5205 79.8728 92.1287C85.3749 91.6187 90.3514 88.4196 94.1133 84.3549C97.8748 80.2902 100.588 75.3819 103.264 70.5269C102.176 71.5473 100.373 70.6688 99.4074 69.5317C98.4417 68.3939 97.6246 66.9212 96.1807 66.5588C94.9513 66.2508 93.6178 66.8739 92.4048 66.505C90.0173 65.7793 89.6238 61.8209 87.1529 61.4744C86.198 61.3405 84.8875 61.887 83.9551 61.6412C82.2651 61.197 82.4008 58.8695 81.5239 57.3544Z" fill="#428DFC"/>
<path d="M81.5239 57.3544C80.3161 55.2687 77.1637 54.6649 75.2762 56.1576C74.6707 56.6363 74.172 57.2958 73.4428 57.544C71.6223 58.1627 72.0423 55.9671 70.1403 56.2426C66.8875 56.7137 68.6928 62.4728 63.8532 63.5525C62.064 63.9519 58.99 61.7844 57.1759 62.0458C54.5804 62.4203 54.2106 66.93 51.6003 67.1834C50.635 67.2773 49.7356 66.6995 48.7752 66.5616C47.8151 66.4236 46.57 67.1798 46.9097 68.092C47.4514 70.5786 47.3755 70.5786 48.0998 72.9121C49.4895 77.3886 50.7045 82.0114 54.5001 84.7422C58.2961 87.4734 62.3571 89.1309 66.8418 90.4368C70.9229 91.6252 75.642 92.5205 79.8728 92.1287C85.3749 91.6187 90.3514 88.4196 94.1133 84.3549C97.8748 80.2902 100.588 75.3819 103.264 70.5269C102.176 71.5473 100.373 70.6688 99.4074 69.5317C98.4417 68.3939 97.6246 66.9212 96.1807 66.5588C94.9513 66.2508 93.6178 66.8739 92.4048 66.505C90.0173 65.7793 89.6238 61.8209 87.1529 61.4744C86.198 61.3405 84.8875 61.887 83.9551 61.6412C82.2651 61.197 82.4008 58.8695 81.5239 57.3544Z" fill="url(#paint2_linear)" fill-opacity="0.5"/>
<path d="M28.4348 29.2307C27.5908 25.8576 26.2196 25.7229 23.749 23.2418C23.3499 22.8413 22.9182 22.2114 22.4713 22.5574C22.0349 23.7923 25.1126 25.8941 25.3808 28.7792C21.3551 26.4417 15.3619 25.3091 11.737 25.5517C10.4593 25.6371 12.6737 26.6639 15.5707 27.0917C18.2152 27.4818 19.8305 28.5459 22.2035 29.776C22.3436 30.1833 20.7588 29.5017 20.342 29.4015C16.3886 28.4484 13.6113 27.6903 9.40092 27.3707C8.15901 27.5191 10.2999 29.6408 11.4387 30.0859C14.2694 31.1913 17.4447 32.0196 20.2746 33.125C19.5318 34.4922 10.5466 30.3518 12.0134 32.1825C14.6217 35.127 20.1212 36.3225 24.0405 36.1325C24.6865 36.1016 25.3302 36.1152 25.9622 36.2548C27.7164 36.6409 29.1133 40.5889 29.5337 42.1161C32.4873 52.8389 34.7921 57.3017 37.2579 64.0179C37.9822 63.0055 42.0127 59.0073 43.1647 58.5426C40.9382 52.4868 29.9762 34.4541 29.2013 32.4815C29.0358 32.0597 28.279 28.8049 28.4348 29.2307Z" fill="url(#paint3_linear)"/>
<path d="M123.027 29.0803C123.871 25.7072 125.242 25.5725 127.713 23.0914C128.112 22.6909 128.544 22.061 128.991 22.407C129.427 23.6419 126.349 25.7437 126.081 28.6288C130.107 26.2914 136.1 25.1587 139.725 25.4013C141.003 25.4867 138.788 26.5135 135.891 26.9413C133.247 27.3314 131.632 28.3955 129.259 29.6256C129.118 30.0329 130.703 29.3513 131.12 29.2511C135.073 28.2981 137.851 27.5399 142.061 27.2203C143.303 27.3687 141.162 29.4905 140.023 29.9355C137.193 31.0409 134.017 31.8692 131.187 32.9746C131.93 34.3418 139.385 29.7218 137.918 31.5525C135.309 34.497 131.341 36.1721 127.422 35.9821C126.775 35.9512 126.132 35.9648 125.5 36.1044C123.746 36.4905 122.349 40.4385 121.928 41.9657C118.975 52.6885 116.67 57.1513 114.204 63.8675C113.48 62.8551 109.449 58.8569 108.297 58.3922C110.524 52.3364 121.486 34.3037 122.261 32.3311C122.426 31.9093 123.183 28.6545 123.027 29.0803Z" fill="url(#paint4_linear)"/>
<path d="M80.4712 88.0313C80.1641 87.8854 79.8573 87.7395 79.5501 87.5931C79.873 82.1965 79.867 76.6571 80.2532 71.3262C78.0404 72.7688 74.2047 73.4407 71.5903 73.0887C72.3629 78.1963 72.7319 83.4434 72.0621 88.565C74.8431 88.156 77.6618 87.96 80.4712 88.0313Z" fill="#B07171"/>
<path d="M74.9922 77.0176C76.5606 76.8873 77.9916 76.0333 79.152 74.966C81.6202 72.6955 83.0685 69.3468 83.0355 65.9857C83.0251 64.8984 82.8645 63.8062 82.4895 62.7862C81.1725 59.2066 76.9677 56.979 73.2817 57.908C71.8406 58.2708 70.5044 59.0615 69.5154 60.1745C67.5174 62.4218 67.1135 65.7087 67.4957 68.6969C67.7579 70.7489 68.3711 72.8093 69.6459 74.4355C70.9203 76.0605 72.9392 77.1884 74.9922 77.0176Z" fill="#CC8A82"/>
<path d="M69.9595 70.3239C71.0239 71.8358 73.001 72.1169 74.844 72.0547C76.5967 71.9962 77.8089 71.2528 79.1945 70.0308C78.4911 71.4762 78.5473 71.7821 77.5559 72.9131C76.5071 74.1107 75.4836 74.753 73.5957 74.3998C73.2275 74.3308 72.3172 73.7715 72.0281 73.5326C70.7537 72.4813 70.6417 71.8322 69.9595 70.3239Z" fill="white"/>
<path d="M69.3081 78.6852C69.2627 78.6852 69.2161 78.6664 69.1828 78.6303C68.6669 78.0706 69.1282 77.3184 69.4992 76.7146L69.6032 76.5434C70.1601 75.6156 70.1641 74.3663 69.6136 73.4345C69.5498 73.3267 69.4787 73.2192 69.4073 73.111C69.1254 72.6848 68.8331 72.2433 68.9134 71.7165C68.9796 71.2767 69.2888 70.9307 69.5879 70.5955C69.9268 70.2154 70.2191 69.8878 70.0858 69.5133C70.0095 69.2984 69.7433 69.1397 69.4868 68.9861C69.1278 68.7716 68.7203 68.5282 68.7957 68.0671C68.8957 67.4541 69.4297 67.1189 69.9461 66.7962C70.1585 66.6635 70.3585 66.538 70.5283 66.3956C70.9045 66.0789 70.5279 65.3051 70.4034 65.0753C70.3276 64.9342 70.2408 64.7967 70.1553 64.6596C69.9501 64.332 69.7381 63.9932 69.6486 63.5979C69.4667 62.7944 69.8497 61.8738 70.6231 61.2524C71.2788 60.7263 72.2585 60.3943 73.1246 60.1245C73.2161 60.0969 73.3101 60.1474 73.3378 60.2372C73.3659 60.3278 73.3153 60.4228 73.2258 60.4509C72.6211 60.6389 71.4964 60.9897 70.8363 61.5194C70.3251 61.9295 69.7947 62.6998 69.981 63.5213C70.0573 63.8597 70.2456 64.1592 70.4436 64.4767C70.5335 64.6203 70.6231 64.7642 70.703 64.9113C70.9021 65.2794 71.3065 66.1875 70.7467 66.6574C70.5592 66.8154 70.3392 66.9529 70.1264 67.0864C69.6534 67.3823 69.2065 67.6622 69.1318 68.1229C69.0961 68.3422 69.3093 68.4817 69.6606 68.6918C69.9557 68.8674 70.289 69.0675 70.4071 69.3983C70.6082 69.964 70.2187 70.401 69.8421 70.8236C69.5763 71.1215 69.3025 71.4286 69.2511 71.7682C69.1908 72.1644 69.4342 72.5324 69.6919 72.9221C69.7662 73.0352 69.8409 73.1479 69.9076 73.2601C70.5203 74.297 70.5155 75.6874 69.8959 76.7198L69.7903 76.8938C69.3956 77.5365 69.1182 78.0554 69.4338 78.3974C69.498 78.4671 69.4936 78.575 69.4245 78.6391C69.3912 78.67 69.3494 78.6852 69.3081 78.6852Z" fill="#428DFC"/>
<path d="M102.217 68.6999C100.973 68.6999 99.7982 67.5119 99.4083 67.0745C98.5024 66.0573 97.481 64.9074 96.227 65.0914C95.9006 65.1387 95.5946 65.2766 95.2702 65.4222C94.9144 65.5822 94.547 65.7481 94.1411 65.7886C92.7337 65.9274 91.7014 64.5401 91.212 63.6993C91.1457 63.5859 91.0803 63.4704 91.014 63.3541C90.4816 62.4199 89.9303 61.4541 88.9863 61.0848C88.0443 60.7175 87.0012 61.0587 85.9913 61.3895C85.6918 61.4878 85.3826 61.5888 85.0799 61.6702C84.0821 61.9388 82.9434 61.7997 82.2455 61.3246C81.8171 61.0323 81.5601 60.6221 81.5035 60.1374C81.4931 60.0436 81.5601 59.9586 81.6529 59.9477C81.7488 59.9353 81.8308 60.0043 81.842 60.0977C81.887 60.4862 82.0873 60.8037 82.4363 61.0419C83.0474 61.4577 84.0974 61.5808 84.9911 61.3406C85.2859 61.2616 85.5906 61.1614 85.8857 61.0652C86.9526 60.7163 88.0548 60.3551 89.1104 60.7673C90.1668 61.1798 90.7478 62.199 91.3095 63.1853C91.3754 63.3004 91.4408 63.4147 91.5063 63.5277C91.9548 64.2979 92.8919 65.5705 94.1074 65.449C94.4571 65.4142 94.7847 65.2666 95.1308 65.1106C95.4625 64.9615 95.805 64.8075 96.1784 64.7534C97.6082 64.5465 98.7462 65.8187 99.658 66.8419C100.105 67.3435 101.65 68.9055 102.966 68.1602C103.046 68.1133 103.151 68.1422 103.198 68.2248C103.245 68.3069 103.216 68.4112 103.134 68.4581C102.83 68.6285 102.521 68.6999 102.217 68.6999Z" fill="#428DFC"/>
<path d="M109.639 54.6985C104.181 65.6947 98.5911 74.8742 89.5026 85.692C86.5514 83.4611 84.5421 83.8789 79.7255 83.9683C79.511 85.6483 78.2065 87.0355 76.4956 87.0227C73.4934 87.0002 72.4486 84.2654 72.4486 84.2654C69.1465 84.4374 66.0845 83.8104 62.7663 85.0986C61.5119 80.4044 47.3341 63.8131 42.4026 56.1924C40.0545 57.987 37.2165 59.1297 34.2842 59.4617C39.41 72.1558 53.353 100.972 54.2223 103.658C54.6997 109.89 54.5407 127.466 55.1775 134.976C57.3441 140.406 60.9076 145.522 70.6189 146.351C81.4207 147.273 90.5489 144.643 95.6186 135.856C96.3803 127.843 96.9705 110.85 97.0777 109.284C97.2371 106.946 97.4624 104.355 97.9659 103.22C104.98 87.4184 110.788 75.4764 116.595 59.1882C114.445 57.821 111.788 56.0673 109.639 54.6985Z" fill="#9500CB"/>
<path d="M109.639 54.6985C104.181 65.6947 98.5911 74.8742 89.5026 85.692C86.5514 83.4611 84.5421 83.8789 79.7255 83.9683C79.511 85.6483 78.2065 87.0355 76.4956 87.0227C73.4934 87.0002 72.4486 84.2654 72.4486 84.2654C69.1465 84.4374 66.0845 83.8104 62.7663 85.0986C61.5119 80.4044 47.3341 63.8131 42.4026 56.1924C40.0545 57.987 37.2165 59.1297 34.2842 59.4617C39.41 72.1558 53.353 100.972 54.2223 103.658C54.6997 109.89 54.5407 127.466 55.1775 134.976C57.3441 140.406 60.9076 145.522 70.6189 146.351C81.4207 147.273 90.5489 144.643 95.6186 135.856C96.3803 127.843 96.9705 110.85 97.0777 109.284C97.2371 106.946 97.4624 104.355 97.9659 103.22C104.98 87.4184 110.788 75.4764 116.595 59.1882C114.445 57.821 111.788 56.0673 109.639 54.6985Z" fill="url(#paint5_linear)" fill-opacity="0.45"/>
<g clip-path="url(#clip2)">
<path d="M79.2833 96.0312L81.1663 98.9426L84.6294 99.1159L84.8044 102.579L87.7174 104.46L86.1372 107.547L87.7191 110.632L84.8077 112.515L84.6344 115.978L81.1718 116.153L79.2905 119.066L76.2036 117.486L73.1183 119.068L71.2354 116.156L67.7722 115.983L67.5973 112.52L64.6843 110.639L66.2645 107.552L64.6826 104.467L67.594 102.584L67.7673 99.1209L71.2299 98.9459L73.1112 96.0329L76.1981 97.6131L79.2833 96.0312Z" fill="#5C00C7"/>
<path d="M79.2833 96.0312L81.1663 98.9426L84.6294 99.1159L84.8044 102.579L87.7174 104.46L86.1372 107.547L87.7191 110.632L84.8077 112.515L84.6344 115.978L81.1718 116.153L79.2905 119.066L76.2036 117.486L73.1183 119.068L71.2354 116.156L67.7722 115.983L67.5973 112.52L64.6843 110.639L66.2645 107.552L64.6826 104.467L67.594 102.584L67.7673 99.1209L71.2299 98.9459L73.1112 96.0329L76.1981 97.6131L79.2833 96.0312Z" fill="url(#paint6_linear)" fill-opacity="0.25"/>
<path d="M79.2833 96.0312L81.1663 98.9426L84.6294 99.1159L84.8044 102.579L87.7174 104.46L86.1372 107.547L87.7191 110.632L84.8077 112.515L84.6344 115.978L81.1718 116.153L79.2905 119.066L76.2036 117.486L73.1183 119.068L71.2354 116.156L67.7722 115.983L67.5973 112.52L64.6843 110.639L66.2645 107.552L64.6826 104.467L67.594 102.584L67.7673 99.1209L71.2299 98.9459L73.1112 96.0329L76.1981 97.6131L79.2833 96.0312Z" fill="url(#paint7_linear)" fill-opacity="0.15"/>
<path d="M76.2004 112.829C78.8966 111.504 80.6875 110.018 81.5999 108.491C82.3726 107.199 82.4688 105.938 81.9837 104.901C81.5432 103.96 80.6483 103.288 79.6175 103.114C78.5172 102.93 77.3975 103.325 76.5098 104.303L76.2004 104.644L75.891 104.303C75.0033 103.325 73.8836 102.93 72.7833 103.114C71.7525 103.288 70.8576 103.96 70.4172 104.901C69.932 105.938 70.0283 107.199 70.8009 108.491C71.7133 110.018 73.5042 111.504 76.2004 112.829Z" stroke="white" stroke-width="1.18744"/>
<path d="M75.8998 109.105L75.1981 109.488C75.1263 109.527 75.0376 109.498 74.9999 109.424C74.9849 109.394 74.9797 109.36 74.9852 109.327L75.1192 108.516C75.1506 108.326 75.09 108.132 74.957 107.998L74.389 107.423C74.331 107.364 74.3298 107.268 74.3864 107.208C74.4089 107.184 74.4384 107.168 74.4703 107.163L75.2551 107.045C75.4389 107.017 75.5978 106.897 75.68 106.725L76.0309 105.987C76.0667 105.911 76.1547 105.88 76.2274 105.917C76.2563 105.932 76.2798 105.956 76.294 105.987L76.645 106.725C76.7272 106.897 76.8861 107.017 77.0699 107.045L77.8546 107.163C77.9348 107.175 77.9903 107.253 77.9787 107.336C77.974 107.369 77.959 107.4 77.9359 107.423L77.3679 107.998C77.235 108.132 77.1743 108.326 77.2057 108.516L77.3398 109.327C77.3535 109.41 77.2998 109.489 77.22 109.503C77.1882 109.509 77.1554 109.503 77.1269 109.488L76.4251 109.105C76.2607 109.015 76.0642 109.015 75.8998 109.105Z" fill="white"/>
</g>
<path d="M140.51 114.422C140.536 114.518 140.613 114.579 140.708 114.553C140.803 114.527 140.864 114.449 140.838 114.354C140.812 114.259 140.735 114.198 140.64 114.223C140.545 114.249 140.485 114.327 140.51 114.422ZM146.846 129.693C146.785 129.771 146.811 129.866 146.888 129.927C146.966 129.987 147.061 129.962 147.121 129.884C147.182 129.806 147.156 129.711 147.079 129.65C147.01 129.546 146.906 129.615 146.846 129.693ZM149.014 126.078C148.954 126.155 148.98 126.251 149.057 126.312C149.134 126.372 149.229 126.347 149.29 126.269C149.351 126.191 149.325 126.096 149.248 126.035C149.213 125.983 149.075 126 149.014 126.078ZM141.649 122.319C141.726 122.38 141.812 122.398 141.908 122.372C141.968 122.294 141.986 122.208 141.96 122.112C141.883 122.052 141.797 122.034 141.745 122.068C141.598 122.128 141.581 122.215 141.649 122.319ZM145.074 119.818C145.152 119.878 145.238 119.896 145.333 119.87C145.394 119.792 145.411 119.706 145.386 119.611C145.308 119.55 145.222 119.532 145.17 119.566C145.023 119.627 144.997 119.757 145.074 119.818ZM155.255 130.734C155.238 130.82 155.306 130.925 155.393 130.943C155.479 130.96 155.583 130.891 155.6 130.805C155.618 130.718 155.549 130.614 155.463 130.596C155.377 130.578 155.273 130.647 155.255 130.734ZM155.925 126.542C155.907 126.628 155.976 126.733 156.062 126.75C156.148 126.768 156.252 126.699 156.27 126.612C156.287 126.526 156.218 126.422 156.132 126.404C156.046 126.387 155.942 126.456 155.925 126.542ZM139.331 118.915C139.365 118.967 139.486 119.037 139.546 118.959C139.598 118.925 139.668 118.803 139.59 118.743C139.555 118.691 139.435 118.621 139.374 118.698C139.28 118.724 139.262 118.811 139.331 118.915ZM142.555 116.959C142.59 117.011 142.711 117.08 142.771 117.003C142.823 116.969 142.883 116.891 142.815 116.787C142.78 116.734 142.703 116.674 142.599 116.742C142.539 116.82 142.521 116.906 142.555 116.959ZM151.932 128.296C151.915 128.383 151.94 128.478 152.027 128.496C152.113 128.514 152.164 128.479 152.225 128.401C152.243 128.315 152.217 128.219 152.131 128.202C152.045 128.184 151.95 128.21 151.932 128.296ZM152.85 124.651C152.833 124.738 152.858 124.833 152.945 124.851C153.031 124.869 153.082 124.834 153.143 124.756C153.161 124.67 153.135 124.574 153.049 124.557C152.963 124.54 152.868 124.565 152.85 124.651ZM145.582 123.077C145.521 123.155 145.547 123.25 145.624 123.311C145.701 123.372 145.797 123.346 145.857 123.269C145.918 123.191 145.892 123.095 145.815 123.034C145.738 122.973 145.642 123 145.582 123.077ZM137.412 122.4C137.351 122.478 137.377 122.574 137.454 122.635C137.532 122.695 137.627 122.67 137.688 122.592C137.748 122.514 137.722 122.419 137.645 122.358C137.568 122.297 137.473 122.323 137.412 122.4ZM140.004 118.918C139.943 118.995 139.969 119.091 140.046 119.152C140.123 119.213 140.219 119.187 140.279 119.109C140.34 119.031 140.314 118.936 140.237 118.875C140.159 118.814 140.064 118.84 140.004 118.918ZM142.56 115.382C142.5 115.459 142.525 115.555 142.603 115.616C142.68 115.676 142.775 115.651 142.836 115.573C142.896 115.495 142.871 115.4 142.794 115.339C142.707 115.321 142.612 115.347 142.56 115.382ZM155.078 126.955C155.104 127.051 155.181 127.112 155.276 127.086C155.371 127.06 155.432 126.982 155.406 126.887C155.38 126.792 155.303 126.731 155.208 126.756C155.122 126.739 155.053 126.86 155.078 126.955ZM140.24 109.768C140.137 109.837 140.119 109.924 140.188 110.027L140.24 109.768ZM145.992 124.378C145.974 124.465 146.043 124.569 146.129 124.587C146.215 124.604 146.319 124.536 146.337 124.449C146.354 124.363 146.286 124.258 146.199 124.24C146.113 124.223 146.009 124.292 145.992 124.378ZM143.023 124.403C143.006 124.489 143.074 124.594 143.161 124.612C143.247 124.629 143.351 124.56 143.368 124.474C143.386 124.388 143.36 124.292 143.231 124.265C143.145 124.248 143.041 124.317 143.023 124.403ZM144.227 120.231C144.209 120.317 144.278 120.421 144.364 120.439C144.451 120.457 144.546 120.431 144.572 120.301C144.59 120.215 144.521 120.11 144.444 120.049C144.349 120.075 144.245 120.144 144.227 120.231ZM138.878 114.72C138.817 114.797 138.843 114.893 138.92 114.954C138.998 115.014 139.093 114.989 139.196 114.92C139.257 114.842 139.231 114.747 139.163 114.643C139.033 114.616 138.939 114.642 138.878 114.72ZM140.579 114.301C140.562 114.387 140.597 114.439 140.631 114.492C140.717 114.509 140.768 114.474 140.821 114.44C140.839 114.354 140.804 114.302 140.77 114.249C140.683 114.231 140.588 114.257 140.579 114.301Z" fill="white"/>
<path d="M74.6171 57.4768C75.3146 57.3325 76.5232 57.5887 77.1981 57.816C77.5735 57.9427 79.3294 58.6038 79.6522 58.834C81.2515 59.9738 81.9036 61.0055 82.9102 62.6938C83.4703 63.6336 83.5053 64.6825 83.7566 65.7478C84.0341 66.9245 83.8514 68.2517 83.3728 69.3619C83.2752 68.6277 83.1732 67.882 82.8737 67.2052C82.426 66.1932 81.5663 65.4134 80.6207 64.8413C79.6751 64.2691 78.634 63.8798 77.6201 63.4404C76.7673 63.0711 75.9305 62.6646 75.113 62.2231C74.2521 61.7584 73.3355 61.1534 73.1138 60.1992C72.7597 60.3924 72.3706 60.5123 72.0012 60.6743C71.2042 61.0239 70.5087 61.5652 69.8221 62.1012C68.4433 63.1778 68.5244 62.7363 67.0432 65.4086C66.8637 65.7326 67.0592 62.1514 67.5451 61.6662C67.7599 61.4521 69.7631 59.3596 69.9627 59.1311C70.5216 58.4912 73.6221 57.6829 74.6171 57.4768Z" fill="#428DFC"/>
<path d="M28.7701 32.4653C28.8058 32.0415 28.638 31.6362 28.5026 31.2337C28.3585 30.8042 28.2718 30.0116 28.2019 29.5637C27.8983 27.6144 27.1443 26.1638 25.6085 25.1634C24.3292 24.3303 22.4705 21.6359 22.1011 22.3568C21.753 23.3199 22.6548 24.202 23.219 25.0556C23.7831 25.9092 24.815 28.0722 24.8351 28.3004C24.864 28.6267 24.6769 28.9254 24.5308 29.2181C23.5282 31.2232 24.7468 34.0767 25.6273 34.4845C26.9327 35.0891 27.288 34.3514 28.3304 33.3574C28.5914 33.1085 28.7399 32.8254 28.7701 32.4653Z" fill="#CC8F87"/>
</g>
</g>
</g>
<defs>
<linearGradient id="paint0_linear" x1="137.228" y1="15.0959" x2="10.7234" y2="42.3919" gradientUnits="userSpaceOnUse">
<stop stop-color="#4300D3"/>
<stop offset="1" stop-color="#4300D3" stop-opacity="0"/>
</linearGradient>
<linearGradient id="paint1_linear" x1="22.6869" y1="37.8857" x2="139.436" y2="66.1869" gradientUnits="userSpaceOnUse">
<stop stop-color="#FF0F13"/>
<stop offset="1" stop-color="#BF0020" stop-opacity="0"/>
</linearGradient>
<linearGradient id="paint2_linear" x1="75.0581" y1="55.3303" x2="75.0581" y2="92.222" gradientUnits="userSpaceOnUse">
<stop stop-color="#C6006B" stop-opacity="0"/>
<stop offset="1" stop-color="#C6006B"/>
</linearGradient>
<linearGradient id="paint3_linear" x1="9.02539" y1="43.2377" x2="43.1647" y2="43.2377" gradientUnits="userSpaceOnUse">
<stop stop-color="#DC978E"/>
<stop offset="1" stop-color="#BE8780"/>
</linearGradient>
<linearGradient id="paint4_linear" x1="139.508" y1="28.144" x2="111.676" y2="56.2757" gradientUnits="userSpaceOnUse">
<stop stop-color="#DC978E"/>
<stop offset="1" stop-color="#BE8780"/>
</linearGradient>
<linearGradient id="paint5_linear" x1="123.775" y1="34.0375" x2="20.0656" y2="54.0961" gradientUnits="userSpaceOnUse">
<stop stop-color="#4300D3"/>
<stop offset="1" stop-color="#4300D3" stop-opacity="0"/>
</linearGradient>
<linearGradient id="paint6_linear" x1="89.7285" y1="90.8481" x2="60.957" y2="97.0561" gradientUnits="userSpaceOnUse">
<stop stop-color="#4300D3"/>
<stop offset="1" stop-color="#4300D3" stop-opacity="0"/>
</linearGradient>
<linearGradient id="paint7_linear" x1="63.6779" y1="96.0312" x2="90.2306" y2="102.468" gradientUnits="userSpaceOnUse">
<stop stop-color="#FF0F13"/>
<stop offset="1" stop-color="#BF0020" stop-opacity="0"/>
</linearGradient>
<clipPath id="clip0">
<rect width="161" height="161" rx="8" fill="white"/>
</clipPath>
<clipPath id="clip1">
<rect width="135" height="118.183" fill="white" transform="translate(8 21.1309)"/>
</clipPath>
<clipPath id="clip2">
<rect width="23.3564" height="23.3564" fill="white" transform="translate(64.5225 95.8713)"/>
</clipPath>
</defs>
</svg>
